<?xml version="1.0" encoding="UTF-8" standalone="no"?>
<svg
   version="1.2"
   width="139.2863mm"
   height="20.47319mm"
   viewBox="0 0 79.261599 11.650376"
   id="svg68"
   sodipodi:docname="fig_212.svg"
   xmlns:inkscape="http://www.inkscape.org/namespaces/inkscape"
   xmlns:sodipodi="http://sodipodi.sourceforge.net/DTD/sodipodi-0.dtd"
   xmlns:xlink="http://www.w3.org/1999/xlink"
   xmlns="http://www.w3.org/2000/svg"
   xmlns:svg="http://www.w3.org/2000/svg">
  <defs
     id="defs68" />
  <sodipodi:namedview
     id="namedview68"
     pagecolor="#505050"
     bordercolor="#eeeeee"
     borderopacity="1"
     inkscape:showpageshadow="0"
     inkscape:pageopacity="0"
     inkscape:pagecheckerboard="0"
     inkscape:deskcolor="#505050"
     inkscape:document-units="mm" />
  <style
     type="text/css"
     id="style1"><![CDATA[
tspan { white-space: pre; }
]]></style>
  <g
     transform="translate(79.0716,7.150376)"
     id="g1">
    <rect
       x="0"
       y="-2"
       width="0.19"
       height="4"
       ry="0.0000"
       fill="currentColor"
       id="rect1" />
  </g>
  <g
     transform="translate(78.5816,7.150376)"
     id="g2">
    <rect
       x="0"
       y="-2"
       width="0.19"
       height="4"
       ry="0.0000"
       fill="currentColor"
       id="rect2" />
  </g>
  <g
     transform="translate(0,10.150376)"
     id="g3">
    <rect
       x="11.7642"
       y="-0.1"
       width="1.8053"
       height="0.2"
       ry="0.1"
       fill="currentColor"
       id="rect3" />
  </g>
  <g
     transform="translate(0,9.150376)"
     id="g4">
    <line
       stroke-linejoin="round"
       stroke-linecap="round"
       stroke-width="0.1"
       stroke="currentColor"
       x1="0.050000001"
       y1="0"
       x2="79.211502"
       y2="0"
       id="line3" />
  </g>
  <g
     transform="translate(0,8.150376)"
     id="g5">
    <line
       stroke-linejoin="round"
       stroke-linecap="round"
       stroke-width="0.1"
       stroke="currentColor"
       x1="0.050000001"
       y1="0"
       x2="79.211502"
       y2="0"
       id="line4" />
  </g>
  <g
     transform="translate(0,7.150376)"
     id="g6">
    <line
       stroke-linejoin="round"
       stroke-linecap="round"
       stroke-width="0.1"
       stroke="currentColor"
       x1="0.050000001"
       y1="0"
       x2="79.211502"
       y2="0"
       id="line5" />
  </g>
  <g
     transform="translate(0,6.150376)"
     id="g7">
    <line
       stroke-linejoin="round"
       stroke-linecap="round"
       stroke-width="0.1"
       stroke="currentColor"
       x1="0.050000001"
       y1="0"
       x2="79.211502"
       y2="0"
       id="line6" />
  </g>
  <g
     transform="translate(0,5.150376)"
     id="g8">
    <line
       stroke-linejoin="round"
       stroke-linecap="round"
       stroke-width="0.1"
       stroke="currentColor"
       x1="0.050000001"
       y1="0"
       x2="79.211502"
       y2="0"
       id="line7" />
  </g>
  <g
     transform="translate(63.2315,7.150376)"
     id="g9">
    <rect
       x="0"
       y="-2"
       width="0.19"
       height="4"
       ry="0.0000"
       fill="currentColor"
       id="rect8" />
  </g>
  <g
     transform="translate(34.4853,7.150376)"
     id="g10">
    <rect
       x="0"
       y="-2"
       width="0.19"
       height="4"
       ry="0.0000"
       fill="currentColor"
       id="rect9" />
  </g>
  <g
     transform="translate(57.7567,5.150376)"
     id="g11">
    <polygon
       stroke-linejoin="round"
       stroke-linecap="round"
       stroke-width="0.08"
       fill="currentColor"
       stroke="currentColor"
       points="0.04,0.2 0.04,-0.2 3.2962,-0.01 3.2962,0.39 "
       id="polygon10" />
  </g>
  <g
     transform="translate(49.5741,4.340376)"
     id="g12">
    <polygon
       stroke-linejoin="round"
       stroke-linecap="round"
       stroke-width="0.08"
       fill="currentColor"
       stroke="currentColor"
       points="0.04,0.2 0.04,-0.2 5.7684,-0.2 5.7684,0.2 "
       id="polygon11" />
  </g>
  <a
     style="color:inherit"
     xlink:href="textedit:///Users/devonnuri/Documents/typst/241230%20Linear%20Harmony/lilypond/fig_212.ly:8:4:5"
     id="a15"
     transform="translate(-8.5358,-6.690724)">
    <g
       transform="translate(17.1208,8.8411)"
       id="g13">
      <text
         font-family="'Tex Gyre Termes'"
         font-size="2.3308px"
         text-anchor="start"
         fill="currentColor"
         id="text12"><tspan
           id="tspan12">D</tspan></text>
    </g>
    <g
       transform="translate(18.7938,8.8411)"
       id="g14">
      <text
         font-family="'Tex Gyre Termes'"
         font-size="2.3308px"
         text-anchor="start"
         fill="currentColor"
         id="text13"><tspan
           id="tspan13">m</tspan></text>
    </g>
    <g
       transform="translate(20.6034,7.7817)"
       id="g15">
      <text
         font-family="'Tex Gyre Termes'"
         font-size="1.648px"
         text-anchor="start"
         fill="currentColor"
         id="text14"><tspan
           id="tspan14">7</tspan></text>
    </g>
  </a>
  <a
     style="color:inherit"
     xlink:href="textedit:///Users/devonnuri/Documents/typst/241230%20Linear%20Harmony/lilypond/fig_212.ly:11:4:5"
     id="a16"
     transform="translate(-8.5358,-6.690724)">
    <g
       transform="translate(17.1208,16.3411)"
       id="g16">
      <path
         transform="scale(0.004,-0.004)"
         d="M 0,-46 C 0,45 116,136 217,136 280,136 326,101 326,46 326,-41 216,-136 106,-136 39,-136 0,-97 0,-46 Z"
         fill="currentColor"
         id="path15" />
    </g>
  </a>
  <g
     transform="translate(0.8,8.150376)"
     id="g17">
    <path
       transform="scale(0.004,-0.004)"
       d="m 266,-635 h -6 c -108,0 -195,88 -195,197 0,58 53,103 112,103 54,0 95,-47 95,-103 0,-52 -43,-95 -95,-95 -11,0 -21,2 -31,6 26,-39 68,-65 117,-65 h 4 z m 135,786 c 19,-89 48,-242 60,-354 76,27 112,94 112,163 0,89 -60,179 -172,191 z M 74,28 c 0,-112 98,-247 278,-247 21,0 44,2 68,6 -7,64 -29,203 -63,364 -79,-8 -124,-61 -124,-119 0,-44 25,-91 81,-123 5,-5 7,-10 7,-15 0,-11 -10,-22 -22,-22 -15,0 -126,62 -126,187 0,88 58,174 160,197 -14,58 -29,117 -46,175 C 180,310 74,188 74,28 Z m 283,1166 c 28,0 143,-206 143,-361 0,-143 -86,-255 -180,-364 21,-68 39,-138 56,-207 5,0 10,1 14,1 155,0 255,-129 255,-262 0,-113 -74,-212 -180,-245 3,-35 5,-70 5,-105 0,-19 -1,-39 -2,-58 -7,-119 -88,-225 -202,-228 l 1,43 c 93,2 153,92 159,191 1,18 2,37 2,55 0,31 -1,61 -4,92 -28,-5 -55,-8 -80,-8 -239,0 -342,217 -342,374 0,177 131,306 248,441 -29,96 -52,170 -52,346 0,189 144,295 159,295 z M 247,782 c 0,-55 12,-115 35,-190 83,100 147,202 147,326 0,40 -6,82 -21,127 -49,-24 -161,-97 -161,-263 z"
       fill="currentColor"
       id="path16" />
  </g>
  <g
     transform="translate(4.885,7.150376)"
     id="g18">
    <path
       transform="scale(0.004,-0.004)"
       d="M 433,-89 C 433,-111 383,-263 250,-263 191,-263 0,-244 0,0 0,62 18,262 250,262 366,262 426,156 426,99 426,59 396,27 359,27 c -31,0 -75,25 -75,75 0,38 27,77 72,77 4,0 9,0 14,-1 -28,37 -72,59 -120,59 C 144,237 137,164 137,51 V 0 -51 c 0,-113 7,-187 113,-187 80,0 139,70 158,151 2,7 7,10 12,10 6,0 13,-4 13,-12 z"
       fill="currentColor"
       id="path17" />
  </g>
  <g
     transform="translate(9.8242,7.150376)"
     id="g19">
    <rect
       x="-0.064999998"
       y="-0.1865"
       width="0.13"
       height="2.5002999"
       ry="0.039999999"
       fill="currentColor"
       id="rect18" />
  </g>
  <g
     transform="translate(43.1618,5.340376)"
     id="g20">
    <polygon
       stroke-linejoin="round"
       stroke-linecap="round"
       stroke-width="0.08"
       fill="currentColor"
       stroke="currentColor"
       points="0.04,0.2 0.04,-0.2 3.2962,-0.39 3.2962,0.01 "
       id="polygon19" />
  </g>
  <a
     style="color:inherit"
     xlink:href="textedit:///Users/devonnuri/Documents/typst/241230%20Linear%20Harmony/lilypond/fig_212.ly:11:7:8"
     id="a21"
     transform="translate(-8.5358,-6.690724)">
    <g
       transform="translate(20.475,16.8411)"
       id="g21">
      <path
         transform="scale(0.004,-0.004)"
         d="M 0,-46 C 0,45 116,136 217,136 280,136 326,101 326,46 326,-41 216,-136 106,-136 39,-136 0,-97 0,-46 Z"
         fill="currentColor"
         id="path20" />
    </g>
  </a>
  <g
     transform="translate(13.1784,7.150376)"
     id="g22">
    <rect
       x="-0.064999998"
       y="-0.0035000001"
       width="0.13"
       height="2.8173001"
       ry="0.039999999"
       fill="currentColor"
       id="rect21" />
  </g>
  <g
     transform="translate(10.4892,10.150376)"
     id="g23">
    <path
       transform="scale(0.004,-0.004)"
       d="m 0,119 c 0,8 5,15 13,18 l 46,17 v 158 c 0,10 8,19 18,19 10,0 19,-9 19,-19 V 167 l 83,31 v 158 c 0,10 9,19 19,19 10,0 18,-9 18,-19 V 211 l 32,12 c 2,1 5,1 7,1 11,0 20,-9 20,-20 v -60 c 0,-8 -5,-16 -13,-19 L 216,109 V -51 l 32,11 c 2,1 5,1 7,1 11,0 20,-9 20,-20 v -60 c 0,-8 -5,-15 -13,-18 l -46,-17 v -158 c 0,-10 -8,-19 -18,-19 -10,0 -19,9 -19,19 v 145 l -83,-31 v -158 c 0,-10 -9,-19 -19,-19 -10,0 -18,9 -18,19 v 145 l -32,-12 c -2,-1 -5,-1 -7,-1 -11,0 -20,9 -20,20 v 60 c 0,8 5,16 13,19 l 46,16 V 51 L 27,40 C 25,39 22,39 20,39 9,39 0,48 0,59 Z M 179,95 96,65 V -95 l 83,30 z"
       fill="currentColor"
       id="path22" />
  </g>
  <a
     style="color:inherit"
     xlink:href="textedit:///Users/devonnuri/Documents/typst/241230%20Linear%20Harmony/lilypond/fig_212.ly:12:13:14"
     id="a24"
     transform="translate(-8.5358,-6.690724)">
    <g
       transform="translate(60.5702,10.2752)"
       id="g24">
      <text
         font-family="'Tex Gyre Termes'"
         font-style="italic"
         font-size="1.7459px"
         text-anchor="start"
         fill="currentColor"
         id="text23"><tspan
           id="tspan23">3</tspan></text>
    </g>
  </a>
  <a
     style="color:inherit"
     xlink:href="textedit:///Users/devonnuri/Documents/typst/241230%20Linear%20Harmony/lilypond/fig_212.ly:11:11:12"
     id="a25"
     transform="translate(-8.5358,-6.690724)">
    <g
       transform="translate(23.6812,16.3411)"
       id="g25">
      <path
         transform="scale(0.004,-0.004)"
         d="M 0,-46 C 0,45 116,136 217,136 280,136 326,101 326,46 326,-41 216,-136 106,-136 39,-136 0,-97 0,-46 Z"
         fill="currentColor"
         id="path24" />
    </g>
  </a>
  <g
     transform="translate(16.3846,7.150376)"
     id="g26">
    <rect
       x="-0.064999998"
       y="-0.81370002"
       width="0.13"
       height="3.1275001"
       ry="0.039999999"
       fill="currentColor"
       id="rect25" />
  </g>
  <a
     style="color:inherit"
     xlink:href="textedit:///Users/devonnuri/Documents/typst/241230%20Linear%20Harmony/lilypond/fig_212.ly:12:13:14"
     id="a26"
     transform="translate(-8.5358,-6.690724)" />
  <a
     style="color:inherit"
     xlink:href="textedit:///Users/devonnuri/Documents/typst/241230%20Linear%20Harmony/lilypond/fig_212.ly:11:13:14"
     id="a27"
     transform="translate(-8.5358,-6.690724)">
    <g
       transform="translate(26.8873,15.8411)"
       id="g27">
      <path
         transform="scale(0.004,-0.004)"
         d="M 0,-46 C 0,45 116,136 217,136 280,136 326,101 326,46 326,-41 216,-136 106,-136 39,-136 0,-97 0,-46 Z"
         fill="currentColor"
         id="path26" />
    </g>
  </a>
  <g
     transform="translate(19.5907,7.150376)"
     id="g28">
    <rect
       x="-0.064999998"
       y="-0.99629998"
       width="0.13"
       height="2.8101001"
       ry="0.039999999"
       fill="currentColor"
       id="rect27" />
  </g>
  <g
     transform="translate(36.7495,4.150376)"
     id="g29">
    <polygon
       stroke-linejoin="round"
       stroke-linecap="round"
       stroke-width="0.08"
       fill="currentColor"
       stroke="currentColor"
       points="0.04,0.2 0.04,-0.2 3.0462,0.99 3.0462,1.39 "
       id="polygon28" />
  </g>
  <a
     style="color:inherit"
     xlink:href="textedit:///Users/devonnuri/Documents/typst/241230%20Linear%20Harmony/lilypond/fig_212.ly:11:15:16"
     id="a30"
     transform="translate(-8.5358,-6.690724)">
    <g
       transform="translate(30.0935,15.3411)"
       id="g30">
      <path
         transform="scale(0.004,-0.004)"
         d="M 0,-46 C 0,45 116,136 217,136 280,136 326,101 326,46 326,-41 216,-136 106,-136 39,-136 0,-97 0,-46 Z"
         fill="currentColor"
         id="path29" />
    </g>
  </a>
  <g
     transform="translate(22.7969,7.150376)"
     id="g31">
    <rect
       x="-0.064999998"
       y="-1.8137"
       width="0.13"
       height="3.1275001"
       ry="0.039999999"
       fill="currentColor"
       id="rect30" />
  </g>
  <g
     transform="translate(27.9882,9.960376)"
     id="g32">
    <polygon
       stroke-linejoin="round"
       stroke-linecap="round"
       stroke-width="0.08"
       fill="currentColor"
       stroke="currentColor"
       points="0.04,0.2 0.04,-0.2 3.5462,-0.82 3.5462,-0.42 "
       id="polygon31" />
  </g>
  <a
     style="color:inherit"
     xlink:href="textedit:///Users/devonnuri/Documents/typst/241230%20Linear%20Harmony/lilypond/fig_212.ly:11:17:18"
     id="a33"
     transform="translate(-8.5358,-6.690724)">
    <g
       transform="translate(33.2996,14.8411)"
       id="g33">
      <path
         transform="scale(0.004,-0.004)"
         d="M 0,-46 C 0,45 116,136 217,136 280,136 326,101 326,46 326,-41 216,-136 106,-136 39,-136 0,-97 0,-46 Z"
         fill="currentColor"
         id="path32" />
    </g>
  </a>
  <g
     transform="translate(26.003,7.150376)"
     id="g34">
    <rect
       x="-0.064999998"
       y="-1.9963"
       width="0.13"
       height="2.8101001"
       ry="0.039999999"
       fill="currentColor"
       id="rect33" />
  </g>
  <g
     transform="translate(22.7319,5.340376)"
     id="g35">
    <polygon
       stroke-linejoin="round"
       stroke-linecap="round"
       stroke-width="0.08"
       fill="currentColor"
       stroke="currentColor"
       points="0.04,0.2 0.04,-0.2 3.2962,-0.39 3.2962,0.01 "
       id="polygon34" />
  </g>
  <a
     style="color:inherit"
     xlink:href="textedit:///Users/devonnuri/Documents/typst/241230%20Linear%20Harmony/lilypond/fig_212.ly:11:19:20"
     id="a36"
     transform="translate(-8.5358,-6.690724)">
    <g
       transform="translate(36.524,14.3411)"
       id="g36">
      <path
         transform="scale(0.004,-0.004)"
         d="M 0,-46 C 0,45 116,136 217,136 280,136 326,101 326,46 326,-41 216,-136 106,-136 39,-136 0,-97 0,-46 Z"
         fill="currentColor"
         id="path35" />
    </g>
  </a>
  <g
     transform="translate(28.0532,7.150376)"
     id="g37">
    <rect
       x="-0.064999998"
       y="0.68620002"
       width="0.13"
       height="2.1126001"
       ry="0.039999999"
       fill="currentColor"
       id="rect36" />
  </g>
  <g
     transform="translate(16.3196,6.340376)"
     id="g38">
    <polygon
       stroke-linejoin="round"
       stroke-linecap="round"
       stroke-width="0.08"
       fill="currentColor"
       stroke="currentColor"
       points="0.04,0.2 0.04,-0.2 3.2962,-0.39 3.2962,0.01 "
       id="polygon37" />
  </g>
  <a
     style="color:inherit"
     xlink:href="textedit:///Users/devonnuri/Documents/typst/241230%20Linear%20Harmony/lilypond/fig_212.ly:11:21:22"
     id="a39"
     transform="translate(-8.5358,-6.690724)">
    <g
       transform="translate(39.9802,13.3411)"
       id="g39">
      <path
         transform="scale(0.004,-0.004)"
         d="M 0,-46 C 0,45 116,136 217,136 280,136 326,101 326,46 326,-41 216,-136 106,-136 39,-136 0,-97 0,-46 Z"
         fill="currentColor"
         id="path38" />
    </g>
  </a>
  <g
     transform="translate(31.5094,7.150376)"
     id="g40">
    <rect
       x="-0.064999998"
       y="-0.31380001"
       width="0.13"
       height="2.5150001"
       ry="0.039999999"
       fill="currentColor"
       id="rect39" />
  </g>
  <g
     transform="translate(9.7592,6.960376)"
     id="g41">
    <polygon
       stroke-linejoin="round"
       stroke-linecap="round"
       stroke-width="0.08"
       fill="currentColor"
       stroke="currentColor"
       points="0.04,0.2 0.04,-0.2 3.4442,-0.01 3.4442,0.39 "
       id="polygon40" />
  </g>
  <a
     style="color:inherit"
     xlink:href="textedit:///Users/devonnuri/Documents/typst/241230%20Linear%20Harmony/lilypond/fig_212.ly:8:10:11"
     id="a43"
     transform="translate(-8.5358,-6.690724)">
    <g
       transform="translate(44.1111,8.8411)"
       id="g42">
      <text
         font-family="'Tex Gyre Termes'"
         font-size="2.3308px"
         text-anchor="start"
         fill="currentColor"
         id="text41"><tspan
           id="tspan41">G</tspan></text>
    </g>
    <g
       transform="translate(45.7841,7.7817)"
       id="g43">
      <text
         font-family="'Tex Gyre Termes'"
         font-size="1.648px"
         text-anchor="start"
         fill="currentColor"
         id="text42"><tspan
           id="tspan42">7</tspan></text>
    </g>
  </a>
  <a
     style="color:inherit"
     xlink:href="textedit:///Users/devonnuri/Documents/typst/241230%20Linear%20Harmony/lilypond/fig_212.ly:12:4:5"
     id="a44"
     transform="translate(-8.5358,-6.690724)">
    <g
       transform="translate(44.1111,13.8411)"
       id="g44">
      <path
         transform="scale(0.004,-0.004)"
         d="M 0,-46 C 0,45 116,136 217,136 280,136 326,101 326,46 326,-41 216,-136 106,-136 39,-136 0,-97 0,-46 Z"
         fill="currentColor"
         id="path43" />
    </g>
  </a>
  <g
     transform="translate(36.8145,7.150376)"
     id="g45">
    <rect
       x="-0.064999998"
       y="-2.9749"
       width="0.13"
       height="2.7887001"
       ry="0.039999999"
       fill="currentColor"
       id="rect44" />
  </g>
  <a
     style="color:inherit"
     xlink:href="textedit:///Users/devonnuri/Documents/typst/241230%20Linear%20Harmony/lilypond/fig_212.ly:12:6:7"
     id="a46"
     transform="translate(-8.5358,-6.690724)">
    <g
       transform="translate(47.0672,16.3411)"
       id="g46">
      <path
         transform="scale(0.004,-0.004)"
         d="M 0,-46 C 0,45 116,136 217,136 280,136 326,101 326,46 326,-41 216,-136 106,-136 39,-136 0,-97 0,-46 Z"
         fill="currentColor"
         id="path45" />
    </g>
  </a>
  <g
     transform="translate(39.7706,7.150376)"
     id="g47">
    <rect
       x="-0.064999998"
       y="-1.8351001"
       width="0.13"
       height="4.1489"
       ry="0.039999999"
       fill="currentColor"
       id="rect46" />
  </g>
  <a
     style="color:inherit"
     xlink:href="textedit:///Users/devonnuri/Documents/typst/241230%20Linear%20Harmony/lilypond/fig_212.ly:12:9:10"
     id="a48"
     transform="translate(-8.5358,-6.690724)">
    <g
       transform="translate(50.5234,15.3411)"
       id="g48">
      <path
         transform="scale(0.004,-0.004)"
         d="M 0,-46 C 0,45 116,136 217,136 280,136 326,101 326,46 326,-41 216,-136 106,-136 39,-136 0,-97 0,-46 Z"
         fill="currentColor"
         id="path47" />
    </g>
  </a>
  <g
     transform="translate(43.2268,7.150376)"
     id="g49">
    <rect
       x="-0.064999998"
       y="-1.8137"
       width="0.13"
       height="3.1275001"
       ry="0.039999999"
       fill="currentColor"
       id="rect48" />
  </g>
  <a
     style="color:inherit"
     xlink:href="textedit:///Users/devonnuri/Documents/typst/241230%20Linear%20Harmony/lilypond/fig_212.ly:12:11:12"
     id="a50"
     transform="translate(-8.5358,-6.690724)">
    <g
       transform="translate(53.7295,14.8411)"
       id="g50">
      <path
         transform="scale(0.004,-0.004)"
         d="M 0,-46 C 0,45 116,136 217,136 280,136 326,101 326,46 326,-41 216,-136 106,-136 39,-136 0,-97 0,-46 Z"
         fill="currentColor"
         id="path49" />
    </g>
  </a>
  <g
     transform="translate(46.4329,7.150376)"
     id="g51">
    <rect
       x="-0.064999998"
       y="-1.9963"
       width="0.13"
       height="2.8101001"
       ry="0.039999999"
       fill="currentColor"
       id="rect50" />
  </g>
  <a
     style="color:inherit"
     xlink:href="textedit:///Users/devonnuri/Documents/typst/241230%20Linear%20Harmony/lilypond/fig_212.ly:12:26:27"
     id="a52"
     transform="translate(-8.5358,-6.690724)">
    <g
       transform="translate(56.9357,14.3411)"
       id="g52">
      <path
         transform="scale(0.004,-0.004)"
         d="M 0,-46 C 0,45 116,136 217,136 280,136 326,101 326,46 326,-41 216,-136 106,-136 39,-136 0,-97 0,-46 Z"
         fill="currentColor"
         id="path51" />
    </g>
  </a>
  <g
     transform="translate(49.6391,7.150376)"
     id="g53">
    <rect
       x="-0.064999998"
       y="-2.8099999"
       width="0.13"
       height="3.1238"
       ry="0.039999999"
       fill="currentColor"
       id="rect52" />
  </g>
  <g
     transform="translate(47.2499,7.650376)"
     id="g54">
    <path
       transform="scale(0.004,-0.004)"
       d="m 27,41 -1,-66 v -11 c 0,-22 1,-44 4,-66 45,38 93,80 93,139 0,33 -14,67 -43,67 C 49,104 28,74 27,41 Z m -42,-179 -12,595 c 8,5 18,8 27,8 9,0 19,-3 27,-8 L 20,112 c 25,21 58,34 91,34 52,0 89,-48 89,-102 0,-80 -86,-117 -147,-169 -15,-13 -24,-38 -45,-38 -13,0 -23,11 -23,25 z"
       fill="currentColor"
       id="path53" />
  </g>
  <a
     style="color:inherit"
     xlink:href="textedit:///Users/devonnuri/Documents/typst/241230%20Linear%20Harmony/lilypond/fig_212.ly:12:30:31"
     id="a55"
     transform="translate(-8.5358,-6.690724)">
    <g
       transform="translate(60.1099,13.8411)"
       id="g55">
      <path
         transform="scale(0.004,-0.004)"
         d="M 0,-46 C 0,45 116,136 217,136 280,136 326,101 326,46 326,-41 216,-136 106,-136 39,-136 0,-97 0,-46 Z"
         fill="currentColor"
         id="path54" />
    </g>
  </a>
  <g
     transform="translate(52.8133,7.150376)"
     id="g56">
    <rect
       x="-0.064999998"
       y="-2.8099999"
       width="0.13"
       height="2.6238"
       ry="0.039999999"
       fill="currentColor"
       id="rect55" />
  </g>
  <g
     transform="translate(50.4241,7.150376)"
     id="g57">
    <path
       transform="scale(0.004,-0.004)"
       d="m 27,41 -1,-66 v -11 c 0,-22 1,-44 4,-66 45,38 93,80 93,139 0,33 -14,67 -43,67 C 49,104 28,74 27,41 Z m -42,-179 -12,595 c 8,5 18,8 27,8 9,0 19,-3 27,-8 L 20,112 c 25,21 58,34 91,34 52,0 89,-48 89,-102 0,-80 -86,-117 -147,-169 -15,-13 -24,-38 -45,-38 -13,0 -23,11 -23,25 z"
       fill="currentColor"
       id="path56" />
  </g>
  <a
     style="color:inherit"
     xlink:href="textedit:///Users/devonnuri/Documents/typst/241230%20Linear%20Harmony/lilypond/fig_212.ly:12:34:35"
     id="a58"
     transform="translate(-8.5358,-6.690724)">
    <g
       transform="translate(62.6141,14.3411)"
       id="g58">
      <path
         transform="scale(0.004,-0.004)"
         d="M 0,-46 C 0,45 116,136 217,136 280,136 326,101 326,46 326,-41 216,-136 106,-136 39,-136 0,-97 0,-46 Z"
         fill="currentColor"
         id="path57" />
    </g>
  </a>
  <g
     transform="translate(55.3175,7.150376)"
     id="g59">
    <rect
       x="-0.064999998"
       y="-2.8099999"
       width="0.13"
       height="3.1238"
       ry="0.039999999"
       fill="currentColor"
       id="rect58" />
  </g>
  <a
     style="color:inherit"
     xlink:href="textedit:///Users/devonnuri/Documents/typst/241230%20Linear%20Harmony/lilypond/fig_212.ly:12:39:40"
     id="a60"
     transform="translate(-8.5358,-6.690724)">
    <g
       transform="translate(65.1183,14.8411)"
       id="g60">
      <path
         transform="scale(0.004,-0.004)"
         d="M 0,-46 C 0,45 116,136 217,136 280,136 326,101 326,46 326,-41 216,-136 106,-136 39,-136 0,-97 0,-46 Z"
         fill="currentColor"
         id="path59" />
    </g>
  </a>
  <g
     transform="translate(57.8217,7.150376)"
     id="g61">
    <rect
       x="-0.064999998"
       y="-1.9963"
       width="0.13"
       height="2.8101001"
       ry="0.039999999"
       fill="currentColor"
       id="rect60" />
  </g>
  <a
     style="color:inherit"
     xlink:href="textedit:///Users/devonnuri/Documents/typst/241230%20Linear%20Harmony/lilypond/fig_212.ly:12:41:42"
     id="a62"
     transform="translate(-8.5358,-6.690724)">
    <g
       transform="translate(68.3244,15.3411)"
       id="g62">
      <path
         transform="scale(0.004,-0.004)"
         d="M 0,-46 C 0,45 116,136 217,136 280,136 326,101 326,46 326,-41 216,-136 106,-136 39,-136 0,-97 0,-46 Z"
         fill="currentColor"
         id="path61" />
    </g>
  </a>
  <g
     transform="translate(61.0278,7.150376)"
     id="g63">
    <rect
       x="-0.064999998"
       y="-1.8137"
       width="0.13"
       height="3.1275001"
       ry="0.039999999"
       fill="currentColor"
       id="rect62" />
  </g>
  <a
     style="color:inherit"
     xlink:href="textedit:///Users/devonnuri/Documents/typst/241230%20Linear%20Harmony/lilypond/fig_212.ly:8:14:15"
     id="a64"
     transform="translate(-8.5358,-6.690724)">
    <g
       transform="translate(72.8573,8.8411)"
       id="g64">
      <text
         font-family="'Tex Gyre Termes'"
         font-size="2.3308px"
         text-anchor="start"
         fill="currentColor"
         id="text63"><tspan
           id="tspan63">C</tspan></text>
    </g>
  </a>
  <a
     style="color:inherit"
     xlink:href="textedit:///Users/devonnuri/Documents/typst/241230%20Linear%20Harmony/lilypond/fig_212.ly:13:4:5"
     id="a65"
     transform="translate(-8.5358,-6.690724)">
    <g
       transform="translate(72.8573,15.8411)"
       id="g65">
      <path
         transform="scale(0.004,-0.004)"
         d="M 0,-46 C 0,45 116,136 217,136 280,136 326,101 326,46 326,-41 216,-136 106,-136 39,-136 0,-97 0,-46 Z"
         fill="currentColor"
         id="path64" />
    </g>
  </a>
  <g
     transform="translate(65.5607,7.150376)"
     id="g66">
    <rect
       x="-0.064999998"
       y="-1.5"
       width="0.13"
       height="3.3138001"
       ry="0.039999999"
       fill="currentColor"
       id="rect65" />
  </g>
  <a
     style="color:inherit"
     xlink:href="textedit:///Users/devonnuri/Documents/typst/241230%20Linear%20Harmony/lilypond/fig_212.ly:13:7:8"
     id="a67"
     transform="translate(-8.5358,-6.690724)">
    <g
       transform="translate(77.2635,13.8411)"
       id="g67">
      <path
         transform="scale(0.004,-0.004)"
         d="m -6,78 c 0,59 124,83 124,182 0,24 -8,49 -25,69 l -35,42 c -3,3 -4,7 -4,10 0,9 9,15 17,15 4,0 8,-1 11,-5 L 233,211 c 7,-9 10,-17 10,-25 0,-59 -124,-83 -124,-182 0,-24 7,-49 24,-69 l 84,-99 c 3,-3 4,-7 4,-10 0,-9 -8,-16 -16,-16 -8,0 -45,44 -109,44 -16,0 -53,0 -53,-67 0,-62 30,-97 30,-100 0,-4 -4,-7 -8,-7 -13,0 -98,130 -98,204 0,41 27,42 40,42 33,0 78,-13 119,-31 L 4,53 C -3,62 -6,70 -6,78 Z"
         fill="currentColor"
         id="path66" />
    </g>
  </a>
  <a
     style="color:inherit"
     xlink:href="textedit:///Users/devonnuri/Documents/typst/241230%20Linear%20Harmony/lilypond/fig_212.ly:13:9:10"
     id="a68"
     transform="translate(-8.5358,-6.690724)">
    <g
       transform="translate(81.3154,13.8411)"
       id="g68">
      <path
         transform="scale(0.004,-0.004)"
         d="M 365,0 H 10 C 4,0 0,4 0,10 v 136 c 0,6 4,10 10,10 h 355 c 6,0 10,-4 10,-10 V 10 C 375,4 371,0 365,0 Z"
         fill="currentColor"
         id="path67" />
    </g>
  </a>
</svg>
