<?xml version="1.0" encoding="UTF-8" standalone="no"?>
<svg
   version="1.2"
   width="75.660843mm"
   height="17.894949mm"
   viewBox="0 0 43.055199 10.183214"
   id="svg36"
   sodipodi:docname="fig_012-1.svg"
   xmlns:inkscape="http://www.inkscape.org/namespaces/inkscape"
   xmlns:sodipodi="http://sodipodi.sourceforge.net/DTD/sodipodi-0.dtd"
   xmlns="http://www.w3.org/2000/svg"
   xmlns:svg="http://www.w3.org/2000/svg">
  <defs
     id="defs36" />
  <sodipodi:namedview
     id="namedview36"
     pagecolor="#505050"
     bordercolor="#eeeeee"
     borderopacity="1"
     inkscape:showpageshadow="0"
     inkscape:pageopacity="0"
     inkscape:pagecheckerboard="0"
     inkscape:deskcolor="#505050"
     inkscape:document-units="mm" />
  <style
     type="text/css"
     id="style1"><![CDATA[
tspan { white-space: pre; }
]]></style>
  <g
     transform="translate(42.8652,6.643214)"
     id="g1">
    <path
       id="rect1"
       style="fill:currentColor"
       d="M 0,-2 H 0.19 V 2 H 0 Z" />
  </g>
  <g
     transform="translate(42.3752,6.643214)"
     id="g2">
    <path
       id="rect2"
       style="fill:currentColor"
       d="M 0,-2 H 0.19 V 2 H 0 Z" />
  </g>
  <g
     transform="translate(0,8.643214)"
     id="g3">
    <path
       id="line2"
       style="stroke:currentColor;stroke-width:0.1;stroke-linecap:round;stroke-linejoin:round"
       d="M 0.05,0 H 43.005199" />
  </g>
  <g
     transform="translate(0,7.643214)"
     id="g4">
    <path
       id="line3"
       style="stroke:currentColor;stroke-width:0.1;stroke-linecap:round;stroke-linejoin:round"
       d="M 0.05,0 H 43.005199" />
  </g>
  <g
     transform="translate(0,6.643214)"
     id="g5">
    <path
       id="line4"
       style="stroke:currentColor;stroke-width:0.1;stroke-linecap:round;stroke-linejoin:round"
       d="M 0.05,0 H 43.005199" />
  </g>
  <g
     transform="translate(0,5.643214)"
     id="g6">
    <path
       id="line5"
       style="stroke:currentColor;stroke-width:0.1;stroke-linecap:round;stroke-linejoin:round"
       d="M 0.05,0 H 43.005199" />
  </g>
  <g
     transform="translate(0,4.643214)"
     id="g7">
    <path
       id="line6"
       style="stroke:currentColor;stroke-width:0.1;stroke-linecap:round;stroke-linejoin:round"
       d="M 0.05,0 H 43.005199" />
  </g>
  <g
     transform="translate(34.2252,6.643214)"
     id="g8">
    <path
       id="rect7"
       style="fill:currentColor"
       d="M 0,-2 H 0.19 V 2 H 0 Z" />
  </g>
  <g
     transform="translate(20.8041,6.643214)"
     id="g9">
    <path
       id="rect8"
       style="fill:currentColor"
       d="M 0,-2 H 0.19 V 2 H 0 Z" />
  </g>
  <g
     transform="translate(8.585,1.643214)"
     id="g10">
    <path
       style="font-size:2.3308px;font-family:'NewComputerModern Math';white-space:pre"
       d="m 1.6478756,-0.78314882 c 0,-0.44285198 -0.314658,-0.80878758 -0.71322478,-0.80878758 H 0.081578 v 0.072255 h 0.0559392 c 0.17947161,0 0.18413321,0.025639 0.18413321,0.1095476 v 1.2283316 c 0,0.0839088 -0.004662,0.1095476 -0.18413321,0.1095476 H 0.081578 V 0 H 0.93465082 C 1.3262252,0 1.6478756,-0.34495841 1.6478756,-0.78314882 Z m -0.23308,0 c 0,0.25871881 -0.044285,0.39856681 -0.128194,0.51277601 -0.046616,0.0629316 -0.1794716,0.19811801 -0.41488238,0.19811801 h -0.2354108 c -0.10954761,0 -0.11420921,-0.0163156 -0.11420921,-0.093232 v -1.2609628 c 0,-0.076916 0.004662,-0.093232 0.11420921,-0.093232 h 0.23308 c 0.14450958,0 0.30533478,0.051278 0.42420558,0.2167644 0.1002244,0.1375172 0.1212016,0.33796598 0.1212016,0.51976838 z"
       id="text9"
       aria-label="D" />
  </g>
  <g
     transform="translate(10.3605,2.437814)"
     id="g11">
    <path
       style="font-size:1.648px;font-family:'NewComputerModern Math';white-space:pre"
       d="m 1.189856,-0.412 c 0,-0.018128 -0.014832,-0.03296 -0.03296,-0.03296 H 0.125248 c -0.018128,0 -0.03296,0.014832 -0.03296,0.03296 0,0.018128 0.014832,0.03296 0.03296,0.03296 h 1.031648 c 0.018128,0 0.03296,-0.014832 0.03296,-0.03296 z"
       id="text10"
       aria-label="−" />
  </g>
  <g
     transform="translate(11.6579,2.437814)"
     id="g12">
    <path
       style="font-size:1.648px;font-family:'NewComputerModern Math';white-space:pre"
       d="M 0.79928,-1.061312 H 0.398816 c -0.201056,0 -0.204352,-0.021424 -0.210944,-0.052736 h -0.0412 L 0.092288,-0.77456 h 0.0412 c 0.004944,-0.026368 0.019776,-0.130192 0.0412,-0.149968 0.011536,-0.009888 0.14008,-0.009888 0.161504,-0.009888 h 0.341136 l -0.184576,0.260384 c -0.14832,0.22248 -0.202704,0.451552 -0.202704,0.619648 0,0.01648 0,0.09064 0.075808,0.09064 0.075808,0 0.075808,-0.07416 0.075808,-0.09064 v -0.084048 c 0,-0.09064 0.004944,-0.18128 0.018128,-0.270272 0.006592,-0.037904 0.029664,-0.179632 0.102176,-0.281808 l 0.22248,-0.31312 C 0.79928,-1.023408 0.79928,-1.026704 0.79928,-1.061312 Z"
       id="text11"
       aria-label="7" />
  </g>
  <g
     transform="translate(8.585,8.143214)"
     id="g13">
    <path
       transform="scale(0.004,-0.004)"
       d="M 0,-46 C 0,45 116,136 217,136 280,136 326,101 326,46 326,-41 216,-136 106,-136 39,-136 0,-97 0,-46 Z"
       fill="currentColor"
       id="path12" />
  </g>
  <g
     transform="translate(0.8,7.643214)"
     id="g14">
    <path
       transform="scale(0.004,-0.004)"
       d="m 266,-635 h -6 c -108,0 -195,88 -195,197 0,58 53,103 112,103 54,0 95,-47 95,-103 0,-52 -43,-95 -95,-95 -11,0 -21,2 -31,6 26,-39 68,-65 117,-65 h 4 z m 135,786 c 19,-89 48,-242 60,-354 76,27 112,94 112,163 0,89 -60,179 -172,191 z M 74,28 c 0,-112 98,-247 278,-247 21,0 44,2 68,6 -7,64 -29,203 -63,364 -79,-8 -124,-61 -124,-119 0,-44 25,-91 81,-123 5,-5 7,-10 7,-15 0,-11 -10,-22 -22,-22 -15,0 -126,62 -126,187 0,88 58,174 160,197 -14,58 -29,117 -46,175 C 180,310 74,188 74,28 Z m 283,1166 c 28,0 143,-206 143,-361 0,-143 -86,-255 -180,-364 21,-68 39,-138 56,-207 5,0 10,1 14,1 155,0 255,-129 255,-262 0,-113 -74,-212 -180,-245 3,-35 5,-70 5,-105 0,-19 -1,-39 -2,-58 -7,-119 -88,-225 -202,-228 l 1,43 c 93,2 153,92 159,191 1,18 2,37 2,55 0,31 -1,61 -4,92 -28,-5 -55,-8 -80,-8 -239,0 -342,217 -342,374 0,177 131,306 248,441 -29,96 -52,170 -52,346 0,189 144,295 159,295 z M 247,782 c 0,-55 12,-115 35,-190 83,100 147,202 147,326 0,40 -6,82 -21,127 -49,-24 -161,-97 -161,-263 z"
       fill="currentColor"
       id="path13" />
  </g>
  <g
     transform="translate(4.885,6.643214)"
     id="g15">
    <path
       transform="scale(0.004,-0.004)"
       d="M 433,-89 C 433,-111 383,-263 250,-263 191,-263 0,-244 0,0 0,62 18,262 250,262 366,262 426,156 426,99 426,59 396,27 359,27 c -31,0 -75,25 -75,75 0,38 27,77 72,77 4,0 9,0 14,-1 -28,37 -72,59 -120,59 C 144,237 137,164 137,51 V 0 -51 c 0,-113 7,-187 113,-187 80,0 139,70 158,151 2,7 7,10 12,10 6,0 13,-4 13,-12 z"
       fill="currentColor"
       id="path14" />
  </g>
  <g
     transform="translate(9.8242,6.643214)"
     id="g16">
    <path
       id="rect15"
       style="fill:currentColor"
       d="m -0.025,-2 h 0.05 c 0.02216,0 0.04,0.01784 0.04,0.04 v 3.2338001 c 0,0.02216 -0.01784,0.04 -0.04,0.04 h -0.05 c -0.02216,0 -0.04,-0.01784 -0.04,-0.04 V -1.96 c 0,-0.02216 0.01784,-0.04 0.04,-0.04 z" />
  </g>
  <g
     transform="translate(11.9626,5.143214)"
     id="g17">
    <path
       transform="scale(0.004,-0.004)"
       d="M 0,-46 C 0,45 116,136 217,136 280,136 326,101 326,46 326,-41 216,-136 106,-136 39,-136 0,-97 0,-46 Z"
       fill="currentColor"
       id="path16" />
  </g>
  <g
     transform="translate(12.0276,6.643214)"
     id="g18">
    <path
       id="rect17"
       style="fill:currentColor"
       d="m -0.025,-1.3138 h 0.05 c 0.02216,0 0.04,0.01784 0.04,0.04 v 3.2338001 c 0,0.02216 -0.01784,0.04 -0.04,0.04 h -0.05 c -0.02216,0 -0.04,-0.01784 -0.04,-0.04 V -1.2738 c 0,-0.02216 0.01784,-0.04 0.04,-0.04 z" />
  </g>
  <g
     transform="translate(14.9649,5.643214)"
     id="g19">
    <path
       transform="scale(0.004,-0.004)"
       d="M 0,-46 C 0,45 116,136 217,136 280,136 326,101 326,46 326,-41 216,-136 106,-136 39,-136 0,-97 0,-46 Z"
       fill="currentColor"
       id="path18" />
  </g>
  <g
     transform="translate(15.0299,6.643214)"
     id="g20">
    <path
       id="rect19"
       style="fill:currentColor"
       d="m -0.025,-0.81379998 h 0.05 c 0.02216,0 0.04,0.01784 0.04,0.04 V 2.4600001 c 0,0.02216 -0.01784,0.04 -0.04,0.04 h -0.05 c -0.02216,0 -0.04,-0.01784 -0.04,-0.04 v -3.23380008 c 0,-0.02216 0.01784,-0.04 0.04,-0.04 z" />
  </g>
  <g
     transform="translate(17.9671,6.143214)"
     id="g21">
    <path
       transform="scale(0.004,-0.004)"
       d="M 0,-46 C 0,45 116,136 217,136 280,136 326,101 326,46 326,-41 216,-136 106,-136 39,-136 0,-97 0,-46 Z"
       fill="currentColor"
       id="path20" />
  </g>
  <g
     transform="translate(18.0321,6.643214)"
     id="g22">
    <path
       id="rect21"
       style="fill:currentColor"
       d="m -0.025,-0.31380001 h 0.05 c 0.02216,0 0.04,0.01784 0.04,0.04 V 2.9600001 c 0,0.02216 -0.01784,0.04 -0.04,0.04 h -0.05 c -0.02216,0 -0.04,-0.01784 -0.04,-0.04 v -3.23380011 c 0,-0.02216 0.01784,-0.04 0.04,-0.04 z" />
  </g>
  <g
     transform="translate(21.9978,1.643214)"
     id="g23">
    <path
       style="font-size:2.3308px;font-family:'NewComputerModern Math';white-space:pre"
       d="m 1.713138,-0.56405361 v -0.0722548 l -0.2843576,0.006992 c -0.093232,0 -0.29135,0 -0.3752588,-0.006992 v 0.0722548 h 0.074586 c 0.209772,0 0.2167644,0.0256388 0.2167644,0.1118784 v 0.1491712 c 0,0.26104961 -0.2960116,0.28202681 -0.36127398,0.28202681 -0.151502,0 -0.61300041,-0.081578 -0.61300041,-0.77615642 0,-0.69690918 0.45916761,-0.77382558 0.59901561,-0.77382558 0.24939558,0 0.46149838,0.209772 0.50811438,0.5523996 0.00466,0.0326312 0.00466,0.0396236 0.037293,0.0396236 0.037293,0 0.037293,-0.006992 0.037293,-0.0559392 v -0.5523996 c 0,-0.039624 0,-0.055939 -0.025639,-0.055939 -0.00932,0 -0.018646,0 -0.037293,0.02797 l -0.11654,0.1724792 C 1.2982556,-1.5173508 1.1723924,-1.643214 0.94164322,-1.643214 c -0.43352881,0 -0.81111842,0.3682664 -0.81111842,0.84608038 0,0.47781401 0.37292801,0.84841122 0.81578002,0.84841122 0.17014838,0 0.35661238,-0.0606008 0.43585958,-0.198118 0.0303,0.0512776 0.1235324,0.1445096 0.1491712,0.1445096 0.020977,0 0.020977,-0.0186464 0.020977,-0.0536084 v -0.40555921 c 0,-0.0909012 0.00932,-0.1025552 0.1608254,-0.1025552 z"
       id="text22"
       aria-label="G" />
  </g>
  <g
     transform="translate(23.8415,2.437814)"
     id="g24">
    <path
       style="font-size:1.648px;font-family:'NewComputerModern Math';white-space:pre"
       d="M 0.79928,-1.061312 H 0.398816 c -0.201056,0 -0.204352,-0.021424 -0.210944,-0.052736 h -0.0412 L 0.092288,-0.77456 h 0.0412 c 0.004944,-0.026368 0.019776,-0.130192 0.0412,-0.149968 0.011536,-0.009888 0.14008,-0.009888 0.161504,-0.009888 h 0.341136 l -0.184576,0.260384 c -0.14832,0.22248 -0.202704,0.451552 -0.202704,0.619648 0,0.01648 0,0.09064 0.075808,0.09064 0.075808,0 0.075808,-0.07416 0.075808,-0.09064 v -0.084048 c 0,-0.09064 0.004944,-0.18128 0.018128,-0.270272 0.006592,-0.037904 0.029664,-0.179632 0.102176,-0.281808 l 0.22248,-0.31312 C 0.79928,-1.023408 0.79928,-1.026704 0.79928,-1.061312 Z"
       id="text23"
       aria-label="7" />
  </g>
  <g
     transform="translate(21.9978,6.643214)"
     id="g25">
    <path
       transform="scale(0.004,-0.004)"
       d="M 0,-46 C 0,45 116,136 217,136 280,136 326,101 326,46 326,-41 216,-136 106,-136 39,-136 0,-97 0,-46 Z"
       fill="currentColor"
       id="path24" />
  </g>
  <g
     transform="translate(22.0628,6.643214)"
     id="g26">
    <path
       id="rect25"
       style="fill:currentColor"
       d="m -0.025,0.18619999 h 0.05 c 0.02216,0 0.04,0.01784 0.04,0.04 V 3.2933 c 0,0.02216 -0.01784,0.04 -0.04,0.04 h -0.05 c -0.02216,0 -0.04,-0.01784 -0.04,-0.04 V 0.22619999 c 0,-0.02216 0.01784,-0.04 0.04,-0.04 z" />
  </g>
  <g
     transform="translate(24.9818,7.143214)"
     id="g27">
    <path
       transform="scale(0.004,-0.004)"
       d="M 0,-46 C 0,45 116,136 217,136 280,136 326,101 326,46 326,-41 216,-136 106,-136 39,-136 0,-97 0,-46 Z"
       fill="currentColor"
       id="path26" />
  </g>
  <g
     transform="translate(26.221,6.643214)"
     id="g28">
    <path
       id="rect27"
       style="fill:currentColor"
       d="m -0.025,-3 h 0.05 c 0.02216,0 0.04,0.01784 0.04,0.04 v 3.2338001 c 0,0.02216 -0.01784,0.04 -0.04,0.04 h -0.05 c -0.02216,0 -0.04,-0.01784 -0.04,-0.04 V -2.96 c 0,-0.02216 0.01784,-0.04 0.04,-0.04 z" />
  </g>
  <g
     transform="translate(27.984,7.643214)"
     id="g29">
    <path
       transform="scale(0.004,-0.004)"
       d="M 0,-46 C 0,45 116,136 217,136 280,136 326,101 326,46 326,-41 216,-136 106,-136 39,-136 0,-97 0,-46 Z"
       fill="currentColor"
       id="path28" />
  </g>
  <g
     transform="translate(29.2232,6.643214)"
     id="g30">
    <path
       id="rect29"
       style="fill:currentColor"
       d="m -0.025,-2.5 h 0.05 c 0.02216,0 0.04,0.01784 0.04,0.04 v 3.2338001 c 0,0.02216 -0.01784,0.04 -0.04,0.04 h -0.05 c -0.02216,0 -0.04,-0.01784 -0.04,-0.04 V -2.46 c 0,-0.02216 0.01784,-0.04 0.04,-0.04 z" />
  </g>
  <g
     transform="translate(30.9863,8.143214)"
     id="g31">
    <path
       transform="scale(0.004,-0.004)"
       d="M 0,-46 C 0,45 116,136 217,136 280,136 326,101 326,46 326,-41 216,-136 106,-136 39,-136 0,-97 0,-46 Z"
       fill="currentColor"
       id="path30" />
  </g>
  <g
     transform="translate(32.2255,6.643214)"
     id="g32">
    <path
       id="rect31"
       style="fill:currentColor"
       d="m -0.025,-2 h 0.05 c 0.02216,0 0.04,0.01784 0.04,0.04 v 3.2338001 c 0,0.02216 -0.01784,0.04 -0.04,0.04 h -0.05 c -0.02216,0 -0.04,-0.01784 -0.04,-0.04 V -1.96 c 0,-0.02216 0.01784,-0.04 0.04,-0.04 z" />
  </g>
  <g
     transform="translate(36.3152,1.643214)"
     id="g33">
    <path
       style="font-size:2.3308px;font-family:'NewComputerModern Math';white-space:pre"
       d="m 1.549982,-0.54307641 c 0,-0.023308 0,-0.0396236 -0.0303,-0.0396236 -0.025639,0 -0.025639,0.0139848 -0.02797,0.0372928 -0.018646,0.3333044 -0.268042,0.52443001 -0.52209918,0.52443001 -0.1421788,0 -0.59901561,-0.0792472 -0.59901561,-0.77382562 0,-0.69690918 0.45450601,-0.77615638 0.59668481,-0.77615638 0.25405718,0 0.46149838,0.2121028 0.50811438,0.5523996 0.00466,0.0326312 0.00466,0.0396236 0.037293,0.0396236 0.037293,0 0.037293,-0.006992 0.037293,-0.0559392 v -0.5523996 c 0,-0.039624 0,-0.055939 -0.025639,-0.055939 -0.00932,0 -0.018646,0 -0.037293,0.02797 l -0.11654,0.1724792 C 1.2842708,-1.526674 1.1654,-1.643214 0.94164322,-1.643214 c -0.43585961,0 -0.81111842,0.3705972 -0.81111842,0.84608038 0,0.48247561 0.37758961,0.84841122 0.81111842,0.84841122 0.37992038,0 0.60833878,-0.32398121 0.60833878,-0.59435401 z"
       id="text32"
       aria-label="C" />
  </g>
  <g
     transform="translate(37.9882,2.437814)"
     id="g34">
    <path
       style="font-size:1.648px;font-family:'NewComputerModern Math';white-space:pre"
       d="m 1.502976,-0.02472 c 0,-0.004944 -0.00165,-0.011536 -0.00494,-0.01648 L 0.825648,-1.204688 c -0.004944,-0.00989 -0.01648,-0.01648 -0.028016,-0.01648 -0.013184,0 -0.023072,0.00659 -0.028016,0.01648 L 0.097232,-0.0412 c -0.003296,0.004944 -0.004944,0.011536 -0.004944,0.01648 0,0.019776 0.014832,0.03296 0.03296,0.03296 h 1.344768 c 0.018128,0 0.03296,-0.013184 0.03296,-0.03296 z M 1.412336,-0.05768 H 0.182928 l 0.614704,-1.064608 z"
       id="text33"
       aria-label="△" />
  </g>
  <g
     transform="translate(39.593,2.437814)"
     id="g35">
    <path
       style="font-size:1.648px;font-family:'NewComputerModern Math';white-space:pre"
       d="M 0.79928,-1.061312 H 0.398816 c -0.201056,0 -0.204352,-0.021424 -0.210944,-0.052736 h -0.0412 L 0.092288,-0.77456 h 0.0412 c 0.004944,-0.026368 0.019776,-0.130192 0.0412,-0.149968 0.011536,-0.009888 0.14008,-0.009888 0.161504,-0.009888 h 0.341136 l -0.184576,0.260384 c -0.14832,0.22248 -0.202704,0.451552 -0.202704,0.619648 0,0.01648 0,0.09064 0.075808,0.09064 0.075808,0 0.075808,-0.07416 0.075808,-0.09064 v -0.084048 c 0,-0.09064 0.004944,-0.18128 0.018128,-0.270272 0.006592,-0.037904 0.029664,-0.179632 0.102176,-0.281808 l 0.22248,-0.31312 C 0.79928,-1.023408 0.79928,-1.026704 0.79928,-1.061312 Z"
       id="text34"
       aria-label="7" />
  </g>
  <g
     transform="translate(36.3152,8.643214)"
     id="g36">
    <path
       transform="scale(0.004,-0.004)"
       d="m 347,-26 c 0,102 -89,139 -133,139 -23,0 -70,-10 -70,-89 0,-91 76,-136 132,-136 22,0 71,8 71,86 z M 245,136 C 389,136 491,71 491,0 491,-71 389,-136 245,-136 101,-136 0,-71 0,0 0,71 101,136 245,136 Z"
       fill="currentColor"
       id="path35" />
  </g>
</svg>
