<?xml version="1.0" encoding="UTF-8" standalone="no"?>
<svg
   version="1.2"
   width="181.40648mm"
   height="47.620773mm"
   viewBox="0 0 103.23031 27.09885"
   id="svg241"
   sodipodi:docname="fig_385.svg"
   xmlns:inkscape="http://www.inkscape.org/namespaces/inkscape"
   xmlns:sodipodi="http://sodipodi.sourceforge.net/DTD/sodipodi-0.dtd"
   xmlns="http://www.w3.org/2000/svg"
   xmlns:svg="http://www.w3.org/2000/svg">
  <defs
     id="defs241" />
  <sodipodi:namedview
     id="namedview241"
     pagecolor="#505050"
     bordercolor="#eeeeee"
     borderopacity="1"
     inkscape:showpageshadow="0"
     inkscape:pageopacity="0"
     inkscape:pagecheckerboard="0"
     inkscape:deskcolor="#505050"
     inkscape:document-units="mm" />
  <style
     type="text/css"
     id="style1"><![CDATA[
tspan { white-space: pre; }
]]></style>
  <g
     transform="translate(103.0403,6.6688528)"
     id="g1">
    <rect
       x="0"
       y="-2"
       width="0.19"
       height="4"
       ry="0.0000"
       fill="currentColor"
       id="rect1" />
  </g>
  <g
     transform="translate(0.800405,9.6688528)"
     id="g2">
    <rect
       x="33.827099"
       y="-0.1"
       width="1.8141"
       height="0.2"
       ry="0.1"
       fill="currentColor"
       id="rect2" />
  </g>
  <g
     transform="translate(0.800405,9.6688528)"
     id="g3">
    <rect
       x="29.066"
       y="-0.1"
       width="1.9563"
       height="0.2"
       ry="0.1"
       fill="currentColor"
       id="rect3" />
  </g>
  <g
     transform="translate(0.800405,8.6688528)"
     id="g4">
    <line
       stroke-linejoin="round"
       stroke-linecap="round"
       stroke-width="0.1"
       stroke="currentColor"
       x1="0.050000001"
       y1="0"
       x2="102.3799"
       y2="0"
       id="line3" />
  </g>
  <g
     transform="translate(0.800405,7.6688528)"
     id="g5">
    <line
       stroke-linejoin="round"
       stroke-linecap="round"
       stroke-width="0.1"
       stroke="currentColor"
       x1="0.050000001"
       y1="0"
       x2="102.3799"
       y2="0"
       id="line4" />
  </g>
  <g
     transform="translate(0.800405,6.6688528)"
     id="g6">
    <line
       stroke-linejoin="round"
       stroke-linecap="round"
       stroke-width="0.1"
       stroke="currentColor"
       x1="0.050000001"
       y1="0"
       x2="102.3799"
       y2="0"
       id="line5" />
  </g>
  <g
     transform="translate(0.800405,5.6688528)"
     id="g7">
    <line
       stroke-linejoin="round"
       stroke-linecap="round"
       stroke-width="0.1"
       stroke="currentColor"
       x1="0.050000001"
       y1="0"
       x2="102.3799"
       y2="0"
       id="line6" />
  </g>
  <g
     transform="translate(0.800405,4.6688528)"
     id="g8">
    <line
       stroke-linejoin="round"
       stroke-linecap="round"
       stroke-width="0.1"
       stroke="currentColor"
       x1="0.050000001"
       y1="0"
       x2="102.3799"
       y2="0"
       id="line7" />
  </g>
  <g
     transform="translate(80.990105,6.6688528)"
     id="g9">
    <rect
       x="0"
       y="-2"
       width="0.19"
       height="4"
       ry="0.0000"
       fill="currentColor"
       id="rect8" />
  </g>
  <g
     transform="translate(56.498405,6.6688528)"
     id="g10">
    <rect
       x="0"
       y="-2"
       width="0.19"
       height="4"
       ry="0.0000"
       fill="currentColor"
       id="rect9" />
  </g>
  <g
     transform="translate(32.966305,6.6688528)"
     id="g11">
    <rect
       x="0"
       y="-2"
       width="0.19"
       height="4"
       ry="0.0000"
       fill="currentColor"
       id="rect10" />
  </g>
  <g
     transform="translate(88.911305,4.6688528)"
     id="g12">
    <polygon
       stroke-linejoin="round"
       stroke-linecap="round"
       stroke-width="0.08"
       fill="currentColor"
       stroke="currentColor"
       points="0.04,0.2 0.04,-0.2 2.6496,-0.01 2.6496,0.39 "
       id="polygon11" />
  </g>
  <g
     transform="translate(10.755405,1.6688528)"
     id="g13">
    <text
       font-family="'NewComputerModern Math'"
       font-size="2.3308px"
       text-anchor="start"
       fill="currentColor"
       id="text12"><tspan
         id="tspan12">F</tspan></text>
  </g>
  <g
     transform="translate(12.291905,2.4634528)"
     id="g14">
    <text
       font-family="'NewComputerModern Math'"
       font-size="1.648px"
       text-anchor="start"
       fill="currentColor"
       id="text13"><tspan
         id="tspan13">△</tspan></text>
  </g>
  <g
     transform="translate(13.896605,2.4634528)"
     id="g15">
    <text
       font-family="'NewComputerModern Math'"
       font-size="1.648px"
       text-anchor="start"
       fill="currentColor"
       id="text14"><tspan
         id="tspan14">7</tspan></text>
  </g>
  <g
     transform="translate(10.755405,7.1688528)"
     id="g16">
    <path
       transform="scale(0.004,-0.004)"
       d="M 0,-46 C 0,45 116,136 217,136 280,136 326,101 326,46 326,-41 216,-136 106,-136 39,-136 0,-97 0,-46 Z"
       fill="currentColor"
       id="path15" />
  </g>
  <g
     transform="translate(1.600405,7.6688528)"
     id="g17">
    <path
       transform="scale(0.004,-0.004)"
       d="m 266,-635 h -6 c -108,0 -195,88 -195,197 0,58 53,103 112,103 54,0 95,-47 95,-103 0,-52 -43,-95 -95,-95 -11,0 -21,2 -31,6 26,-39 68,-65 117,-65 h 4 z m 135,786 c 19,-89 48,-242 60,-354 76,27 112,94 112,163 0,89 -60,179 -172,191 z M 74,28 c 0,-112 98,-247 278,-247 21,0 44,2 68,6 -7,64 -29,203 -63,364 -79,-8 -124,-61 -124,-119 0,-44 25,-91 81,-123 5,-5 7,-10 7,-15 0,-11 -10,-22 -22,-22 -15,0 -126,62 -126,187 0,88 58,174 160,197 -14,58 -29,117 -46,175 C 180,310 74,188 74,28 Z m 283,1166 c 28,0 143,-206 143,-361 0,-143 -86,-255 -180,-364 21,-68 39,-138 56,-207 5,0 10,1 14,1 155,0 255,-129 255,-262 0,-113 -74,-212 -180,-245 3,-35 5,-70 5,-105 0,-19 -1,-39 -2,-58 -7,-119 -88,-225 -202,-228 l 1,43 c 93,2 153,92 159,191 1,18 2,37 2,55 0,31 -1,61 -4,92 -28,-5 -55,-8 -80,-8 -239,0 -342,217 -342,374 0,177 131,306 248,441 -29,96 -52,170 -52,346 0,189 144,295 159,295 z M 247,782 c 0,-55 12,-115 35,-190 83,100 147,202 147,326 0,40 -6,82 -21,127 -49,-24 -161,-97 -161,-263 z"
       fill="currentColor"
       id="path16" />
  </g>
  <g
     transform="translate(5.105405,6.6688528)"
     id="g18">
    <path
       transform="scale(0.004,-0.004)"
       d="m 27,41 -1,-66 v -11 c 0,-22 1,-44 4,-66 45,38 93,80 93,139 0,33 -14,67 -43,67 C 49,104 28,74 27,41 Z m -42,-179 -12,595 c 8,5 18,8 27,8 9,0 19,-3 27,-8 L 20,112 c 25,21 58,34 91,34 52,0 89,-48 89,-102 0,-80 -86,-117 -147,-169 -15,-13 -24,-38 -45,-38 -13,0 -23,11 -23,25 z"
       fill="currentColor"
       id="path17" />
  </g>
  <g
     transform="translate(7.055405,6.6688528)"
     id="g19">
    <path
       transform="scale(0.004,-0.004)"
       d="M 433,-89 C 433,-111 383,-263 250,-263 191,-263 0,-244 0,0 0,62 18,262 250,262 366,262 426,156 426,99 426,59 396,27 359,27 c -31,0 -75,25 -75,75 0,38 27,77 72,77 4,0 9,0 14,-1 -28,37 -72,59 -120,59 C 144,237 137,164 137,51 V 0 -51 c 0,-113 7,-187 113,-187 80,0 139,70 158,151 2,7 7,10 12,10 6,0 13,-4 13,-12 z"
       fill="currentColor"
       id="path18" />
  </g>
  <g
     transform="translate(11.994605,6.6688528)"
     id="g20">
    <rect
       x="-0.064999998"
       y="-2.8146"
       width="0.13"
       height="3.1284001"
       ry="0.039999999"
       fill="currentColor"
       id="rect19" />
  </g>
  <g
     transform="translate(82.261605,8.8588528)"
     id="g21">
    <polygon
       stroke-linejoin="round"
       stroke-linecap="round"
       stroke-width="0.08"
       fill="currentColor"
       stroke="currentColor"
       points="0.04,0.2 0.04,-0.2 3.0956,0.42 3.0956,0.82 "
       id="polygon20" />
  </g>
  <g
     transform="translate(13.315005,6.6688528)"
     id="g22">
    <path
       transform="scale(0.004,-0.004)"
       d="M 0,-46 C 0,45 116,136 217,136 280,136 326,101 326,46 326,-41 216,-136 106,-136 39,-136 0,-97 0,-46 Z"
       fill="currentColor"
       id="path21" />
  </g>
  <g
     transform="translate(14.554205,6.6688528)"
     id="g23">
    <rect
       x="-0.064999998"
       y="-2.9954"
       width="0.13"
       height="2.8092"
       ry="0.039999999"
       fill="currentColor"
       id="rect22" />
  </g>
  <g
     transform="translate(75.437605,9.4788528)"
     id="g24">
    <polygon
       stroke-linejoin="round"
       stroke-linecap="round"
       stroke-width="0.08"
       fill="currentColor"
       stroke="currentColor"
       points="0.04,0.2 0.04,-0.2 3.3196,-0.82 3.3196,-0.42 "
       id="polygon23" />
  </g>
  <g
     transform="translate(15.874605,7.1688528)"
     id="g25">
    <path
       transform="scale(0.004,-0.004)"
       d="M 0,-46 C 0,45 116,136 217,136 280,136 326,101 326,46 326,-41 216,-136 106,-136 39,-136 0,-97 0,-46 Z"
       fill="currentColor"
       id="path24" />
  </g>
  <g
     transform="translate(17.113805,6.6688528)"
     id="g26">
    <rect
       x="-0.064999998"
       y="-2.1854"
       width="0.13"
       height="2.4992001"
       ry="0.039999999"
       fill="currentColor"
       id="rect25" />
  </g>
  <g
     transform="translate(70.122505,8.4788528)"
     id="g27">
    <polygon
       stroke-linejoin="round"
       stroke-linecap="round"
       stroke-width="0.08"
       fill="currentColor"
       stroke="currentColor"
       points="0.04,0.2 0.04,-0.2 2.3996,0.99 2.3996,1.39 "
       id="polygon26" />
  </g>
  <g
     transform="translate(18.434105,7.6688528)"
     id="g28">
    <path
       transform="scale(0.004,-0.004)"
       d="M 0,-46 C 0,45 116,136 217,136 280,136 326,101 326,46 326,-41 216,-136 106,-136 39,-136 0,-97 0,-46 Z"
       fill="currentColor"
       id="path27" />
  </g>
  <g
     transform="translate(19.673305,6.6688528)"
     id="g29">
    <rect
       x="-0.064999998"
       y="-2.0046"
       width="0.13"
       height="2.8183999"
       ry="0.039999999"
       fill="currentColor"
       id="rect28" />
  </g>
  <g
     transform="translate(63.903305,8.4788528)"
     id="g30">
    <polygon
       stroke-linejoin="round"
       stroke-linecap="round"
       stroke-width="0.08"
       fill="currentColor"
       stroke="currentColor"
       points="0.04,0.2 0.04,-0.2 2.8996,-0.82 2.8996,-0.42 "
       id="polygon29" />
  </g>
  <g
     transform="translate(21.843705,1.6688528)"
     id="g31">
    <text
       font-family="'NewComputerModern Math'"
       font-size="2.3308px"
       text-anchor="start"
       fill="currentColor"
       id="text30"><tspan
         id="tspan30">D</tspan></text>
  </g>
  <g
     transform="translate(23.619205,2.4634528)"
     id="g32">
    <text
       font-family="'NewComputerModern Math'"
       font-size="1.648px"
       text-anchor="start"
       fill="currentColor"
       id="text31"><tspan
         id="tspan31">7</tspan></text>
  </g>
  <g
     transform="translate(24.438605,2.4634528)"
     id="g33">
    <text
       font-family="'NewComputerModern Math'"
       font-size="1.648px"
       text-anchor="start"
       fill="currentColor"
       id="text32"><tspan
         id="tspan32">♭</tspan></text>
  </g>
  <g
     transform="translate(25.087305,2.4634528)"
     id="g34">
    <text
       font-family="'NewComputerModern Math'"
       font-size="1.648px"
       text-anchor="start"
       fill="currentColor"
       id="text33"><tspan
         id="tspan33">9</tspan></text>
  </g>
  <g
     transform="translate(21.843705,8.1688528)"
     id="g35">
    <path
       transform="scale(0.004,-0.004)"
       d="M 0,-46 C 0,45 116,136 217,136 280,136 326,101 326,46 326,-41 216,-136 106,-136 39,-136 0,-97 0,-46 Z"
       fill="currentColor"
       id="path34" />
  </g>
  <g
     transform="translate(23.082905,6.6688528)"
     id="g36">
    <rect
       x="-0.064999998"
       y="-1.1863"
       width="0.13"
       height="2.5000999"
       ry="0.039999999"
       fill="currentColor"
       id="rect35" />
  </g>
  <g
     transform="translate(20.393705,8.1688528)"
     id="g37">
    <path
       transform="scale(0.004,-0.004)"
       d="m 0,119 c 0,8 5,15 13,18 l 46,17 v 158 c 0,10 8,19 18,19 10,0 19,-9 19,-19 V 167 l 83,31 v 158 c 0,10 9,19 19,19 10,0 18,-9 18,-19 V 211 l 32,12 c 2,1 5,1 7,1 11,0 20,-9 20,-20 v -60 c 0,-8 -5,-16 -13,-19 L 216,109 V -51 l 32,11 c 2,1 5,1 7,1 11,0 20,-9 20,-20 v -60 c 0,-8 -5,-15 -13,-18 l -46,-17 v -158 c 0,-10 -8,-19 -18,-19 -10,0 -19,9 -19,19 v 145 l -83,-31 v -158 c 0,-10 -9,-19 -19,-19 -10,0 -18,9 -18,19 v 145 l -32,-12 c -2,-1 -5,-1 -7,-1 -11,0 -20,9 -20,20 v 60 c 0,8 5,16 13,19 l 46,16 V 51 L 27,40 C 25,39 22,39 20,39 9,39 0,48 0,59 Z M 179,95 96,65 V -95 l 83,30 z"
       fill="currentColor"
       id="path36" />
  </g>
  <g
     transform="translate(57.684205,9.4788528)"
     id="g38">
    <polygon
       stroke-linejoin="round"
       stroke-linecap="round"
       stroke-width="0.08"
       fill="currentColor"
       stroke="currentColor"
       points="0.04,0.2 0.04,-0.2 3.4996,-0.82 3.4996,-0.42 "
       id="polygon37" />
  </g>
  <g
     transform="translate(25.073305,8.6688528)"
     id="g39">
    <path
       transform="scale(0.004,-0.004)"
       d="M 0,-46 C 0,45 116,136 217,136 280,136 326,101 326,46 326,-41 216,-136 106,-136 39,-136 0,-97 0,-46 Z"
       fill="currentColor"
       id="path38" />
  </g>
  <g
     transform="translate(26.312505,6.6688528)"
     id="g40">
    <rect
       x="-0.064999998"
       y="-1.0037"
       width="0.13"
       height="2.8175001"
       ry="0.039999999"
       fill="currentColor"
       id="rect39" />
  </g>
  <g
     transform="translate(23.923305,8.6688528)"
     id="g41">
    <path
       transform="scale(0.004,-0.004)"
       d="m 27,41 -1,-66 v -11 c 0,-22 1,-44 4,-66 45,38 93,80 93,139 0,33 -14,67 -43,67 C 49,104 28,74 27,41 Z m -42,-179 -12,595 c 8,5 18,8 27,8 9,0 19,-3 27,-8 L 20,112 c 25,21 58,34 91,34 52,0 89,-48 89,-102 0,-80 -86,-117 -147,-169 -15,-13 -24,-38 -45,-38 -13,0 -23,11 -23,25 z"
       fill="currentColor"
       id="path40" />
  </g>
  <g
     transform="translate(51.508805,9.4788528)"
     id="g42">
    <polygon
       stroke-linejoin="round"
       stroke-linecap="round"
       stroke-width="0.08"
       fill="currentColor"
       stroke="currentColor"
       points="0.04,0.2 0.04,-0.2 2.6496,-0.01 2.6496,0.39 "
       id="polygon41" />
  </g>
  <g
     transform="translate(27.632905,9.1688528)"
     id="g43">
    <path
       transform="scale(0.004,-0.004)"
       d="M 0,-46 C 0,45 116,136 217,136 280,136 326,101 326,46 326,-41 216,-136 106,-136 39,-136 0,-97 0,-46 Z"
       fill="currentColor"
       id="path42" />
  </g>
  <g
     transform="translate(28.872105,6.6688528)"
     id="g44">
    <rect
       x="-0.064999998"
       y="-0.18539999"
       width="0.13"
       height="2.4992001"
       ry="0.039999999"
       fill="currentColor"
       id="rect43" />
  </g>
  <g
     transform="translate(46.893805,3.4788528)"
     id="g45">
    <polygon
       stroke-linejoin="round"
       stroke-linecap="round"
       stroke-width="0.08"
       fill="currentColor"
       stroke="currentColor"
       points="0.04,0.2 0.04,-0.2 3.3196,-1.51 3.3196,-1.11 "
       id="polygon44" />
  </g>
  <g
     transform="translate(30.192405,9.6688528)"
     id="g46">
    <path
       transform="scale(0.004,-0.004)"
       d="M 0,-46 C 0,45 116,136 217,136 280,136 326,101 326,46 326,-41 216,-136 106,-136 39,-136 0,-97 0,-46 Z"
       fill="currentColor"
       id="path45" />
  </g>
  <g
     transform="translate(31.431605,6.6688528)"
     id="g47">
    <rect
       x="-0.064999998"
       y="-0.0046000001"
       width="0.13"
       height="2.8183999"
       ry="0.039999999"
       fill="currentColor"
       id="rect46" />
  </g>
  <g
     transform="translate(41.774705,4.6688528)"
     id="g48">
    <polygon
       stroke-linejoin="round"
       stroke-linecap="round"
       stroke-width="0.08"
       fill="currentColor"
       stroke="currentColor"
       points="0.04,0.2 0.04,-0.2 2.6496,-0.01 2.6496,0.39 "
       id="polygon47" />
  </g>
  <g
     transform="translate(35.985505,4.8588528)"
     id="g49">
    <polygon
       stroke-linejoin="round"
       stroke-linecap="round"
       stroke-width="0.08"
       fill="currentColor"
       stroke="currentColor"
       points="0.04,0.2 0.04,-0.2 3.3196,-1.39 3.3196,-0.99 "
       id="polygon48" />
  </g>
  <g
     transform="translate(34.811305,1.6688528)"
     id="g50">
    <text
       font-family="'NewComputerModern Math'"
       font-size="2.3308px"
       text-anchor="start"
       fill="currentColor"
       id="text49"><tspan
         id="tspan49">G</tspan></text>
  </g>
  <g
     transform="translate(36.655105,2.4634528)"
     id="g51">
    <text
       font-family="'NewComputerModern Math'"
       font-size="1.648px"
       text-anchor="start"
       fill="currentColor"
       id="text50"><tspan
         id="tspan50">−</tspan></text>
  </g>
  <g
     transform="translate(37.952505,2.4634528)"
     id="g52">
    <text
       font-family="'NewComputerModern Math'"
       font-size="1.648px"
       text-anchor="start"
       fill="currentColor"
       id="text51"><tspan
         id="tspan51">7</tspan></text>
  </g>
  <g
     transform="translate(34.811305,10.168853)"
     id="g53">
    <path
       transform="scale(0.004,-0.004)"
       d="M 0,-46 C 0,45 116,136 217,136 280,136 326,101 326,46 326,-41 216,-136 106,-136 39,-136 0,-97 0,-46 Z"
       fill="currentColor"
       id="path52" />
  </g>
  <g
     transform="translate(36.050505,6.6688528)"
     id="g54">
    <rect
       x="-0.064999998"
       y="-1.8329999"
       width="0.13"
       height="5.1468"
       ry="0.039999999"
       fill="currentColor"
       id="rect53" />
  </g>
  <g
     transform="translate(33.777105,10.168853)"
     id="g55">
    <path
       transform="scale(0.004,-0.004)"
       d="m -7,375 c 8,4 17,7 25,7 8,0 16,-3 24,-7 l -2,-183 106,20 h 3 c 10,0 18,-7 18,-17 l 7,-570 c -8,-4 -17,-7 -25,-7 -8,0 -16,3 -24,7 l 2,183 -106,-20 h -3 c -10,0 -18,7 -18,17 z M 131,112 39,95 l -3,-207 92,17 z"
       fill="currentColor"
       id="path54" />
  </g>
  <g
     transform="translate(28.807105,6.4788528)"
     id="g56">
    <polygon
       stroke-linejoin="round"
       stroke-linecap="round"
       stroke-width="0.08"
       fill="currentColor"
       stroke="currentColor"
       points="0.04,0.2 0.04,-0.2 2.6496,-0.01 2.6496,0.39 "
       id="polygon55" />
  </g>
  <g
     transform="translate(38.040905,7.1688528)"
     id="g57">
    <path
       transform="scale(0.004,-0.004)"
       d="M 0,-46 C 0,45 116,136 217,136 280,136 326,101 326,46 326,-41 216,-136 106,-136 39,-136 0,-97 0,-46 Z"
       fill="currentColor"
       id="path56" />
  </g>
  <g
     transform="translate(39.280105,6.6688528)"
     id="g58">
    <rect
       x="-0.064999998"
       y="-2.977"
       width="0.13"
       height="3.2908001"
       ry="0.039999999"
       fill="currentColor"
       id="rect57" />
  </g>
  <g
     transform="translate(36.890905,7.1688528)"
     id="g59">
    <path
       transform="scale(0.004,-0.004)"
       d="m 27,41 -1,-66 v -11 c 0,-22 1,-44 4,-66 45,38 93,80 93,139 0,33 -14,67 -43,67 C 49,104 28,74 27,41 Z m -42,-179 -12,595 c 8,5 18,8 27,8 9,0 19,-3 27,-8 L 20,112 c 25,21 58,34 91,34 52,0 89,-48 89,-102 0,-80 -86,-117 -147,-169 -15,-13 -24,-38 -45,-38 -13,0 -23,11 -23,25 z"
       fill="currentColor"
       id="path58" />
  </g>
  <g
     transform="translate(23.017905,5.4788528)"
     id="g60">
    <polygon
       stroke-linejoin="round"
       stroke-linecap="round"
       stroke-width="0.08"
       fill="currentColor"
       stroke="currentColor"
       points="0.04,0.2 0.04,-0.2 3.3196,-0.01 3.3196,0.39 "
       id="polygon59" />
  </g>
  <g
     transform="translate(40.600505,7.6688528)"
     id="g61">
    <path
       transform="scale(0.004,-0.004)"
       d="M 0,-46 C 0,45 116,136 217,136 280,136 326,101 326,46 326,-41 216,-136 106,-136 39,-136 0,-97 0,-46 Z"
       fill="currentColor"
       id="path60" />
  </g>
  <g
     transform="translate(41.839705,6.6688528)"
     id="g62">
    <rect
       x="-0.064999998"
       y="-1.9954"
       width="0.13"
       height="2.8092"
       ry="0.039999999"
       fill="currentColor"
       id="rect61" />
  </g>
  <g
     transform="translate(17.048805,4.4788528)"
     id="g63">
    <polygon
       stroke-linejoin="round"
       stroke-linecap="round"
       stroke-width="0.08"
       fill="currentColor"
       stroke="currentColor"
       points="0.04,0.2 0.04,-0.2 2.6496,-0.01 2.6496,0.39 "
       id="polygon62" />
  </g>
  <g
     transform="translate(43.160005,8.1688528)"
     id="g64">
    <path
       transform="scale(0.004,-0.004)"
       d="M 0,-46 C 0,45 116,136 217,136 280,136 326,101 326,46 326,-41 216,-136 106,-136 39,-136 0,-97 0,-46 Z"
       fill="currentColor"
       id="path63" />
  </g>
  <g
     transform="translate(44.399205,6.6688528)"
     id="g65">
    <rect
       x="-0.064999998"
       y="-1.8146"
       width="0.13"
       height="3.1284001"
       ry="0.039999999"
       fill="currentColor"
       id="rect64" />
  </g>
  <g
     transform="translate(11.929605,3.8588528)"
     id="g66">
    <polygon
       stroke-linejoin="round"
       stroke-linecap="round"
       stroke-width="0.08"
       fill="currentColor"
       stroke="currentColor"
       points="0.04,0.2 0.04,-0.2 2.6496,-0.39 2.6496,0.01 "
       id="polygon65" />
  </g>
  <g
     transform="translate(45.719605,1.6688528)"
     id="g67">
    <text
       font-family="'NewComputerModern Math'"
       font-size="2.3308px"
       text-anchor="start"
       fill="currentColor"
       id="text66"><tspan
         id="tspan66">C</tspan></text>
  </g>
  <g
     transform="translate(47.392605,2.4634528)"
     id="g68">
    <text
       font-family="'NewComputerModern Math'"
       font-size="1.648px"
       text-anchor="start"
       fill="currentColor"
       id="text67"><tspan
         id="tspan67">7</tspan></text>
  </g>
  <g
     transform="translate(45.719605,8.6688528)"
     id="g69">
    <path
       transform="scale(0.004,-0.004)"
       d="M 0,-46 C 0,45 116,136 217,136 280,136 326,101 326,46 326,-41 216,-136 106,-136 39,-136 0,-97 0,-46 Z"
       fill="currentColor"
       id="path68" />
  </g>
  <g
     transform="translate(46.958805,6.6688528)"
     id="g70">
    <rect
       x="-0.064999998"
       y="-3.2153001"
       width="0.13"
       height="5.0290999"
       ry="0.039999999"
       fill="currentColor"
       id="rect69" />
  </g>
  <g
     transform="translate(48.949205,5.6688528)"
     id="g71">
    <path
       transform="scale(0.004,-0.004)"
       d="M 0,-46 C 0,45 116,136 217,136 280,136 326,101 326,46 326,-41 216,-136 106,-136 39,-136 0,-97 0,-46 Z"
       fill="currentColor"
       id="path70" />
  </g>
  <g
     transform="translate(50.188405,6.6688528)"
     id="g72">
    <rect
       x="-0.064999998"
       y="-4.4747"
       width="0.13"
       height="3.2885001"
       ry="0.039999999"
       fill="currentColor"
       id="rect71" />
  </g>
  <g
     transform="translate(47.799205,5.6688528)"
     id="g73">
    <path
       transform="scale(0.004,-0.004)"
       d="m 27,41 -1,-66 v -11 c 0,-22 1,-44 4,-66 45,38 93,80 93,139 0,33 -14,67 -43,67 C 49,104 28,74 27,41 Z m -42,-179 -12,595 c 8,5 18,8 27,8 9,0 19,-3 27,-8 L 20,112 c 25,21 58,34 91,34 52,0 89,-48 89,-102 0,-80 -86,-117 -147,-169 -15,-13 -24,-38 -45,-38 -13,0 -23,11 -23,25 z"
       fill="currentColor"
       id="path72" />
  </g>
  <g
     transform="translate(51.508805,6.1688528)"
     id="g74">
    <path
       transform="scale(0.004,-0.004)"
       d="M 0,-46 C 0,45 116,136 217,136 280,136 326,101 326,46 326,-41 216,-136 106,-136 39,-136 0,-97 0,-46 Z"
       fill="currentColor"
       id="path73" />
  </g>
  <g
     transform="translate(51.573805,6.6688528)"
     id="g75">
    <rect
       x="-0.064999998"
       y="-0.31380001"
       width="0.13"
       height="3.1284001"
       ry="0.039999999"
       fill="currentColor"
       id="rect74" />
  </g>
  <g
     transform="translate(54.068305,6.6688528)"
     id="g76">
    <path
       transform="scale(0.004,-0.004)"
       d="M 0,-46 C 0,45 116,136 217,136 280,136 326,101 326,46 326,-41 216,-136 106,-136 39,-136 0,-97 0,-46 Z"
       fill="currentColor"
       id="path75" />
  </g>
  <g
     transform="translate(54.133305,6.6688528)"
     id="g77">
    <rect
       x="-0.064999998"
       y="0.18619999"
       width="0.13"
       height="2.8092"
       ry="0.039999999"
       fill="currentColor"
       id="rect76" />
  </g>
  <g
     transform="translate(57.684205,1.6688528)"
     id="g78">
    <text
       font-family="'NewComputerModern Math'"
       font-size="2.3308px"
       text-anchor="start"
       fill="currentColor"
       id="text77"><tspan
         id="tspan77">A</tspan></text>
  </g>
  <g
     transform="translate(59.425505,2.4634528)"
     id="g79">
    <text
       font-family="'NewComputerModern Math'"
       font-size="1.648px"
       text-anchor="start"
       fill="currentColor"
       id="text78"><tspan
         id="tspan78">−</tspan></text>
  </g>
  <g
     transform="translate(60.722905,2.4634528)"
     id="g80">
    <text
       font-family="'NewComputerModern Math'"
       font-size="1.648px"
       text-anchor="start"
       fill="currentColor"
       id="text79"><tspan
         id="tspan79">7</tspan></text>
  </g>
  <g
     transform="translate(57.684205,7.1688528)"
     id="g81">
    <path
       transform="scale(0.004,-0.004)"
       d="M 0,-46 C 0,45 116,136 217,136 280,136 326,101 326,46 326,-41 216,-136 106,-136 39,-136 0,-97 0,-46 Z"
       fill="currentColor"
       id="path80" />
  </g>
  <g
     transform="translate(57.749205,6.6688528)"
     id="g82">
    <rect
       x="-0.064999998"
       y="0.68620002"
       width="0.13"
       height="2.1124001"
       ry="0.039999999"
       fill="currentColor"
       id="rect81" />
  </g>
  <g
     transform="translate(94.030505,4.8588528)"
     id="g83">
    <polygon
       stroke-linejoin="round"
       stroke-linecap="round"
       stroke-width="0.08"
       fill="currentColor"
       stroke="currentColor"
       points="0.04,0.2 0.04,-0.2 2.8996,-1.39 2.8996,-0.99 "
       id="polygon82" />
  </g>
  <g
     transform="translate(61.093805,6.1688528)"
     id="g84">
    <path
       transform="scale(0.004,-0.004)"
       d="M 0,-46 C 0,45 116,136 217,136 280,136 326,101 326,46 326,-41 216,-136 106,-136 39,-136 0,-97 0,-46 Z"
       fill="currentColor"
       id="path83" />
  </g>
  <g
     transform="translate(61.158805,6.6688528)"
     id="g85">
    <rect
       x="-0.064999998"
       y="-0.31380001"
       width="0.13"
       height="2.5151999"
       ry="0.039999999"
       fill="currentColor"
       id="rect84" />
  </g>
  <g
     transform="translate(59.643805,6.1688528)"
     id="g86">
    <path
       transform="scale(0.004,-0.004)"
       d="m 0,119 c 0,8 5,15 13,18 l 46,17 v 158 c 0,10 8,19 18,19 10,0 19,-9 19,-19 V 167 l 83,31 v 158 c 0,10 9,19 19,19 10,0 18,-9 18,-19 V 211 l 32,12 c 2,1 5,1 7,1 11,0 20,-9 20,-20 v -60 c 0,-8 -5,-16 -13,-19 L 216,109 V -51 l 32,11 c 2,1 5,1 7,1 11,0 20,-9 20,-20 v -60 c 0,-8 -5,-15 -13,-18 l -46,-17 v -158 c 0,-10 -8,-19 -18,-19 -10,0 -19,9 -19,19 v 145 l -83,-31 v -158 c 0,-10 -9,-19 -19,-19 -10,0 -18,9 -18,19 v 145 l -32,-12 c -2,-1 -5,-1 -7,-1 -11,0 -20,9 -20,20 v 60 c 0,8 5,16 13,19 l 46,16 V 51 L 27,40 C 25,39 22,39 20,39 9,39 0,48 0,59 Z M 179,95 96,65 V -95 l 83,30 z"
       fill="currentColor"
       id="path85" />
  </g>
  <g
     transform="translate(63.903305,5.1688528)"
     id="g87">
    <path
       transform="scale(0.004,-0.004)"
       d="M 0,-46 C 0,45 116,136 217,136 280,136 326,101 326,46 326,-41 216,-136 106,-136 39,-136 0,-97 0,-46 Z"
       fill="currentColor"
       id="path86" />
  </g>
  <g
     transform="translate(63.968305,6.6688528)"
     id="g88">
    <rect
       x="-0.064999998"
       y="-1.3138"
       width="0.13"
       height="3.1101"
       ry="0.039999999"
       fill="currentColor"
       id="rect87" />
  </g>
  <g
     transform="translate(66.712905,4.1688528)"
     id="g89">
    <path
       transform="scale(0.004,-0.004)"
       d="M 0,-46 C 0,45 116,136 217,136 280,136 326,101 326,46 326,-41 216,-136 106,-136 39,-136 0,-97 0,-46 Z"
       fill="currentColor"
       id="path88" />
  </g>
  <g
     transform="translate(66.777905,6.6688528)"
     id="g90">
    <rect
       x="-0.064999998"
       y="-2.3138001"
       width="0.13"
       height="3.5174999"
       ry="0.039999999"
       fill="currentColor"
       id="rect89" />
  </g>
  <g
     transform="translate(70.122505,1.6688528)"
     id="g91">
    <text
       font-family="'NewComputerModern Math'"
       font-size="2.3308px"
       text-anchor="start"
       fill="currentColor"
       id="text90"><tspan
         id="tspan90">D</tspan></text>
  </g>
  <g
     transform="translate(71.897905,2.4634528)"
     id="g92">
    <text
       font-family="'NewComputerModern Math'"
       font-size="1.648px"
       text-anchor="start"
       fill="currentColor"
       id="text91"><tspan
         id="tspan91">7</tspan></text>
  </g>
  <g
     transform="translate(72.717405,2.4634528)"
     id="g93">
    <text
       font-family="'NewComputerModern Math'"
       font-size="1.648px"
       text-anchor="start"
       fill="currentColor"
       id="text92"><tspan
         id="tspan92">♭</tspan></text>
  </g>
  <g
     transform="translate(73.366105,2.4634528)"
     id="g94">
    <text
       font-family="'NewComputerModern Math'"
       font-size="1.648px"
       text-anchor="start"
       fill="currentColor"
       id="text93"><tspan
         id="tspan93">9</tspan></text>
  </g>
  <g
     transform="translate(70.122505,4.6688528)"
     id="g95">
    <path
       transform="scale(0.004,-0.004)"
       d="M 0,-46 C 0,45 116,136 217,136 280,136 326,101 326,46 326,-41 216,-136 106,-136 39,-136 0,-97 0,-46 Z"
       fill="currentColor"
       id="path94" />
  </g>
  <g
     transform="translate(70.187505,6.6688528)"
     id="g96">
    <rect
       x="-0.064999998"
       y="-1.8138"
       width="0.13"
       height="3.6554999"
       ry="0.039999999"
       fill="currentColor"
       id="rect95" />
  </g>
  <g
     transform="translate(68.672505,4.6688528)"
     id="g97">
    <path
       transform="scale(0.004,-0.004)"
       d="m 0,119 c 0,8 5,15 13,18 l 46,17 v 158 c 0,10 8,19 18,19 10,0 19,-9 19,-19 V 167 l 83,31 v 158 c 0,10 9,19 19,19 10,0 18,-9 18,-19 V 211 l 32,12 c 2,1 5,1 7,1 11,0 20,-9 20,-20 v -60 c 0,-8 -5,-16 -13,-19 L 216,109 V -51 l 32,11 c 2,1 5,1 7,1 11,0 20,-9 20,-20 v -60 c 0,-8 -5,-15 -13,-18 l -46,-17 v -158 c 0,-10 -8,-19 -18,-19 -10,0 -19,9 -19,19 v 145 l -83,-31 v -158 c 0,-10 -9,-19 -19,-19 -10,0 -18,9 -18,19 v 145 l -32,-12 c -2,-1 -5,-1 -7,-1 -11,0 -20,9 -20,20 v 60 c 0,8 5,16 13,19 l 46,16 V 51 L 27,40 C 25,39 22,39 20,39 9,39 0,48 0,59 Z M 179,95 96,65 V -95 l 83,30 z"
       fill="currentColor"
       id="path96" />
  </g>
  <g
     transform="translate(72.432105,7.1688528)"
     id="g98">
    <path
       transform="scale(0.004,-0.004)"
       d="M 0,-46 C 0,45 116,136 217,136 280,136 326,101 326,46 326,-41 216,-136 106,-136 39,-136 0,-97 0,-46 Z"
       fill="currentColor"
       id="path97" />
  </g>
  <g
     transform="translate(72.497105,6.6688528)"
     id="g99">
    <rect
       x="-0.064999998"
       y="0.68620002"
       width="0.13"
       height="2.2821"
       ry="0.039999999"
       fill="currentColor"
       id="rect98" />
  </g>
  <g
     transform="translate(75.437605,6.1688528)"
     id="g100">
    <path
       transform="scale(0.004,-0.004)"
       d="M 0,-46 C 0,45 116,136 217,136 280,136 326,101 326,46 326,-41 216,-136 106,-136 39,-136 0,-97 0,-46 Z"
       fill="currentColor"
       id="path99" />
  </g>
  <g
     transform="translate(75.502605,6.6688528)"
     id="g101">
    <rect
       x="-0.064999998"
       y="-0.31380001"
       width="0.13"
       height="3.1118"
       ry="0.039999999"
       fill="currentColor"
       id="rect100" />
  </g>
  <g
     transform="translate(74.391605,6.1688528)"
     id="g102">
    <path
       transform="scale(0.004,-0.004)"
       d="m -7,375 c 8,4 17,7 25,7 8,0 16,-3 24,-7 l -2,-183 106,20 h 3 c 10,0 18,-7 18,-17 l 7,-570 c -8,-4 -17,-7 -25,-7 -8,0 -16,3 -24,7 l 2,183 -106,-20 h -3 c -10,0 -18,7 -18,17 z M 131,112 39,95 l -3,-207 92,17 z"
       fill="currentColor"
       id="path101" />
  </g>
  <g
     transform="translate(78.667205,5.1688528)"
     id="g103">
    <path
       transform="scale(0.004,-0.004)"
       d="M 0,-46 C 0,45 116,136 217,136 280,136 326,101 326,46 326,-41 216,-136 106,-136 39,-136 0,-97 0,-46 Z"
       fill="currentColor"
       id="path102" />
  </g>
  <g
     transform="translate(78.732205,6.6688528)"
     id="g104">
    <rect
       x="-0.064999998"
       y="-1.3138"
       width="0.13"
       height="3.5158"
       ry="0.039999999"
       fill="currentColor"
       id="rect103" />
  </g>
  <g
     transform="translate(77.517205,5.1688528)"
     id="g105">
    <path
       transform="scale(0.004,-0.004)"
       d="m 27,41 -1,-66 v -11 c 0,-22 1,-44 4,-66 45,38 93,80 93,139 0,33 -14,67 -43,67 C 49,104 28,74 27,41 Z m -42,-179 -12,595 c 8,5 18,8 27,8 9,0 19,-3 27,-8 L 20,112 c 25,21 58,34 91,34 52,0 89,-48 89,-102 0,-80 -86,-117 -147,-169 -15,-13 -24,-38 -45,-38 -13,0 -23,11 -23,25 z"
       fill="currentColor"
       id="path104" />
  </g>
  <g
     transform="translate(100.6108,8.1288528)"
     id="g106">
    <path
       transform="scale(0.004,-0.004)"
       d="M 0,0 H -16 V 375 H 0 Z m 224,509 c 0,94 -40,158 -40,168 0,14 11,22 23,22 7,0 15,-3 20,-11 25,-56 40,-117 40,-179 C 267,306 0,203 0,0 v 250 c 97,59 224,148 224,259 z"
       fill="currentColor"
       id="path105" />
  </g>
  <g
     transform="translate(82.261605,1.6688528)"
     id="g107">
    <text
       font-family="'NewComputerModern Math'"
       font-size="2.3308px"
       text-anchor="start"
       fill="currentColor"
       id="text106"><tspan
         id="tspan106">G</tspan></text>
  </g>
  <g
     transform="translate(84.105405,2.4634528)"
     id="g108">
    <text
       font-family="'NewComputerModern Math'"
       font-size="1.648px"
       text-anchor="start"
       fill="currentColor"
       id="text107"><tspan
         id="tspan107">−</tspan></text>
  </g>
  <g
     transform="translate(85.402805,2.4634528)"
     id="g109">
    <text
       font-family="'NewComputerModern Math'"
       font-size="1.648px"
       text-anchor="start"
       fill="currentColor"
       id="text108"><tspan
         id="tspan108">7</tspan></text>
  </g>
  <g
     transform="translate(82.261605,5.6688528)"
     id="g110">
    <path
       transform="scale(0.004,-0.004)"
       d="M 0,-46 C 0,45 116,136 217,136 280,136 326,101 326,46 326,-41 216,-136 106,-136 39,-136 0,-97 0,-46 Z"
       fill="currentColor"
       id="path109" />
  </g>
  <g
     transform="translate(82.326605,6.6688528)"
     id="g111">
    <rect
       x="-0.064999998"
       y="-0.81379998"
       width="0.13"
       height="3.0167"
       ry="0.039999999"
       fill="currentColor"
       id="rect110" />
  </g>
  <g
     transform="translate(85.267205,6.6688528)"
     id="g112">
    <path
       transform="scale(0.004,-0.004)"
       d="M 0,-46 C 0,45 116,136 217,136 280,136 326,101 326,46 326,-41 216,-136 106,-136 39,-136 0,-97 0,-46 Z"
       fill="currentColor"
       id="path111" />
  </g>
  <g
     transform="translate(85.332205,6.6688528)"
     id="g113">
    <rect
       x="-0.064999998"
       y="0.18619999"
       width="0.13"
       height="2.6108999"
       ry="0.039999999"
       fill="currentColor"
       id="rect112" />
  </g>
  <g
     transform="translate(84.221205,6.6688528)"
     id="g114">
    <path
       transform="scale(0.004,-0.004)"
       d="m -7,375 c 8,4 17,7 25,7 8,0 16,-3 24,-7 l -2,-183 106,20 h 3 c 10,0 18,-7 18,-17 l 7,-570 c -8,-4 -17,-7 -25,-7 -8,0 -16,3 -24,7 l 2,183 -106,-20 h -3 c -10,0 -18,7 -18,17 z M 131,112 39,95 l -3,-207 92,17 z"
       fill="currentColor"
       id="path113" />
  </g>
  <g
     transform="translate(100.5458,6.6688528)"
     id="g115">
    <rect
       x="-0.064999998"
       y="-1.8138"
       width="0.13"
       height="3.3138001"
       ry="0.039999999"
       fill="currentColor"
       id="rect114" />
  </g>
  <g
     transform="translate(87.737105,7.6688528)"
     id="g116">
    <path
       transform="scale(0.004,-0.004)"
       d="M 0,-46 C 0,45 116,136 217,136 280,136 326,101 326,46 326,-41 216,-136 106,-136 39,-136 0,-97 0,-46 Z"
       fill="currentColor"
       id="path115" />
  </g>
  <g
     transform="translate(88.976305,6.6688528)"
     id="g117">
    <rect
       x="-0.064999998"
       y="-1.9954"
       width="0.13"
       height="2.8092"
       ry="0.039999999"
       fill="currentColor"
       id="rect116" />
  </g>
  <g
     transform="translate(100.4808,4.6688528)"
     id="g118">
    <path
       transform="scale(0.004,-0.004)"
       d="M 0,-46 C 0,45 116,136 217,136 280,136 326,101 326,46 326,-41 216,-136 106,-136 39,-136 0,-97 0,-46 Z"
       fill="currentColor"
       id="path117" />
  </g>
  <g
     transform="translate(90.296705,8.1688528)"
     id="g119">
    <path
       transform="scale(0.004,-0.004)"
       d="M 0,-46 C 0,45 116,136 217,136 280,136 326,101 326,46 326,-41 216,-136 106,-136 39,-136 0,-97 0,-46 Z"
       fill="currentColor"
       id="path118" />
  </g>
  <g
     transform="translate(91.535905,6.6688528)"
     id="g120">
    <rect
       x="-0.064999998"
       y="-1.8146"
       width="0.13"
       height="3.1284001"
       ry="0.039999999"
       fill="currentColor"
       id="rect119" />
  </g>
  <g
     transform="translate(92.856305,1.6688528)"
     id="g121">
    <text
       font-family="'NewComputerModern Math'"
       font-size="2.3308px"
       text-anchor="start"
       fill="currentColor"
       id="text120"><tspan
         id="tspan120">C</tspan></text>
  </g>
  <g
     transform="translate(94.529305,2.4634528)"
     id="g122">
    <text
       font-family="'NewComputerModern Math'"
       font-size="1.648px"
       text-anchor="start"
       fill="currentColor"
       id="text121"><tspan
         id="tspan121">7</tspan></text>
  </g>
  <g
     transform="translate(92.856305,8.6688528)"
     id="g123">
    <path
       transform="scale(0.004,-0.004)"
       d="M 0,-46 C 0,45 116,136 217,136 280,136 326,101 326,46 326,-41 216,-136 106,-136 39,-136 0,-97 0,-46 Z"
       fill="currentColor"
       id="path122" />
  </g>
  <g
     transform="translate(94.095505,6.6688528)"
     id="g124">
    <rect
       x="-0.064999998"
       y="-1.8363"
       width="0.13"
       height="3.6501"
       ry="0.039999999"
       fill="currentColor"
       id="rect123" />
  </g>
  <g
     transform="translate(95.665805,6.1688528)"
     id="g125">
    <path
       transform="scale(0.004,-0.004)"
       d="M 0,-46 C 0,45 116,136 217,136 280,136 326,101 326,46 326,-41 216,-136 106,-136 39,-136 0,-97 0,-46 Z"
       fill="currentColor"
       id="path124" />
  </g>
  <g
     transform="translate(96.905005,6.6688528)"
     id="g126">
    <rect
       x="-0.064999998"
       y="-2.9737"
       width="0.13"
       height="2.2874999"
       ry="0.039999999"
       fill="currentColor"
       id="rect125" />
  </g>
  <g
     transform="translate(98.225405,6.6688528)"
     id="g127">
    <path
       transform="scale(0.004,-0.004)"
       d="m 70,205 c 79,0 46,-98 91,-98 16,0 54,48 61,63 3,6 8,9 14,9 6,0 12,-3 14,-9 L 127,-250 c -8,-7 -17,-10 -27,-10 -10,0 -20,3 -28,10 L 189,76 C 155,64 120,54 84,54 26,54 -1,95 -1,134 c 0,36 24,71 71,71 z"
       fill="currentColor"
       id="path126" />
  </g>
  <g
     transform="translate(103.0403,22.668853)"
     id="g128">
    <rect
       x="0"
       y="-2"
       width="0.19"
       height="4"
       ry="0.0000"
       fill="currentColor"
       id="rect127" />
  </g>
  <g
     transform="translate(102.5503,22.668853)"
     id="g129">
    <rect
       x="0"
       y="-2"
       width="0.19"
       height="4"
       ry="0.0000"
       fill="currentColor"
       id="rect128" />
  </g>
  <g
     transform="translate(0.800405,24.668853)"
     id="g130">
    <line
       stroke-linejoin="round"
       stroke-linecap="round"
       stroke-width="0.1"
       stroke="currentColor"
       x1="0.050000001"
       y1="0"
       x2="102.3799"
       y2="0"
       id="line129" />
  </g>
  <g
     transform="translate(0.800405,23.668853)"
     id="g131">
    <line
       stroke-linejoin="round"
       stroke-linecap="round"
       stroke-width="0.1"
       stroke="currentColor"
       x1="0.050000001"
       y1="0"
       x2="102.3799"
       y2="0"
       id="line130" />
  </g>
  <g
     transform="translate(0.800405,22.668853)"
     id="g132">
    <line
       stroke-linejoin="round"
       stroke-linecap="round"
       stroke-width="0.1"
       stroke="currentColor"
       x1="0.050000001"
       y1="0"
       x2="102.3799"
       y2="0"
       id="line131" />
  </g>
  <g
     transform="translate(0.800405,21.668853)"
     id="g133">
    <line
       stroke-linejoin="round"
       stroke-linecap="round"
       stroke-width="0.1"
       stroke="currentColor"
       x1="0.050000001"
       y1="0"
       x2="102.3799"
       y2="0"
       id="line132" />
  </g>
  <g
     transform="translate(0.800405,20.668853)"
     id="g134">
    <line
       stroke-linejoin="round"
       stroke-linecap="round"
       stroke-width="0.1"
       stroke="currentColor"
       x1="0.050000001"
       y1="0"
       x2="102.3799"
       y2="0"
       id="line133" />
  </g>
  <g
     transform="translate(81.567005,22.668853)"
     id="g135">
    <rect
       x="0"
       y="-2"
       width="0.19"
       height="4"
       ry="0.0000"
       fill="currentColor"
       id="rect134" />
  </g>
  <g
     transform="translate(57.976105,22.668853)"
     id="g136">
    <rect
       x="0"
       y="-2"
       width="0.19"
       height="4"
       ry="0.0000"
       fill="currentColor"
       id="rect135" />
  </g>
  <g
     transform="translate(32.452905,22.668853)"
     id="g137">
    <rect
       x="0"
       y="-2"
       width="0.19"
       height="4"
       ry="0.0000"
       fill="currentColor"
       id="rect136" />
  </g>
  <g
     transform="translate(1.600405,23.668853)"
     id="g138">
    <path
       transform="scale(0.004,-0.004)"
       d="m 266,-635 h -6 c -108,0 -195,88 -195,197 0,58 53,103 112,103 54,0 95,-47 95,-103 0,-52 -43,-95 -95,-95 -11,0 -21,2 -31,6 26,-39 68,-65 117,-65 h 4 z m 135,786 c 19,-89 48,-242 60,-354 76,27 112,94 112,163 0,89 -60,179 -172,191 z M 74,28 c 0,-112 98,-247 278,-247 21,0 44,2 68,6 -7,64 -29,203 -63,364 -79,-8 -124,-61 -124,-119 0,-44 25,-91 81,-123 5,-5 7,-10 7,-15 0,-11 -10,-22 -22,-22 -15,0 -126,62 -126,187 0,88 58,174 160,197 -14,58 -29,117 -46,175 C 180,310 74,188 74,28 Z m 283,1166 c 28,0 143,-206 143,-361 0,-143 -86,-255 -180,-364 21,-68 39,-138 56,-207 5,0 10,1 14,1 155,0 255,-129 255,-262 0,-113 -74,-212 -180,-245 3,-35 5,-70 5,-105 0,-19 -1,-39 -2,-58 -7,-119 -88,-225 -202,-228 l 1,43 c 93,2 153,92 159,191 1,18 2,37 2,55 0,31 -1,61 -4,92 -28,-5 -55,-8 -80,-8 -239,0 -342,217 -342,374 0,177 131,306 248,441 -29,96 -52,170 -52,346 0,189 144,295 159,295 z M 247,782 c 0,-55 12,-115 35,-190 83,100 147,202 147,326 0,40 -6,82 -21,127 -49,-24 -161,-97 -161,-263 z"
       fill="currentColor"
       id="path137" />
  </g>
  <g
     transform="translate(5.105405,22.668853)"
     id="g139">
    <path
       transform="scale(0.004,-0.004)"
       d="m 27,41 -1,-66 v -11 c 0,-22 1,-44 4,-66 45,38 93,80 93,139 0,33 -14,67 -43,67 C 49,104 28,74 27,41 Z m -42,-179 -12,595 c 8,5 18,8 27,8 9,0 19,-3 27,-8 L 20,112 c 25,21 58,34 91,34 52,0 89,-48 89,-102 0,-80 -86,-117 -147,-169 -15,-13 -24,-38 -45,-38 -13,0 -23,11 -23,25 z"
       fill="currentColor"
       id="path138" />
  </g>
  <g
     transform="translate(-0.087295,19.580453)"
     id="g140">
    <text
       font-family="'NewComputerModern Math'"
       font-size="1.7459px"
       text-anchor="start"
       fill="currentColor"
       id="text139"><tspan
         id="tspan139">5</tspan></text>
  </g>
  <g
     transform="translate(90.319805,19.858853)"
     id="g141">
    <polygon
       stroke-linejoin="round"
       stroke-linecap="round"
       stroke-width="0.08"
       fill="currentColor"
       stroke="currentColor"
       points="0.04,0.2 0.04,-0.2 2.6096,0.42 2.6096,0.82 "
       id="polygon140" />
  </g>
  <g
     transform="translate(8.405405,17.168853)"
     id="g142">
    <text
       font-family="'NewComputerModern Math'"
       font-size="2.3308px"
       text-anchor="start"
       fill="currentColor"
       id="text141"><tspan
         id="tspan141">A</tspan></text>
  </g>
  <g
     transform="translate(10.146705,17.963453)"
     id="g143">
    <text
       font-family="'NewComputerModern Math'"
       font-size="1.648px"
       text-anchor="start"
       fill="currentColor"
       id="text142"><tspan
         id="tspan142">−</tspan></text>
  </g>
  <g
     transform="translate(11.444205,17.963453)"
     id="g144">
    <text
       font-family="'NewComputerModern Math'"
       font-size="1.648px"
       text-anchor="start"
       fill="currentColor"
       id="text143"><tspan
         id="tspan143">7</tspan></text>
  </g>
  <g
     transform="translate(8.405405,21.168853)"
     id="g145">
    <path
       transform="scale(0.004,-0.004)"
       d="M 0,-46 C 0,45 116,136 217,136 280,136 326,101 326,46 326,-41 216,-136 106,-136 39,-136 0,-97 0,-46 Z"
       fill="currentColor"
       id="path144" />
  </g>
  <g
     transform="translate(8.470405,22.668853)"
     id="g146">
    <rect
       x="-0.064999998"
       y="-1.3138"
       width="0.13"
       height="3.5144999"
       ry="0.039999999"
       fill="currentColor"
       id="rect145" />
  </g>
  <g
     transform="translate(91.665205,22.668853)"
     id="g147">
    <path
       stroke-width="0.08"
       stroke-linejoin="round"
       stroke-linecap="round"
       stroke="currentColor"
       fill="currentColor"
       d="M 1.5042,2 C 1.7975,2.3837 2.2763,2.3837 2.5696,2 V 2 C 2.2763,2.2637 1.7975,2.2637 1.5042,2 Z"
       id="path146" />
  </g>
  <g
     transform="translate(12.025005,22.168853)"
     id="g148">
    <path
       transform="scale(0.004,-0.004)"
       d="M 0,-46 C 0,45 116,136 217,136 280,136 326,101 326,46 326,-41 216,-136 106,-136 39,-136 0,-97 0,-46 Z"
       fill="currentColor"
       id="path147" />
  </g>
  <g
     transform="translate(12.090005,22.668853)"
     id="g149">
    <rect
       x="-0.064999998"
       y="-0.31380001"
       width="0.13"
       height="3.1131001"
       ry="0.039999999"
       fill="currentColor"
       id="rect148" />
  </g>
  <g
     transform="translate(10.575005,22.168853)"
     id="g150">
    <path
       transform="scale(0.004,-0.004)"
       d="m 0,119 c 0,8 5,15 13,18 l 46,17 v 158 c 0,10 8,19 18,19 10,0 19,-9 19,-19 V 167 l 83,31 v 158 c 0,10 9,19 19,19 10,0 18,-9 18,-19 V 211 l 32,12 c 2,1 5,1 7,1 11,0 20,-9 20,-20 v -60 c 0,-8 -5,-16 -13,-19 L 216,109 V -51 l 32,11 c 2,1 5,1 7,1 11,0 20,-9 20,-20 v -60 c 0,-8 -5,-15 -13,-18 l -46,-17 v -158 c 0,-10 -8,-19 -18,-19 -10,0 -19,9 -19,19 v 145 l -83,-31 v -158 c 0,-10 -9,-19 -19,-19 -10,0 -18,9 -18,19 v 145 l -32,-12 c -2,-1 -5,-1 -7,-1 -11,0 -20,9 -20,20 v 60 c 0,8 5,16 13,19 l 46,16 V 51 L 27,40 C 25,39 22,39 20,39 9,39 0,48 0,59 Z M 179,95 96,65 V -95 l 83,30 z"
       fill="currentColor"
       id="path149" />
  </g>
  <g
     transform="translate(83.930705,19.668853)"
     id="g151">
    <polygon
       stroke-linejoin="round"
       stroke-linecap="round"
       stroke-width="0.08"
       fill="currentColor"
       stroke="currentColor"
       points="0.04,0.2 0.04,-0.2 3.7096,0.61 3.7096,1.01 "
       id="polygon150" />
  </g>
  <g
     transform="translate(14.704905,23.168853)"
     id="g152">
    <path
       transform="scale(0.004,-0.004)"
       d="M 0,-46 C 0,45 116,136 217,136 280,136 326,101 326,46 326,-41 216,-136 106,-136 39,-136 0,-97 0,-46 Z"
       fill="currentColor"
       id="path151" />
  </g>
  <g
     transform="translate(15.944105,22.668853)"
     id="g153">
    <rect
       x="-0.064999998"
       y="-2.1856999"
       width="0.13"
       height="2.4995"
       ry="0.039999999"
       fill="currentColor"
       id="rect152" />
  </g>
  <g
     transform="translate(75.978905,25.478853)"
     id="g154">
    <polygon
       stroke-linejoin="round"
       stroke-linecap="round"
       stroke-width="0.08"
       fill="currentColor"
       stroke="currentColor"
       points="0.04,0.2 0.04,-0.2 3.1096,-0.82 3.1096,-0.42 "
       id="polygon153" />
  </g>
  <g
     transform="translate(17.474405,23.668853)"
     id="g155">
    <path
       transform="scale(0.004,-0.004)"
       d="M 0,-46 C 0,45 116,136 217,136 280,136 326,101 326,46 326,-41 216,-136 106,-136 39,-136 0,-97 0,-46 Z"
       fill="currentColor"
       id="path154" />
  </g>
  <g
     transform="translate(18.713605,22.668853)"
     id="g156">
    <rect
       x="-0.064999998"
       y="-2.0043001"
       width="0.13"
       height="2.8181"
       ry="0.039999999"
       fill="currentColor"
       id="rect155" />
  </g>
  <g
     transform="translate(71.418005,19.668853)"
     id="g157">
    <polygon
       stroke-linejoin="round"
       stroke-linecap="round"
       stroke-width="0.08"
       fill="currentColor"
       stroke="currentColor"
       points="0.04,0.2 0.04,-0.2 2.6096,0.61 2.6096,1.01 "
       id="polygon156" />
  </g>
  <g
     transform="translate(21.094005,17.168853)"
     id="g158">
    <text
       font-family="'NewComputerModern Math'"
       font-size="2.3308px"
       text-anchor="start"
       fill="currentColor"
       id="text157"><tspan
         id="tspan157">D</tspan></text>
  </g>
  <g
     transform="translate(22.869405,17.963453)"
     id="g159">
    <text
       font-family="'NewComputerModern Math'"
       font-size="1.648px"
       text-anchor="start"
       fill="currentColor"
       id="text158"><tspan
         id="tspan158">7</tspan></text>
  </g>
  <g
     transform="translate(23.688905,17.963453)"
     id="g160">
    <text
       font-family="'NewComputerModern Math'"
       font-size="1.648px"
       text-anchor="start"
       fill="currentColor"
       id="text159"><tspan
         id="tspan159">♭</tspan></text>
  </g>
  <g
     transform="translate(24.337605,17.963453)"
     id="g161">
    <text
       font-family="'NewComputerModern Math'"
       font-size="1.648px"
       text-anchor="start"
       fill="currentColor"
       id="text160"><tspan
         id="tspan160">9</tspan></text>
  </g>
  <g
     transform="translate(21.094005,24.168853)"
     id="g162">
    <path
       transform="scale(0.004,-0.004)"
       d="M 0,-46 C 0,45 116,136 217,136 280,136 326,101 326,46 326,-41 216,-136 106,-136 39,-136 0,-97 0,-46 Z"
       fill="currentColor"
       id="path161" />
  </g>
  <g
     transform="translate(21.159005,22.668853)"
     id="g163">
    <rect
       x="-0.064999998"
       y="1.6862"
       width="0.13"
       height="2.4728999"
       ry="0.039999999"
       fill="currentColor"
       id="rect162" />
  </g>
  <g
     transform="translate(19.644005,24.168853)"
     id="g164">
    <path
       transform="scale(0.004,-0.004)"
       d="m 0,119 c 0,8 5,15 13,18 l 46,17 v 158 c 0,10 8,19 18,19 10,0 19,-9 19,-19 V 167 l 83,31 v 158 c 0,10 9,19 19,19 10,0 18,-9 18,-19 V 211 l 32,12 c 2,1 5,1 7,1 11,0 20,-9 20,-20 v -60 c 0,-8 -5,-16 -13,-19 L 216,109 V -51 l 32,11 c 2,1 5,1 7,1 11,0 20,-9 20,-20 v -60 c 0,-8 -5,-15 -13,-18 l -46,-17 v -158 c 0,-10 -8,-19 -18,-19 -10,0 -19,9 -19,19 v 145 l -83,-31 v -158 c 0,-10 -9,-19 -19,-19 -10,0 -18,9 -18,19 v 145 l -32,-12 c -2,-1 -5,-1 -7,-1 -11,0 -20,9 -20,20 v 60 c 0,8 5,16 13,19 l 46,16 V 51 L 27,40 C 25,39 22,39 20,39 9,39 0,48 0,59 Z M 179,95 96,65 V -95 l 83,30 z"
       fill="currentColor"
       id="path163" />
  </g>
  <g
     transform="translate(64.687205,24.668853)"
     id="g165">
    <polygon
       stroke-linejoin="round"
       stroke-linecap="round"
       stroke-width="0.08"
       fill="currentColor"
       stroke="currentColor"
       points="0.04,0.2 0.04,-0.2 3.1096,-1.01 3.1096,-0.61 "
       id="polygon164" />
  </g>
  <g
     transform="translate(23.863505,21.168853)"
     id="g166">
    <path
       transform="scale(0.004,-0.004)"
       d="M 0,-46 C 0,45 116,136 217,136 280,136 326,101 326,46 326,-41 216,-136 106,-136 39,-136 0,-97 0,-46 Z"
       fill="currentColor"
       id="path165" />
  </g>
  <g
     transform="translate(23.928505,22.668853)"
     id="g167">
    <rect
       x="-0.064999998"
       y="-1.3138"
       width="0.13"
       height="4.1546998"
       ry="0.039999999"
       fill="currentColor"
       id="rect166" />
  </g>
  <g
     transform="translate(22.713505,21.168853)"
     id="g168">
    <path
       transform="scale(0.004,-0.004)"
       d="m 27,41 -1,-66 v -11 c 0,-22 1,-44 4,-66 45,38 93,80 93,139 0,33 -14,67 -43,67 C 49,104 28,74 27,41 Z m -42,-179 -12,595 c 8,5 18,8 27,8 9,0 19,-3 27,-8 L 20,112 c 25,21 58,34 91,34 52,0 89,-48 89,-102 0,-80 -86,-117 -147,-169 -15,-13 -24,-38 -45,-38 -13,0 -23,11 -23,25 z"
       fill="currentColor"
       id="path167" />
  </g>
  <g
     transform="translate(60.339805,19.858853)"
     id="g169">
    <polygon
       stroke-linejoin="round"
       stroke-linecap="round"
       stroke-width="0.08"
       fill="currentColor"
       stroke="currentColor"
       points="0.04,0.2 0.04,-0.2 2.6096,0.42 2.6096,0.82 "
       id="polygon168" />
  </g>
  <g
     transform="translate(26.633105,21.668853)"
     id="g170">
    <path
       transform="scale(0.004,-0.004)"
       d="M 0,-46 C 0,45 116,136 217,136 280,136 326,101 326,46 326,-41 216,-136 106,-136 39,-136 0,-97 0,-46 Z"
       fill="currentColor"
       id="path169" />
  </g>
  <g
     transform="translate(26.698105,22.668853)"
     id="g171">
    <rect
       x="-0.064999998"
       y="-0.81379998"
       width="0.13"
       height="2.8175001"
       ry="0.039999999"
       fill="currentColor"
       id="rect170" />
  </g>
  <g
     transform="translate(51.896505,25.478853)"
     id="g172">
    <polygon
       stroke-linejoin="round"
       stroke-linecap="round"
       stroke-width="0.08"
       fill="currentColor"
       stroke="currentColor"
       points="0.04,0.2 0.04,-0.2 3.5296,-0.01 3.5296,0.39 "
       id="polygon171" />
  </g>
  <g
     transform="translate(29.848605,22.168853)"
     id="g173">
    <path
       transform="scale(0.004,-0.004)"
       d="M 0,-46 C 0,45 116,136 217,136 280,136 326,101 326,46 326,-41 216,-136 106,-136 39,-136 0,-97 0,-46 Z"
       fill="currentColor"
       id="path172" />
  </g>
  <g
     transform="translate(29.913605,22.668853)"
     id="g174">
    <rect
       x="-0.064999998"
       y="-0.31380001"
       width="0.13"
       height="2.5000999"
       ry="0.039999999"
       fill="currentColor"
       id="rect173" />
  </g>
  <g
     transform="translate(28.802605,22.168853)"
     id="g175">
    <path
       transform="scale(0.004,-0.004)"
       d="m -7,375 c 8,4 17,7 25,7 8,0 16,-3 24,-7 l -2,-183 106,20 h 3 c 10,0 18,-7 18,-17 l 7,-570 c -8,-4 -17,-7 -25,-7 -8,0 -16,3 -24,7 l 2,183 -106,-20 h -3 c -10,0 -18,7 -18,17 z M 131,112 39,95 l -3,-207 92,17 z"
       fill="currentColor"
       id="path174" />
  </g>
  <g
     transform="translate(45.687405,24.478853)"
     id="g176">
    <polygon
       stroke-linejoin="round"
       stroke-linecap="round"
       stroke-width="0.08"
       fill="currentColor"
       stroke="currentColor"
       points="0.04,0.2 0.04,-0.2 3.5296,-0.01 3.5296,0.39 "
       id="polygon175" />
  </g>
  <g
     transform="translate(39.898305,24.478853)"
     id="g177">
    <polygon
       stroke-linejoin="round"
       stroke-linecap="round"
       stroke-width="0.08"
       fill="currentColor"
       stroke="currentColor"
       points="0.04,0.2 0.04,-0.2 3.1096,-0.82 3.1096,-0.42 "
       id="polygon176" />
  </g>
  <g
     transform="translate(34.376705,17.168853)"
     id="g178">
    <text
       font-family="'NewComputerModern Math'"
       font-size="2.3308px"
       text-anchor="start"
       fill="currentColor"
       id="text177"><tspan
         id="tspan177">G</tspan></text>
  </g>
  <g
     transform="translate(36.220405,17.963453)"
     id="g179">
    <text
       font-family="'NewComputerModern Math'"
       font-size="1.648px"
       text-anchor="start"
       fill="currentColor"
       id="text178"><tspan
         id="tspan178">−</tspan></text>
  </g>
  <g
     transform="translate(37.517905,17.963453)"
     id="g180">
    <text
       font-family="'NewComputerModern Math'"
       font-size="1.648px"
       text-anchor="start"
       fill="currentColor"
       id="text179"><tspan
         id="tspan179">7</tspan></text>
  </g>
  <g
     transform="translate(34.376705,22.668853)"
     id="g181">
    <path
       transform="scale(0.004,-0.004)"
       d="M 0,-46 C 0,45 116,136 217,136 280,136 326,101 326,46 326,-41 216,-136 106,-136 39,-136 0,-97 0,-46 Z"
       fill="currentColor"
       id="path180" />
  </g>
  <g
     transform="translate(35.615905,22.668853)"
     id="g182">
    <rect
       x="-0.064999998"
       y="-2.7948"
       width="0.13"
       height="2.6085999"
       ry="0.039999999"
       fill="currentColor"
       id="rect181" />
  </g>
  <g
     transform="translate(33.342405,22.668853)"
     id="g183">
    <path
       transform="scale(0.004,-0.004)"
       d="m -7,375 c 8,4 17,7 25,7 8,0 16,-3 24,-7 l -2,-183 106,20 h 3 c 10,0 18,-7 18,-17 l 7,-570 c -8,-4 -17,-7 -25,-7 -8,0 -16,3 -24,7 l 2,183 -106,-20 h -3 c -10,0 -18,7 -18,17 z M 131,112 39,95 l -3,-207 92,17 z"
       fill="currentColor"
       id="path182" />
  </g>
  <g
     transform="translate(35.550905,19.858853)"
     id="g184">
    <polygon
       stroke-linejoin="round"
       stroke-linecap="round"
       stroke-width="0.08"
       fill="currentColor"
       stroke="currentColor"
       points="0.04,0.2 0.04,-0.2 2.6096,0.42 2.6096,0.82 "
       id="polygon183" />
  </g>
  <g
     transform="translate(36.896305,23.668853)"
     id="g185">
    <path
       transform="scale(0.004,-0.004)"
       d="M 0,-46 C 0,45 116,136 217,136 280,136 326,101 326,46 326,-41 216,-136 106,-136 39,-136 0,-97 0,-46 Z"
       fill="currentColor"
       id="path184" />
  </g>
  <g
     transform="translate(38.135505,22.668853)"
     id="g186">
    <rect
       x="-0.064999998"
       y="-2.2052"
       width="0.13"
       height="3.0190001"
       ry="0.039999999"
       fill="currentColor"
       id="rect185" />
  </g>
  <g
     transform="translate(26.633105,24.668853)"
     id="g187">
    <polygon
       stroke-linejoin="round"
       stroke-linecap="round"
       stroke-width="0.08"
       fill="currentColor"
       stroke="currentColor"
       points="0.04,0.2 0.04,-0.2 3.3056,-0.01 3.3056,0.39 "
       id="polygon186" />
  </g>
  <g
     transform="translate(39.898305,21.668853)"
     id="g188">
    <path
       transform="scale(0.004,-0.004)"
       d="M 0,-46 C 0,45 116,136 217,136 280,136 326,101 326,46 326,-41 216,-136 106,-136 39,-136 0,-97 0,-46 Z"
       fill="currentColor"
       id="path187" />
  </g>
  <g
     transform="translate(39.963305,22.668853)"
     id="g189">
    <rect
       x="-0.064999998"
       y="-0.81379998"
       width="0.13"
       height="2.6110001"
       ry="0.039999999"
       fill="currentColor"
       id="rect188" />
  </g>
  <g
     transform="translate(21.094005,26.858853)"
     id="g190">
    <polygon
       stroke-linejoin="round"
       stroke-linecap="round"
       stroke-width="0.08"
       fill="currentColor"
       stroke="currentColor"
       points="0.04,0.2 0.04,-0.2 2.8596,-1.58 2.8596,-1.18 "
       id="polygon189" />
  </g>
  <g
     transform="translate(42.917905,20.668853)"
     id="g191">
    <path
       transform="scale(0.004,-0.004)"
       d="M 0,-46 C 0,45 116,136 217,136 280,136 326,101 326,46 326,-41 216,-136 106,-136 39,-136 0,-97 0,-46 Z"
       fill="currentColor"
       id="path190" />
  </g>
  <g
     transform="translate(42.982905,22.668853)"
     id="g192">
    <rect
       x="-0.064999998"
       y="-1.8138"
       width="0.13"
       height="3.0165999"
       ry="0.039999999"
       fill="currentColor"
       id="rect191" />
  </g>
  <g
     transform="translate(15.879105,20.478853)"
     id="g193">
    <polygon
       stroke-linejoin="round"
       stroke-linecap="round"
       stroke-width="0.08"
       fill="currentColor"
       stroke="currentColor"
       points="0.04,0.2 0.04,-0.2 2.8596,-0.01 2.8596,0.39 "
       id="polygon192" />
  </g>
  <g
     transform="translate(45.687405,21.168853)"
     id="g194">
    <path
       transform="scale(0.004,-0.004)"
       d="M 0,-46 C 0,45 116,136 217,136 280,136 326,101 326,46 326,-41 216,-136 106,-136 39,-136 0,-97 0,-46 Z"
       fill="currentColor"
       id="path193" />
  </g>
  <g
     transform="translate(45.752405,22.668853)"
     id="g195">
    <rect
       x="-0.064999998"
       y="-1.3138"
       width="0.13"
       height="3.1273"
       ry="0.039999999"
       fill="currentColor"
       id="rect194" />
  </g>
  <g
     transform="translate(8.405405,24.858853)"
     id="g196">
    <polygon
       stroke-linejoin="round"
       stroke-linecap="round"
       stroke-width="0.08"
       fill="currentColor"
       stroke="currentColor"
       points="0.04,0.2 0.04,-0.2 3.7096,0.42 3.7096,0.82 "
       id="polygon195" />
  </g>
  <g
     transform="translate(49.127005,21.668853)"
     id="g197">
    <path
       transform="scale(0.004,-0.004)"
       d="M 0,-46 C 0,45 116,136 217,136 280,136 326,101 326,46 326,-41 216,-136 106,-136 39,-136 0,-97 0,-46 Z"
       fill="currentColor"
       id="path196" />
  </g>
  <g
     transform="translate(49.192005,22.668853)"
     id="g198">
    <rect
       x="-0.064999998"
       y="-0.81379998"
       width="0.13"
       height="2.8103001"
       ry="0.039999999"
       fill="currentColor"
       id="rect197" />
  </g>
  <g
     transform="translate(47.977005,21.668853)"
     id="g199">
    <path
       transform="scale(0.004,-0.004)"
       d="m 27,41 -1,-66 v -11 c 0,-22 1,-44 4,-66 45,38 93,80 93,139 0,33 -14,67 -43,67 C 49,104 28,74 27,41 Z m -42,-179 -12,595 c 8,5 18,8 27,8 9,0 19,-3 27,-8 L 20,112 c 25,21 58,34 91,34 52,0 89,-48 89,-102 0,-80 -86,-117 -147,-169 -15,-13 -24,-38 -45,-38 -13,0 -23,11 -23,25 z"
       fill="currentColor"
       id="path198" />
  </g>
  <g
     transform="translate(51.896505,17.168853)"
     id="g200">
    <text
       font-family="'NewComputerModern Math'"
       font-size="2.3308px"
       text-anchor="start"
       fill="currentColor"
       id="text199"><tspan
         id="tspan199">C</tspan></text>
  </g>
  <g
     transform="translate(53.569605,17.963453)"
     id="g201">
    <text
       font-family="'NewComputerModern Math'"
       font-size="1.648px"
       text-anchor="start"
       fill="currentColor"
       id="text200"><tspan
         id="tspan200">7</tspan></text>
  </g>
  <g
     transform="translate(51.896505,22.168853)"
     id="g202">
    <path
       transform="scale(0.004,-0.004)"
       d="M 0,-46 C 0,45 116,136 217,136 280,136 326,101 326,46 326,-41 216,-136 106,-136 39,-136 0,-97 0,-46 Z"
       fill="currentColor"
       id="path201" />
  </g>
  <g
     transform="translate(51.961505,22.668853)"
     id="g203">
    <rect
       x="-0.064999998"
       y="-0.31380001"
       width="0.13"
       height="3.1273"
       ry="0.039999999"
       fill="currentColor"
       id="rect202" />
  </g>
  <g
     transform="translate(55.336105,22.668853)"
     id="g204">
    <path
       transform="scale(0.004,-0.004)"
       d="M 0,-46 C 0,45 116,136 217,136 280,136 326,101 326,46 326,-41 216,-136 106,-136 39,-136 0,-97 0,-46 Z"
       fill="currentColor"
       id="path203" />
  </g>
  <g
     transform="translate(55.401105,22.668853)"
     id="g205">
    <rect
       x="-0.064999998"
       y="0.18619999"
       width="0.13"
       height="2.8103001"
       ry="0.039999999"
       fill="currentColor"
       id="rect204" />
  </g>
  <g
     transform="translate(54.186105,22.668853)"
     id="g206">
    <path
       transform="scale(0.004,-0.004)"
       d="m 27,41 -1,-66 v -11 c 0,-22 1,-44 4,-66 45,38 93,80 93,139 0,33 -14,67 -43,67 C 49,104 28,74 27,41 Z m -42,-179 -12,595 c 8,5 18,8 27,8 9,0 19,-3 27,-8 L 20,112 c 25,21 58,34 91,34 52,0 89,-48 89,-102 0,-80 -86,-117 -147,-169 -15,-13 -24,-38 -45,-38 -13,0 -23,11 -23,25 z"
       fill="currentColor"
       id="path205" />
  </g>
  <g
     transform="translate(59.165605,17.168853)"
     id="g207">
    <text
       font-family="'NewComputerModern Math'"
       font-size="2.3308px"
       text-anchor="start"
       fill="currentColor"
       id="text206"><tspan
         id="tspan206">F</tspan></text>
  </g>
  <g
     transform="translate(60.702005,17.963453)"
     id="g208">
    <text
       font-family="'NewComputerModern Math'"
       font-size="1.648px"
       text-anchor="start"
       fill="currentColor"
       id="text207"><tspan
         id="tspan207">△</tspan></text>
  </g>
  <g
     transform="translate(62.306805,17.963453)"
     id="g209">
    <text
       font-family="'NewComputerModern Math'"
       font-size="1.648px"
       text-anchor="start"
       fill="currentColor"
       id="text208"><tspan
         id="tspan208">7</tspan></text>
  </g>
  <g
     transform="translate(59.165605,23.168853)"
     id="g210">
    <path
       transform="scale(0.004,-0.004)"
       d="M 0,-46 C 0,45 116,136 217,136 280,136 326,101 326,46 326,-41 216,-136 106,-136 39,-136 0,-97 0,-46 Z"
       fill="currentColor"
       id="path209" />
  </g>
  <g
     transform="translate(60.404805,22.668853)"
     id="g211">
    <rect
       x="-0.064999998"
       y="-2.7948"
       width="0.13"
       height="3.1085999"
       ry="0.039999999"
       fill="currentColor"
       id="rect210" />
  </g>
  <g
     transform="translate(61.685105,24.168853)"
     id="g212">
    <path
       transform="scale(0.004,-0.004)"
       d="M 0,-46 C 0,45 116,136 217,136 280,136 326,101 326,46 326,-41 216,-136 106,-136 39,-136 0,-97 0,-46 Z"
       fill="currentColor"
       id="path211" />
  </g>
  <g
     transform="translate(62.924305,22.668853)"
     id="g213">
    <rect
       x="-0.064999998"
       y="-2.2052"
       width="0.13"
       height="3.5190001"
       ry="0.039999999"
       fill="currentColor"
       id="rect212" />
  </g>
  <g
     transform="translate(64.687205,22.168853)"
     id="g214">
    <path
       transform="scale(0.004,-0.004)"
       d="M 0,-46 C 0,45 116,136 217,136 280,136 326,101 326,46 326,-41 216,-136 106,-136 39,-136 0,-97 0,-46 Z"
       fill="currentColor"
       id="path213" />
  </g>
  <g
     transform="translate(64.752205,22.668853)"
     id="g215">
    <rect
       x="-0.064999998"
       y="-0.31380001"
       width="0.13"
       height="2.2971001"
       ry="0.039999999"
       fill="currentColor"
       id="rect214" />
  </g>
  <g
     transform="translate(67.706805,20.668853)"
     id="g216">
    <path
       transform="scale(0.004,-0.004)"
       d="M 0,-46 C 0,45 116,136 217,136 280,136 326,101 326,46 326,-41 216,-136 106,-136 39,-136 0,-97 0,-46 Z"
       fill="currentColor"
       id="path215" />
  </g>
  <g
     transform="translate(67.771805,22.668853)"
     id="g217">
    <rect
       x="-0.064999998"
       y="-1.8138"
       width="0.13"
       height="3.0204999"
       ry="0.039999999"
       fill="currentColor"
       id="rect216" />
  </g>
  <g
     transform="translate(70.243805,22.668853)"
     id="g218">
    <path
       transform="scale(0.004,-0.004)"
       d="M 0,-46 C 0,45 116,136 217,136 280,136 326,101 326,46 326,-41 216,-136 106,-136 39,-136 0,-97 0,-46 Z"
       fill="currentColor"
       id="path217" />
  </g>
  <g
     transform="translate(71.483005,22.668853)"
     id="g219">
    <rect
       x="-0.064999998"
       y="-2.9800999"
       width="0.13"
       height="2.7939"
       ry="0.039999999"
       fill="currentColor"
       id="rect218" />
  </g>
  <g
     transform="translate(72.763305,24.168853)"
     id="g220">
    <path
       transform="scale(0.004,-0.004)"
       d="M 0,-46 C 0,45 116,136 217,136 280,136 326,101 326,46 326,-41 216,-136 106,-136 39,-136 0,-97 0,-46 Z"
       fill="currentColor"
       id="path219" />
  </g>
  <g
     transform="translate(74.002505,22.668853)"
     id="g221">
    <rect
       x="-0.064999998"
       y="-2.2098999"
       width="0.13"
       height="3.5237"
       ry="0.039999999"
       fill="currentColor"
       id="rect220" />
  </g>
  <g
     transform="translate(75.978905,22.668853)"
     id="g222">
    <path
       transform="scale(0.004,-0.004)"
       d="M 0,-46 C 0,45 116,136 217,136 280,136 326,101 326,46 326,-41 216,-136 106,-136 39,-136 0,-97 0,-46 Z"
       fill="currentColor"
       id="path221" />
  </g>
  <g
     transform="translate(76.043905,22.668853)"
     id="g223">
    <rect
       x="-0.064999998"
       y="0.18619999"
       width="0.13"
       height="2.6110001"
       ry="0.039999999"
       fill="currentColor"
       id="rect222" />
  </g>
  <g
     transform="translate(74.932905,22.668853)"
     id="g224">
    <path
       transform="scale(0.004,-0.004)"
       d="m -7,375 c 8,4 17,7 25,7 8,0 16,-3 24,-7 l -2,-183 106,20 h 3 c 10,0 18,-7 18,-17 l 7,-570 c -8,-4 -17,-7 -25,-7 -8,0 -16,3 -24,7 l 2,183 -106,-20 h -3 c -10,0 -18,7 -18,17 z M 131,112 39,95 l -3,-207 92,17 z"
       fill="currentColor"
       id="path223" />
  </g>
  <g
     transform="translate(78.998505,21.668853)"
     id="g225">
    <path
       transform="scale(0.004,-0.004)"
       d="M 0,-46 C 0,45 116,136 217,136 280,136 326,101 326,46 326,-41 216,-136 106,-136 39,-136 0,-97 0,-46 Z"
       fill="currentColor"
       id="path224" />
  </g>
  <g
     transform="translate(79.063505,22.668853)"
     id="g226">
    <rect
       x="-0.064999998"
       y="-0.81379998"
       width="0.13"
       height="3.0165999"
       ry="0.039999999"
       fill="currentColor"
       id="rect225" />
  </g>
  <g
     transform="translate(82.756505,17.168853)"
     id="g227">
    <text
       font-family="'NewComputerModern Math'"
       font-size="2.3308px"
       text-anchor="start"
       fill="currentColor"
       id="text226"><tspan
         id="tspan226">F</tspan></text>
  </g>
  <g
     transform="translate(84.293005,17.963453)"
     id="g228">
    <text
       font-family="'NewComputerModern Math'"
       font-size="1.648px"
       text-anchor="start"
       fill="currentColor"
       id="text227"><tspan
         id="tspan227">△</tspan></text>
  </g>
  <g
     transform="translate(85.897705,17.963453)"
     id="g229">
    <text
       font-family="'NewComputerModern Math'"
       font-size="1.648px"
       text-anchor="start"
       fill="currentColor"
       id="text228"><tspan
         id="tspan228">7</tspan></text>
  </g>
  <g
     transform="translate(82.756505,22.168853)"
     id="g230">
    <path
       transform="scale(0.004,-0.004)"
       d="M 0,-46 C 0,45 116,136 217,136 280,136 326,101 326,46 326,-41 216,-136 106,-136 39,-136 0,-97 0,-46 Z"
       fill="currentColor"
       id="path229" />
  </g>
  <g
     transform="translate(83.995705,22.668853)"
     id="g231">
    <rect
       x="-0.064999998"
       y="-2.9860001"
       width="0.13"
       height="2.2997999"
       ry="0.039999999"
       fill="currentColor"
       id="rect230" />
  </g>
  <g
     transform="translate(86.376105,23.668853)"
     id="g232">
    <path
       transform="scale(0.004,-0.004)"
       d="M 0,-46 C 0,45 116,136 217,136 280,136 326,101 326,46 326,-41 216,-136 106,-136 39,-136 0,-97 0,-46 Z"
       fill="currentColor"
       id="path231" />
  </g>
  <g
     transform="translate(87.615305,22.668853)"
     id="g233">
    <rect
       x="-0.064999998"
       y="-2.204"
       width="0.13"
       height="3.0178001"
       ry="0.039999999"
       fill="currentColor"
       id="rect232" />
  </g>
  <g
     transform="translate(84.926105,23.668853)"
     id="g234">
    <path
       transform="scale(0.004,-0.004)"
       d="m 0,119 c 0,8 5,15 13,18 l 46,17 v 158 c 0,10 8,19 18,19 10,0 19,-9 19,-19 V 167 l 83,31 v 158 c 0,10 9,19 19,19 10,0 18,-9 18,-19 V 211 l 32,12 c 2,1 5,1 7,1 11,0 20,-9 20,-20 v -60 c 0,-8 -5,-16 -13,-19 L 216,109 V -51 l 32,11 c 2,1 5,1 7,1 11,0 20,-9 20,-20 v -60 c 0,-8 -5,-15 -13,-18 l -46,-17 v -158 c 0,-10 -8,-19 -18,-19 -10,0 -19,9 -19,19 v 145 l -83,-31 v -158 c 0,-10 -9,-19 -19,-19 -10,0 -18,9 -18,19 v 145 l -32,-12 c -2,-1 -5,-1 -7,-1 -11,0 -20,9 -20,20 v 60 c 0,8 5,16 13,19 l 46,16 V 51 L 27,40 C 25,39 22,39 20,39 9,39 0,48 0,59 Z M 179,95 96,65 V -95 l 83,30 z"
       fill="currentColor"
       id="path233" />
  </g>
  <g
     transform="translate(89.145605,23.168853)"
     id="g235">
    <path
       transform="scale(0.004,-0.004)"
       d="M 0,-46 C 0,45 116,136 217,136 280,136 326,101 326,46 326,-41 216,-136 106,-136 39,-136 0,-97 0,-46 Z"
       fill="currentColor"
       id="path234" />
  </g>
  <g
     transform="translate(90.384805,22.668853)"
     id="g236">
    <rect
       x="-0.064999998"
       y="-2.7948"
       width="0.13"
       height="3.1085999"
       ry="0.039999999"
       fill="currentColor"
       id="rect235" />
  </g>
  <g
     transform="translate(98.669605,22.668853)"
     id="g237">
    <path
       transform="scale(0.004,-0.004)"
       d="m -6,78 c 0,59 124,83 124,182 0,24 -8,49 -25,69 l -35,42 c -3,3 -4,7 -4,10 0,9 9,15 17,15 4,0 8,-1 11,-5 L 233,211 c 7,-9 10,-17 10,-25 0,-59 -124,-83 -124,-182 0,-24 7,-49 24,-69 l 84,-99 c 3,-3 4,-7 4,-10 0,-9 -8,-16 -16,-16 -8,0 -45,44 -109,44 -16,0 -53,0 -53,-67 0,-62 30,-97 30,-100 0,-4 -4,-7 -8,-7 -13,0 -98,130 -98,204 0,41 27,42 40,42 33,0 78,-13 119,-31 L 4,53 C -3,62 -6,70 -6,78 Z"
       fill="currentColor"
       id="path236" />
  </g>
  <g
     transform="translate(91.665205,24.168853)"
     id="g238">
    <path
       transform="scale(0.004,-0.004)"
       d="M 0,-46 C 0,45 116,136 217,136 280,136 326,101 326,46 326,-41 216,-136 106,-136 39,-136 0,-97 0,-46 Z"
       fill="currentColor"
       id="path237" />
  </g>
  <g
     transform="translate(92.904405,22.668853)"
     id="g239">
    <rect
       x="-0.064999998"
       y="-2.2052"
       width="0.13"
       height="3.5190001"
       ry="0.039999999"
       fill="currentColor"
       id="rect238" />
  </g>
  <g
     transform="translate(94.434705,24.168853)"
     id="g240">
    <path
       transform="scale(0.004,-0.004)"
       d="M 0,-46 C 0,45 116,136 217,136 280,136 326,101 326,46 326,-41 216,-136 106,-136 39,-136 0,-97 0,-46 Z"
       fill="currentColor"
       id="path239" />
  </g>
  <g
     transform="translate(95.673905,22.668853)"
     id="g241">
    <rect
       x="-0.064999998"
       y="-2"
       width="0.13"
       height="3.3138001"
       ry="0.039999999"
       fill="currentColor"
       id="rect240" />
  </g>
</svg>
