<?xml version="1.0" encoding="UTF-8" standalone="no"?>
<svg
   version="1.2"
   width="117.51003mm"
   height="21.780487mm"
   viewBox="0 0 66.8697 12.3943"
   id="svg70"
   sodipodi:docname="fig_100.svg"
   xmlns:inkscape="http://www.inkscape.org/namespaces/inkscape"
   xmlns:sodipodi="http://sodipodi.sourceforge.net/DTD/sodipodi-0.dtd"
   xmlns="http://www.w3.org/2000/svg"
   xmlns:svg="http://www.w3.org/2000/svg">
  <defs
     id="defs70" />
  <sodipodi:namedview
     id="namedview70"
     pagecolor="#505050"
     bordercolor="#eeeeee"
     borderopacity="1"
     inkscape:showpageshadow="0"
     inkscape:pageopacity="0"
     inkscape:pagecheckerboard="0"
     inkscape:deskcolor="#505050"
     inkscape:document-units="mm" />
  <style
     type="text/css"
     id="style1"><![CDATA[
tspan { white-space: pre; }
]]></style>
  <g
     transform="translate(66.6797,7.3663)"
     id="g1">
    <path
       id="rect1"
       style="fill:currentColor"
       d="M 0,-2 H 0.19 V 2 H 0 Z" />
  </g>
  <g
     transform="translate(66.1897,7.3663)"
     id="g2">
    <path
       id="rect2"
       style="fill:currentColor"
       d="M 0,-2 H 0.19 V 2 H 0 Z" />
  </g>
  <g
     transform="translate(0,10.3663)"
     id="g3">
    <path
       id="rect3"
       style="fill:currentColor"
       d="m 40.889101,-0.1 h 1.7563 c 0.0554,0 0.1,0.0446 0.1,0.1 0,0.0554 -0.0446,0.1 -0.1,0.1 h -1.7563 c -0.0554,0 -0.1,-0.0446 -0.1,-0.1 0,-0.0554 0.0446,-0.1 0.1,-0.1 z" />
  </g>
  <g
     transform="translate(0,10.3663)"
     id="g4">
    <path
       id="rect4"
       style="fill:currentColor"
       d="m 38.384901,-0.1 h 1.7563 c 0.0554,0 0.1,0.0446 0.1,0.1 0,0.0554 -0.0446,0.1 -0.1,0.1 h -1.7563 c -0.0554,0 -0.1,-0.0446 -0.1,-0.1 0,-0.0554 0.0446,-0.1 0.1,-0.1 z" />
  </g>
  <g
     transform="translate(0,10.3663)"
     id="g5">
    <path
       id="rect5"
       style="fill:currentColor"
       d="m 36.022901,-0.1 h 1.6141 c 0.0554,0 0.1,0.0446 0.1,0.1 0,0.0554 -0.0446,0.1 -0.1,0.1 h -1.6141 c -0.0554,0 -0.1,-0.0446 -0.1,-0.1 0,-0.0554 0.0446,-0.1 0.1,-0.1 z" />
  </g>
  <g
     transform="translate(0,9.3663)"
     id="g6">
    <path
       id="line5"
       style="stroke:currentColor;stroke-width:0.1;stroke-linecap:round;stroke-linejoin:round"
       d="M 0.05,0 H 66.819603" />
  </g>
  <g
     transform="translate(0,8.3663)"
     id="g7">
    <path
       id="line6"
       style="stroke:currentColor;stroke-width:0.1;stroke-linecap:round;stroke-linejoin:round"
       d="M 0.05,0 H 66.819603" />
  </g>
  <g
     transform="translate(0,7.3663)"
     id="g8">
    <path
       id="line7"
       style="stroke:currentColor;stroke-width:0.1;stroke-linecap:round;stroke-linejoin:round"
       d="M 0.05,0 H 66.819603" />
  </g>
  <g
     transform="translate(0,6.3663)"
     id="g9">
    <path
       id="line8"
       style="stroke:currentColor;stroke-width:0.1;stroke-linecap:round;stroke-linejoin:round"
       d="M 0.05,0 H 66.819603" />
  </g>
  <g
     transform="translate(0,5.3663)"
     id="g10">
    <path
       id="line9"
       style="stroke:currentColor;stroke-width:0.1;stroke-linecap:round;stroke-linejoin:round"
       d="M 0.05,0 H 66.819603" />
  </g>
  <g
     transform="translate(46.6103,7.3663)"
     id="g11">
    <path
       id="rect10"
       style="fill:currentColor"
       d="M 0,-2 H 0.19 V 2 H 0 Z" />
  </g>
  <g
     transform="translate(29.9364,5.3663)"
     id="g12">
    <path
       id="polygon11"
       style="fill:currentColor;stroke:currentColor;stroke-width:0.08;stroke-linecap:round;stroke-linejoin:round"
       d="m 4.4962,-0.01 v 0.4 L 0.04,0.2 v -0.4 z" />
  </g>
  <g
     transform="translate(33.3075,6.3175)"
     id="g13">
    <path
       id="polygon12"
       style="fill:currentColor;stroke:currentColor;stroke-width:0.08;stroke-linecap:round;stroke-linejoin:round"
       d="m 1.125,-0.1512 v 0.4 L 0.04,0.2 v -0.4 z" />
  </g>
  <g
     transform="translate(23.026,4.3663)"
     id="g14">
    <path
       id="polygon13"
       style="fill:currentColor;stroke:currentColor;stroke-width:0.08;stroke-linecap:round;stroke-linejoin:round"
       d="m 4.4962,-0.01 v 0.4 L 0.04,0.2 v -0.4 z" />
  </g>
  <g
     transform="translate(26.3972,5.3175)"
     id="g15">
    <path
       id="polygon14"
       style="fill:currentColor;stroke:currentColor;stroke-width:0.08;stroke-linecap:round;stroke-linejoin:round"
       d="m 1.125,-0.1512 v 0.4 L 0.04,0.2 v -0.4 z" />
  </g>
  <g
     transform="translate(9.155,2.2955)"
     id="g16">
    <path
       style="font-size:2.3308px;font-family:'NewComputerModern Math';white-space:pre"
       d="m 1.6711836,0 v -0.0722548 h -0.041954 c -0.139848,0 -0.1724792,-0.0163156 -0.198118,-0.093232 l -0.50345278,-1.45675 c -0.011654,-0.0303 -0.0163156,-0.046616 -0.0536084,-0.046616 -0.0372928,0 -0.0442852,0.013985 -0.0559392,0.046616 L 0.33563521,-0.22841841 C 0.29368081,-0.1095476 0.2004488,-0.0745856 0.0745856,-0.0722548 V 0 L 0.31232721,-0.0069924 0.58036921,0 v -0.0722548 c -0.11654,0 -0.17481,-0.05827 -0.17481,-0.1188708 0,-0.006992 0.002331,-0.0303004 0.004662,-0.034962 l 0.1072168,-0.3053348 H 1.0931452 L 1.2166776,-0.17481 c 0.00233,0.009323 0.00699,0.023308 0.00699,0.0326312 0,0.069924 -0.1305248,0.069924 -0.1934564,0.069924 V 0 C 1.1141202,-0.0069924 1.277276,-0.0069924 1.3658464,-0.0069924 Z M 1.0675064,-0.60367721 H 0.54307641 L 0.80412602,-1.3611872 Z"
       id="text15"
       aria-label="A" />
  </g>
  <g
     transform="translate(10.8963,1.236)"
     id="g17">
    <path
       style="font-size:1.648px;font-family:'NewComputerModern Math';white-space:pre"
       d="m 0.548784,-0.529008 c 0,-0.121952 -0.09064,-0.229072 -0.225776,-0.229072 -0.092288,0 -0.158208,0.037904 -0.191168,0.069216 v -0.500992 c 0,-0.031312 0,-0.046144 -0.019776,-0.046144 -0.021424,0 -0.021424,0.013184 -0.021424,0.046144 v 1.179968 c 0,0.03296 0,0.046144 0.021424,0.046144 0.01648,0 0.187872,-0.118656 0.278512,-0.215888 0.09064,-0.097232 0.158208,-0.212592 0.158208,-0.349376 z m -0.133488,0 c 0,0.260384 -0.243904,0.46968 -0.283456,0.50264 v -0.538896 c 0,-0.037904 0,-0.072512 0.054384,-0.103824 0.051088,-0.029664 0.1236,-0.029664 0.1236,-0.029664 0.075808,0 0.105472,0.088992 0.105472,0.169744 z"
       id="text16"
       aria-label="♭" />
  </g>
  <g
     transform="translate(11.5451,3.0901)"
     id="g18">
    <path
       style="font-size:1.648px;font-family:'NewComputerModern Math';white-space:pre"
       d="m 1.189856,-0.412 c 0,-0.018128 -0.014832,-0.03296 -0.03296,-0.03296 H 0.125248 c -0.018128,0 -0.03296,0.014832 -0.03296,0.03296 0,0.018128 0.014832,0.03296 0.03296,0.03296 h 1.031648 c 0.018128,0 0.03296,-0.014832 0.03296,-0.03296 z"
       id="text17"
       aria-label="−" />
  </g>
  <g
     transform="translate(12.8425,3.0901)"
     id="g19">
    <path
       style="font-size:1.648px;font-family:'NewComputerModern Math';white-space:pre"
       d="M 0.79928,-1.061312 H 0.398816 c -0.201056,0 -0.204352,-0.021424 -0.210944,-0.052736 h -0.0412 L 0.092288,-0.77456 h 0.0412 c 0.004944,-0.026368 0.019776,-0.130192 0.0412,-0.149968 0.011536,-0.009888 0.14008,-0.009888 0.161504,-0.009888 h 0.341136 l -0.184576,0.260384 c -0.14832,0.22248 -0.202704,0.451552 -0.202704,0.619648 0,0.01648 0,0.09064 0.075808,0.09064 0.075808,0 0.075808,-0.07416 0.075808,-0.09064 v -0.084048 c 0,-0.09064 0.004944,-0.18128 0.018128,-0.270272 0.006592,-0.037904 0.029664,-0.179632 0.102176,-0.281808 l 0.22248,-0.31312 C 0.79928,-1.023408 0.79928,-1.026704 0.79928,-1.061312 Z"
       id="text18"
       aria-label="7" />
  </g>
  <g
     transform="translate(9.155,6.8663)"
     id="g20">
    <path
       transform="scale(0.004,-0.004)"
       d="M 0,-46 C 0,45 116,136 217,136 280,136 326,101 326,46 326,-41 216,-136 106,-136 39,-136 0,-97 0,-46 Z"
       fill="currentColor"
       id="path19" />
  </g>
  <g
     transform="translate(0.8,8.3663)"
     id="g21">
    <path
       transform="scale(0.004,-0.004)"
       d="m 266,-635 h -6 c -108,0 -195,88 -195,197 0,58 53,103 112,103 54,0 95,-47 95,-103 0,-52 -43,-95 -95,-95 -11,0 -21,2 -31,6 26,-39 68,-65 117,-65 h 4 z m 135,786 c 19,-89 48,-242 60,-354 76,27 112,94 112,163 0,89 -60,179 -172,191 z M 74,28 c 0,-112 98,-247 278,-247 21,0 44,2 68,6 -7,64 -29,203 -63,364 -79,-8 -124,-61 -124,-119 0,-44 25,-91 81,-123 5,-5 7,-10 7,-15 0,-11 -10,-22 -22,-22 -15,0 -126,62 -126,187 0,88 58,174 160,197 -14,58 -29,117 -46,175 C 180,310 74,188 74,28 Z m 283,1166 c 28,0 143,-206 143,-361 0,-143 -86,-255 -180,-364 21,-68 39,-138 56,-207 5,0 10,1 14,1 155,0 255,-129 255,-262 0,-113 -74,-212 -180,-245 3,-35 5,-70 5,-105 0,-19 -1,-39 -2,-58 -7,-119 -88,-225 -202,-228 l 1,43 c 93,2 153,92 159,191 1,18 2,37 2,55 0,31 -1,61 -4,92 -28,-5 -55,-8 -80,-8 -239,0 -342,217 -342,374 0,177 131,306 248,441 -29,96 -52,170 -52,346 0,189 144,295 159,295 z M 247,782 c 0,-55 12,-115 35,-190 83,100 147,202 147,326 0,40 -6,82 -21,127 -49,-24 -161,-97 -161,-263 z"
       fill="currentColor"
       id="path20" />
  </g>
  <g
     transform="translate(4.885,7.3663)"
     id="g22">
    <path
       transform="scale(0.004,-0.004)"
       d="M 433,-89 C 433,-111 383,-263 250,-263 191,-263 0,-244 0,0 0,62 18,262 250,262 366,262 426,156 426,99 426,59 396,27 359,27 c -31,0 -75,25 -75,75 0,38 27,77 72,77 4,0 9,0 14,-1 -28,37 -72,59 -120,59 C 144,237 137,164 137,51 V 0 -51 c 0,-113 7,-187 113,-187 80,0 139,70 158,151 2,7 7,10 12,10 6,0 13,-4 13,-12 z"
       fill="currentColor"
       id="path21" />
  </g>
  <g
     transform="translate(10.3942,7.3663)"
     id="g23">
    <path
       id="rect22"
       style="fill:currentColor"
       d="m -0.025,-3.9986999 h 0.05 c 0.02216,0 0.04,0.01784 0.04,0.04 v 3.2325 c 0,0.02216 -0.01784,0.04 -0.04,0.04 h -0.05 c -0.02216,0 -0.04,-0.01784 -0.04,-0.04 v -3.2325 c 0,-0.02216 0.01784,-0.04 0.04,-0.04 z" />
  </g>
  <g
     transform="translate(8.005,6.8663)"
     id="g24">
    <path
       transform="scale(0.004,-0.004)"
       d="m 27,41 -1,-66 v -11 c 0,-22 1,-44 4,-66 45,38 93,80 93,139 0,33 -14,67 -43,67 C 49,104 28,74 27,41 Z m -42,-179 -12,595 c 8,5 18,8 27,8 9,0 19,-3 27,-8 L 20,112 c 25,21 58,34 91,34 52,0 89,-48 89,-102 0,-80 -86,-117 -147,-169 -15,-13 -24,-38 -45,-38 -13,0 -23,11 -23,25 z"
       fill="currentColor"
       id="path23" />
  </g>
  <g
     transform="translate(10.3292,3.3663)"
     id="g25">
    <path
       id="polygon24"
       style="fill:currentColor;stroke:currentColor;stroke-width:0.08;stroke-linecap:round;stroke-linejoin:round"
       d="m 9.6126,-0.01 v 0.4 L 0.04,0.2 v -0.4 z" />
  </g>
  <g
     transform="translate(10.3292,4.1763)"
     id="g26">
    <path
       id="polygon25"
       style="fill:currentColor;stroke:currentColor;stroke-width:0.08;stroke-linecap:round;stroke-linejoin:round"
       d="m 9.6126,-0.01 v 0.4 L 0.04,0.2 v -0.4 z" />
  </g>
  <g
     transform="translate(12.3292,9.3663)"
     id="g27">
    <path
       transform="scale(0.004,-0.004)"
       d="M 0,-46 C 0,45 116,136 217,136 280,136 326,101 326,46 326,-41 216,-136 106,-136 39,-136 0,-97 0,-46 Z"
       fill="currentColor"
       id="path26" />
  </g>
  <g
     transform="translate(13.5684,7.3663)"
     id="g28">
    <path
       id="rect27"
       style="fill:currentColor"
       d="m -0.025,-3.9361999 h 0.05 c 0.02216,0 0.04,0.01784 0.04,0.04 v 5.67 c 0,0.02216 -0.01784,0.04 -0.04,0.04 h -0.05 c -0.02216,0 -0.04,-0.01784 -0.04,-0.04 v -5.67 c 0,-0.02216 0.01784,-0.04 0.04,-0.04 z" />
  </g>
  <g
     transform="translate(11.1792,9.3663)"
     id="g29">
    <path
       transform="scale(0.004,-0.004)"
       d="m 27,41 -1,-66 v -11 c 0,-22 1,-44 4,-66 45,38 93,80 93,139 0,33 -14,67 -43,67 C 49,104 28,74 27,41 Z m -42,-179 -12,595 c 8,5 18,8 27,8 9,0 19,-3 27,-8 L 20,112 c 25,21 58,34 91,34 52,0 89,-48 89,-102 0,-80 -86,-117 -147,-169 -15,-13 -24,-38 -45,-38 -13,0 -23,11 -23,25 z"
       fill="currentColor"
       id="path28" />
  </g>
  <g
     transform="translate(15.5034,8.3663)"
     id="g30">
    <path
       transform="scale(0.004,-0.004)"
       d="M 0,-46 C 0,45 116,136 217,136 280,136 326,101 326,46 326,-41 216,-136 106,-136 39,-136 0,-97 0,-46 Z"
       fill="currentColor"
       id="path29" />
  </g>
  <g
     transform="translate(16.7426,7.3663)"
     id="g31">
    <path
       id="rect30"
       style="fill:currentColor"
       d="m -0.025,-3.8738 h 0.05 c 0.02216,0 0.04,0.01784 0.04,0.04 v 4.6076001 c 0,0.02216 -0.01784,0.04 -0.04,0.04 h -0.05 c -0.02216,0 -0.04,-0.01784 -0.04,-0.04 V -3.8338 c 0,-0.02216 0.01784,-0.04 0.04,-0.04 z" />
  </g>
  <g
     transform="translate(14.3534,8.3663)"
     id="g32">
    <path
       transform="scale(0.004,-0.004)"
       d="m 27,41 -1,-66 v -11 c 0,-22 1,-44 4,-66 45,38 93,80 93,139 0,33 -14,67 -43,67 C 49,104 28,74 27,41 Z m -42,-179 -12,595 c 8,5 18,8 27,8 9,0 19,-3 27,-8 L 20,112 c 25,21 58,34 91,34 52,0 89,-48 89,-102 0,-80 -86,-117 -147,-169 -15,-13 -24,-38 -45,-38 -13,0 -23,11 -23,25 z"
       fill="currentColor"
       id="path31" />
  </g>
  <g
     transform="translate(18.6776,7.3663)"
     id="g33">
    <path
       transform="scale(0.004,-0.004)"
       d="M 0,-46 C 0,45 116,136 217,136 280,136 326,101 326,46 326,-41 216,-136 106,-136 39,-136 0,-97 0,-46 Z"
       fill="currentColor"
       id="path32" />
  </g>
  <g
     transform="translate(19.9168,7.3663)"
     id="g34">
    <path
       id="rect33"
       style="fill:currentColor"
       d="m -0.025,-3.8113 h 0.05 c 0.02216,0 0.04,0.01784 0.04,0.04 v 3.54509986 c 0,0.02216 -0.01784,0.04 -0.04,0.04 h -0.05 c -0.02216,0 -0.04,-0.01784 -0.04,-0.04 V -3.7713 c 0,-0.02216 0.01784,-0.04 0.04,-0.04 z" />
  </g>
  <g
     transform="translate(17.5276,7.3663)"
     id="g35">
    <path
       transform="scale(0.004,-0.004)"
       d="m 27,41 -1,-66 v -11 c 0,-22 1,-44 4,-66 45,38 93,80 93,139 0,33 -14,67 -43,67 C 49,104 28,74 27,41 Z m -42,-179 -12,595 c 8,5 18,8 27,8 9,0 19,-3 27,-8 L 20,112 c 25,21 58,34 91,34 52,0 89,-48 89,-102 0,-80 -86,-117 -147,-169 -15,-13 -24,-38 -45,-38 -13,0 -23,11 -23,25 z"
       fill="currentColor"
       id="path34" />
  </g>
  <g
     transform="translate(21.8518,7.8663)"
     id="g36">
    <path
       transform="scale(0.004,-0.004)"
       d="M 0,-46 C 0,45 116,136 217,136 280,136 326,101 326,46 326,-41 216,-136 106,-136 39,-136 0,-97 0,-46 Z"
       fill="currentColor"
       id="path35" />
  </g>
  <g
     transform="translate(23.606,7.8663)"
     id="g37">
    <path
       transform="scale(0.004,-0.004)"
       d="M 0,0 C 0,31 25,56 56,56 87,56 112,31 112,0 112,-31 87,-56 56,-56 25,-56 0,-31 0,0 Z"
       fill="currentColor"
       id="path36" />
  </g>
  <g
     transform="translate(23.091,7.3663)"
     id="g38">
    <path
       id="rect37"
       style="fill:currentColor"
       d="m -0.025,-2.9972999 h 0.05 c 0.02216,0 0.04,0.01784 0.04,0.04 v 3.2311 c 0,0.02216 -0.01784,0.04 -0.04,0.04 h -0.05 c -0.02216,0 -0.04,-0.01784 -0.04,-0.04 v -3.2311 c 0,-0.02216 0.01784,-0.04 0.04,-0.04 z" />
  </g>
  <g
     transform="translate(20.7018,7.8663)"
     id="g39">
    <path
       transform="scale(0.004,-0.004)"
       d="m 27,41 -1,-66 v -11 c 0,-22 1,-44 4,-66 45,38 93,80 93,139 0,33 -14,67 -43,67 C 49,104 28,74 27,41 Z m -42,-179 -12,595 c 8,5 18,8 27,8 9,0 19,-3 27,-8 L 20,112 c 25,21 58,34 91,34 52,0 89,-48 89,-102 0,-80 -86,-117 -147,-169 -15,-13 -24,-38 -45,-38 -13,0 -23,11 -23,25 z"
       fill="currentColor"
       id="path38" />
  </g>
  <g
     transform="translate(26.258,8.3663)"
     id="g40">
    <path
       transform="scale(0.004,-0.004)"
       d="M 0,-46 C 0,45 116,136 217,136 280,136 326,101 326,46 326,-41 216,-136 106,-136 39,-136 0,-97 0,-46 Z"
       fill="currentColor"
       id="path39" />
  </g>
  <g
     transform="translate(27.4972,7.3663)"
     id="g41">
    <path
       id="rect40"
       style="fill:currentColor"
       d="m -0.025,-2.8127 h 0.05 c 0.02216,0 0.04,0.01784 0.04,0.04 v 3.54649986 c 0,0.02216 -0.01784,0.04 -0.04,0.04 h -0.05 c -0.02216,0 -0.04,-0.01784 -0.04,-0.04 V -2.7727 c 0,-0.02216 0.01784,-0.04 0.04,-0.04 z" />
  </g>
  <g
     transform="translate(28.7622,2.2955)"
     id="g42">
    <path
       style="font-size:2.3308px;font-family:'NewComputerModern Math';white-space:pre"
       d="m 1.6478756,-0.78314882 c 0,-0.44285198 -0.314658,-0.80878758 -0.71322478,-0.80878758 H 0.081578 v 0.072255 h 0.0559392 c 0.17947161,0 0.18413321,0.025639 0.18413321,0.1095476 v 1.2283316 c 0,0.0839088 -0.004662,0.1095476 -0.18413321,0.1095476 H 0.081578 V 0 H 0.93465082 C 1.3262252,0 1.6478756,-0.34495841 1.6478756,-0.78314882 Z m -0.23308,0 c 0,0.25871881 -0.044285,0.39856681 -0.128194,0.51277601 -0.046616,0.0629316 -0.1794716,0.19811801 -0.41488238,0.19811801 h -0.2354108 c -0.10954761,0 -0.11420921,-0.0163156 -0.11420921,-0.093232 v -1.2609628 c 0,-0.076916 0.004662,-0.093232 0.11420921,-0.093232 h 0.23308 c 0.14450958,0 0.30533478,0.051278 0.42420558,0.2167644 0.1002244,0.1375172 0.1212016,0.33796598 0.1212016,0.51976838 z"
       id="text41"
       aria-label="D" />
  </g>
  <g
     transform="translate(30.5376,1.236)"
     id="g43">
    <path
       style="font-size:1.648px;font-family:'NewComputerModern Math';white-space:pre"
       d="m 0.548784,-0.529008 c 0,-0.121952 -0.09064,-0.229072 -0.225776,-0.229072 -0.092288,0 -0.158208,0.037904 -0.191168,0.069216 v -0.500992 c 0,-0.031312 0,-0.046144 -0.019776,-0.046144 -0.021424,0 -0.021424,0.013184 -0.021424,0.046144 v 1.179968 c 0,0.03296 0,0.046144 0.021424,0.046144 0.01648,0 0.187872,-0.118656 0.278512,-0.215888 0.09064,-0.097232 0.158208,-0.212592 0.158208,-0.349376 z m -0.133488,0 c 0,0.260384 -0.243904,0.46968 -0.283456,0.50264 v -0.538896 c 0,-0.037904 0,-0.072512 0.054384,-0.103824 0.051088,-0.029664 0.1236,-0.029664 0.1236,-0.029664 0.075808,0 0.105472,0.088992 0.105472,0.169744 z"
       id="text42"
       aria-label="♭" />
  </g>
  <g
     transform="translate(31.1864,3.0901)"
     id="g44">
    <path
       style="font-size:1.648px;font-family:'NewComputerModern Math';white-space:pre"
       d="M 0.79928,-1.061312 H 0.398816 c -0.201056,0 -0.204352,-0.021424 -0.210944,-0.052736 h -0.0412 L 0.092288,-0.77456 h 0.0412 c 0.004944,-0.026368 0.019776,-0.130192 0.0412,-0.149968 0.011536,-0.009888 0.14008,-0.009888 0.161504,-0.009888 h 0.341136 l -0.184576,0.260384 c -0.14832,0.22248 -0.202704,0.451552 -0.202704,0.619648 0,0.01648 0,0.09064 0.075808,0.09064 0.075808,0 0.075808,-0.07416 0.075808,-0.09064 v -0.084048 c 0,-0.09064 0.004944,-0.18128 0.018128,-0.270272 0.006592,-0.037904 0.029664,-0.179632 0.102176,-0.281808 l 0.22248,-0.31312 C 0.79928,-1.023408 0.79928,-1.026704 0.79928,-1.061312 Z"
       id="text43"
       aria-label="7" />
  </g>
  <g
     transform="translate(28.7622,8.8663)"
     id="g45">
    <path
       transform="scale(0.004,-0.004)"
       d="M 0,-46 C 0,45 116,136 217,136 280,136 326,101 326,46 326,-41 216,-136 106,-136 39,-136 0,-97 0,-46 Z"
       fill="currentColor"
       id="path44" />
  </g>
  <g
     transform="translate(30.5164,8.8663)"
     id="g46">
    <path
       transform="scale(0.004,-0.004)"
       d="M 0,0 C 0,31 25,56 56,56 87,56 112,31 112,0 112,-31 87,-56 56,-56 25,-56 0,-31 0,0 Z"
       fill="currentColor"
       id="path45" />
  </g>
  <g
     transform="translate(30.0014,7.3663)"
     id="g47">
    <path
       id="rect46"
       style="fill:currentColor"
       d="m -0.025,-1.9973 h 0.05 c 0.02216,0 0.04,0.01784 0.04,0.04 v 3.2311 c 0,0.02216 -0.01784,0.04 -0.04,0.04 h -0.05 c -0.02216,0 -0.04,-0.01784 -0.04,-0.04 v -3.2311 c 0,-0.02216 0.01784,-0.04 0.04,-0.04 z" />
  </g>
  <g
     transform="translate(33.1683,9.3663)"
     id="g48">
    <path
       transform="scale(0.004,-0.004)"
       d="M 0,-46 C 0,45 116,136 217,136 280,136 326,101 326,46 326,-41 216,-136 106,-136 39,-136 0,-97 0,-46 Z"
       fill="currentColor"
       id="path47" />
  </g>
  <g
     transform="translate(34.4075,7.3663)"
     id="g49">
    <path
       id="rect48"
       style="fill:currentColor"
       d="m -0.025,-1.8127 h 0.05 c 0.02216,0 0.04,0.01784 0.04,0.04 v 3.5464999 c 0,0.02216 -0.01784,0.04 -0.04,0.04 h -0.05 c -0.02216,0 -0.04,-0.01784 -0.04,-0.04 V -1.7727 c 0,-0.02216 0.01784,-0.04 0.04,-0.04 z" />
  </g>
  <g
     transform="translate(37.281,7.3663)"
     id="g50">
    <path
       id="polygon49"
       style="fill:currentColor;stroke:currentColor;stroke-width:0.08;stroke-linecap:round;stroke-linejoin:round"
       d="m 7.8526,-1.01 v 0.4 L 0.04,0.2 v -0.4 z" />
  </g>
  <g
     transform="translate(37.281,8.1763)"
     id="g51">
    <path
       id="polygon50"
       style="fill:currentColor;stroke:currentColor;stroke-width:0.08;stroke-linecap:round;stroke-linejoin:round"
       d="m 7.8526,-1.01 v 0.4 L 0.04,0.2 v -0.4 z" />
  </g>
  <g
     transform="translate(36.1068,10.8663)"
     id="g52">
    <path
       transform="scale(0.004,-0.004)"
       d="M 0,-46 C 0,45 116,136 217,136 280,136 326,101 326,46 326,-41 216,-136 106,-136 39,-136 0,-97 0,-46 Z"
       fill="currentColor"
       id="path51" />
  </g>
  <g
     transform="translate(37.346,7.3663)"
     id="g53">
    <path
       id="rect52"
       style="fill:currentColor"
       d="m -0.025,-0.0067 h 0.05 c 0.02216,0 0.04,0.01784 0.04,0.04 v 3.2404999 c 0,0.02216 -0.01784,0.04 -0.04,0.04 h -0.05 c -0.02216,0 -0.04,-0.01784 -0.04,-0.04 V 0.0333 c 0,-0.02216 0.01784,-0.04 0.04,-0.04 z" />
  </g>
  <g
     transform="translate(35.0725,10.8663)"
     id="g54">
    <path
       transform="scale(0.004,-0.004)"
       d="m -7,375 c 8,4 17,7 25,7 8,0 16,-3 24,-7 l -2,-183 106,20 h 3 c 10,0 18,-7 18,-17 l 7,-570 c -8,-4 -17,-7 -25,-7 -8,0 -16,3 -24,7 l 2,183 -106,-20 h -3 c -10,0 -18,7 -18,17 z M 131,112 39,95 l -3,-207 92,17 z"
       fill="currentColor"
       id="path53" />
  </g>
  <g
     transform="translate(38.611,10.3663)"
     id="g55">
    <path
       transform="scale(0.004,-0.004)"
       d="M 0,-46 C 0,45 116,136 217,136 280,136 326,101 326,46 326,-41 216,-136 106,-136 39,-136 0,-97 0,-46 Z"
       fill="currentColor"
       id="path54" />
  </g>
  <g
     transform="translate(39.8502,7.3663)"
     id="g56">
    <path
       id="rect55"
       style="fill:currentColor"
       d="m -0.025,-0.26370001 h 0.05 c 0.02216,0 0.04,0.01784 0.04,0.04 V 2.7738001 c 0,0.02216 -0.01784,0.04 -0.04,0.04 h -0.05 c -0.02216,0 -0.04,-0.01784 -0.04,-0.04 v -2.99750011 c 0,-0.02216 0.01784,-0.04 0.04,-0.04 z" />
  </g>
  <g
     transform="translate(41.1152,10.8663)"
     id="g57">
    <path
       transform="scale(0.004,-0.004)"
       d="M 0,-46 C 0,45 116,136 217,136 280,136 326,101 326,46 326,-41 216,-136 106,-136 39,-136 0,-97 0,-46 Z"
       fill="currentColor"
       id="path56" />
  </g>
  <g
     transform="translate(42.3544,7.3663)"
     id="g58">
    <path
       id="rect57"
       style="fill:currentColor"
       d="m -0.025,-0.52069998 h 0.05 c 0.02216,0 0.04,0.01784 0.04,0.04 V 3.2738001 c 0,0.02216 -0.01784,0.04 -0.04,0.04 h -0.05 c -0.02216,0 -0.04,-0.01784 -0.04,-0.04 v -3.75450008 c 0,-0.02216 0.01784,-0.04 0.04,-0.04 z" />
  </g>
  <g
     transform="translate(43.8694,9.3663)"
     id="g59">
    <path
       transform="scale(0.004,-0.004)"
       d="M 0,-46 C 0,45 116,136 217,136 280,136 326,101 326,46 326,-41 216,-136 106,-136 39,-136 0,-97 0,-46 Z"
       fill="currentColor"
       id="path58" />
  </g>
  <g
     transform="translate(45.1086,7.3663)"
     id="g60">
    <path
       id="rect59"
       style="fill:currentColor"
       d="m -0.025,-0.80330002 h 0.05 c 0.02216,0 0.04,0.01784 0.04,0.04 V 1.7738 c 0,0.02216 -0.01784,0.04 -0.04,0.04 h -0.05 c -0.02216,0 -0.04,-0.01784 -0.04,-0.04 v -2.53710002 c 0,-0.02216 0.01784,-0.04 0.04,-0.04 z" />
  </g>
  <g
     transform="translate(48.6703,2.2955)"
     id="g61">
    <path
       style="font-size:2.3308px;font-family:'NewComputerModern Math';white-space:pre"
       d="m 1.713138,-0.56405361 v -0.0722548 l -0.2843576,0.006992 c -0.093232,0 -0.29135,0 -0.3752588,-0.006992 v 0.0722548 h 0.074586 c 0.209772,0 0.2167644,0.0256388 0.2167644,0.1118784 v 0.1491712 c 0,0.26104961 -0.2960116,0.28202681 -0.36127398,0.28202681 -0.151502,0 -0.61300041,-0.081578 -0.61300041,-0.77615642 0,-0.69690918 0.45916761,-0.77382558 0.59901561,-0.77382558 0.24939558,0 0.46149838,0.209772 0.50811438,0.5523996 0.00466,0.0326312 0.00466,0.0396236 0.037293,0.0396236 0.037293,0 0.037293,-0.006992 0.037293,-0.0559392 v -0.5523996 c 0,-0.039624 0,-0.055939 -0.025639,-0.055939 -0.00932,0 -0.018646,0 -0.037293,0.02797 l -0.11654,0.1724792 C 1.2982556,-1.5173508 1.1723924,-1.643214 0.94164322,-1.643214 c -0.43352881,0 -0.81111842,0.3682664 -0.81111842,0.84608038 0,0.47781401 0.37292801,0.84841122 0.81578002,0.84841122 0.17014838,0 0.35661238,-0.0606008 0.43585958,-0.198118 0.0303,0.0512776 0.1235324,0.1445096 0.1491712,0.1445096 0.020977,0 0.020977,-0.0186464 0.020977,-0.0536084 v -0.40555921 c 0,-0.0909012 0.00932,-0.1025552 0.1608254,-0.1025552 z"
       id="text60"
       aria-label="G" />
  </g>
  <g
     transform="translate(50.514,1.236)"
     id="g62">
    <path
       style="font-size:1.648px;font-family:'NewComputerModern Math';white-space:pre"
       d="m 0.548784,-0.529008 c 0,-0.121952 -0.09064,-0.229072 -0.225776,-0.229072 -0.092288,0 -0.158208,0.037904 -0.191168,0.069216 v -0.500992 c 0,-0.031312 0,-0.046144 -0.019776,-0.046144 -0.021424,0 -0.021424,0.013184 -0.021424,0.046144 v 1.179968 c 0,0.03296 0,0.046144 0.021424,0.046144 0.01648,0 0.187872,-0.118656 0.278512,-0.215888 0.09064,-0.097232 0.158208,-0.212592 0.158208,-0.349376 z m -0.133488,0 c 0,0.260384 -0.243904,0.46968 -0.283456,0.50264 v -0.538896 c 0,-0.037904 0,-0.072512 0.054384,-0.103824 0.051088,-0.029664 0.1236,-0.029664 0.1236,-0.029664 0.075808,0 0.105472,0.088992 0.105472,0.169744 z"
       id="text61"
       aria-label="♭" />
  </g>
  <g
     transform="translate(48.6703,9.8663)"
     id="g63">
    <path
       transform="scale(0.004,-0.004)"
       d="M 0,-46 C 0,45 116,136 217,136 280,136 326,101 326,46 326,-41 216,-136 106,-136 39,-136 0,-97 0,-46 Z"
       fill="currentColor"
       id="path62" />
  </g>
  <g
     transform="translate(49.9095,7.3663)"
     id="g64">
    <path
       id="rect63"
       style="fill:currentColor"
       d="m -0.025,-1 h 0.05 c 0.02216,0 0.04,0.01784 0.04,0.04 v 3.2338001 c 0,0.02216 -0.01784,0.04 -0.04,0.04 h -0.05 c -0.02216,0 -0.04,-0.01784 -0.04,-0.04 V -0.96 c 0,-0.02216 0.01784,-0.04 0.04,-0.04 z" />
  </g>
  <g
     transform="translate(49.9745,6.4063)"
     id="g65">
    <path
       transform="scale(0.004,-0.004)"
       d="m 123,-854 c 0,10 42,76 42,172 0,97 -94,190 -165,257 V -550 H -16 V 0 H 0 c 0,-177 201,-293 201,-470 0,-33 -9,-65 -23,-95 18,-37 29,-75 29,-117 0,-63 -15,-125 -41,-183 -5,-8 -13,-12 -20,-12 -12,0 -23,9 -23,23 z m 28,337 c 5,15 8,31 8,47 0,96 -91,190 -159,257 0,-118 90,-206 151,-304 z"
       fill="currentColor"
       id="path64" />
  </g>
  <g
     transform="translate(47.5203,9.8663)"
     id="g66">
    <path
       transform="scale(0.004,-0.004)"
       d="m 27,41 -1,-66 v -11 c 0,-22 1,-44 4,-66 45,38 93,80 93,139 0,33 -14,67 -43,67 C 49,104 28,74 27,41 Z m -42,-179 -12,595 c 8,5 18,8 27,8 9,0 19,-3 27,-8 L 20,112 c 25,21 58,34 91,34 52,0 89,-48 89,-102 0,-80 -86,-117 -147,-169 -15,-13 -24,-38 -45,-38 -13,0 -23,11 -23,25 z"
       fill="currentColor"
       id="path65" />
  </g>
  <g
     transform="translate(51.2377,7.3663)"
     id="g67">
    <path
       transform="scale(0.004,-0.004)"
       d="m 70,205 c 79,0 46,-98 91,-98 16,0 54,48 61,63 3,6 8,9 14,9 6,0 12,-3 14,-9 L 127,-250 c -8,-7 -17,-10 -27,-10 -10,0 -20,3 -28,10 L 189,76 C 155,64 120,54 84,54 26,54 -1,95 -1,134 c 0,36 24,71 71,71 z"
       fill="currentColor"
       id="path66" />
  </g>
  <g
     transform="translate(52.6877,6.8663)"
     id="g68">
    <path
       transform="scale(0.004,-0.004)"
       d="M 0,0 C 0,31 25,56 56,56 87,56 112,31 112,0 112,-31 87,-56 56,-56 25,-56 0,-31 0,0 Z"
       fill="currentColor"
       id="path67" />
  </g>
  <g
     transform="translate(55.3397,7.3663)"
     id="g69">
    <path
       transform="scale(0.004,-0.004)"
       d="m -6,78 c 0,59 124,83 124,182 0,24 -8,49 -25,69 l -35,42 c -3,3 -4,7 -4,10 0,9 9,15 17,15 4,0 8,-1 11,-5 L 233,211 c 7,-9 10,-17 10,-25 0,-59 -124,-83 -124,-182 0,-24 7,-49 24,-69 l 84,-99 c 3,-3 4,-7 4,-10 0,-9 -8,-16 -16,-16 -8,0 -45,44 -109,44 -16,0 -53,0 -53,-67 0,-62 30,-97 30,-100 0,-4 -4,-7 -8,-7 -13,0 -98,130 -98,204 0,41 27,42 40,42 33,0 78,-13 119,-31 L 4,53 C -3,62 -6,70 -6,78 Z"
       fill="currentColor"
       id="path68" />
  </g>
  <g
     transform="translate(59.8897,7.3663)"
     id="g70">
    <path
       transform="scale(0.004,-0.004)"
       d="M 365,0 H 10 C 4,0 0,4 0,10 v 136 c 0,6 4,10 10,10 h 355 c 6,0 10,-4 10,-10 V 10 C 375,4 371,0 365,0 Z"
       fill="currentColor"
       id="path69" />
  </g>
</svg>
