<?xml version="1.0" encoding="UTF-8" standalone="no"?>
<svg
   version="1.2"
   width="161.61946mm"
   height="21.712086mm"
   viewBox="0 0 91.970401 12.355376"
   id="svg114"
   sodipodi:docname="fig_171.svg"
   xmlns:inkscape="http://www.inkscape.org/namespaces/inkscape"
   xmlns:sodipodi="http://sodipodi.sourceforge.net/DTD/sodipodi-0.dtd"
   xmlns:xlink="http://www.w3.org/1999/xlink"
   xmlns="http://www.w3.org/2000/svg"
   xmlns:svg="http://www.w3.org/2000/svg">
  <defs
     id="defs114" />
  <sodipodi:namedview
     id="namedview114"
     pagecolor="#505050"
     bordercolor="#eeeeee"
     borderopacity="1"
     inkscape:showpageshadow="0"
     inkscape:pageopacity="0"
     inkscape:pagecheckerboard="0"
     inkscape:deskcolor="#505050"
     inkscape:document-units="mm" />
  <style
     type="text/css"
     id="style1"><![CDATA[
tspan { white-space: pre; }
]]></style>
  <g
     transform="translate(91.7804,7.150376)"
     id="g1">
    <rect
       x="0"
       y="-2"
       width="0.19"
       height="4"
       ry="0.0000"
       fill="currentColor"
       id="rect1" />
  </g>
  <g
     transform="translate(91.2904,7.150376)"
     id="g2">
    <rect
       x="0"
       y="-2"
       width="0.19"
       height="4"
       ry="0.0000"
       fill="currentColor"
       id="rect2" />
  </g>
  <g
     transform="translate(0,10.150376)"
     id="g3">
    <rect
       x="56.683201"
       y="-0.1"
       width="1.9563"
       height="0.2"
       ry="0.1"
       fill="currentColor"
       id="rect3" />
  </g>
  <g
     transform="translate(0,10.150376)"
     id="g4">
    <rect
       x="53.929001"
       y="-0.1"
       width="1.9563"
       height="0.2"
       ry="0.1"
       fill="currentColor"
       id="rect4" />
  </g>
  <g
     transform="translate(0,11.150376)"
     id="g5">
    <rect
       x="53.929001"
       y="-0.1"
       width="1.9563"
       height="0.2"
       ry="0.1"
       fill="currentColor"
       id="rect5" />
  </g>
  <g
     transform="translate(0,10.150376)"
     id="g6">
    <rect
       x="50.307301"
       y="-0.1"
       width="1.8053"
       height="0.2"
       ry="0.1"
       fill="currentColor"
       id="rect6" />
  </g>
  <g
     transform="translate(0,10.150376)"
     id="g7">
    <rect
       x="46.981998"
       y="-0.1"
       width="1.9563"
       height="0.2"
       ry="0.1"
       fill="currentColor"
       id="rect7" />
  </g>
  <g
     transform="translate(0,10.150376)"
     id="g8">
    <rect
       x="23.7041"
       y="-0.1"
       width="1.9563"
       height="0.2"
       ry="0.1"
       fill="currentColor"
       id="rect8" />
  </g>
  <g
     transform="translate(0,10.150376)"
     id="g9">
    <rect
       x="21.200001"
       y="-0.1"
       width="1.9563"
       height="0.2"
       ry="0.1"
       fill="currentColor"
       id="rect9" />
  </g>
  <g
     transform="translate(0,9.150376)"
     id="g10">
    <line
       stroke-linejoin="round"
       stroke-linecap="round"
       stroke-width="0.1"
       stroke="currentColor"
       x1="0.050000001"
       y1="0"
       x2="91.920303"
       y2="0"
       id="line9" />
  </g>
  <g
     transform="translate(0,8.150376)"
     id="g11">
    <line
       stroke-linejoin="round"
       stroke-linecap="round"
       stroke-width="0.1"
       stroke="currentColor"
       x1="0.050000001"
       y1="0"
       x2="91.920303"
       y2="0"
       id="line10" />
  </g>
  <g
     transform="translate(0,7.150376)"
     id="g12">
    <line
       stroke-linejoin="round"
       stroke-linecap="round"
       stroke-width="0.1"
       stroke="currentColor"
       x1="0.050000001"
       y1="0"
       x2="91.920303"
       y2="0"
       id="line11" />
  </g>
  <g
     transform="translate(0,6.150376)"
     id="g13">
    <line
       stroke-linejoin="round"
       stroke-linecap="round"
       stroke-width="0.1"
       stroke="currentColor"
       x1="0.050000001"
       y1="0"
       x2="91.920303"
       y2="0"
       id="line12" />
  </g>
  <g
     transform="translate(0,5.150376)"
     id="g14">
    <line
       stroke-linejoin="round"
       stroke-linecap="round"
       stroke-width="0.1"
       stroke="currentColor"
       x1="0.050000001"
       y1="0"
       x2="91.920303"
       y2="0"
       id="line13" />
  </g>
  <g
     transform="translate(76.983,7.150376)"
     id="g15">
    <rect
       x="0"
       y="-2"
       width="0.19"
       height="4"
       ry="0.0000"
       fill="currentColor"
       id="rect14" />
  </g>
  <g
     transform="translate(53.1651,7.150376)"
     id="g16">
    <rect
       x="0"
       y="-2"
       width="0.19"
       height="4"
       ry="0.0000"
       fill="currentColor"
       id="rect15" />
  </g>
  <g
     transform="translate(29.5029,7.150376)"
     id="g17">
    <rect
       x="0"
       y="-2"
       width="0.19"
       height="4"
       ry="0.0000"
       fill="currentColor"
       id="rect16" />
  </g>
  <g
     transform="translate(49.3323,10.650376)"
     id="g18">
    <path
       transform="scale(0.004,-0.004)"
       d="m 27,41 -1,-66 v -11 c 0,-22 1,-44 4,-66 45,38 93,80 93,139 0,33 -14,67 -43,67 C 49,104 28,74 27,41 Z m -42,-179 -12,595 c 8,5 18,8 27,8 9,0 19,-3 27,-8 L 20,112 c 25,21 58,34 91,34 52,0 89,-48 89,-102 0,-80 -86,-117 -147,-169 -15,-13 -24,-38 -45,-38 -13,0 -23,11 -23,25 z"
       fill="currentColor"
       id="path17" />
  </g>
  <g
     transform="translate(66.7861,6.150376)"
     id="g19">
    <polygon
       stroke-linejoin="round"
       stroke-linecap="round"
       stroke-width="0.08"
       fill="currentColor"
       stroke="currentColor"
       points="0.04,0.2 0.04,-0.2 3.0285,-0.2 3.0285,0.2 "
       id="polygon18" />
  </g>
  <a
     style="color:inherit"
     xlink:href="textedit:///Users/devonnuri/Documents/typst/241230%20Linear%20Harmony/lilypond/fig_171.ly:8:4:5"
     id="a22"
     transform="translate(-8.5358,-6.690724)">
    <g
       transform="translate(17.1208,8.8411)"
       id="g20">
      <text
         font-family="'Tex Gyre Termes'"
         font-size="2.3308px"
         text-anchor="start"
         fill="currentColor"
         id="text19"><tspan
           id="tspan19">D</tspan></text>
    </g>
    <g
       transform="translate(18.7938,8.8411)"
       id="g21">
      <text
         font-family="'Tex Gyre Termes'"
         font-size="2.3308px"
         text-anchor="start"
         fill="currentColor"
         id="text20"><tspan
           id="tspan20">m</tspan></text>
    </g>
    <g
       transform="translate(20.6034,7.7817)"
       id="g22">
      <text
         font-family="'Tex Gyre Termes'"
         font-size="1.648px"
         text-anchor="start"
         fill="currentColor"
         id="text21"><tspan
           id="tspan21">7</tspan></text>
    </g>
  </a>
  <a
     style="color:inherit"
     xlink:href="textedit:///Users/devonnuri/Documents/typst/241230%20Linear%20Harmony/lilypond/fig_171.ly:11:4:5"
     id="a23"
     transform="translate(-8.5358,-6.690724)">
    <g
       transform="translate(17.1208,14.8411)"
       id="g23">
      <path
         transform="scale(0.004,-0.004)"
         d="M 0,-46 C 0,45 116,136 217,136 280,136 326,101 326,46 326,-41 216,-136 106,-136 39,-136 0,-97 0,-46 Z"
         fill="currentColor"
         id="path22" />
    </g>
  </a>
  <g
     transform="translate(0.8,8.150376)"
     id="g24">
    <path
       transform="scale(0.004,-0.004)"
       d="m 266,-635 h -6 c -108,0 -195,88 -195,197 0,58 53,103 112,103 54,0 95,-47 95,-103 0,-52 -43,-95 -95,-95 -11,0 -21,2 -31,6 26,-39 68,-65 117,-65 h 4 z m 135,786 c 19,-89 48,-242 60,-354 76,27 112,94 112,163 0,89 -60,179 -172,191 z M 74,28 c 0,-112 98,-247 278,-247 21,0 44,2 68,6 -7,64 -29,203 -63,364 -79,-8 -124,-61 -124,-119 0,-44 25,-91 81,-123 5,-5 7,-10 7,-15 0,-11 -10,-22 -22,-22 -15,0 -126,62 -126,187 0,88 58,174 160,197 -14,58 -29,117 -46,175 C 180,310 74,188 74,28 Z m 283,1166 c 28,0 143,-206 143,-361 0,-143 -86,-255 -180,-364 21,-68 39,-138 56,-207 5,0 10,1 14,1 155,0 255,-129 255,-262 0,-113 -74,-212 -180,-245 3,-35 5,-70 5,-105 0,-19 -1,-39 -2,-58 -7,-119 -88,-225 -202,-228 l 1,43 c 93,2 153,92 159,191 1,18 2,37 2,55 0,31 -1,61 -4,92 -28,-5 -55,-8 -80,-8 -239,0 -342,217 -342,374 0,177 131,306 248,441 -29,96 -52,170 -52,346 0,189 144,295 159,295 z M 247,782 c 0,-55 12,-115 35,-190 83,100 147,202 147,326 0,40 -6,82 -21,127 -49,-24 -161,-97 -161,-263 z"
       fill="currentColor"
       id="path23" />
  </g>
  <g
     transform="translate(4.885,7.150376)"
     id="g25">
    <path
       transform="scale(0.004,-0.004)"
       d="M 433,-89 C 433,-111 383,-263 250,-263 191,-263 0,-244 0,0 0,62 18,262 250,262 366,262 426,156 426,99 426,59 396,27 359,27 c -31,0 -75,25 -75,75 0,38 27,77 72,77 4,0 9,0 14,-1 -28,37 -72,59 -120,59 C 144,237 137,164 137,51 V 0 -51 c 0,-113 7,-187 113,-187 80,0 139,70 158,151 2,7 7,10 12,10 6,0 13,-4 13,-12 z"
       fill="currentColor"
       id="path24" />
  </g>
  <g
     transform="translate(9.8242,7.150376)"
     id="g26">
    <rect
       x="-0.064999998"
       y="-1.7931"
       width="0.13"
       height="2.6069"
       ry="0.039999999"
       fill="currentColor"
       id="rect25" />
  </g>
  <g
     transform="translate(61.3577,5.340376)"
     id="g27">
    <polygon
       stroke-linejoin="round"
       stroke-linecap="round"
       stroke-width="0.08"
       fill="currentColor"
       stroke="currentColor"
       points="0.04,0.2 0.04,-0.2 3.2642,-0.58 3.2642,-0.18 "
       id="polygon26" />
  </g>
  <a
     style="color:inherit"
     xlink:href="textedit:///Users/devonnuri/Documents/typst/241230%20Linear%20Harmony/lilypond/fig_171.ly:11:8:9"
     id="a28"
     transform="translate(-8.5358,-6.690724)">
    <g
       transform="translate(19.375,15.8411)"
       id="g28">
      <path
         transform="scale(0.004,-0.004)"
         d="M 0,-46 C 0,45 116,136 217,136 280,136 326,101 326,46 326,-41 216,-136 106,-136 39,-136 0,-97 0,-46 Z"
         fill="currentColor"
         id="path27" />
    </g>
  </a>
  <g
     transform="translate(12.0784,7.150376)"
     id="g29">
    <rect
       x="-0.064999998"
       y="-1.2069"
       width="0.13"
       height="3.0207"
       ry="0.039999999"
       fill="currentColor"
       id="rect28" />
  </g>
  <g
     transform="translate(55.4293,7.150376)"
     id="g30">
    <polygon
       stroke-linejoin="round"
       stroke-linecap="round"
       stroke-width="0.08"
       fill="currentColor"
       stroke="currentColor"
       points="0.04,0.2 0.04,-0.2 2.8442,-0.39 2.8442,0.01 "
       id="polygon29" />
  </g>
  <a
     style="color:inherit"
     xlink:href="textedit:///Users/devonnuri/Documents/typst/241230%20Linear%20Harmony/lilypond/fig_171.ly:11:10:11"
     id="a31"
     transform="translate(-8.5358,-6.690724)">
    <g
       transform="translate(21.8792,15.3411)"
       id="g31">
      <path
         transform="scale(0.004,-0.004)"
         d="M 0,-46 C 0,45 116,136 217,136 280,136 326,101 326,46 326,-41 216,-136 106,-136 39,-136 0,-97 0,-46 Z"
         fill="currentColor"
         id="path30" />
    </g>
  </a>
  <g
     transform="translate(14.5826,7.150376)"
     id="g32">
    <rect
       x="-0.064999998"
       y="-1.1863"
       width="0.13"
       height="2.5000999"
       ry="0.039999999"
       fill="currentColor"
       id="rect31" />
  </g>
  <g
     transform="translate(48.4823,6.960376)"
     id="g33">
    <polygon
       stroke-linejoin="round"
       stroke-linecap="round"
       stroke-width="0.08"
       fill="currentColor"
       stroke="currentColor"
       points="0.04,0.2 0.04,-0.2 3.2642,-0.01 3.2642,0.39 "
       id="polygon32" />
  </g>
  <a
     style="color:inherit"
     xlink:href="textedit:///Users/devonnuri/Documents/typst/241230%20Linear%20Harmony/lilypond/fig_171.ly:11:23:24"
     id="a34"
     transform="translate(-8.5358,-6.690724)">
    <g
       transform="translate(25.0534,15.8411)"
       id="g34">
      <path
         transform="scale(0.004,-0.004)"
         d="M 0,-46 C 0,45 116,136 217,136 280,136 326,101 326,46 326,-41 216,-136 106,-136 39,-136 0,-97 0,-46 Z"
         fill="currentColor"
         id="path33" />
    </g>
  </a>
  <g
     transform="translate(17.7568,7.150376)"
     id="g35">
    <rect
       x="-0.064999998"
       y="-1.0037"
       width="0.13"
       height="2.8175001"
       ry="0.039999999"
       fill="currentColor"
       id="rect34" />
  </g>
  <g
     transform="translate(15.3676,9.150376)"
     id="g36">
    <path
       transform="scale(0.004,-0.004)"
       d="m 27,41 -1,-66 v -11 c 0,-22 1,-44 4,-66 45,38 93,80 93,139 0,33 -14,67 -43,67 C 49,104 28,74 27,41 Z m -42,-179 -12,595 c 8,5 18,8 27,8 9,0 19,-3 27,-8 L 20,112 c 25,21 58,34 91,34 52,0 89,-48 89,-102 0,-80 -86,-117 -147,-169 -15,-13 -24,-38 -45,-38 -13,0 -23,11 -23,25 z"
       fill="currentColor"
       id="path35" />
  </g>
  <g
     transform="translate(43.0539,5.340376)"
     id="g37">
    <polygon
       stroke-linejoin="round"
       stroke-linecap="round"
       stroke-width="0.08"
       fill="currentColor"
       stroke="currentColor"
       points="0.04,0.2 0.04,-0.2 3.2642,0.42 3.2642,0.82 "
       id="polygon36" />
  </g>
  <a
     style="color:inherit"
     xlink:href="textedit:///Users/devonnuri/Documents/typst/241230%20Linear%20Harmony/lilypond/fig_171.ly:8:10:11"
     id="a39"
     transform="translate(-8.5358,-6.690724)">
    <g
       transform="translate(27.5576,8.8411)"
       id="g38">
      <text
         font-family="'Tex Gyre Termes'"
         font-size="2.3308px"
         text-anchor="start"
         fill="currentColor"
         id="text37"><tspan
           id="tspan37">G</tspan></text>
    </g>
    <g
       transform="translate(29.2306,7.7817)"
       id="g39">
      <text
         font-family="'Tex Gyre Termes'"
         font-size="1.648px"
         text-anchor="start"
         fill="currentColor"
         id="text38"><tspan
           id="tspan38">7</tspan></text>
    </g>
  </a>
  <a
     style="color:inherit"
     xlink:href="textedit:///Users/devonnuri/Documents/typst/241230%20Linear%20Harmony/lilypond/fig_171.ly:11:26:27"
     id="a40"
     transform="translate(-8.5358,-6.690724)">
    <g
       transform="translate(27.5576,16.3411)"
       id="g40">
      <path
         transform="scale(0.004,-0.004)"
         d="M 0,-46 C 0,45 116,136 217,136 280,136 326,101 326,46 326,-41 216,-136 106,-136 39,-136 0,-97 0,-46 Z"
         fill="currentColor"
         id="path39" />
    </g>
  </a>
  <g
     transform="translate(20.261,7.150376)"
     id="g41">
    <rect
       x="-0.064999998"
       y="-0.18529999"
       width="0.13"
       height="2.4991"
       ry="0.039999999"
       fill="currentColor"
       id="rect40" />
  </g>
  <g
     transform="translate(37.1955,5.340376)"
     id="g42">
    <polygon
       stroke-linejoin="round"
       stroke-linecap="round"
       stroke-width="0.08"
       fill="currentColor"
       stroke="currentColor"
       points="0.04,0.2 0.04,-0.2 3.4442,-0.2 3.4442,0.2 "
       id="polygon41" />
  </g>
  <a
     style="color:inherit"
     xlink:href="textedit:///Users/devonnuri/Documents/typst/241230%20Linear%20Harmony/lilypond/fig_171.ly:11:28:29"
     id="a43"
     transform="translate(-8.5358,-6.690724)">
    <g
       transform="translate(30.0618,16.8411)"
       id="g43">
      <path
         transform="scale(0.004,-0.004)"
         d="M 0,-46 C 0,45 116,136 217,136 280,136 326,101 326,46 326,-41 216,-136 106,-136 39,-136 0,-97 0,-46 Z"
         fill="currentColor"
         id="path42" />
    </g>
  </a>
  <g
     transform="translate(22.7652,7.150376)"
     id="g44">
    <rect
       x="-0.064999998"
       y="-0.0046999999"
       width="0.13"
       height="2.8185"
       ry="0.039999999"
       fill="currentColor"
       id="rect43" />
  </g>
  <a
     style="color:inherit"
     xlink:href="textedit:///Users/devonnuri/Documents/typst/241230%20Linear%20Harmony/lilypond/fig_171.ly:11:30:31"
     id="a45"
     transform="translate(-8.5358,-6.690724)">
    <g
       transform="translate(32.566,17.3411)"
       id="g45">
      <path
         transform="scale(0.004,-0.004)"
         d="M 0,-46 C 0,45 116,136 217,136 280,136 326,101 326,46 326,-41 216,-136 106,-136 39,-136 0,-97 0,-46 Z"
         fill="currentColor"
         id="path44" />
    </g>
  </a>
  <g
     transform="translate(25.2694,7.150376)"
     id="g46">
    <rect
       x="-0.064999998"
       y="-0.0043000001"
       width="0.13"
       height="3.3181"
       ry="0.039999999"
       fill="currentColor"
       id="rect45" />
  </g>
  <a
     style="color:inherit"
     xlink:href="textedit:///Users/devonnuri/Documents/typst/241230%20Linear%20Harmony/lilypond/fig_171.ly:12:27:28"
     id="a49"
     transform="translate(-8.5358,-6.690724)">
    <g
       transform="translate(50.4155,18.9461)"
       id="g47">
      <line
         stroke-linejoin="round"
         stroke-linecap="round"
         stroke-width="0.2"
         stroke="currentColor"
         x1="22.7822"
         y1="0"
         x2="22.7822"
         y2="-1"
         id="line46" />
    </g>
    <g
       transform="translate(50.4155,18.9461)"
       id="g48">
      <line
         stroke-linejoin="round"
         stroke-linecap="round"
         stroke-width="0.2"
         stroke="currentColor"
         x1="0"
         y1="0"
         x2="0"
         y2="-1"
         id="line47" />
    </g>
    <g
       transform="translate(50.4155,18.9461)"
       id="g49">
      <line
         stroke-linejoin="round"
         stroke-linecap="round"
         stroke-width="0.2"
         stroke="currentColor"
         x1="0"
         y1="0"
         x2="22.7822"
         y2="0"
         id="line48" />
    </g>
  </a>
  <a
     style="color:inherit"
     xlink:href="textedit:///Users/devonnuri/Documents/typst/241230%20Linear%20Harmony/lilypond/fig_171.ly:11:32:33"
     id="a50"
     transform="translate(-8.5358,-6.690724)">
    <g
       transform="translate(35.3202,16.3411)"
       id="g50">
      <path
         transform="scale(0.004,-0.004)"
         d="M 0,-46 C 0,45 116,136 217,136 280,136 326,101 326,46 326,-41 216,-136 106,-136 39,-136 0,-97 0,-46 Z"
         fill="currentColor"
         id="path49" />
    </g>
  </a>
  <g
     transform="translate(28.0236,7.150376)"
     id="g51">
    <rect
       x="-0.064999998"
       y="-0.1857"
       width="0.13"
       height="2.4995"
       ry="0.039999999"
       fill="currentColor"
       id="rect50" />
  </g>
  <g
     transform="translate(31.7671,4.960376)"
     id="g52">
    <polygon
       stroke-linejoin="round"
       stroke-linecap="round"
       stroke-width="0.08"
       fill="currentColor"
       stroke="currentColor"
       points="0.04,0.2 0.04,-0.2 3.2642,-0.82 3.2642,-0.42 "
       id="polygon51" />
  </g>
  <g
     transform="translate(25.2044,7.150376)"
     id="g53">
    <polygon
       stroke-linejoin="round"
       stroke-linecap="round"
       stroke-width="0.08"
       fill="currentColor"
       stroke="currentColor"
       points="0.04,0.2 0.04,-0.2 2.8442,-0.39 2.8442,0.01 "
       id="polygon52" />
  </g>
  <a
     style="color:inherit"
     xlink:href="textedit:///Users/devonnuri/Documents/typst/241230%20Linear%20Harmony/lilypond/fig_171.ly:8:14:15"
     id="a56"
     transform="translate(-8.5358,-6.690724)">
    <g
       transform="translate(39.1287,8.8411)"
       id="g54">
      <text
         font-family="'Tex Gyre Termes'"
         font-size="2.3308px"
         text-anchor="start"
         fill="currentColor"
         id="text53"><tspan
           id="tspan53">C</tspan></text>
    </g>
    <g
       transform="translate(40.6993,8.8411)"
       id="g55">
      <text
         font-family="'Tex Gyre Termes'"
         font-size="2.3308px"
         text-anchor="start"
         fill="currentColor"
         id="text54"><tspan
           id="tspan54">m</tspan></text>
    </g>
    <g
       transform="translate(42.5089,7.7817)"
       id="g56">
      <text
         font-family="'Tex Gyre Termes'"
         font-size="1.648px"
         text-anchor="start"
         fill="currentColor"
         id="text55"><tspan
           id="tspan55">7</tspan></text>
    </g>
  </a>
  <a
     style="color:inherit"
     xlink:href="textedit:///Users/devonnuri/Documents/typst/241230%20Linear%20Harmony/lilypond/fig_171.ly:12:4:5"
     id="a57"
     transform="translate(-8.5358,-6.690724)">
    <g
       transform="translate(39.1287,15.3411)"
       id="g57">
      <path
         transform="scale(0.004,-0.004)"
         d="M 0,-46 C 0,45 116,136 217,136 280,136 326,101 326,46 326,-41 216,-136 106,-136 39,-136 0,-97 0,-46 Z"
         fill="currentColor"
         id="path56" />
    </g>
  </a>
  <g
     transform="translate(31.8321,7.150376)"
     id="g58">
    <rect
       x="-0.064999998"
       y="-2.2021999"
       width="0.13"
       height="3.516"
       ry="0.039999999"
       fill="currentColor"
       id="rect57" />
  </g>
  <g
     transform="translate(20.196,6.960376)"
     id="g59">
    <polygon
       stroke-linejoin="round"
       stroke-linecap="round"
       stroke-width="0.08"
       fill="currentColor"
       stroke="currentColor"
       points="0.04,0.2 0.04,-0.2 2.5942,-0.01 2.5942,0.39 "
       id="polygon58" />
  </g>
  <a
     style="color:inherit"
     xlink:href="textedit:///Users/devonnuri/Documents/typst/241230%20Linear%20Harmony/lilypond/fig_171.ly:12:6:7"
     id="a60"
     transform="translate(-8.5358,-6.690724)">
    <g
       transform="translate(42.3029,14.3411)"
       id="g60">
      <path
         transform="scale(0.004,-0.004)"
         d="M 0,-46 C 0,45 116,136 217,136 280,136 326,101 326,46 326,-41 216,-136 106,-136 39,-136 0,-97 0,-46 Z"
         fill="currentColor"
         id="path59" />
    </g>
  </a>
  <g
     transform="translate(35.0063,7.150376)"
     id="g61">
    <rect
       x="-0.064999998"
       y="-2.7978001"
       width="0.13"
       height="3.1115999"
       ry="0.039999999"
       fill="currentColor"
       id="rect60" />
  </g>
  <g
     transform="translate(32.6171,7.650376)"
     id="g62">
    <path
       transform="scale(0.004,-0.004)"
       d="m 27,41 -1,-66 v -11 c 0,-22 1,-44 4,-66 45,38 93,80 93,139 0,33 -14,67 -43,67 C 49,104 28,74 27,41 Z m -42,-179 -12,595 c 8,5 18,8 27,8 9,0 19,-3 27,-8 L 20,112 c 25,21 58,34 91,34 52,0 89,-48 89,-102 0,-80 -86,-117 -147,-169 -15,-13 -24,-38 -45,-38 -13,0 -23,11 -23,25 z"
       fill="currentColor"
       id="path61" />
  </g>
  <g
     transform="translate(14.5176,5.960376)"
     id="g63">
    <polygon
       stroke-linejoin="round"
       stroke-linecap="round"
       stroke-width="0.08"
       fill="currentColor"
       stroke="currentColor"
       points="0.04,0.2 0.04,-0.2 3.2642,-0.01 3.2642,0.39 "
       id="polygon62" />
  </g>
  <a
     style="color:inherit"
     xlink:href="textedit:///Users/devonnuri/Documents/typst/241230%20Linear%20Harmony/lilypond/fig_171.ly:12:20:21"
     id="a64"
     transform="translate(-8.5358,-6.690724)">
    <g
       transform="translate(44.5571,15.3411)"
       id="g64">
      <path
         transform="scale(0.004,-0.004)"
         d="M 0,-46 C 0,45 116,136 217,136 280,136 326,101 326,46 326,-41 216,-136 106,-136 39,-136 0,-97 0,-46 Z"
         fill="currentColor"
         id="path63" />
    </g>
  </a>
  <g
     transform="translate(37.2605,7.150376)"
     id="g65">
    <rect
       x="-0.064999998"
       y="-1.8099999"
       width="0.13"
       height="3.1238"
       ry="0.039999999"
       fill="currentColor"
       id="rect64" />
  </g>
  <g
     transform="translate(9.7592,5.340376)"
     id="g66">
    <polygon
       stroke-linejoin="round"
       stroke-linecap="round"
       stroke-width="0.08"
       fill="currentColor"
       stroke="currentColor"
       points="0.04,0.2 0.04,-0.2 2.3442,0.42 2.3442,0.82 "
       id="polygon65" />
  </g>
  <a
     style="color:inherit"
     xlink:href="textedit:///Users/devonnuri/Documents/typst/241230%20Linear%20Harmony/lilypond/fig_171.ly:12:22:23"
     id="a67"
     transform="translate(-8.5358,-6.690724)">
    <g
       transform="translate(47.9113,15.3411)"
       id="g67">
      <path
         transform="scale(0.004,-0.004)"
         d="M 0,-46 C 0,45 116,136 217,136 280,136 326,101 326,46 326,-41 216,-136 106,-136 39,-136 0,-97 0,-46 Z"
         fill="currentColor"
         id="path66" />
    </g>
  </a>
  <g
     transform="translate(40.6147,7.150376)"
     id="g68">
    <rect
       x="-0.064999998"
       y="-1.8099999"
       width="0.13"
       height="3.1238"
       ry="0.039999999"
       fill="currentColor"
       id="rect67" />
  </g>
  <g
     transform="translate(37.9255,8.650376)"
     id="g69">
    <path
       transform="scale(0.004,-0.004)"
       d="m 0,119 c 0,8 5,15 13,18 l 46,17 v 158 c 0,10 8,19 18,19 10,0 19,-9 19,-19 V 167 l 83,31 v 158 c 0,10 9,19 19,19 10,0 18,-9 18,-19 V 211 l 32,12 c 2,1 5,1 7,1 11,0 20,-9 20,-20 v -60 c 0,-8 -5,-16 -13,-19 L 216,109 V -51 l 32,11 c 2,1 5,1 7,1 11,0 20,-9 20,-20 v -60 c 0,-8 -5,-15 -13,-18 l -46,-17 v -158 c 0,-10 -8,-19 -18,-19 -10,0 -19,9 -19,19 v 145 l -83,-31 v -158 c 0,-10 -9,-19 -19,-19 -10,0 -18,9 -18,19 v 145 l -32,-12 c -2,-1 -5,-1 -7,-1 -11,0 -20,9 -20,20 v 60 c 0,8 5,16 13,19 l 46,16 V 51 L 27,40 C 25,39 22,39 20,39 9,39 0,48 0,59 Z M 179,95 96,65 V -95 l 83,30 z"
       fill="currentColor"
       id="path68" />
  </g>
  <a
     style="color:inherit"
     xlink:href="textedit:///Users/devonnuri/Documents/typst/241230%20Linear%20Harmony/lilypond/fig_171.ly:12:26:27"
     id="a70"
     transform="translate(-8.5358,-6.690724)">
    <g
       transform="translate(50.4155,14.8411)"
       id="g70">
      <path
         transform="scale(0.004,-0.004)"
         d="M 0,-46 C 0,45 116,136 217,136 280,136 326,101 326,46 326,-41 216,-136 106,-136 39,-136 0,-97 0,-46 Z"
         fill="currentColor"
         id="path69" />
    </g>
  </a>
  <g
     transform="translate(43.1189,7.150376)"
     id="g71">
    <rect
       x="-0.064999998"
       y="-1.7977999"
       width="0.13"
       height="2.6115999"
       ry="0.039999999"
       fill="currentColor"
       id="rect70" />
  </g>
  <a
     style="color:inherit"
     xlink:href="textedit:///Users/devonnuri/Documents/typst/241230%20Linear%20Harmony/lilypond/fig_171.ly:11:11:12"
     id="a74"
     transform="translate(-8.5358,-6.690724)">
    <g
       transform="translate(21.8792,18.4461)"
       id="g72">
      <line
         stroke-linejoin="round"
         stroke-linecap="round"
         stroke-width="0.2"
         stroke="currentColor"
         x1="21.7279"
         y1="0"
         x2="21.7279"
         y2="-1"
         id="line71" />
    </g>
    <g
       transform="translate(21.8792,18.4461)"
       id="g73">
      <line
         stroke-linejoin="round"
         stroke-linecap="round"
         stroke-width="0.2"
         stroke="currentColor"
         x1="0"
         y1="0"
         x2="0"
         y2="-1"
         id="line72" />
    </g>
    <g
       transform="translate(21.8792,18.4461)"
       id="g74">
      <line
         stroke-linejoin="round"
         stroke-linecap="round"
         stroke-width="0.2"
         stroke="currentColor"
         x1="0"
         y1="0"
         x2="21.7279"
         y2="0"
         id="line73" />
    </g>
  </a>
  <a
     style="color:inherit"
     xlink:href="textedit:///Users/devonnuri/Documents/typst/241230%20Linear%20Harmony/lilypond/fig_171.ly:12:39:40"
     id="a75"
     transform="translate(-8.5358,-6.690724)">
    <g
       transform="translate(53.5897,15.8411)"
       id="g75">
      <path
         transform="scale(0.004,-0.004)"
         d="M 0,-46 C 0,45 116,136 217,136 280,136 326,101 326,46 326,-41 216,-136 106,-136 39,-136 0,-97 0,-46 Z"
         fill="currentColor"
         id="path74" />
    </g>
  </a>
  <g
     transform="translate(46.2931,7.150376)"
     id="g76">
    <rect
       x="-0.064999998"
       y="-1.2022001"
       width="0.13"
       height="3.016"
       ry="0.039999999"
       fill="currentColor"
       id="rect75" />
  </g>
  <g
     transform="translate(43.9039,9.150376)"
     id="g77">
    <path
       transform="scale(0.004,-0.004)"
       d="m 27,41 -1,-66 v -11 c 0,-22 1,-44 4,-66 45,38 93,80 93,139 0,33 -14,67 -43,67 C 49,104 28,74 27,41 Z m -42,-179 -12,595 c 8,5 18,8 27,8 9,0 19,-3 27,-8 L 20,112 c 25,21 58,34 91,34 52,0 89,-48 89,-102 0,-80 -86,-117 -147,-169 -15,-13 -24,-38 -45,-38 -13,0 -23,11 -23,25 z"
       fill="currentColor"
       id="path76" />
  </g>
  <a
     style="color:inherit"
     xlink:href="textedit:///Users/devonnuri/Documents/typst/241230%20Linear%20Harmony/lilypond/fig_171.ly:12:42:43"
     id="a78"
     transform="translate(-8.5358,-6.690724)">
    <g
       transform="translate(55.8439,16.8411)"
       id="g78">
      <path
         transform="scale(0.004,-0.004)"
         d="M 0,-46 C 0,45 116,136 217,136 280,136 326,101 326,46 326,-41 216,-136 106,-136 39,-136 0,-97 0,-46 Z"
         fill="currentColor"
         id="path77" />
    </g>
  </a>
  <g
     transform="translate(48.5473,7.150376)"
     id="g79">
    <rect
       x="-0.064999998"
       y="-0.18629999"
       width="0.13"
       height="3.0000999"
       ry="0.039999999"
       fill="currentColor"
       id="rect78" />
  </g>
  <a
     style="color:inherit"
     xlink:href="textedit:///Users/devonnuri/Documents/typst/241230%20Linear%20Harmony/lilypond/fig_171.ly:12:44:45"
     id="a80"
     transform="translate(-8.5358,-6.690724)">
    <g
       transform="translate(59.0181,17.3411)"
       id="g80">
      <path
         transform="scale(0.004,-0.004)"
         d="M 0,-46 C 0,45 116,136 217,136 280,136 326,101 326,46 326,-41 216,-136 106,-136 39,-136 0,-97 0,-46 Z"
         fill="currentColor"
         id="path79" />
    </g>
  </a>
  <g
     transform="translate(51.7215,7.150376)"
     id="g81">
    <rect
       x="-0.064999998"
       y="-0.0037"
       width="0.13"
       height="3.3175001"
       ry="0.039999999"
       fill="currentColor"
       id="rect80" />
  </g>
  <g
     transform="translate(72.2288,5.960376)"
     id="g82">
    <polygon
       stroke-linejoin="round"
       stroke-linecap="round"
       stroke-width="0.08"
       fill="currentColor"
       stroke="currentColor"
       points="0.04,0.2 0.04,-0.2 3.2642,-0.01 3.2642,0.39 "
       id="polygon81" />
  </g>
  <a
     style="color:inherit"
     xlink:href="textedit:///Users/devonnuri/Documents/typst/241230%20Linear%20Harmony/lilypond/fig_171.ly:8:20:21"
     id="a84"
     transform="translate(-8.5358,-6.690724)">
    <g
       transform="translate(62.7909,8.8411)"
       id="g83">
      <text
         font-family="'Tex Gyre Termes'"
         font-size="2.3308px"
         text-anchor="start"
         fill="currentColor"
         id="text82"><tspan
           id="tspan82">F</tspan></text>
    </g>
    <g
       transform="translate(64.0883,7.7817)"
       id="g84">
      <text
         font-family="'Tex Gyre Termes'"
         font-size="1.648px"
         text-anchor="start"
         fill="currentColor"
         id="text83"><tspan
           id="tspan83">7</tspan></text>
    </g>
  </a>
  <a
     style="color:inherit"
     xlink:href="textedit:///Users/devonnuri/Documents/typst/241230%20Linear%20Harmony/lilypond/fig_171.ly:13:4:5"
     id="a85"
     transform="translate(-8.5358,-6.690724)">
    <g
       transform="translate(62.7909,17.8411)"
       id="g85">
      <path
         transform="scale(0.004,-0.004)"
         d="M 0,-46 C 0,45 116,136 217,136 280,136 326,101 326,46 326,-41 216,-136 106,-136 39,-136 0,-97 0,-46 Z"
         fill="currentColor"
         id="path84" />
    </g>
  </a>
  <g
     transform="translate(55.4943,7.150376)"
     id="g86">
    <rect
       x="-0.064999998"
       y="-0.0043000001"
       width="0.13"
       height="3.8181"
       ry="0.039999999"
       fill="currentColor"
       id="rect85" />
  </g>
  <a
     style="color:inherit"
     xlink:href="textedit:///Users/devonnuri/Documents/typst/241230%20Linear%20Harmony/lilypond/fig_171.ly:13:6:7"
     id="a87"
     transform="translate(-8.5358,-6.690724)">
    <g
       transform="translate(65.5451,16.8411)"
       id="g87">
      <path
         transform="scale(0.004,-0.004)"
         d="M 0,-46 C 0,45 116,136 217,136 280,136 326,101 326,46 326,-41 216,-136 106,-136 39,-136 0,-97 0,-46 Z"
         fill="currentColor"
         id="path86" />
    </g>
  </a>
  <g
     transform="translate(58.2485,7.150376)"
     id="g88">
    <rect
       x="-0.064999998"
       y="-0.1857"
       width="0.13"
       height="2.9995"
       ry="0.039999999"
       fill="currentColor"
       id="rect87" />
  </g>
  <a
     style="color:inherit"
     xlink:href="textedit:///Users/devonnuri/Documents/typst/241230%20Linear%20Harmony/lilypond/fig_171.ly:13:8:9"
     id="a89"
     transform="translate(-8.5358,-6.690724)">
    <g
       transform="translate(68.7193,15.8411)"
       id="g89">
      <path
         transform="scale(0.004,-0.004)"
         d="M 0,-46 C 0,45 116,136 217,136 280,136 326,101 326,46 326,-41 216,-136 106,-136 39,-136 0,-97 0,-46 Z"
         fill="currentColor"
         id="path88" />
    </g>
  </a>
  <g
     transform="translate(61.4227,7.150376)"
     id="g90">
    <rect
       x="-0.064999998"
       y="-1.8175"
       width="0.13"
       height="3.6313"
       ry="0.039999999"
       fill="currentColor"
       id="rect89" />
  </g>
  <g
     transform="translate(59.0335,9.150376)"
     id="g91">
    <path
       transform="scale(0.004,-0.004)"
       d="m 27,41 -1,-66 v -11 c 0,-22 1,-44 4,-66 45,38 93,80 93,139 0,33 -14,67 -43,67 C 49,104 28,74 27,41 Z m -42,-179 -12,595 c 8,5 18,8 27,8 9,0 19,-3 27,-8 L 20,112 c 25,21 58,34 91,34 52,0 89,-48 89,-102 0,-80 -86,-117 -147,-169 -15,-13 -24,-38 -45,-38 -13,0 -23,11 -23,25 z"
       fill="currentColor"
       id="path90" />
  </g>
  <a
     style="color:inherit"
     xlink:href="textedit:///Users/devonnuri/Documents/typst/241230%20Linear%20Harmony/lilypond/fig_171.ly:13:11:12"
     id="a92"
     transform="translate(-8.5358,-6.690724)">
    <g
       transform="translate(71.8935,14.8411)"
       id="g92">
      <path
         transform="scale(0.004,-0.004)"
         d="M 0,-46 C 0,45 116,136 217,136 280,136 326,101 326,46 326,-41 216,-136 106,-136 39,-136 0,-97 0,-46 Z"
         fill="currentColor"
         id="path91" />
    </g>
  </a>
  <g
     transform="translate(64.5969,7.150376)"
     id="g93">
    <rect
       x="-0.064999998"
       y="-2.1824999"
       width="0.13"
       height="2.9963"
       ry="0.039999999"
       fill="currentColor"
       id="rect92" />
  </g>
  <g
     transform="translate(62.2077,8.150376)"
     id="g94">
    <path
       transform="scale(0.004,-0.004)"
       d="m 27,41 -1,-66 v -11 c 0,-22 1,-44 4,-66 45,38 93,80 93,139 0,33 -14,67 -43,67 C 49,104 28,74 27,41 Z m -42,-179 -12,595 c 8,5 18,8 27,8 9,0 19,-3 27,-8 L 20,112 c 25,21 58,34 91,34 52,0 89,-48 89,-102 0,-80 -86,-117 -147,-169 -15,-13 -24,-38 -45,-38 -13,0 -23,11 -23,25 z"
       fill="currentColor"
       id="path93" />
  </g>
  <a
     style="color:inherit"
     xlink:href="textedit:///Users/devonnuri/Documents/typst/241230%20Linear%20Harmony/lilypond/fig_171.ly:13:25:26"
     id="a95"
     transform="translate(-8.5358,-6.690724)">
    <g
       transform="translate(74.1477,15.8411)"
       id="g95">
      <path
         transform="scale(0.004,-0.004)"
         d="M 0,-46 C 0,45 116,136 217,136 280,136 326,101 326,46 326,-41 216,-136 106,-136 39,-136 0,-97 0,-46 Z"
         fill="currentColor"
         id="path94" />
    </g>
  </a>
  <g
     transform="translate(66.8511,7.150376)"
     id="g96">
    <rect
       x="-0.064999998"
       y="-1"
       width="0.13"
       height="2.8138001"
       ry="0.039999999"
       fill="currentColor"
       id="rect95" />
  </g>
  <a
     style="color:inherit"
     xlink:href="textedit:///Users/devonnuri/Documents/typst/241230%20Linear%20Harmony/lilypond/fig_171.ly:13:28:29"
     id="a97"
     transform="translate(-8.5358,-6.690724)">
    <g
       transform="translate(77.0862,15.8411)"
       id="g97">
      <path
         transform="scale(0.004,-0.004)"
         d="M 0,-46 C 0,45 116,136 217,136 280,136 326,101 326,46 326,-41 216,-136 106,-136 39,-136 0,-97 0,-46 Z"
         fill="currentColor"
         id="path96" />
    </g>
  </a>
  <g
     transform="translate(69.7896,7.150376)"
     id="g98">
    <rect
       x="-0.064999998"
       y="-1"
       width="0.13"
       height="2.8138001"
       ry="0.039999999"
       fill="currentColor"
       id="rect97" />
  </g>
  <g
     transform="translate(67.5161,9.150376)"
     id="g99">
    <path
       transform="scale(0.004,-0.004)"
       d="m -7,375 c 8,4 17,7 25,7 8,0 16,-3 24,-7 l -2,-183 106,20 h 3 c 10,0 18,-7 18,-17 l 7,-570 c -8,-4 -17,-7 -25,-7 -8,0 -16,3 -24,7 l 2,183 -106,-20 h -3 c -10,0 -18,7 -18,17 z M 131,112 39,95 l -3,-207 92,17 z"
       fill="currentColor"
       id="path98" />
  </g>
  <a
     style="color:inherit"
     xlink:href="textedit:///Users/devonnuri/Documents/typst/241230%20Linear%20Harmony/lilypond/fig_171.ly:13:30:31"
     id="a100"
     transform="translate(-8.5358,-6.690724)">
    <g
       transform="translate(79.5904,15.3411)"
       id="g100">
      <path
         transform="scale(0.004,-0.004)"
         d="M 0,-46 C 0,45 116,136 217,136 280,136 326,101 326,46 326,-41 216,-136 106,-136 39,-136 0,-97 0,-46 Z"
         fill="currentColor"
         id="path99" />
    </g>
  </a>
  <g
     transform="translate(72.2938,7.150376)"
     id="g101">
    <rect
       x="-0.064999998"
       y="-1.1863"
       width="0.13"
       height="2.5000999"
       ry="0.039999999"
       fill="currentColor"
       id="rect100" />
  </g>
  <a
     style="color:inherit"
     xlink:href="textedit:///Users/devonnuri/Documents/typst/241230%20Linear%20Harmony/lilypond/fig_171.ly:13:32:33"
     id="a102"
     transform="translate(-8.5358,-6.690724)">
    <g
       transform="translate(82.7646,15.8411)"
       id="g102">
      <path
         transform="scale(0.004,-0.004)"
         d="M 0,-46 C 0,45 116,136 217,136 280,136 326,101 326,46 326,-41 216,-136 106,-136 39,-136 0,-97 0,-46 Z"
         fill="currentColor"
         id="path101" />
    </g>
  </a>
  <g
     transform="translate(75.468,7.150376)"
     id="g103">
    <rect
       x="-0.064999998"
       y="-1.0037"
       width="0.13"
       height="2.8175001"
       ry="0.039999999"
       fill="currentColor"
       id="rect102" />
  </g>
  <g
     transform="translate(73.0788,9.150376)"
     id="g104">
    <path
       transform="scale(0.004,-0.004)"
       d="m 27,41 -1,-66 v -11 c 0,-22 1,-44 4,-66 45,38 93,80 93,139 0,33 -14,67 -43,67 C 49,104 28,74 27,41 Z m -42,-179 -12,595 c 8,5 18,8 27,8 9,0 19,-3 27,-8 L 20,112 c 25,21 58,34 91,34 52,0 89,-48 89,-102 0,-80 -86,-117 -147,-169 -15,-13 -24,-38 -45,-38 -13,0 -23,11 -23,25 z"
       fill="currentColor"
       id="path103" />
  </g>
  <a
     style="color:inherit"
     xlink:href="textedit:///Users/devonnuri/Documents/typst/241230%20Linear%20Harmony/lilypond/fig_171.ly:8:24:25"
     id="a108"
     transform="translate(-8.5358,-6.690724)">
    <g
       transform="translate(86.6088,8.8411)"
       id="g105">
      <text
         font-family="'Tex Gyre Termes'"
         font-size="2.3308px"
         text-anchor="start"
         fill="currentColor"
         id="text104"><tspan
           id="tspan104">B</tspan></text>
    </g>
    <g
       transform="translate(88.3965,8.558)"
       id="g106">
      <path
         transform="scale(0.0038,-0.0038)"
         d="m 29,39 -2,-64 v -11 c 0,-22 2,-43 5,-65 44,38 91,80 91,138 0,33 -13,66 -42,66 C 50,103 30,72 29,39 Z m -57,415 c 9,5 18,8 28,8 10,0 19,-3 28,-8 L 21,111 c 25,23 58,36 92,36 51,0 87,-49 87,-103 0,-79 -84,-117 -144,-169 -16,-14 -25,-41 -47,-41 -14,0 -25,13 -25,27 z"
         fill="currentColor"
         id="path105" />
    </g>
    <g
       transform="translate(89.2016,7.7817)"
       id="g107">
      <polygon
         stroke-linejoin="round"
         stroke-linecap="round"
         stroke-width="0.1"
         fill="none"
         stroke="currentColor"
         points="0,0 0.4768,-0.82 0.9535,0 "
         id="polygon106" />
    </g>
    <g
       transform="translate(90.2051,7.7817)"
       id="g108">
      <text
         font-family="'Tex Gyre Termes'"
         font-size="1.648px"
         text-anchor="start"
         fill="currentColor"
         id="text107"><tspan
           id="tspan107">7</tspan></text>
    </g>
  </a>
  <a
     style="color:inherit"
     xlink:href="textedit:///Users/devonnuri/Documents/typst/241230%20Linear%20Harmony/lilypond/fig_171.ly:13:35:36"
     id="a109"
     transform="translate(-8.5358,-6.690724)">
    <g
       transform="translate(86.6088,16.3411)"
       id="g109">
      <path
         transform="scale(0.004,-0.004)"
         d="M 0,-46 C 0,45 116,136 217,136 280,136 326,101 326,46 326,-41 216,-136 106,-136 39,-136 0,-97 0,-46 Z"
         fill="currentColor"
         id="path108" />
    </g>
  </a>
  <g
     transform="translate(79.3122,7.150376)"
     id="g110">
    <rect
       x="-0.064999998"
       y="-1"
       width="0.13"
       height="3.3138001"
       ry="0.039999999"
       fill="currentColor"
       id="rect109" />
  </g>
  <g
     transform="translate(79.3772,6.190376)"
     id="g111">
    <path
       transform="scale(0.004,-0.004)"
       d="M 0,0 V -375 H -16 V 0 Z m 123,-729 c 0,10 42,87 42,196 0,103 -94,208 -165,283 V 0 c 0,-197 207,-336 207,-533 0,-71 -15,-141 -41,-207 -5,-8 -13,-12 -20,-12 -12,0 -23,9 -23,23 z"
       fill="currentColor"
       id="path110" />
  </g>
  <a
     style="color:inherit"
     xlink:href="textedit:///Users/devonnuri/Documents/typst/241230%20Linear%20Harmony/lilypond/fig_171.ly:13:37:38"
     id="a112"
     transform="translate(-8.5358,-6.690724)">
    <g
       transform="translate(89.1762,13.8411)"
       id="g112">
      <path
         transform="scale(0.004,-0.004)"
         d="m 70,205 c 79,0 46,-98 91,-98 16,0 54,48 61,63 3,6 8,9 14,9 6,0 12,-3 14,-9 L 127,-250 c -8,-7 -17,-10 -27,-10 -10,0 -20,3 -28,10 L 189,76 C 155,64 120,54 84,54 26,54 -1,95 -1,134 c 0,36 24,71 71,71 z"
         fill="currentColor"
         id="path111" />
    </g>
  </a>
  <a
     style="color:inherit"
     xlink:href="textedit:///Users/devonnuri/Documents/typst/241230%20Linear%20Harmony/lilypond/fig_171.ly:13:39:40"
     id="a113"
     transform="translate(-8.5358,-6.690724)">
    <g
       transform="translate(91.3762,13.8411)"
       id="g113">
      <path
         transform="scale(0.004,-0.004)"
         d="m -6,78 c 0,59 124,83 124,182 0,24 -8,49 -25,69 l -35,42 c -3,3 -4,7 -4,10 0,9 9,15 17,15 4,0 8,-1 11,-5 L 233,211 c 7,-9 10,-17 10,-25 0,-59 -124,-83 -124,-182 0,-24 7,-49 24,-69 l 84,-99 c 3,-3 4,-7 4,-10 0,-9 -8,-16 -16,-16 -8,0 -45,44 -109,44 -16,0 -53,0 -53,-67 0,-62 30,-97 30,-100 0,-4 -4,-7 -8,-7 -13,0 -98,130 -98,204 0,41 27,42 40,42 33,0 78,-13 119,-31 L 4,53 C -3,62 -6,70 -6,78 Z"
         fill="currentColor"
         id="path112" />
    </g>
  </a>
  <a
     style="color:inherit"
     xlink:href="textedit:///Users/devonnuri/Documents/typst/241230%20Linear%20Harmony/lilypond/fig_171.ly:13:42:43"
     id="a114"
     transform="translate(-8.5358,-6.690724)">
    <g
       transform="translate(94.7262,13.8411)"
       id="g114">
      <path
         transform="scale(0.004,-0.004)"
         d="M 365,0 H 10 C 4,0 0,4 0,10 v 136 c 0,6 4,10 10,10 h 355 c 6,0 10,-4 10,-10 V 10 C 375,4 371,0 365,0 Z"
         fill="currentColor"
         id="path113" />
    </g>
  </a>
</svg>
