<?xml version="1.0" encoding="UTF-8" standalone="no"?>
<svg
   version="1.2"
   width="57.666286mm"
   height="24.242813mm"
   viewBox="0 0 32.815302 13.795499"
   id="svg48"
   sodipodi:docname="fig_286.svg"
   xmlns:inkscape="http://www.inkscape.org/namespaces/inkscape"
   xmlns:sodipodi="http://sodipodi.sourceforge.net/DTD/sodipodi-0.dtd"
   xmlns="http://www.w3.org/2000/svg"
   xmlns:svg="http://www.w3.org/2000/svg">
  <defs
     id="defs48" />
  <sodipodi:namedview
     id="namedview48"
     pagecolor="#505050"
     bordercolor="#eeeeee"
     borderopacity="1"
     inkscape:showpageshadow="0"
     inkscape:pageopacity="0"
     inkscape:pagecheckerboard="0"
     inkscape:deskcolor="#505050"
     inkscape:document-units="mm" />
  <style
     type="text/css"
     id="style1"><![CDATA[
tspan { white-space: pre; }
]]></style>
  <g
     transform="translate(32.6253,7.2955)"
     id="g1">
    <path
       id="rect1"
       style="fill:currentColor"
       d="M 0,-2 H 0.19 V 2 H 0 Z" />
  </g>
  <g
     transform="translate(32.1353,7.2955)"
     id="g2">
    <path
       id="rect2"
       style="fill:currentColor"
       d="M 0,-2 H 0.19 V 2 H 0 Z" />
  </g>
  <g
     transform="translate(0,10.2955)"
     id="g3">
    <path
       id="rect3"
       style="fill:currentColor"
       d="m 25.994199,-0.1 h 1.7563 c 0.0554,0 0.1,0.0446 0.1,0.1 0,0.0554 -0.0446,0.1 -0.1,0.1 h -1.7563 c -0.0554,0 -0.1,-0.0446 -0.1,-0.1 0,-0.0554 0.0446,-0.1 0.1,-0.1 z" />
  </g>
  <g
     transform="translate(0,11.2955)"
     id="g4">
    <path
       id="rect4"
       style="fill:currentColor"
       d="m 25.994199,-0.1 h 1.7563 c 0.0554,0 0.1,0.0446 0.1,0.1 0,0.0554 -0.0446,0.1 -0.1,0.1 h -1.7563 c -0.0554,0 -0.1,-0.0446 -0.1,-0.1 0,-0.0554 0.0446,-0.1 0.1,-0.1 z" />
  </g>
  <g
     transform="translate(0,10.2955)"
     id="g5">
    <path
       id="rect5"
       style="fill:currentColor"
       d="m 23.4899,-0.1 h 1.7563 c 0.0554,0 0.1,0.0446 0.1,0.1 0,0.0554 -0.0446,0.1 -0.1,0.1 h -1.7563 c -0.0554,0 -0.1,-0.0446 -0.1,-0.1 0,-0.0554 0.0446,-0.1 0.1,-0.1 z" />
  </g>
  <g
     transform="translate(0,11.2955)"
     id="g6">
    <path
       id="rect6"
       style="fill:currentColor"
       d="m 23.4899,-0.1 h 1.7563 c 0.0554,0 0.1,0.0446 0.1,0.1 0,0.0554 -0.0446,0.1 -0.1,0.1 h -1.7563 c -0.0554,0 -0.1,-0.0446 -0.1,-0.1 0,-0.0554 0.0446,-0.1 0.1,-0.1 z" />
  </g>
  <g
     transform="translate(0,12.2955)"
     id="g7">
    <path
       id="rect7"
       style="fill:currentColor"
       d="m 23.641,-0.1 h 1.6053 c 0.0554,0 0.1,0.0446 0.1,0.1 0,0.0554 -0.0446,0.1 -0.1,0.1 H 23.641 c -0.0554,0 -0.1,-0.0446 -0.1,-0.1 0,-0.0554 0.0446,-0.1 0.1,-0.1 z" />
  </g>
  <g
     transform="translate(0,10.2955)"
     id="g8">
    <path
       id="rect8"
       style="fill:currentColor"
       d="m 20.135801,-0.1 h 1.7563 c 0.0554,0 0.1,0.0446 0.1,0.1 0,0.0554 -0.0446,0.1 -0.1,0.1 h -1.7563 c -0.0554,0 -0.1,-0.0446 -0.1,-0.1 0,-0.0554 0.0446,-0.1 0.1,-0.1 z" />
  </g>
  <g
     transform="translate(0,11.2955)"
     id="g9">
    <path
       id="rect9"
       style="fill:currentColor"
       d="m 20.2868,-0.1 h 1.6052 c 0.0554,0 0.1,0.0446 0.1,0.1 0,0.0554 -0.0446,0.1 -0.1,0.1 h -1.6052 c -0.0554,0 -0.1,-0.0446 -0.1,-0.1 0,-0.0554 0.0446,-0.1 0.1,-0.1 z" />
  </g>
  <g
     transform="translate(0,10.2955)"
     id="g10">
    <path
       id="rect10"
       style="fill:currentColor"
       d="m 16.961601,-0.1 h 1.7563 c 0.0554,0 0.1,0.0446 0.1,0.1 0,0.0554 -0.0446,0.1 -0.1,0.1 h -1.7563 c -0.0554,0 -0.1,-0.0446 -0.1,-0.1 0,-0.0554 0.0446,-0.1 0.1,-0.1 z" />
  </g>
  <g
     transform="translate(0,11.2955)"
     id="g11">
    <path
       id="rect11"
       style="fill:currentColor"
       d="m 16.961601,-0.1 h 1.7563 c 0.0554,0 0.1,0.0446 0.1,0.1 0,0.0554 -0.0446,0.1 -0.1,0.1 h -1.7563 c -0.0554,0 -0.1,-0.0446 -0.1,-0.1 0,-0.0554 0.0446,-0.1 0.1,-0.1 z" />
  </g>
  <g
     transform="translate(0,12.2955)"
     id="g12">
    <path
       id="rect12"
       style="fill:currentColor"
       d="m 16.961601,-0.1 h 1.7563 c 0.0554,0 0.1,0.0446 0.1,0.1 0,0.0554 -0.0446,0.1 -0.1,0.1 h -1.7563 c -0.0554,0 -0.1,-0.0446 -0.1,-0.1 0,-0.0554 0.0446,-0.1 0.1,-0.1 z" />
  </g>
  <g
     transform="translate(0,10.2955)"
     id="g13">
    <path
       id="rect13"
       style="fill:currentColor"
       d="m 14.8584,-0.1 h 1.6053 c 0.0554,0 0.1,0.0446 0.1,0.1 0,0.0554 -0.0446,0.1 -0.1,0.1 h -1.6053 c -0.0554,0 -0.1,-0.0446 -0.1,-0.1 0,-0.0554 0.0446,-0.1 0.1,-0.1 z" />
  </g>
  <g
     transform="translate(0,9.2955)"
     id="g14">
    <path
       id="line13"
       style="stroke:currentColor;stroke-width:0.1;stroke-linecap:round;stroke-linejoin:round"
       d="M 0.05,0 H 32.765301" />
  </g>
  <g
     transform="translate(0,8.2955)"
     id="g15">
    <path
       id="line14"
       style="stroke:currentColor;stroke-width:0.1;stroke-linecap:round;stroke-linejoin:round"
       d="M 0.05,0 H 32.765301" />
  </g>
  <g
     transform="translate(0,7.2955)"
     id="g16">
    <path
       id="line15"
       style="stroke:currentColor;stroke-width:0.1;stroke-linecap:round;stroke-linejoin:round"
       d="M 0.05,0 H 32.765301" />
  </g>
  <g
     transform="translate(0,6.2955)"
     id="g17">
    <path
       id="line16"
       style="stroke:currentColor;stroke-width:0.1;stroke-linecap:round;stroke-linejoin:round"
       d="M 0.05,0 H 32.765301" />
  </g>
  <g
     transform="translate(0,5.2955)"
     id="g18">
    <path
       id="line17"
       style="stroke:currentColor;stroke-width:0.1;stroke-linecap:round;stroke-linejoin:round"
       d="M 0.05,0 H 32.765301" />
  </g>
  <g
     transform="translate(21.536,7.1055)"
     id="g19">
    <path
       id="polygon18"
       style="fill:currentColor;stroke:currentColor;stroke-width:0.08;stroke-linecap:round;stroke-linejoin:round"
       d="m 3.4442,-0.01 v 0.4 L 0.04,0.2 v -0.4 z" />
  </g>
  <g
     transform="translate(16.1076,7.1055)"
     id="g20">
    <path
       id="polygon19"
       style="fill:currentColor;stroke:currentColor;stroke-width:0.08;stroke-linecap:round;stroke-linejoin:round"
       d="m 2.3442,-0.01 v 0.4 L 0.04,0.2 v -0.4 z" />
  </g>
  <g
     transform="translate(8.585,2.2955)"
     id="g21">
    <path
       style="font-size:2.3308px;font-family:'NewComputerModern Math';white-space:pre"
       d="m 1.5196816,-0.60134641 h -0.05827 c -0.05827,0.3589432 -0.1118784,0.52909161 -0.51277598,0.52909161 h -0.3099964 c -0.10954761,0 -0.11420921,-0.0163156 -0.11420921,-0.093232 v -0.62232362 h 0.20977201 c 0.2260876,0 0.2517264,0.0745856 0.2517264,0.27270361 h 0.05827 V -1.1327688 h -0.05827 c 0,0.20044878 -0.0256388,0.27270358 -0.2517264,0.27270358 H 0.52443001 V -1.4194572 c 0,-0.076916 0.004662,-0.093232 0.11420921,-0.093232 h 0.3006732 c 0.35661238,0 0.41954398,0.128194 0.45683678,0.4521752 h 0.05827 l -0.065262,-0.52443 H 0.0769164 v 0.072255 h 0.0559392 c 0.17947161,0 0.18413321,0.025639 0.18413321,0.1095476 v 1.2213392 c 0,0.0839088 -0.004662,0.1095476 -0.18413321,0.1095476 H 0.0769164 V 0 H 1.421788 Z"
       id="text20"
       aria-label="E" />
  </g>
  <g
     transform="translate(10.1556,1.236)"
     id="g22">
    <path
       style="font-size:1.648px;font-family:'NewComputerModern Math';white-space:pre"
       d="m 0.548784,-0.529008 c 0,-0.121952 -0.09064,-0.229072 -0.225776,-0.229072 -0.092288,0 -0.158208,0.037904 -0.191168,0.069216 v -0.500992 c 0,-0.031312 0,-0.046144 -0.019776,-0.046144 -0.021424,0 -0.021424,0.013184 -0.021424,0.046144 v 1.179968 c 0,0.03296 0,0.046144 0.021424,0.046144 0.01648,0 0.187872,-0.118656 0.278512,-0.215888 0.09064,-0.097232 0.158208,-0.212592 0.158208,-0.349376 z m -0.133488,0 c 0,0.260384 -0.243904,0.46968 -0.283456,0.50264 v -0.538896 c 0,-0.037904 0,-0.072512 0.054384,-0.103824 0.051088,-0.029664 0.1236,-0.029664 0.1236,-0.029664 0.075808,0 0.105472,0.088992 0.105472,0.169744 z"
       id="text21"
       aria-label="♭" />
  </g>
  <g
     transform="translate(10.8043,3.0901)"
     id="g23">
    <path
       style="font-size:1.648px;font-family:'NewComputerModern Math';white-space:pre"
       d="M 0.79928,-1.061312 H 0.398816 c -0.201056,0 -0.204352,-0.021424 -0.210944,-0.052736 h -0.0412 L 0.092288,-0.77456 h 0.0412 c 0.004944,-0.026368 0.019776,-0.130192 0.0412,-0.149968 0.011536,-0.009888 0.14008,-0.009888 0.161504,-0.009888 h 0.341136 l -0.184576,0.260384 c -0.14832,0.22248 -0.202704,0.451552 -0.202704,0.619648 0,0.01648 0,0.09064 0.075808,0.09064 0.075808,0 0.075808,-0.07416 0.075808,-0.09064 v -0.084048 c 0,-0.09064 0.004944,-0.18128 0.018128,-0.270272 0.006592,-0.037904 0.029664,-0.179632 0.102176,-0.281808 l 0.22248,-0.31312 C 0.79928,-1.023408 0.79928,-1.026704 0.79928,-1.061312 Z"
       id="text22"
       aria-label="7" />
  </g>
  <g
     transform="translate(8.585,8.7955)"
     id="g24">
    <path
       transform="scale(0.004,-0.004)"
       d="M 0,-46 C 0,45 116,136 217,136 280,136 326,101 326,46 326,-41 216,-136 106,-136 39,-136 0,-97 0,-46 Z"
       fill="currentColor"
       id="path23" />
  </g>
  <g
     transform="translate(0.8,8.2955)"
     id="g25">
    <path
       transform="scale(0.004,-0.004)"
       d="m 266,-635 h -6 c -108,0 -195,88 -195,197 0,58 53,103 112,103 54,0 95,-47 95,-103 0,-52 -43,-95 -95,-95 -11,0 -21,2 -31,6 26,-39 68,-65 117,-65 h 4 z m 135,786 c 19,-89 48,-242 60,-354 76,27 112,94 112,163 0,89 -60,179 -172,191 z M 74,28 c 0,-112 98,-247 278,-247 21,0 44,2 68,6 -7,64 -29,203 -63,364 -79,-8 -124,-61 -124,-119 0,-44 25,-91 81,-123 5,-5 7,-10 7,-15 0,-11 -10,-22 -22,-22 -15,0 -126,62 -126,187 0,88 58,174 160,197 -14,58 -29,117 -46,175 C 180,310 74,188 74,28 Z m 283,1166 c 28,0 143,-206 143,-361 0,-143 -86,-255 -180,-364 21,-68 39,-138 56,-207 5,0 10,1 14,1 155,0 255,-129 255,-262 0,-113 -74,-212 -180,-245 3,-35 5,-70 5,-105 0,-19 -1,-39 -2,-58 -7,-119 -88,-225 -202,-228 l 1,43 c 93,2 153,92 159,191 1,18 2,37 2,55 0,31 -1,61 -4,92 -28,-5 -55,-8 -80,-8 -239,0 -342,217 -342,374 0,177 131,306 248,441 -29,96 -52,170 -52,346 0,189 144,295 159,295 z M 247,782 c 0,-55 12,-115 35,-190 83,100 147,202 147,326 0,40 -6,82 -21,127 -49,-24 -161,-97 -161,-263 z"
       fill="currentColor"
       id="path24" />
  </g>
  <g
     transform="translate(4.885,7.2955)"
     id="g26">
    <path
       transform="scale(0.004,-0.004)"
       d="M 433,-89 C 433,-111 383,-263 250,-263 191,-263 0,-244 0,0 0,62 18,262 250,262 366,262 426,156 426,99 426,59 396,27 359,27 c -31,0 -75,25 -75,75 0,38 27,77 72,77 4,0 9,0 14,-1 -28,37 -72,59 -120,59 C 144,237 137,164 137,51 V 0 -51 c 0,-113 7,-187 113,-187 80,0 139,70 158,151 2,7 7,10 12,10 6,0 13,-4 13,-12 z"
       fill="currentColor"
       id="path25" />
  </g>
  <g
     transform="translate(9.8242,7.2955)"
     id="g27">
    <path
       id="rect26"
       style="fill:currentColor"
       d="m -0.025,-1.7977999 h 0.05 c 0.02216,0 0.04,0.01784 0.04,0.04 V 1.2738 c 0,0.02216 -0.01784,0.04 -0.04,0.04 h -0.05 c -0.02216,0 -0.04,-0.01784 -0.04,-0.04 v -3.0315999 c 0,-0.02216 0.01784,-0.04 0.04,-0.04 z" />
  </g>
  <g
     transform="translate(9.7592,5.4855)"
     id="g28">
    <path
       id="polygon27"
       style="fill:currentColor;stroke:currentColor;stroke-width:0.08;stroke-linecap:round;stroke-linejoin:round"
       d="m 3.2642,0.42 v 0.4 L 0.04,0.2 v -0.4 z" />
  </g>
  <g
     transform="translate(11.7592,9.7955)"
     id="g29">
    <path
       transform="scale(0.004,-0.004)"
       d="M 0,-46 C 0,45 116,136 217,136 280,136 326,101 326,46 326,-41 216,-136 106,-136 39,-136 0,-97 0,-46 Z"
       fill="currentColor"
       id="path28" />
  </g>
  <g
     transform="translate(12.9984,7.2955)"
     id="g30">
    <path
       id="rect29"
       style="fill:currentColor"
       d="m -0.025,-1.2022001 h 0.05 c 0.02216,0 0.04,0.01784 0.04,0.04 V 2.2738 c 0,0.02216 -0.01784,0.04 -0.04,0.04 h -0.05 c -0.02216,0 -0.04,-0.01784 -0.04,-0.04 v -3.4360001 c 0,-0.02216 0.01784,-0.04 0.04,-0.04 z" />
  </g>
  <g
     transform="translate(10.6092,9.7955)"
     id="g31">
    <path
       transform="scale(0.004,-0.004)"
       d="m 27,41 -1,-66 v -11 c 0,-22 1,-44 4,-66 45,38 93,80 93,139 0,33 -14,67 -43,67 C 49,104 28,74 27,41 Z m -42,-179 -12,595 c 8,5 18,8 27,8 9,0 19,-3 27,-8 L 20,112 c 25,21 58,34 91,34 52,0 89,-48 89,-102 0,-80 -86,-117 -147,-169 -15,-13 -24,-38 -45,-38 -13,0 -23,11 -23,25 z"
       fill="currentColor"
       id="path30" />
  </g>
  <g
     transform="translate(14.9334,10.7955)"
     id="g32">
    <path
       transform="scale(0.004,-0.004)"
       d="M 0,-46 C 0,45 116,136 217,136 280,136 326,101 326,46 326,-41 216,-136 106,-136 39,-136 0,-97 0,-46 Z"
       fill="currentColor"
       id="path31" />
  </g>
  <g
     transform="translate(16.1726,7.2955)"
     id="g33">
    <path
       id="rect32"
       style="fill:currentColor"
       d="m -0.025,-0.1848 h 0.05 c 0.02216,0 0.04,0.01784 0.04,0.04 v 3.4186 c 0,0.02216 -0.01784,0.04 -0.04,0.04 h -0.05 c -0.02216,0 -0.04,-0.01784 -0.04,-0.04 v -3.4186 c 0,-0.02216 0.01784,-0.04 0.04,-0.04 z" />
  </g>
  <g
     transform="translate(13.7834,10.7955)"
     id="g34">
    <path
       transform="scale(0.004,-0.004)"
       d="m 27,41 -1,-66 v -11 c 0,-22 1,-44 4,-66 45,38 93,80 93,139 0,33 -14,67 -43,67 C 49,104 28,74 27,41 Z m -42,-179 -12,595 c 8,5 18,8 27,8 9,0 19,-3 27,-8 L 20,112 c 25,21 58,34 91,34 52,0 89,-48 89,-102 0,-80 -86,-117 -147,-169 -15,-13 -24,-38 -45,-38 -13,0 -23,11 -23,25 z"
       fill="currentColor"
       id="path33" />
  </g>
  <g
     transform="translate(17.1876,12.2955)"
     id="g35">
    <path
       transform="scale(0.004,-0.004)"
       d="M 0,-46 C 0,45 116,136 217,136 280,136 326,101 326,46 326,-41 216,-136 106,-136 39,-136 0,-97 0,-46 Z"
       fill="currentColor"
       id="path34" />
  </g>
  <g
     transform="translate(18.4268,7.2955)"
     id="g36">
    <path
       id="rect35"
       style="fill:currentColor"
       d="m -0.025,-0.0052 h 0.05 c 0.02216,0 0.04,0.01784 0.04,0.04 v 4.7389998 c 0,0.02216 -0.01784,0.04 -0.04,0.04 h -0.05 c -0.02216,0 -0.04,-0.01784 -0.04,-0.04 V 0.0348 c 0,-0.02216 0.01784,-0.04 0.04,-0.04 z" />
  </g>
  <g
     transform="translate(27.3944,6.4855)"
     id="g37">
    <path
       id="polygon36"
       style="fill:currentColor;stroke:currentColor;stroke-width:0.08;stroke-linecap:round;stroke-linejoin:round"
       d="m 3.2642,-0.58 v 0.4 L 0.04,0.2 v -0.4 z" />
  </g>
  <g
     transform="translate(20.3618,11.2955)"
     id="g38">
    <path
       transform="scale(0.004,-0.004)"
       d="M 0,-46 C 0,45 116,136 217,136 280,136 326,101 326,46 326,-41 216,-136 106,-136 39,-136 0,-97 0,-46 Z"
       fill="currentColor"
       id="path37" />
  </g>
  <g
     transform="translate(21.601,7.2955)"
     id="g39">
    <path
       id="rect38"
       style="fill:currentColor"
       d="m -0.025,-0.1865 h 0.05 c 0.02216,0 0.04,0.01784 0.04,0.04 v 3.9202999 c 0,0.02216 -0.01784,0.04 -0.04,0.04 h -0.05 c -0.02216,0 -0.04,-0.01784 -0.04,-0.04 V -0.1465 c 0,-0.02216 0.01784,-0.04 0.04,-0.04 z" />
  </g>
  <g
     transform="translate(19.2118,11.2955)"
     id="g40">
    <path
       transform="scale(0.004,-0.004)"
       d="m 27,41 -1,-66 v -11 c 0,-22 1,-44 4,-66 45,38 93,80 93,139 0,33 -14,67 -43,67 C 49,104 28,74 27,41 Z m -42,-179 -12,595 c 8,5 18,8 27,8 9,0 19,-3 27,-8 L 20,112 c 25,21 58,34 91,34 52,0 89,-48 89,-102 0,-80 -86,-117 -147,-169 -15,-13 -24,-38 -45,-38 -13,0 -23,11 -23,25 z"
       fill="currentColor"
       id="path39" />
  </g>
  <g
     transform="translate(23.716,12.2955)"
     id="g41">
    <path
       transform="scale(0.004,-0.004)"
       d="M 0,-46 C 0,45 116,136 217,136 280,136 326,101 326,46 326,-41 216,-136 106,-136 39,-136 0,-97 0,-46 Z"
       fill="currentColor"
       id="path40" />
  </g>
  <g
     transform="translate(24.9552,7.2955)"
     id="g42">
    <path
       id="rect41"
       style="fill:currentColor"
       d="m -0.025,-0.0035 h 0.05 c 0.02216,0 0.04,0.01784 0.04,0.04 v 4.7372998 c 0,0.02216 -0.01784,0.04 -0.04,0.04 h -0.05 c -0.02216,0 -0.04,-0.01784 -0.04,-0.04 V 0.0365 c 0,-0.02216 0.01784,-0.04 0.04,-0.04 z" />
  </g>
  <g
     transform="translate(22.266,12.2955)"
     id="g43">
    <path
       transform="scale(0.004,-0.004)"
       d="m 0,119 c 0,8 5,15 13,18 l 46,17 v 158 c 0,10 8,19 18,19 10,0 19,-9 19,-19 V 167 l 83,31 v 158 c 0,10 9,19 19,19 10,0 18,-9 18,-19 V 211 l 32,12 c 2,1 5,1 7,1 11,0 20,-9 20,-20 v -60 c 0,-8 -5,-16 -13,-19 L 216,109 V -51 l 32,11 c 2,1 5,1 7,1 11,0 20,-9 20,-20 v -60 c 0,-8 -5,-15 -13,-18 l -46,-17 v -158 c 0,-10 -8,-19 -18,-19 -10,0 -19,9 -19,19 v 145 l -83,-31 v -158 c 0,-10 -9,-19 -19,-19 -10,0 -18,9 -18,19 v 145 l -32,-12 c -2,-1 -5,-1 -7,-1 -11,0 -20,9 -20,20 v 60 c 0,8 5,16 13,19 l 46,16 V 51 L 27,40 C 25,39 22,39 20,39 9,39 0,48 0,59 Z M 179,95 96,65 V -95 l 83,30 z"
       fill="currentColor"
       id="path42" />
  </g>
  <g
     transform="translate(26.2202,11.7955)"
     id="g44">
    <path
       transform="scale(0.004,-0.004)"
       d="M 0,-46 C 0,45 116,136 217,136 280,136 326,101 326,46 326,-41 216,-136 106,-136 39,-136 0,-97 0,-46 Z"
       fill="currentColor"
       id="path43" />
  </g>
  <g
     transform="translate(27.4594,7.2955)"
     id="g45">
    <path
       id="rect44"
       style="fill:currentColor"
       d="m -0.025,-0.8175 h 0.05 c 0.02216,0 0.04,0.01784 0.04,0.04 v 5.0513 c 0,0.02216 -0.01784,0.04 -0.04,0.04 h -0.05 c -0.02216,0 -0.04,-0.01784 -0.04,-0.04 v -5.0513 c 0,-0.02216 0.01784,-0.04 0.04,-0.04 z" />
  </g>
  <g
     transform="translate(29.3944,9.2955)"
     id="g46">
    <path
       transform="scale(0.004,-0.004)"
       d="M 0,-46 C 0,45 116,136 217,136 280,136 326,101 326,46 326,-41 216,-136 106,-136 39,-136 0,-97 0,-46 Z"
       fill="currentColor"
       id="path45" />
  </g>
  <g
     transform="translate(30.6336,7.2955)"
     id="g47">
    <path
       id="rect46"
       style="fill:currentColor"
       d="m -0.025,-1.1825 h 0.05 c 0.02216,0 0.04,0.01784 0.04,0.04 v 2.9163 c 0,0.02216 -0.01784,0.04 -0.04,0.04 h -0.05 c -0.02216,0 -0.04,-0.01784 -0.04,-0.04 v -2.9163 c 0,-0.02216 0.01784,-0.04 0.04,-0.04 z" />
  </g>
  <g
     transform="translate(28.2444,9.2955)"
     id="g48">
    <path
       transform="scale(0.004,-0.004)"
       d="m 27,41 -1,-66 v -11 c 0,-22 1,-44 4,-66 45,38 93,80 93,139 0,33 -14,67 -43,67 C 49,104 28,74 27,41 Z m -42,-179 -12,595 c 8,5 18,8 27,8 9,0 19,-3 27,-8 L 20,112 c 25,21 58,34 91,34 52,0 89,-48 89,-102 0,-80 -86,-117 -147,-169 -15,-13 -24,-38 -45,-38 -13,0 -23,11 -23,25 z"
       fill="currentColor"
       id="path47" />
  </g>
</svg>
