<?xml version="1.0" encoding="UTF-8" standalone="no"?>
<svg
   version="1.2"
   width="103.98551mm"
   height="17.894949mm"
   viewBox="0 0 59.1735 10.183214"
   id="svg53"
   sodipodi:docname="fig_066.svg"
   xmlns:inkscape="http://www.inkscape.org/namespaces/inkscape"
   xmlns:sodipodi="http://sodipodi.sourceforge.net/DTD/sodipodi-0.dtd"
   xmlns="http://www.w3.org/2000/svg"
   xmlns:svg="http://www.w3.org/2000/svg">
  <defs
     id="defs53" />
  <sodipodi:namedview
     id="namedview53"
     pagecolor="#505050"
     bordercolor="#eeeeee"
     borderopacity="1"
     inkscape:showpageshadow="0"
     inkscape:pageopacity="0"
     inkscape:pagecheckerboard="0"
     inkscape:deskcolor="#505050"
     inkscape:document-units="mm" />
  <style
     type="text/css"
     id="style1"><![CDATA[
tspan { white-space: pre; }
]]></style>
  <g
     transform="translate(58.9835,6.643214)"
     id="g1">
    <path
       id="rect1"
       style="fill:currentColor"
       d="M 0,-2 H 0.19 V 2 H 0 Z" />
  </g>
  <g
     transform="translate(58.4935,6.643214)"
     id="g2">
    <path
       id="rect2"
       style="fill:currentColor"
       d="M 0,-2 H 0.19 V 2 H 0 Z" />
  </g>
  <g
     transform="translate(0,3.643214)"
     id="g3">
    <path
       id="rect3"
       style="fill:currentColor"
       d="m 26.507301,-0.1 h 1.7563 c 0.0554,0 0.1,0.0446 0.1,0.1 0,0.0554 -0.0446,0.1 -0.1,0.1 h -1.7563 c -0.0554,0 -0.1,-0.0446 -0.1,-0.1 0,-0.0554 0.0446,-0.1 0.1,-0.1 z" />
  </g>
  <g
     transform="translate(0,3.643214)"
     id="g4">
    <path
       id="rect4"
       style="fill:currentColor"
       d="m 19.159999,-0.1 h 1.6052 c 0.0554,0 0.1,0.0446 0.1,0.1 0,0.0554 -0.0446,0.1 -0.1,0.1 h -1.6052 c -0.0554,0 -0.1,-0.0446 -0.1,-0.1 0,-0.0554 0.0446,-0.1 0.1,-0.1 z" />
  </g>
  <g
     transform="translate(0,8.643214)"
     id="g5">
    <path
       id="line4"
       style="stroke:currentColor;stroke-width:0.1;stroke-linecap:round;stroke-linejoin:round"
       d="M 0.05,0 H 59.123402" />
  </g>
  <g
     transform="translate(0,7.643214)"
     id="g6">
    <path
       id="line5"
       style="stroke:currentColor;stroke-width:0.1;stroke-linecap:round;stroke-linejoin:round"
       d="M 0.05,0 H 59.123402" />
  </g>
  <g
     transform="translate(0,6.643214)"
     id="g7">
    <path
       id="line6"
       style="stroke:currentColor;stroke-width:0.1;stroke-linecap:round;stroke-linejoin:round"
       d="M 0.05,0 H 59.123402" />
  </g>
  <g
     transform="translate(0,5.643214)"
     id="g8">
    <path
       id="line7"
       style="stroke:currentColor;stroke-width:0.1;stroke-linecap:round;stroke-linejoin:round"
       d="M 0.05,0 H 59.123402" />
  </g>
  <g
     transform="translate(0,4.643214)"
     id="g9">
    <path
       id="line8"
       style="stroke:currentColor;stroke-width:0.1;stroke-linecap:round;stroke-linejoin:round"
       d="M 0.05,0 H 59.123402" />
  </g>
  <g
     transform="translate(45.2493,6.643214)"
     id="g10">
    <path
       id="rect9"
       style="fill:currentColor"
       d="M 0,-2 H 0.19 V 2 H 0 Z" />
  </g>
  <g
     transform="translate(21.7392,6.643214)"
     id="g11">
    <path
       id="rect10"
       style="fill:currentColor"
       d="M 0,-2 H 0.19 V 2 H 0 Z" />
  </g>
  <g
     transform="translate(39.7004,9.453214)"
     id="g12">
    <path
       id="polygon11"
       style="fill:currentColor;stroke:currentColor;stroke-width:0.08;stroke-linecap:round;stroke-linejoin:round"
       d="m 3.2642,-0.01 v 0.4 L 0.04,0.2 v -0.4 z" />
  </g>
  <g
     transform="translate(34.692,8.453214)"
     id="g13">
    <path
       id="polygon12"
       style="fill:currentColor;stroke:currentColor;stroke-width:0.08;stroke-linecap:round;stroke-linejoin:round"
       d="m 2.5942,-0.01 v 0.4 L 0.04,0.2 v -0.4 z" />
  </g>
  <g
     transform="translate(8.585,6.643214)"
     id="g14">
    <path
       transform="scale(0.004,-0.004)"
       d="M 365,0 H 10 C 4,0 0,4 0,10 v 136 c 0,6 4,10 10,10 h 355 c 6,0 10,-4 10,-10 V 10 C 375,4 371,0 365,0 Z"
       fill="currentColor"
       id="path13" />
  </g>
  <g
     transform="translate(0.8,7.643214)"
     id="g15">
    <path
       transform="scale(0.004,-0.004)"
       d="m 266,-635 h -6 c -108,0 -195,88 -195,197 0,58 53,103 112,103 54,0 95,-47 95,-103 0,-52 -43,-95 -95,-95 -11,0 -21,2 -31,6 26,-39 68,-65 117,-65 h 4 z m 135,786 c 19,-89 48,-242 60,-354 76,27 112,94 112,163 0,89 -60,179 -172,191 z M 74,28 c 0,-112 98,-247 278,-247 21,0 44,2 68,6 -7,64 -29,203 -63,364 -79,-8 -124,-61 -124,-119 0,-44 25,-91 81,-123 5,-5 7,-10 7,-15 0,-11 -10,-22 -22,-22 -15,0 -126,62 -126,187 0,88 58,174 160,197 -14,58 -29,117 -46,175 C 180,310 74,188 74,28 Z m 283,1166 c 28,0 143,-206 143,-361 0,-143 -86,-255 -180,-364 21,-68 39,-138 56,-207 5,0 10,1 14,1 155,0 255,-129 255,-262 0,-113 -74,-212 -180,-245 3,-35 5,-70 5,-105 0,-19 -1,-39 -2,-58 -7,-119 -88,-225 -202,-228 l 1,43 c 93,2 153,92 159,191 1,18 2,37 2,55 0,31 -1,61 -4,92 -28,-5 -55,-8 -80,-8 -239,0 -342,217 -342,374 0,177 131,306 248,441 -29,96 -52,170 -52,346 0,189 144,295 159,295 z M 247,782 c 0,-55 12,-115 35,-190 83,100 147,202 147,326 0,40 -6,82 -21,127 -49,-24 -161,-97 -161,-263 z"
       fill="currentColor"
       id="path14" />
  </g>
  <g
     transform="translate(4.885,6.643214)"
     id="g16">
    <path
       transform="scale(0.004,-0.004)"
       d="M 433,-89 C 433,-111 383,-263 250,-263 191,-263 0,-244 0,0 0,62 18,262 250,262 366,262 426,156 426,99 426,59 396,27 359,27 c -31,0 -75,25 -75,75 0,38 27,77 72,77 4,0 9,0 14,-1 -28,37 -72,59 -120,59 C 144,237 137,164 137,51 V 0 -51 c 0,-113 7,-187 113,-187 80,0 139,70 158,151 2,7 7,10 12,10 6,0 13,-4 13,-12 z"
       fill="currentColor"
       id="path15" />
  </g>
  <g
     transform="translate(29.2376,7.453214)"
     id="g17">
    <path
       id="polygon16"
       style="fill:currentColor;stroke:currentColor;stroke-width:0.08;stroke-linecap:round;stroke-linejoin:round"
       d="m 3.0402,-0.01 v 0.4 L 0.04,0.2 v -0.4 z" />
  </g>
  <g
     transform="translate(13.685,6.643214)"
     id="g18">
    <path
       transform="scale(0.004,-0.004)"
       d="m -6,78 c 0,59 124,83 124,182 0,24 -8,49 -25,69 l -35,42 c -3,3 -4,7 -4,10 0,9 9,15 17,15 4,0 8,-1 11,-5 L 233,211 c 7,-9 10,-17 10,-25 0,-59 -124,-83 -124,-182 0,-24 7,-49 24,-69 l 84,-99 c 3,-3 4,-7 4,-10 0,-9 -8,-16 -16,-16 -8,0 -45,44 -109,44 -16,0 -53,0 -53,-67 0,-62 30,-97 30,-100 0,-4 -4,-7 -8,-7 -13,0 -98,130 -98,204 0,41 27,42 40,42 33,0 78,-13 119,-31 L 4,53 C -3,62 -6,70 -6,78 Z"
       fill="currentColor"
       id="path17" />
  </g>
  <g
     transform="translate(23.9792,7.453214)"
     id="g19">
    <path
       id="polygon18"
       style="fill:currentColor;stroke:currentColor;stroke-width:0.08;stroke-linecap:round;stroke-linejoin:round"
       d="m 2.8442,-0.82 v 0.4 L 0.04,0.2 v -0.4 z" />
  </g>
  <g
     transform="translate(17.035,6.643214)"
     id="g20">
    <path
       transform="scale(0.004,-0.004)"
       d="m 70,205 c 79,0 46,-98 91,-98 16,0 54,48 61,63 3,6 8,9 14,9 6,0 12,-3 14,-9 L 127,-250 c -8,-7 -17,-10 -27,-10 -10,0 -20,3 -28,10 L 189,76 C 155,64 120,54 84,54 26,54 -1,95 -1,134 c 0,36 24,71 71,71 z"
       fill="currentColor"
       id="path19" />
  </g>
  <g
     transform="translate(19.235,3.143214)"
     id="g21">
    <path
       transform="scale(0.004,-0.004)"
       d="M 0,-46 C 0,45 116,136 217,136 280,136 326,101 326,46 326,-41 216,-136 106,-136 39,-136 0,-97 0,-46 Z"
       fill="currentColor"
       id="path20" />
  </g>
  <g
     transform="translate(19.3,6.643214)"
     id="g22">
    <path
       id="rect21"
       style="fill:currentColor"
       d="m -0.025,-3.3138001 h 0.05 c 0.02216,0 0.04,0.01784 0.04,0.04 V -0.04 C 0.065,-0.01784 0.04716,0 0.025,0 h -0.05 c -0.02216,0 -0.04,-0.01784 -0.04,-0.04 v -3.2338001 c 0,-0.02216 0.01784,-0.04 0.04,-0.04 z" />
  </g>
  <g
     transform="translate(19.365,6.603214)"
     id="g23">
    <path
       transform="scale(0.004,-0.004)"
       d="M 0,0 H -16 V 375 H 0 Z m 224,509 c 0,94 -40,158 -40,168 0,14 11,22 23,22 7,0 15,-3 20,-11 25,-56 40,-117 40,-179 C 267,306 0,203 0,0 v 250 c 97,59 224,148 224,259 z"
       fill="currentColor"
       id="path22" />
  </g>
  <g
     transform="translate(18.085,3.143214)"
     id="g24">
    <path
       transform="scale(0.004,-0.004)"
       d="m 27,41 -1,-66 v -11 c 0,-22 1,-44 4,-66 45,38 93,80 93,139 0,33 -14,67 -43,67 C 49,104 28,74 27,41 Z m -42,-179 -12,595 c 8,5 18,8 27,8 9,0 19,-3 27,-8 L 20,112 c 25,21 58,34 91,34 52,0 89,-48 89,-102 0,-80 -86,-117 -147,-169 -15,-13 -24,-38 -45,-38 -13,0 -23,11 -23,25 z"
       fill="currentColor"
       id="path23" />
  </g>
  <g
     transform="translate(23.9792,1.643214)"
     id="g25">
    <path
       style="font-size:2.3308px;font-family:'NewComputerModern Math';white-space:pre"
       d="m 1.713138,-0.56405361 v -0.0722548 l -0.2843576,0.006992 c -0.093232,0 -0.29135,0 -0.3752588,-0.006992 v 0.0722548 h 0.074586 c 0.209772,0 0.2167644,0.0256388 0.2167644,0.1118784 v 0.1491712 c 0,0.26104961 -0.2960116,0.28202681 -0.36127398,0.28202681 -0.151502,0 -0.61300041,-0.081578 -0.61300041,-0.77615642 0,-0.69690918 0.45916761,-0.77382558 0.59901561,-0.77382558 0.24939558,0 0.46149838,0.209772 0.50811438,0.5523996 0.00466,0.0326312 0.00466,0.0396236 0.037293,0.0396236 0.037293,0 0.037293,-0.006992 0.037293,-0.0559392 v -0.5523996 c 0,-0.039624 0,-0.055939 -0.025639,-0.055939 -0.00932,0 -0.018646,0 -0.037293,0.02797 l -0.11654,0.1724792 C 1.2982556,-1.5173508 1.1723924,-1.643214 0.94164322,-1.643214 c -0.43352881,0 -0.81111842,0.3682664 -0.81111842,0.84608038 0,0.47781401 0.37292801,0.84841122 0.81578002,0.84841122 0.17014838,0 0.35661238,-0.0606008 0.43585958,-0.198118 0.0303,0.0512776 0.1235324,0.1445096 0.1491712,0.1445096 0.020977,0 0.020977,-0.0186464 0.020977,-0.0536084 v -0.40555921 c 0,-0.0909012 0.00932,-0.1025552 0.1608254,-0.1025552 z"
       id="text24"
       aria-label="G" />
  </g>
  <g
     transform="translate(25.823,2.437814)"
     id="g26">
    <path
       style="font-size:1.648px;font-family:'NewComputerModern Math';white-space:pre"
       d="m 1.189856,-0.412 c 0,-0.018128 -0.014832,-0.03296 -0.03296,-0.03296 H 0.125248 c -0.018128,0 -0.03296,0.014832 -0.03296,0.03296 0,0.018128 0.014832,0.03296 0.03296,0.03296 h 1.031648 c 0.018128,0 0.03296,-0.014832 0.03296,-0.03296 z"
       id="text25"
       aria-label="−" />
  </g>
  <g
     transform="translate(27.1204,2.437814)"
     id="g27">
    <path
       style="font-size:1.648px;font-family:'NewComputerModern Math';white-space:pre"
       d="M 0.79928,-1.061312 H 0.398816 c -0.201056,0 -0.204352,-0.021424 -0.210944,-0.052736 h -0.0412 L 0.092288,-0.77456 h 0.0412 c 0.004944,-0.026368 0.019776,-0.130192 0.0412,-0.149968 0.011536,-0.009888 0.14008,-0.009888 0.161504,-0.009888 h 0.341136 l -0.184576,0.260384 c -0.14832,0.22248 -0.202704,0.451552 -0.202704,0.619648 0,0.01648 0,0.09064 0.075808,0.09064 0.075808,0 0.075808,-0.07416 0.075808,-0.09064 v -0.084048 c 0,-0.09064 0.004944,-0.18128 0.018128,-0.270272 0.006592,-0.037904 0.029664,-0.179632 0.102176,-0.281808 l 0.22248,-0.31312 C 0.79928,-1.023408 0.79928,-1.026704 0.79928,-1.061312 Z"
       id="text26"
       aria-label="7" />
  </g>
  <g
     transform="translate(23.9792,4.643214)"
     id="g28">
    <path
       transform="scale(0.004,-0.004)"
       d="M 0,-46 C 0,45 116,136 217,136 280,136 326,101 326,46 326,-41 216,-136 106,-136 39,-136 0,-97 0,-46 Z"
       fill="currentColor"
       id="path27" />
  </g>
  <g
     transform="translate(24.0442,6.643214)"
     id="g29">
    <path
       id="rect28"
       style="fill:currentColor"
       d="m -0.025,-1.8138 h 0.05 c 0.02216,0 0.04,0.01784 0.04,0.04 v 2.52980012 c 0,0.02216 -0.01784,0.04 -0.04,0.04 h -0.05 c -0.02216,0 -0.04,-0.01784 -0.04,-0.04 V -1.7738 c 0,-0.02216 0.01784,-0.04 0.04,-0.04 z" />
  </g>
  <g
     transform="translate(22.5292,4.643214)"
     id="g30">
    <path
       transform="scale(0.004,-0.004)"
       d="m 0,119 c 0,8 5,15 13,18 l 46,17 v 158 c 0,10 8,19 18,19 10,0 19,-9 19,-19 V 167 l 83,31 v 158 c 0,10 9,19 19,19 10,0 18,-9 18,-19 V 211 l 32,12 c 2,1 5,1 7,1 11,0 20,-9 20,-20 v -60 c 0,-8 -5,-16 -13,-19 L 216,109 V -51 l 32,11 c 2,1 5,1 7,1 11,0 20,-9 20,-20 v -60 c 0,-8 -5,-15 -13,-18 l -46,-17 v -158 c 0,-10 -8,-19 -18,-19 -10,0 -19,9 -19,19 v 145 l -83,-31 v -158 c 0,-10 -9,-19 -19,-19 -10,0 -18,9 -18,19 v 145 l -32,-12 c -2,-1 -5,-1 -7,-1 -11,0 -20,9 -20,20 v 60 c 0,8 5,16 13,19 l 46,16 V 51 L 27,40 C 25,39 22,39 20,39 9,39 0,48 0,59 Z M 179,95 96,65 V -95 l 83,30 z"
       fill="currentColor"
       id="path29" />
  </g>
  <g
     transform="translate(26.7334,3.643214)"
     id="g31">
    <path
       transform="scale(0.004,-0.004)"
       d="M 0,-46 C 0,45 116,136 217,136 280,136 326,101 326,46 326,-41 216,-136 106,-136 39,-136 0,-97 0,-46 Z"
       fill="currentColor"
       id="path30" />
  </g>
  <g
     transform="translate(26.7984,6.643214)"
     id="g32">
    <path
       id="rect31"
       style="fill:currentColor"
       d="m -0.025,-2.8138001 h 0.05 c 0.02216,0 0.04,0.01784 0.04,0.04 V 0.164 c 0,0.02216 -0.01784,0.04 -0.04,0.04 h -0.05 c -0.02216,0 -0.04,-0.01784 -0.04,-0.04 v -2.9378001 c 0,-0.02216 0.01784,-0.04 0.04,-0.04 z" />
  </g>
  <g
     transform="translate(29.2376,4.143214)"
     id="g33">
    <path
       transform="scale(0.004,-0.004)"
       d="M 0,-46 C 0,45 116,136 217,136 280,136 326,101 326,46 326,-41 216,-136 106,-136 39,-136 0,-97 0,-46 Z"
       fill="currentColor"
       id="path32" />
  </g>
  <g
     transform="translate(29.3026,6.643214)"
     id="g34">
    <path
       id="rect33"
       style="fill:currentColor"
       d="m -0.025,-2.3138001 h 0.05 c 0.02216,0 0.04,0.01784 0.04,0.04 v 3.04779999 c 0,0.02216 -0.01784,0.04 -0.04,0.04 h -0.05 c -0.02216,0 -0.04,-0.01784 -0.04,-0.04 V -2.2738001 c 0,-0.02216 0.01784,-0.04 0.04,-0.04 z" />
  </g>
  <g
     transform="translate(32.1878,4.643214)"
     id="g35">
    <path
       transform="scale(0.004,-0.004)"
       d="M 0,-46 C 0,45 116,136 217,136 280,136 326,101 326,46 326,-41 216,-136 106,-136 39,-136 0,-97 0,-46 Z"
       fill="currentColor"
       id="path34" />
  </g>
  <g
     transform="translate(32.2528,6.643214)"
     id="g36">
    <path
       id="rect35"
       style="fill:currentColor"
       d="m -0.025,-1.8138 h 0.05 c 0.02216,0 0.04,0.01784 0.04,0.04 v 2.72979993 c 0,0.02216 -0.01784,0.04 -0.04,0.04 h -0.05 c -0.02216,0 -0.04,-0.01784 -0.04,-0.04 V -1.7738 c 0,-0.02216 0.01784,-0.04 0.04,-0.04 z" />
  </g>
  <g
     transform="translate(31.1418,4.643214)"
     id="g37">
    <path
       transform="scale(0.004,-0.004)"
       d="m -7,375 c 8,4 17,7 25,7 8,0 16,-3 24,-7 l -2,-183 106,20 h 3 c 10,0 18,-7 18,-17 l 7,-570 c -8,-4 -17,-7 -25,-7 -8,0 -16,3 -24,7 l 2,183 -106,-20 h -3 c -10,0 -18,7 -18,17 z M 131,112 39,95 l -3,-207 92,17 z"
       fill="currentColor"
       id="path36" />
  </g>
  <g
     transform="translate(34.692,1.643214)"
     id="g38">
    <path
       style="font-size:2.3308px;font-family:'NewComputerModern Math';white-space:pre"
       d="m 1.549982,-0.54307641 c 0,-0.023308 0,-0.0396236 -0.0303,-0.0396236 -0.025639,0 -0.025639,0.0139848 -0.02797,0.0372928 -0.018646,0.3333044 -0.268042,0.52443001 -0.52209918,0.52443001 -0.1421788,0 -0.59901561,-0.0792472 -0.59901561,-0.77382562 0,-0.69690918 0.45450601,-0.77615638 0.59668481,-0.77615638 0.25405718,0 0.46149838,0.2121028 0.50811438,0.5523996 0.00466,0.0326312 0.00466,0.0396236 0.037293,0.0396236 0.037293,0 0.037293,-0.006992 0.037293,-0.0559392 v -0.5523996 c 0,-0.039624 0,-0.055939 -0.025639,-0.055939 -0.00932,0 -0.018646,0 -0.037293,0.02797 l -0.11654,0.1724792 C 1.2842708,-1.526674 1.1654,-1.643214 0.94164322,-1.643214 c -0.43585961,0 -0.81111842,0.3705972 -0.81111842,0.84608038 0,0.48247561 0.37758961,0.84841122 0.81111842,0.84841122 0.37992038,0 0.60833878,-0.32398121 0.60833878,-0.59435401 z"
       id="text37"
       aria-label="C" />
  </g>
  <g
     transform="translate(36.365,2.437814)"
     id="g39">
    <path
       style="font-size:1.648px;font-family:'NewComputerModern Math';white-space:pre"
       d="M 0.79928,-1.061312 H 0.398816 c -0.201056,0 -0.204352,-0.021424 -0.210944,-0.052736 h -0.0412 L 0.092288,-0.77456 h 0.0412 c 0.004944,-0.026368 0.019776,-0.130192 0.0412,-0.149968 0.011536,-0.009888 0.14008,-0.009888 0.161504,-0.009888 h 0.341136 l -0.184576,0.260384 c -0.14832,0.22248 -0.202704,0.451552 -0.202704,0.619648 0,0.01648 0,0.09064 0.075808,0.09064 0.075808,0 0.075808,-0.07416 0.075808,-0.09064 v -0.084048 c 0,-0.09064 0.004944,-0.18128 0.018128,-0.270272 0.006592,-0.037904 0.029664,-0.179632 0.102176,-0.281808 l 0.22248,-0.31312 C 0.79928,-1.023408 0.79928,-1.026704 0.79928,-1.061312 Z"
       id="text38"
       aria-label="7" />
  </g>
  <g
     transform="translate(34.692,5.143214)"
     id="g40">
    <path
       transform="scale(0.004,-0.004)"
       d="M 0,-46 C 0,45 116,136 217,136 280,136 326,101 326,46 326,-41 216,-136 106,-136 39,-136 0,-97 0,-46 Z"
       fill="currentColor"
       id="path39" />
  </g>
  <g
     transform="translate(34.757,6.643214)"
     id="g41">
    <path
       id="rect40"
       style="fill:currentColor"
       d="m -0.025,-1.3138 h 0.05 c 0.02216,0 0.04,0.01784 0.04,0.04 v 3.0485 c 0,0.02216 -0.01784,0.04 -0.04,0.04 h -0.05 c -0.02216,0 -0.04,-0.01784 -0.04,-0.04 v -3.0485 c 0,-0.02216 0.01784,-0.04 0.04,-0.04 z" />
  </g>
  <g
     transform="translate(37.1962,5.643214)"
     id="g42">
    <path
       transform="scale(0.004,-0.004)"
       d="M 0,-46 C 0,45 116,136 217,136 280,136 326,101 326,46 326,-41 216,-136 106,-136 39,-136 0,-97 0,-46 Z"
       fill="currentColor"
       id="path41" />
  </g>
  <g
     transform="translate(37.2612,6.643214)"
     id="g43">
    <path
       id="rect42"
       style="fill:currentColor"
       d="m -0.025,-0.81379998 h 0.05 c 0.02216,0 0.04,0.01784 0.04,0.04 V 1.9552999 c 0,0.02216 -0.01784,0.04 -0.04,0.04 h -0.05 c -0.02216,0 -0.04,-0.01784 -0.04,-0.04 v -2.72909988 c 0,-0.02216 0.01784,-0.04 0.04,-0.04 z" />
  </g>
  <g
     transform="translate(39.7004,6.143214)"
     id="g44">
    <path
       transform="scale(0.004,-0.004)"
       d="M 0,-46 C 0,45 116,136 217,136 280,136 326,101 326,46 326,-41 216,-136 106,-136 39,-136 0,-97 0,-46 Z"
       fill="currentColor"
       id="path43" />
  </g>
  <g
     transform="translate(39.7654,6.643214)"
     id="g45">
    <path
       id="rect44"
       style="fill:currentColor"
       d="m -0.025,-0.31380001 h 0.05 c 0.02216,0 0.04,0.01784 0.04,0.04 V 2.7737001 c 0,0.02216 -0.01784,0.04 -0.04,0.04 h -0.05 c -0.02216,0 -0.04,-0.01784 -0.04,-0.04 v -3.04750011 c 0,-0.02216 0.01784,-0.04 0.04,-0.04 z" />
  </g>
  <g
     transform="translate(42.8746,6.643214)"
     id="g46">
    <path
       transform="scale(0.004,-0.004)"
       d="M 0,-46 C 0,45 116,136 217,136 280,136 326,101 326,46 326,-41 216,-136 106,-136 39,-136 0,-97 0,-46 Z"
       fill="currentColor"
       id="path45" />
  </g>
  <g
     transform="translate(42.9396,6.643214)"
     id="g47">
    <path
       id="rect46"
       style="fill:currentColor"
       d="m -0.025,0.18619999 h 0.05 c 0.02216,0 0.04,0.01784 0.04,0.04 V 2.9563001 c 0,0.02216 -0.01784,0.04 -0.04,0.04 h -0.05 c -0.02216,0 -0.04,-0.01784 -0.04,-0.04 V 0.22619999 c 0,-0.02216 0.01784,-0.04 0.04,-0.04 z" />
  </g>
  <g
     transform="translate(41.7246,6.643214)"
     id="g48">
    <path
       transform="scale(0.004,-0.004)"
       d="m 27,41 -1,-66 v -11 c 0,-22 1,-44 4,-66 45,38 93,80 93,139 0,33 -14,67 -43,67 C 49,104 28,74 27,41 Z m -42,-179 -12,595 c 8,5 18,8 27,8 9,0 19,-3 27,-8 L 20,112 c 25,21 58,34 91,34 52,0 89,-48 89,-102 0,-80 -86,-117 -147,-169 -15,-13 -24,-38 -45,-38 -13,0 -23,11 -23,25 z"
       fill="currentColor"
       id="path47" />
  </g>
  <g
     transform="translate(46.3393,1.643214)"
     id="g49">
    <path
       style="font-size:2.3308px;font-family:'NewComputerModern Math';white-space:pre"
       d="M 1.421788,-1.060514 1.356526,-1.584944 H 0.0769164 v 0.072255 h 0.0559392 c 0.17947161,0 0.18413321,0.025639 0.18413321,0.1095476 v 1.2213392 c 0,0.0839088 -0.004662,0.1095476 -0.18413321,0.1095476 H 0.0769164 V 0 c 0.081578,-0.0069924 0.26338041,-0.0069924 0.35428161,-0.0069924 0.0955628,0 0.30766561,0 0.39157441,0.0069924 v -0.0722548 h -0.0769164 c -0.22142601,0 -0.22142601,-0.0303004 -0.22142601,-0.1118784 v -0.57337682 h 0.20044881 c 0.2237568,0 0.2470648,0.0745856 0.2470648,0.27270361 h 0.05827 V -1.1024684 h -0.05827 c 0,0.19578718 -0.023308,0.27270358 -0.2470648,0.27270358 H 0.52443001 V -1.4194572 c 0,-0.076916 0.004662,-0.093232 0.11420921,-0.093232 h 0.279696 c 0.34961998,0 0.40788998,0.1305248 0.44518278,0.4521752 z"
       id="text48"
       aria-label="F" />
  </g>
  <g
     transform="translate(46.3393,7.143214)"
     id="g50">
    <path
       transform="scale(0.004,-0.004)"
       d="M 0,-46 C 0,45 116,136 217,136 280,136 326,101 326,46 326,-41 216,-136 106,-136 39,-136 0,-97 0,-46 Z"
       fill="currentColor"
       id="path49" />
  </g>
  <g
     transform="translate(47.5785,6.643214)"
     id="g51">
    <path
       id="rect50"
       style="fill:currentColor"
       d="m -0.025,-3 h 0.05 c 0.02216,0 0.04,0.01784 0.04,0.04 v 3.2338001 c 0,0.02216 -0.01784,0.04 -0.04,0.04 h -0.05 c -0.02216,0 -0.04,-0.01784 -0.04,-0.04 V -2.96 c 0,-0.02216 0.01784,-0.04 0.04,-0.04 z" />
  </g>
  <g
     transform="translate(50.0435,6.643214)"
     id="g52">
    <path
       transform="scale(0.004,-0.004)"
       d="m -6,78 c 0,59 124,83 124,182 0,24 -8,49 -25,69 l -35,42 c -3,3 -4,7 -4,10 0,9 9,15 17,15 4,0 8,-1 11,-5 L 233,211 c 7,-9 10,-17 10,-25 0,-59 -124,-83 -124,-182 0,-24 7,-49 24,-69 l 84,-99 c 3,-3 4,-7 4,-10 0,-9 -8,-16 -16,-16 -8,0 -45,44 -109,44 -16,0 -53,0 -53,-67 0,-62 30,-97 30,-100 0,-4 -4,-7 -8,-7 -13,0 -98,130 -98,204 0,41 27,42 40,42 33,0 78,-13 119,-31 L 4,53 C -3,62 -6,70 -6,78 Z"
       fill="currentColor"
       id="path51" />
  </g>
  <g
     transform="translate(53.3935,6.643214)"
     id="g53">
    <path
       transform="scale(0.004,-0.004)"
       d="M 365,0 H 10 C 4,0 0,4 0,10 v 136 c 0,6 4,10 10,10 h 355 c 6,0 10,-4 10,-10 V 10 C 375,4 371,0 365,0 Z"
       fill="currentColor"
       id="path52" />
  </g>
</svg>
