<?xml version="1.0" encoding="UTF-8" standalone="no"?>
<svg
   version="1.2"
   width="156.62135mm"
   height="21.712086mm"
   viewBox="0 0 89.126201 12.355376"
   id="svg102"
   sodipodi:docname="fig_226.svg"
   xmlns:inkscape="http://www.inkscape.org/namespaces/inkscape"
   xmlns:sodipodi="http://sodipodi.sourceforge.net/DTD/sodipodi-0.dtd"
   xmlns:xlink="http://www.w3.org/1999/xlink"
   xmlns="http://www.w3.org/2000/svg"
   xmlns:svg="http://www.w3.org/2000/svg">
  <defs
     id="defs102" />
  <sodipodi:namedview
     id="namedview102"
     pagecolor="#505050"
     bordercolor="#eeeeee"
     borderopacity="1"
     inkscape:showpageshadow="0"
     inkscape:pageopacity="0"
     inkscape:pagecheckerboard="0"
     inkscape:deskcolor="#505050"
     inkscape:document-units="mm" />
  <style
     type="text/css"
     id="style1"><![CDATA[
tspan { white-space: pre; }
]]></style>
  <g
     transform="translate(88.9362,7.150376)"
     id="g1">
    <rect
       x="0"
       y="-2"
       width="0.19"
       height="4"
       ry="0.0000"
       fill="currentColor"
       id="rect1" />
  </g>
  <g
     transform="translate(88.4462,7.150376)"
     id="g2">
    <rect
       x="0"
       y="-2"
       width="0.19"
       height="4"
       ry="0.0000"
       fill="currentColor"
       id="rect2" />
  </g>
  <g
     transform="translate(0,10.150376)"
     id="g3">
    <rect
       x="39.980801"
       y="-0.1"
       width="1.9563"
       height="0.2"
       ry="0.1"
       fill="currentColor"
       id="rect3" />
  </g>
  <g
     transform="translate(0,10.150376)"
     id="g4">
    <rect
       x="37.564499"
       y="-0.1"
       width="1.8053"
       height="0.2"
       ry="0.1"
       fill="currentColor"
       id="rect4" />
  </g>
  <g
     transform="translate(0,9.150376)"
     id="g5">
    <line
       stroke-linejoin="round"
       stroke-linecap="round"
       stroke-width="0.1"
       stroke="currentColor"
       x1="0.050000001"
       y1="0"
       x2="89.076202"
       y2="0"
       id="line4" />
  </g>
  <g
     transform="translate(0,8.150376)"
     id="g6">
    <line
       stroke-linejoin="round"
       stroke-linecap="round"
       stroke-width="0.1"
       stroke="currentColor"
       x1="0.050000001"
       y1="0"
       x2="89.076202"
       y2="0"
       id="line5" />
  </g>
  <g
     transform="translate(0,7.150376)"
     id="g7">
    <line
       stroke-linejoin="round"
       stroke-linecap="round"
       stroke-width="0.1"
       stroke="currentColor"
       x1="0.050000001"
       y1="0"
       x2="89.076202"
       y2="0"
       id="line6" />
  </g>
  <g
     transform="translate(0,6.150376)"
     id="g8">
    <line
       stroke-linejoin="round"
       stroke-linecap="round"
       stroke-width="0.1"
       stroke="currentColor"
       x1="0.050000001"
       y1="0"
       x2="89.076202"
       y2="0"
       id="line7" />
  </g>
  <g
     transform="translate(0,5.150376)"
     id="g9">
    <line
       stroke-linejoin="round"
       stroke-linecap="round"
       stroke-width="0.1"
       stroke="currentColor"
       x1="0.050000001"
       y1="0"
       x2="89.076202"
       y2="0"
       id="line8" />
  </g>
  <g
     transform="translate(75.0413,7.150376)"
     id="g10">
    <rect
       x="0"
       y="-2"
       width="0.19"
       height="4"
       ry="0.0000"
       fill="currentColor"
       id="rect9" />
  </g>
  <g
     transform="translate(51.6233,7.150376)"
     id="g11">
    <rect
       x="0"
       y="-2"
       width="0.19"
       height="4"
       ry="0.0000"
       fill="currentColor"
       id="rect10" />
  </g>
  <g
     transform="translate(29.7753,7.150376)"
     id="g12">
    <rect
       x="0"
       y="-2"
       width="0.19"
       height="4"
       ry="0.0000"
       fill="currentColor"
       id="rect11" />
  </g>
  <g
     transform="translate(69.5996,8.150376)"
     id="g13">
    <polygon
       stroke-linejoin="round"
       stroke-linecap="round"
       stroke-width="0.08"
       fill="currentColor"
       stroke="currentColor"
       points="0.04,0.2 0.04,-0.2 3.2642,-0.01 3.2642,0.39 "
       id="polygon12" />
  </g>
  <g
     transform="translate(64.1452,8.960376)"
     id="g14">
    <polygon
       stroke-linejoin="round"
       stroke-linecap="round"
       stroke-width="0.08"
       fill="currentColor"
       stroke="currentColor"
       points="0.04,0.2 0.04,-0.2 3.0402,-0.2 3.0402,0.2 "
       id="polygon13" />
  </g>
  <a
     style="color:inherit"
     xlink:href="textedit:///Users/devonnuri/Documents/typst/241230%20Linear%20Harmony/lilypond/fig_226.ly:8:4:5"
     id="a17"
     transform="translate(-8.5358,-6.690724)">
    <g
       transform="translate(17.1208,8.8411)"
       id="g15">
      <text
         font-family="'Tex Gyre Termes'"
         font-size="2.3308px"
         text-anchor="start"
         fill="currentColor"
         id="text14"><tspan
           id="tspan14">D</tspan></text>
    </g>
    <g
       transform="translate(18.7938,8.8411)"
       id="g16">
      <text
         font-family="'Tex Gyre Termes'"
         font-size="2.3308px"
         text-anchor="start"
         fill="currentColor"
         id="text15"><tspan
           id="tspan15">m</tspan></text>
    </g>
    <g
       transform="translate(20.6034,7.7817)"
       id="g17">
      <text
         font-family="'Tex Gyre Termes'"
         font-size="1.648px"
         text-anchor="start"
         fill="currentColor"
         id="text16"><tspan
           id="tspan16">7</tspan></text>
    </g>
  </a>
  <a
     style="color:inherit"
     xlink:href="textedit:///Users/devonnuri/Documents/typst/241230%20Linear%20Harmony/lilypond/fig_226.ly:11:2:3"
     id="a18"
     transform="translate(-8.5358,-6.690724)">
    <g
       transform="translate(17.1208,15.3411)"
       id="g18">
      <path
         transform="scale(0.004,-0.004)"
         d="M 0,-46 C 0,45 116,136 217,136 280,136 326,101 326,46 326,-41 216,-136 106,-136 39,-136 0,-97 0,-46 Z"
         fill="currentColor"
         id="path17" />
    </g>
  </a>
  <g
     transform="translate(0.8,8.150376)"
     id="g19">
    <path
       transform="scale(0.004,-0.004)"
       d="m 266,-635 h -6 c -108,0 -195,88 -195,197 0,58 53,103 112,103 54,0 95,-47 95,-103 0,-52 -43,-95 -95,-95 -11,0 -21,2 -31,6 26,-39 68,-65 117,-65 h 4 z m 135,786 c 19,-89 48,-242 60,-354 76,27 112,94 112,163 0,89 -60,179 -172,191 z M 74,28 c 0,-112 98,-247 278,-247 21,0 44,2 68,6 -7,64 -29,203 -63,364 -79,-8 -124,-61 -124,-119 0,-44 25,-91 81,-123 5,-5 7,-10 7,-15 0,-11 -10,-22 -22,-22 -15,0 -126,62 -126,187 0,88 58,174 160,197 -14,58 -29,117 -46,175 C 180,310 74,188 74,28 Z m 283,1166 c 28,0 143,-206 143,-361 0,-143 -86,-255 -180,-364 21,-68 39,-138 56,-207 5,0 10,1 14,1 155,0 255,-129 255,-262 0,-113 -74,-212 -180,-245 3,-35 5,-70 5,-105 0,-19 -1,-39 -2,-58 -7,-119 -88,-225 -202,-228 l 1,43 c 93,2 153,92 159,191 1,18 2,37 2,55 0,31 -1,61 -4,92 -28,-5 -55,-8 -80,-8 -239,0 -342,217 -342,374 0,177 131,306 248,441 -29,96 -52,170 -52,346 0,189 144,295 159,295 z M 247,782 c 0,-55 12,-115 35,-190 83,100 147,202 147,326 0,40 -6,82 -21,127 -49,-24 -161,-97 -161,-263 z"
       fill="currentColor"
       id="path18" />
  </g>
  <g
     transform="translate(4.885,7.150376)"
     id="g20">
    <path
       transform="scale(0.004,-0.004)"
       d="M 433,-89 C 433,-111 383,-263 250,-263 191,-263 0,-244 0,0 0,62 18,262 250,262 366,262 426,156 426,99 426,59 396,27 359,27 c -31,0 -75,25 -75,75 0,38 27,77 72,77 4,0 9,0 14,-1 -28,37 -72,59 -120,59 C 144,237 137,164 137,51 V 0 -51 c 0,-113 7,-187 113,-187 80,0 139,70 158,151 2,7 7,10 12,10 6,0 13,-4 13,-12 z"
       fill="currentColor"
       id="path19" />
  </g>
  <g
     transform="translate(9.8242,7.150376)"
     id="g21">
    <rect
       x="-0.064999998"
       y="-1.7931"
       width="0.13"
       height="3.1069"
       ry="0.039999999"
       fill="currentColor"
       id="rect20" />
  </g>
  <g
     transform="translate(58.7168,8.960376)"
     id="g22">
    <polygon
       stroke-linejoin="round"
       stroke-linecap="round"
       stroke-width="0.08"
       fill="currentColor"
       stroke="currentColor"
       points="0.04,0.2 0.04,-0.2 3.2642,-0.82 3.2642,-0.42 "
       id="polygon21" />
  </g>
  <a
     style="color:inherit"
     xlink:href="textedit:///Users/devonnuri/Documents/typst/241230%20Linear%20Harmony/lilypond/fig_226.ly:11:5:6"
     id="a23"
     transform="translate(-8.5358,-6.690724)">
    <g
       transform="translate(19.375,16.3411)"
       id="g23">
      <path
         transform="scale(0.004,-0.004)"
         d="M 0,-46 C 0,45 116,136 217,136 280,136 326,101 326,46 326,-41 216,-136 106,-136 39,-136 0,-97 0,-46 Z"
         fill="currentColor"
         id="path22" />
    </g>
  </a>
  <g
     transform="translate(12.0784,7.150376)"
     id="g24">
    <rect
       x="-0.064999998"
       y="-1.2069"
       width="0.13"
       height="3.5207"
       ry="0.039999999"
       fill="currentColor"
       id="rect23" />
  </g>
  <g
     transform="translate(52.7884,9.960376)"
     id="g25">
    <polygon
       stroke-linejoin="round"
       stroke-linecap="round"
       stroke-width="0.08"
       fill="currentColor"
       stroke="currentColor"
       points="0.04,0.2 0.04,-0.2 2.8442,-0.82 2.8442,-0.42 "
       id="polygon24" />
  </g>
  <a
     style="color:inherit"
     xlink:href="textedit:///Users/devonnuri/Documents/typst/241230%20Linear%20Harmony/lilypond/fig_226.ly:11:31:32"
     id="a26"
     transform="translate(-8.5358,-6.690724)">
    <g
       transform="translate(22.1292,15.3411)"
       id="g26">
      <path
         transform="scale(0.004,-0.004)"
         d="M 0,-46 C 0,45 116,136 217,136 280,136 326,101 326,46 326,-41 216,-136 106,-136 39,-136 0,-97 0,-46 Z"
         fill="currentColor"
         id="path25" />
    </g>
  </a>
  <g
     transform="translate(14.8326,7.150376)"
     id="g27">
    <rect
       x="-0.064999998"
       y="-1.826"
       width="0.13"
       height="3.1398001"
       ry="0.039999999"
       fill="currentColor"
       id="rect26" />
  </g>
  <g
     transform="translate(47.4095,4.960376)"
     id="g28">
    <polygon
       stroke-linejoin="round"
       stroke-linecap="round"
       stroke-width="0.08"
       fill="currentColor"
       stroke="currentColor"
       points="0.04,0.2 0.04,-0.2 2.8442,-0.82 2.8442,-0.42 "
       id="polygon27" />
  </g>
  <a
     style="color:inherit"
     xlink:href="textedit:///Users/devonnuri/Documents/typst/241230%20Linear%20Harmony/lilypond/fig_226.ly:11:33:34"
     id="a29"
     transform="translate(-8.5358,-6.690724)">
    <g
       transform="translate(24.4834,14.3411)"
       id="g29">
      <path
         transform="scale(0.004,-0.004)"
         d="M 0,-46 C 0,45 116,136 217,136 280,136 326,101 326,46 326,-41 216,-136 106,-136 39,-136 0,-97 0,-46 Z"
         fill="currentColor"
         id="path28" />
    </g>
  </a>
  <g
     transform="translate(17.1868,7.150376)"
     id="g30">
    <rect
       x="-0.064999998"
       y="-2.405"
       width="0.13"
       height="2.7188001"
       ry="0.039999999"
       fill="currentColor"
       id="rect29" />
  </g>
  <g
     transform="translate(41.4811,6.340376)"
     id="g31">
    <polygon
       stroke-linejoin="round"
       stroke-linecap="round"
       stroke-width="0.08"
       fill="currentColor"
       stroke="currentColor"
       points="0.04,0.2 0.04,-0.2 3.2642,-0.58 3.2642,-0.18 "
       id="polygon30" />
  </g>
  <a
     style="color:inherit"
     xlink:href="textedit:///Users/devonnuri/Documents/typst/241230%20Linear%20Harmony/lilypond/fig_226.ly:11:35:36"
     id="a32"
     transform="translate(-8.5358,-6.690724)">
    <g
       transform="translate(26.8376,13.3411)"
       id="g32">
      <path
         transform="scale(0.004,-0.004)"
         d="M 0,-46 C 0,45 116,136 217,136 280,136 326,101 326,46 326,-41 216,-136 106,-136 39,-136 0,-97 0,-46 Z"
         fill="currentColor"
         id="path31" />
    </g>
  </a>
  <g
     transform="translate(19.541,7.150376)"
     id="g33">
    <rect
       x="-0.064999998"
       y="-2.984"
       width="0.13"
       height="2.2978001"
       ry="0.039999999"
       fill="currentColor"
       id="rect32" />
  </g>
  <a
     style="color:inherit"
     xlink:href="textedit:///Users/devonnuri/Documents/typst/241230%20Linear%20Harmony/lilypond/fig_226.ly:8:10:11"
     id="a35"
     transform="translate(-8.5358,-6.690724)">
    <g
       transform="translate(28.9418,8.8411)"
       id="g34">
      <text
         font-family="'Tex Gyre Termes'"
         font-size="2.3308px"
         text-anchor="start"
         fill="currentColor"
         id="text33"><tspan
           id="tspan33">G</tspan></text>
    </g>
    <g
       transform="translate(30.6148,7.7817)"
       id="g35">
      <text
         font-family="'Tex Gyre Termes'"
         font-size="1.648px"
         text-anchor="start"
         fill="currentColor"
         id="text34"><tspan
           id="tspan34">7</tspan></text>
    </g>
  </a>
  <a
     style="color:inherit"
     xlink:href="textedit:///Users/devonnuri/Documents/typst/241230%20Linear%20Harmony/lilypond/fig_226.ly:11:38:39"
     id="a36"
     transform="translate(-8.5358,-6.690724)">
    <g
       transform="translate(28.9418,13.8411)"
       id="g36">
      <path
         transform="scale(0.004,-0.004)"
         d="M 0,-46 C 0,45 116,136 217,136 280,136 326,101 326,46 326,-41 216,-136 106,-136 39,-136 0,-97 0,-46 Z"
         fill="currentColor"
         id="path35" />
    </g>
  </a>
  <g
     transform="translate(21.6452,7.150376)"
     id="g37">
    <rect
       x="-0.064999998"
       y="-2.9963"
       width="0.13"
       height="2.8101001"
       ry="0.039999999"
       fill="currentColor"
       id="rect36" />
  </g>
  <a
     style="color:inherit"
     xlink:href="textedit:///Users/devonnuri/Documents/typst/241230%20Linear%20Harmony/lilypond/fig_226.ly:12:16:17"
     id="a40"
     transform="translate(-8.5358,-6.690724)">
    <g
       transform="translate(48.8427,18.9461)"
       id="g38">
      <line
         stroke-linejoin="round"
         stroke-linecap="round"
         stroke-width="0.2"
         stroke="currentColor"
         x1="37.289299"
         y1="0"
         x2="37.289299"
         y2="-1"
         id="line37" />
    </g>
    <g
       transform="translate(48.8427,18.9461)"
       id="g39">
      <line
         stroke-linejoin="round"
         stroke-linecap="round"
         stroke-width="0.2"
         stroke="currentColor"
         x1="0"
         y1="0"
         x2="0"
         y2="-1"
         id="line38" />
    </g>
    <g
       transform="translate(48.8427,18.9461)"
       id="g40">
      <line
         stroke-linejoin="round"
         stroke-linecap="round"
         stroke-width="0.2"
         stroke="currentColor"
         x1="0"
         y1="0"
         x2="37.289299"
         y2="0"
         id="line39" />
    </g>
  </a>
  <a
     style="color:inherit"
     xlink:href="textedit:///Users/devonnuri/Documents/typst/241230%20Linear%20Harmony/lilypond/fig_226.ly:11:50:51"
     id="a41"
     transform="translate(-8.5358,-6.690724)">
    <g
       transform="translate(32.116,14.3411)"
       id="g41">
      <path
         transform="scale(0.004,-0.004)"
         d="M 0,-46 C 0,45 116,136 217,136 280,136 326,101 326,46 326,-41 216,-136 106,-136 39,-136 0,-97 0,-46 Z"
         fill="currentColor"
         id="path40" />
    </g>
  </a>
  <g
     transform="translate(24.8194,7.150376)"
     id="g42">
    <rect
       x="-0.064999998"
       y="-2.8137"
       width="0.13"
       height="3.1275001"
       ry="0.039999999"
       fill="currentColor"
       id="rect41" />
  </g>
  <g
     transform="translate(22.4302,7.650376)"
     id="g43">
    <path
       transform="scale(0.004,-0.004)"
       d="m 27,41 -1,-66 v -11 c 0,-22 1,-44 4,-66 45,38 93,80 93,139 0,33 -14,67 -43,67 C 49,104 28,74 27,41 Z m -42,-179 -12,595 c 8,5 18,8 27,8 9,0 19,-3 27,-8 L 20,112 c 25,21 58,34 91,34 52,0 89,-48 89,-102 0,-80 -86,-117 -147,-169 -15,-13 -24,-38 -45,-38 -13,0 -23,11 -23,25 z"
       fill="currentColor"
       id="path42" />
  </g>
  <g
     transform="translate(21.5802,4.150376)"
     id="g44">
    <polygon
       stroke-linejoin="round"
       stroke-linecap="round"
       stroke-width="0.08"
       fill="currentColor"
       stroke="currentColor"
       points="0.04,0.2 0.04,-0.2 3.2642,-0.01 3.2642,0.39 "
       id="polygon43" />
  </g>
  <a
     style="color:inherit"
     xlink:href="textedit:///Users/devonnuri/Documents/typst/241230%20Linear%20Harmony/lilypond/fig_226.ly:11:54:55"
     id="a45"
     transform="translate(-8.5358,-6.690724)">
    <g
       transform="translate(34.3702,15.3411)"
       id="g45">
      <path
         transform="scale(0.004,-0.004)"
         d="M 0,-46 C 0,45 116,136 217,136 280,136 326,101 326,46 326,-41 216,-136 106,-136 39,-136 0,-97 0,-46 Z"
         fill="currentColor"
         id="path44" />
    </g>
  </a>
  <g
     transform="translate(27.0736,7.150376)"
     id="g46">
    <rect
       x="-0.064999998"
       y="-2"
       width="0.13"
       height="3.3138001"
       ry="0.039999999"
       fill="currentColor"
       id="rect45" />
  </g>
  <g
     transform="translate(14.7676,5.340376)"
     id="g47">
    <polygon
       stroke-linejoin="round"
       stroke-linecap="round"
       stroke-width="0.08"
       fill="currentColor"
       stroke="currentColor"
       points="0.04,0.2 0.04,-0.2 4.7984,-1.39 4.7984,-0.99 "
       id="polygon46" />
  </g>
  <g
     transform="translate(9.7592,5.340376)"
     id="g48">
    <polygon
       stroke-linejoin="round"
       stroke-linecap="round"
       stroke-width="0.08"
       fill="currentColor"
       stroke="currentColor"
       points="0.04,0.2 0.04,-0.2 2.3442,0.42 2.3442,0.82 "
       id="polygon47" />
  </g>
  <a
     style="color:inherit"
     xlink:href="textedit:///Users/devonnuri/Documents/typst/241230%20Linear%20Harmony/lilypond/fig_226.ly:8:14:15"
     id="a51"
     transform="translate(-8.5358,-6.690724)">
    <g
       transform="translate(40.3711,8.8411)"
       id="g49">
      <text
         font-family="'Tex Gyre Termes'"
         font-size="2.3308px"
         text-anchor="start"
         fill="currentColor"
         id="text48"><tspan
           id="tspan48">C</tspan></text>
    </g>
    <g
       transform="translate(41.9417,8.8411)"
       id="g50">
      <text
         font-family="'Tex Gyre Termes'"
         font-size="2.3308px"
         text-anchor="start"
         fill="currentColor"
         id="text49"><tspan
           id="tspan49">m</tspan></text>
    </g>
    <g
       transform="translate(43.7513,7.7817)"
       id="g51">
      <text
         font-family="'Tex Gyre Termes'"
         font-size="1.648px"
         text-anchor="start"
         fill="currentColor"
         id="text50"><tspan
           id="tspan50">7</tspan></text>
    </g>
  </a>
  <a
     style="color:inherit"
     xlink:href="textedit:///Users/devonnuri/Documents/typst/241230%20Linear%20Harmony/lilypond/fig_226.ly:12:2:3"
     id="a52"
     transform="translate(-8.5358,-6.690724)">
    <g
       transform="translate(40.3711,13.8411)"
       id="g52">
      <path
         transform="scale(0.004,-0.004)"
         d="M 0,-46 C 0,45 116,136 217,136 280,136 326,101 326,46 326,-41 216,-136 106,-136 39,-136 0,-97 0,-46 Z"
         fill="currentColor"
         id="path51" />
    </g>
  </a>
  <g
     transform="translate(31.9003,7.150376)"
     id="g53">
    <rect
       x="-0.064999998"
       y="0.18619999"
       width="0.13"
       height="3.1471"
       ry="0.039999999"
       fill="currentColor"
       id="rect52" />
  </g>
  <g
     transform="translate(30.6853,7.150376)"
     id="g54">
    <path
       transform="scale(0.004,-0.004)"
       d="m 27,41 -1,-66 v -11 c 0,-22 1,-44 4,-66 45,38 93,80 93,139 0,33 -14,67 -43,67 C 49,104 28,74 27,41 Z m -42,-179 -12,595 c 8,5 18,8 27,8 9,0 19,-3 27,-8 L 20,112 c 25,21 58,34 91,34 52,0 89,-48 89,-102 0,-80 -86,-117 -147,-169 -15,-13 -24,-38 -45,-38 -13,0 -23,11 -23,25 z"
       fill="currentColor"
       id="path53" />
  </g>
  <a
     style="color:inherit"
     xlink:href="textedit:///Users/devonnuri/Documents/typst/241230%20Linear%20Harmony/lilypond/fig_226.ly:11:18:19"
     id="a55"
     transform="translate(-8.5358,-6.690724)">
    <g
       transform="translate(25.2788,10.6646)"
       id="g55">
      <text
         font-family="'Tex Gyre Termes'"
         font-style="italic"
         font-size="1.7459px"
         text-anchor="start"
         fill="currentColor"
         id="text54"><tspan
           id="tspan54">3</tspan></text>
    </g>
  </a>
  <a
     style="color:inherit"
     xlink:href="textedit:///Users/devonnuri/Documents/typst/241230%20Linear%20Harmony/lilypond/fig_226.ly:12:7:8"
     id="a56"
     transform="translate(-8.5358,-6.690724)">
    <g
       transform="translate(44.0753,13.8411)"
       id="g56">
      <path
         transform="scale(0.004,-0.004)"
         d="m 70,205 c 79,0 46,-98 91,-98 16,0 54,48 61,63 3,6 8,9 14,9 6,0 12,-3 14,-9 L 127,-250 c -8,-7 -17,-10 -27,-10 -10,0 -20,3 -28,10 L 189,76 C 155,64 120,54 84,54 26,54 -1,95 -1,134 c 0,36 24,71 71,71 z"
         fill="currentColor"
         id="path55" />
    </g>
  </a>
  <a
     style="color:inherit"
     xlink:href="textedit:///Users/devonnuri/Documents/typst/241230%20Linear%20Harmony/lilypond/fig_226.ly:11:18:19"
     id="a57"
     transform="translate(-8.5358,-6.690724)" />
  <a
     style="color:inherit"
     xlink:href="textedit:///Users/devonnuri/Documents/typst/241230%20Linear%20Harmony/lilypond/fig_226.ly:12:10:11"
     id="a58"
     transform="translate(-8.5358,-6.690724)">
    <g
       transform="translate(46.2753,17.3411)"
       id="g57">
      <path
         transform="scale(0.004,-0.004)"
         d="M 0,-46 C 0,45 116,136 217,136 280,136 326,101 326,46 326,-41 216,-136 106,-136 39,-136 0,-97 0,-46 Z"
         fill="currentColor"
         id="path57" />
    </g>
  </a>
  <g
     transform="translate(38.9787,7.150376)"
     id="g58">
    <rect
       x="-0.064999998"
       y="0"
       width="0.13"
       height="3.3138001"
       ry="0.039999999"
       fill="currentColor"
       id="rect58" />
  </g>
  <g
     transform="translate(39.0437,7.190376)"
     id="g59">
    <path
       transform="scale(0.004,-0.004)"
       d="M 0,0 V -375 H -16 V 0 Z m 123,-729 c 0,10 42,87 42,196 0,103 -94,208 -165,283 V 0 c 0,-197 207,-336 207,-533 0,-71 -15,-141 -41,-207 -5,-8 -13,-12 -20,-12 -12,0 -23,9 -23,23 z"
       fill="currentColor"
       id="path58" />
  </g>
  <g
     transform="translate(36.5895,10.650376)"
     id="g60">
    <path
       transform="scale(0.004,-0.004)"
       d="m 27,41 -1,-66 v -11 c 0,-22 1,-44 4,-66 45,38 93,80 93,139 0,33 -14,67 -43,67 C 49,104 28,74 27,41 Z m -42,-179 -12,595 c 8,5 18,8 27,8 9,0 19,-3 27,-8 L 20,112 c 25,21 58,34 91,34 52,0 89,-48 89,-102 0,-80 -86,-117 -147,-169 -15,-13 -24,-38 -45,-38 -13,0 -23,11 -23,25 z"
       fill="currentColor"
       id="path59" />
  </g>
  <a
     style="color:inherit"
     xlink:href="textedit:///Users/devonnuri/Documents/typst/241230%20Linear%20Harmony/lilypond/fig_226.ly:12:15:16"
     id="a61"
     transform="translate(-8.5358,-6.690724)">
    <g
       transform="translate(48.8427,16.8411)"
       id="g61">
      <path
         transform="scale(0.004,-0.004)"
         d="M 0,-46 C 0,45 116,136 217,136 280,136 326,101 326,46 326,-41 216,-136 106,-136 39,-136 0,-97 0,-46 Z"
         fill="currentColor"
         id="path60" />
    </g>
  </a>
  <g
     transform="translate(41.5461,7.150376)"
     id="g62">
    <rect
       x="-0.064999998"
       y="-0.8175"
       width="0.13"
       height="3.6313"
       ry="0.039999999"
       fill="currentColor"
       id="rect61" />
  </g>
  <a
     style="color:inherit"
     xlink:href="textedit:///Users/devonnuri/Documents/typst/241230%20Linear%20Harmony/lilypond/fig_226.ly:11:6:7"
     id="a65"
     transform="translate(-8.5358,-6.690724)">
    <g
       transform="translate(19.375,18.4461)"
       id="g63">
      <line
         stroke-linejoin="round"
         stroke-linecap="round"
         stroke-width="0.2"
         stroke="currentColor"
         x1="10.871"
         y1="0"
         x2="10.871"
         y2="-1"
         id="line62" />
    </g>
    <g
       transform="translate(19.375,18.4461)"
       id="g64">
      <line
         stroke-linejoin="round"
         stroke-linecap="round"
         stroke-width="0.2"
         stroke="currentColor"
         x1="0"
         y1="0"
         x2="0"
         y2="-1"
         id="line63" />
    </g>
    <g
       transform="translate(19.375,18.4461)"
       id="g65">
      <line
         stroke-linejoin="round"
         stroke-linecap="round"
         stroke-width="0.2"
         stroke="currentColor"
         x1="0"
         y1="0"
         x2="10.871"
         y2="0"
         id="line64" />
    </g>
  </a>
  <a
     style="color:inherit"
     xlink:href="textedit:///Users/devonnuri/Documents/typst/241230%20Linear%20Harmony/lilypond/fig_226.ly:12:28:29"
     id="a66"
     transform="translate(-8.5358,-6.690724)">
    <g
       transform="translate(52.0169,15.8411)"
       id="g66">
      <path
         transform="scale(0.004,-0.004)"
         d="M 0,-46 C 0,45 116,136 217,136 280,136 326,101 326,46 326,-41 216,-136 106,-136 39,-136 0,-97 0,-46 Z"
         fill="currentColor"
         id="path65" />
    </g>
  </a>
  <g
     transform="translate(44.7203,7.150376)"
     id="g67">
    <rect
       x="-0.064999998"
       y="-1.1825"
       width="0.13"
       height="2.9963"
       ry="0.039999999"
       fill="currentColor"
       id="rect66" />
  </g>
  <g
     transform="translate(42.3311,9.150376)"
     id="g68">
    <path
       transform="scale(0.004,-0.004)"
       d="m 27,41 -1,-66 v -11 c 0,-22 1,-44 4,-66 45,38 93,80 93,139 0,33 -14,67 -43,67 C 49,104 28,74 27,41 Z m -42,-179 -12,595 c 8,5 18,8 27,8 9,0 19,-3 27,-8 L 20,112 c 25,21 58,34 91,34 52,0 89,-48 89,-102 0,-80 -86,-117 -147,-169 -15,-13 -24,-38 -45,-38 -13,0 -23,11 -23,25 z"
       fill="currentColor"
       id="path67" />
  </g>
  <a
     style="color:inherit"
     xlink:href="textedit:///Users/devonnuri/Documents/typst/241230%20Linear%20Harmony/lilypond/fig_226.ly:12:31:32"
     id="a69"
     transform="translate(-8.5358,-6.690724)">
    <g
       transform="translate(54.7711,14.8411)"
       id="g69">
      <path
         transform="scale(0.004,-0.004)"
         d="M 0,-46 C 0,45 116,136 217,136 280,136 326,101 326,46 326,-41 216,-136 106,-136 39,-136 0,-97 0,-46 Z"
         fill="currentColor"
         id="path68" />
    </g>
  </a>
  <g
     transform="translate(47.4745,7.150376)"
     id="g70">
    <rect
       x="-0.064999998"
       y="-2.204"
       width="0.13"
       height="3.0178001"
       ry="0.039999999"
       fill="currentColor"
       id="rect69" />
  </g>
  <a
     style="color:inherit"
     xlink:href="textedit:///Users/devonnuri/Documents/typst/241230%20Linear%20Harmony/lilypond/fig_226.ly:12:33:34"
     id="a71"
     transform="translate(-8.5358,-6.690724)">
    <g
       transform="translate(57.5253,13.8411)"
       id="g71">
      <path
         transform="scale(0.004,-0.004)"
         d="M 0,-46 C 0,45 116,136 217,136 280,136 326,101 326,46 326,-41 216,-136 106,-136 39,-136 0,-97 0,-46 Z"
         fill="currentColor"
         id="path70" />
    </g>
  </a>
  <g
     transform="translate(50.2287,7.150376)"
     id="g72">
    <rect
       x="-0.064999998"
       y="-2.796"
       width="0.13"
       height="2.6098001"
       ry="0.039999999"
       fill="currentColor"
       id="rect71" />
  </g>
  <a
     style="color:inherit"
     xlink:href="textedit:///Users/devonnuri/Documents/typst/241230%20Linear%20Harmony/lilypond/fig_226.ly:8:20:21"
     id="a74"
     transform="translate(-8.5358,-6.690724)">
    <g
       transform="translate(61.3242,8.8411)"
       id="g73">
      <text
         font-family="'Tex Gyre Termes'"
         font-size="2.3308px"
         text-anchor="start"
         fill="currentColor"
         id="text72"><tspan
           id="tspan72">F</tspan></text>
    </g>
    <g
       transform="translate(62.6216,7.7817)"
       id="g74">
      <text
         font-family="'Tex Gyre Termes'"
         font-size="1.648px"
         text-anchor="start"
         fill="currentColor"
         id="text73"><tspan
           id="tspan73">7</tspan></text>
    </g>
  </a>
  <a
     style="color:inherit"
     xlink:href="textedit:///Users/devonnuri/Documents/typst/241230%20Linear%20Harmony/lilypond/fig_226.ly:13:2:3"
     id="a75"
     transform="translate(-8.5358,-6.690724)">
    <g
       transform="translate(61.3242,14.3411)"
       id="g75">
      <path
         transform="scale(0.004,-0.004)"
         d="M 0,-46 C 0,45 116,136 217,136 280,136 326,101 326,46 326,-41 216,-136 106,-136 39,-136 0,-97 0,-46 Z"
         fill="currentColor"
         id="path74" />
    </g>
  </a>
  <g
     transform="translate(52.8534,7.150376)"
     id="g76">
    <rect
       x="-0.064999998"
       y="0.68620002"
       width="0.13"
       height="2.1098001"
       ry="0.039999999"
       fill="currentColor"
       id="rect75" />
  </g>
  <a
     style="color:inherit"
     xlink:href="textedit:///Users/devonnuri/Documents/typst/241230%20Linear%20Harmony/lilypond/fig_226.ly:13:4:5"
     id="a77"
     transform="translate(-8.5358,-6.690724)">
    <g
       transform="translate(64.0784,13.3411)"
       id="g77">
      <path
         transform="scale(0.004,-0.004)"
         d="M 0,-46 C 0,45 116,136 217,136 280,136 326,101 326,46 326,-41 216,-136 106,-136 39,-136 0,-97 0,-46 Z"
         fill="currentColor"
         id="path76" />
    </g>
  </a>
  <g
     transform="translate(55.6076,7.150376)"
     id="g78">
    <rect
       x="-0.064999998"
       y="-0.31380001"
       width="0.13"
       height="2.5178001"
       ry="0.039999999"
       fill="currentColor"
       id="rect77" />
  </g>
  <a
     style="color:inherit"
     xlink:href="textedit:///Users/devonnuri/Documents/typst/241230%20Linear%20Harmony/lilypond/fig_226.ly:13:6:7"
     id="a79"
     transform="translate(-8.5358,-6.690724)">
    <g
       transform="translate(67.2526,12.3411)"
       id="g79">
      <path
         transform="scale(0.004,-0.004)"
         d="M 0,-46 C 0,45 116,136 217,136 280,136 326,101 326,46 326,-41 216,-136 106,-136 39,-136 0,-97 0,-46 Z"
         fill="currentColor"
         id="path78" />
    </g>
  </a>
  <g
     transform="translate(58.7818,7.150376)"
     id="g80">
    <rect
       x="-0.064999998"
       y="-1.3138"
       width="0.13"
       height="3.1115999"
       ry="0.039999999"
       fill="currentColor"
       id="rect79" />
  </g>
  <g
     transform="translate(57.5668,5.650376)"
     id="g81">
    <path
       transform="scale(0.004,-0.004)"
       d="m 27,41 -1,-66 v -11 c 0,-22 1,-44 4,-66 45,38 93,80 93,139 0,33 -14,67 -43,67 C 49,104 28,74 27,41 Z m -42,-179 -12,595 c 8,5 18,8 27,8 9,0 19,-3 27,-8 L 20,112 c 25,21 58,34 91,34 52,0 89,-48 89,-102 0,-80 -86,-117 -147,-169 -15,-13 -24,-38 -45,-38 -13,0 -23,11 -23,25 z"
       fill="currentColor"
       id="path80" />
  </g>
  <a
     style="color:inherit"
     xlink:href="textedit:///Users/devonnuri/Documents/typst/241230%20Linear%20Harmony/lilypond/fig_226.ly:13:9:10"
     id="a82"
     transform="translate(-8.5358,-6.690724)">
    <g
       transform="translate(70.4268,11.3411)"
       id="g82">
      <path
         transform="scale(0.004,-0.004)"
         d="M 0,-46 C 0,45 116,136 217,136 280,136 326,101 326,46 326,-41 216,-136 106,-136 39,-136 0,-97 0,-46 Z"
         fill="currentColor"
         id="path81" />
    </g>
  </a>
  <g
     transform="translate(61.956,7.150376)"
     id="g83">
    <rect
       x="-0.064999998"
       y="-2.3138001"
       width="0.13"
       height="3.516"
       ry="0.039999999"
       fill="currentColor"
       id="rect82" />
  </g>
  <g
     transform="translate(60.741,4.650376)"
     id="g84">
    <path
       transform="scale(0.004,-0.004)"
       d="m 27,41 -1,-66 v -11 c 0,-22 1,-44 4,-66 45,38 93,80 93,139 0,33 -14,67 -43,67 C 49,104 28,74 27,41 Z m -42,-179 -12,595 c 8,5 18,8 27,8 9,0 19,-3 27,-8 L 20,112 c 25,21 58,34 91,34 52,0 89,-48 89,-102 0,-80 -86,-117 -147,-169 -15,-13 -24,-38 -45,-38 -13,0 -23,11 -23,25 z"
       fill="currentColor"
       id="path83" />
  </g>
  <a
     style="color:inherit"
     xlink:href="textedit:///Users/devonnuri/Documents/typst/241230%20Linear%20Harmony/lilypond/fig_226.ly:13:13:14"
     id="a85"
     transform="translate(-8.5358,-6.690724)">
    <g
       transform="translate(72.681,12.3411)"
       id="g85">
      <path
         transform="scale(0.004,-0.004)"
         d="M 0,-46 C 0,45 116,136 217,136 280,136 326,101 326,46 326,-41 216,-136 106,-136 39,-136 0,-97 0,-46 Z"
         fill="currentColor"
         id="path84" />
    </g>
  </a>
  <g
     transform="translate(64.2102,7.150376)"
     id="g86">
    <rect
       x="-0.064999998"
       y="-1.3138"
       width="0.13"
       height="3.1238"
       ry="0.039999999"
       fill="currentColor"
       id="rect85" />
  </g>
  <a
     style="color:inherit"
     xlink:href="textedit:///Users/devonnuri/Documents/typst/241230%20Linear%20Harmony/lilypond/fig_226.ly:13:16:17"
     id="a87"
     transform="translate(-8.5358,-6.690724)">
    <g
       transform="translate(75.6312,12.3411)"
       id="g87">
      <path
         transform="scale(0.004,-0.004)"
         d="M 0,-46 C 0,45 116,136 217,136 280,136 326,101 326,46 326,-41 216,-136 106,-136 39,-136 0,-97 0,-46 Z"
         fill="currentColor"
         id="path86" />
    </g>
  </a>
  <g
     transform="translate(67.1604,7.150376)"
     id="g88">
    <rect
       x="-0.064999998"
       y="-1.3138"
       width="0.13"
       height="3.1238"
       ry="0.039999999"
       fill="currentColor"
       id="rect87" />
  </g>
  <g
     transform="translate(66.0494,5.650376)"
     id="g89">
    <path
       transform="scale(0.004,-0.004)"
       d="m -7,375 c 8,4 17,7 25,7 8,0 16,-3 24,-7 l -2,-183 106,20 h 3 c 10,0 18,-7 18,-17 l 7,-570 c -8,-4 -17,-7 -25,-7 -8,0 -16,3 -24,7 l 2,183 -106,-20 h -3 c -10,0 -18,7 -18,17 z M 131,112 39,95 l -3,-207 92,17 z"
       fill="currentColor"
       id="path88" />
  </g>
  <a
     style="color:inherit"
     xlink:href="textedit:///Users/devonnuri/Documents/typst/241230%20Linear%20Harmony/lilypond/fig_226.ly:13:18:19"
     id="a90"
     transform="translate(-8.5358,-6.690724)">
    <g
       transform="translate(78.1354,11.8411)"
       id="g90">
      <path
         transform="scale(0.004,-0.004)"
         d="M 0,-46 C 0,45 116,136 217,136 280,136 326,101 326,46 326,-41 216,-136 106,-136 39,-136 0,-97 0,-46 Z"
         fill="currentColor"
         id="path89" />
    </g>
  </a>
  <g
     transform="translate(69.6646,7.150376)"
     id="g91">
    <rect
       x="-0.064999998"
       y="-1.8138"
       width="0.13"
       height="2.8175001"
       ry="0.039999999"
       fill="currentColor"
       id="rect90" />
  </g>
  <a
     style="color:inherit"
     xlink:href="textedit:///Users/devonnuri/Documents/typst/241230%20Linear%20Harmony/lilypond/fig_226.ly:13:20:21"
     id="a92"
     transform="translate(-8.5358,-6.690724)">
    <g
       transform="translate(81.3096,12.3411)"
       id="g92">
      <path
         transform="scale(0.004,-0.004)"
         d="M 0,-46 C 0,45 116,136 217,136 280,136 326,101 326,46 326,-41 216,-136 106,-136 39,-136 0,-97 0,-46 Z"
         fill="currentColor"
         id="path91" />
    </g>
  </a>
  <g
     transform="translate(72.8388,7.150376)"
     id="g93">
    <rect
       x="-0.064999998"
       y="-1.3138"
       width="0.13"
       height="2.5000999"
       ry="0.039999999"
       fill="currentColor"
       id="rect92" />
  </g>
  <g
     transform="translate(71.6238,5.650376)"
     id="g94">
    <path
       transform="scale(0.004,-0.004)"
       d="m 27,41 -1,-66 v -11 c 0,-22 1,-44 4,-66 45,38 93,80 93,139 0,33 -14,67 -43,67 C 49,104 28,74 27,41 Z m -42,-179 -12,595 c 8,5 18,8 27,8 9,0 19,-3 27,-8 L 20,112 c 25,21 58,34 91,34 52,0 89,-48 89,-102 0,-80 -86,-117 -147,-169 -15,-13 -24,-38 -45,-38 -13,0 -23,11 -23,25 z"
       fill="currentColor"
       id="path93" />
  </g>
  <a
     style="color:inherit"
     xlink:href="textedit:///Users/devonnuri/Documents/typst/241230%20Linear%20Harmony/lilypond/fig_226.ly:8:24:25"
     id="a98"
     transform="translate(-8.5358,-6.690724)">
    <g
       transform="translate(84.8278,8.8411)"
       id="g95">
      <text
         font-family="'Tex Gyre Termes'"
         font-size="2.3308px"
         text-anchor="start"
         fill="currentColor"
         id="text94"><tspan
           id="tspan94">B</tspan></text>
    </g>
    <g
       transform="translate(86.6156,8.558)"
       id="g96">
      <path
         transform="scale(0.0038,-0.0038)"
         d="m 29,39 -2,-64 v -11 c 0,-22 2,-43 5,-65 44,38 91,80 91,138 0,33 -13,66 -42,66 C 50,103 30,72 29,39 Z m -57,415 c 9,5 18,8 28,8 10,0 19,-3 28,-8 L 21,111 c 25,23 58,36 92,36 51,0 87,-49 87,-103 0,-79 -84,-117 -144,-169 -16,-14 -25,-41 -47,-41 -14,0 -25,13 -25,27 z"
         fill="currentColor"
         id="path95" />
    </g>
    <g
       transform="translate(87.4207,7.7817)"
       id="g97">
      <polygon
         stroke-linejoin="round"
         stroke-linecap="round"
         stroke-width="0.1"
         fill="none"
         stroke="currentColor"
         points="0,0 0.4768,-0.82 0.9535,0 "
         id="polygon96" />
    </g>
    <g
       transform="translate(88.4242,7.7817)"
       id="g98">
      <text
         font-family="'Tex Gyre Termes'"
         font-size="1.648px"
         text-anchor="start"
         fill="currentColor"
         id="text97"><tspan
           id="tspan97">7</tspan></text>
    </g>
  </a>
  <a
     style="color:inherit"
     xlink:href="textedit:///Users/devonnuri/Documents/typst/241230%20Linear%20Harmony/lilypond/fig_226.ly:14:2:3"
     id="a99"
     transform="translate(-8.5358,-6.690724)">
    <g
       transform="translate(84.8278,12.8411)"
       id="g99">
      <path
         transform="scale(0.004,-0.004)"
         d="M 0,-46 C 0,45 116,136 217,136 280,136 326,101 326,46 326,-41 216,-136 106,-136 39,-136 0,-97 0,-46 Z"
         fill="currentColor"
         id="path98" />
    </g>
  </a>
  <g
     transform="translate(76.357,7.150376)"
     id="g100">
    <rect
       x="-0.064999998"
       y="-0.81379998"
       width="0.13"
       height="3.3138001"
       ry="0.039999999"
       fill="currentColor"
       id="rect99" />
  </g>
  <a
     style="color:inherit"
     xlink:href="textedit:///Users/devonnuri/Documents/typst/241230%20Linear%20Harmony/lilypond/fig_226.ly:14:15:16"
     id="a101"
     transform="translate(-8.5358,-6.690724)">
    <g
       transform="translate(88.532,13.8411)"
       id="g101">
      <path
         transform="scale(0.004,-0.004)"
         d="m -6,78 c 0,59 124,83 124,182 0,24 -8,49 -25,69 l -35,42 c -3,3 -4,7 -4,10 0,9 9,15 17,15 4,0 8,-1 11,-5 L 233,211 c 7,-9 10,-17 10,-25 0,-59 -124,-83 -124,-182 0,-24 7,-49 24,-69 l 84,-99 c 3,-3 4,-7 4,-10 0,-9 -8,-16 -16,-16 -8,0 -45,44 -109,44 -16,0 -53,0 -53,-67 0,-62 30,-97 30,-100 0,-4 -4,-7 -8,-7 -13,0 -98,130 -98,204 0,41 27,42 40,42 33,0 78,-13 119,-31 L 4,53 C -3,62 -6,70 -6,78 Z"
         fill="currentColor"
         id="path100" />
    </g>
  </a>
  <a
     style="color:inherit"
     xlink:href="textedit:///Users/devonnuri/Documents/typst/241230%20Linear%20Harmony/lilypond/fig_226.ly:14:17:18"
     id="a102"
     transform="translate(-8.5358,-6.690724)">
    <g
       transform="translate(91.882,13.8411)"
       id="g102">
      <path
         transform="scale(0.004,-0.004)"
         d="M 365,0 H 10 C 4,0 0,4 0,10 v 136 c 0,6 4,10 10,10 h 355 c 6,0 10,-4 10,-10 V 10 C 375,4 371,0 365,0 Z"
         fill="currentColor"
         id="path101" />
    </g>
  </a>
</svg>
