<?xml version="1.0" encoding="UTF-8" standalone="no"?>
<svg
   version="1.2"
   width="122.97066mm"
   height="24.678055mm"
   viewBox="0 0 69.977101 14.043176"
   id="svg99"
   sodipodi:docname="fig_060.svg"
   xmlns:inkscape="http://www.inkscape.org/namespaces/inkscape"
   xmlns:sodipodi="http://sodipodi.sourceforge.net/DTD/sodipodi-0.dtd"
   xmlns:xlink="http://www.w3.org/1999/xlink"
   xmlns="http://www.w3.org/2000/svg"
   xmlns:svg="http://www.w3.org/2000/svg">
  <defs
     id="defs99" />
  <sodipodi:namedview
     id="namedview99"
     pagecolor="#505050"
     bordercolor="#eeeeee"
     borderopacity="1"
     inkscape:showpageshadow="0"
     inkscape:pageopacity="0"
     inkscape:pagecheckerboard="0"
     inkscape:deskcolor="#505050"
     inkscape:document-units="mm" />
  <style
     type="text/css"
     id="style1"><![CDATA[
tspan { white-space: pre; }
]]></style>
  <g
     transform="translate(69.7871,7.150376)"
     id="g1">
    <rect
       x="0"
       y="-2"
       width="0.19"
       height="4"
       ry="0.0000"
       fill="currentColor"
       id="rect1" />
  </g>
  <g
     transform="translate(69.2971,7.150376)"
     id="g2">
    <rect
       x="0"
       y="-2"
       width="0.19"
       height="4"
       ry="0.0000"
       fill="currentColor"
       id="rect2" />
  </g>
  <g
     transform="translate(0,10.150376)"
     id="g3">
    <rect
       x="61.043598"
       y="-0.1"
       width="1.9563"
       height="0.2"
       ry="0.1"
       fill="currentColor"
       id="rect3" />
  </g>
  <g
     transform="translate(0,10.150376)"
     id="g4">
    <rect
       x="56.035198"
       y="-0.1"
       width="1.9563"
       height="0.2"
       ry="0.1"
       fill="currentColor"
       id="rect4" />
  </g>
  <g
     transform="translate(0,10.150376)"
     id="g5">
    <rect
       x="53.280998"
       y="-0.1"
       width="1.9563"
       height="0.2"
       ry="0.1"
       fill="currentColor"
       id="rect5" />
  </g>
  <g
     transform="translate(0,11.150376)"
     id="g6">
    <rect
       x="53.280998"
       y="-0.1"
       width="1.9563"
       height="0.2"
       ry="0.1"
       fill="currentColor"
       id="rect6" />
  </g>
  <g
     transform="translate(0,10.150376)"
     id="g7">
    <rect
       x="50.158199"
       y="-0.1"
       width="1.9062999"
       height="0.2"
       ry="0.1"
       fill="currentColor"
       id="rect7" />
  </g>
  <g
     transform="translate(0,10.150376)"
     id="g8">
    <rect
       x="48.151901"
       y="-0.1"
       width="1.9062999"
       height="0.2"
       ry="0.1"
       fill="currentColor"
       id="rect8" />
  </g>
  <g
     transform="translate(0,10.150376)"
     id="g9">
    <rect
       x="45.647701"
       y="-0.1"
       width="1.9563"
       height="0.2"
       ry="0.1"
       fill="currentColor"
       id="rect9" />
  </g>
  <g
     transform="translate(0,10.150376)"
     id="g10">
    <rect
       x="43.143501"
       y="-0.1"
       width="1.9563"
       height="0.2"
       ry="0.1"
       fill="currentColor"
       id="rect10" />
  </g>
  <g
     transform="translate(0,11.150376)"
     id="g11">
    <rect
       x="43.143501"
       y="-0.1"
       width="1.9563"
       height="0.2"
       ry="0.1"
       fill="currentColor"
       id="rect11" />
  </g>
  <g
     transform="translate(0,10.150376)"
     id="g12">
    <rect
       x="40.889301"
       y="-0.1"
       width="1.9563"
       height="0.2"
       ry="0.1"
       fill="currentColor"
       id="rect12" />
  </g>
  <g
     transform="translate(0,10.150376)"
     id="g13">
    <rect
       x="38.135101"
       y="-0.1"
       width="1.9563"
       height="0.2"
       ry="0.1"
       fill="currentColor"
       id="rect13" />
  </g>
  <g
     transform="translate(0,11.150376)"
     id="g14">
    <rect
       x="38.135101"
       y="-0.1"
       width="1.9563"
       height="0.2"
       ry="0.1"
       fill="currentColor"
       id="rect14" />
  </g>
  <g
     transform="translate(0,10.150376)"
     id="g15">
    <rect
       x="35.630901"
       y="-0.1"
       width="1.9563"
       height="0.2"
       ry="0.1"
       fill="currentColor"
       id="rect15" />
  </g>
  <g
     transform="translate(0,11.150376)"
     id="g16">
    <rect
       x="35.630901"
       y="-0.1"
       width="1.9563"
       height="0.2"
       ry="0.1"
       fill="currentColor"
       id="rect16" />
  </g>
  <g
     transform="translate(0,10.150376)"
     id="g17">
    <rect
       x="33.277802"
       y="-0.1"
       width="1.8053"
       height="0.2"
       ry="0.1"
       fill="currentColor"
       id="rect17" />
  </g>
  <g
     transform="translate(0,10.150376)"
     id="g18">
    <rect
       x="26.1084"
       y="-0.1"
       width="1.9563"
       height="0.2"
       ry="0.1"
       fill="currentColor"
       id="rect18" />
  </g>
  <g
     transform="translate(0,9.150376)"
     id="g19">
    <line
       stroke-linejoin="round"
       stroke-linecap="round"
       stroke-width="0.1"
       stroke="currentColor"
       x1="0.050000001"
       y1="0"
       x2="69.927101"
       y2="0"
       id="line18" />
  </g>
  <g
     transform="translate(0,8.150376)"
     id="g20">
    <line
       stroke-linejoin="round"
       stroke-linecap="round"
       stroke-width="0.1"
       stroke="currentColor"
       x1="0.050000001"
       y1="0"
       x2="69.927101"
       y2="0"
       id="line19" />
  </g>
  <g
     transform="translate(0,7.150376)"
     id="g21">
    <line
       stroke-linejoin="round"
       stroke-linecap="round"
       stroke-width="0.1"
       stroke="currentColor"
       x1="0.050000001"
       y1="0"
       x2="69.927101"
       y2="0"
       id="line20" />
  </g>
  <g
     transform="translate(0,6.150376)"
     id="g22">
    <line
       stroke-linejoin="round"
       stroke-linecap="round"
       stroke-width="0.1"
       stroke="currentColor"
       x1="0.050000001"
       y1="0"
       x2="69.927101"
       y2="0"
       id="line21" />
  </g>
  <g
     transform="translate(0,5.150376)"
     id="g23">
    <line
       stroke-linejoin="round"
       stroke-linecap="round"
       stroke-width="0.1"
       stroke="currentColor"
       x1="0.050000001"
       y1="0"
       x2="69.927101"
       y2="0"
       id="line22" />
  </g>
  <g
     transform="translate(52.5171,7.150376)"
     id="g24">
    <rect
       x="0"
       y="-2"
       width="0.19"
       height="4"
       ry="0.0000"
       fill="currentColor"
       id="rect23" />
  </g>
  <g
     transform="translate(29.1886,7.150376)"
     id="g25">
    <rect
       x="0"
       y="-2"
       width="0.19"
       height="4"
       ry="0.0000"
       fill="currentColor"
       id="rect24" />
  </g>
  <g
     transform="translate(60.0397,6.960376)"
     id="g26">
    <polygon
       stroke-linejoin="round"
       stroke-linecap="round"
       stroke-width="0.08"
       fill="currentColor"
       stroke="currentColor"
       points="0.04,0.2 0.04,-0.2 2.5942,-0.01 2.5942,0.39 "
       id="polygon25" />
  </g>
  <g
     transform="translate(54.7813,7.150376)"
     id="g27">
    <polygon
       stroke-linejoin="round"
       stroke-linecap="round"
       stroke-width="0.08"
       fill="currentColor"
       stroke="currentColor"
       points="0.04,0.2 0.04,-0.2 2.8442,-0.39 2.8442,0.01 "
       id="polygon26" />
  </g>
  <a
     style="color:inherit"
     xlink:href="textedit:///Users/devonnuri/Documents/typst/241230%20Linear%20Harmony/lilypond/fig_060.ly:7:4:5"
     id="a30"
     transform="translate(-8.5358,-6.690724)">
    <g
       transform="translate(17.6908,8.8411)"
       id="g28">
      <text
         font-family="'Tex Gyre Termes'"
         font-size="2.3308px"
         text-anchor="start"
         fill="currentColor"
         id="text27"><tspan
           id="tspan27">G</tspan></text>
    </g>
    <g
       transform="translate(19.3638,8.8411)"
       id="g29">
      <text
         font-family="'Tex Gyre Termes'"
         font-size="2.3308px"
         text-anchor="start"
         fill="currentColor"
         id="text28"><tspan
           id="tspan28">m</tspan></text>
    </g>
    <g
       transform="translate(21.1734,7.7817)"
       id="g30">
      <text
         font-family="'Tex Gyre Termes'"
         font-size="1.648px"
         text-anchor="start"
         fill="currentColor"
         id="text29"><tspan
           id="tspan29">7</tspan></text>
    </g>
  </a>
  <a
     style="color:inherit"
     xlink:href="textedit:///Users/devonnuri/Documents/typst/241230%20Linear%20Harmony/lilypond/fig_060.ly:10:4:5"
     id="a31"
     transform="translate(-8.5358,-6.690724)">
    <g
       transform="translate(17.6908,13.8411)"
       id="g31">
      <path
         transform="scale(0.004,-0.004)"
         d="M 0,-46 C 0,45 116,136 217,136 280,136 326,101 326,46 326,-41 216,-136 106,-136 39,-136 0,-97 0,-46 Z"
         fill="currentColor"
         id="path30" />
    </g>
  </a>
  <a
     style="color:inherit"
     xlink:href="textedit:///Users/devonnuri/Documents/typst/241230%20Linear%20Harmony/lilypond/fig_060.ly:10:9:10"
     id="a32"
     transform="translate(-8.5358,-6.690724)">
    <g
       transform="translate(17.6908,17.8649)"
       id="g32">
      <text
         font-family="'Tex Gyre Termes'"
         font-size="2.2px"
         text-anchor="start"
         fill="currentColor"
         id="text31"><tspan
           id="tspan31">↑</tspan></text>
    </g>
  </a>
  <g
     transform="translate(0.8,8.150376)"
     id="g33">
    <path
       transform="scale(0.004,-0.004)"
       d="m 266,-635 h -6 c -108,0 -195,88 -195,197 0,58 53,103 112,103 54,0 95,-47 95,-103 0,-52 -43,-95 -95,-95 -11,0 -21,2 -31,6 26,-39 68,-65 117,-65 h 4 z m 135,786 c 19,-89 48,-242 60,-354 76,27 112,94 112,163 0,89 -60,179 -172,191 z M 74,28 c 0,-112 98,-247 278,-247 21,0 44,2 68,6 -7,64 -29,203 -63,364 -79,-8 -124,-61 -124,-119 0,-44 25,-91 81,-123 5,-5 7,-10 7,-15 0,-11 -10,-22 -22,-22 -15,0 -126,62 -126,187 0,88 58,174 160,197 -14,58 -29,117 -46,175 C 180,310 74,188 74,28 Z m 283,1166 c 28,0 143,-206 143,-361 0,-143 -86,-255 -180,-364 21,-68 39,-138 56,-207 5,0 10,1 14,1 155,0 255,-129 255,-262 0,-113 -74,-212 -180,-245 3,-35 5,-70 5,-105 0,-19 -1,-39 -2,-58 -7,-119 -88,-225 -202,-228 l 1,43 c 93,2 153,92 159,191 1,18 2,37 2,55 0,31 -1,61 -4,92 -28,-5 -55,-8 -80,-8 -239,0 -342,217 -342,374 0,177 131,306 248,441 -29,96 -52,170 -52,346 0,189 144,295 159,295 z M 247,782 c 0,-55 12,-115 35,-190 83,100 147,202 147,326 0,40 -6,82 -21,127 -49,-24 -161,-97 -161,-263 z"
       fill="currentColor"
       id="path32" />
  </g>
  <g
     transform="translate(4.885,7.150376)"
     id="g34">
    <path
       transform="scale(0.004,-0.004)"
       d="M 433,-89 C 433,-111 383,-263 250,-263 191,-263 0,-244 0,0 0,62 18,262 250,262 366,262 426,156 426,99 426,59 396,27 359,27 c -31,0 -75,25 -75,75 0,38 27,77 72,77 4,0 9,0 14,-1 -28,37 -72,59 -120,59 C 144,237 137,164 137,51 V 0 -51 c 0,-113 7,-187 113,-187 80,0 139,70 158,151 2,7 7,10 12,10 6,0 13,-4 13,-12 z"
       fill="currentColor"
       id="path33" />
  </g>
  <g
     transform="translate(10.3942,7.150376)"
     id="g35">
    <rect
       x="-0.064999998"
       y="-2.9953001"
       width="0.13"
       height="2.8090999"
       ry="0.039999999"
       fill="currentColor"
       id="rect34" />
  </g>
  <g
     transform="translate(8.005,7.150376)"
     id="g36">
    <path
       transform="scale(0.004,-0.004)"
       d="m 27,41 -1,-66 v -11 c 0,-22 1,-44 4,-66 45,38 93,80 93,139 0,33 -14,67 -43,67 C 49,104 28,74 27,41 Z m -42,-179 -12,595 c 8,5 18,8 27,8 9,0 19,-3 27,-8 L 20,112 c 25,21 58,34 91,34 52,0 89,-48 89,-102 0,-80 -86,-117 -147,-169 -15,-13 -24,-38 -45,-38 -13,0 -23,11 -23,25 z"
       fill="currentColor"
       id="path35" />
  </g>
  <g
     transform="translate(47.148,7.150376)"
     id="g37">
    <polygon
       stroke-linejoin="round"
       stroke-linecap="round"
       stroke-width="0.08"
       fill="currentColor"
       stroke="currentColor"
       points="0.04,0.2 0.04,-0.2 4.5505,-0.2 4.5505,0.2 "
       id="polygon36" />
  </g>
  <g
     transform="translate(49.6522,7.960376)"
     id="g38">
    <polygon
       stroke-linejoin="round"
       stroke-linecap="round"
       stroke-width="0.08"
       fill="currentColor"
       stroke="currentColor"
       points="0.04,0.2 0.04,-0.2 2.0463,-0.2 2.0463,0.2 "
       id="polygon37" />
  </g>
  <a
     style="color:inherit"
     xlink:href="textedit:///Users/devonnuri/Documents/typst/241230%20Linear%20Harmony/lilypond/fig_060.ly:10:14:15"
     id="a39"
     transform="translate(-8.5358,-6.690724)">
    <g
       transform="translate(20.195,14.3411)"
       id="g39">
      <path
         transform="scale(0.004,-0.004)"
         d="M 0,-46 C 0,45 116,136 217,136 280,136 326,101 326,46 326,-41 216,-136 106,-136 39,-136 0,-97 0,-46 Z"
         fill="currentColor"
         id="path38" />
    </g>
  </a>
  <a
     style="color:inherit"
     xlink:href="textedit:///Users/devonnuri/Documents/typst/241230%20Linear%20Harmony/lilypond/fig_060.ly:10:15:16"
     id="a40"
     transform="translate(-8.5358,-6.690724)">
    <g
       transform="translate(20.195,17.8649)"
       id="g40">
      <text
         font-family="'Tex Gyre Termes'"
         font-size="2.2px"
         text-anchor="start"
         fill="currentColor"
         id="text39"><tspan
           id="tspan39">↑</tspan></text>
    </g>
  </a>
  <g
     transform="translate(12.8984,7.150376)"
     id="g41">
    <rect
       x="-0.064999998"
       y="-2.8146999"
       width="0.13"
       height="3.1285"
       ry="0.039999999"
       fill="currentColor"
       id="rect40" />
  </g>
  <g
     transform="translate(42.3896,6.960376)"
     id="g42">
    <polygon
       stroke-linejoin="round"
       stroke-linecap="round"
       stroke-width="0.08"
       fill="currentColor"
       stroke="currentColor"
       points="0.04,0.2 0.04,-0.2 2.3442,-0.01 2.3442,0.39 "
       id="polygon41" />
  </g>
  <a
     style="color:inherit"
     xlink:href="textedit:///Users/devonnuri/Documents/typst/241230%20Linear%20Harmony/lilypond/fig_060.ly:10:20:21"
     id="a43"
     transform="translate(-8.5358,-6.690724)">
    <g
       transform="translate(22.6992,14.8411)"
       id="g43">
      <path
         transform="scale(0.004,-0.004)"
         d="M 0,-46 C 0,45 116,136 217,136 280,136 326,101 326,46 326,-41 216,-136 106,-136 39,-136 0,-97 0,-46 Z"
         fill="currentColor"
         id="path42" />
    </g>
  </a>
  <a
     style="color:inherit"
     xlink:href="textedit:///Users/devonnuri/Documents/typst/241230%20Linear%20Harmony/lilypond/fig_060.ly:10:21:22"
     id="a44"
     transform="translate(-8.5358,-6.690724)">
    <g
       transform="translate(22.6992,17.8649)"
       id="g44">
      <text
         font-family="'Tex Gyre Termes'"
         font-size="2.2px"
         text-anchor="start"
         fill="currentColor"
         id="text43"><tspan
           id="tspan43">↑</tspan></text>
    </g>
  </a>
  <g
     transform="translate(15.4026,7.150376)"
     id="g45">
    <rect
       x="-0.064999998"
       y="-1.9953001"
       width="0.13"
       height="2.8090999"
       ry="0.039999999"
       fill="currentColor"
       id="rect44" />
  </g>
  <g
     transform="translate(37.1312,6.960376)"
     id="g46">
    <polygon
       stroke-linejoin="round"
       stroke-linecap="round"
       stroke-width="0.08"
       fill="currentColor"
       stroke="currentColor"
       points="0.04,0.2 0.04,-0.2 2.5942,-0.01 2.5942,0.39 "
       id="polygon45" />
  </g>
  <a
     style="color:inherit"
     xlink:href="textedit:///Users/devonnuri/Documents/typst/241230%20Linear%20Harmony/lilypond/fig_060.ly:10:26:27"
     id="a47"
     transform="translate(-8.5358,-6.690724)">
    <g
       transform="translate(25.2034,15.3411)"
       id="g47">
      <path
         transform="scale(0.004,-0.004)"
         d="M 0,-46 C 0,45 116,136 217,136 280,136 326,101 326,46 326,-41 216,-136 106,-136 39,-136 0,-97 0,-46 Z"
         fill="currentColor"
         id="path46" />
    </g>
  </a>
  <a
     style="color:inherit"
     xlink:href="textedit:///Users/devonnuri/Documents/typst/241230%20Linear%20Harmony/lilypond/fig_060.ly:10:27:28"
     id="a48"
     transform="translate(-8.5358,-6.690724)">
    <g
       transform="translate(25.2034,17.8649)"
       id="g48">
      <text
         font-family="'Tex Gyre Termes'"
         font-size="2.2px"
         text-anchor="start"
         fill="currentColor"
         id="text47"><tspan
           id="tspan47">↑</tspan></text>
    </g>
  </a>
  <g
     transform="translate(17.9068,7.150376)"
     id="g49">
    <rect
       x="-0.064999998"
       y="-1.8147"
       width="0.13"
       height="3.1285"
       ry="0.039999999"
       fill="currentColor"
       id="rect48" />
  </g>
  <g
     transform="translate(31.4528,6.960376)"
     id="g50">
    <polygon
       stroke-linejoin="round"
       stroke-linecap="round"
       stroke-width="0.08"
       fill="currentColor"
       stroke="currentColor"
       points="0.04,0.2 0.04,-0.2 3.2642,-0.01 3.2642,0.39 "
       id="polygon49" />
  </g>
  <a
     style="color:inherit"
     xlink:href="textedit:///Users/devonnuri/Documents/typst/241230%20Linear%20Harmony/lilypond/fig_060.ly:10:32:33"
     id="a51"
     transform="translate(-8.5358,-6.690724)">
    <g
       transform="translate(27.7076,15.8411)"
       id="g51">
      <path
         transform="scale(0.004,-0.004)"
         d="M 0,-46 C 0,45 116,136 217,136 280,136 326,101 326,46 326,-41 216,-136 106,-136 39,-136 0,-97 0,-46 Z"
         fill="currentColor"
         id="path50" />
    </g>
  </a>
  <a
     style="color:inherit"
     xlink:href="textedit:///Users/devonnuri/Documents/typst/241230%20Linear%20Harmony/lilypond/fig_060.ly:10:33:34"
     id="a52"
     transform="translate(-8.5358,-6.690724)">
    <g
       transform="translate(27.7076,18.3599)"
       id="g52">
      <text
         font-family="'Tex Gyre Termes'"
         font-size="2.2px"
         text-anchor="start"
         fill="currentColor"
         id="text51"><tspan
           id="tspan51">↑</tspan></text>
    </g>
  </a>
  <g
     transform="translate(20.411,7.150376)"
     id="g53">
    <rect
       x="-0.064999998"
       y="-1.0046999"
       width="0.13"
       height="2.8185"
       ry="0.039999999"
       fill="currentColor"
       id="rect52" />
  </g>
  <g
     transform="translate(25.3544,6.340376)"
     id="g54">
    <polygon
       stroke-linejoin="round"
       stroke-linecap="round"
       stroke-width="0.08"
       fill="currentColor"
       stroke="currentColor"
       points="0.04,0.2 0.04,-0.2 2.3442,0.42 2.3442,0.82 "
       id="polygon53" />
  </g>
  <a
     style="color:inherit"
     xlink:href="textedit:///Users/devonnuri/Documents/typst/241230%20Linear%20Harmony/lilypond/fig_060.ly:10:38:39"
     id="a55"
     transform="translate(-8.5358,-6.690724)">
    <g
       transform="translate(30.2118,15.3411)"
       id="g55">
      <path
         transform="scale(0.004,-0.004)"
         d="M 0,-46 C 0,45 116,136 217,136 280,136 326,101 326,46 326,-41 216,-136 106,-136 39,-136 0,-97 0,-46 Z"
         fill="currentColor"
         id="path54" />
    </g>
  </a>
  <g
     transform="translate(22.9152,7.150376)"
     id="g56">
    <rect
       x="-0.064999998"
       y="-1.1853"
       width="0.13"
       height="2.4991"
       ry="0.039999999"
       fill="currentColor"
       id="rect55" />
  </g>
  <g
     transform="translate(20.346,6.150376)"
     id="g57">
    <polygon
       stroke-linejoin="round"
       stroke-linecap="round"
       stroke-width="0.08"
       fill="currentColor"
       stroke="currentColor"
       points="0.04,0.2 0.04,-0.2 2.5942,-0.39 2.5942,0.01 "
       id="polygon56" />
  </g>
  <a
     style="color:inherit"
     xlink:href="textedit:///Users/devonnuri/Documents/typst/241230%20Linear%20Harmony/lilypond/fig_060.ly:10:40:41"
     id="a58"
     transform="translate(-8.5358,-6.690724)">
    <g
       transform="translate(32.716,15.8411)"
       id="g58">
      <path
         transform="scale(0.004,-0.004)"
         d="M 0,-46 C 0,45 116,136 217,136 280,136 326,101 326,46 326,-41 216,-136 106,-136 39,-136 0,-97 0,-46 Z"
         fill="currentColor"
         id="path57" />
    </g>
  </a>
  <g
     transform="translate(25.4194,7.150376)"
     id="g59">
    <rect
       x="-0.064999998"
       y="-0.7931"
       width="0.13"
       height="2.6069"
       ry="0.039999999"
       fill="currentColor"
       id="rect58" />
  </g>
  <g
     transform="translate(15.3376,5.150376)"
     id="g60">
    <polygon
       stroke-linejoin="round"
       stroke-linecap="round"
       stroke-width="0.08"
       fill="currentColor"
       stroke="currentColor"
       points="0.04,0.2 0.04,-0.2 2.5942,-0.01 2.5942,0.39 "
       id="polygon59" />
  </g>
  <a
     style="color:inherit"
     xlink:href="textedit:///Users/devonnuri/Documents/typst/241230%20Linear%20Harmony/lilypond/fig_060.ly:10:42:43"
     id="a61"
     transform="translate(-8.5358,-6.690724)">
    <g
       transform="translate(34.9702,16.8411)"
       id="g61">
      <path
         transform="scale(0.004,-0.004)"
         d="M 0,-46 C 0,45 116,136 217,136 280,136 326,101 326,46 326,-41 216,-136 106,-136 39,-136 0,-97 0,-46 Z"
         fill="currentColor"
         id="path60" />
    </g>
  </a>
  <g
     transform="translate(27.6736,7.150376)"
     id="g62">
    <rect
       x="-0.064999998"
       y="-0.2069"
       width="0.13"
       height="3.0207"
       ry="0.039999999"
       fill="currentColor"
       id="rect61" />
  </g>
  <g
     transform="translate(10.3292,4.150376)"
     id="g63">
    <polygon
       stroke-linejoin="round"
       stroke-linecap="round"
       stroke-width="0.08"
       fill="currentColor"
       stroke="currentColor"
       points="0.04,0.2 0.04,-0.2 2.5942,-0.01 2.5942,0.39 "
       id="polygon62" />
  </g>
  <a
     style="color:inherit"
     xlink:href="textedit:///Users/devonnuri/Documents/typst/241230%20Linear%20Harmony/lilypond/fig_060.ly:7:10:11"
     id="a65"
     transform="translate(-8.5358,-6.690724)">
    <g
       transform="translate(38.8144,8.8411)"
       id="g64">
      <text
         font-family="'Tex Gyre Termes'"
         font-size="2.3308px"
         text-anchor="start"
         fill="currentColor"
         id="text63"><tspan
           id="tspan63">C</tspan></text>
    </g>
    <g
       transform="translate(40.385,7.7817)"
       id="g65">
      <text
         font-family="'Tex Gyre Termes'"
         font-size="1.648px"
         text-anchor="start"
         fill="currentColor"
         id="text64"><tspan
           id="tspan64">7</tspan></text>
    </g>
  </a>
  <a
     style="color:inherit"
     xlink:href="textedit:///Users/devonnuri/Documents/typst/241230%20Linear%20Harmony/lilypond/fig_060.ly:11:4:5"
     id="a66"
     transform="translate(-8.5358,-6.690724)">
    <g
       transform="translate(38.8144,16.3411)"
       id="g66">
      <path
         transform="scale(0.004,-0.004)"
         d="M 0,-46 C 0,45 116,136 217,136 280,136 326,101 326,46 326,-41 216,-136 106,-136 39,-136 0,-97 0,-46 Z"
         fill="currentColor"
         id="path65" />
    </g>
  </a>
  <a
     style="color:inherit"
     xlink:href="textedit:///Users/devonnuri/Documents/typst/241230%20Linear%20Harmony/lilypond/fig_060.ly:11:5:6"
     id="a67"
     transform="translate(-8.5358,-6.690724)">
    <g
       transform="translate(38.8144,18.8599)"
       id="g67">
      <text
         font-family="'Tex Gyre Termes'"
         font-size="2.2px"
         text-anchor="start"
         fill="currentColor"
         id="text66"><tspan
           id="tspan66">↑</tspan></text>
    </g>
  </a>
  <g
     transform="translate(31.5178,7.150376)"
     id="g68">
    <rect
       x="-0.064999998"
       y="-0.18629999"
       width="0.13"
       height="2.5000999"
       ry="0.039999999"
       fill="currentColor"
       id="rect67" />
  </g>
  <a
     style="color:inherit"
     xlink:href="textedit:///Users/devonnuri/Documents/typst/241230%20Linear%20Harmony/lilypond/fig_060.ly:11:10:11"
     id="a69"
     transform="translate(-8.5358,-6.690724)">
    <g
       transform="translate(41.9886,17.3411)"
       id="g69">
      <path
         transform="scale(0.004,-0.004)"
         d="M 0,-46 C 0,45 116,136 217,136 280,136 326,101 326,46 326,-41 216,-136 106,-136 39,-136 0,-97 0,-46 Z"
         fill="currentColor"
         id="path68" />
    </g>
  </a>
  <g
     transform="translate(34.692,7.150376)"
     id="g70">
    <rect
       x="-0.064999998"
       y="-0.0037"
       width="0.13"
       height="3.3175001"
       ry="0.039999999"
       fill="currentColor"
       id="rect69" />
  </g>
  <g
     transform="translate(32.3028,10.650376)"
     id="g71">
    <path
       transform="scale(0.004,-0.004)"
       d="m 27,41 -1,-66 v -11 c 0,-22 1,-44 4,-66 45,38 93,80 93,139 0,33 -14,67 -43,67 C 49,104 28,74 27,41 Z m -42,-179 -12,595 c 8,5 18,8 27,8 9,0 19,-3 27,-8 L 20,112 c 25,21 58,34 91,34 52,0 89,-48 89,-102 0,-80 -86,-117 -147,-169 -15,-13 -24,-38 -45,-38 -13,0 -23,11 -23,25 z"
       fill="currentColor"
       id="path70" />
  </g>
  <a
     style="color:inherit"
     xlink:href="textedit:///Users/devonnuri/Documents/typst/241230%20Linear%20Harmony/lilypond/fig_060.ly:11:14:15"
     id="a72"
     transform="translate(-8.5358,-6.690724)">
    <g
       transform="translate(44.4928,17.8411)"
       id="g72">
      <path
         transform="scale(0.004,-0.004)"
         d="M 0,-46 C 0,45 116,136 217,136 280,136 326,101 326,46 326,-41 216,-136 106,-136 39,-136 0,-97 0,-46 Z"
         fill="currentColor"
         id="path71" />
    </g>
  </a>
  <g
     transform="translate(37.1962,7.150376)"
     id="g73">
    <rect
       x="-0.064999998"
       y="-0.18529999"
       width="0.13"
       height="3.9991"
       ry="0.039999999"
       fill="currentColor"
       id="rect72" />
  </g>
  <a
     style="color:inherit"
     xlink:href="textedit:///Users/devonnuri/Documents/typst/241230%20Linear%20Harmony/lilypond/fig_060.ly:11:16:17"
     id="a74"
     transform="translate(-8.5358,-6.690724)">
    <g
       transform="translate(46.997,18.3411)"
       id="g74">
      <path
         transform="scale(0.004,-0.004)"
         d="M 0,-46 C 0,45 116,136 217,136 280,136 326,101 326,46 326,-41 216,-136 106,-136 39,-136 0,-97 0,-46 Z"
         fill="currentColor"
         id="path73" />
    </g>
  </a>
  <g
     transform="translate(39.7004,7.150376)"
     id="g75">
    <rect
       x="-0.064999998"
       y="-0.0046999999"
       width="0.13"
       height="4.3185"
       ry="0.039999999"
       fill="currentColor"
       id="rect74" />
  </g>
  <a
     style="color:inherit"
     xlink:href="textedit:///Users/devonnuri/Documents/typst/241230%20Linear%20Harmony/lilypond/fig_060.ly:11:18:19"
     id="a76"
     transform="translate(-8.5358,-6.690724)">
    <g
       transform="translate(49.7512,16.8411)"
       id="g76">
      <path
         transform="scale(0.004,-0.004)"
         d="M 0,-46 C 0,45 116,136 217,136 280,136 326,101 326,46 326,-41 216,-136 106,-136 39,-136 0,-97 0,-46 Z"
         fill="currentColor"
         id="path75" />
    </g>
  </a>
  <a
     style="color:inherit"
     xlink:href="textedit:///Users/devonnuri/Documents/typst/241230%20Linear%20Harmony/lilypond/fig_060.ly:11:19:20"
     id="a77"
     transform="translate(-8.5358,-6.690724)">
    <g
       transform="translate(49.7512,19.3599)"
       id="g77">
      <text
         font-family="'Tex Gyre Termes'"
         font-size="2.2px"
         text-anchor="start"
         fill="currentColor"
         id="text76"><tspan
           id="tspan76">↑</tspan></text>
    </g>
  </a>
  <g
     transform="translate(42.4546,7.150376)"
     id="g78">
    <rect
       x="-0.064999998"
       y="-0.1848"
       width="0.13"
       height="2.9986"
       ry="0.039999999"
       fill="currentColor"
       id="rect77" />
  </g>
  <a
     style="color:inherit"
     xlink:href="textedit:///Users/devonnuri/Documents/typst/241230%20Linear%20Harmony/lilypond/fig_060.ly:11:24:25"
     id="a79"
     transform="translate(-8.5358,-6.690724)">
    <g
       transform="translate(52.0054,17.8411)"
       id="g79">
      <path
         transform="scale(0.004,-0.004)"
         d="M 0,-46 C 0,45 116,136 217,136 280,136 326,101 326,46 326,-41 216,-136 106,-136 39,-136 0,-97 0,-46 Z"
         fill="currentColor"
         id="path78" />
    </g>
  </a>
  <g
     transform="translate(44.7088,7.150376)"
     id="g80">
    <rect
       x="-0.064999998"
       y="-0.0052"
       width="0.13"
       height="3.819"
       ry="0.039999999"
       fill="currentColor"
       id="rect79" />
  </g>
  <a
     style="color:inherit"
     xlink:href="textedit:///Users/devonnuri/Documents/typst/241230%20Linear%20Harmony/lilypond/fig_060.ly:11:26:27"
     id="a81"
     transform="translate(-8.5358,-6.690724)">
    <g
       transform="translate(54.5096,17.3411)"
       id="g81">
      <path
         transform="scale(0.004,-0.004)"
         d="M 0,-46 C 0,45 116,136 217,136 280,136 326,101 326,46 326,-41 216,-136 106,-136 39,-136 0,-97 0,-46 Z"
         fill="currentColor"
         id="path80" />
    </g>
  </a>
  <a
     style="color:inherit"
     xlink:href="textedit:///Users/devonnuri/Documents/typst/241230%20Linear%20Harmony/lilypond/fig_060.ly:11:29:30"
     id="a82"
     transform="translate(-8.5358,-6.690724)">
    <g
       transform="translate(54.5096,19.8599)"
       id="g82">
      <text
         font-family="'Tex Gyre Termes'"
         font-size="2.2px"
         text-anchor="start"
         fill="currentColor"
         id="text81"><tspan
           id="tspan81">↑</tspan></text>
    </g>
  </a>
  <g
     transform="translate(47.213,7.150376)"
     id="g83">
    <rect
       x="-0.064999998"
       y="0"
       width="0.13"
       height="3.3138001"
       ry="0.039999999"
       fill="currentColor"
       id="rect82" />
  </g>
  <a
     style="color:inherit"
     xlink:href="textedit:///Users/devonnuri/Documents/typst/241230%20Linear%20Harmony/lilypond/fig_060.ly:11:34:35"
     id="a84"
     transform="translate(-8.5358,-6.690724)">
    <g
       transform="translate(57.0138,16.8411)"
       id="g84">
      <path
         transform="scale(0.004,-0.004)"
         d="M 0,-46 C 0,45 116,136 217,136 280,136 326,101 326,46 326,-41 216,-136 106,-136 39,-136 0,-97 0,-46 Z"
         fill="currentColor"
         id="path83" />
    </g>
  </a>
  <g
     transform="translate(49.7172,7.150376)"
     id="g85">
    <rect
       x="-0.064999998"
       y="0"
       width="0.13"
       height="2.8138001"
       ry="0.039999999"
       fill="currentColor"
       id="rect84" />
  </g>
  <a
     style="color:inherit"
     xlink:href="textedit:///Users/devonnuri/Documents/typst/241230%20Linear%20Harmony/lilypond/fig_060.ly:11:38:39"
     id="a86"
     transform="translate(-8.5358,-6.690724)">
    <g
       transform="translate(58.9701,17.3411)"
       id="g86">
      <path
         transform="scale(0.004,-0.004)"
         d="M 0,-46 C 0,45 116,136 217,136 280,136 326,101 326,46 326,-41 216,-136 106,-136 39,-136 0,-97 0,-46 Z"
         fill="currentColor"
         id="path85" />
    </g>
  </a>
  <g
     transform="translate(51.6735,7.150376)"
     id="g87">
    <rect
       x="-0.064999998"
       y="0"
       width="0.13"
       height="3.3138001"
       ry="0.039999999"
       fill="currentColor"
       id="rect86" />
  </g>
  <a
     style="color:inherit"
     xlink:href="textedit:///Users/devonnuri/Documents/typst/241230%20Linear%20Harmony/lilypond/fig_060.ly:7:14:15"
     id="a88"
     transform="translate(-8.5358,-6.690724)">
    <g
       transform="translate(62.1429,8.8411)"
       id="g88">
      <text
         font-family="'Tex Gyre Termes'"
         font-size="2.3308px"
         text-anchor="start"
         fill="currentColor"
         id="text87"><tspan
           id="tspan87">F</tspan></text>
    </g>
  </a>
  <a
     style="color:inherit"
     xlink:href="textedit:///Users/devonnuri/Documents/typst/241230%20Linear%20Harmony/lilypond/fig_060.ly:12:4:5"
     id="a89"
     transform="translate(-8.5358,-6.690724)">
    <g
       transform="translate(62.1429,17.8411)"
       id="g89">
      <path
         transform="scale(0.004,-0.004)"
         d="M 0,-46 C 0,45 116,136 217,136 280,136 326,101 326,46 326,-41 216,-136 106,-136 39,-136 0,-97 0,-46 Z"
         fill="currentColor"
         id="path88" />
    </g>
  </a>
  <a
     style="color:inherit"
     xlink:href="textedit:///Users/devonnuri/Documents/typst/241230%20Linear%20Harmony/lilypond/fig_060.ly:12:6:7"
     id="a90"
     transform="translate(-8.5358,-6.690724)">
    <g
       transform="translate(62.1429,20.3599)"
       id="g90">
      <text
         font-family="'Tex Gyre Termes'"
         font-size="2.2px"
         text-anchor="start"
         fill="currentColor"
         id="text89"><tspan
           id="tspan89">↑</tspan></text>
    </g>
  </a>
  <g
     transform="translate(54.8463,7.150376)"
     id="g91">
    <rect
       x="-0.064999998"
       y="-0.0043000001"
       width="0.13"
       height="3.8181"
       ry="0.039999999"
       fill="currentColor"
       id="rect90" />
  </g>
  <a
     style="color:inherit"
     xlink:href="textedit:///Users/devonnuri/Documents/typst/241230%20Linear%20Harmony/lilypond/fig_060.ly:12:11:12"
     id="a92"
     transform="translate(-8.5358,-6.690724)">
    <g
       transform="translate(64.8971,16.8411)"
       id="g92">
      <path
         transform="scale(0.004,-0.004)"
         d="M 0,-46 C 0,45 116,136 217,136 280,136 326,101 326,46 326,-41 216,-136 106,-136 39,-136 0,-97 0,-46 Z"
         fill="currentColor"
         id="path91" />
    </g>
  </a>
  <g
     transform="translate(57.6005,7.150376)"
     id="g93">
    <rect
       x="-0.064999998"
       y="-0.1857"
       width="0.13"
       height="2.9995"
       ry="0.039999999"
       fill="currentColor"
       id="rect92" />
  </g>
  <a
     style="color:inherit"
     xlink:href="textedit:///Users/devonnuri/Documents/typst/241230%20Linear%20Harmony/lilypond/fig_060.ly:12:13:14"
     id="a94"
     transform="translate(-8.5358,-6.690724)">
    <g
       transform="translate(67.4013,16.3411)"
       id="g94">
      <path
         transform="scale(0.004,-0.004)"
         d="M 0,-46 C 0,45 116,136 217,136 280,136 326,101 326,46 326,-41 216,-136 106,-136 39,-136 0,-97 0,-46 Z"
         fill="currentColor"
         id="path93" />
    </g>
  </a>
  <g
     transform="translate(60.1047,7.150376)"
     id="g95">
    <rect
       x="-0.064999998"
       y="-0.18529999"
       width="0.13"
       height="2.4991"
       ry="0.039999999"
       fill="currentColor"
       id="rect94" />
  </g>
  <a
     style="color:inherit"
     xlink:href="textedit:///Users/devonnuri/Documents/typst/241230%20Linear%20Harmony/lilypond/fig_060.ly:12:15:16"
     id="a96"
     transform="translate(-8.5358,-6.690724)">
    <g
       transform="translate(69.9055,16.8411)"
       id="g96">
      <path
         transform="scale(0.004,-0.004)"
         d="M 0,-46 C 0,45 116,136 217,136 280,136 326,101 326,46 326,-41 216,-136 106,-136 39,-136 0,-97 0,-46 Z"
         fill="currentColor"
         id="path95" />
    </g>
  </a>
  <g
     transform="translate(62.6089,7.150376)"
     id="g97">
    <rect
       x="-0.064999998"
       y="-0.0046999999"
       width="0.13"
       height="2.8185"
       ry="0.039999999"
       fill="currentColor"
       id="rect96" />
  </g>
  <g
     transform="translate(65.4363,7.150376)"
     id="g98">
    <rect
       x="-0.064999998"
       y="-2.5"
       width="0.13"
       height="3.2409999"
       ry="0.039999999"
       fill="currentColor"
       id="rect97" />
  </g>
  <a
     style="color:inherit"
     xlink:href="textedit:///Users/devonnuri/Documents/typst/241230%20Linear%20Harmony/lilypond/fig_060.ly:12:17:18"
     id="a99"
     transform="translate(-8.5358,-6.690724)">
    <g
       transform="translate(72.6597,14.8411)"
       id="g99">
      <path
         transform="scale(0.004,-0.004)"
         d="m 72,-106 c 40,0 204,110 231,143 7,9 11,19 11,28 0,22 -18,41 -42,41 C 232,106 68,-4 41,-37 34,-46 31,-56 31,-65 c 0,-22 17,-41 41,-41 z M 0,-67 c 0,71 46,203 258,203 41,0 86,-10 86,-69 0,-71 -46,-203 -258,-203 -41,0 -86,10 -86,69 z"
         fill="currentColor"
         id="path98" />
    </g>
  </a>
</svg>
