<?xml version="1.0" encoding="UTF-8" standalone="no"?>
<svg
   version="1.2"
   width="125.53368mm"
   height="19.337799mm"
   viewBox="0 0 71.4356 11.004275"
   id="svg56"
   sodipodi:docname="fig_072.svg"
   xmlns:inkscape="http://www.inkscape.org/namespaces/inkscape"
   xmlns:sodipodi="http://sodipodi.sourceforge.net/DTD/sodipodi-0.dtd"
   xmlns:xlink="http://www.w3.org/1999/xlink"
   xmlns="http://www.w3.org/2000/svg"
   xmlns:svg="http://www.w3.org/2000/svg">
  <defs
     id="defs56" />
  <sodipodi:namedview
     id="namedview56"
     pagecolor="#505050"
     bordercolor="#eeeeee"
     borderopacity="1"
     inkscape:showpageshadow="0"
     inkscape:pageopacity="0"
     inkscape:pagecheckerboard="0"
     inkscape:deskcolor="#505050"
     inkscape:document-units="mm" />
  <style
     type="text/css"
     id="style1"><![CDATA[
tspan { white-space: pre; }
]]></style>
  <g
     transform="translate(71.2456,7.464276)"
     id="g1">
    <rect
       x="0"
       y="-2"
       width="0.19"
       height="4"
       ry="0.0000"
       fill="currentColor"
       id="rect1" />
  </g>
  <g
     transform="translate(70.7556,7.464276)"
     id="g2">
    <rect
       x="0"
       y="-2"
       width="0.19"
       height="4"
       ry="0.0000"
       fill="currentColor"
       id="rect2" />
  </g>
  <g
     transform="translate(0,9.464276)"
     id="g3">
    <line
       stroke-linejoin="round"
       stroke-linecap="round"
       stroke-width="0.1"
       stroke="currentColor"
       x1="0.050000001"
       y1="0"
       x2="71.385597"
       y2="0"
       id="line2" />
  </g>
  <g
     transform="translate(0,8.464276)"
     id="g4">
    <line
       stroke-linejoin="round"
       stroke-linecap="round"
       stroke-width="0.1"
       stroke="currentColor"
       x1="0.050000001"
       y1="0"
       x2="71.385597"
       y2="0"
       id="line3" />
  </g>
  <g
     transform="translate(0,7.464276)"
     id="g5">
    <line
       stroke-linejoin="round"
       stroke-linecap="round"
       stroke-width="0.1"
       stroke="currentColor"
       x1="0.050000001"
       y1="0"
       x2="71.385597"
       y2="0"
       id="line4" />
  </g>
  <g
     transform="translate(0,6.464276)"
     id="g6">
    <line
       stroke-linejoin="round"
       stroke-linecap="round"
       stroke-width="0.1"
       stroke="currentColor"
       x1="0.050000001"
       y1="0"
       x2="71.385597"
       y2="0"
       id="line5" />
  </g>
  <g
     transform="translate(0,5.464276)"
     id="g7">
    <line
       stroke-linejoin="round"
       stroke-linecap="round"
       stroke-width="0.1"
       stroke="currentColor"
       x1="0.050000001"
       y1="0"
       x2="71.385597"
       y2="0"
       id="line6" />
  </g>
  <g
     transform="translate(48.8494,7.464276)"
     id="g8">
    <rect
       x="0"
       y="-2"
       width="0.19"
       height="4"
       ry="0.0000"
       fill="currentColor"
       id="rect7" />
  </g>
  <g
     transform="translate(51.1136,4.464276)"
     id="g9">
    <polygon
       stroke-linejoin="round"
       stroke-linecap="round"
       stroke-width="0.08"
       fill="currentColor"
       stroke="currentColor"
       points="0.04,0.2 0.04,-0.2 4.2462,0.99 4.2462,1.39 "
       id="polygon8" />
  </g>
  <g
     transform="translate(39.9881,10.274276)"
     id="g10">
    <polygon
       stroke-linejoin="round"
       stroke-linecap="round"
       stroke-width="0.08"
       fill="currentColor"
       stroke="currentColor"
       points="0.04,0.2 0.04,-0.2 4.7462,-0.82 4.7462,-0.42 "
       id="polygon9" />
  </g>
  <a
     style="color:inherit"
     xlink:href="textedit:///Users/devonnuri/Documents/typst/241230%20Linear%20Harmony/lilypond/fig_072.ly:7:4:5"
     id="a13"
     transform="translate(-8.5358,-6.690724)">
    <g
       transform="translate(17.1208,8.8411)"
       id="g11">
      <text
         font-family="'Tex Gyre Termes'"
         font-size="2.3308px"
         text-anchor="start"
         fill="currentColor"
         id="text10"><tspan
           id="tspan10">G</tspan></text>
    </g>
    <g
       transform="translate(18.7938,8.8411)"
       id="g12">
      <text
         font-family="'Tex Gyre Termes'"
         font-size="2.3308px"
         text-anchor="start"
         fill="currentColor"
         id="text11"><tspan
           id="tspan11">m</tspan></text>
    </g>
    <g
       transform="translate(20.6034,7.7817)"
       id="g13">
      <text
         font-family="'Tex Gyre Termes'"
         font-size="1.648px"
         text-anchor="start"
         fill="currentColor"
         id="text12"><tspan
           id="tspan12">7</tspan></text>
    </g>
  </a>
  <a
     style="color:inherit"
     xlink:href="textedit:///Users/devonnuri/Documents/typst/241230%20Linear%20Harmony/lilypond/fig_072.ly:10:17:18"
     id="a14"
     transform="translate(-8.5358,-6.690724)">
    <g
       transform="translate(17.1208,14.655)"
       id="g14">
      <path
         transform="scale(0.004,-0.004)"
         d="M 0,-46 C 0,45 116,136 217,136 280,136 326,101 326,46 326,-41 216,-136 106,-136 39,-136 0,-97 0,-46 Z"
         fill="currentColor"
         id="path13" />
    </g>
  </a>
  <g
     transform="translate(0.8,8.464276)"
     id="g15">
    <path
       transform="scale(0.004,-0.004)"
       d="m 266,-635 h -6 c -108,0 -195,88 -195,197 0,58 53,103 112,103 54,0 95,-47 95,-103 0,-52 -43,-95 -95,-95 -11,0 -21,2 -31,6 26,-39 68,-65 117,-65 h 4 z m 135,786 c 19,-89 48,-242 60,-354 76,27 112,94 112,163 0,89 -60,179 -172,191 z M 74,28 c 0,-112 98,-247 278,-247 21,0 44,2 68,6 -7,64 -29,203 -63,364 -79,-8 -124,-61 -124,-119 0,-44 25,-91 81,-123 5,-5 7,-10 7,-15 0,-11 -10,-22 -22,-22 -15,0 -126,62 -126,187 0,88 58,174 160,197 -14,58 -29,117 -46,175 C 180,310 74,188 74,28 Z m 283,1166 c 28,0 143,-206 143,-361 0,-143 -86,-255 -180,-364 21,-68 39,-138 56,-207 5,0 10,1 14,1 155,0 255,-129 255,-262 0,-113 -74,-212 -180,-245 3,-35 5,-70 5,-105 0,-19 -1,-39 -2,-58 -7,-119 -88,-225 -202,-228 l 1,43 c 93,2 153,92 159,191 1,18 2,37 2,55 0,31 -1,61 -4,92 -28,-5 -55,-8 -80,-8 -239,0 -342,217 -342,374 0,177 131,306 248,441 -29,96 -52,170 -52,346 0,189 144,295 159,295 z M 247,782 c 0,-55 12,-115 35,-190 83,100 147,202 147,326 0,40 -6,82 -21,127 -49,-24 -161,-97 -161,-263 z"
       fill="currentColor"
       id="path14" />
  </g>
  <g
     transform="translate(4.885,7.464276)"
     id="g16">
    <path
       transform="scale(0.004,-0.004)"
       d="M 433,-89 C 433,-111 383,-263 250,-263 191,-263 0,-244 0,0 0,62 18,262 250,262 366,262 426,156 426,99 426,59 396,27 359,27 c -31,0 -75,25 -75,75 0,38 27,77 72,77 4,0 9,0 14,-1 -28,37 -72,59 -120,59 C 144,237 137,164 137,51 V 0 -51 c 0,-113 7,-187 113,-187 80,0 139,70 158,151 2,7 7,10 12,10 6,0 13,-4 13,-12 z"
       fill="currentColor"
       id="path15" />
  </g>
  <g
     transform="translate(9.8242,7.464276)"
     id="g17">
    <rect
       x="-0.064999998"
       y="-3.4965"
       width="0.13"
       height="3.8103001"
       ry="0.039999999"
       fill="currentColor"
       id="rect16" />
  </g>
  <g
     transform="translate(32.0103,6.274276)"
     id="g18">
    <polygon
       stroke-linejoin="round"
       stroke-linecap="round"
       stroke-width="0.08"
       fill="currentColor"
       stroke="currentColor"
       points="0.04,0.2 0.04,-0.2 4.7462,-0.82 4.7462,-0.42 "
       id="polygon17" />
  </g>
  <a
     style="color:inherit"
     xlink:href="textedit:///Users/devonnuri/Documents/typst/241230%20Linear%20Harmony/lilypond/fig_072.ly:10:22:23"
     id="a19"
     transform="translate(-8.5358,-6.690724)">
    <g
       transform="translate(20.295,14.155)"
       id="g19">
      <path
         transform="scale(0.004,-0.004)"
         d="M 0,-46 C 0,45 116,136 217,136 280,136 326,101 326,46 326,-41 216,-136 106,-136 39,-136 0,-97 0,-46 Z"
         fill="currentColor"
         id="path18" />
    </g>
  </a>
  <g
     transform="translate(12.9984,7.464276)"
     id="g20">
    <rect
       x="-0.064999998"
       y="-3.3232"
       width="0.13"
       height="3.1370001"
       ry="0.039999999"
       fill="currentColor"
       id="rect19" />
  </g>
  <g
     transform="translate(10.6092,7.464276)"
     id="g21">
    <path
       transform="scale(0.004,-0.004)"
       d="m 27,41 -1,-66 v -11 c 0,-22 1,-44 4,-66 45,38 93,80 93,139 0,33 -14,67 -43,67 C 49,104 28,74 27,41 Z m -42,-179 -12,595 c 8,5 18,8 27,8 9,0 19,-3 27,-8 L 20,112 c 25,21 58,34 91,34 52,0 89,-48 89,-102 0,-80 -86,-117 -147,-169 -15,-13 -24,-38 -45,-38 -13,0 -23,11 -23,25 z"
       fill="currentColor"
       id="path20" />
  </g>
  <g
     transform="translate(23.198,5.464276)"
     id="g22">
    <polygon
       stroke-linejoin="round"
       stroke-linecap="round"
       stroke-width="0.08"
       fill="currentColor"
       stroke="currentColor"
       points="0.04,0.2 0.04,-0.2 4.4962,-0.01 4.4962,0.39 "
       id="polygon21" />
  </g>
  <a
     style="color:inherit"
     xlink:href="textedit:///Users/devonnuri/Documents/typst/241230%20Linear%20Harmony/lilypond/fig_072.ly:10:26:27"
     id="a23"
     transform="translate(-8.5358,-6.690724)">
    <g
       transform="translate(22.7992,14.655)"
       id="g23">
      <path
         transform="scale(0.004,-0.004)"
         d="M 0,-46 C 0,45 116,136 217,136 280,136 326,101 326,46 326,-41 216,-136 106,-136 39,-136 0,-97 0,-46 Z"
         fill="currentColor"
         id="path22" />
    </g>
  </a>
  <g
     transform="translate(15.5026,7.464276)"
     id="g24">
    <rect
       x="-0.064999998"
       y="-3.1866"
       width="0.13"
       height="3.5004001"
       ry="0.039999999"
       fill="currentColor"
       id="rect23" />
  </g>
  <g
     transform="translate(9.7592,3.964276)"
     id="g25">
    <polygon
       stroke-linejoin="round"
       stroke-linecap="round"
       stroke-width="0.08"
       fill="currentColor"
       stroke="currentColor"
       points="0.04,0.2 0.04,-0.2 9.1226,0.3 9.1226,0.7 "
       id="polygon24" />
  </g>
  <g
     transform="translate(9.7592,4.774276)"
     id="g26">
    <polygon
       stroke-linejoin="round"
       stroke-linecap="round"
       stroke-width="0.08"
       fill="currentColor"
       stroke="currentColor"
       points="0.04,0.2 0.04,-0.2 5.7684,0.117 5.7684,0.517 "
       id="polygon25" />
  </g>
  <a
     style="color:inherit"
     xlink:href="textedit:///Users/devonnuri/Documents/typst/241230%20Linear%20Harmony/lilypond/fig_072.ly:10:29:30"
     id="a27"
     transform="translate(-8.5358,-6.690724)">
    <g
       transform="translate(26.1534,15.655)"
       id="g27">
      <path
         transform="scale(0.004,-0.004)"
         d="M 0,-46 C 0,45 116,136 217,136 280,136 326,101 326,46 326,-41 216,-136 106,-136 39,-136 0,-97 0,-46 Z"
         fill="currentColor"
         id="path26" />
    </g>
  </a>
  <g
     transform="translate(18.8568,7.464276)"
     id="g28">
    <rect
       x="-0.064999998"
       y="-3.0035"
       width="0.13"
       height="4.3172998"
       ry="0.039999999"
       fill="currentColor"
       id="rect27" />
  </g>
  <g
     transform="translate(16.1676,8.964276)"
     id="g29">
    <path
       transform="scale(0.004,-0.004)"
       d="m 0,119 c 0,8 5,15 13,18 l 46,17 v 158 c 0,10 8,19 18,19 10,0 19,-9 19,-19 V 167 l 83,31 v 158 c 0,10 9,19 19,19 10,0 18,-9 18,-19 V 211 l 32,12 c 2,1 5,1 7,1 11,0 20,-9 20,-20 v -60 c 0,-8 -5,-16 -13,-19 L 216,109 V -51 l 32,11 c 2,1 5,1 7,1 11,0 20,-9 20,-20 v -60 c 0,-8 -5,-15 -13,-18 l -46,-17 v -158 c 0,-10 -8,-19 -18,-19 -10,0 -19,9 -19,19 v 145 l -83,-31 v -158 c 0,-10 -9,-19 -19,-19 -10,0 -18,9 -18,19 v 145 l -32,-12 c -2,-1 -5,-1 -7,-1 -11,0 -20,9 -20,20 v 60 c 0,8 5,16 13,19 l 46,16 V 51 L 27,40 C 25,39 22,39 20,39 9,39 0,48 0,59 Z M 179,95 96,65 V -95 l 83,30 z"
       fill="currentColor"
       id="path28" />
  </g>
  <a
     style="color:inherit"
     xlink:href="textedit:///Users/devonnuri/Documents/typst/241230%20Linear%20Harmony/lilypond/fig_072.ly:10:4:5"
     id="a30"
     transform="translate(-8.5358,-6.690724)">
    <g
       transform="translate(20.7554,10.0541)"
       id="g30">
      <text
         font-family="'Tex Gyre Termes'"
         font-style="italic"
         font-size="1.7459px"
         text-anchor="start"
         fill="currentColor"
         id="text29"><tspan
           id="tspan29">3</tspan></text>
    </g>
  </a>
  <a
     style="color:inherit"
     xlink:href="textedit:///Users/devonnuri/Documents/typst/241230%20Linear%20Harmony/lilypond/fig_072.ly:10:34:35"
     id="a31"
     transform="translate(-8.5358,-6.690724)">
    <g
       transform="translate(30.5596,15.155)"
       id="g31">
      <path
         transform="scale(0.004,-0.004)"
         d="M 0,-46 C 0,45 116,136 217,136 280,136 326,101 326,46 326,-41 216,-136 106,-136 39,-136 0,-97 0,-46 Z"
         fill="currentColor"
         id="path30" />
    </g>
  </a>
  <g
     transform="translate(23.263,7.464276)"
     id="g32">
    <rect
       x="-0.064999998"
       y="-1.9973"
       width="0.13"
       height="2.8111"
       ry="0.039999999"
       fill="currentColor"
       id="rect31" />
  </g>
  <a
     style="color:inherit"
     xlink:href="textedit:///Users/devonnuri/Documents/typst/241230%20Linear%20Harmony/lilypond/fig_072.ly:10:4:5"
     id="a36"
     transform="translate(-8.5358,-6.690724)">
    <g
       transform="translate(18.295,9.3151)"
       id="g33">
      <line
         stroke-linejoin="round"
         stroke-linecap="round"
         stroke-width="0.16"
         stroke="currentColor"
         x1="6.0081"
         y1="0.32049999"
         x2="6.0081"
         y2="1.0204999"
         id="line32" />
    </g>
    <g
       transform="translate(18.295,9.3151)"
       id="g34">
      <line
         stroke-linejoin="round"
         stroke-linecap="round"
         stroke-width="0.16"
         stroke="currentColor"
         x1="-0.1997"
         y1="-0.0107"
         x2="-0.1997"
         y2="0.6893"
         id="line33" />
    </g>
    <g
       transform="translate(18.295,9.3151)"
       id="g35">
      <line
         stroke-linejoin="round"
         stroke-linecap="round"
         stroke-width="0.16"
         stroke="currentColor"
         x1="6.0081"
         y1="0.32049999"
         x2="3.9466"
         y2="0.2105"
         id="line34" />
    </g>
    <g
       transform="translate(18.295,9.3151)"
       id="g36">
      <line
         stroke-linejoin="round"
         stroke-linecap="round"
         stroke-width="0.16"
         stroke="currentColor"
         x1="-0.1997"
         y1="-0.0107"
         x2="2.0615001"
         y2="0.11"
         id="line35" />
    </g>
  </a>
  <a
     style="color:inherit"
     xlink:href="textedit:///Users/devonnuri/Documents/typst/241230%20Linear%20Harmony/lilypond/fig_072.ly:10:36:37"
     id="a37"
     transform="translate(-8.5358,-6.690724)">
    <g
       transform="translate(34.9657,15.655)"
       id="g37">
      <path
         transform="scale(0.004,-0.004)"
         d="M 0,-46 C 0,45 116,136 217,136 280,136 326,101 326,46 326,-41 216,-136 106,-136 39,-136 0,-97 0,-46 Z"
         fill="currentColor"
         id="path36" />
    </g>
  </a>
  <g
     transform="translate(27.6691,7.464276)"
     id="g38">
    <rect
       x="-0.064999998"
       y="-1.8127"
       width="0.13"
       height="3.1264999"
       ry="0.039999999"
       fill="currentColor"
       id="rect37" />
  </g>
  <g
     transform="translate(25.3957,8.964276)"
     id="g39">
    <path
       transform="scale(0.004,-0.004)"
       d="m -7,375 c 8,4 17,7 25,7 8,0 16,-3 24,-7 l -2,-183 106,20 h 3 c 10,0 18,-7 18,-17 l 7,-570 c -8,-4 -17,-7 -25,-7 -8,0 -16,3 -24,7 l 2,183 -106,-20 h -3 c -10,0 -18,7 -18,17 z M 131,112 39,95 l -3,-207 92,17 z"
       fill="currentColor"
       id="path38" />
  </g>
  <a
     style="color:inherit"
     xlink:href="textedit:///Users/devonnuri/Documents/typst/241230%20Linear%20Harmony/lilypond/fig_072.ly:7:10:11"
     id="a41"
     transform="translate(-8.5358,-6.690724)">
    <g
       transform="translate(39.3719,8.8411)"
       id="g40">
      <text
         font-family="'Tex Gyre Termes'"
         font-size="2.3308px"
         text-anchor="start"
         fill="currentColor"
         id="text39"><tspan
           id="tspan39">C</tspan></text>
    </g>
    <g
       transform="translate(40.9425,7.7817)"
       id="g41">
      <text
         font-family="'Tex Gyre Termes'"
         font-size="1.648px"
         text-anchor="start"
         fill="currentColor"
         id="text40"><tspan
           id="tspan40">7</tspan></text>
    </g>
  </a>
  <a
     style="color:inherit"
     xlink:href="textedit:///Users/devonnuri/Documents/typst/241230%20Linear%20Harmony/lilypond/fig_072.ly:10:38:39"
     id="a42"
     transform="translate(-8.5358,-6.690724)">
    <g
       transform="translate(39.3719,16.155)"
       id="g42">
      <path
         transform="scale(0.004,-0.004)"
         d="M 0,-46 C 0,45 116,136 217,136 280,136 326,101 326,46 326,-41 216,-136 106,-136 39,-136 0,-97 0,-46 Z"
         fill="currentColor"
         id="path41" />
    </g>
  </a>
  <g
     transform="translate(32.0753,7.464276)"
     id="g43">
    <rect
       x="-0.064999998"
       y="-1.1984"
       width="0.13"
       height="3.0122001"
       ry="0.039999999"
       fill="currentColor"
       id="rect42" />
  </g>
  <a
     style="color:inherit"
     xlink:href="textedit:///Users/devonnuri/Documents/typst/241230%20Linear%20Harmony/lilypond/fig_072.ly:10:40:41"
     id="a44"
     transform="translate(-8.5358,-6.690724)">
    <g
       transform="translate(44.028,15.155)"
       id="g44">
      <path
         transform="scale(0.004,-0.004)"
         d="M 0,-46 C 0,45 116,136 217,136 280,136 326,101 326,46 326,-41 216,-136 106,-136 39,-136 0,-97 0,-46 Z"
         fill="currentColor"
         id="path43" />
    </g>
  </a>
  <g
     transform="translate(36.7314,7.464276)"
     id="g45">
    <rect
       x="-0.064999998"
       y="-1.8016"
       width="0.13"
       height="2.6154001"
       ry="0.039999999"
       fill="currentColor"
       id="rect44" />
  </g>
  <a
     style="color:inherit"
     xlink:href="textedit:///Users/devonnuri/Documents/typst/241230%20Linear%20Harmony/lilypond/fig_072.ly:10:42:43"
     id="a46"
     transform="translate(-8.5358,-6.690724)">
    <g
       transform="translate(48.5239,14.155)"
       id="g46">
      <path
         transform="scale(0.004,-0.004)"
         d="M 0,-46 C 0,45 116,136 217,136 280,136 326,101 326,46 326,-41 216,-136 106,-136 39,-136 0,-97 0,-46 Z"
         fill="currentColor"
         id="path45" />
    </g>
  </a>
  <g
     transform="translate(40.0531,7.464276)"
     id="g47">
    <rect
       x="-0.064999998"
       y="0.18619999"
       width="0.13"
       height="2.6154001"
       ry="0.039999999"
       fill="currentColor"
       id="rect46" />
  </g>
  <a
     style="color:inherit"
     xlink:href="textedit:///Users/devonnuri/Documents/typst/241230%20Linear%20Harmony/lilypond/fig_072.ly:10:46:47"
     id="a48"
     transform="translate(-8.5358,-6.690724)">
    <g
       transform="translate(53.18,13.155)"
       id="g48">
      <path
         transform="scale(0.004,-0.004)"
         d="M 0,-46 C 0,45 116,136 217,136 280,136 326,101 326,46 326,-41 216,-136 106,-136 39,-136 0,-97 0,-46 Z"
         fill="currentColor"
         id="path47" />
    </g>
  </a>
  <g
     transform="translate(44.7092,7.464276)"
     id="g49">
    <rect
       x="-0.064999998"
       y="-0.81379998"
       width="0.13"
       height="3.0122001"
       ry="0.039999999"
       fill="currentColor"
       id="rect48" />
  </g>
  <a
     style="color:inherit"
     xlink:href="textedit:///Users/devonnuri/Documents/typst/241230%20Linear%20Harmony/lilypond/fig_072.ly:7:14:15"
     id="a50"
     transform="translate(-8.5358,-6.690724)">
    <g
       transform="translate(58.4752,8.8411)"
       id="g50">
      <text
         font-family="'Tex Gyre Termes'"
         font-size="2.3308px"
         text-anchor="start"
         fill="currentColor"
         id="text49"><tspan
           id="tspan49">F</tspan></text>
    </g>
  </a>
  <a
     style="color:inherit"
     xlink:href="textedit:///Users/devonnuri/Documents/typst/241230%20Linear%20Harmony/lilypond/fig_072.ly:10:48:49"
     id="a51"
     transform="translate(-8.5358,-6.690724)">
    <g
       transform="translate(58.4752,13.655)"
       id="g51">
      <path
         transform="scale(0.004,-0.004)"
         d="M 0,-46 C 0,45 116,136 217,136 280,136 326,101 326,46 326,-41 216,-136 106,-136 39,-136 0,-97 0,-46 Z"
         fill="currentColor"
         id="path50" />
    </g>
  </a>
  <g
     transform="translate(51.1786,7.464276)"
     id="g52">
    <rect
       x="-0.064999998"
       y="-2.9820001"
       width="0.13"
       height="2.2958"
       ry="0.039999999"
       fill="currentColor"
       id="rect51" />
  </g>
  <a
     style="color:inherit"
     xlink:href="textedit:///Users/devonnuri/Documents/typst/241230%20Linear%20Harmony/lilypond/fig_072.ly:10:50:51"
     id="a53"
     transform="translate(-8.5358,-6.690724)">
    <g
       transform="translate(62.6313,15.655)"
       id="g53">
      <path
         transform="scale(0.004,-0.004)"
         d="M 0,-46 C 0,45 116,136 217,136 280,136 326,101 326,46 326,-41 216,-136 106,-136 39,-136 0,-97 0,-46 Z"
         fill="currentColor"
         id="path52" />
    </g>
  </a>
  <g
     transform="translate(55.3347,7.464276)"
     id="g54">
    <rect
       x="-0.064999998"
       y="-1.8279999"
       width="0.13"
       height="3.1417999"
       ry="0.039999999"
       fill="currentColor"
       id="rect53" />
  </g>
  <a
     style="color:inherit"
     xlink:href="textedit:///Users/devonnuri/Documents/typst/241230%20Linear%20Harmony/lilypond/fig_072.ly:10:53:54"
     id="a55"
     transform="translate(-8.5358,-6.690724)">
    <g
       transform="translate(67.0375,14.155)"
       id="g55">
      <path
         transform="scale(0.004,-0.004)"
         d="m -6,78 c 0,59 124,83 124,182 0,24 -8,49 -25,69 l -35,42 c -3,3 -4,7 -4,10 0,9 9,15 17,15 4,0 8,-1 11,-5 L 233,211 c 7,-9 10,-17 10,-25 0,-59 -124,-83 -124,-182 0,-24 7,-49 24,-69 l 84,-99 c 3,-3 4,-7 4,-10 0,-9 -8,-16 -16,-16 -8,0 -45,44 -109,44 -16,0 -53,0 -53,-67 0,-62 30,-97 30,-100 0,-4 -4,-7 -8,-7 -13,0 -98,130 -98,204 0,41 27,42 40,42 33,0 78,-13 119,-31 L 4,53 C -3,62 -6,70 -6,78 Z"
         fill="currentColor"
         id="path54" />
    </g>
  </a>
  <a
     style="color:inherit"
     xlink:href="textedit:///Users/devonnuri/Documents/typst/241230%20Linear%20Harmony/lilypond/fig_072.ly:10:56:57"
     id="a56"
     transform="translate(-8.5358,-6.690724)">
    <g
       transform="translate(72.2894,14.155)"
       id="g56">
      <path
         transform="scale(0.004,-0.004)"
         d="M 365,0 H 10 C 4,0 0,4 0,10 v 136 c 0,6 4,10 10,10 h 355 c 6,0 10,-4 10,-10 V 10 C 375,4 371,0 365,0 Z"
         fill="currentColor"
         id="path55" />
    </g>
  </a>
</svg>
