<?xml version="1.0" encoding="UTF-8" standalone="no"?>
<svg
   version="1.2"
   width="179.99992mm"
   height="20.314547mm"
   viewBox="0 0 102.4299 11.560099"
   id="svg110"
   sodipodi:docname="fig_280.svg"
   xmlns:inkscape="http://www.inkscape.org/namespaces/inkscape"
   xmlns:sodipodi="http://sodipodi.sourceforge.net/DTD/sodipodi-0.dtd"
   xmlns="http://www.w3.org/2000/svg"
   xmlns:svg="http://www.w3.org/2000/svg">
  <defs
     id="defs110" />
  <sodipodi:namedview
     id="namedview110"
     pagecolor="#505050"
     bordercolor="#eeeeee"
     borderopacity="1"
     inkscape:showpageshadow="0"
     inkscape:pageopacity="0"
     inkscape:pagecheckerboard="0"
     inkscape:deskcolor="#505050"
     inkscape:document-units="mm" />
  <style
     type="text/css"
     id="style1"><![CDATA[
tspan { white-space: pre; }
]]></style>
  <g
     transform="translate(102.2399,7.3201)"
     id="g1">
    <rect
       x="0"
       y="-2"
       width="0.19"
       height="4"
       ry="0.0000"
       fill="currentColor"
       id="rect1" />
  </g>
  <g
     transform="translate(101.7499,7.3201)"
     id="g2">
    <rect
       x="0"
       y="-2"
       width="0.19"
       height="4"
       ry="0.0000"
       fill="currentColor"
       id="rect2" />
  </g>
  <g
     transform="translate(0,10.3201)"
     id="g3">
    <rect
       x="66.348"
       y="-0.1"
       width="1.9563"
       height="0.2"
       ry="0.1"
       fill="currentColor"
       id="rect3" />
  </g>
  <g
     transform="translate(0,4.3201)"
     id="g4">
    <rect
       x="21.535801"
       y="-0.1"
       width="1.9563"
       height="0.2"
       ry="0.1"
       fill="currentColor"
       id="rect4" />
  </g>
  <g
     transform="translate(0,4.3201)"
     id="g5">
    <rect
       x="19.280701"
       y="-0.1"
       width="1.8053"
       height="0.2"
       ry="0.1"
       fill="currentColor"
       id="rect5" />
  </g>
  <g
     transform="translate(0,4.3201)"
     id="g6">
    <rect
       x="15.7724"
       y="-0.1"
       width="1.8052"
       height="0.2"
       ry="0.1"
       fill="currentColor"
       id="rect6" />
  </g>
  <g
     transform="translate(0,9.3201)"
     id="g7">
    <line
       stroke-linejoin="round"
       stroke-linecap="round"
       stroke-width="0.1"
       stroke="currentColor"
       x1="0.050000001"
       y1="0"
       x2="102.3799"
       y2="0"
       id="line6" />
  </g>
  <g
     transform="translate(0,8.3201)"
     id="g8">
    <line
       stroke-linejoin="round"
       stroke-linecap="round"
       stroke-width="0.1"
       stroke="currentColor"
       x1="0.050000001"
       y1="0"
       x2="102.3799"
       y2="0"
       id="line7" />
  </g>
  <g
     transform="translate(0,7.3201)"
     id="g9">
    <line
       stroke-linejoin="round"
       stroke-linecap="round"
       stroke-width="0.1"
       stroke="currentColor"
       x1="0.050000001"
       y1="0"
       x2="102.3799"
       y2="0"
       id="line8" />
  </g>
  <g
     transform="translate(0,6.3201)"
     id="g10">
    <line
       stroke-linejoin="round"
       stroke-linecap="round"
       stroke-width="0.1"
       stroke="currentColor"
       x1="0.050000001"
       y1="0"
       x2="102.3799"
       y2="0"
       id="line9" />
  </g>
  <g
     transform="translate(0,5.3201)"
     id="g11">
    <line
       stroke-linejoin="round"
       stroke-linecap="round"
       stroke-width="0.1"
       stroke="currentColor"
       x1="0.050000001"
       y1="0"
       x2="102.3799"
       y2="0"
       id="line10" />
  </g>
  <g
     transform="translate(65.6168,7.3201)"
     id="g12">
    <rect
       x="0"
       y="-2"
       width="0.19"
       height="4"
       ry="0.0000"
       fill="currentColor"
       id="rect11" />
  </g>
  <g
     transform="translate(81.8812,4.3201)"
     id="g13">
    <polygon
       stroke-linejoin="round"
       stroke-linecap="round"
       stroke-width="0.08"
       fill="currentColor"
       stroke="currentColor"
       points="0.04,0.2 0.04,-0.2 10.6147,-0.7 10.6147,-0.3 "
       id="polygon12" />
  </g>
  <g
     transform="translate(81.8812,5.1301)"
     id="g14">
    <polygon
       stroke-linejoin="round"
       stroke-linecap="round"
       stroke-width="0.08"
       fill="currentColor"
       stroke="currentColor"
       points="0.04,0.2 0.04,-0.2 10.6147,-0.7 10.6147,-0.3 "
       id="polygon13" />
  </g>
  <g
     transform="translate(67.8483,5.5101)"
     id="g15">
    <polygon
       stroke-linejoin="round"
       stroke-linecap="round"
       stroke-width="0.08"
       fill="currentColor"
       stroke="currentColor"
       points="0.04,0.2 0.04,-0.2 10.6147,-1.2 10.6147,-0.8 "
       id="polygon14" />
  </g>
  <g
     transform="translate(67.8483,6.3201)"
     id="g16">
    <polygon
       stroke-linejoin="round"
       stroke-linecap="round"
       stroke-width="0.08"
       fill="currentColor"
       stroke="currentColor"
       points="0.04,0.2 0.04,-0.2 10.6147,-1.2 10.6147,-0.8 "
       id="polygon15" />
  </g>
  <g
     transform="translate(8.931,2.0388)"
     id="g17">
    <text
       font-family="'New Computer Modern Math'"
       font-size="2.3308px"
       text-anchor="start"
       fill="currentColor"
       id="text16"><tspan
         id="tspan16">B</tspan></text>
  </g>
  <g
     transform="translate(10.7871,1.7556)"
     id="g18">
    <path
       transform="scale(0.0038,-0.0038)"
       d="m 29,39 -2,-64 v -11 c 0,-22 2,-43 5,-65 44,38 91,80 91,138 0,33 -13,66 -42,66 C 50,103 30,72 29,39 Z m -57,415 c 9,5 18,8 28,8 10,0 19,-3 28,-8 L 21,111 c 25,23 58,36 92,36 51,0 87,-49 87,-103 0,-79 -84,-117 -144,-169 -16,-14 -25,-41 -47,-41 -14,0 -25,13 -25,27 z"
       fill="currentColor"
       id="path17" />
  </g>
  <g
     transform="translate(11.5422,2.8334)"
     id="g19">
    <text
       font-family="'New Computer Modern Math'"
       font-size="1.648px"
       text-anchor="start"
       fill="currentColor"
       id="text18"><tspan
         id="tspan18">−</tspan></text>
  </g>
  <g
     transform="translate(12.8396,2.8334)"
     id="g20">
    <text
       font-family="'New Computer Modern Math'"
       font-size="1.648px"
       text-anchor="start"
       fill="currentColor"
       id="text19"><tspan
         id="tspan19">7</tspan></text>
  </g>
  <g
     transform="translate(8.931,5.8201)"
     id="g21">
    <path
       transform="scale(0.004,-0.004)"
       d="M 0,-46 C 0,45 116,136 217,136 280,136 326,101 326,46 326,-41 216,-136 106,-136 39,-136 0,-97 0,-46 Z"
       fill="currentColor"
       id="path20" />
  </g>
  <g
     transform="translate(0.8,8.3201)"
     id="g22">
    <path
       transform="scale(0.004,-0.004)"
       d="m 266,-635 h -6 c -108,0 -195,88 -195,197 0,58 53,103 112,103 54,0 95,-47 95,-103 0,-52 -43,-95 -95,-95 -11,0 -21,2 -31,6 26,-39 68,-65 117,-65 h 4 z m 135,786 c 19,-89 48,-242 60,-354 76,27 112,94 112,163 0,89 -60,179 -172,191 z M 74,28 c 0,-112 98,-247 278,-247 21,0 44,2 68,6 -7,64 -29,203 -63,364 -79,-8 -124,-61 -124,-119 0,-44 25,-91 81,-123 5,-5 7,-10 7,-15 0,-11 -10,-22 -22,-22 -15,0 -126,62 -126,187 0,88 58,174 160,197 -14,58 -29,117 -46,175 C 180,310 74,188 74,28 Z m 283,1166 c 28,0 143,-206 143,-361 0,-143 -86,-255 -180,-364 21,-68 39,-138 56,-207 5,0 10,1 14,1 155,0 255,-129 255,-262 0,-113 -74,-212 -180,-245 3,-35 5,-70 5,-105 0,-19 -1,-39 -2,-58 -7,-119 -88,-225 -202,-228 l 1,43 c 93,2 153,92 159,191 1,18 2,37 2,55 0,31 -1,61 -4,92 -28,-5 -55,-8 -80,-8 -239,0 -342,217 -342,374 0,177 131,306 248,441 -29,96 -52,170 -52,346 0,189 144,295 159,295 z M 247,782 c 0,-55 12,-115 35,-190 83,100 147,202 147,326 0,40 -6,82 -21,127 -49,-24 -161,-97 -161,-263 z"
       fill="currentColor"
       id="path21" />
  </g>
  <g
     transform="translate(4.885,7.3201)"
     id="g23">
    <path
       transform="scale(0.004,-0.004)"
       d="M 433,-89 C 433,-111 383,-263 250,-263 191,-263 0,-244 0,0 0,62 18,262 250,262 366,262 426,156 426,99 426,59 396,27 359,27 c -31,0 -75,25 -75,75 0,38 27,77 72,77 4,0 9,0 14,-1 -28,37 -72,59 -120,59 C 144,237 137,164 137,51 V 0 -51 c 0,-113 7,-187 113,-187 80,0 139,70 158,151 2,7 7,10 12,10 6,0 13,-4 13,-12 z"
       fill="currentColor"
       id="path22" />
  </g>
  <g
     transform="translate(8.996,7.3201)"
     id="g24">
    <rect
       x="-0.064999998"
       y="-1.3138"
       width="0.13"
       height="3.1187999"
       ry="0.039999999"
       fill="currentColor"
       id="rect23" />
  </g>
  <g
     transform="translate(7.885,5.8201)"
     id="g25">
    <path
       transform="scale(0.004,-0.004)"
       d="m -7,375 c 8,4 17,7 25,7 8,0 16,-3 24,-7 l -2,-183 106,20 h 3 c 10,0 18,-7 18,-17 l 7,-570 c -8,-4 -17,-7 -25,-7 -8,0 -16,3 -24,7 l 2,183 -106,-20 h -3 c -10,0 -18,7 -18,17 z M 131,112 39,95 l -3,-207 92,17 z"
       fill="currentColor"
       id="path24" />
  </g>
  <g
     transform="translate(52.5081,5.3201)"
     id="g26">
    <polygon
       stroke-linejoin="round"
       stroke-linecap="round"
       stroke-width="0.08"
       fill="currentColor"
       stroke="currentColor"
       points="0.04,0.2 0.04,-0.2 10.6147,0.8 10.6147,1.2 "
       id="polygon25" />
  </g>
  <g
     transform="translate(52.5081,6.1301)"
     id="g27">
    <polygon
       stroke-linejoin="round"
       stroke-linecap="round"
       stroke-width="0.08"
       fill="currentColor"
       stroke="currentColor"
       points="0.04,0.2 0.04,-0.2 10.6147,0.8 10.6147,1.2 "
       id="polygon26" />
  </g>
  <g
     transform="translate(12.4392,5.3201)"
     id="g28">
    <path
       transform="scale(0.004,-0.004)"
       d="M 0,-46 C 0,45 116,136 217,136 280,136 326,101 326,46 326,-41 216,-136 106,-136 39,-136 0,-97 0,-46 Z"
       fill="currentColor"
       id="path27" />
  </g>
  <g
     transform="translate(12.5042,7.3201)"
     id="g29">
    <rect
       x="-0.064999998"
       y="-1.8138"
       width="0.13"
       height="3.3501999"
       ry="0.039999999"
       fill="currentColor"
       id="rect28" />
  </g>
  <g
     transform="translate(38.9752,4.5101)"
     id="g30">
    <polygon
       stroke-linejoin="round"
       stroke-linecap="round"
       stroke-width="0.08"
       fill="currentColor"
       stroke="currentColor"
       points="0.04,0.2 0.04,-0.2 10.1147,-0.2 10.1147,0.2 "
       id="polygon29" />
  </g>
  <g
     transform="translate(38.9752,5.3201)"
     id="g31">
    <polygon
       stroke-linejoin="round"
       stroke-linecap="round"
       stroke-width="0.08"
       fill="currentColor"
       stroke="currentColor"
       points="0.04,0.2 0.04,-0.2 10.1147,-0.2 10.1147,0.2 "
       id="polygon30" />
  </g>
  <g
     transform="translate(15.9475,4.3201)"
     id="g32">
    <path
       transform="scale(0.004,-0.004)"
       d="M 0,-46 C 0,45 116,136 217,136 280,136 326,101 326,46 326,-41 216,-136 106,-136 39,-136 0,-97 0,-46 Z"
       fill="currentColor"
       id="path31" />
  </g>
  <g
     transform="translate(16.0125,7.3201)"
     id="g33">
    <rect
       x="-0.064999998"
       y="-2.8138001"
       width="0.13"
       height="4.0816002"
       ry="0.039999999"
       fill="currentColor"
       id="rect32" />
  </g>
  <g
     transform="translate(14.7975,4.3201)"
     id="g34">
    <path
       transform="scale(0.004,-0.004)"
       d="m 27,41 -1,-66 v -11 c 0,-22 1,-44 4,-66 45,38 93,80 93,139 0,33 -14,67 -43,67 C 49,104 28,74 27,41 Z m -42,-179 -12,595 c 8,5 18,8 27,8 9,0 19,-3 27,-8 L 20,112 c 25,21 58,34 91,34 52,0 89,-48 89,-102 0,-80 -86,-117 -147,-169 -15,-13 -24,-38 -45,-38 -13,0 -23,11 -23,25 z"
       fill="currentColor"
       id="path33" />
  </g>
  <g
     transform="translate(24.0181,8.5101)"
     id="g35">
    <polygon
       stroke-linejoin="round"
       stroke-linecap="round"
       stroke-width="0.08"
       fill="currentColor"
       stroke="currentColor"
       points="0.04,0.2 0.04,-0.2 10.3647,1.8 10.3647,2.2 "
       id="polygon34" />
  </g>
  <g
     transform="translate(24.0181,9.3201)"
     id="g36">
    <polygon
       stroke-linejoin="round"
       stroke-linecap="round"
       stroke-width="0.08"
       fill="currentColor"
       stroke="currentColor"
       points="0.04,0.2 0.04,-0.2 10.3647,1.8 10.3647,2.2 "
       id="polygon35" />
  </g>
  <g
     transform="translate(19.4557,3.8201)"
     id="g37">
    <path
       transform="scale(0.004,-0.004)"
       d="M 0,-46 C 0,45 116,136 217,136 280,136 326,101 326,46 326,-41 216,-136 106,-136 39,-136 0,-97 0,-46 Z"
       fill="currentColor"
       id="path36" />
  </g>
  <g
     transform="translate(19.5207,7.3201)"
     id="g38">
    <rect
       x="-0.064999998"
       y="-3.3138001"
       width="0.13"
       height="4.3130002"
       ry="0.039999999"
       fill="currentColor"
       id="rect37" />
  </g>
  <g
     transform="translate(18.3057,3.8201)"
     id="g39">
    <path
       transform="scale(0.004,-0.004)"
       d="m 27,41 -1,-66 v -11 c 0,-22 1,-44 4,-66 45,38 93,80 93,139 0,33 -14,67 -43,67 C 49,104 28,74 27,41 Z m -42,-179 -12,595 c 8,5 18,8 27,8 9,0 19,-3 27,-8 L 20,112 c 25,21 58,34 91,34 52,0 89,-48 89,-102 0,-80 -86,-117 -147,-169 -15,-13 -24,-38 -45,-38 -13,0 -23,11 -23,25 z"
       fill="currentColor"
       id="path38" />
  </g>
  <g
     transform="translate(19.4557,6.7043)"
     id="g40">
    <polygon
       stroke-linejoin="round"
       stroke-linecap="round"
       stroke-width="0.08"
       fill="currentColor"
       stroke="currentColor"
       points="0.04,0.2 0.04,-0.2 2.4962,-0.3942 2.4962,0.0058 "
       id="polygon39" />
  </g>
  <g
     transform="translate(8.931,8.3201)"
     id="g41">
    <polygon
       stroke-linejoin="round"
       stroke-linecap="round"
       stroke-width="0.08"
       fill="currentColor"
       stroke="currentColor"
       points="0.04,0.2 0.04,-0.2 13.0209,-1.2 13.0209,-0.8 "
       id="polygon40" />
  </g>
  <g
     transform="translate(8.931,9.1301)"
     id="g42">
    <polygon
       stroke-linejoin="round"
       stroke-linecap="round"
       stroke-width="0.08"
       fill="currentColor"
       stroke="currentColor"
       points="0.04,0.2 0.04,-0.2 13.0209,-1.2 13.0209,-0.8 "
       id="polygon41" />
  </g>
  <g
     transform="translate(21.8619,4.3201)"
     id="g43">
    <path
       transform="scale(0.004,-0.004)"
       d="M 0,-46 C 0,45 116,136 217,136 280,136 326,101 326,46 326,-41 216,-136 106,-136 39,-136 0,-97 0,-46 Z"
       fill="currentColor"
       id="path42" />
  </g>
  <g
     transform="translate(21.8619,2.9213)"
     id="g44">
    <text
       font-family="'New Computer Modern Math'"
       font-size="2.2px"
       text-anchor="start"
       fill="currentColor"
       id="text43"><tspan
         id="tspan43">↓</tspan></text>
  </g>
  <g
     transform="translate(21.9269,7.3201)"
     id="g45">
    <rect
       x="-0.064999998"
       y="-2.8138001"
       width="0.13"
       height="3.6287999"
       ry="0.039999999"
       fill="currentColor"
       id="rect44" />
  </g>
  <g
     transform="translate(24.0181,5.3201)"
     id="g46">
    <path
       transform="scale(0.004,-0.004)"
       d="M 0,-46 C 0,45 116,136 217,136 280,136 326,101 326,46 326,-41 216,-136 106,-136 39,-136 0,-97 0,-46 Z"
       fill="currentColor"
       id="path45" />
  </g>
  <g
     transform="translate(24.0181,3.9213)"
     id="g47">
    <text
       font-family="'New Computer Modern Math'"
       font-size="2.2px"
       text-anchor="start"
       fill="currentColor"
       id="text46"><tspan
         id="tspan46">↓</tspan></text>
  </g>
  <g
     transform="translate(24.0831,7.3201)"
     id="g48">
    <rect
       x="-0.064999998"
       y="-1.8138"
       width="0.13"
       height="3.8262999"
       ry="0.039999999"
       fill="currentColor"
       id="rect47" />
  </g>
  <g
     transform="translate(27.5263,6.3201)"
     id="g49">
    <path
       transform="scale(0.004,-0.004)"
       d="M 0,-46 C 0,45 116,136 217,136 280,136 326,101 326,46 326,-41 216,-136 106,-136 39,-136 0,-97 0,-46 Z"
       fill="currentColor"
       id="path48" />
  </g>
  <g
     transform="translate(27.5263,4.4163)"
     id="g50">
    <text
       font-family="'New Computer Modern Math'"
       font-size="2.2px"
       text-anchor="start"
       fill="currentColor"
       id="text49"><tspan
         id="tspan49">↓</tspan></text>
  </g>
  <g
     transform="translate(27.5913,7.3201)"
     id="g51">
    <rect
       x="-0.064999998"
       y="-0.81379998"
       width="0.13"
       height="3.5006001"
       ry="0.039999999"
       fill="currentColor"
       id="rect50" />
  </g>
  <g
     transform="translate(26.3763,6.3201)"
     id="g52">
    <path
       transform="scale(0.004,-0.004)"
       d="m 27,41 -1,-66 v -11 c 0,-22 1,-44 4,-66 45,38 93,80 93,139 0,33 -14,67 -43,67 C 49,104 28,74 27,41 Z m -42,-179 -12,595 c 8,5 18,8 27,8 9,0 19,-3 27,-8 L 20,112 c 25,21 58,34 91,34 52,0 89,-48 89,-102 0,-80 -86,-117 -147,-169 -15,-13 -24,-38 -45,-38 -13,0 -23,11 -23,25 z"
       fill="currentColor"
       id="path51" />
  </g>
  <g
     transform="translate(31.0346,7.3201)"
     id="g53">
    <path
       transform="scale(0.004,-0.004)"
       d="M 0,-46 C 0,45 116,136 217,136 280,136 326,101 326,46 326,-41 216,-136 106,-136 39,-136 0,-97 0,-46 Z"
       fill="currentColor"
       id="path52" />
  </g>
  <g
     transform="translate(31.0346,4.4163)"
     id="g54">
    <text
       font-family="'New Computer Modern Math'"
       font-size="2.2px"
       text-anchor="start"
       fill="currentColor"
       id="text53"><tspan
         id="tspan53">↓</tspan></text>
  </g>
  <g
     transform="translate(31.0996,7.3201)"
     id="g55">
    <rect
       x="-0.064999998"
       y="0.18619999"
       width="0.13"
       height="3.175"
       ry="0.039999999"
       fill="currentColor"
       id="rect54" />
  </g>
  <g
     transform="translate(29.8846,7.3201)"
     id="g56">
    <path
       transform="scale(0.004,-0.004)"
       d="m 27,41 -1,-66 v -11 c 0,-22 1,-44 4,-66 45,38 93,80 93,139 0,33 -14,67 -43,67 C 49,104 28,74 27,41 Z m -42,-179 -12,595 c 8,5 18,8 27,8 9,0 19,-3 27,-8 L 20,112 c 25,21 58,34 91,34 52,0 89,-48 89,-102 0,-80 -86,-117 -147,-169 -15,-13 -24,-38 -45,-38 -13,0 -23,11 -23,25 z"
       fill="currentColor"
       id="path55" />
  </g>
  <g
     transform="translate(34.2928,8.8201)"
     id="g57">
    <path
       transform="scale(0.004,-0.004)"
       d="M 0,-46 C 0,45 116,136 217,136 280,136 326,101 326,46 326,-41 216,-136 106,-136 39,-136 0,-97 0,-46 Z"
       fill="currentColor"
       id="path56" />
  </g>
  <g
     transform="translate(34.3578,7.3201)"
     id="g58">
    <rect
       x="-0.064999998"
       y="1.6862"
       width="0.13"
       height="2.3013"
       ry="0.039999999"
       fill="currentColor"
       id="rect57" />
  </g>
  <g
     transform="translate(37.801,2.0388)"
     id="g59">
    <text
       font-family="'New Computer Modern Math'"
       font-size="2.3308px"
       text-anchor="start"
       fill="currentColor"
       id="text58"><tspan
         id="tspan58">E</tspan></text>
  </g>
  <g
     transform="translate(39.5888,1.7556)"
     id="g60">
    <path
       transform="scale(0.0038,-0.0038)"
       d="m 29,39 -2,-64 v -11 c 0,-22 2,-43 5,-65 44,38 91,80 91,138 0,33 -13,66 -42,66 C 50,103 30,72 29,39 Z m -57,415 c 9,5 18,8 28,8 10,0 19,-3 28,-8 L 21,111 c 25,23 58,36 92,36 51,0 87,-49 87,-103 0,-79 -84,-117 -144,-169 -16,-14 -25,-41 -47,-41 -14,0 -25,13 -25,27 z"
       fill="currentColor"
       id="path59" />
  </g>
  <g
     transform="translate(40.3439,2.8334)"
     id="g61">
    <text
       font-family="'New Computer Modern Math'"
       font-size="1.648px"
       text-anchor="start"
       fill="currentColor"
       id="text60"><tspan
         id="tspan60">7</tspan></text>
  </g>
  <g
     transform="translate(37.801,7.8201)"
     id="g62">
    <path
       transform="scale(0.004,-0.004)"
       d="M 0,-46 C 0,45 116,136 217,136 280,136 326,101 326,46 326,-41 216,-136 106,-136 39,-136 0,-97 0,-46 Z"
       fill="currentColor"
       id="path61" />
  </g>
  <g
     transform="translate(39.0402,7.3201)"
     id="g63">
    <rect
       x="-0.064999998"
       y="-2.8099999"
       width="0.13"
       height="3.1238"
       ry="0.039999999"
       fill="currentColor"
       id="rect62" />
  </g>
  <g
     transform="translate(41.0592,8.8201)"
     id="g64">
    <path
       transform="scale(0.004,-0.004)"
       d="M 0,-46 C 0,45 116,136 217,136 280,136 326,101 326,46 326,-41 216,-136 106,-136 39,-136 0,-97 0,-46 Z"
       fill="currentColor"
       id="path63" />
  </g>
  <g
     transform="translate(42.2984,7.3201)"
     id="g65">
    <rect
       x="-0.064999998"
       y="-2.8099999"
       width="0.13"
       height="4.1237998"
       ry="0.039999999"
       fill="currentColor"
       id="rect64" />
  </g>
  <g
     transform="translate(44.5674,7.8201)"
     id="g66">
    <path
       transform="scale(0.004,-0.004)"
       d="M 0,-46 C 0,45 116,136 217,136 280,136 326,101 326,46 326,-41 216,-136 106,-136 39,-136 0,-97 0,-46 Z"
       fill="currentColor"
       id="path65" />
  </g>
  <g
     transform="translate(44.5674,3.4163)"
     id="g67">
    <text
       font-family="'New Computer Modern Math'"
       font-size="2.2px"
       text-anchor="start"
       fill="currentColor"
       id="text66"><tspan
         id="tspan66">↓</tspan></text>
  </g>
  <g
     transform="translate(45.8066,7.3201)"
     id="g68">
    <rect
       x="-0.064999998"
       y="-2.8099999"
       width="0.13"
       height="3.1238"
       ry="0.039999999"
       fill="currentColor"
       id="rect67" />
  </g>
  <g
     transform="translate(43.4174,7.8201)"
     id="g69">
    <path
       transform="scale(0.004,-0.004)"
       d="m 27,41 -1,-66 v -11 c 0,-22 1,-44 4,-66 45,38 93,80 93,139 0,33 -14,67 -43,67 C 49,104 28,74 27,41 Z m -42,-179 -12,595 c 8,5 18,8 27,8 9,0 19,-3 27,-8 L 20,112 c 25,21 58,34 91,34 52,0 89,-48 89,-102 0,-80 -86,-117 -147,-169 -15,-13 -24,-38 -45,-38 -13,0 -23,11 -23,25 z"
       fill="currentColor"
       id="path68" />
  </g>
  <g
     transform="translate(47.8257,8.8201)"
     id="g70">
    <path
       transform="scale(0.004,-0.004)"
       d="M 0,-46 C 0,45 116,136 217,136 280,136 326,101 326,46 326,-41 216,-136 106,-136 39,-136 0,-97 0,-46 Z"
       fill="currentColor"
       id="path69" />
  </g>
  <g
     transform="translate(49.0649,7.3201)"
     id="g71">
    <rect
       x="-0.064999998"
       y="-2.8099999"
       width="0.13"
       height="4.1237998"
       ry="0.039999999"
       fill="currentColor"
       id="rect70" />
  </g>
  <g
     transform="translate(51.3339,8.3201)"
     id="g72">
    <path
       transform="scale(0.004,-0.004)"
       d="M 0,-46 C 0,45 116,136 217,136 280,136 326,101 326,46 326,-41 216,-136 106,-136 39,-136 0,-97 0,-46 Z"
       fill="currentColor"
       id="path71" />
  </g>
  <g
     transform="translate(51.3339,4.4163)"
     id="g73">
    <text
       font-family="'New Computer Modern Math'"
       font-size="2.2px"
       text-anchor="start"
       fill="currentColor"
       id="text72"><tspan
         id="tspan72">↓</tspan></text>
  </g>
  <g
     transform="translate(52.5731,7.3201)"
     id="g74">
    <rect
       x="-0.064999998"
       y="-1.9938999"
       width="0.13"
       height="2.8076999"
       ry="0.039999999"
       fill="currentColor"
       id="rect73" />
  </g>
  <g
     transform="translate(54.8421,8.8201)"
     id="g75">
    <path
       transform="scale(0.004,-0.004)"
       d="M 0,-46 C 0,45 116,136 217,136 280,136 326,101 326,46 326,-41 216,-136 106,-136 39,-136 0,-97 0,-46 Z"
       fill="currentColor"
       id="path74" />
  </g>
  <g
     transform="translate(54.8421,4.4163)"
     id="g76">
    <text
       font-family="'New Computer Modern Math'"
       font-size="2.2px"
       text-anchor="start"
       fill="currentColor"
       id="text75"><tspan
         id="tspan75">↓</tspan></text>
  </g>
  <g
     transform="translate(56.0813,7.3201)"
     id="g77">
    <rect
       x="-0.064999998"
       y="-1.6646"
       width="0.13"
       height="2.9784"
       ry="0.039999999"
       fill="currentColor"
       id="rect76" />
  </g>
  <g
     transform="translate(58.3503,9.3201)"
     id="g78">
    <path
       transform="scale(0.004,-0.004)"
       d="M 0,-46 C 0,45 116,136 217,136 280,136 326,101 326,46 326,-41 216,-136 106,-136 39,-136 0,-97 0,-46 Z"
       fill="currentColor"
       id="path77" />
  </g>
  <g
     transform="translate(58.3503,4.4163)"
     id="g79">
    <text
       font-family="'New Computer Modern Math'"
       font-size="2.2px"
       text-anchor="start"
       fill="currentColor"
       id="text78"><tspan
         id="tspan78">↓</tspan></text>
  </g>
  <g
     transform="translate(59.5895,7.3201)"
     id="g80">
    <rect
       x="-0.064999998"
       y="-1.3354"
       width="0.13"
       height="3.1492"
       ry="0.039999999"
       fill="currentColor"
       id="rect79" />
  </g>
  <g
     transform="translate(57.2003,9.3201)"
     id="g81">
    <path
       transform="scale(0.004,-0.004)"
       d="m 27,41 -1,-66 v -11 c 0,-22 1,-44 4,-66 45,38 93,80 93,139 0,33 -14,67 -43,67 C 49,104 28,74 27,41 Z m -42,-179 -12,595 c 8,5 18,8 27,8 9,0 19,-3 27,-8 L 20,112 c 25,21 58,34 91,34 52,0 89,-48 89,-102 0,-80 -86,-117 -147,-169 -15,-13 -24,-38 -45,-38 -13,0 -23,11 -23,25 z"
       fill="currentColor"
       id="path80" />
  </g>
  <g
     transform="translate(61.8586,9.8201)"
     id="g82">
    <path
       transform="scale(0.004,-0.004)"
       d="M 0,-46 C 0,45 116,136 217,136 280,136 326,101 326,46 326,-41 216,-136 106,-136 39,-136 0,-97 0,-46 Z"
       fill="currentColor"
       id="path81" />
  </g>
  <g
     transform="translate(61.8586,4.4163)"
     id="g83">
    <text
       font-family="'New Computer Modern Math'"
       font-size="2.2px"
       text-anchor="start"
       fill="currentColor"
       id="text82"><tspan
         id="tspan82">↓</tspan></text>
  </g>
  <g
     transform="translate(63.0978,7.3201)"
     id="g84">
    <rect
       x="-0.064999998"
       y="-1.0061001"
       width="0.13"
       height="3.3199"
       ry="0.039999999"
       fill="currentColor"
       id="rect83" />
  </g>
  <g
     transform="translate(60.7086,9.8201)"
     id="g85">
    <path
       transform="scale(0.004,-0.004)"
       d="m 27,41 -1,-66 v -11 c 0,-22 1,-44 4,-66 45,38 93,80 93,139 0,33 -14,67 -43,67 C 49,104 28,74 27,41 Z m -42,-179 -12,595 c 8,5 18,8 27,8 9,0 19,-3 27,-8 L 20,112 c 25,21 58,34 91,34 52,0 89,-48 89,-102 0,-80 -86,-117 -147,-169 -15,-13 -24,-38 -45,-38 -13,0 -23,11 -23,25 z"
       fill="currentColor"
       id="path84" />
  </g>
  <g
     transform="translate(66.6741,2.0388)"
     id="g86">
    <text
       font-family="'New Computer Modern Math'"
       font-size="2.3308px"
       text-anchor="start"
       fill="currentColor"
       id="text85"><tspan
         id="tspan85">A</tspan></text>
  </g>
  <g
     transform="translate(68.6326,1.7556)"
     id="g87">
    <path
       transform="scale(0.0038,-0.0038)"
       d="m 29,39 -2,-64 v -11 c 0,-22 2,-43 5,-65 44,38 91,80 91,138 0,33 -13,66 -42,66 C 50,103 30,72 29,39 Z m -57,415 c 9,5 18,8 28,8 10,0 19,-3 28,-8 L 21,111 c 25,23 58,36 92,36 51,0 87,-49 87,-103 0,-79 -84,-117 -144,-169 -16,-14 -25,-41 -47,-41 -14,0 -25,13 -25,27 z"
       fill="currentColor"
       id="path86" />
  </g>
  <g
     transform="translate(69.3877,2.8334)"
     id="g88">
    <text
       font-family="'New Computer Modern Math'"
       font-size="1.648px"
       text-anchor="start"
       fill="currentColor"
       id="text87"><tspan
         id="tspan87">△</tspan></text>
  </g>
  <g
     transform="translate(70.9924,2.8334)"
     id="g89">
    <text
       font-family="'New Computer Modern Math'"
       font-size="1.648px"
       text-anchor="start"
       fill="currentColor"
       id="text88"><tspan
         id="tspan88">7</tspan></text>
  </g>
  <g
     transform="translate(66.6741,10.3201)"
     id="g90">
    <path
       transform="scale(0.004,-0.004)"
       d="M 0,-46 C 0,45 116,136 217,136 280,136 326,101 326,46 326,-41 216,-136 106,-136 39,-136 0,-97 0,-46 Z"
       fill="currentColor"
       id="path89" />
  </g>
  <g
     transform="translate(66.6741,4.4163)"
     id="g91">
    <text
       font-family="'New Computer Modern Math'"
       font-size="2.2px"
       text-anchor="start"
       fill="currentColor"
       id="text90"><tspan
         id="tspan90">↓</tspan></text>
  </g>
  <g
     transform="translate(67.9133,7.3201)"
     id="g92">
    <rect
       x="-0.064999998"
       y="-1.8161"
       width="0.13"
       height="4.6299"
       ry="0.039999999"
       fill="currentColor"
       id="rect91" />
  </g>
  <g
     transform="translate(70.1823,9.3201)"
     id="g93">
    <path
       transform="scale(0.004,-0.004)"
       d="M 0,-46 C 0,45 116,136 217,136 280,136 326,101 326,46 326,-41 216,-136 106,-136 39,-136 0,-97 0,-46 Z"
       fill="currentColor"
       id="path92" />
  </g>
  <g
     transform="translate(71.4215,7.3201)"
     id="g94">
    <rect
       x="-0.064999998"
       y="-2.1454"
       width="0.13"
       height="3.9591999"
       ry="0.039999999"
       fill="currentColor"
       id="rect93" />
  </g>
  <g
     transform="translate(69.0323,9.3201)"
     id="g95">
    <path
       transform="scale(0.004,-0.004)"
       d="m 27,41 -1,-66 v -11 c 0,-22 1,-44 4,-66 45,38 93,80 93,139 0,33 -14,67 -43,67 C 49,104 28,74 27,41 Z m -42,-179 -12,595 c 8,5 18,8 27,8 9,0 19,-3 27,-8 L 20,112 c 25,21 58,34 91,34 52,0 89,-48 89,-102 0,-80 -86,-117 -147,-169 -15,-13 -24,-38 -45,-38 -13,0 -23,11 -23,25 z"
       fill="currentColor"
       id="path94" />
  </g>
  <g
     transform="translate(94.7399,7.3201)"
     id="g96">
    <path
       transform="scale(0.004,-0.004)"
       d="M 365,0 H 10 C 4,0 0,4 0,10 v 136 c 0,6 4,10 10,10 h 355 c 6,0 10,-4 10,-10 V 10 C 375,4 371,0 365,0 Z"
       fill="currentColor"
       id="path95" />
  </g>
  <g
     transform="translate(73.6906,8.8201)"
     id="g97">
    <path
       transform="scale(0.004,-0.004)"
       d="M 0,-46 C 0,45 116,136 217,136 280,136 326,101 326,46 326,-41 216,-136 106,-136 39,-136 0,-97 0,-46 Z"
       fill="currentColor"
       id="path96" />
  </g>
  <g
     transform="translate(74.9298,7.3201)"
     id="g98">
    <rect
       x="-0.064999998"
       y="-2.4746001"
       width="0.13"
       height="3.7883999"
       ry="0.039999999"
       fill="currentColor"
       id="rect97" />
  </g>
  <g
     transform="translate(77.1988,8.3201)"
     id="g99">
    <path
       transform="scale(0.004,-0.004)"
       d="M 0,-46 C 0,45 116,136 217,136 280,136 326,101 326,46 326,-41 216,-136 106,-136 39,-136 0,-97 0,-46 Z"
       fill="currentColor"
       id="path98" />
  </g>
  <g
     transform="translate(78.438,7.3201)"
     id="g100">
    <rect
       x="-0.064999998"
       y="-2.8039"
       width="0.13"
       height="3.6177001"
       ry="0.039999999"
       fill="currentColor"
       id="rect99" />
  </g>
  <g
     transform="translate(80.707,7.3201)"
     id="g101">
    <path
       transform="scale(0.004,-0.004)"
       d="M 0,-46 C 0,45 116,136 217,136 280,136 326,101 326,46 326,-41 216,-136 106,-136 39,-136 0,-97 0,-46 Z"
       fill="currentColor"
       id="path100" />
  </g>
  <g
     transform="translate(81.9462,7.3201)"
     id="g102">
    <rect
       x="-0.064999998"
       y="-3.0030999"
       width="0.13"
       height="2.8169"
       ry="0.039999999"
       fill="currentColor"
       id="rect101" />
  </g>
  <g
     transform="translate(79.557,7.3201)"
     id="g103">
    <path
       transform="scale(0.004,-0.004)"
       d="m 27,41 -1,-66 v -11 c 0,-22 1,-44 4,-66 45,38 93,80 93,139 0,33 -14,67 -43,67 C 49,104 28,74 27,41 Z m -42,-179 -12,595 c 8,5 18,8 27,8 9,0 19,-3 27,-8 L 20,112 c 25,21 58,34 91,34 52,0 89,-48 89,-102 0,-80 -86,-117 -147,-169 -15,-13 -24,-38 -45,-38 -13,0 -23,11 -23,25 z"
       fill="currentColor"
       id="path102" />
  </g>
  <g
     transform="translate(83.9652,8.3201)"
     id="g104">
    <path
       transform="scale(0.004,-0.004)"
       d="M 0,-46 C 0,45 116,136 217,136 280,136 326,101 326,46 326,-41 216,-136 106,-136 39,-136 0,-97 0,-46 Z"
       fill="currentColor"
       id="path103" />
  </g>
  <g
     transform="translate(85.2044,7.3201)"
     id="g105">
    <rect
       x="-0.064999998"
       y="-3.1559999"
       width="0.13"
       height="3.9698"
       ry="0.039999999"
       fill="currentColor"
       id="rect104" />
  </g>
  <g
     transform="translate(87.4734,7.8201)"
     id="g106">
    <path
       transform="scale(0.004,-0.004)"
       d="M 0,-46 C 0,45 116,136 217,136 280,136 326,101 326,46 326,-41 216,-136 106,-136 39,-136 0,-97 0,-46 Z"
       fill="currentColor"
       id="path105" />
  </g>
  <g
     transform="translate(88.7126,7.3201)"
     id="g107">
    <rect
       x="-0.064999998"
       y="-3.3206"
       width="0.13"
       height="3.6343999"
       ry="0.039999999"
       fill="currentColor"
       id="rect106" />
  </g>
  <g
     transform="translate(86.3234,7.8201)"
     id="g108">
    <path
       transform="scale(0.004,-0.004)"
       d="m 27,41 -1,-66 v -11 c 0,-22 1,-44 4,-66 45,38 93,80 93,139 0,33 -14,67 -43,67 C 49,104 28,74 27,41 Z m -42,-179 -12,595 c 8,5 18,8 27,8 9,0 19,-3 27,-8 L 20,112 c 25,21 58,34 91,34 52,0 89,-48 89,-102 0,-80 -86,-117 -147,-169 -15,-13 -24,-38 -45,-38 -13,0 -23,11 -23,25 z"
       fill="currentColor"
       id="path107" />
  </g>
  <g
     transform="translate(92.4709,7.3201)"
     id="g109">
    <rect
       x="-0.064999998"
       y="-3.4969001"
       width="0.13"
       height="2.8106999"
       ry="0.039999999"
       fill="currentColor"
       id="rect108" />
  </g>
  <g
     transform="translate(91.2317,6.8201)"
     id="g110">
    <path
       transform="scale(0.004,-0.004)"
       d="M 0,-46 C 0,45 116,136 217,136 280,136 326,101 326,46 326,-41 216,-136 106,-136 39,-136 0,-97 0,-46 Z"
       fill="currentColor"
       id="path109" />
  </g>
</svg>
