<?xml version="1.0" encoding="UTF-8" standalone="no"?>
<svg
   version="1.2"
   width="181.43102mm"
   height="75.281799mm"
   viewBox="0 0 103.24427 42.839501"
   id="svg221"
   sodipodi:docname="fig_397.svg"
   xmlns:inkscape="http://www.inkscape.org/namespaces/inkscape"
   xmlns:sodipodi="http://sodipodi.sourceforge.net/DTD/sodipodi-0.dtd"
   xmlns="http://www.w3.org/2000/svg"
   xmlns:svg="http://www.w3.org/2000/svg">
  <defs
     id="defs221" />
  <sodipodi:namedview
     id="namedview221"
     pagecolor="#505050"
     bordercolor="#eeeeee"
     borderopacity="1"
     inkscape:showpageshadow="0"
     inkscape:pageopacity="0"
     inkscape:pagecheckerboard="0"
     inkscape:deskcolor="#505050"
     inkscape:document-units="mm" />
  <style
     type="text/css"
     id="style1"><![CDATA[
tspan { white-space: pre; }
]]></style>
  <g
     transform="translate(103.05427,7.2955)"
     id="g1">
    <path
       id="rect1"
       style="fill:currentColor"
       d="M 0,-2 H 0.19 V 2 H 0 Z" />
  </g>
  <g
     transform="translate(0.8143722,10.2955)"
     id="g2">
    <path
       id="rect2"
       style="fill:currentColor"
       d="m 19.7661,-0.1 h 1.7563 c 0.0554,0 0.1,0.0446 0.1,0.1 0,0.0554 -0.0446,0.1 -0.1,0.1 h -1.7563 c -0.0554,0 -0.1,-0.0446 -0.1,-0.1 0,-0.0554 0.0446,-0.1 0.1,-0.1 z" />
  </g>
  <g
     transform="translate(0.8143722,9.2955)"
     id="g3">
    <path
       id="line2"
       style="stroke:currentColor;stroke-width:0.1;stroke-linecap:round;stroke-linejoin:round"
       d="M 0.05,0 H 102.3799" />
  </g>
  <g
     transform="translate(0.8143722,8.2955)"
     id="g4">
    <path
       id="line3"
       style="stroke:currentColor;stroke-width:0.1;stroke-linecap:round;stroke-linejoin:round"
       d="M 0.05,0 H 102.3799" />
  </g>
  <g
     transform="translate(0.8143722,7.2955)"
     id="g5">
    <path
       id="line4"
       style="stroke:currentColor;stroke-width:0.1;stroke-linecap:round;stroke-linejoin:round"
       d="M 0.05,0 H 102.3799" />
  </g>
  <g
     transform="translate(0.8143722,6.2955)"
     id="g6">
    <path
       id="line5"
       style="stroke:currentColor;stroke-width:0.1;stroke-linecap:round;stroke-linejoin:round"
       d="M 0.05,0 H 102.3799" />
  </g>
  <g
     transform="translate(0.8143722,5.2955)"
     id="g7">
    <path
       id="line6"
       style="stroke:currentColor;stroke-width:0.1;stroke-linecap:round;stroke-linejoin:round"
       d="M 0.05,0 H 102.3799" />
  </g>
  <g
     transform="translate(68.519172,7.2955)"
     id="g8">
    <path
       id="rect7"
       style="fill:currentColor"
       d="M 0,-2 H 0.19 V 2 H 0 Z" />
  </g>
  <g
     transform="translate(53.265472,7.2955)"
     id="g9">
    <path
       id="rect8"
       style="fill:currentColor"
       d="M 0,-2 H 0.19 V 2 H 0 Z" />
  </g>
  <g
     transform="translate(38.011672,7.2955)"
     id="g10">
    <path
       id="rect9"
       style="fill:currentColor"
       d="M 0,-2 H 0.19 V 2 H 0 Z" />
  </g>
  <g
     transform="translate(70.157972,2.2955)"
     id="g11">
    <path
       style="font-size:2.3308px;font-family:'NewComputerModern Math';white-space:pre"
       d="M 1.421788,-1.060514 1.356526,-1.584944 H 0.0769164 v 0.072255 h 0.0559392 c 0.17947161,0 0.18413321,0.025639 0.18413321,0.1095476 v 1.2213392 c 0,0.0839088 -0.004662,0.1095476 -0.18413321,0.1095476 H 0.0769164 V 0 c 0.081578,-0.0069924 0.26338041,-0.0069924 0.35428161,-0.0069924 0.0955628,0 0.30766561,0 0.39157441,0.0069924 v -0.0722548 h -0.0769164 c -0.22142601,0 -0.22142601,-0.0303004 -0.22142601,-0.1118784 v -0.57337682 h 0.20044881 c 0.2237568,0 0.2470648,0.0745856 0.2470648,0.27270361 h 0.05827 V -1.1024684 h -0.05827 c 0,0.19578718 -0.023308,0.27270358 -0.2470648,0.27270358 H 0.52443001 V -1.4194572 c 0,-0.076916 0.004662,-0.093232 0.11420921,-0.093232 h 0.279696 c 0.34961998,0 0.40788998,0.1305248 0.44518278,0.4521752 z"
       id="text10"
       aria-label="F" />
  </g>
  <g
     transform="translate(71.694372,3.0901)"
     id="g12">
    <path
       style="font-size:1.648px;font-family:'NewComputerModern Math';white-space:pre"
       d="m 1.189856,-0.412 c 0,-0.018128 -0.014832,-0.03296 -0.03296,-0.03296 H 0.125248 c -0.018128,0 -0.03296,0.014832 -0.03296,0.03296 0,0.018128 0.014832,0.03296 0.03296,0.03296 h 1.031648 c 0.018128,0 0.03296,-0.014832 0.03296,-0.03296 z"
       id="text11"
       aria-label="−" />
  </g>
  <g
     transform="translate(72.991872,3.0901)"
     id="g13">
    <path
       style="font-size:1.648px;font-family:'NewComputerModern Math';white-space:pre"
       d="M 0.79928,-1.061312 H 0.398816 c -0.201056,0 -0.204352,-0.021424 -0.210944,-0.052736 h -0.0412 L 0.092288,-0.77456 h 0.0412 c 0.004944,-0.026368 0.019776,-0.130192 0.0412,-0.149968 0.011536,-0.009888 0.14008,-0.009888 0.161504,-0.009888 h 0.341136 l -0.184576,0.260384 c -0.14832,0.22248 -0.202704,0.451552 -0.202704,0.619648 0,0.01648 0,0.09064 0.075808,0.09064 0.075808,0 0.075808,-0.07416 0.075808,-0.09064 v -0.084048 c 0,-0.09064 0.004944,-0.18128 0.018128,-0.270272 0.006592,-0.037904 0.029664,-0.179632 0.102176,-0.281808 l 0.22248,-0.31312 C 0.79928,-1.023408 0.79928,-1.026704 0.79928,-1.061312 Z"
       id="text12"
       aria-label="7" />
  </g>
  <g
     transform="translate(87.037472,9.2955)"
     id="g14">
    <path
       id="polygon13"
       style="fill:currentColor;stroke:currentColor;stroke-width:0.08;stroke-linecap:round;stroke-linejoin:round"
       d="m 4.0575,-0.01 v 0.4 L 0.04,0.2 v -0.4 z" />
  </g>
  <g
     transform="translate(11.689372,2.2955)"
     id="g15">
    <path
       style="font-size:2.3308px;font-family:'NewComputerModern Math';white-space:pre"
       d="m 1.5173508,-0.42653641 c 0,-0.20277961 -0.1911256,-0.37758961 -0.4498444,-0.40555921 0.2260876,-0.0442852 0.3869128,-0.19345638 0.3869128,-0.36593558 0,-0.2027796 -0.2144336,-0.3939052 -0.51743758,-0.3939052 H 0.0839088 v 0.072255 H 0.139848 c 0.17947161,0 0.18413321,0.025639 0.18413321,0.1095476 v 1.2283316 c 0,0.0839088 -0.004662,0.1095476 -0.18413321,0.1095476 H 0.0839088 V 0 H 0.99758242 C 1.3075788,0 1.5173508,-0.20744121 1.5173508,-0.42653641 Z M 1.2283316,-1.1980312 c 0,0.1491712 -0.1142092,0.34495838 -0.37292798,0.34495838 H 0.51743761 V -1.4264496 c 0,-0.076916 0.004662,-0.093232 0.11420921,-0.093232 h 0.2890192 c 0.22608758,0 0.30766558,0.198118 0.30766558,0.3216504 z m 0.055939,0.76916399 c 0,0.1654868 -0.1212016,0.35661241 -0.36127398,0.35661241 h -0.29135 c -0.10954761,0 -0.11420921,-0.0163156 -0.11420921,-0.093232 v -0.63630842 h 0.43819041 c 0.23074918,0 0.32864278,0.21676441 0.32864278,0.37292801 z"
       id="text14"
       aria-label="B" />
  </g>
  <g
     transform="translate(13.328272,1.236)"
     id="g16">
    <path
       style="font-size:1.648px;font-family:'NewComputerModern Math';white-space:pre"
       d="m 0.548784,-0.529008 c 0,-0.121952 -0.09064,-0.229072 -0.225776,-0.229072 -0.092288,0 -0.158208,0.037904 -0.191168,0.069216 v -0.500992 c 0,-0.031312 0,-0.046144 -0.019776,-0.046144 -0.021424,0 -0.021424,0.013184 -0.021424,0.046144 v 1.179968 c 0,0.03296 0,0.046144 0.021424,0.046144 0.01648,0 0.187872,-0.118656 0.278512,-0.215888 0.09064,-0.097232 0.158208,-0.212592 0.158208,-0.349376 z m -0.133488,0 c 0,0.260384 -0.243904,0.46968 -0.283456,0.50264 v -0.538896 c 0,-0.037904 0,-0.072512 0.054384,-0.103824 0.051088,-0.029664 0.1236,-0.029664 0.1236,-0.029664 0.075808,0 0.105472,0.088992 0.105472,0.169744 z"
       id="text15"
       aria-label="♭" />
  </g>
  <g
     transform="translate(13.976972,3.0901)"
     id="g17">
    <path
       style="font-size:1.648px;font-family:'NewComputerModern Math';white-space:pre"
       d="M 0.79928,-1.061312 H 0.398816 c -0.201056,0 -0.204352,-0.021424 -0.210944,-0.052736 h -0.0412 L 0.092288,-0.77456 h 0.0412 c 0.004944,-0.026368 0.019776,-0.130192 0.0412,-0.149968 0.011536,-0.009888 0.14008,-0.009888 0.161504,-0.009888 h 0.341136 l -0.184576,0.260384 c -0.14832,0.22248 -0.202704,0.451552 -0.202704,0.619648 0,0.01648 0,0.09064 0.075808,0.09064 0.075808,0 0.075808,-0.07416 0.075808,-0.09064 v -0.084048 c 0,-0.09064 0.004944,-0.18128 0.018128,-0.270272 0.006592,-0.037904 0.029664,-0.179632 0.102176,-0.281808 l 0.22248,-0.31312 C 0.79928,-1.023408 0.79928,-1.026704 0.79928,-1.061312 Z"
       id="text16"
       aria-label="7" />
  </g>
  <g
     transform="translate(11.689372,9.7955)"
     id="g18">
    <path
       transform="scale(0.004,-0.004)"
       d="m 72,-106 c 40,0 204,110 231,143 7,9 11,19 11,28 0,22 -18,41 -42,41 C 232,106 68,-4 41,-37 34,-46 31,-56 31,-65 c 0,-22 17,-41 41,-41 z M 0,-67 c 0,71 46,203 258,203 41,0 86,-10 86,-69 0,-71 -46,-203 -258,-203 -41,0 -86,10 -86,69 z"
       fill="currentColor"
       id="path17" />
  </g>
  <g
     transform="translate(1.6143722,8.2955)"
     id="g19">
    <path
       transform="scale(0.004,-0.004)"
       d="m 266,-635 h -6 c -108,0 -195,88 -195,197 0,58 53,103 112,103 54,0 95,-47 95,-103 0,-52 -43,-95 -95,-95 -11,0 -21,2 -31,6 26,-39 68,-65 117,-65 h 4 z m 135,786 c 19,-89 48,-242 60,-354 76,27 112,94 112,163 0,89 -60,179 -172,191 z M 74,28 c 0,-112 98,-247 278,-247 21,0 44,2 68,6 -7,64 -29,203 -63,364 -79,-8 -124,-61 -124,-119 0,-44 25,-91 81,-123 5,-5 7,-10 7,-15 0,-11 -10,-22 -22,-22 -15,0 -126,62 -126,187 0,88 58,174 160,197 -14,58 -29,117 -46,175 C 180,310 74,188 74,28 Z m 283,1166 c 28,0 143,-206 143,-361 0,-143 -86,-255 -180,-364 21,-68 39,-138 56,-207 5,0 10,1 14,1 155,0 255,-129 255,-262 0,-113 -74,-212 -180,-245 3,-35 5,-70 5,-105 0,-19 -1,-39 -2,-58 -7,-119 -88,-225 -202,-228 l 1,43 c 93,2 153,92 159,191 1,18 2,37 2,55 0,31 -1,61 -4,92 -28,-5 -55,-8 -80,-8 -239,0 -342,217 -342,374 0,177 131,306 248,441 -29,96 -52,170 -52,346 0,189 144,295 159,295 z M 247,782 c 0,-55 12,-115 35,-190 83,100 147,202 147,326 0,40 -6,82 -21,127 -49,-24 -161,-97 -161,-263 z"
       fill="currentColor"
       id="path18" />
  </g>
  <g
     transform="translate(5.1193722,7.2955)"
     id="g20">
    <path
       transform="scale(0.004,-0.004)"
       d="m 27,41 -1,-66 v -11 c 0,-22 1,-44 4,-66 45,38 93,80 93,139 0,33 -14,67 -43,67 C 49,104 28,74 27,41 Z m -42,-179 -12,595 c 8,5 18,8 27,8 9,0 19,-3 27,-8 L 20,112 c 25,21 58,34 91,34 52,0 89,-48 89,-102 0,-80 -86,-117 -147,-169 -15,-13 -24,-38 -45,-38 -13,0 -23,11 -23,25 z"
       fill="currentColor"
       id="path19" />
  </g>
  <g
     transform="translate(6.0393722,5.7955)"
     id="g21">
    <path
       transform="scale(0.004,-0.004)"
       d="m 27,41 -1,-66 v -11 c 0,-22 1,-44 4,-66 45,38 93,80 93,139 0,33 -14,67 -43,67 C 49,104 28,74 27,41 Z m -42,-179 -12,595 c 8,5 18,8 27,8 9,0 19,-3 27,-8 L 20,112 c 25,21 58,34 91,34 52,0 89,-48 89,-102 0,-80 -86,-117 -147,-169 -15,-13 -24,-38 -45,-38 -13,0 -23,11 -23,25 z"
       fill="currentColor"
       id="path20" />
  </g>
  <g
     transform="translate(7.9893722,7.2955)"
     id="g22">
    <path
       transform="scale(0.004,-0.004)"
       d="M 433,-89 C 433,-111 383,-263 250,-263 191,-263 0,-244 0,0 0,62 18,262 250,262 366,262 426,156 426,99 426,59 396,27 359,27 c -31,0 -75,25 -75,75 0,38 27,77 72,77 4,0 9,0 14,-1 -28,37 -72,59 -120,59 C 144,237 137,164 137,51 V 0 -51 c 0,-113 7,-187 113,-187 80,0 139,70 158,151 2,7 7,10 12,10 6,0 13,-4 13,-12 z"
       fill="currentColor"
       id="path21" />
  </g>
  <g
     transform="translate(13.001772,7.2955)"
     id="g23">
    <path
       id="rect22"
       style="fill:currentColor"
       d="m -0.025,-1 h 0.05 c 0.02216,0 0.04,0.01784 0.04,0.04 v 3.1609999 c 0,0.02216 -0.01784,0.04 -0.04,0.04 h -0.05 c -0.02216,0 -0.04,-0.01784 -0.04,-0.04 V -0.96 c 0,-0.02216 0.01784,-0.04 0.04,-0.04 z" />
  </g>
  <g
     transform="translate(78.852472,10.1055)"
     id="g24">
    <path
       id="polygon23"
       style="fill:currentColor;stroke:currentColor;stroke-width:0.08;stroke-linecap:round;stroke-linejoin:round"
       d="m 4.3075,-0.82 v 0.4 L 0.04,0.2 v -0.4 z" />
  </g>
  <g
     transform="translate(20.806572,10.7955)"
     id="g25">
    <path
       transform="scale(0.004,-0.004)"
       d="M 0,-46 C 0,45 116,136 217,136 280,136 326,101 326,46 326,-41 216,-136 106,-136 39,-136 0,-97 0,-46 Z"
       fill="currentColor"
       id="path24" />
  </g>
  <g
     transform="translate(22.045772,7.2955)"
     id="g26">
    <path
       id="rect25"
       style="fill:currentColor"
       d="m -0.025,-0.0028 h 0.05 c 0.02216,0 0.04,0.01784 0.04,0.04 v 3.2366001 c 0,0.02216 -0.01784,0.04 -0.04,0.04 h -0.05 c -0.02216,0 -0.04,-0.01784 -0.04,-0.04 V 0.0372 c 0,-0.02216 0.01784,-0.04 0.04,-0.04 z" />
  </g>
  <g
     transform="translate(71.332172,5.1055)"
     id="g27">
    <path
       id="polygon26"
       style="fill:currentColor;stroke:currentColor;stroke-width:0.08;stroke-linecap:round;stroke-linejoin:round"
       d="m 4.7275,-0.82 v 0.4 L 0.04,0.2 v -0.4 z" />
  </g>
  <g
     transform="translate(25.024072,9.7955)"
     id="g28">
    <path
       transform="scale(0.004,-0.004)"
       d="M 0,-46 C 0,45 116,136 217,136 280,136 326,101 326,46 326,-41 216,-136 106,-136 39,-136 0,-97 0,-46 Z"
       fill="currentColor"
       id="path27" />
  </g>
  <g
     transform="translate(26.263272,7.2955)"
     id="g29">
    <path
       id="rect28"
       style="fill:currentColor"
       d="m -0.025,-0.18719999 h 0.05 c 0.02216,0 0.04,0.01784 0.04,0.04 V 2.2737999 c 0,0.02216 -0.01784,0.04 -0.04,0.04 h -0.05 c -0.02216,0 -0.04,-0.01784 -0.04,-0.04 V -0.1472 c 0,-0.02216 0.01784,-0.04 0.04,-0.04 z" />
  </g>
  <g
     transform="translate(30.415672,5.1055)"
     id="g30">
    <path
       id="polygon29"
       style="fill:currentColor;stroke:currentColor;stroke-width:0.08;stroke-linecap:round;stroke-linejoin:round"
       d="m 4.7275,-0.82 v 0.4 L 0.04,0.2 v -0.4 z" />
  </g>
  <g
     transform="translate(29.241472,8.7955)"
     id="g31">
    <path
       transform="scale(0.004,-0.004)"
       d="M 0,-46 C 0,45 116,136 217,136 280,136 326,101 326,46 326,-41 216,-136 106,-136 39,-136 0,-97 0,-46 Z"
       fill="currentColor"
       id="path30" />
  </g>
  <g
     transform="translate(30.480672,7.2955)"
     id="g32">
    <path
       id="rect31"
       style="fill:currentColor"
       d="m -0.025,-2.1984999 h 0.05 c 0.02216,0 0.04,0.01784 0.04,0.04 v 3.4323 c 0,0.02216 -0.01784,0.04 -0.04,0.04 h -0.05 c -0.02216,0 -0.04,-0.01784 -0.04,-0.04 v -3.4323 c 0,-0.02216 0.01784,-0.04 0.04,-0.04 z" />
  </g>
  <g
     transform="translate(21.980772,7.2955)"
     id="g33">
    <path
       id="polygon32"
       style="fill:currentColor;stroke:currentColor;stroke-width:0.08;stroke-linecap:round;stroke-linejoin:round"
       d="m 4.3075,-0.39 v 0.4 L 0.04,0.2 v -0.4 z" />
  </g>
  <g
     transform="translate(33.878972,7.7955)"
     id="g34">
    <path
       transform="scale(0.004,-0.004)"
       d="M 0,-46 C 0,45 116,136 217,136 280,136 326,101 326,46 326,-41 216,-136 106,-136 39,-136 0,-97 0,-46 Z"
       fill="currentColor"
       id="path33" />
  </g>
  <g
     transform="translate(35.118172,7.2955)"
     id="g35">
    <path
       id="rect34"
       style="fill:currentColor"
       d="m -0.025,-2.8015001 h 0.05 c 0.02216,0 0.04,0.01784 0.04,0.04 v 3.03529996 c 0,0.02216 -0.01784,0.04 -0.04,0.04 h -0.05 c -0.02216,0 -0.04,-0.01784 -0.04,-0.04 V -2.7615001 c 0,-0.02216 0.01784,-0.04 0.04,-0.04 z" />
  </g>
  <g
     transform="translate(32.728972,7.7955)"
     id="g36">
    <path
       transform="scale(0.004,-0.004)"
       d="m 27,41 -1,-66 v -11 c 0,-22 1,-44 4,-66 45,38 93,80 93,139 0,33 -14,67 -43,67 C 49,104 28,74 27,41 Z m -42,-179 -12,595 c 8,5 18,8 27,8 9,0 19,-3 27,-8 L 20,112 c 25,21 58,34 91,34 52,0 89,-48 89,-102 0,-80 -86,-117 -147,-169 -15,-13 -24,-38 -45,-38 -13,0 -23,11 -23,25 z"
       fill="currentColor"
       id="path35" />
  </g>
  <g
     transform="translate(40.650372,2.2955)"
     id="g37">
    <path
       style="font-size:2.3308px;font-family:'NewComputerModern Math';white-space:pre"
       d="m 1.5196816,-0.60134641 h -0.05827 c -0.05827,0.3589432 -0.1118784,0.52909161 -0.51277598,0.52909161 h -0.3099964 c -0.10954761,0 -0.11420921,-0.0163156 -0.11420921,-0.093232 v -0.62232362 h 0.20977201 c 0.2260876,0 0.2517264,0.0745856 0.2517264,0.27270361 h 0.05827 V -1.1327688 h -0.05827 c 0,0.20044878 -0.0256388,0.27270358 -0.2517264,0.27270358 H 0.52443001 V -1.4194572 c 0,-0.076916 0.004662,-0.093232 0.11420921,-0.093232 h 0.3006732 c 0.35661238,0 0.41954398,0.128194 0.45683678,0.4521752 h 0.05827 l -0.065262,-0.52443 H 0.0769164 v 0.072255 h 0.0559392 c 0.17947161,0 0.18413321,0.025639 0.18413321,0.1095476 v 1.2213392 c 0,0.0839088 -0.004662,0.1095476 -0.18413321,0.1095476 H 0.0769164 V 0 H 1.421788 Z"
       id="text36"
       aria-label="E" />
  </g>
  <g
     transform="translate(42.220972,1.236)"
     id="g38">
    <path
       style="font-size:1.648px;font-family:'NewComputerModern Math';white-space:pre"
       d="m 0.548784,-0.529008 c 0,-0.121952 -0.09064,-0.229072 -0.225776,-0.229072 -0.092288,0 -0.158208,0.037904 -0.191168,0.069216 v -0.500992 c 0,-0.031312 0,-0.046144 -0.019776,-0.046144 -0.021424,0 -0.021424,0.013184 -0.021424,0.046144 v 1.179968 c 0,0.03296 0,0.046144 0.021424,0.046144 0.01648,0 0.187872,-0.118656 0.278512,-0.215888 0.09064,-0.097232 0.158208,-0.212592 0.158208,-0.349376 z m -0.133488,0 c 0,0.260384 -0.243904,0.46968 -0.283456,0.50264 v -0.538896 c 0,-0.037904 0,-0.072512 0.054384,-0.103824 0.051088,-0.029664 0.1236,-0.029664 0.1236,-0.029664 0.075808,0 0.105472,0.088992 0.105472,0.169744 z"
       id="text37"
       aria-label="♭" />
  </g>
  <g
     transform="translate(42.869772,3.0901)"
     id="g39">
    <path
       style="font-size:1.648px;font-family:'NewComputerModern Math';white-space:pre"
       d="M 0.79928,-1.061312 H 0.398816 c -0.201056,0 -0.204352,-0.021424 -0.210944,-0.052736 h -0.0412 L 0.092288,-0.77456 h 0.0412 c 0.004944,-0.026368 0.019776,-0.130192 0.0412,-0.149968 0.011536,-0.009888 0.14008,-0.009888 0.161504,-0.009888 h 0.341136 l -0.184576,0.260384 c -0.14832,0.22248 -0.202704,0.451552 -0.202704,0.619648 0,0.01648 0,0.09064 0.075808,0.09064 0.075808,0 0.075808,-0.07416 0.075808,-0.09064 v -0.084048 c 0,-0.09064 0.004944,-0.18128 0.018128,-0.270272 0.006592,-0.037904 0.029664,-0.179632 0.102176,-0.281808 l 0.22248,-0.31312 C 0.79928,-1.023408 0.79928,-1.026704 0.79928,-1.061312 Z"
       id="text38"
       aria-label="7" />
  </g>
  <g
     transform="translate(40.650372,8.2955)"
     id="g40">
    <path
       transform="scale(0.004,-0.004)"
       d="m 347,-26 c 0,102 -89,139 -133,139 -23,0 -70,-10 -70,-89 0,-91 76,-136 132,-136 22,0 71,8 71,86 z M 245,136 C 389,136 491,71 491,0 491,-71 389,-136 245,-136 101,-136 0,-71 0,0 0,71 101,136 245,136 Z"
       fill="currentColor"
       id="path39" />
  </g>
  <g
     transform="translate(55.904172,2.2955)"
     id="g41">
    <path
       style="font-size:2.3308px;font-family:'NewComputerModern Math';white-space:pre"
       d="m 1.5173508,-0.42653641 c 0,-0.20277961 -0.1911256,-0.37758961 -0.4498444,-0.40555921 0.2260876,-0.0442852 0.3869128,-0.19345638 0.3869128,-0.36593558 0,-0.2027796 -0.2144336,-0.3939052 -0.51743758,-0.3939052 H 0.0839088 v 0.072255 H 0.139848 c 0.17947161,0 0.18413321,0.025639 0.18413321,0.1095476 v 1.2283316 c 0,0.0839088 -0.004662,0.1095476 -0.18413321,0.1095476 H 0.0839088 V 0 H 0.99758242 C 1.3075788,0 1.5173508,-0.20744121 1.5173508,-0.42653641 Z M 1.2283316,-1.1980312 c 0,0.1491712 -0.1142092,0.34495838 -0.37292798,0.34495838 H 0.51743761 V -1.4264496 c 0,-0.076916 0.004662,-0.093232 0.11420921,-0.093232 h 0.2890192 c 0.22608758,0 0.30766558,0.198118 0.30766558,0.3216504 z m 0.055939,0.76916399 c 0,0.1654868 -0.1212016,0.35661241 -0.36127398,0.35661241 h -0.29135 c -0.10954761,0 -0.11420921,-0.0163156 -0.11420921,-0.093232 v -0.63630842 h 0.43819041 c 0.23074918,0 0.32864278,0.21676441 0.32864278,0.37292801 z"
       id="text40"
       aria-label="B" />
  </g>
  <g
     transform="translate(57.543072,1.236)"
     id="g42">
    <path
       style="font-size:1.648px;font-family:'NewComputerModern Math';white-space:pre"
       d="m 0.548784,-0.529008 c 0,-0.121952 -0.09064,-0.229072 -0.225776,-0.229072 -0.092288,0 -0.158208,0.037904 -0.191168,0.069216 v -0.500992 c 0,-0.031312 0,-0.046144 -0.019776,-0.046144 -0.021424,0 -0.021424,0.013184 -0.021424,0.046144 v 1.179968 c 0,0.03296 0,0.046144 0.021424,0.046144 0.01648,0 0.187872,-0.118656 0.278512,-0.215888 0.09064,-0.097232 0.158208,-0.212592 0.158208,-0.349376 z m -0.133488,0 c 0,0.260384 -0.243904,0.46968 -0.283456,0.50264 v -0.538896 c 0,-0.037904 0,-0.072512 0.054384,-0.103824 0.051088,-0.029664 0.1236,-0.029664 0.1236,-0.029664 0.075808,0 0.105472,0.088992 0.105472,0.169744 z"
       id="text41"
       aria-label="♭" />
  </g>
  <g
     transform="translate(58.191772,3.0901)"
     id="g43">
    <path
       style="font-size:1.648px;font-family:'NewComputerModern Math';white-space:pre"
       d="M 0.79928,-1.061312 H 0.398816 c -0.201056,0 -0.204352,-0.021424 -0.210944,-0.052736 h -0.0412 L 0.092288,-0.77456 h 0.0412 c 0.004944,-0.026368 0.019776,-0.130192 0.0412,-0.149968 0.011536,-0.009888 0.14008,-0.009888 0.161504,-0.009888 h 0.341136 l -0.184576,0.260384 c -0.14832,0.22248 -0.202704,0.451552 -0.202704,0.619648 0,0.01648 0,0.09064 0.075808,0.09064 0.075808,0 0.075808,-0.07416 0.075808,-0.09064 v -0.084048 c 0,-0.09064 0.004944,-0.18128 0.018128,-0.270272 0.006592,-0.037904 0.029664,-0.179632 0.102176,-0.281808 l 0.22248,-0.31312 C 0.79928,-1.023408 0.79928,-1.026704 0.79928,-1.061312 Z"
       id="text42"
       aria-label="7" />
  </g>
  <g
     transform="translate(55.904172,8.7955)"
     id="g44">
    <path
       transform="scale(0.004,-0.004)"
       d="m 347,-26 c 0,102 -89,139 -133,139 -23,0 -70,-10 -70,-89 0,-91 76,-136 132,-136 22,0 71,8 71,86 z M 245,136 C 389,136 491,71 491,0 491,-71 389,-136 245,-136 101,-136 0,-71 0,0 0,71 101,136 245,136 Z"
       fill="currentColor"
       id="path43" />
  </g>
  <g
     transform="translate(96.128372,4.2955)"
     id="g45">
    <path
       id="polygon44"
       style="fill:currentColor;stroke:currentColor;stroke-width:0.08;stroke-linecap:round;stroke-linejoin:round"
       d="m 4.0575,-0.01 v 0.4 L 0.04,0.2 v -0.4 z" />
  </g>
  <g
     transform="translate(70.157972,8.7955)"
     id="g46">
    <path
       transform="scale(0.004,-0.004)"
       d="M 0,-46 C 0,45 116,136 217,136 280,136 326,101 326,46 326,-41 216,-136 106,-136 39,-136 0,-97 0,-46 Z"
       fill="currentColor"
       id="path45" />
  </g>
  <g
     transform="translate(71.397172,7.2955)"
     id="g47">
    <path
       id="rect46"
       style="fill:currentColor"
       d="m -0.025,-2.1984999 h 0.05 c 0.02216,0 0.04,0.01784 0.04,0.04 v 3.4323 c 0,0.02216 -0.01784,0.04 -0.04,0.04 h -0.05 c -0.02216,0 -0.04,-0.01784 -0.04,-0.04 v -3.4323 c 0,-0.02216 0.01784,-0.04 0.04,-0.04 z" />
  </g>
  <g
     transform="translate(74.795372,7.7955)"
     id="g48">
    <path
       transform="scale(0.004,-0.004)"
       d="M 0,-46 C 0,45 116,136 217,136 280,136 326,101 326,46 326,-41 216,-136 106,-136 39,-136 0,-97 0,-46 Z"
       fill="currentColor"
       id="path47" />
  </g>
  <g
     transform="translate(76.034572,7.2955)"
     id="g49">
    <path
       id="rect48"
       style="fill:currentColor"
       d="m -0.025,-2.8015001 h 0.05 c 0.02216,0 0.04,0.01784 0.04,0.04 v 3.03529996 c 0,0.02216 -0.01784,0.04 -0.04,0.04 h -0.05 c -0.02216,0 -0.04,-0.01784 -0.04,-0.04 V -2.7615001 c 0,-0.02216 0.01784,-0.04 0.04,-0.04 z" />
  </g>
  <g
     transform="translate(73.645372,7.7955)"
     id="g50">
    <path
       transform="scale(0.004,-0.004)"
       d="m 27,41 -1,-66 v -11 c 0,-22 1,-44 4,-66 45,38 93,80 93,139 0,33 -14,67 -43,67 C 49,104 28,74 27,41 Z m -42,-179 -12,595 c 8,5 18,8 27,8 9,0 19,-3 27,-8 L 20,112 c 25,21 58,34 91,34 52,0 89,-48 89,-102 0,-80 -86,-117 -147,-169 -15,-13 -24,-38 -45,-38 -13,0 -23,11 -23,25 z"
       fill="currentColor"
       id="path49" />
  </g>
  <g
     transform="translate(78.852472,6.7955)"
     id="g51">
    <path
       transform="scale(0.004,-0.004)"
       d="M 0,-46 C 0,45 116,136 217,136 280,136 326,101 326,46 326,-41 216,-136 106,-136 39,-136 0,-97 0,-46 Z"
       fill="currentColor"
       id="path50" />
  </g>
  <g
     transform="translate(78.917472,7.2955)"
     id="g52">
    <path
       id="rect51"
       style="fill:currentColor"
       d="m -0.025,-0.31380001 h 0.05 c 0.02216,0 0.04,0.01784 0.04,0.04 V 2.7607 c 0,0.02216 -0.01784,0.04 -0.04,0.04 h -0.05 c -0.02216,0 -0.04,-0.01784 -0.04,-0.04 v -3.03450001 c 0,-0.02216 0.01784,-0.04 0.04,-0.04 z" />
  </g>
  <g
     transform="translate(83.069972,5.7955)"
     id="g53">
    <path
       transform="scale(0.004,-0.004)"
       d="M 0,-46 C 0,45 116,136 217,136 280,136 326,101 326,46 326,-41 216,-136 106,-136 39,-136 0,-97 0,-46 Z"
       fill="currentColor"
       id="path52" />
  </g>
  <g
     transform="translate(83.134972,7.2955)"
     id="g54">
    <path
       id="rect53"
       style="fill:currentColor"
       d="m -0.025,-1.3138 h 0.05 c 0.02216,0 0.04,0.01784 0.04,0.04 v 3.4330999 c 0,0.02216 -0.01784,0.04 -0.04,0.04 h -0.05 c -0.02216,0 -0.04,-0.01784 -0.04,-0.04 V -1.2738 c 0,-0.02216 0.01784,-0.04 0.04,-0.04 z" />
  </g>
  <g
     transform="translate(87.037472,2.2955)"
     id="g55">
    <path
       style="font-size:2.3308px;font-family:'NewComputerModern Math';white-space:pre"
       d="m 1.5173508,-0.42653641 c 0,-0.20277961 -0.1911256,-0.37758961 -0.4498444,-0.40555921 0.2260876,-0.0442852 0.3869128,-0.19345638 0.3869128,-0.36593558 0,-0.2027796 -0.2144336,-0.3939052 -0.51743758,-0.3939052 H 0.0839088 v 0.072255 H 0.139848 c 0.17947161,0 0.18413321,0.025639 0.18413321,0.1095476 v 1.2283316 c 0,0.0839088 -0.004662,0.1095476 -0.18413321,0.1095476 H 0.0839088 V 0 H 0.99758242 C 1.3075788,0 1.5173508,-0.20744121 1.5173508,-0.42653641 Z M 1.2283316,-1.1980312 c 0,0.1491712 -0.1142092,0.34495838 -0.37292798,0.34495838 H 0.51743761 V -1.4264496 c 0,-0.076916 0.004662,-0.093232 0.11420921,-0.093232 h 0.2890192 c 0.22608758,0 0.30766558,0.198118 0.30766558,0.3216504 z m 0.055939,0.76916399 c 0,0.1654868 -0.1212016,0.35661241 -0.36127398,0.35661241 h -0.29135 c -0.10954761,0 -0.11420921,-0.0163156 -0.11420921,-0.093232 v -0.63630842 h 0.43819041 c 0.23074918,0 0.32864278,0.21676441 0.32864278,0.37292801 z"
       id="text54"
       aria-label="B" />
  </g>
  <g
     transform="translate(88.676272,1.236)"
     id="g56">
    <path
       style="font-size:1.648px;font-family:'NewComputerModern Math';white-space:pre"
       d="m 0.548784,-0.529008 c 0,-0.121952 -0.09064,-0.229072 -0.225776,-0.229072 -0.092288,0 -0.158208,0.037904 -0.191168,0.069216 v -0.500992 c 0,-0.031312 0,-0.046144 -0.019776,-0.046144 -0.021424,0 -0.021424,0.013184 -0.021424,0.046144 v 1.179968 c 0,0.03296 0,0.046144 0.021424,0.046144 0.01648,0 0.187872,-0.118656 0.278512,-0.215888 0.09064,-0.097232 0.158208,-0.212592 0.158208,-0.349376 z m -0.133488,0 c 0,0.260384 -0.243904,0.46968 -0.283456,0.50264 v -0.538896 c 0,-0.037904 0,-0.072512 0.054384,-0.103824 0.051088,-0.029664 0.1236,-0.029664 0.1236,-0.029664 0.075808,0 0.105472,0.088992 0.105472,0.169744 z"
       id="text55"
       aria-label="♭" />
  </g>
  <g
     transform="translate(89.325072,3.0901)"
     id="g57">
    <path
       style="font-size:1.648px;font-family:'NewComputerModern Math';white-space:pre"
       d="M 0.79928,-1.061312 H 0.398816 c -0.201056,0 -0.204352,-0.021424 -0.210944,-0.052736 h -0.0412 L 0.092288,-0.77456 h 0.0412 c 0.004944,-0.026368 0.019776,-0.130192 0.0412,-0.149968 0.011536,-0.009888 0.14008,-0.009888 0.161504,-0.009888 h 0.341136 l -0.184576,0.260384 c -0.14832,0.22248 -0.202704,0.451552 -0.202704,0.619648 0,0.01648 0,0.09064 0.075808,0.09064 0.075808,0 0.075808,-0.07416 0.075808,-0.09064 v -0.084048 c 0,-0.09064 0.004944,-0.18128 0.018128,-0.270272 0.006592,-0.037904 0.029664,-0.179632 0.102176,-0.281808 l 0.22248,-0.31312 C 0.79928,-1.023408 0.79928,-1.026704 0.79928,-1.061312 Z"
       id="text56"
       aria-label="7" />
  </g>
  <g
     transform="translate(87.037472,6.2955)"
     id="g58">
    <path
       transform="scale(0.004,-0.004)"
       d="M 0,-46 C 0,45 116,136 217,136 280,136 326,101 326,46 326,-41 216,-136 106,-136 39,-136 0,-97 0,-46 Z"
       fill="currentColor"
       id="path57" />
  </g>
  <g
     transform="translate(87.102472,7.2955)"
     id="g59">
    <path
       id="rect58"
       style="fill:currentColor"
       d="m -0.025,-0.81379998 h 0.05 c 0.02216,0 0.04,0.01784 0.04,0.04 V 1.9630001 c 0,0.02216 -0.01784,0.04 -0.04,0.04 h -0.05 c -0.02216,0 -0.04,-0.01784 -0.04,-0.04 v -2.73680008 c 0,-0.02216 0.01784,-0.04 0.04,-0.04 z" />
  </g>
  <g
     transform="translate(91.004872,6.7955)"
     id="g60">
    <path
       transform="scale(0.004,-0.004)"
       d="M 0,-46 C 0,45 116,136 217,136 280,136 326,101 326,46 326,-41 216,-136 106,-136 39,-136 0,-97 0,-46 Z"
       fill="currentColor"
       id="path59" />
  </g>
  <g
     transform="translate(91.069872,7.2955)"
     id="g61">
    <path
       id="rect60"
       style="fill:currentColor"
       d="m -0.025,-0.31380001 h 0.05 c 0.02216,0 0.04,0.01784 0.04,0.04 V 2.1469999 c 0,0.02216 -0.01784,0.04 -0.04,0.04 h -0.05 c -0.02216,0 -0.04,-0.01784 -0.04,-0.04 v -2.42079991 c 0,-0.02216 0.01784,-0.04 0.04,-0.04 z" />
  </g>
  <g
     transform="translate(94.954172,7.2955)"
     id="g62">
    <path
       transform="scale(0.004,-0.004)"
       d="M 0,-46 C 0,45 116,136 217,136 280,136 326,101 326,46 326,-41 216,-136 106,-136 39,-136 0,-97 0,-46 Z"
       fill="currentColor"
       id="path61" />
  </g>
  <g
     transform="translate(96.193372,7.2955)"
     id="g63">
    <path
       id="rect62"
       style="fill:currentColor"
       d="m -0.025,-2.997 h 0.05 c 0.02216,0 0.04,0.01784 0.04,0.04 v 2.7308001 c 0,0.02216 -0.01784,0.04 -0.04,0.04 h -0.05 c -0.02216,0 -0.04,-0.01784 -0.04,-0.04 V -2.957 c 0,-0.02216 0.01784,-0.04 0.04,-0.04 z" />
  </g>
  <g
     transform="translate(98.921572,7.7955)"
     id="g64">
    <path
       transform="scale(0.004,-0.004)"
       d="M 0,-46 C 0,45 116,136 217,136 280,136 326,101 326,46 326,-41 216,-136 106,-136 39,-136 0,-97 0,-46 Z"
       fill="currentColor"
       id="path63" />
  </g>
  <g
     transform="translate(100.16077,7.2955)"
     id="g65">
    <path
       id="rect64"
       style="fill:currentColor"
       d="m -0.025,-2.813 h 0.05 c 0.02216,0 0.04,0.01784 0.04,0.04 v 3.0468001 c 0,0.02216 -0.01784,0.04 -0.04,0.04 h -0.05 c -0.02216,0 -0.04,-0.01784 -0.04,-0.04 V -2.773 c 0,-0.02216 0.01784,-0.04 0.04,-0.04 z" />
  </g>
  <g
     transform="translate(103.05427,23.2955)"
     id="g66">
    <path
       id="rect65"
       style="fill:currentColor"
       d="M 0,-2 H 0.19 V 2 H 0 Z" />
  </g>
  <g
     transform="translate(0.8143722,25.2955)"
     id="g67">
    <path
       id="line66"
       style="stroke:currentColor;stroke-width:0.1;stroke-linecap:round;stroke-linejoin:round"
       d="M 0.05,0 H 102.3799" />
  </g>
  <g
     transform="translate(0.8143722,24.2955)"
     id="g68">
    <path
       id="line67"
       style="stroke:currentColor;stroke-width:0.1;stroke-linecap:round;stroke-linejoin:round"
       d="M 0.05,0 H 102.3799" />
  </g>
  <g
     transform="translate(0.8143722,23.2955)"
     id="g69">
    <path
       id="line68"
       style="stroke:currentColor;stroke-width:0.1;stroke-linecap:round;stroke-linejoin:round"
       d="M 0.05,0 H 102.3799" />
  </g>
  <g
     transform="translate(0.8143722,22.2955)"
     id="g70">
    <path
       id="line69"
       style="stroke:currentColor;stroke-width:0.1;stroke-linecap:round;stroke-linejoin:round"
       d="M 0.05,0 H 102.3799" />
  </g>
  <g
     transform="translate(0.8143722,21.2955)"
     id="g71">
    <path
       id="line70"
       style="stroke:currentColor;stroke-width:0.1;stroke-linecap:round;stroke-linejoin:round"
       d="M 0.05,0 H 102.3799" />
  </g>
  <g
     transform="translate(68.956372,23.2955)"
     id="g72">
    <path
       id="rect71"
       style="fill:currentColor"
       d="M 0,-2 H 0.19 V 2 H 0 Z" />
  </g>
  <g
     transform="translate(49.331972,23.2955)"
     id="g73">
    <path
       id="rect72"
       style="fill:currentColor"
       d="M 0,-2 H 0.19 V 2 H 0 Z" />
  </g>
  <g
     transform="translate(21.418872,23.2955)"
     id="g74">
    <path
       id="rect73"
       style="fill:currentColor"
       d="M 0,-2 H 0.19 V 2 H 0 Z" />
  </g>
  <g
     transform="translate(70.544872,17.7955)"
     id="g75">
    <path
       style="font-size:2.3308px;font-family:'NewComputerModern Math';white-space:pre"
       d="m 1.6478756,-0.78314882 c 0,-0.44285198 -0.314658,-0.80878758 -0.71322478,-0.80878758 H 0.081578 v 0.072255 h 0.0559392 c 0.17947161,0 0.18413321,0.025639 0.18413321,0.1095476 v 1.2283316 c 0,0.0839088 -0.004662,0.1095476 -0.18413321,0.1095476 H 0.081578 V 0 H 0.93465082 C 1.3262252,0 1.6478756,-0.34495841 1.6478756,-0.78314882 Z m -0.23308,0 c 0,0.25871881 -0.044285,0.39856681 -0.128194,0.51277601 -0.046616,0.0629316 -0.1794716,0.19811801 -0.41488238,0.19811801 h -0.2354108 c -0.10954761,0 -0.11420921,-0.0163156 -0.11420921,-0.093232 v -1.2609628 c 0,-0.076916 0.004662,-0.093232 0.11420921,-0.093232 h 0.23308 c 0.14450958,0 0.30533478,0.051278 0.42420558,0.2167644 0.1002244,0.1375172 0.1212016,0.33796598 0.1212016,0.51976838 z"
       id="text74"
       aria-label="D" />
  </g>
  <g
     transform="translate(72.320372,18.5901)"
     id="g76">
    <path
       style="font-size:1.648px;font-family:'NewComputerModern Math';white-space:pre"
       d="m 0.764672,-0.351024 c 0,-0.161504 -0.088992,-0.27192 -0.151616,-0.318064 L 0.723472,-0.860256 0.69216,-0.880032 0.583392,-0.688864 C 0.545488,-0.713584 0.482864,-0.738304 0.412,-0.738304 c -0.196112,0 -0.35432,0.174688 -0.35432,0.38728 0,0.13184 0.06592,0.242256 0.154912,0.30488 L 0.110416,0.13184 0.09888,0.14832 0.130192,0.168096 0.242256,-0.026368 c 0.037904,0.021424 0.09888,0.044496 0.168096,0.044496 0.196112,0 0.35432,-0.1648 0.35432,-0.369152 z M 0.557024,-0.646016 0.240608,-0.097232 c -0.060976,-0.069216 -0.069216,-0.163152 -0.069216,-0.25544 0,-0.069216 0.003296,-0.161504 0.047792,-0.235664 0.04944,-0.085696 0.13184,-0.113712 0.191168,-0.113712 0.06592,0 0.117008,0.029664 0.146672,0.056032 z m 0.093936,0.293344 c 0,0.054384 0,0.153264 -0.047792,0.229072 -0.047792,0.075808 -0.126896,0.105472 -0.191168,0.105472 -0.0412,0 -0.097232,-0.011536 -0.143376,-0.051088 l 0.314768,-0.547136 c 0.064272,0.075808 0.067568,0.196112 0.067568,0.26368 z"
       id="text75"
       aria-label="ø" />
  </g>
  <g
     transform="translate(73.139772,18.5901)"
     id="g77">
    <path
       style="font-size:1.648px;font-family:'NewComputerModern Math';white-space:pre"
       d="M 0.79928,-1.061312 H 0.398816 c -0.201056,0 -0.204352,-0.021424 -0.210944,-0.052736 h -0.0412 L 0.092288,-0.77456 h 0.0412 c 0.004944,-0.026368 0.019776,-0.130192 0.0412,-0.149968 0.011536,-0.009888 0.14008,-0.009888 0.161504,-0.009888 h 0.341136 l -0.184576,0.260384 c -0.14832,0.22248 -0.202704,0.451552 -0.202704,0.619648 0,0.01648 0,0.09064 0.075808,0.09064 0.075808,0 0.075808,-0.07416 0.075808,-0.09064 v -0.084048 c 0,-0.09064 0.004944,-0.18128 0.018128,-0.270272 0.006592,-0.037904 0.029664,-0.179632 0.102176,-0.281808 l 0.22248,-0.31312 C 0.79928,-1.023408 0.79928,-1.026704 0.79928,-1.061312 Z"
       id="text76"
       aria-label="7" />
  </g>
  <g
     transform="translate(1.6143722,24.2955)"
     id="g78">
    <path
       transform="scale(0.004,-0.004)"
       d="m 266,-635 h -6 c -108,0 -195,88 -195,197 0,58 53,103 112,103 54,0 95,-47 95,-103 0,-52 -43,-95 -95,-95 -11,0 -21,2 -31,6 26,-39 68,-65 117,-65 h 4 z m 135,786 c 19,-89 48,-242 60,-354 76,27 112,94 112,163 0,89 -60,179 -172,191 z M 74,28 c 0,-112 98,-247 278,-247 21,0 44,2 68,6 -7,64 -29,203 -63,364 -79,-8 -124,-61 -124,-119 0,-44 25,-91 81,-123 5,-5 7,-10 7,-15 0,-11 -10,-22 -22,-22 -15,0 -126,62 -126,187 0,88 58,174 160,197 -14,58 -29,117 -46,175 C 180,310 74,188 74,28 Z m 283,1166 c 28,0 143,-206 143,-361 0,-143 -86,-255 -180,-364 21,-68 39,-138 56,-207 5,0 10,1 14,1 155,0 255,-129 255,-262 0,-113 -74,-212 -180,-245 3,-35 5,-70 5,-105 0,-19 -1,-39 -2,-58 -7,-119 -88,-225 -202,-228 l 1,43 c 93,2 153,92 159,191 1,18 2,37 2,55 0,31 -1,61 -4,92 -28,-5 -55,-8 -80,-8 -239,0 -342,217 -342,374 0,177 131,306 248,441 -29,96 -52,170 -52,346 0,189 144,295 159,295 z M 247,782 c 0,-55 12,-115 35,-190 83,100 147,202 147,326 0,40 -6,82 -21,127 -49,-24 -161,-97 -161,-263 z"
       fill="currentColor"
       id="path77" />
  </g>
  <g
     transform="translate(5.1193722,23.2955)"
     id="g79">
    <path
       transform="scale(0.004,-0.004)"
       d="m 27,41 -1,-66 v -11 c 0,-22 1,-44 4,-66 45,38 93,80 93,139 0,33 -14,67 -43,67 C 49,104 28,74 27,41 Z m -42,-179 -12,595 c 8,5 18,8 27,8 9,0 19,-3 27,-8 L 20,112 c 25,21 58,34 91,34 52,0 89,-48 89,-102 0,-80 -86,-117 -147,-169 -15,-13 -24,-38 -45,-38 -13,0 -23,11 -23,25 z"
       fill="currentColor"
       id="path78" />
  </g>
  <g
     transform="translate(6.0393722,21.7955)"
     id="g80">
    <path
       transform="scale(0.004,-0.004)"
       d="m 27,41 -1,-66 v -11 c 0,-22 1,-44 4,-66 45,38 93,80 93,139 0,33 -14,67 -43,67 C 49,104 28,74 27,41 Z m -42,-179 -12,595 c 8,5 18,8 27,8 9,0 19,-3 27,-8 L 20,112 c 25,21 58,34 91,34 52,0 89,-48 89,-102 0,-80 -86,-117 -147,-169 -15,-13 -24,-38 -45,-38 -13,0 -23,11 -23,25 z"
       fill="currentColor"
       id="path79" />
  </g>
  <g
     transform="translate(-0.0733278,20.2071)"
     id="g81">
    <path
       style="font-size:1.7459px;font-family:'NewComputerModern Math';white-space:pre"
       d="m 0.78390912,-0.35092591 c 0,-0.2077621 -0.14316381,-0.3823521 -0.33172101,-0.3823521 -0.0838032,0 -0.1588769,0.0279344 -0.22172931,0.0890409 v -0.34045051 c 0.034918,0.0104754 0.0925327,0.0226967 0.14840151,0.0226967 0.2147457,0 0.3369587,-0.15887688 0.3369587,-0.18157358 0,-0.010475 -0.005238,-0.019205 -0.017459,-0.019205 0,0 -0.005238,0 -0.0139672,0.00524 -0.034918,0.015713 -0.1204671,0.050631 -0.2374424,0.050631 -0.069836,0 -0.1501474,-0.012221 -0.23220471,-0.048885 -0.0139672,-0.00524 -0.0209508,-0.00524 -0.0209508,-0.00524 -0.017459,0 -0.017459,0.013967 -0.017459,0.041902 v 0.51678639 c 0,0.0314262 0,0.0453934 0.0244426,0.0453934 0.0122213,0 0.0157131,-0.005238 0.0226967,-0.0157131 0.0192049,-0.0279344 0.0838032,-0.122213 0.22522111,-0.122213 0.0907868,0 0.1344343,0.0803114 0.1484015,0.1117376 0.0279344,0.0645983 0.0314262,0.1326884 0.0314262,0.2199834 0,0.0611065 0,0.16586051 -0.0419016,0.23918831 -0.0419016,0.0680901 -0.1064999,0.1134835 -0.1868113,0.1134835 -0.1274507,0 -0.22696701,-0.0925327 -0.25664731,-0.1955408 0.005238,0.001746 0.0104754,0.003492 0.0296803,0.003492 0.0576147,0 0.087295,-0.0436475 0.087295,-0.0855491 0,-0.0419016 -0.0296803,-0.0855491 -0.087295,-0.0855491 -0.0244426,0 -0.0855491,0.0122213 -0.0855491,0.0925327 0,0.15014741 0.1204671,0.31949971 0.31600791,0.31949971 0.2025244,0 0.38060621,-0.1676064 0.38060621,-0.38933632 z"
       id="text80"
       aria-label="5" />
  </g>
  <g
     transform="translate(88.657572,20.2955)"
     id="g82">
    <path
       id="polygon81"
       style="fill:currentColor;stroke:currentColor;stroke-width:0.08;stroke-linecap:round;stroke-linejoin:round"
       d="m 3.9236,-0.01 v 0.4 L 0.04,0.2 v -0.4 z" />
  </g>
  <g
     transform="translate(9.3393722,17.7955)"
     id="g83">
    <path
       style="font-size:2.3308px;font-family:'NewComputerModern Math';white-space:pre"
       d="m 1.5196816,-0.60134641 h -0.05827 c -0.05827,0.3589432 -0.1118784,0.52909161 -0.51277598,0.52909161 h -0.3099964 c -0.10954761,0 -0.11420921,-0.0163156 -0.11420921,-0.093232 v -0.62232362 h 0.20977201 c 0.2260876,0 0.2517264,0.0745856 0.2517264,0.27270361 h 0.05827 V -1.1327688 h -0.05827 c 0,0.20044878 -0.0256388,0.27270358 -0.2517264,0.27270358 H 0.52443001 V -1.4194572 c 0,-0.076916 0.004662,-0.093232 0.11420921,-0.093232 h 0.3006732 c 0.35661238,0 0.41954398,0.128194 0.45683678,0.4521752 h 0.05827 l -0.065262,-0.52443 H 0.0769164 v 0.072255 h 0.0559392 c 0.17947161,0 0.18413321,0.025639 0.18413321,0.1095476 v 1.2213392 c 0,0.0839088 -0.004662,0.1095476 -0.18413321,0.1095476 H 0.0769164 V 0 H 1.421788 Z"
       id="text82"
       aria-label="E" />
  </g>
  <g
     transform="translate(10.909972,16.736)"
     id="g84">
    <path
       style="font-size:1.648px;font-family:'NewComputerModern Math';white-space:pre"
       d="m 0.548784,-0.529008 c 0,-0.121952 -0.09064,-0.229072 -0.225776,-0.229072 -0.092288,0 -0.158208,0.037904 -0.191168,0.069216 v -0.500992 c 0,-0.031312 0,-0.046144 -0.019776,-0.046144 -0.021424,0 -0.021424,0.013184 -0.021424,0.046144 v 1.179968 c 0,0.03296 0,0.046144 0.021424,0.046144 0.01648,0 0.187872,-0.118656 0.278512,-0.215888 0.09064,-0.097232 0.158208,-0.212592 0.158208,-0.349376 z m -0.133488,0 c 0,0.260384 -0.243904,0.46968 -0.283456,0.50264 v -0.538896 c 0,-0.037904 0,-0.072512 0.054384,-0.103824 0.051088,-0.029664 0.1236,-0.029664 0.1236,-0.029664 0.075808,0 0.105472,0.088992 0.105472,0.169744 z"
       id="text83"
       aria-label="♭" />
  </g>
  <g
     transform="translate(11.558672,18.5901)"
     id="g85">
    <path
       style="font-size:1.648px;font-family:'NewComputerModern Math';white-space:pre"
       d="M 0.79928,-1.061312 H 0.398816 c -0.201056,0 -0.204352,-0.021424 -0.210944,-0.052736 h -0.0412 L 0.092288,-0.77456 h 0.0412 c 0.004944,-0.026368 0.019776,-0.130192 0.0412,-0.149968 0.011536,-0.009888 0.14008,-0.009888 0.161504,-0.009888 h 0.341136 l -0.184576,0.260384 c -0.14832,0.22248 -0.202704,0.451552 -0.202704,0.619648 0,0.01648 0,0.09064 0.075808,0.09064 0.075808,0 0.075808,-0.07416 0.075808,-0.09064 v -0.084048 c 0,-0.09064 0.004944,-0.18128 0.018128,-0.270272 0.006592,-0.037904 0.029664,-0.179632 0.102176,-0.281808 l 0.22248,-0.31312 C 0.79928,-1.023408 0.79928,-1.026704 0.79928,-1.061312 Z"
       id="text84"
       aria-label="7" />
  </g>
  <g
     transform="translate(9.3393722,24.2955)"
     id="g86">
    <path
       transform="scale(0.004,-0.004)"
       d="m 347,-26 c 0,102 -89,139 -133,139 -23,0 -70,-10 -70,-89 0,-91 76,-136 132,-136 22,0 71,8 71,86 z M 245,136 C 389,136 491,71 491,0 491,-71 389,-136 245,-136 101,-136 0,-71 0,0 0,71 101,136 245,136 Z"
       fill="currentColor"
       id="path85" />
  </g>
  <g
     transform="translate(79.131972,26.1055)"
     id="g87">
    <path
       id="polygon86"
       style="fill:currentColor;stroke:currentColor;stroke-width:0.08;stroke-linecap:round;stroke-linejoin:round"
       d="m 4.1736,-0.82 v 0.4 L 0.04,0.2 v -0.4 z" />
  </g>
  <g
     transform="translate(71.719072,22.1055)"
     id="g88">
    <path
       id="polygon87"
       style="fill:currentColor;stroke:currentColor;stroke-width:0.08;stroke-linecap:round;stroke-linejoin:round"
       d="m 4.1736,-0.82 v 0.4 L 0.04,0.2 v -0.4 z" />
  </g>
  <g
     transform="translate(23.741572,25.2955)"
     id="g89">
    <path
       transform="scale(0.004,-0.004)"
       d="M 0,-46 C 0,45 116,136 217,136 280,136 326,101 326,46 326,-41 216,-136 106,-136 39,-136 0,-97 0,-46 Z"
       fill="currentColor"
       id="path88" />
  </g>
  <g
     transform="translate(24.980772,23.2955)"
     id="g90">
    <path
       id="rect89"
       style="fill:currentColor"
       d="m -0.025,-1.5 h 0.05 c 0.02216,0 0.04,0.01784 0.04,0.04 v 3.2338001 c 0,0.02216 -0.01784,0.04 -0.04,0.04 h -0.05 c -0.02216,0 -0.04,-0.01784 -0.04,-0.04 V -1.46 c 0,-0.02216 0.01784,-0.04 0.04,-0.04 z" />
  </g>
  <g
     transform="translate(22.707372,25.2955)"
     id="g91">
    <path
       transform="scale(0.004,-0.004)"
       d="m -7,375 c 8,4 17,7 25,7 8,0 16,-3 24,-7 l -2,-183 106,20 h 3 c 10,0 18,-7 18,-17 l 7,-570 c -8,-4 -17,-7 -25,-7 -8,0 -16,3 -24,7 l 2,183 -106,-20 h -3 c -10,0 -18,7 -18,17 z M 131,112 39,95 l -3,-207 92,17 z"
       fill="currentColor"
       id="path90" />
  </g>
  <g
     transform="translate(30.354572,24.2955)"
     id="g92">
    <path
       transform="scale(0.004,-0.004)"
       d="M 0,-46 C 0,45 116,136 217,136 280,136 326,101 326,46 326,-41 216,-136 106,-136 39,-136 0,-97 0,-46 Z"
       fill="currentColor"
       id="path91" />
  </g>
  <g
     transform="translate(31.593772,23.2955)"
     id="g93">
    <path
       id="rect92"
       style="fill:currentColor"
       d="m -0.025,-2.5 h 0.05 c 0.02216,0 0.04,0.01784 0.04,0.04 v 3.2338001 c 0,0.02216 -0.01784,0.04 -0.04,0.04 h -0.05 c -0.02216,0 -0.04,-0.01784 -0.04,-0.04 V -2.46 c 0,-0.02216 0.01784,-0.04 0.04,-0.04 z" />
  </g>
  <g
     transform="translate(36.807072,23.2955)"
     id="g94">
    <path
       transform="scale(0.004,-0.004)"
       d="M 0,-46 C 0,45 116,136 217,136 280,136 326,101 326,46 326,-41 216,-136 106,-136 39,-136 0,-97 0,-46 Z"
       fill="currentColor"
       id="path93" />
  </g>
  <g
     transform="translate(36.872072,23.2955)"
     id="g95">
    <path
       id="rect94"
       style="fill:currentColor"
       d="m -0.025,0.18619999 h 0.05 c 0.02216,0 0.04,0.01784 0.04,0.04 V 3.2933 c 0,0.02216 -0.01784,0.04 -0.04,0.04 h -0.05 c -0.02216,0 -0.04,-0.01784 -0.04,-0.04 V 0.22619999 c 0,-0.02216 0.01784,-0.04 0.04,-0.04 z" />
  </g>
  <g
     transform="translate(43.169972,22.2955)"
     id="g96">
    <path
       transform="scale(0.004,-0.004)"
       d="M 0,-46 C 0,45 116,136 217,136 280,136 326,101 326,46 326,-41 216,-136 106,-136 39,-136 0,-97 0,-46 Z"
       fill="currentColor"
       id="path95" />
  </g>
  <g
     transform="translate(43.234972,23.2955)"
     id="g97">
    <path
       id="rect96"
       style="fill:currentColor"
       d="m -0.025,-0.81379998 h 0.05 c 0.02216,0 0.04,0.01784 0.04,0.04 V 2.4600001 c 0,0.02216 -0.01784,0.04 -0.04,0.04 h -0.05 c -0.02216,0 -0.04,-0.01784 -0.04,-0.04 v -3.23380008 c 0,-0.02216 0.01784,-0.04 0.04,-0.04 z" />
  </g>
  <g
     transform="translate(42.019972,22.2955)"
     id="g98">
    <path
       transform="scale(0.004,-0.004)"
       d="m 27,41 -1,-66 v -11 c 0,-22 1,-44 4,-66 45,38 93,80 93,139 0,33 -14,67 -43,67 C 49,104 28,74 27,41 Z m -42,-179 -12,595 c 8,5 18,8 27,8 9,0 19,-3 27,-8 L 20,112 c 25,21 58,34 91,34 52,0 89,-48 89,-102 0,-80 -86,-117 -147,-169 -15,-13 -24,-38 -45,-38 -13,0 -23,11 -23,25 z"
       fill="currentColor"
       id="path97" />
  </g>
  <g
     transform="translate(51.077072,17.7955)"
     id="g99">
    <path
       style="font-size:2.3308px;font-family:'NewComputerModern Math';white-space:pre"
       d="m 1.5173508,-0.42653641 c 0,-0.20277961 -0.1911256,-0.37758961 -0.4498444,-0.40555921 0.2260876,-0.0442852 0.3869128,-0.19345638 0.3869128,-0.36593558 0,-0.2027796 -0.2144336,-0.3939052 -0.51743758,-0.3939052 H 0.0839088 v 0.072255 H 0.139848 c 0.17947161,0 0.18413321,0.025639 0.18413321,0.1095476 v 1.2283316 c 0,0.0839088 -0.004662,0.1095476 -0.18413321,0.1095476 H 0.0839088 V 0 H 0.99758242 C 1.3075788,0 1.5173508,-0.20744121 1.5173508,-0.42653641 Z M 1.2283316,-1.1980312 c 0,0.1491712 -0.1142092,0.34495838 -0.37292798,0.34495838 H 0.51743761 V -1.4264496 c 0,-0.076916 0.004662,-0.093232 0.11420921,-0.093232 h 0.2890192 c 0.22608758,0 0.30766558,0.198118 0.30766558,0.3216504 z m 0.055939,0.76916399 c 0,0.1654868 -0.1212016,0.35661241 -0.36127398,0.35661241 h -0.29135 c -0.10954761,0 -0.11420921,-0.0163156 -0.11420921,-0.093232 v -0.63630842 h 0.43819041 c 0.23074918,0 0.32864278,0.21676441 0.32864278,0.37292801 z"
       id="text98"
       aria-label="B" />
  </g>
  <g
     transform="translate(52.715972,16.736)"
     id="g100">
    <path
       style="font-size:1.648px;font-family:'NewComputerModern Math';white-space:pre"
       d="m 0.548784,-0.529008 c 0,-0.121952 -0.09064,-0.229072 -0.225776,-0.229072 -0.092288,0 -0.158208,0.037904 -0.191168,0.069216 v -0.500992 c 0,-0.031312 0,-0.046144 -0.019776,-0.046144 -0.021424,0 -0.021424,0.013184 -0.021424,0.046144 v 1.179968 c 0,0.03296 0,0.046144 0.021424,0.046144 0.01648,0 0.187872,-0.118656 0.278512,-0.215888 0.09064,-0.097232 0.158208,-0.212592 0.158208,-0.349376 z m -0.133488,0 c 0,0.260384 -0.243904,0.46968 -0.283456,0.50264 v -0.538896 c 0,-0.037904 0,-0.072512 0.054384,-0.103824 0.051088,-0.029664 0.1236,-0.029664 0.1236,-0.029664 0.075808,0 0.105472,0.088992 0.105472,0.169744 z"
       id="text99"
       aria-label="♭" />
  </g>
  <g
     transform="translate(53.364672,18.5901)"
     id="g101">
    <path
       style="font-size:1.648px;font-family:'NewComputerModern Math';white-space:pre"
       d="M 0.79928,-1.061312 H 0.398816 c -0.201056,0 -0.204352,-0.021424 -0.210944,-0.052736 h -0.0412 L 0.092288,-0.77456 h 0.0412 c 0.004944,-0.026368 0.019776,-0.130192 0.0412,-0.149968 0.011536,-0.009888 0.14008,-0.009888 0.161504,-0.009888 h 0.341136 l -0.184576,0.260384 c -0.14832,0.22248 -0.202704,0.451552 -0.202704,0.619648 0,0.01648 0,0.09064 0.075808,0.09064 0.075808,0 0.075808,-0.07416 0.075808,-0.09064 v -0.084048 c 0,-0.09064 0.004944,-0.18128 0.018128,-0.270272 0.006592,-0.037904 0.029664,-0.179632 0.102176,-0.281808 l 0.22248,-0.31312 C 0.79928,-1.023408 0.79928,-1.026704 0.79928,-1.061312 Z"
       id="text100"
       aria-label="7" />
  </g>
  <g
     transform="translate(51.077072,22.2955)"
     id="g102">
    <path
       transform="scale(0.004,-0.004)"
       d="m 72,-106 c 40,0 204,110 231,143 7,9 11,19 11,28 0,22 -18,41 -42,41 C 232,106 68,-4 41,-37 34,-46 31,-56 31,-65 c 0,-22 17,-41 41,-41 z M 0,-67 c 0,71 46,203 258,203 41,0 86,-10 86,-69 0,-71 -46,-203 -258,-203 -41,0 -86,10 -86,69 z"
       fill="currentColor"
       id="path101" />
  </g>
  <g
     transform="translate(51.142072,23.2955)"
     id="g103">
    <path
       id="rect102"
       style="fill:currentColor"
       d="m -0.025,-0.741 h 0.05 c 0.02216,0 0.04,0.01784 0.04,0.04 v 3.1609999 c 0,0.02216 -0.01784,0.04 -0.04,0.04 h -0.05 c -0.02216,0 -0.04,-0.01784 -0.04,-0.04 V -0.701 c 0,-0.02216 0.01784,-0.04 0.04,-0.04 z" />
  </g>
  <g
     transform="translate(59.759372,24.7955)"
     id="g104">
    <path
       transform="scale(0.004,-0.004)"
       d="m 72,-106 c 40,0 204,110 231,143 7,9 11,19 11,28 0,22 -18,41 -42,41 C 232,106 68,-4 41,-37 34,-46 31,-56 31,-65 c 0,-22 17,-41 41,-41 z M 0,-67 c 0,71 46,203 258,203 41,0 86,-10 86,-69 0,-71 -46,-203 -258,-203 -41,0 -86,10 -86,69 z"
       fill="currentColor"
       id="path103" />
  </g>
  <g
     transform="translate(61.071772,23.2955)"
     id="g105">
    <path
       id="rect104"
       style="fill:currentColor"
       d="m -0.025,-2 h 0.05 c 0.02216,0 0.04,0.01784 0.04,0.04 v 3.1609999 c 0,0.02216 -0.01784,0.04 -0.04,0.04 h -0.05 c -0.02216,0 -0.04,-0.01784 -0.04,-0.04 V -1.96 c 0,-0.02216 0.01784,-0.04 0.04,-0.04 z" />
  </g>
  <g
     transform="translate(96.324672,21.2955)"
     id="g106">
    <path
       id="polygon105"
       style="fill:currentColor;stroke:currentColor;stroke-width:0.08;stroke-linecap:round;stroke-linejoin:round"
       d="m 3.9236,-0.01 v 0.4 L 0.04,0.2 v -0.4 z" />
  </g>
  <g
     transform="translate(70.544872,25.7955)"
     id="g107">
    <path
       transform="scale(0.004,-0.004)"
       d="M 0,-46 C 0,45 116,136 217,136 280,136 326,101 326,46 326,-41 216,-136 106,-136 39,-136 0,-97 0,-46 Z"
       fill="currentColor"
       id="path106" />
  </g>
  <g
     transform="translate(71.784072,23.2955)"
     id="g108">
    <path
       id="rect107"
       style="fill:currentColor"
       d="m -0.025,-1.1996 h 0.05 c 0.02216,0 0.04,0.01784 0.04,0.04 v 3.4334001 c 0,0.02216 -0.01784,0.04 -0.04,0.04 h -0.05 c -0.02216,0 -0.04,-0.01784 -0.04,-0.04 V -1.1596 c 0,-0.02216 0.01784,-0.04 0.04,-0.04 z" />
  </g>
  <g
     transform="translate(74.628472,24.7955)"
     id="g109">
    <path
       transform="scale(0.004,-0.004)"
       d="M 0,-46 C 0,45 116,136 217,136 280,136 326,101 326,46 326,-41 216,-136 106,-136 39,-136 0,-97 0,-46 Z"
       fill="currentColor"
       id="path108" />
  </g>
  <g
     transform="translate(75.867672,23.2955)"
     id="g110">
    <path
       id="rect109"
       style="fill:currentColor"
       d="m -0.025,-1.8004 h 0.05 c 0.02216,0 0.04,0.01784 0.04,0.04 v 3.0342001 c 0,0.02216 -0.01784,0.04 -0.04,0.04 h -0.05 c -0.02216,0 -0.04,-0.01784 -0.04,-0.04 V -1.7604 c 0,-0.02216 0.01784,-0.04 0.04,-0.04 z" />
  </g>
  <g
     transform="translate(79.131972,23.7955)"
     id="g111">
    <path
       transform="scale(0.004,-0.004)"
       d="M 0,-46 C 0,45 116,136 217,136 280,136 326,101 326,46 326,-41 216,-136 106,-136 39,-136 0,-97 0,-46 Z"
       fill="currentColor"
       id="path110" />
  </g>
  <g
     transform="translate(79.196972,23.2955)"
     id="g112">
    <path
       id="rect111"
       style="fill:currentColor"
       d="m -0.025,0.68620002 h 0.05 c 0.02216,0 0.04,0.01784 0.04,0.04 V 2.7604001 c 0,0.02216 -0.01784,0.04 -0.04,0.04 h -0.05 c -0.02216,0 -0.04,-0.01784 -0.04,-0.04 V 0.72620002 c 0,-0.02216 0.01784,-0.04 0.04,-0.04 z" />
  </g>
  <g
     transform="translate(77.981972,23.7955)"
     id="g113">
    <path
       transform="scale(0.004,-0.004)"
       d="m 27,41 -1,-66 v -11 c 0,-22 1,-44 4,-66 45,38 93,80 93,139 0,33 -14,67 -43,67 C 49,104 28,74 27,41 Z m -42,-179 -12,595 c 8,5 18,8 27,8 9,0 19,-3 27,-8 L 20,112 c 25,21 58,34 91,34 52,0 89,-48 89,-102 0,-80 -86,-117 -147,-169 -15,-13 -24,-38 -45,-38 -13,0 -23,11 -23,25 z"
       fill="currentColor"
       id="path112" />
  </g>
  <g
     transform="translate(83.215572,22.7955)"
     id="g114">
    <path
       transform="scale(0.004,-0.004)"
       d="M 0,-46 C 0,45 116,136 217,136 280,136 326,101 326,46 326,-41 216,-136 106,-136 39,-136 0,-97 0,-46 Z"
       fill="currentColor"
       id="path113" />
  </g>
  <g
     transform="translate(83.280572,23.2955)"
     id="g115">
    <path
       id="rect114"
       style="fill:currentColor"
       d="m -0.025,-0.31380001 h 0.05 c 0.02216,0 0.04,0.01784 0.04,0.04 V 2.1596001 c 0,0.02216 -0.01784,0.04 -0.04,0.04 h -0.05 c -0.02216,0 -0.04,-0.01784 -0.04,-0.04 v -2.43340011 c 0,-0.02216 0.01784,-0.04 0.04,-0.04 z" />
  </g>
  <g
     transform="translate(87.483372,17.7955)"
     id="g116">
    <path
       style="font-size:2.3308px;font-family:'NewComputerModern Math';white-space:pre"
       d="m 1.713138,-0.56405361 v -0.0722548 l -0.2843576,0.006992 c -0.093232,0 -0.29135,0 -0.3752588,-0.006992 v 0.0722548 h 0.074586 c 0.209772,0 0.2167644,0.0256388 0.2167644,0.1118784 v 0.1491712 c 0,0.26104961 -0.2960116,0.28202681 -0.36127398,0.28202681 -0.151502,0 -0.61300041,-0.081578 -0.61300041,-0.77615642 0,-0.69690918 0.45916761,-0.77382558 0.59901561,-0.77382558 0.24939558,0 0.46149838,0.209772 0.50811438,0.5523996 0.00466,0.0326312 0.00466,0.0396236 0.037293,0.0396236 0.037293,0 0.037293,-0.006992 0.037293,-0.0559392 v -0.5523996 c 0,-0.039624 0,-0.055939 -0.025639,-0.055939 -0.00932,0 -0.018646,0 -0.037293,0.02797 l -0.11654,0.1724792 C 1.2982556,-1.5173508 1.1723924,-1.643214 0.94164322,-1.643214 c -0.43352881,0 -0.81111842,0.3682664 -0.81111842,0.84608038 0,0.47781401 0.37292801,0.84841122 0.81578002,0.84841122 0.17014838,0 0.35661238,-0.0606008 0.43585958,-0.198118 0.0303,0.0512776 0.1235324,0.1445096 0.1491712,0.1445096 0.020977,0 0.020977,-0.0186464 0.020977,-0.0536084 v -0.40555921 c 0,-0.0909012 0.00932,-0.1025552 0.1608254,-0.1025552 z"
       id="text115"
       aria-label="G" />
  </g>
  <g
     transform="translate(89.327172,18.5901)"
     id="g117">
    <path
       style="font-size:1.648px;font-family:'NewComputerModern Math';white-space:pre"
       d="M 0.79928,-1.061312 H 0.398816 c -0.201056,0 -0.204352,-0.021424 -0.210944,-0.052736 h -0.0412 L 0.092288,-0.77456 h 0.0412 c 0.004944,-0.026368 0.019776,-0.130192 0.0412,-0.149968 0.011536,-0.009888 0.14008,-0.009888 0.161504,-0.009888 h 0.341136 l -0.184576,0.260384 c -0.14832,0.22248 -0.202704,0.451552 -0.202704,0.619648 0,0.01648 0,0.09064 0.075808,0.09064 0.075808,0 0.075808,-0.07416 0.075808,-0.09064 v -0.084048 c 0,-0.09064 0.004944,-0.18128 0.018128,-0.270272 0.006592,-0.037904 0.029664,-0.179632 0.102176,-0.281808 l 0.22248,-0.31312 C 0.79928,-1.023408 0.79928,-1.026704 0.79928,-1.061312 Z"
       id="text116"
       aria-label="7" />
  </g>
  <g
     transform="translate(87.483372,23.2955)"
     id="g118">
    <path
       transform="scale(0.004,-0.004)"
       d="M 0,-46 C 0,45 116,136 217,136 280,136 326,101 326,46 326,-41 216,-136 106,-136 39,-136 0,-97 0,-46 Z"
       fill="currentColor"
       id="path117" />
  </g>
  <g
     transform="translate(88.722572,23.2955)"
     id="g119">
    <path
       id="rect118"
       style="fill:currentColor"
       d="m -0.025,-2.9969001 h 0.05 c 0.02216,0 0.04,0.01784 0.04,0.04 v 2.73069996 c 0,0.02216 -0.01784,0.04 -0.04,0.04 h -0.05 c -0.02216,0 -0.04,-0.01784 -0.04,-0.04 V -2.9569001 c 0,-0.02216 0.01784,-0.04 0.04,-0.04 z" />
  </g>
  <g
     transform="translate(86.449072,23.2955)"
     id="g120">
    <path
       transform="scale(0.004,-0.004)"
       d="m -7,375 c 8,4 17,7 25,7 8,0 16,-3 24,-7 l -2,-183 106,20 h 3 c 10,0 18,-7 18,-17 l 7,-570 c -8,-4 -17,-7 -25,-7 -8,0 -16,3 -24,7 l 2,183 -106,-20 h -3 c -10,0 -18,7 -18,17 z M 131,112 39,95 l -3,-207 92,17 z"
       fill="currentColor"
       id="path119" />
  </g>
  <g
     transform="translate(91.316972,23.7955)"
     id="g121">
    <path
       transform="scale(0.004,-0.004)"
       d="M 0,-46 C 0,45 116,136 217,136 280,136 326,101 326,46 326,-41 216,-136 106,-136 39,-136 0,-97 0,-46 Z"
       fill="currentColor"
       id="path120" />
  </g>
  <g
     transform="translate(92.556172,23.2955)"
     id="g122">
    <path
       id="rect121"
       style="fill:currentColor"
       d="m -0.025,-2.8131001 h 0.05 c 0.02216,0 0.04,0.01784 0.04,0.04 v 3.04689996 c 0,0.02216 -0.01784,0.04 -0.04,0.04 h -0.05 c -0.02216,0 -0.04,-0.01784 -0.04,-0.04 V -2.7731001 c 0,-0.02216 0.01784,-0.04 0.04,-0.04 z" />
  </g>
  <g
     transform="translate(95.150472,24.2955)"
     id="g123">
    <path
       transform="scale(0.004,-0.004)"
       d="M 0,-46 C 0,45 116,136 217,136 280,136 326,101 326,46 326,-41 216,-136 106,-136 39,-136 0,-97 0,-46 Z"
       fill="currentColor"
       id="path122" />
  </g>
  <g
     transform="translate(96.389672,23.2955)"
     id="g124">
    <path
       id="rect123"
       style="fill:currentColor"
       d="m -0.025,-1.9969 h 0.05 c 0.02216,0 0.04,0.01784 0.04,0.04 v 2.73069998 c 0,0.02216 -0.01784,0.04 -0.04,0.04 h -0.05 c -0.02216,0 -0.04,-0.01784 -0.04,-0.04 V -1.9569 c 0,-0.02216 0.01784,-0.04 0.04,-0.04 z" />
  </g>
  <g
     transform="translate(98.984072,24.7955)"
     id="g125">
    <path
       transform="scale(0.004,-0.004)"
       d="M 0,-46 C 0,45 116,136 217,136 280,136 326,101 326,46 326,-41 216,-136 106,-136 39,-136 0,-97 0,-46 Z"
       fill="currentColor"
       id="path124" />
  </g>
  <g
     transform="translate(100.22327,23.2955)"
     id="g126">
    <path
       id="rect125"
       style="fill:currentColor"
       d="m -0.025,-1.8131 h 0.05 c 0.02216,0 0.04,0.01784 0.04,0.04 v 3.0469 c 0,0.02216 -0.01784,0.04 -0.04,0.04 h -0.05 c -0.02216,0 -0.04,-0.01784 -0.04,-0.04 v -3.0469 c 0,-0.02216 0.01784,-0.04 0.04,-0.04 z" />
  </g>
  <g
     transform="translate(85.534472,38.7955)"
     id="g127">
    <path
       transform="scale(0.004,-0.004)"
       d="M 0,0 C 0,31 25,56 56,56 87,56 112,31 112,0 112,-31 87,-56 56,-56 25,-56 0,-31 0,0 Z"
       fill="currentColor"
       id="path126" />
  </g>
  <g
     transform="translate(85.534472,39.7955)"
     id="g128">
    <path
       transform="scale(0.004,-0.004)"
       d="M 0,0 C 0,31 25,56 56,56 87,56 112,31 112,0 112,-31 87,-56 56,-56 25,-56 0,-31 0,0 Z"
       fill="currentColor"
       id="path127" />
  </g>
  <g
     transform="translate(86.774472,39.2955)"
     id="g129">
    <path
       id="rect128"
       style="fill:currentColor"
       d="M 0,-2 H 0.60000002 V 2 H 0 Z" />
  </g>
  <g
     transform="translate(86.284472,39.2955)"
     id="g130">
    <path
       id="rect129"
       style="fill:currentColor"
       d="M 0,-2 H 0.19 V 2 H 0 Z" />
  </g>
  <g
     transform="translate(0.8143722,42.2955)"
     id="g131">
    <path
       id="rect130"
       style="fill:currentColor"
       d="m 66.464601,-0.1 h 1.7563 c 0.0554,0 0.1,0.0446 0.1,0.1 0,0.0554 -0.0446,0.1 -0.1,0.1 h -1.7563 c -0.0554,0 -0.1,-0.0446 -0.1,-0.1 0,-0.0554 0.0446,-0.1 0.1,-0.1 z" />
  </g>
  <g
     transform="translate(0.8143722,42.2955)"
     id="g132">
    <path
       id="rect131"
       style="fill:currentColor"
       d="m 13.0263,-0.1 h 1.7563 c 0.0554,0 0.1,0.0446 0.1,0.1 0,0.0554 -0.0446,0.1 -0.1,0.1 h -1.7563 c -0.0554,0 -0.1,-0.0446 -0.1,-0.1 0,-0.0554 0.0446,-0.1 0.1,-0.1 z" />
  </g>
  <g
     transform="translate(0.8143722,41.2955)"
     id="g133">
    <path
       id="line132"
       style="stroke:currentColor;stroke-width:0.1;stroke-linecap:round;stroke-linejoin:round"
       d="M 0.05,0 H 86.510101" />
  </g>
  <g
     transform="translate(0.8143722,40.2955)"
     id="g134">
    <path
       id="line133"
       style="stroke:currentColor;stroke-width:0.1;stroke-linecap:round;stroke-linejoin:round"
       d="M 0.05,0 H 86.510101" />
  </g>
  <g
     transform="translate(0.8143722,39.2955)"
     id="g135">
    <path
       id="line134"
       style="stroke:currentColor;stroke-width:0.1;stroke-linecap:round;stroke-linejoin:round"
       d="M 0.05,0 H 86.510101" />
  </g>
  <g
     transform="translate(0.8143722,38.2955)"
     id="g136">
    <path
       id="line135"
       style="stroke:currentColor;stroke-width:0.1;stroke-linecap:round;stroke-linejoin:round"
       d="M 0.05,0 H 86.510101" />
  </g>
  <g
     transform="translate(0.8143722,37.2955)"
     id="g137">
    <path
       id="line136"
       style="stroke:currentColor;stroke-width:0.1;stroke-linecap:round;stroke-linejoin:round"
       d="M 0.05,0 H 86.510101" />
  </g>
  <g
     transform="translate(64.160872,39.2955)"
     id="g138">
    <path
       id="rect137"
       style="fill:currentColor"
       d="M 0,-2 H 0.19 V 2 H 0 Z" />
  </g>
  <g
     transform="translate(41.106672,39.2955)"
     id="g139">
    <path
       id="rect138"
       style="fill:currentColor"
       d="M 0,-2 H 0.19 V 2 H 0 Z" />
  </g>
  <g
     transform="translate(24.963172,39.2955)"
     id="g140">
    <path
       id="rect139"
       style="fill:currentColor"
       d="M 0,-2 H 0.19 V 2 H 0 Z" />
  </g>
  <g
     transform="translate(81.700272,38.1055)"
     id="g141">
    <path
       id="polygon140"
       style="fill:currentColor;stroke:currentColor;stroke-width:0.08;stroke-linecap:round;stroke-linejoin:round"
       d="m 2.5942,-0.01 v 0.4 L 0.04,0.2 v -0.4 z" />
  </g>
  <g
     transform="translate(1.6143722,40.2955)"
     id="g142">
    <path
       transform="scale(0.004,-0.004)"
       d="m 266,-635 h -6 c -108,0 -195,88 -195,197 0,58 53,103 112,103 54,0 95,-47 95,-103 0,-52 -43,-95 -95,-95 -11,0 -21,2 -31,6 26,-39 68,-65 117,-65 h 4 z m 135,786 c 19,-89 48,-242 60,-354 76,27 112,94 112,163 0,89 -60,179 -172,191 z M 74,28 c 0,-112 98,-247 278,-247 21,0 44,2 68,6 -7,64 -29,203 -63,364 -79,-8 -124,-61 -124,-119 0,-44 25,-91 81,-123 5,-5 7,-10 7,-15 0,-11 -10,-22 -22,-22 -15,0 -126,62 -126,187 0,88 58,174 160,197 -14,58 -29,117 -46,175 C 180,310 74,188 74,28 Z m 283,1166 c 28,0 143,-206 143,-361 0,-143 -86,-255 -180,-364 21,-68 39,-138 56,-207 5,0 10,1 14,1 155,0 255,-129 255,-262 0,-113 -74,-212 -180,-245 3,-35 5,-70 5,-105 0,-19 -1,-39 -2,-58 -7,-119 -88,-225 -202,-228 l 1,43 c 93,2 153,92 159,191 1,18 2,37 2,55 0,31 -1,61 -4,92 -28,-5 -55,-8 -80,-8 -239,0 -342,217 -342,374 0,177 131,306 248,441 -29,96 -52,170 -52,346 0,189 144,295 159,295 z M 247,782 c 0,-55 12,-115 35,-190 83,100 147,202 147,326 0,40 -6,82 -21,127 -49,-24 -161,-97 -161,-263 z"
       fill="currentColor"
       id="path141" />
  </g>
  <g
     transform="translate(5.1193722,39.2955)"
     id="g143">
    <path
       transform="scale(0.004,-0.004)"
       d="m 27,41 -1,-66 v -11 c 0,-22 1,-44 4,-66 45,38 93,80 93,139 0,33 -14,67 -43,67 C 49,104 28,74 27,41 Z m -42,-179 -12,595 c 8,5 18,8 27,8 9,0 19,-3 27,-8 L 20,112 c 25,21 58,34 91,34 52,0 89,-48 89,-102 0,-80 -86,-117 -147,-169 -15,-13 -24,-38 -45,-38 -13,0 -23,11 -23,25 z"
       fill="currentColor"
       id="path142" />
  </g>
  <g
     transform="translate(6.0393722,37.7955)"
     id="g144">
    <path
       transform="scale(0.004,-0.004)"
       d="m 27,41 -1,-66 v -11 c 0,-22 1,-44 4,-66 45,38 93,80 93,139 0,33 -14,67 -43,67 C 49,104 28,74 27,41 Z m -42,-179 -12,595 c 8,5 18,8 27,8 9,0 19,-3 27,-8 L 20,112 c 25,21 58,34 91,34 52,0 89,-48 89,-102 0,-80 -86,-117 -147,-169 -15,-13 -24,-38 -45,-38 -13,0 -23,11 -23,25 z"
       fill="currentColor"
       id="path143" />
  </g>
  <g
     transform="translate(-0.0733278,36.2071)"
     id="g145">
    <path
       style="font-size:1.7459px;font-family:'NewComputerModern Math';white-space:pre"
       d="m 0.79787632,-0.57440111 c 0,-0.46964709 -0.20077851,-0.58836829 -0.35616361,-0.58836829 -0.0960245,0 -0.1815736,0.031426 -0.25664731,0.1099917 -0.0715819,0.0785655 -0.1117376,0.15189328 -0.1117376,0.28283578 0,0.21823751 0.1536392,0.38933571 0.34918001,0.38933571 0.1064999,0 0.1780818,-0.0733278 0.2182375,-0.17459 v 0.0558688 c 0,0.40854061 -0.1815736,0.48885201 -0.2828358,0.48885201 -0.0296803,0 -0.12395891,-0.0034918 -0.17109821,-0.0628524 0.0768196,0 0.0907868,-0.0506311 0.0907868,-0.0803114 0,-0.0541229 -0.0419016,-0.0803114 -0.0803114,-0.0803114 -0.0279344,0 -0.0803114,0.0157131 -0.0803114,0.0838032 0,0.1169753 0.0942786,0.1885572 0.24268011,0.1885572 0.2252211,0 0.43822091,-0.2374424 0.43822091,-0.61281091 z m -0.16062281,-0.1606228 c 0,0.1449097 -0.0593606,0.314262 -0.2129998,0.314262 -0.0279344,0 -0.1082458,0 -0.1623687,-0.1099917 -0.0314262,-0.0645983 -0.0314262,-0.1518933 -0.0314262,-0.23744241 0,-0.0942786 0,-0.1763359 0.0366639,-0.24093418 0.0471393,-0.087295 0.1134835,-0.1099917 0.17459,-0.1099917 0.0803114,0 0.1379261,0.059361 0.1676064,0.13792608 0.0209508,0.0558688 0.0279344,0.1658605 0.0279344,0.24617191 z"
       id="text144"
       aria-label="9" />
  </g>
  <g
     transform="translate(76.691872,37.1055)"
     id="g146">
    <path
       id="polygon145"
       style="fill:currentColor;stroke:currentColor;stroke-width:0.08;stroke-linecap:round;stroke-linejoin:round"
       d="m 2.5942,-0.01 v 0.4 L 0.04,0.2 v -0.4 z" />
  </g>
  <g
     transform="translate(9.3393722,33.7955)"
     id="g147">
    <path
       style="font-size:2.3308px;font-family:'NewComputerModern Math';white-space:pre"
       d="m 1.549982,-0.54307641 c 0,-0.023308 0,-0.0396236 -0.0303,-0.0396236 -0.025639,0 -0.025639,0.0139848 -0.02797,0.0372928 -0.018646,0.3333044 -0.268042,0.52443001 -0.52209918,0.52443001 -0.1421788,0 -0.59901561,-0.0792472 -0.59901561,-0.77382562 0,-0.69690918 0.45450601,-0.77615638 0.59668481,-0.77615638 0.25405718,0 0.46149838,0.2121028 0.50811438,0.5523996 0.00466,0.0326312 0.00466,0.0396236 0.037293,0.0396236 0.037293,0 0.037293,-0.006992 0.037293,-0.0559392 v -0.5523996 c 0,-0.039624 0,-0.055939 -0.025639,-0.055939 -0.00932,0 -0.018646,0 -0.037293,0.02797 l -0.11654,0.1724792 C 1.2842708,-1.526674 1.1654,-1.643214 0.94164322,-1.643214 c -0.43585961,0 -0.81111842,0.3705972 -0.81111842,0.84608038 0,0.48247561 0.37758961,0.84841122 0.81111842,0.84841122 0.37992038,0 0.60833878,-0.32398121 0.60833878,-0.59435401 z"
       id="text146"
       aria-label="C" />
  </g>
  <g
     transform="translate(11.012372,34.5901)"
     id="g148">
    <path
       style="font-size:1.648px;font-family:'NewComputerModern Math';white-space:pre"
       d="m 1.189856,-0.412 c 0,-0.018128 -0.014832,-0.03296 -0.03296,-0.03296 H 0.125248 c -0.018128,0 -0.03296,0.014832 -0.03296,0.03296 0,0.018128 0.014832,0.03296 0.03296,0.03296 h 1.031648 c 0.018128,0 0.03296,-0.014832 0.03296,-0.03296 z"
       id="text147"
       aria-label="−" />
  </g>
  <g
     transform="translate(12.309872,34.5901)"
     id="g149">
    <path
       style="font-size:1.648px;font-family:'NewComputerModern Math';white-space:pre"
       d="M 0.79928,-1.061312 H 0.398816 c -0.201056,0 -0.204352,-0.021424 -0.210944,-0.052736 h -0.0412 L 0.092288,-0.77456 h 0.0412 c 0.004944,-0.026368 0.019776,-0.130192 0.0412,-0.149968 0.011536,-0.009888 0.14008,-0.009888 0.161504,-0.009888 h 0.341136 l -0.184576,0.260384 c -0.14832,0.22248 -0.202704,0.451552 -0.202704,0.619648 0,0.01648 0,0.09064 0.075808,0.09064 0.075808,0 0.075808,-0.07416 0.075808,-0.09064 v -0.084048 c 0,-0.09064 0.004944,-0.18128 0.018128,-0.270272 0.006592,-0.037904 0.029664,-0.179632 0.102176,-0.281808 l 0.22248,-0.31312 C 0.79928,-1.023408 0.79928,-1.026704 0.79928,-1.061312 Z"
       id="text148"
       aria-label="7" />
  </g>
  <g
     transform="translate(9.3393722,41.2955)"
     id="g150">
    <path
       transform="scale(0.004,-0.004)"
       d="m 72,-106 c 40,0 204,110 231,143 7,9 11,19 11,28 0,22 -18,41 -42,41 C 232,106 68,-4 41,-37 34,-46 31,-56 31,-65 c 0,-22 17,-41 41,-41 z M 0,-67 c 0,71 46,203 258,203 41,0 86,-10 86,-69 0,-71 -46,-203 -258,-203 -41,0 -86,10 -86,69 z"
       fill="currentColor"
       id="path149" />
  </g>
  <g
     transform="translate(10.651772,39.2955)"
     id="g151">
    <path
       id="rect150"
       style="fill:currentColor"
       d="m -0.025,-1.5 h 0.05 c 0.02216,0 0.04,0.01784 0.04,0.04 v 3.1609999 c 0,0.02216 -0.01784,0.04 -0.04,0.04 h -0.05 c -0.02216,0 -0.04,-0.01784 -0.04,-0.04 V -1.46 c 0,-0.02216 0.01784,-0.04 0.04,-0.04 z" />
  </g>
  <g
     transform="translate(71.433472,37.1055)"
     id="g152">
    <path
       id="polygon151"
       style="fill:currentColor;stroke:currentColor;stroke-width:0.08;stroke-linecap:round;stroke-linejoin:round"
       d="m 2.8442,-0.82 v 0.4 L 0.04,0.2 v -0.4 z" />
  </g>
  <g
     transform="translate(14.066772,42.2955)"
     id="g153">
    <path
       transform="scale(0.004,-0.004)"
       d="M 0,-46 C 0,45 116,136 217,136 280,136 326,101 326,46 326,-41 216,-136 106,-136 39,-136 0,-97 0,-46 Z"
       fill="currentColor"
       id="path152" />
  </g>
  <g
     transform="translate(15.305972,39.2955)"
     id="g154">
    <path
       id="rect153"
       style="fill:currentColor"
       d="m -0.025,-0.204 h 0.05 c 0.02216,0 0.04,0.01784 0.04,0.04 v 2.9378001 c 0,0.02216 -0.01784,0.04 -0.04,0.04 h -0.05 c -0.02216,0 -0.04,-0.01784 -0.04,-0.04 V -0.164 c 0,-0.02216 0.01784,-0.04 0.04,-0.04 z" />
  </g>
  <g
     transform="translate(66.425072,38.4855)"
     id="g155">
    <path
       id="polygon154"
       style="fill:currentColor;stroke:currentColor;stroke-width:0.08;stroke-linecap:round;stroke-linejoin:round"
       d="m 2.3442,0.42 v 0.4 L 0.04,0.2 v -0.4 z" />
  </g>
  <g
     transform="translate(16.820972,41.2955)"
     id="g156">
    <path
       transform="scale(0.004,-0.004)"
       d="M 0,-46 C 0,45 116,136 217,136 280,136 326,101 326,46 326,-41 216,-136 106,-136 39,-136 0,-97 0,-46 Z"
       fill="currentColor"
       id="path155" />
  </g>
  <g
     transform="translate(18.060172,39.2955)"
     id="g157">
    <path
       id="rect156"
       style="fill:currentColor"
       d="m -0.025,-0.796 h 0.05 c 0.02216,0 0.04,0.01784 0.04,0.04 v 2.5298001 c 0,0.02216 -0.01784,0.04 -0.04,0.04 h -0.05 c -0.02216,0 -0.04,-0.01784 -0.04,-0.04 V -0.756 c 0,-0.02216 0.01784,-0.04 0.04,-0.04 z" />
  </g>
  <g
     transform="translate(60.089972,37.2955)"
     id="g158">
    <path
       id="polygon157"
       style="fill:currentColor;stroke:currentColor;stroke-width:0.08;stroke-linecap:round;stroke-linejoin:round"
       d="m 2.5942,-0.01 v 0.4 L 0.04,0.2 v -0.4 z" />
  </g>
  <g
     transform="translate(19.575172,40.2955)"
     id="g159">
    <path
       transform="scale(0.004,-0.004)"
       d="M 0,-46 C 0,45 116,136 217,136 280,136 326,101 326,46 326,-41 216,-136 106,-136 39,-136 0,-97 0,-46 Z"
       fill="currentColor"
       id="path158" />
  </g>
  <g
     transform="translate(20.814372,39.2955)"
     id="g160">
    <path
       id="rect159"
       style="fill:currentColor"
       d="m -0.025,-2.204 h 0.05 c 0.02216,0 0.04,0.01784 0.04,0.04 v 2.9378001 c 0,0.02216 -0.01784,0.04 -0.04,0.04 h -0.05 c -0.02216,0 -0.04,-0.01784 -0.04,-0.04 V -2.164 c 0,-0.02216 0.01784,-0.04 0.04,-0.04 z" />
  </g>
  <g
     transform="translate(54.411572,36.2955)"
     id="g161">
    <path
       id="polygon160"
       style="fill:currentColor;stroke:currentColor;stroke-width:0.08;stroke-linecap:round;stroke-linejoin:round"
       d="m 3.2642,-0.01 v 0.4 L 0.04,0.2 v -0.4 z" />
  </g>
  <g
     transform="translate(22.329372,39.2955)"
     id="g162">
    <path
       transform="scale(0.004,-0.004)"
       d="M 0,-46 C 0,45 116,136 217,136 280,136 326,101 326,46 326,-41 216,-136 106,-136 39,-136 0,-97 0,-46 Z"
       fill="currentColor"
       id="path161" />
  </g>
  <g
     transform="translate(23.568572,39.2955)"
     id="g163">
    <path
       id="rect162"
       style="fill:currentColor"
       d="m -0.025,-2.796 h 0.05 c 0.02216,0 0.04,0.01784 0.04,0.04 v 2.5298001 c 0,0.02216 -0.01784,0.04 -0.04,0.04 h -0.05 c -0.02216,0 -0.04,-0.01784 -0.04,-0.04 V -2.756 c 0,-0.02216 0.01784,-0.04 0.04,-0.04 z" />
  </g>
  <g
     transform="translate(47.544672,42.1055)"
     id="g164">
    <path
       id="polygon163"
       style="fill:currentColor;stroke:currentColor;stroke-width:0.08;stroke-linecap:round;stroke-linejoin:round"
       d="m 2.8442,-0.82 v 0.4 L 0.04,0.2 v -0.4 z" />
  </g>
  <g
     transform="translate(43.370872,38.1055)"
     id="g165">
    <path
       id="polygon164"
       style="fill:currentColor;stroke:currentColor;stroke-width:0.08;stroke-linecap:round;stroke-linejoin:round"
       d="m 2.8442,-0.82 v 0.4 L 0.04,0.2 v -0.4 z" />
  </g>
  <g
     transform="translate(26.053172,33.7955)"
     id="g166">
    <path
       style="font-size:2.3308px;font-family:'NewComputerModern Math';white-space:pre"
       d="M 1.421788,-1.060514 1.356526,-1.584944 H 0.0769164 v 0.072255 h 0.0559392 c 0.17947161,0 0.18413321,0.025639 0.18413321,0.1095476 v 1.2213392 c 0,0.0839088 -0.004662,0.1095476 -0.18413321,0.1095476 H 0.0769164 V 0 c 0.081578,-0.0069924 0.26338041,-0.0069924 0.35428161,-0.0069924 0.0955628,0 0.30766561,0 0.39157441,0.0069924 v -0.0722548 h -0.0769164 c -0.22142601,0 -0.22142601,-0.0303004 -0.22142601,-0.1118784 v -0.57337682 h 0.20044881 c 0.2237568,0 0.2470648,0.0745856 0.2470648,0.27270361 h 0.05827 V -1.1024684 h -0.05827 c 0,0.19578718 -0.023308,0.27270358 -0.2470648,0.27270358 H 0.52443001 V -1.4194572 c 0,-0.076916 0.004662,-0.093232 0.11420921,-0.093232 h 0.279696 c 0.34961998,0 0.40788998,0.1305248 0.44518278,0.4521752 z"
       id="text165"
       aria-label="F" />
  </g>
  <g
     transform="translate(27.589572,34.5901)"
     id="g167">
    <path
       style="font-size:1.648px;font-family:'NewComputerModern Math';white-space:pre"
       d="M 0.79928,-1.061312 H 0.398816 c -0.201056,0 -0.204352,-0.021424 -0.210944,-0.052736 h -0.0412 L 0.092288,-0.77456 h 0.0412 c 0.004944,-0.026368 0.019776,-0.130192 0.0412,-0.149968 0.011536,-0.009888 0.14008,-0.009888 0.161504,-0.009888 h 0.341136 l -0.184576,0.260384 c -0.14832,0.22248 -0.202704,0.451552 -0.202704,0.619648 0,0.01648 0,0.09064 0.075808,0.09064 0.075808,0 0.075808,-0.07416 0.075808,-0.09064 v -0.084048 c 0,-0.09064 0.004944,-0.18128 0.018128,-0.270272 0.006592,-0.037904 0.029664,-0.179632 0.102176,-0.281808 l 0.22248,-0.31312 C 0.79928,-1.023408 0.79928,-1.026704 0.79928,-1.061312 Z"
       id="text166"
       aria-label="7" />
  </g>
  <g
     transform="translate(26.053172,39.7955)"
     id="g168">
    <path
       transform="scale(0.004,-0.004)"
       d="M 0,-46 C 0,45 116,136 217,136 280,136 326,101 326,46 326,-41 216,-136 106,-136 39,-136 0,-97 0,-46 Z"
       fill="currentColor"
       id="path167" />
  </g>
  <g
     transform="translate(27.292372,39.2955)"
     id="g169">
    <path
       id="rect168"
       style="fill:currentColor"
       d="m -0.025,-3 h 0.05 c 0.02216,0 0.04,0.01784 0.04,0.04 v 3.2338001 c 0,0.02216 -0.01784,0.04 -0.04,0.04 h -0.05 c -0.02216,0 -0.04,-0.01784 -0.04,-0.04 V -2.96 c 0,-0.02216 0.01784,-0.04 0.04,-0.04 z" />
  </g>
  <g
     transform="translate(20.749372,37.1055)"
     id="g170">
    <path
       id="polygon169"
       style="fill:currentColor;stroke:currentColor;stroke-width:0.08;stroke-linecap:round;stroke-linejoin:round"
       d="m 2.8442,-0.82 v 0.4 L 0.04,0.2 v -0.4 z" />
  </g>
  <g
     transform="translate(29.757372,40.2955)"
     id="g171">
    <path
       transform="scale(0.004,-0.004)"
       d="M 0,-46 C 0,45 116,136 217,136 280,136 326,101 326,46 326,-41 216,-136 106,-136 39,-136 0,-97 0,-46 Z"
       fill="currentColor"
       id="path170" />
  </g>
  <g
     transform="translate(30.996572,39.2955)"
     id="g172">
    <path
       id="rect171"
       style="fill:currentColor"
       d="m -0.025,-2.5 h 0.05 c 0.02216,0 0.04,0.01784 0.04,0.04 v 3.2338001 c 0,0.02216 -0.01784,0.04 -0.04,0.04 h -0.05 c -0.02216,0 -0.04,-0.01784 -0.04,-0.04 V -2.46 c 0,-0.02216 0.01784,-0.04 0.04,-0.04 z" />
  </g>
  <g
     transform="translate(15.240972,39.1055)"
     id="g173">
    <path
       id="polygon172"
       style="fill:currentColor;stroke:currentColor;stroke-width:0.08;stroke-linecap:round;stroke-linejoin:round"
       d="m 2.8442,-0.82 v 0.4 L 0.04,0.2 v -0.4 z" />
  </g>
  <g
     transform="translate(33.461572,40.7955)"
     id="g174">
    <path
       transform="scale(0.004,-0.004)"
       d="M 0,-46 C 0,45 116,136 217,136 280,136 326,101 326,46 326,-41 216,-136 106,-136 39,-136 0,-97 0,-46 Z"
       fill="currentColor"
       id="path173" />
  </g>
  <g
     transform="translate(34.700772,39.2955)"
     id="g175">
    <path
       id="rect174"
       style="fill:currentColor"
       d="m -0.025,-2 h 0.05 c 0.02216,0 0.04,0.01784 0.04,0.04 v 3.2338001 c 0,0.02216 -0.01784,0.04 -0.04,0.04 h -0.05 c -0.02216,0 -0.04,-0.01784 -0.04,-0.04 V -1.96 c 0,-0.02216 0.01784,-0.04 0.04,-0.04 z" />
  </g>
  <g
     transform="translate(37.165772,41.2955)"
     id="g176">
    <path
       transform="scale(0.004,-0.004)"
       d="M 0,-46 C 0,45 116,136 217,136 280,136 326,101 326,46 326,-41 216,-136 106,-136 39,-136 0,-97 0,-46 Z"
       fill="currentColor"
       id="path175" />
  </g>
  <g
     transform="translate(38.404972,39.2955)"
     id="g177">
    <path
       id="rect176"
       style="fill:currentColor"
       d="m -0.025,-1.5 h 0.05 c 0.02216,0 0.04,0.01784 0.04,0.04 v 3.2338001 c 0,0.02216 -0.01784,0.04 -0.04,0.04 h -0.05 c -0.02216,0 -0.04,-0.01784 -0.04,-0.04 V -1.46 c 0,-0.02216 0.01784,-0.04 0.04,-0.04 z" />
  </g>
  <g
     transform="translate(42.196672,33.7955)"
     id="g178">
    <path
       style="font-size:2.3308px;font-family:'NewComputerModern Math';white-space:pre"
       d="m 1.5173508,-0.42653641 c 0,-0.20277961 -0.1911256,-0.37758961 -0.4498444,-0.40555921 0.2260876,-0.0442852 0.3869128,-0.19345638 0.3869128,-0.36593558 0,-0.2027796 -0.2144336,-0.3939052 -0.51743758,-0.3939052 H 0.0839088 v 0.072255 H 0.139848 c 0.17947161,0 0.18413321,0.025639 0.18413321,0.1095476 v 1.2283316 c 0,0.0839088 -0.004662,0.1095476 -0.18413321,0.1095476 H 0.0839088 V 0 H 0.99758242 C 1.3075788,0 1.5173508,-0.20744121 1.5173508,-0.42653641 Z M 1.2283316,-1.1980312 c 0,0.1491712 -0.1142092,0.34495838 -0.37292798,0.34495838 H 0.51743761 V -1.4264496 c 0,-0.076916 0.004662,-0.093232 0.11420921,-0.093232 h 0.2890192 c 0.22608758,0 0.30766558,0.198118 0.30766558,0.3216504 z m 0.055939,0.76916399 c 0,0.1654868 -0.1212016,0.35661241 -0.36127398,0.35661241 h -0.29135 c -0.10954761,0 -0.11420921,-0.0163156 -0.11420921,-0.093232 v -0.63630842 h 0.43819041 c 0.23074918,0 0.32864278,0.21676441 0.32864278,0.37292801 z"
       id="text177"
       aria-label="B" />
  </g>
  <g
     transform="translate(43.835572,32.736)"
     id="g179">
    <path
       style="font-size:1.648px;font-family:'NewComputerModern Math';white-space:pre"
       d="m 0.548784,-0.529008 c 0,-0.121952 -0.09064,-0.229072 -0.225776,-0.229072 -0.092288,0 -0.158208,0.037904 -0.191168,0.069216 v -0.500992 c 0,-0.031312 0,-0.046144 -0.019776,-0.046144 -0.021424,0 -0.021424,0.013184 -0.021424,0.046144 v 1.179968 c 0,0.03296 0,0.046144 0.021424,0.046144 0.01648,0 0.187872,-0.118656 0.278512,-0.215888 0.09064,-0.097232 0.158208,-0.212592 0.158208,-0.349376 z m -0.133488,0 c 0,0.260384 -0.243904,0.46968 -0.283456,0.50264 v -0.538896 c 0,-0.037904 0,-0.072512 0.054384,-0.103824 0.051088,-0.029664 0.1236,-0.029664 0.1236,-0.029664 0.075808,0 0.105472,0.088992 0.105472,0.169744 z"
       id="text178"
       aria-label="♭" />
  </g>
  <g
     transform="translate(44.484272,34.5901)"
     id="g180">
    <path
       style="font-size:1.648px;font-family:'NewComputerModern Math';white-space:pre"
       d="M 0.79928,-1.061312 H 0.398816 c -0.201056,0 -0.204352,-0.021424 -0.210944,-0.052736 h -0.0412 L 0.092288,-0.77456 h 0.0412 c 0.004944,-0.026368 0.019776,-0.130192 0.0412,-0.149968 0.011536,-0.009888 0.14008,-0.009888 0.161504,-0.009888 h 0.341136 l -0.184576,0.260384 c -0.14832,0.22248 -0.202704,0.451552 -0.202704,0.619648 0,0.01648 0,0.09064 0.075808,0.09064 0.075808,0 0.075808,-0.07416 0.075808,-0.09064 v -0.084048 c 0,-0.09064 0.004944,-0.18128 0.018128,-0.270272 0.006592,-0.037904 0.029664,-0.179632 0.102176,-0.281808 l 0.22248,-0.31312 C 0.79928,-1.023408 0.79928,-1.026704 0.79928,-1.061312 Z"
       id="text179"
       aria-label="7" />
  </g>
  <g
     transform="translate(42.196672,41.7955)"
     id="g181">
    <path
       transform="scale(0.004,-0.004)"
       d="M 0,-46 C 0,45 116,136 217,136 280,136 326,101 326,46 326,-41 216,-136 106,-136 39,-136 0,-97 0,-46 Z"
       fill="currentColor"
       id="path180" />
  </g>
  <g
     transform="translate(43.435872,39.2955)"
     id="g182">
    <path
       id="rect181"
       style="fill:currentColor"
       d="m -0.025,-1.204 h 0.05 c 0.02216,0 0.04,0.01784 0.04,0.04 v 3.4378001 c 0,0.02216 -0.01784,0.04 -0.04,0.04 h -0.05 c -0.02216,0 -0.04,-0.01784 -0.04,-0.04 V -1.164 c 0,-0.02216 0.01784,-0.04 0.04,-0.04 z" />
  </g>
  <g
     transform="translate(44.950872,40.7955)"
     id="g183">
    <path
       transform="scale(0.004,-0.004)"
       d="M 0,-46 C 0,45 116,136 217,136 280,136 326,101 326,46 326,-41 216,-136 106,-136 39,-136 0,-97 0,-46 Z"
       fill="currentColor"
       id="path182" />
  </g>
  <g
     transform="translate(46.190072,39.2955)"
     id="g184">
    <path
       id="rect183"
       style="fill:currentColor"
       d="m -0.025,-1.796 h 0.05 c 0.02216,0 0.04,0.01784 0.04,0.04 v 3.0298001 c 0,0.02216 -0.01784,0.04 -0.04,0.04 h -0.05 c -0.02216,0 -0.04,-0.01784 -0.04,-0.04 V -1.756 c 0,-0.02216 0.01784,-0.04 0.04,-0.04 z" />
  </g>
  <g
     transform="translate(47.544672,39.7955)"
     id="g185">
    <path
       transform="scale(0.004,-0.004)"
       d="M 0,-46 C 0,45 116,136 217,136 280,136 326,101 326,46 326,-41 216,-136 106,-136 39,-136 0,-97 0,-46 Z"
       fill="currentColor"
       id="path184" />
  </g>
  <g
     transform="translate(47.609672,39.2955)"
     id="g186">
    <path
       id="rect185"
       style="fill:currentColor"
       d="m -0.025,0.68620002 h 0.05 c 0.02216,0 0.04,0.01784 0.04,0.04 V 2.7560001 c 0,0.02216 -0.01784,0.04 -0.04,0.04 h -0.05 c -0.02216,0 -0.04,-0.01784 -0.04,-0.04 V 0.72620002 c 0,-0.02216 0.01784,-0.04 0.04,-0.04 z" />
  </g>
  <g
     transform="translate(50.298872,38.7955)"
     id="g187">
    <path
       transform="scale(0.004,-0.004)"
       d="M 0,-46 C 0,45 116,136 217,136 280,136 326,101 326,46 326,-41 216,-136 106,-136 39,-136 0,-97 0,-46 Z"
       fill="currentColor"
       id="path186" />
  </g>
  <g
     transform="translate(50.363872,39.2955)"
     id="g188">
    <path
       id="rect187"
       style="fill:currentColor"
       d="m -0.025,-0.31380001 h 0.05 c 0.02216,0 0.04,0.01784 0.04,0.04 V 2.1640001 c 0,0.02216 -0.01784,0.04 -0.04,0.04 h -0.05 c -0.02216,0 -0.04,-0.01784 -0.04,-0.04 v -2.43780011 c 0,-0.02216 0.01784,-0.04 0.04,-0.04 z" />
  </g>
  <g
     transform="translate(53.237372,33.7955)"
     id="g189">
    <path
       style="font-size:2.3308px;font-family:'NewComputerModern Math';white-space:pre"
       d="m 1.713138,-0.56405361 v -0.0722548 l -0.2843576,0.006992 c -0.093232,0 -0.29135,0 -0.3752588,-0.006992 v 0.0722548 h 0.074586 c 0.209772,0 0.2167644,0.0256388 0.2167644,0.1118784 v 0.1491712 c 0,0.26104961 -0.2960116,0.28202681 -0.36127398,0.28202681 -0.151502,0 -0.61300041,-0.081578 -0.61300041,-0.77615642 0,-0.69690918 0.45916761,-0.77382558 0.59901561,-0.77382558 0.24939558,0 0.46149838,0.209772 0.50811438,0.5523996 0.00466,0.0326312 0.00466,0.0396236 0.037293,0.0396236 0.037293,0 0.037293,-0.006992 0.037293,-0.0559392 v -0.5523996 c 0,-0.039624 0,-0.055939 -0.025639,-0.055939 -0.00932,0 -0.018646,0 -0.037293,0.02797 l -0.11654,0.1724792 C 1.2982556,-1.5173508 1.1723924,-1.643214 0.94164322,-1.643214 c -0.43352881,0 -0.81111842,0.3682664 -0.81111842,0.84608038 0,0.47781401 0.37292801,0.84841122 0.81578002,0.84841122 0.17014838,0 0.35661238,-0.0606008 0.43585958,-0.198118 0.0303,0.0512776 0.1235324,0.1445096 0.1491712,0.1445096 0.020977,0 0.020977,-0.0186464 0.020977,-0.0536084 v -0.40555921 c 0,-0.0909012 0.00932,-0.1025552 0.1608254,-0.1025552 z"
       id="text188"
       aria-label="G" />
  </g>
  <g
     transform="translate(55.081172,34.5901)"
     id="g190">
    <path
       style="font-size:1.648px;font-family:'NewComputerModern Math';white-space:pre"
       d="M 0.79928,-1.061312 H 0.398816 c -0.201056,0 -0.204352,-0.021424 -0.210944,-0.052736 h -0.0412 L 0.092288,-0.77456 h 0.0412 c 0.004944,-0.026368 0.019776,-0.130192 0.0412,-0.149968 0.011536,-0.009888 0.14008,-0.009888 0.161504,-0.009888 h 0.341136 l -0.184576,0.260384 c -0.14832,0.22248 -0.202704,0.451552 -0.202704,0.619648 0,0.01648 0,0.09064 0.075808,0.09064 0.075808,0 0.075808,-0.07416 0.075808,-0.09064 v -0.084048 c 0,-0.09064 0.004944,-0.18128 0.018128,-0.270272 0.006592,-0.037904 0.029664,-0.179632 0.102176,-0.281808 l 0.22248,-0.31312 C 0.79928,-1.023408 0.79928,-1.026704 0.79928,-1.061312 Z"
       id="text189"
       aria-label="7" />
  </g>
  <g
     transform="translate(53.237372,39.2955)"
     id="g191">
    <path
       transform="scale(0.004,-0.004)"
       d="M 0,-46 C 0,45 116,136 217,136 280,136 326,101 326,46 326,-41 216,-136 106,-136 39,-136 0,-97 0,-46 Z"
       fill="currentColor"
       id="path190" />
  </g>
  <g
     transform="translate(54.476572,39.2955)"
     id="g192">
    <path
       id="rect191"
       style="fill:currentColor"
       d="m -0.025,-2.9963 h 0.05 c 0.02216,0 0.04,0.01784 0.04,0.04 v 2.7301001 c 0,0.02216 -0.01784,0.04 -0.04,0.04 h -0.05 c -0.02216,0 -0.04,-0.01784 -0.04,-0.04 V -2.9563 c 0,-0.02216 0.01784,-0.04 0.04,-0.04 z" />
  </g>
  <g
     transform="translate(52.203072,39.2955)"
     id="g193">
    <path
       transform="scale(0.004,-0.004)"
       d="m -7,375 c 8,4 17,7 25,7 8,0 16,-3 24,-7 l -2,-183 106,20 h 3 c 10,0 18,-7 18,-17 l 7,-570 c -8,-4 -17,-7 -25,-7 -8,0 -16,3 -24,7 l 2,183 -106,-20 h -3 c -10,0 -18,7 -18,17 z M 131,112 39,95 l -3,-207 92,17 z"
       fill="currentColor"
       id="path192" />
  </g>
  <g
     transform="translate(56.411572,39.7955)"
     id="g194">
    <path
       transform="scale(0.004,-0.004)"
       d="M 0,-46 C 0,45 116,136 217,136 280,136 326,101 326,46 326,-41 216,-136 106,-136 39,-136 0,-97 0,-46 Z"
       fill="currentColor"
       id="path193" />
  </g>
  <g
     transform="translate(57.650772,39.2955)"
     id="g195">
    <path
       id="rect194"
       style="fill:currentColor"
       d="m -0.025,-2.8137 h 0.05 c 0.02216,0 0.04,0.01784 0.04,0.04 v 3.0475001 c 0,0.02216 -0.01784,0.04 -0.04,0.04 h -0.05 c -0.02216,0 -0.04,-0.01784 -0.04,-0.04 V -2.7737 c 0,-0.02216 0.01784,-0.04 0.04,-0.04 z" />
  </g>
  <g
     transform="translate(55.261572,39.7955)"
     id="g196">
    <path
       transform="scale(0.004,-0.004)"
       d="m 27,41 -1,-66 v -11 c 0,-22 1,-44 4,-66 45,38 93,80 93,139 0,33 -14,67 -43,67 C 49,104 28,74 27,41 Z m -42,-179 -12,595 c 8,5 18,8 27,8 9,0 19,-3 27,-8 L 20,112 c 25,21 58,34 91,34 52,0 89,-48 89,-102 0,-80 -86,-117 -147,-169 -15,-13 -24,-38 -45,-38 -13,0 -23,11 -23,25 z"
       fill="currentColor"
       id="path195" />
  </g>
  <g
     transform="translate(58.915772,40.2955)"
     id="g197">
    <path
       transform="scale(0.004,-0.004)"
       d="M 0,-46 C 0,45 116,136 217,136 280,136 326,101 326,46 326,-41 216,-136 106,-136 39,-136 0,-97 0,-46 Z"
       fill="currentColor"
       id="path196" />
  </g>
  <g
     transform="translate(60.154972,39.2955)"
     id="g198">
    <path
       id="rect197"
       style="fill:currentColor"
       d="m -0.025,-1.9953001 h 0.05 c 0.02216,0 0.04,0.01784 0.04,0.04 v 2.72909996 c 0,0.02216 -0.01784,0.04 -0.04,0.04 h -0.05 c -0.02216,0 -0.04,-0.01784 -0.04,-0.04 V -1.9553001 c 0,-0.02216 0.01784,-0.04 0.04,-0.04 z" />
  </g>
  <g
     transform="translate(61.419972,40.7955)"
     id="g199">
    <path
       transform="scale(0.004,-0.004)"
       d="M 0,-46 C 0,45 116,136 217,136 280,136 326,101 326,46 326,-41 216,-136 106,-136 39,-136 0,-97 0,-46 Z"
       fill="currentColor"
       id="path198" />
  </g>
  <g
     transform="translate(62.659172,39.2955)"
     id="g200">
    <path
       id="rect199"
       style="fill:currentColor"
       d="m -0.025,-1.8147 h 0.05 c 0.02216,0 0.04,0.01784 0.04,0.04 v 3.0485 c 0,0.02216 -0.01784,0.04 -0.04,0.04 h -0.05 c -0.02216,0 -0.04,-0.01784 -0.04,-0.04 v -3.0485 c 0,-0.02216 0.01784,-0.04 0.04,-0.04 z" />
  </g>
  <g
     transform="translate(65.250872,33.7955)"
     id="g201">
    <path
       style="font-size:2.3308px;font-family:'NewComputerModern Math';white-space:pre"
       d="m 1.549982,-0.54307641 c 0,-0.023308 0,-0.0396236 -0.0303,-0.0396236 -0.025639,0 -0.025639,0.0139848 -0.02797,0.0372928 -0.018646,0.3333044 -0.268042,0.52443001 -0.52209918,0.52443001 -0.1421788,0 -0.59901561,-0.0792472 -0.59901561,-0.77382562 0,-0.69690918 0.45450601,-0.77615638 0.59668481,-0.77615638 0.25405718,0 0.46149838,0.2121028 0.50811438,0.5523996 0.00466,0.0326312 0.00466,0.0396236 0.037293,0.0396236 0.037293,0 0.037293,-0.006992 0.037293,-0.0559392 v -0.5523996 c 0,-0.039624 0,-0.055939 -0.025639,-0.055939 -0.00932,0 -0.018646,0 -0.037293,0.02797 l -0.11654,0.1724792 C 1.2842708,-1.526674 1.1654,-1.643214 0.94164322,-1.643214 c -0.43585961,0 -0.81111842,0.3705972 -0.81111842,0.84608038 0,0.48247561 0.37758961,0.84841122 0.81111842,0.84841122 0.37992038,0 0.60833878,-0.32398121 0.60833878,-0.59435401 z"
       id="text200"
       aria-label="C" />
  </g>
  <g
     transform="translate(66.923872,34.5901)"
     id="g202">
    <path
       style="font-size:1.648px;font-family:'NewComputerModern Math';white-space:pre"
       d="m 1.189856,-0.412 c 0,-0.018128 -0.014832,-0.03296 -0.03296,-0.03296 H 0.125248 c -0.018128,0 -0.03296,0.014832 -0.03296,0.03296 0,0.018128 0.014832,0.03296 0.03296,0.03296 h 1.031648 c 0.018128,0 0.03296,-0.014832 0.03296,-0.03296 z"
       id="text201"
       aria-label="−" />
  </g>
  <g
     transform="translate(68.221372,34.5901)"
     id="g203">
    <path
       style="font-size:1.648px;font-family:'NewComputerModern Math';white-space:pre"
       d="M 0.79928,-1.061312 H 0.398816 c -0.201056,0 -0.204352,-0.021424 -0.210944,-0.052736 h -0.0412 L 0.092288,-0.77456 h 0.0412 c 0.004944,-0.026368 0.019776,-0.130192 0.0412,-0.149968 0.011536,-0.009888 0.14008,-0.009888 0.161504,-0.009888 h 0.341136 l -0.184576,0.260384 c -0.14832,0.22248 -0.202704,0.451552 -0.202704,0.619648 0,0.01648 0,0.09064 0.075808,0.09064 0.075808,0 0.075808,-0.07416 0.075808,-0.09064 v -0.084048 c 0,-0.09064 0.004944,-0.18128 0.018128,-0.270272 0.006592,-0.037904 0.029664,-0.179632 0.102176,-0.281808 l 0.22248,-0.31312 C 0.79928,-1.023408 0.79928,-1.026704 0.79928,-1.061312 Z"
       id="text202"
       aria-label="7" />
  </g>
  <g
     transform="translate(65.250872,41.2955)"
     id="g204">
    <path
       transform="scale(0.004,-0.004)"
       d="M 0,-46 C 0,45 116,136 217,136 280,136 326,101 326,46 326,-41 216,-136 106,-136 39,-136 0,-97 0,-46 Z"
       fill="currentColor"
       id="path203" />
  </g>
  <g
     transform="translate(66.490072,39.2955)"
     id="g205">
    <path
       id="rect204"
       style="fill:currentColor"
       d="m -0.025,-0.7931 h 0.05 c 0.02216,0 0.04,0.01784 0.04,0.04 v 2.5269 c 0,0.02216 -0.01784,0.04 -0.04,0.04 h -0.05 c -0.02216,0 -0.04,-0.01784 -0.04,-0.04 v -2.5269 c 0,-0.02216 0.01784,-0.04 0.04,-0.04 z" />
  </g>
  <g
     transform="translate(67.505072,42.2955)"
     id="g206">
    <path
       transform="scale(0.004,-0.004)"
       d="M 0,-46 C 0,45 116,136 217,136 280,136 326,101 326,46 326,-41 216,-136 106,-136 39,-136 0,-97 0,-46 Z"
       fill="currentColor"
       id="path205" />
  </g>
  <g
     transform="translate(68.744272,39.2955)"
     id="g207">
    <path
       id="rect206"
       style="fill:currentColor"
       d="m -0.025,-0.2069 h 0.05 c 0.02216,0 0.04,0.01784 0.04,0.04 v 2.9407 c 0,0.02216 -0.01784,0.04 -0.04,0.04 h -0.05 c -0.02216,0 -0.04,-0.01784 -0.04,-0.04 v -2.9407 c 0,-0.02216 0.01784,-0.04 0.04,-0.04 z" />
  </g>
  <g
     transform="translate(70.259272,40.2955)"
     id="g208">
    <path
       transform="scale(0.004,-0.004)"
       d="M 0,-46 C 0,45 116,136 217,136 280,136 326,101 326,46 326,-41 216,-136 106,-136 39,-136 0,-97 0,-46 Z"
       fill="currentColor"
       id="path207" />
  </g>
  <g
     transform="translate(71.498472,39.2955)"
     id="g209">
    <path
       id="rect208"
       style="fill:currentColor"
       d="m -0.025,-2.204 h 0.05 c 0.02216,0 0.04,0.01784 0.04,0.04 v 2.9378001 c 0,0.02216 -0.01784,0.04 -0.04,0.04 h -0.05 c -0.02216,0 -0.04,-0.01784 -0.04,-0.04 V -2.164 c 0,-0.02216 0.01784,-0.04 0.04,-0.04 z" />
  </g>
  <g
     transform="translate(73.013472,39.2955)"
     id="g210">
    <path
       transform="scale(0.004,-0.004)"
       d="M 0,-46 C 0,45 116,136 217,136 280,136 326,101 326,46 326,-41 216,-136 106,-136 39,-136 0,-97 0,-46 Z"
       fill="currentColor"
       id="path209" />
  </g>
  <g
     transform="translate(74.252672,39.2955)"
     id="g211">
    <path
       id="rect210"
       style="fill:currentColor"
       d="m -0.025,-2.796 h 0.05 c 0.02216,0 0.04,0.01784 0.04,0.04 v 2.5298001 c 0,0.02216 -0.01784,0.04 -0.04,0.04 h -0.05 c -0.02216,0 -0.04,-0.01784 -0.04,-0.04 V -2.756 c 0,-0.02216 0.01784,-0.04 0.04,-0.04 z" />
  </g>
  <g
     transform="translate(84.269472,39.2955)"
     id="g212">
    <path
       id="rect211"
       style="fill:currentColor"
       d="m -0.025,-1.0046999 h 0.05 c 0.02216,0 0.04,0.01784 0.04,0.04 v 2.7385 c 0,0.02216 -0.01784,0.04 -0.04,0.04 h -0.05 c -0.02216,0 -0.04,-0.01784 -0.04,-0.04 v -2.73850005 c 0,-0.02216 0.01784,-0.04 0.04,-0.04 z" />
  </g>
  <g
     transform="translate(75.517672,33.7955)"
     id="g213">
    <path
       style="font-size:2.3308px;font-family:'NewComputerModern Math';white-space:pre"
       d="M 1.421788,-1.060514 1.356526,-1.584944 H 0.0769164 v 0.072255 h 0.0559392 c 0.17947161,0 0.18413321,0.025639 0.18413321,0.1095476 v 1.2213392 c 0,0.0839088 -0.004662,0.1095476 -0.18413321,0.1095476 H 0.0769164 V 0 c 0.081578,-0.0069924 0.26338041,-0.0069924 0.35428161,-0.0069924 0.0955628,0 0.30766561,0 0.39157441,0.0069924 v -0.0722548 h -0.0769164 c -0.22142601,0 -0.22142601,-0.0303004 -0.22142601,-0.1118784 v -0.57337682 h 0.20044881 c 0.2237568,0 0.2470648,0.0745856 0.2470648,0.27270361 h 0.05827 V -1.1024684 h -0.05827 c 0,0.19578718 -0.023308,0.27270358 -0.2470648,0.27270358 H 0.52443001 V -1.4194572 c 0,-0.076916 0.004662,-0.093232 0.11420921,-0.093232 h 0.279696 c 0.34961998,0 0.40788998,0.1305248 0.44518278,0.4521752 z"
       id="text212"
       aria-label="F" />
  </g>
  <g
     transform="translate(77.054172,34.5901)"
     id="g214">
    <path
       style="font-size:1.648px;font-family:'NewComputerModern Math';white-space:pre"
       d="M 0.79928,-1.061312 H 0.398816 c -0.201056,0 -0.204352,-0.021424 -0.210944,-0.052736 h -0.0412 L 0.092288,-0.77456 h 0.0412 c 0.004944,-0.026368 0.019776,-0.130192 0.0412,-0.149968 0.011536,-0.009888 0.14008,-0.009888 0.161504,-0.009888 h 0.341136 l -0.184576,0.260384 c -0.14832,0.22248 -0.202704,0.451552 -0.202704,0.619648 0,0.01648 0,0.09064 0.075808,0.09064 0.075808,0 0.075808,-0.07416 0.075808,-0.09064 v -0.084048 c 0,-0.09064 0.004944,-0.18128 0.018128,-0.270272 0.006592,-0.037904 0.029664,-0.179632 0.102176,-0.281808 l 0.22248,-0.31312 C 0.79928,-1.023408 0.79928,-1.026704 0.79928,-1.061312 Z"
       id="text213"
       aria-label="7" />
  </g>
  <g
     transform="translate(75.517672,39.7955)"
     id="g215">
    <path
       transform="scale(0.004,-0.004)"
       d="M 0,-46 C 0,45 116,136 217,136 280,136 326,101 326,46 326,-41 216,-136 106,-136 39,-136 0,-97 0,-46 Z"
       fill="currentColor"
       id="path214" />
  </g>
  <g
     transform="translate(76.756872,39.2955)"
     id="g216">
    <path
       id="rect215"
       style="fill:currentColor"
       d="m -0.025,-2.1853001 h 0.05 c 0.02216,0 0.04,0.01784 0.04,0.04 v 2.41909996 c 0,0.02216 -0.01784,0.04 -0.04,0.04 h -0.05 c -0.02216,0 -0.04,-0.01784 -0.04,-0.04 V -2.1453001 c 0,-0.02216 0.01784,-0.04 0.04,-0.04 z" />
  </g>
  <g
     transform="translate(83.030272,41.2955)"
     id="g217">
    <path
       transform="scale(0.004,-0.004)"
       d="M 0,-46 C 0,45 116,136 217,136 280,136 326,101 326,46 326,-41 216,-136 106,-136 39,-136 0,-97 0,-46 Z"
       fill="currentColor"
       id="path216" />
  </g>
  <g
     transform="translate(78.021872,40.2955)"
     id="g218">
    <path
       transform="scale(0.004,-0.004)"
       d="M 0,-46 C 0,45 116,136 217,136 280,136 326,101 326,46 326,-41 216,-136 106,-136 39,-136 0,-97 0,-46 Z"
       fill="currentColor"
       id="path217" />
  </g>
  <g
     transform="translate(79.261072,39.2955)"
     id="g219">
    <path
       id="rect218"
       style="fill:currentColor"
       d="m -0.025,-2.0046999 h 0.05 c 0.02216,0 0.04,0.01784 0.04,0.04 v 2.7385 c 0,0.02216 -0.01784,0.04 -0.04,0.04 h -0.05 c -0.02216,0 -0.04,-0.01784 -0.04,-0.04 v -2.7385 c 0,-0.02216 0.01784,-0.04 0.04,-0.04 z" />
  </g>
  <g
     transform="translate(80.526072,40.7955)"
     id="g220">
    <path
       transform="scale(0.004,-0.004)"
       d="M 0,-46 C 0,45 116,136 217,136 280,136 326,101 326,46 326,-41 216,-136 106,-136 39,-136 0,-97 0,-46 Z"
       fill="currentColor"
       id="path219" />
  </g>
  <g
     transform="translate(81.765272,39.2955)"
     id="g221">
    <path
       id="rect220"
       style="fill:currentColor"
       d="m -0.025,-1.1853 h 0.05 c 0.02216,0 0.04,0.01784 0.04,0.04 v 2.4191 c 0,0.02216 -0.01784,0.04 -0.04,0.04 h -0.05 c -0.02216,0 -0.04,-0.01784 -0.04,-0.04 v -2.4191 c 0,-0.02216 0.01784,-0.04 0.04,-0.04 z" />
  </g>
</svg>
