<?xml version="1.0" encoding="UTF-8" standalone="no"?>
<svg
   version="1.2"
   width="151.30377mm"
   height="19.589228mm"
   viewBox="0 0 86.100204 11.147352"
   id="svg97"
   sodipodi:docname="fig_228.svg"
   xmlns:inkscape="http://www.inkscape.org/namespaces/inkscape"
   xmlns:sodipodi="http://sodipodi.sourceforge.net/DTD/sodipodi-0.dtd"
   xmlns="http://www.w3.org/2000/svg"
   xmlns:svg="http://www.w3.org/2000/svg">
  <defs
     id="defs97" />
  <sodipodi:namedview
     id="namedview97"
     pagecolor="#505050"
     bordercolor="#eeeeee"
     borderopacity="1"
     inkscape:showpageshadow="0"
     inkscape:pageopacity="0"
     inkscape:pagecheckerboard="0"
     inkscape:deskcolor="#505050"
     inkscape:document-units="mm" />
  <style
     type="text/css"
     id="style1"><![CDATA[
tspan { white-space: pre; }
]]></style>
  <g
     transform="translate(85.9102,7.6073528)"
     id="g1">
    <rect
       x="0"
       y="-2"
       width="0.19"
       height="4"
       ry="0.0000"
       fill="currentColor"
       id="rect1" />
  </g>
  <g
     transform="translate(85.4202,7.6073528)"
     id="g2">
    <rect
       x="0"
       y="-2"
       width="0.19"
       height="4"
       ry="0.0000"
       fill="currentColor"
       id="rect2" />
  </g>
  <g
     transform="translate(0,4.6073528)"
     id="g3">
    <rect
       x="45.7117"
       y="-0.1"
       width="1.9563"
       height="0.2"
       ry="0.1"
       fill="currentColor"
       id="rect3" />
  </g>
  <g
     transform="translate(0,4.6073528)"
     id="g4">
    <rect
       x="41.439701"
       y="-0.1"
       width="1.8199"
       height="0.2"
       ry="0.1"
       fill="currentColor"
       id="rect4" />
  </g>
  <g
     transform="translate(0,4.6073528)"
     id="g5">
    <rect
       x="32.794701"
       y="-0.1"
       width="1.9062999"
       height="0.2"
       ry="0.1"
       fill="currentColor"
       id="rect5" />
  </g>
  <g
     transform="translate(0,4.6073528)"
     id="g6">
    <rect
       x="30.939501"
       y="-0.1"
       width="1.7552"
       height="0.2"
       ry="0.1"
       fill="currentColor"
       id="rect6" />
  </g>
  <g
     transform="translate(0,4.6073528)"
     id="g7">
    <rect
       x="27.4342"
       y="-0.1"
       width="1.9563"
       height="0.2"
       ry="0.1"
       fill="currentColor"
       id="rect7" />
  </g>
  <g
     transform="translate(0,3.6073528)"
     id="g8">
    <rect
       x="25.18"
       y="-0.1"
       width="1.9563"
       height="0.2"
       ry="0.1"
       fill="currentColor"
       id="rect8" />
  </g>
  <g
     transform="translate(0,4.6073528)"
     id="g9">
    <rect
       x="25.18"
       y="-0.1"
       width="1.9563"
       height="0.2"
       ry="0.1"
       fill="currentColor"
       id="rect9" />
  </g>
  <g
     transform="translate(0,3.6073528)"
     id="g10">
    <rect
       x="21.6215"
       y="-0.1"
       width="1.9563"
       height="0.2"
       ry="0.1"
       fill="currentColor"
       id="rect10" />
  </g>
  <g
     transform="translate(0,4.6073528)"
     id="g11">
    <rect
       x="21.6215"
       y="-0.1"
       width="1.9563"
       height="0.2"
       ry="0.1"
       fill="currentColor"
       id="rect11" />
  </g>
  <g
     transform="translate(0,4.6073528)"
     id="g12">
    <rect
       x="18.867399"
       y="-0.1"
       width="1.9563"
       height="0.2"
       ry="0.1"
       fill="currentColor"
       id="rect12" />
  </g>
  <g
     transform="translate(0,9.6073528)"
     id="g13">
    <line
       stroke-linejoin="round"
       stroke-linecap="round"
       stroke-width="0.1"
       stroke="currentColor"
       x1="0.050000001"
       y1="0"
       x2="86.050102"
       y2="0"
       id="line12" />
  </g>
  <g
     transform="translate(0,8.6073528)"
     id="g14">
    <line
       stroke-linejoin="round"
       stroke-linecap="round"
       stroke-width="0.1"
       stroke="currentColor"
       x1="0.050000001"
       y1="0"
       x2="86.050102"
       y2="0"
       id="line13" />
  </g>
  <g
     transform="translate(0,7.6073528)"
     id="g15">
    <line
       stroke-linejoin="round"
       stroke-linecap="round"
       stroke-width="0.1"
       stroke="currentColor"
       x1="0.050000001"
       y1="0"
       x2="86.050102"
       y2="0"
       id="line14" />
  </g>
  <g
     transform="translate(0,6.6073528)"
     id="g16">
    <line
       stroke-linejoin="round"
       stroke-linecap="round"
       stroke-width="0.1"
       stroke="currentColor"
       x1="0.050000001"
       y1="0"
       x2="86.050102"
       y2="0"
       id="line15" />
  </g>
  <g
     transform="translate(0,5.6073528)"
     id="g17">
    <line
       stroke-linejoin="round"
       stroke-linecap="round"
       stroke-width="0.1"
       stroke="currentColor"
       x1="0.050000001"
       y1="0"
       x2="86.050102"
       y2="0"
       id="line16" />
  </g>
  <g
     transform="translate(71.026,7.6073528)"
     id="g18">
    <rect
       x="0"
       y="-2"
       width="0.19"
       height="4"
       ry="0.0000"
       fill="currentColor"
       id="rect17" />
  </g>
  <g
     transform="translate(51.4504,7.6073528)"
     id="g19">
    <rect
       x="0"
       y="-2"
       width="0.19"
       height="4"
       ry="0.0000"
       fill="currentColor"
       id="rect18" />
  </g>
  <g
     transform="translate(24.2733,7.6073528)"
     id="g20">
    <rect
       x="0"
       y="-2"
       width="0.19"
       height="4"
       ry="0.0000"
       fill="currentColor"
       id="rect19" />
  </g>
  <g
     transform="translate(47.907,7.6073528)"
     id="g21">
    <rect
       x="-0.064999998"
       y="-1.8138"
       width="0.13"
       height="3.3669"
       ry="0.039999999"
       fill="currentColor"
       id="rect20" />
  </g>
  <g
     transform="translate(61.4244,9.4173528)"
     id="g22">
    <polygon
       stroke-linejoin="round"
       stroke-linecap="round"
       stroke-width="0.08"
       fill="currentColor"
       stroke="currentColor"
       points="0.04,0.2 0.04,-0.2 2.5942,-0.01 2.5942,0.39 "
       id="polygon21" />
  </g>
  <g
     transform="translate(8.585,1.6688528)"
     id="g23">
    <text
       font-family="'NewComputerModern Math'"
       font-size="2.3308px"
       text-anchor="start"
       fill="currentColor"
       id="text22"><tspan
         id="tspan22">D</tspan></text>
  </g>
  <g
     transform="translate(10.3605,2.4634528)"
     id="g24">
    <text
       font-family="'NewComputerModern Math'"
       font-size="1.648px"
       text-anchor="start"
       fill="currentColor"
       id="text23"><tspan
         id="tspan23">−</tspan></text>
  </g>
  <g
     transform="translate(11.6579,2.4634528)"
     id="g25">
    <text
       font-family="'NewComputerModern Math'"
       font-size="1.648px"
       text-anchor="start"
       fill="currentColor"
       id="text24"><tspan
         id="tspan24">7</tspan></text>
  </g>
  <g
     transform="translate(8.585,7.6073528)"
     id="g26">
    <path
       transform="scale(0.004,-0.004)"
       d="M 365,0 H 10 C 4,0 0,4 0,10 v 136 c 0,6 4,10 10,10 h 355 c 6,0 10,-4 10,-10 V 10 C 375,4 371,0 365,0 Z"
       fill="currentColor"
       id="path25" />
  </g>
  <g
     transform="translate(0.8,8.6073528)"
     id="g27">
    <path
       transform="scale(0.004,-0.004)"
       d="m 266,-635 h -6 c -108,0 -195,88 -195,197 0,58 53,103 112,103 54,0 95,-47 95,-103 0,-52 -43,-95 -95,-95 -11,0 -21,2 -31,6 26,-39 68,-65 117,-65 h 4 z m 135,786 c 19,-89 48,-242 60,-354 76,27 112,94 112,163 0,89 -60,179 -172,191 z M 74,28 c 0,-112 98,-247 278,-247 21,0 44,2 68,6 -7,64 -29,203 -63,364 -79,-8 -124,-61 -124,-119 0,-44 25,-91 81,-123 5,-5 7,-10 7,-15 0,-11 -10,-22 -22,-22 -15,0 -126,62 -126,187 0,88 58,174 160,197 -14,58 -29,117 -46,175 C 180,310 74,188 74,28 Z m 283,1166 c 28,0 143,-206 143,-361 0,-143 -86,-255 -180,-364 21,-68 39,-138 56,-207 5,0 10,1 14,1 155,0 255,-129 255,-262 0,-113 -74,-212 -180,-245 3,-35 5,-70 5,-105 0,-19 -1,-39 -2,-58 -7,-119 -88,-225 -202,-228 l 1,43 c 93,2 153,92 159,191 1,18 2,37 2,55 0,31 -1,61 -4,92 -28,-5 -55,-8 -80,-8 -239,0 -342,217 -342,374 0,177 131,306 248,441 -29,96 -52,170 -52,346 0,189 144,295 159,295 z M 247,782 c 0,-55 12,-115 35,-190 83,100 147,202 147,326 0,40 -6,82 -21,127 -49,-24 -161,-97 -161,-263 z"
       fill="currentColor"
       id="path26" />
  </g>
  <g
     transform="translate(4.885,7.6073528)"
     id="g28">
    <path
       transform="scale(0.004,-0.004)"
       d="M 433,-89 C 433,-111 383,-263 250,-263 191,-263 0,-244 0,0 0,62 18,262 250,262 366,262 426,156 426,99 426,59 396,27 359,27 c -31,0 -75,25 -75,75 0,38 27,77 72,77 4,0 9,0 14,-1 -28,37 -72,59 -120,59 C 144,237 137,164 137,51 V 0 -51 c 0,-113 7,-187 113,-187 80,0 139,70 158,151 2,7 7,10 12,10 6,0 13,-4 13,-12 z"
       fill="currentColor"
       id="path27" />
  </g>
  <g
     transform="translate(56.416,8.4173528)"
     id="g29">
    <polygon
       stroke-linejoin="round"
       stroke-linecap="round"
       stroke-width="0.08"
       fill="currentColor"
       stroke="currentColor"
       points="0.04,0.2 0.04,-0.2 2.5942,-0.01 2.5942,0.39 "
       id="polygon28" />
  </g>
  <g
     transform="translate(13.685,6.6073528)"
     id="g30">
    <path
       transform="scale(0.004,-0.004)"
       d="M 0,-46 C 0,45 116,136 217,136 280,136 326,101 326,46 326,-41 216,-136 106,-136 39,-136 0,-97 0,-46 Z"
       fill="currentColor"
       id="path29" />
  </g>
  <g
     transform="translate(13.75,7.6073528)"
     id="g31">
    <rect
       x="-0.064999998"
       y="-0.81379998"
       width="0.13"
       height="2.6098001"
       ry="0.039999999"
       fill="currentColor"
       id="rect30" />
  </g>
  <g
     transform="translate(43.8836,7.7973528)"
     id="g32">
    <polygon
       stroke-linejoin="round"
       stroke-linecap="round"
       stroke-width="0.08"
       fill="currentColor"
       stroke="currentColor"
       points="0.04,0.2 0.04,-0.2 5.8526,0.61 5.8526,1.01 "
       id="polygon31" />
  </g>
  <g
     transform="translate(43.8836,8.6073528)"
     id="g33">
    <polygon
       stroke-linejoin="round"
       stroke-linecap="round"
       stroke-width="0.08"
       fill="currentColor"
       stroke="currentColor"
       points="0.04,0.2 0.04,-0.2 5.8526,0.61 5.8526,1.01 "
       id="polygon32" />
  </g>
  <g
     transform="translate(16.4392,5.6073528)"
     id="g34">
    <path
       transform="scale(0.004,-0.004)"
       d="M 0,-46 C 0,45 116,136 217,136 280,136 326,101 326,46 326,-41 216,-136 106,-136 39,-136 0,-97 0,-46 Z"
       fill="currentColor"
       id="path33" />
  </g>
  <g
     transform="translate(16.5042,7.6073528)"
     id="g35">
    <rect
       x="-0.064999998"
       y="-1.8138"
       width="0.13"
       height="3.0178001"
       ry="0.039999999"
       fill="currentColor"
       id="rect34" />
  </g>
  <g
     transform="translate(38.6792,7.7973528)"
     id="g36">
    <polygon
       stroke-linejoin="round"
       stroke-linecap="round"
       stroke-width="0.08"
       fill="currentColor"
       stroke="currentColor"
       points="0.04,0.2 0.04,-0.2 3.0402,-0.39 3.0402,0.01 "
       id="polygon35" />
  </g>
  <g
     transform="translate(19.1934,4.6073528)"
     id="g37">
    <path
       transform="scale(0.004,-0.004)"
       d="M 0,-46 C 0,45 116,136 217,136 280,136 326,101 326,46 326,-41 216,-136 106,-136 39,-136 0,-97 0,-46 Z"
       fill="currentColor"
       id="path36" />
  </g>
  <g
     transform="translate(19.2584,7.6073528)"
     id="g38">
    <rect
       x="-0.064999998"
       y="-2.8138001"
       width="0.13"
       height="2.9995"
       ry="0.039999999"
       fill="currentColor"
       id="rect37" />
  </g>
  <g
     transform="translate(33.0708,7.6073528)"
     id="g39">
    <polygon
       stroke-linejoin="round"
       stroke-linecap="round"
       stroke-width="0.08"
       fill="currentColor"
       stroke="currentColor"
       points="0.04,0.2 0.04,-0.2 2.3442,-0.01 2.3442,0.39 "
       id="polygon38" />
  </g>
  <g
     transform="translate(21.9476,3.6073528)"
     id="g40">
    <path
       transform="scale(0.004,-0.004)"
       d="M 0,-46 C 0,45 116,136 217,136 280,136 326,101 326,46 326,-41 216,-136 106,-136 39,-136 0,-97 0,-46 Z"
       fill="currentColor"
       id="path39" />
  </g>
  <g
     transform="translate(22.0126,7.6073528)"
     id="g41">
    <rect
       x="-0.064999998"
       y="-3.8138001"
       width="0.13"
       height="3.8181"
       ry="0.039999999"
       fill="currentColor"
       id="rect40" />
  </g>
  <g
     transform="translate(27.7603,6.6820528)"
     id="g42">
    <polygon
       stroke-linejoin="round"
       stroke-linecap="round"
       stroke-width="0.08"
       fill="currentColor"
       stroke="currentColor"
       points="0.04,0.2 0.04,-0.2 3.4442,-0.0846 3.4442,0.3154 "
       id="polygon41" />
  </g>
  <g
     transform="translate(25.5061,7.4173528)"
     id="g43">
    <polygon
       stroke-linejoin="round"
       stroke-linecap="round"
       stroke-width="0.08"
       fill="currentColor"
       stroke="currentColor"
       points="0.04,0.2 0.04,-0.2 5.6984,-0.01 5.6984,0.39 "
       id="polygon42" />
  </g>
  <g
     transform="translate(25.5061,1.6688528)"
     id="g44">
    <text
       font-family="'NewComputerModern Math'"
       font-size="2.3308px"
       text-anchor="start"
       fill="currentColor"
       id="text43"><tspan
         id="tspan43">G</tspan></text>
  </g>
  <g
     transform="translate(27.3499,2.4634528)"
     id="g45">
    <text
       font-family="'NewComputerModern Math'"
       font-size="1.648px"
       text-anchor="start"
       fill="currentColor"
       id="text44"><tspan
         id="tspan44">7</tspan></text>
  </g>
  <g
     transform="translate(25.5061,3.6073528)"
     id="g46">
    <path
       transform="scale(0.004,-0.004)"
       d="M 0,-46 C 0,45 116,136 217,136 280,136 326,101 326,46 326,-41 216,-136 106,-136 39,-136 0,-97 0,-46 Z"
       fill="currentColor"
       id="path45" />
  </g>
  <g
     transform="translate(25.5711,7.6073528)"
     id="g47">
    <rect
       x="-0.064999998"
       y="-3.8138001"
       width="0.13"
       height="3.6259999"
       ry="0.039999999"
       fill="currentColor"
       id="rect46" />
  </g>
  <g
     transform="translate(19.1934,7.7973528)"
     id="g48">
    <polygon
       stroke-linejoin="round"
       stroke-linecap="round"
       stroke-width="0.08"
       fill="currentColor"
       stroke="currentColor"
       points="0.04,0.2 0.04,-0.2 2.8442,-0.39 2.8442,0.01 "
       id="polygon47" />
  </g>
  <g
     transform="translate(27.7603,4.6073528)"
     id="g49">
    <path
       transform="scale(0.004,-0.004)"
       d="M 0,-46 C 0,45 116,136 217,136 280,136 326,101 326,46 326,-41 216,-136 106,-136 39,-136 0,-97 0,-46 Z"
       fill="currentColor"
       id="path48" />
  </g>
  <g
     transform="translate(27.8253,7.6073528)"
     id="g50">
    <rect
       x="-0.064999998"
       y="-2.8138001"
       width="0.13"
       height="2.7005999"
       ry="0.039999999"
       fill="currentColor"
       id="rect49" />
  </g>
  <g
     transform="translate(21.9476,7.6073528)"
     id="g51">
    <path
       stroke-width="0.08"
       stroke-linejoin="round"
       stroke-linecap="round"
       stroke="currentColor"
       fill="currentColor"
       d="m 0.8521,-4.75 c 0.675,-0.7135 2.4835,-0.7135 3.1585,0 v 0 c -0.675,-0.5935 -2.4835,-0.5935 -3.1585,0 z"
       id="path50" />
  </g>
  <g
     transform="translate(31.1145,4.6073528)"
     id="g52">
    <path
       transform="scale(0.004,-0.004)"
       d="M 0,-46 C 0,45 116,136 217,136 280,136 326,101 326,46 326,-41 216,-136 106,-136 39,-136 0,-97 0,-46 Z"
       fill="currentColor"
       id="path51" />
  </g>
  <g
     transform="translate(31.1795,7.6073528)"
     id="g53">
    <rect
       x="-0.064999998"
       y="-2.8138001"
       width="0.13"
       height="2.8116"
       ry="0.039999999"
       fill="currentColor"
       id="rect52" />
  </g>
  <g
     transform="translate(29.6645,4.6073528)"
     id="g54">
    <path
       transform="scale(0.004,-0.004)"
       d="m 0,119 c 0,8 5,15 13,18 l 46,17 v 158 c 0,10 8,19 18,19 10,0 19,-9 19,-19 V 167 l 83,31 v 158 c 0,10 9,19 19,19 10,0 18,-9 18,-19 V 211 l 32,12 c 2,1 5,1 7,1 11,0 20,-9 20,-20 v -60 c 0,-8 -5,-16 -13,-19 L 216,109 V -51 l 32,11 c 2,1 5,1 7,1 11,0 20,-9 20,-20 v -60 c 0,-8 -5,-15 -13,-18 l -46,-17 v -158 c 0,-10 -8,-19 -18,-19 -10,0 -19,9 -19,19 v 145 l -83,-31 v -158 c 0,-10 -9,-19 -19,-19 -10,0 -18,9 -18,19 v 145 l -32,-12 c -2,-1 -5,-1 -7,-1 -11,0 -20,9 -20,20 v 60 c 0,8 5,16 13,19 l 46,16 V 51 L 27,40 C 25,39 22,39 20,39 9,39 0,48 0,59 Z M 179,95 96,65 V -95 l 83,30 z"
       fill="currentColor"
       id="path53" />
  </g>
  <g
     transform="translate(13.685,9.4173528)"
     id="g55">
    <polygon
       stroke-linejoin="round"
       stroke-linecap="round"
       stroke-width="0.08"
       fill="currentColor"
       stroke="currentColor"
       points="0.04,0.2 0.04,-0.2 2.8442,-0.82 2.8442,-0.42 "
       id="polygon54" />
  </g>
  <g
     transform="translate(33.0708,4.1073528)"
     id="g56">
    <path
       transform="scale(0.004,-0.004)"
       d="M 0,-46 C 0,45 116,136 217,136 280,136 326,101 326,46 326,-41 216,-136 106,-136 39,-136 0,-97 0,-46 Z"
       fill="currentColor"
       id="path55" />
  </g>
  <g
     transform="translate(33.1358,7.6073528)"
     id="g57">
    <rect
       x="-0.064999998"
       y="-3.3138001"
       width="0.13"
       height="3.319"
       ry="0.039999999"
       fill="currentColor"
       id="rect56" />
  </g>
  <g
     transform="translate(35.325,5.1073528)"
     id="g58">
    <path
       transform="scale(0.004,-0.004)"
       d="M 0,-46 C 0,45 116,136 217,136 280,136 326,101 326,46 326,-41 216,-136 106,-136 39,-136 0,-97 0,-46 Z"
       fill="currentColor"
       id="path57" />
  </g>
  <g
     transform="translate(35.39,7.6073528)"
     id="g59">
    <rect
       x="-0.064999998"
       y="-2.3138001"
       width="0.13"
       height="2.4986"
       ry="0.039999999"
       fill="currentColor"
       id="rect58" />
  </g>
  <g
     transform="translate(38.6792,5.1073528)"
     id="g60">
    <path
       transform="scale(0.004,-0.004)"
       d="M 0,-46 C 0,45 116,136 217,136 280,136 326,101 326,46 326,-41 216,-136 106,-136 39,-136 0,-97 0,-46 Z"
       fill="currentColor"
       id="path59" />
  </g>
  <g
     transform="translate(38.7442,7.6073528)"
     id="g61">
    <rect
       x="-0.064999998"
       y="-2.3138001"
       width="0.13"
       height="2.4998"
       ry="0.039999999"
       fill="currentColor"
       id="rect60" />
  </g>
  <g
     transform="translate(37.2292,5.1073528)"
     id="g62">
    <path
       transform="scale(0.004,-0.004)"
       d="m 0,119 c 0,8 5,15 13,18 l 46,17 v 158 c 0,10 8,19 18,19 10,0 19,-9 19,-19 V 167 l 83,31 v 158 c 0,10 9,19 19,19 10,0 18,-9 18,-19 V 211 l 32,12 c 2,1 5,1 7,1 11,0 20,-9 20,-20 v -60 c 0,-8 -5,-16 -13,-19 L 216,109 V -51 l 32,11 c 2,1 5,1 7,1 11,0 20,-9 20,-20 v -60 c 0,-8 -5,-15 -13,-18 l -46,-17 v -158 c 0,-10 -8,-19 -18,-19 -10,0 -19,9 -19,19 v 145 l -83,-31 v -158 c 0,-10 -9,-19 -19,-19 -10,0 -18,9 -18,19 v 145 l -32,-12 c -2,-1 -5,-1 -7,-1 -11,0 -20,9 -20,20 v 60 c 0,8 5,16 13,19 l 46,16 V 51 L 27,40 C 25,39 22,39 20,39 9,39 0,48 0,59 Z M 179,95 96,65 V -95 l 83,30 z"
       fill="currentColor"
       id="path61" />
  </g>
  <g
     transform="translate(41.6294,4.6073528)"
     id="g63">
    <path
       transform="scale(0.004,-0.004)"
       d="M 0,-46 C 0,45 116,136 217,136 280,136 326,101 326,46 326,-41 216,-136 106,-136 39,-136 0,-97 0,-46 Z"
       fill="currentColor"
       id="path62" />
  </g>
  <g
     transform="translate(41.6944,7.6073528)"
     id="g64">
    <rect
       x="-0.064999998"
       y="-2.8138001"
       width="0.13"
       height="2.8178"
       ry="0.039999999"
       fill="currentColor"
       id="rect63" />
  </g>
  <g
     transform="translate(40.5834,4.6073528)"
     id="g65">
    <path
       transform="scale(0.004,-0.004)"
       d="m -7,375 c 8,4 17,7 25,7 8,0 16,-3 24,-7 l -2,-183 106,20 h 3 c 10,0 18,-7 18,-17 l 7,-570 c -8,-4 -17,-7 -25,-7 -8,0 -16,3 -24,7 l 2,183 -106,-20 h -3 c -10,0 -18,7 -18,17 z M 131,112 39,95 l -3,-207 92,17 z"
       fill="currentColor"
       id="path64" />
  </g>
  <g
     transform="translate(43.8836,5.6073528)"
     id="g66">
    <path
       transform="scale(0.004,-0.004)"
       d="M 0,-46 C 0,45 116,136 217,136 280,136 326,101 326,46 326,-41 216,-136 106,-136 39,-136 0,-97 0,-46 Z"
       fill="currentColor"
       id="path65" />
  </g>
  <g
     transform="translate(43.9486,7.6073528)"
     id="g67">
    <rect
       x="-0.064999998"
       y="-1.8138"
       width="0.13"
       height="2.8227"
       ry="0.039999999"
       fill="currentColor"
       id="rect66" />
  </g>
  <g
     transform="translate(46.0378,4.6073528)"
     id="g68">
    <path
       transform="scale(0.004,-0.004)"
       d="M 0,-46 C 0,45 116,136 217,136 280,136 326,101 326,46 326,-41 216,-136 106,-136 39,-136 0,-97 0,-46 Z"
       fill="currentColor"
       id="path67" />
  </g>
  <g
     transform="translate(46.1028,7.6073528)"
     id="g69">
    <rect
       x="-0.064999998"
       y="-2.8138001"
       width="0.13"
       height="4.1188998"
       ry="0.039999999"
       fill="currentColor"
       id="rect68" />
  </g>
  <g
     transform="translate(47.842,5.6073528)"
     id="g70">
    <path
       transform="scale(0.004,-0.004)"
       d="M 0,-46 C 0,45 116,136 217,136 280,136 326,101 326,46 326,-41 216,-136 106,-136 39,-136 0,-97 0,-46 Z"
       fill="currentColor"
       id="path69" />
  </g>
  <g
     transform="translate(66.1828,10.607353)"
     id="g71">
    <polygon
       stroke-linejoin="round"
       stroke-linecap="round"
       stroke-width="0.08"
       fill="currentColor"
       stroke="currentColor"
       points="0.04,0.2 0.04,-0.2 2.5942,-0.39 2.5942,0.01 "
       id="polygon70" />
  </g>
  <g
     transform="translate(49.6462,6.6073528)"
     id="g72">
    <path
       transform="scale(0.004,-0.004)"
       d="M 0,-46 C 0,45 116,136 217,136 280,136 326,101 326,46 326,-41 216,-136 106,-136 39,-136 0,-97 0,-46 Z"
       fill="currentColor"
       id="path71" />
  </g>
  <g
     transform="translate(49.7112,7.6073528)"
     id="g73">
    <rect
       x="-0.064999998"
       y="-0.81379998"
       width="0.13"
       height="2.6149001"
       ry="0.039999999"
       fill="currentColor"
       id="rect72" />
  </g>
  <g
     transform="translate(52.7118,1.6688528)"
     id="g74">
    <text
       font-family="'NewComputerModern Math'"
       font-size="2.3308px"
       text-anchor="start"
       fill="currentColor"
       id="text73"><tspan
         id="tspan73">E</tspan></text>
  </g>
  <g
     transform="translate(54.2824,2.4634528)"
     id="g75">
    <text
       font-family="'NewComputerModern Math'"
       font-size="1.648px"
       text-anchor="start"
       fill="currentColor"
       id="text74"><tspan
         id="tspan74">−</tspan></text>
  </g>
  <g
     transform="translate(55.5799,2.4634528)"
     id="g76">
    <text
       font-family="'NewComputerModern Math'"
       font-size="1.648px"
       text-anchor="start"
       fill="currentColor"
       id="text75"><tspan
         id="tspan75">7</tspan></text>
  </g>
  <g
     transform="translate(52.7118,5.1073528)"
     id="g77">
    <path
       transform="scale(0.004,-0.004)"
       d="M 0,-46 C 0,45 116,136 217,136 280,136 326,101 326,46 326,-41 216,-136 106,-136 39,-136 0,-97 0,-46 Z"
       fill="currentColor"
       id="path76" />
  </g>
  <g
     transform="translate(52.7768,7.6073528)"
     id="g78">
    <rect
       x="-0.064999998"
       y="-2.3138001"
       width="0.13"
       height="3.3138001"
       ry="0.039999999"
       fill="currentColor"
       id="rect77" />
  </g>
  <g
     transform="translate(56.416,5.1073528)"
     id="g79">
    <path
       transform="scale(0.004,-0.004)"
       d="M 0,-46 C 0,45 116,136 217,136 280,136 326,101 326,46 326,-41 216,-136 106,-136 39,-136 0,-97 0,-46 Z"
       fill="currentColor"
       id="path78" />
  </g>
  <g
     transform="translate(56.481,7.6073528)"
     id="g80">
    <rect
       x="-0.064999998"
       y="-2.3138001"
       width="0.13"
       height="3.1285"
       ry="0.039999999"
       fill="currentColor"
       id="rect79" />
  </g>
  <g
     transform="translate(58.9202,5.6073528)"
     id="g81">
    <path
       transform="scale(0.004,-0.004)"
       d="M 0,-46 C 0,45 116,136 217,136 280,136 326,101 326,46 326,-41 216,-136 106,-136 39,-136 0,-97 0,-46 Z"
       fill="currentColor"
       id="path80" />
  </g>
  <g
     transform="translate(58.9852,7.6073528)"
     id="g82">
    <rect
       x="-0.064999998"
       y="-1.8138"
       width="0.13"
       height="2.8090999"
       ry="0.039999999"
       fill="currentColor"
       id="rect81" />
  </g>
  <g
     transform="translate(61.4244,6.1073528)"
     id="g83">
    <path
       transform="scale(0.004,-0.004)"
       d="M 0,-46 C 0,45 116,136 217,136 280,136 326,101 326,46 326,-41 216,-136 106,-136 39,-136 0,-97 0,-46 Z"
       fill="currentColor"
       id="path82" />
  </g>
  <g
     transform="translate(61.4894,7.6073528)"
     id="g84">
    <rect
       x="-0.064999998"
       y="-1.3138"
       width="0.13"
       height="3.1285"
       ry="0.039999999"
       fill="currentColor"
       id="rect83" />
  </g>
  <g
     transform="translate(63.9286,6.6073528)"
     id="g85">
    <path
       transform="scale(0.004,-0.004)"
       d="M 0,-46 C 0,45 116,136 217,136 280,136 326,101 326,46 326,-41 216,-136 106,-136 39,-136 0,-97 0,-46 Z"
       fill="currentColor"
       id="path84" />
  </g>
  <g
     transform="translate(63.9936,7.6073528)"
     id="g86">
    <rect
       x="-0.064999998"
       y="-0.81379998"
       width="0.13"
       height="2.8090999"
       ry="0.039999999"
       fill="currentColor"
       id="rect85" />
  </g>
  <g
     transform="translate(66.1828,7.6073528)"
     id="g87">
    <path
       transform="scale(0.004,-0.004)"
       d="M 0,-46 C 0,45 116,136 217,136 280,136 326,101 326,46 326,-41 216,-136 106,-136 39,-136 0,-97 0,-46 Z"
       fill="currentColor"
       id="path86" />
  </g>
  <g
     transform="translate(66.2478,7.6073528)"
     id="g88">
    <rect
       x="-0.064999998"
       y="0.18619999"
       width="0.13"
       height="2.8090999"
       ry="0.039999999"
       fill="currentColor"
       id="rect87" />
  </g>
  <g
     transform="translate(68.687,7.1073528)"
     id="g89">
    <path
       transform="scale(0.004,-0.004)"
       d="M 0,-46 C 0,45 116,136 217,136 280,136 326,101 326,46 326,-41 216,-136 106,-136 39,-136 0,-97 0,-46 Z"
       fill="currentColor"
       id="path88" />
  </g>
  <g
     transform="translate(68.752,7.6073528)"
     id="g90">
    <rect
       x="-0.064999998"
       y="-0.31380001"
       width="0.13"
       height="3.1285"
       ry="0.039999999"
       fill="currentColor"
       id="rect89" />
  </g>
  <g
     transform="translate(80.3202,7.6073528)"
     id="g91">
    <path
       transform="scale(0.004,-0.004)"
       d="M 365,0 H 10 C 4,0 0,4 0,10 v 136 c 0,6 4,10 10,10 h 355 c 6,0 10,-4 10,-10 V 10 C 375,4 371,0 365,0 Z"
       fill="currentColor"
       id="path90" />
  </g>
  <g
     transform="translate(73.266,1.6688528)"
     id="g92">
    <text
       font-family="'NewComputerModern Math'"
       font-size="2.3308px"
       text-anchor="start"
       fill="currentColor"
       id="text91"><tspan
         id="tspan91">A</tspan></text>
  </g>
  <g
     transform="translate(75.0073,2.4634528)"
     id="g93">
    <text
       font-family="'NewComputerModern Math'"
       font-size="1.648px"
       text-anchor="start"
       fill="currentColor"
       id="text92"><tspan
         id="tspan92">7</tspan></text>
  </g>
  <g
     transform="translate(73.266,7.1073528)"
     id="g94">
    <path
       transform="scale(0.004,-0.004)"
       d="M 0,-46 C 0,45 116,136 217,136 280,136 326,101 326,46 326,-41 216,-136 106,-136 39,-136 0,-97 0,-46 Z"
       fill="currentColor"
       id="path93" />
  </g>
  <g
     transform="translate(73.331,7.6073528)"
     id="g95">
    <rect
       x="-0.064999998"
       y="-0.31380001"
       width="0.13"
       height="3.3138001"
       ry="0.039999999"
       fill="currentColor"
       id="rect94" />
  </g>
  <g
     transform="translate(71.816,7.1073528)"
     id="g96">
    <path
       transform="scale(0.004,-0.004)"
       d="m 0,119 c 0,8 5,15 13,18 l 46,17 v 158 c 0,10 8,19 18,19 10,0 19,-9 19,-19 V 167 l 83,31 v 158 c 0,10 9,19 19,19 10,0 18,-9 18,-19 V 211 l 32,12 c 2,1 5,1 7,1 11,0 20,-9 20,-20 v -60 c 0,-8 -5,-16 -13,-19 L 216,109 V -51 l 32,11 c 2,1 5,1 7,1 11,0 20,-9 20,-20 v -60 c 0,-8 -5,-15 -13,-18 l -46,-17 v -158 c 0,-10 -8,-19 -18,-19 -10,0 -19,9 -19,19 v 145 l -83,-31 v -158 c 0,-10 -9,-19 -19,-19 -10,0 -18,9 -18,19 v 145 l -32,-12 c -2,-1 -5,-1 -7,-1 -11,0 -20,9 -20,20 v 60 c 0,8 5,16 13,19 l 46,16 V 51 L 27,40 C 25,39 22,39 20,39 9,39 0,48 0,59 Z M 179,95 96,65 V -95 l 83,30 z"
       fill="currentColor"
       id="path95" />
  </g>
  <g
     transform="translate(76.9702,7.6073528)"
     id="g97">
    <path
       transform="scale(0.004,-0.004)"
       d="m -6,78 c 0,59 124,83 124,182 0,24 -8,49 -25,69 l -35,42 c -3,3 -4,7 -4,10 0,9 9,15 17,15 4,0 8,-1 11,-5 L 233,211 c 7,-9 10,-17 10,-25 0,-59 -124,-83 -124,-182 0,-24 7,-49 24,-69 l 84,-99 c 3,-3 4,-7 4,-10 0,-9 -8,-16 -16,-16 -8,0 -45,44 -109,44 -16,0 -53,0 -53,-67 0,-62 30,-97 30,-100 0,-4 -4,-7 -8,-7 -13,0 -98,130 -98,204 0,41 27,42 40,42 33,0 78,-13 119,-31 L 4,53 C -3,62 -6,70 -6,78 Z"
       fill="currentColor"
       id="path96" />
  </g>
</svg>
