<?xml version="1.0" encoding="UTF-8" standalone="no"?>
<svg
   version="1.2"
   width="107.41505mm"
   height="17.894949mm"
   viewBox="0 0 61.125099 10.183214"
   id="svg61"
   sodipodi:docname="fig_342.svg"
   xmlns:inkscape="http://www.inkscape.org/namespaces/inkscape"
   xmlns:sodipodi="http://sodipodi.sourceforge.net/DTD/sodipodi-0.dtd"
   xmlns="http://www.w3.org/2000/svg"
   xmlns:svg="http://www.w3.org/2000/svg">
  <defs
     id="defs61" />
  <sodipodi:namedview
     id="namedview61"
     pagecolor="#505050"
     bordercolor="#eeeeee"
     borderopacity="1"
     inkscape:showpageshadow="0"
     inkscape:pageopacity="0"
     inkscape:pagecheckerboard="0"
     inkscape:deskcolor="#505050"
     inkscape:document-units="mm" />
  <style
     type="text/css"
     id="style1"><![CDATA[
tspan { white-space: pre; }
]]></style>
  <g
     transform="translate(60.9351,6.643214)"
     id="g1">
    <rect
       x="0"
       y="-2"
       width="0.19"
       height="4"
       ry="0.0000"
       fill="currentColor"
       id="rect1" />
  </g>
  <g
     transform="translate(60.4451,6.643214)"
     id="g2">
    <rect
       x="0"
       y="-2"
       width="0.19"
       height="4"
       ry="0.0000"
       fill="currentColor"
       id="rect2" />
  </g>
  <g
     transform="translate(0,8.643214)"
     id="g3">
    <line
       stroke-linejoin="round"
       stroke-linecap="round"
       stroke-width="0.1"
       stroke="currentColor"
       x1="0.050000001"
       y1="0"
       x2="61.0751"
       y2="0"
       id="line2" />
  </g>
  <g
     transform="translate(0,7.643214)"
     id="g4">
    <line
       stroke-linejoin="round"
       stroke-linecap="round"
       stroke-width="0.1"
       stroke="currentColor"
       x1="0.050000001"
       y1="0"
       x2="61.0751"
       y2="0"
       id="line3" />
  </g>
  <g
     transform="translate(0,6.643214)"
     id="g5">
    <line
       stroke-linejoin="round"
       stroke-linecap="round"
       stroke-width="0.1"
       stroke="currentColor"
       x1="0.050000001"
       y1="0"
       x2="61.0751"
       y2="0"
       id="line4" />
  </g>
  <g
     transform="translate(0,5.643214)"
     id="g6">
    <line
       stroke-linejoin="round"
       stroke-linecap="round"
       stroke-width="0.1"
       stroke="currentColor"
       x1="0.050000001"
       y1="0"
       x2="61.0751"
       y2="0"
       id="line5" />
  </g>
  <g
     transform="translate(0,4.643214)"
     id="g7">
    <line
       stroke-linejoin="round"
       stroke-linecap="round"
       stroke-width="0.1"
       stroke="currentColor"
       x1="0.050000001"
       y1="0"
       x2="61.0751"
       y2="0"
       id="line6" />
  </g>
  <g
     transform="translate(49.2777,6.643214)"
     id="g8">
    <rect
       x="0"
       y="-2"
       width="0.19"
       height="4"
       ry="0.0000"
       fill="currentColor"
       id="rect7" />
  </g>
  <g
     transform="translate(28.1492,6.643214)"
     id="g9">
    <rect
       x="0"
       y="-2"
       width="0.19"
       height="4"
       ry="0.0000"
       fill="currentColor"
       id="rect8" />
  </g>
  <g
     transform="translate(40.1984,3.643214)"
     id="g10">
    <polygon
       stroke-linejoin="round"
       stroke-linecap="round"
       stroke-width="0.08"
       fill="currentColor"
       stroke="currentColor"
       points="0.04,0.2 0.04,-0.2 2.5942,-0.01 2.5942,0.39 "
       id="polygon9" />
  </g>
  <g
     transform="translate(34.2658,8.833214)"
     id="g11">
    <polygon
       stroke-linejoin="round"
       stroke-linecap="round"
       stroke-width="0.08"
       fill="currentColor"
       stroke="currentColor"
       points="0.04,0.2 0.04,-0.2 2.3442,0.42 2.3442,0.82 "
       id="polygon10" />
  </g>
  <g
     transform="translate(8.585,1.643214)"
     id="g12">
    <text
       font-family="'New Computer Modern Math'"
       font-size="2.3308px"
       text-anchor="start"
       fill="currentColor"
       id="text11"><tspan
         id="tspan11">D</tspan></text>
  </g>
  <g
     transform="translate(10.3605,2.437814)"
     id="g13">
    <text
       font-family="'New Computer Modern Math'"
       font-size="1.648px"
       text-anchor="start"
       fill="currentColor"
       id="text12"><tspan
         id="tspan12">−</tspan></text>
  </g>
  <g
     transform="translate(11.6579,2.437814)"
     id="g14">
    <text
       font-family="'New Computer Modern Math'"
       font-size="1.648px"
       text-anchor="start"
       fill="currentColor"
       id="text13"><tspan
         id="tspan13">7</tspan></text>
  </g>
  <g
     transform="translate(8.585,6.643214)"
     id="g15">
    <path
       transform="scale(0.004,-0.004)"
       d="m 70,205 c 79,0 46,-98 91,-98 16,0 54,48 61,63 3,6 8,9 14,9 6,0 12,-3 14,-9 L 127,-250 c -8,-7 -17,-10 -27,-10 -10,0 -20,3 -28,10 L 189,76 C 155,64 120,54 84,54 26,54 -1,95 -1,134 c 0,36 24,71 71,71 z"
       fill="currentColor"
       id="path14" />
  </g>
  <g
     transform="translate(0.8,7.643214)"
     id="g16">
    <path
       transform="scale(0.004,-0.004)"
       d="m 266,-635 h -6 c -108,0 -195,88 -195,197 0,58 53,103 112,103 54,0 95,-47 95,-103 0,-52 -43,-95 -95,-95 -11,0 -21,2 -31,6 26,-39 68,-65 117,-65 h 4 z m 135,786 c 19,-89 48,-242 60,-354 76,27 112,94 112,163 0,89 -60,179 -172,191 z M 74,28 c 0,-112 98,-247 278,-247 21,0 44,2 68,6 -7,64 -29,203 -63,364 -79,-8 -124,-61 -124,-119 0,-44 25,-91 81,-123 5,-5 7,-10 7,-15 0,-11 -10,-22 -22,-22 -15,0 -126,62 -126,187 0,88 58,174 160,197 -14,58 -29,117 -46,175 C 180,310 74,188 74,28 Z m 283,1166 c 28,0 143,-206 143,-361 0,-143 -86,-255 -180,-364 21,-68 39,-138 56,-207 5,0 10,1 14,1 155,0 255,-129 255,-262 0,-113 -74,-212 -180,-245 3,-35 5,-70 5,-105 0,-19 -1,-39 -2,-58 -7,-119 -88,-225 -202,-228 l 1,43 c 93,2 153,92 159,191 1,18 2,37 2,55 0,31 -1,61 -4,92 -28,-5 -55,-8 -80,-8 -239,0 -342,217 -342,374 0,177 131,306 248,441 -29,96 -52,170 -52,346 0,189 144,295 159,295 z M 247,782 c 0,-55 12,-115 35,-190 83,100 147,202 147,326 0,40 -6,82 -21,127 -49,-24 -161,-97 -161,-263 z"
       fill="currentColor"
       id="path15" />
  </g>
  <g
     transform="translate(4.885,6.643214)"
     id="g17">
    <path
       transform="scale(0.004,-0.004)"
       d="M 433,-89 C 433,-111 383,-263 250,-263 191,-263 0,-244 0,0 0,62 18,262 250,262 366,262 426,156 426,99 426,59 396,27 359,27 c -31,0 -75,25 -75,75 0,38 27,77 72,77 4,0 9,0 14,-1 -28,37 -72,59 -120,59 C 144,237 137,164 137,51 V 0 -51 c 0,-113 7,-187 113,-187 80,0 139,70 158,151 2,7 7,10 12,10 6,0 13,-4 13,-12 z"
       fill="currentColor"
       id="path16" />
  </g>
  <g
     transform="translate(30.4134,3.833214)"
     id="g18">
    <polygon
       stroke-linejoin="round"
       stroke-linecap="round"
       stroke-width="0.08"
       fill="currentColor"
       stroke="currentColor"
       points="0.04,0.2 0.04,-0.2 2.5942,-0.39 2.5942,0.01 "
       id="polygon17" />
  </g>
  <g
     transform="translate(10.785,5.143214)"
     id="g19">
    <path
       transform="scale(0.004,-0.004)"
       d="M 0,-46 C 0,45 116,136 217,136 280,136 326,101 326,46 326,-41 216,-136 106,-136 39,-136 0,-97 0,-46 Z"
       fill="currentColor"
       id="path18" />
  </g>
  <g
     transform="translate(10.85,6.643214)"
     id="g20">
    <rect
       x="-0.064999998"
       y="-1.3138"
       width="0.13"
       height="3.3138001"
       ry="0.039999999"
       fill="currentColor"
       id="rect19" />
  </g>
  <g
     transform="translate(10.915,8.603214)"
     id="g21">
    <path
       transform="scale(0.004,-0.004)"
       d="M 0,0 H -16 V 375 H 0 Z m 224,509 c 0,94 -40,158 -40,168 0,14 11,22 23,22 7,0 15,-3 20,-11 25,-56 40,-117 40,-179 C 267,306 0,203 0,0 v 250 c 97,59 224,148 224,259 z"
       fill="currentColor"
       id="path20" />
  </g>
  <g
     transform="translate(23.306,8.643214)"
     id="g22">
    <polygon
       stroke-linejoin="round"
       stroke-linecap="round"
       stroke-width="0.08"
       fill="currentColor"
       stroke="currentColor"
       points="0.04,0.2 0.04,-0.2 2.5942,-0.01 2.5942,0.39 "
       id="polygon21" />
  </g>
  <g
     transform="translate(13.2892,4.643214)"
     id="g23">
    <path
       transform="scale(0.004,-0.004)"
       d="M 0,-46 C 0,45 116,136 217,136 280,136 326,101 326,46 326,-41 216,-136 106,-136 39,-136 0,-97 0,-46 Z"
       fill="currentColor"
       id="path22" />
  </g>
  <g
     transform="translate(13.3542,6.643214)"
     id="g24">
    <rect
       x="-0.064999998"
       y="-1.8138"
       width="0.13"
       height="2.8090999"
       ry="0.039999999"
       fill="currentColor"
       id="rect23" />
  </g>
  <g
     transform="translate(18.2976,7.643214)"
     id="g25">
    <polygon
       stroke-linejoin="round"
       stroke-linecap="round"
       stroke-width="0.08"
       fill="currentColor"
       stroke="currentColor"
       points="0.04,0.2 0.04,-0.2 2.5942,-0.01 2.5942,0.39 "
       id="polygon24" />
  </g>
  <g
     transform="translate(15.7934,4.143214)"
     id="g26">
    <path
       transform="scale(0.004,-0.004)"
       d="M 0,-46 C 0,45 116,136 217,136 280,136 326,101 326,46 326,-41 216,-136 106,-136 39,-136 0,-97 0,-46 Z"
       fill="currentColor"
       id="path25" />
  </g>
  <g
     transform="translate(15.8584,6.643214)"
     id="g27">
    <rect
       x="-0.064999998"
       y="-2.3138001"
       width="0.13"
       height="3.1285"
       ry="0.039999999"
       fill="currentColor"
       id="rect26" />
  </g>
  <g
     transform="translate(13.2892,7.643214)"
     id="g28">
    <polygon
       stroke-linejoin="round"
       stroke-linecap="round"
       stroke-width="0.08"
       fill="currentColor"
       stroke="currentColor"
       points="0.04,0.2 0.04,-0.2 2.5942,-0.39 2.5942,0.01 "
       id="polygon27" />
  </g>
  <g
     transform="translate(18.2976,4.643214)"
     id="g29">
    <path
       transform="scale(0.004,-0.004)"
       d="M 0,-46 C 0,45 116,136 217,136 280,136 326,101 326,46 326,-41 216,-136 106,-136 39,-136 0,-97 0,-46 Z"
       fill="currentColor"
       id="path28" />
  </g>
  <g
     transform="translate(18.3626,6.643214)"
     id="g30">
    <rect
       x="-0.064999998"
       y="-1.8138"
       width="0.13"
       height="2.8185"
       ry="0.039999999"
       fill="currentColor"
       id="rect29" />
  </g>
  <g
     transform="translate(20.8018,5.143214)"
     id="g31">
    <path
       transform="scale(0.004,-0.004)"
       d="M 0,-46 C 0,45 116,136 217,136 280,136 326,101 326,46 326,-41 216,-136 106,-136 39,-136 0,-97 0,-46 Z"
       fill="currentColor"
       id="path30" />
  </g>
  <g
     transform="translate(20.8668,6.643214)"
     id="g32">
    <rect
       x="-0.064999998"
       y="-1.3138"
       width="0.13"
       height="2.4991"
       ry="0.039999999"
       fill="currentColor"
       id="rect31" />
  </g>
  <g
     transform="translate(23.306,5.643214)"
     id="g33">
    <path
       transform="scale(0.004,-0.004)"
       d="M 0,-46 C 0,45 116,136 217,136 280,136 326,101 326,46 326,-41 216,-136 106,-136 39,-136 0,-97 0,-46 Z"
       fill="currentColor"
       id="path32" />
  </g>
  <g
     transform="translate(23.371,6.643214)"
     id="g34">
    <rect
       x="-0.064999998"
       y="-0.81379998"
       width="0.13"
       height="2.8185"
       ry="0.039999999"
       fill="currentColor"
       id="rect33" />
  </g>
  <g
     transform="translate(25.8102,6.143214)"
     id="g35">
    <path
       transform="scale(0.004,-0.004)"
       d="M 0,-46 C 0,45 116,136 217,136 280,136 326,101 326,46 326,-41 216,-136 106,-136 39,-136 0,-97 0,-46 Z"
       fill="currentColor"
       id="path34" />
  </g>
  <g
     transform="translate(25.8752,6.643214)"
     id="g36">
    <rect
       x="-0.064999998"
       y="-0.31380001"
       width="0.13"
       height="2.4991"
       ry="0.039999999"
       fill="currentColor"
       id="rect35" />
  </g>
  <g
     transform="translate(29.2392,1.643214)"
     id="g37">
    <text
       font-family="'New Computer Modern Math'"
       font-size="2.3308px"
       text-anchor="start"
       fill="currentColor"
       id="text36"><tspan
         id="tspan36">G</tspan></text>
  </g>
  <g
     transform="translate(31.0829,2.437814)"
     id="g38">
    <text
       font-family="'New Computer Modern Math'"
       font-size="1.648px"
       text-anchor="start"
       fill="currentColor"
       id="text37"><tspan
         id="tspan37">7</tspan></text>
  </g>
  <g
     transform="translate(29.2392,7.143214)"
     id="g39">
    <path
       transform="scale(0.004,-0.004)"
       d="M 0,-46 C 0,45 116,136 217,136 280,136 326,101 326,46 326,-41 216,-136 106,-136 39,-136 0,-97 0,-46 Z"
       fill="currentColor"
       id="path38" />
  </g>
  <g
     transform="translate(30.4784,6.643214)"
     id="g40">
    <rect
       x="-0.064999998"
       y="-2.8146999"
       width="0.13"
       height="3.1285"
       ry="0.039999999"
       fill="currentColor"
       id="rect39" />
  </g>
  <g
     transform="translate(45.2068,4.643214)"
     id="g41">
    <polygon
       stroke-linejoin="round"
       stroke-linecap="round"
       stroke-width="0.08"
       fill="currentColor"
       stroke="currentColor"
       points="0.04,0.2 0.04,-0.2 2.5942,-0.01 2.5942,0.39 "
       id="polygon40" />
  </g>
  <g
     transform="translate(31.7434,6.643214)"
     id="g42">
    <path
       transform="scale(0.004,-0.004)"
       d="M 0,-46 C 0,45 116,136 217,136 280,136 326,101 326,46 326,-41 216,-136 106,-136 39,-136 0,-97 0,-46 Z"
       fill="currentColor"
       id="path41" />
  </g>
  <g
     transform="translate(32.9826,6.643214)"
     id="g43">
    <rect
       x="-0.064999998"
       y="-2.9953001"
       width="0.13"
       height="2.8090999"
       ry="0.039999999"
       fill="currentColor"
       id="rect42" />
  </g>
  <g
     transform="translate(34.2658,6.143214)"
     id="g44">
    <path
       transform="scale(0.004,-0.004)"
       d="M 0,-46 C 0,45 116,136 217,136 280,136 326,101 326,46 326,-41 216,-136 106,-136 39,-136 0,-97 0,-46 Z"
       fill="currentColor"
       id="path43" />
  </g>
  <g
     transform="translate(34.3308,6.643214)"
     id="g45">
    <rect
       x="-0.064999998"
       y="-0.31380001"
       width="0.13"
       height="2.5207"
       ry="0.039999999"
       fill="currentColor"
       id="rect44" />
  </g>
  <g
     transform="translate(36.52,7.143214)"
     id="g46">
    <path
       transform="scale(0.004,-0.004)"
       d="M 0,-46 C 0,45 116,136 217,136 280,136 326,101 326,46 326,-41 216,-136 106,-136 39,-136 0,-97 0,-46 Z"
       fill="currentColor"
       id="path45" />
  </g>
  <g
     transform="translate(36.585,6.643214)"
     id="g47">
    <rect
       x="-0.064999998"
       y="0.68620002"
       width="0.13"
       height="2.1069"
       ry="0.039999999"
       fill="currentColor"
       id="rect46" />
  </g>
  <g
     transform="translate(39.0242,6.643214)"
     id="g48">
    <path
       transform="scale(0.004,-0.004)"
       d="M 0,-46 C 0,45 116,136 217,136 280,136 326,101 326,46 326,-41 216,-136 106,-136 39,-136 0,-97 0,-46 Z"
       fill="currentColor"
       id="path47" />
  </g>
  <g
     transform="translate(40.2634,6.643214)"
     id="g49">
    <rect
       x="-0.064999998"
       y="-2.9953001"
       width="0.13"
       height="2.8090999"
       ry="0.039999999"
       fill="currentColor"
       id="rect48" />
  </g>
  <g
     transform="translate(41.5284,7.143214)"
     id="g50">
    <path
       transform="scale(0.004,-0.004)"
       d="M 0,-46 C 0,45 116,136 217,136 280,136 326,101 326,46 326,-41 216,-136 106,-136 39,-136 0,-97 0,-46 Z"
       fill="currentColor"
       id="path49" />
  </g>
  <g
     transform="translate(42.7676,6.643214)"
     id="g51">
    <rect
       x="-0.064999998"
       y="-2.8146999"
       width="0.13"
       height="3.1285"
       ry="0.039999999"
       fill="currentColor"
       id="rect50" />
  </g>
  <g
     transform="translate(44.0326,7.643214)"
     id="g52">
    <path
       transform="scale(0.004,-0.004)"
       d="M 0,-46 C 0,45 116,136 217,136 280,136 326,101 326,46 326,-41 216,-136 106,-136 39,-136 0,-97 0,-46 Z"
       fill="currentColor"
       id="path51" />
  </g>
  <g
     transform="translate(45.2718,6.643214)"
     id="g53">
    <rect
       x="-0.064999998"
       y="-1.9953001"
       width="0.13"
       height="2.8090999"
       ry="0.039999999"
       fill="currentColor"
       id="rect52" />
  </g>
  <g
     transform="translate(46.5368,8.143214)"
     id="g54">
    <path
       transform="scale(0.004,-0.004)"
       d="M 0,-46 C 0,45 116,136 217,136 280,136 326,101 326,46 326,-41 216,-136 106,-136 39,-136 0,-97 0,-46 Z"
       fill="currentColor"
       id="path53" />
  </g>
  <g
     transform="translate(47.776,6.643214)"
     id="g55">
    <rect
       x="-0.064999998"
       y="-1.8147"
       width="0.13"
       height="3.1285"
       ry="0.039999999"
       fill="currentColor"
       id="rect54" />
  </g>
  <g
     transform="translate(50.3677,1.643214)"
     id="g56">
    <text
       font-family="'New Computer Modern Math'"
       font-size="2.3308px"
       text-anchor="start"
       fill="currentColor"
       id="text55"><tspan
         id="tspan55">C</tspan></text>
  </g>
  <g
     transform="translate(52.0407,2.437814)"
     id="g57">
    <text
       font-family="'New Computer Modern Math'"
       font-size="1.648px"
       text-anchor="start"
       fill="currentColor"
       id="text56"><tspan
         id="tspan56">△</tspan></text>
  </g>
  <g
     transform="translate(53.6454,2.437814)"
     id="g58">
    <text
       font-family="'New Computer Modern Math'"
       font-size="1.648px"
       text-anchor="start"
       fill="currentColor"
       id="text57"><tspan
         id="tspan57">7</tspan></text>
  </g>
  <g
     transform="translate(50.3677,8.643214)"
     id="g59">
    <path
       transform="scale(0.004,-0.004)"
       d="m 72,-106 c 40,0 204,110 231,143 7,9 11,19 11,28 0,22 -18,41 -42,41 C 232,106 68,-4 41,-37 34,-46 31,-56 31,-65 c 0,-22 17,-41 41,-41 z M 0,-67 c 0,71 46,203 258,203 41,0 86,-10 86,-69 0,-71 -46,-203 -258,-203 -41,0 -86,10 -86,69 z"
       fill="currentColor"
       id="path58" />
  </g>
  <g
     transform="translate(51.6801,6.643214)"
     id="g60">
    <rect
       x="-0.064999998"
       y="-1.5"
       width="0.13"
       height="3.2409999"
       ry="0.039999999"
       fill="currentColor"
       id="rect59" />
  </g>
  <g
     transform="translate(55.3451,6.643214)"
     id="g61">
    <path
       transform="scale(0.004,-0.004)"
       d="M 365,0 H 10 C 4,0 0,4 0,10 v 136 c 0,6 4,10 10,10 h 355 c 6,0 10,-4 10,-10 V 10 C 375,4 371,0 365,0 Z"
       fill="currentColor"
       id="path60" />
  </g>
</svg>
