<?xml version="1.0" encoding="UTF-8" standalone="no"?>
<svg
   version="1.2"
   width="114.42001mm"
   height="23.109138mm"
   viewBox="0 0 65.111304 13.150376"
   id="svg72"
   sodipodi:docname="fig_123.svg"
   xmlns:inkscape="http://www.inkscape.org/namespaces/inkscape"
   xmlns:sodipodi="http://sodipodi.sourceforge.net/DTD/sodipodi-0.dtd"
   xmlns:xlink="http://www.w3.org/1999/xlink"
   xmlns="http://www.w3.org/2000/svg"
   xmlns:svg="http://www.w3.org/2000/svg">
  <defs
     id="defs72" />
  <sodipodi:namedview
     id="namedview72"
     pagecolor="#505050"
     bordercolor="#eeeeee"
     borderopacity="1"
     inkscape:showpageshadow="0"
     inkscape:pageopacity="0"
     inkscape:pagecheckerboard="0"
     inkscape:deskcolor="#505050"
     inkscape:document-units="mm" />
  <style
     type="text/css"
     id="style1"><![CDATA[
tspan { white-space: pre; }
]]></style>
  <g
     transform="translate(64.9213,7.150376)"
     id="g1">
    <rect
       x="0"
       y="-2"
       width="0.19"
       height="4"
       ry="0.0000"
       fill="currentColor"
       id="rect1" />
  </g>
  <g
     transform="translate(64.4313,7.150376)"
     id="g2">
    <rect
       x="0"
       y="-2"
       width="0.19"
       height="4"
       ry="0.0000"
       fill="currentColor"
       id="rect2" />
  </g>
  <g
     transform="translate(0,10.150376)"
     id="g3">
    <rect
       x="57.050999"
       y="-0.1"
       width="1.9563"
       height="0.2"
       ry="0.1"
       fill="currentColor"
       id="rect3" />
  </g>
  <g
     transform="translate(0,11.150376)"
     id="g4">
    <rect
       x="57.050999"
       y="-0.1"
       width="1.9563"
       height="0.2"
       ry="0.1"
       fill="currentColor"
       id="rect4" />
  </g>
  <g
     transform="translate(0,10.150376)"
     id="g5">
    <rect
       x="54.546799"
       y="-0.1"
       width="1.9563"
       height="0.2"
       ry="0.1"
       fill="currentColor"
       id="rect5" />
  </g>
  <g
     transform="translate(0,11.150376)"
     id="g6">
    <rect
       x="54.697899"
       y="-0.1"
       width="1.8053"
       height="0.2"
       ry="0.1"
       fill="currentColor"
       id="rect6" />
  </g>
  <g
     transform="translate(0,10.150376)"
     id="g7">
    <rect
       x="51.3437"
       y="-0.1"
       width="1.8053"
       height="0.2"
       ry="0.1"
       fill="currentColor"
       id="rect7" />
  </g>
  <g
     transform="translate(0,10.150376)"
     id="g8">
    <rect
       x="48.018398"
       y="-0.1"
       width="1.9563"
       height="0.2"
       ry="0.1"
       fill="currentColor"
       id="rect8" />
  </g>
  <g
     transform="translate(0,10.150376)"
     id="g9">
    <rect
       x="41.777199"
       y="-0.1"
       width="1.9563"
       height="0.2"
       ry="0.1"
       fill="currentColor"
       id="rect9" />
  </g>
  <g
     transform="translate(0,11.150376)"
     id="g10">
    <rect
       x="41.777199"
       y="-0.1"
       width="1.9563"
       height="0.2"
       ry="0.1"
       fill="currentColor"
       id="rect10" />
  </g>
  <g
     transform="translate(0,10.150376)"
     id="g11">
    <rect
       x="39.272999"
       y="-0.1"
       width="1.9563"
       height="0.2"
       ry="0.1"
       fill="currentColor"
       id="rect11" />
  </g>
  <g
     transform="translate(0,11.150376)"
     id="g12">
    <rect
       x="39.424"
       y="-0.1"
       width="1.8053"
       height="0.2"
       ry="0.1"
       fill="currentColor"
       id="rect12" />
  </g>
  <g
     transform="translate(0,10.150376)"
     id="g13">
    <rect
       x="35.9188"
       y="-0.1"
       width="1.9563"
       height="0.2"
       ry="0.1"
       fill="currentColor"
       id="rect13" />
  </g>
  <g
     transform="translate(0,11.150376)"
     id="g14">
    <rect
       x="35.9188"
       y="-0.1"
       width="1.9563"
       height="0.2"
       ry="0.1"
       fill="currentColor"
       id="rect14" />
  </g>
  <g
     transform="translate(0,9.150376)"
     id="g15">
    <line
       stroke-linejoin="round"
       stroke-linecap="round"
       stroke-width="0.1"
       stroke="currentColor"
       x1="0.050000001"
       y1="0"
       x2="65.061302"
       y2="0"
       id="line14" />
  </g>
  <g
     transform="translate(0,8.150376)"
     id="g16">
    <line
       stroke-linejoin="round"
       stroke-linecap="round"
       stroke-width="0.1"
       stroke="currentColor"
       x1="0.050000001"
       y1="0"
       x2="65.061302"
       y2="0"
       id="line15" />
  </g>
  <g
     transform="translate(0,7.150376)"
     id="g17">
    <line
       stroke-linejoin="round"
       stroke-linecap="round"
       stroke-width="0.1"
       stroke="currentColor"
       x1="0.050000001"
       y1="0"
       x2="65.061302"
       y2="0"
       id="line16" />
  </g>
  <g
     transform="translate(0,6.150376)"
     id="g18">
    <line
       stroke-linejoin="round"
       stroke-linecap="round"
       stroke-width="0.1"
       stroke="currentColor"
       x1="0.050000001"
       y1="0"
       x2="65.061302"
       y2="0"
       id="line17" />
  </g>
  <g
     transform="translate(0,5.150376)"
     id="g19">
    <line
       stroke-linejoin="round"
       stroke-linecap="round"
       stroke-width="0.1"
       stroke="currentColor"
       x1="0.050000001"
       y1="0"
       x2="65.061302"
       y2="0"
       id="line18" />
  </g>
  <g
     transform="translate(44.7503,7.150376)"
     id="g20">
    <rect
       x="0"
       y="-2"
       width="0.19"
       height="4"
       ry="0.0000"
       fill="currentColor"
       id="rect19" />
  </g>
  <g
     transform="translate(21.9139,7.150376)"
     id="g21">
    <rect
       x="0"
       y="-2"
       width="0.19"
       height="4"
       ry="0.0000"
       fill="currentColor"
       id="rect20" />
  </g>
  <g
     transform="translate(52.6929,6.960376)"
     id="g22">
    <polygon
       stroke-linejoin="round"
       stroke-linecap="round"
       stroke-width="0.08"
       fill="currentColor"
       stroke="currentColor"
       points="0.04,0.2 0.04,-0.2 3.4442,-0.01 3.4442,0.39 "
       id="polygon21" />
  </g>
  <g
     transform="translate(47.0145,6.960376)"
     id="g23">
    <polygon
       stroke-linejoin="round"
       stroke-linecap="round"
       stroke-width="0.08"
       fill="currentColor"
       stroke="currentColor"
       points="0.04,0.2 0.04,-0.2 2.5942,-0.01 2.5942,0.39 "
       id="polygon22" />
  </g>
  <a
     style="color:inherit"
     xlink:href="textedit:///Users/devonnuri/Documents/typst/241230%20Linear%20Harmony/lilypond/fig_123.ly:7:4:5"
     id="a23"
     transform="translate(-8.5358,-6.690724)" />
  <a
     style="color:inherit"
     xlink:href="textedit:///Users/devonnuri/Documents/typst/241230%20Linear%20Harmony/lilypond/fig_123.ly:10:4:5"
     id="a24"
     transform="translate(-8.5358,-6.690724)">
    <g
       transform="translate(17.1208,13.8411)"
       id="g24">
      <path
         transform="scale(0.004,-0.004)"
         d="M 365,0 H 10 C 4,0 0,4 0,10 v 136 c 0,6 4,10 10,10 h 355 c 6,0 10,-4 10,-10 V 10 C 375,4 371,0 365,0 Z"
         fill="currentColor"
         id="path23" />
    </g>
  </a>
  <g
     transform="translate(0.8,8.150376)"
     id="g25">
    <path
       transform="scale(0.004,-0.004)"
       d="m 266,-635 h -6 c -108,0 -195,88 -195,197 0,58 53,103 112,103 54,0 95,-47 95,-103 0,-52 -43,-95 -95,-95 -11,0 -21,2 -31,6 26,-39 68,-65 117,-65 h 4 z m 135,786 c 19,-89 48,-242 60,-354 76,27 112,94 112,163 0,89 -60,179 -172,191 z M 74,28 c 0,-112 98,-247 278,-247 21,0 44,2 68,6 -7,64 -29,203 -63,364 -79,-8 -124,-61 -124,-119 0,-44 25,-91 81,-123 5,-5 7,-10 7,-15 0,-11 -10,-22 -22,-22 -15,0 -126,62 -126,187 0,88 58,174 160,197 -14,58 -29,117 -46,175 C 180,310 74,188 74,28 Z m 283,1166 c 28,0 143,-206 143,-361 0,-143 -86,-255 -180,-364 21,-68 39,-138 56,-207 5,0 10,1 14,1 155,0 255,-129 255,-262 0,-113 -74,-212 -180,-245 3,-35 5,-70 5,-105 0,-19 -1,-39 -2,-58 -7,-119 -88,-225 -202,-228 l 1,43 c 93,2 153,92 159,191 1,18 2,37 2,55 0,31 -1,61 -4,92 -28,-5 -55,-8 -80,-8 -239,0 -342,217 -342,374 0,177 131,306 248,441 -29,96 -52,170 -52,346 0,189 144,295 159,295 z M 247,782 c 0,-55 12,-115 35,-190 83,100 147,202 147,326 0,40 -6,82 -21,127 -49,-24 -161,-97 -161,-263 z"
       fill="currentColor"
       id="path24" />
  </g>
  <g
     transform="translate(4.885,7.150376)"
     id="g26">
    <path
       transform="scale(0.004,-0.004)"
       d="M 433,-89 C 433,-111 383,-263 250,-263 191,-263 0,-244 0,0 0,62 18,262 250,262 366,262 426,156 426,99 426,59 396,27 359,27 c -31,0 -75,25 -75,75 0,38 27,77 72,77 4,0 9,0 14,-1 -28,37 -72,59 -120,59 C 144,237 137,164 137,51 V 0 -51 c 0,-113 7,-187 113,-187 80,0 139,70 158,151 2,7 7,10 12,10 6,0 13,-4 13,-12 z"
       fill="currentColor"
       id="path25" />
  </g>
  <g
     transform="translate(40.7733,7.150376)"
     id="g27">
    <polygon
       stroke-linejoin="round"
       stroke-linecap="round"
       stroke-width="0.08"
       fill="currentColor"
       stroke="currentColor"
       points="0.04,0.2 0.04,-0.2 2.5942,-0.39 2.5942,0.01 "
       id="polygon26" />
  </g>
  <a
     style="color:inherit"
     xlink:href="textedit:///Users/devonnuri/Documents/typst/241230%20Linear%20Harmony/lilypond/fig_123.ly:10:7:8"
     id="a28"
     transform="translate(-8.5358,-6.690724)">
    <g
       transform="translate(22.2208,13.8411)"
       id="g28">
      <path
         transform="scale(0.004,-0.004)"
         d="m -6,78 c 0,59 124,83 124,182 0,24 -8,49 -25,69 l -35,42 c -3,3 -4,7 -4,10 0,9 9,15 17,15 4,0 8,-1 11,-5 L 233,211 c 7,-9 10,-17 10,-25 0,-59 -124,-83 -124,-182 0,-24 7,-49 24,-69 l 84,-99 c 3,-3 4,-7 4,-10 0,-9 -8,-16 -16,-16 -8,0 -45,44 -109,44 -16,0 -53,0 -53,-67 0,-62 30,-97 30,-100 0,-4 -4,-7 -8,-7 -13,0 -98,130 -98,204 0,41 27,42 40,42 33,0 78,-13 119,-31 L 4,53 C -3,62 -6,70 -6,78 Z"
         fill="currentColor"
         id="path27" />
    </g>
  </a>
  <g
     transform="translate(35.1649,6.340376)"
     id="g29">
    <polygon
       stroke-linejoin="round"
       stroke-linecap="round"
       stroke-width="0.08"
       fill="currentColor"
       stroke="currentColor"
       points="0.04,0.2 0.04,-0.2 2.3442,0.42 2.3442,0.82 "
       id="polygon28" />
  </g>
  <a
     style="color:inherit"
     xlink:href="textedit:///Users/devonnuri/Documents/typst/241230%20Linear%20Harmony/lilypond/fig_123.ly:10:10:11"
     id="a30"
     transform="translate(-8.5358,-6.690724)">
    <g
       transform="translate(25.5708,13.3411)"
       id="g30">
      <path
         transform="scale(0.004,-0.004)"
         d="M 0,-46 C 0,45 116,136 217,136 280,136 326,101 326,46 326,-41 216,-136 106,-136 39,-136 0,-97 0,-46 Z"
         fill="currentColor"
         id="path29" />
    </g>
  </a>
  <g
     transform="translate(17.1,7.150376)"
     id="g31">
    <rect
       x="-0.064999998"
       y="-0.31380001"
       width="0.13"
       height="3.1285"
       ry="0.039999999"
       fill="currentColor"
       id="rect30" />
  </g>
  <g
     transform="translate(30.1565,5.150376)"
     id="g32">
    <polygon
       stroke-linejoin="round"
       stroke-linecap="round"
       stroke-width="0.08"
       fill="currentColor"
       stroke="currentColor"
       points="0.04,0.2 0.04,-0.2 2.5942,-0.01 2.5942,0.39 "
       id="polygon31" />
  </g>
  <a
     style="color:inherit"
     xlink:href="textedit:///Users/devonnuri/Documents/typst/241230%20Linear%20Harmony/lilypond/fig_123.ly:10:14:15"
     id="a33"
     transform="translate(-8.5358,-6.690724)">
    <g
       transform="translate(28.075,13.8411)"
       id="g33">
      <path
         transform="scale(0.004,-0.004)"
         d="M 0,-46 C 0,45 116,136 217,136 280,136 326,101 326,46 326,-41 216,-136 106,-136 39,-136 0,-97 0,-46 Z"
         fill="currentColor"
         id="path32" />
    </g>
  </a>
  <g
     transform="translate(19.6042,7.150376)"
     id="g34">
    <rect
       x="-0.064999998"
       y="0.18619999"
       width="0.13"
       height="2.8090999"
       ry="0.039999999"
       fill="currentColor"
       id="rect33" />
  </g>
  <g
     transform="translate(25.1481,4.150376)"
     id="g35">
    <polygon
       stroke-linejoin="round"
       stroke-linecap="round"
       stroke-width="0.08"
       fill="currentColor"
       stroke="currentColor"
       points="0.04,0.2 0.04,-0.2 2.5942,-0.01 2.5942,0.39 "
       id="polygon34" />
  </g>
  <g
     transform="translate(17.035,9.960376)"
     id="g36">
    <polygon
       stroke-linejoin="round"
       stroke-linecap="round"
       stroke-width="0.08"
       fill="currentColor"
       stroke="currentColor"
       points="0.04,0.2 0.04,-0.2 2.5942,-0.01 2.5942,0.39 "
       id="polygon35" />
  </g>
  <a
     style="color:inherit"
     xlink:href="textedit:///Users/devonnuri/Documents/typst/241230%20Linear%20Harmony/lilypond/fig_123.ly:7:7:8"
     id="a39"
     transform="translate(-8.5358,-6.690724)">
    <g
       transform="translate(32.5097,8.8411)"
       id="g37">
      <text
         font-family="'Tex Gyre Termes'"
         font-size="2.3308px"
         text-anchor="start"
         fill="currentColor"
         id="text36"><tspan
           id="tspan36">G</tspan></text>
    </g>
    <g
       transform="translate(34.1827,8.8411)"
       id="g38">
      <text
         font-family="'Tex Gyre Termes'"
         font-size="2.3308px"
         text-anchor="start"
         fill="currentColor"
         id="text37"><tspan
           id="tspan37">m</tspan></text>
    </g>
    <g
       transform="translate(35.9923,7.7817)"
       id="g39">
      <text
         font-family="'Tex Gyre Termes'"
         font-size="1.648px"
         text-anchor="start"
         fill="currentColor"
         id="text38"><tspan
           id="tspan38">7</tspan></text>
    </g>
  </a>
  <a
     style="color:inherit"
     xlink:href="textedit:///Users/devonnuri/Documents/typst/241230%20Linear%20Harmony/lilypond/fig_123.ly:10:16:17"
     id="a40"
     transform="translate(-8.5358,-6.690724)">
    <g
       transform="translate(32.5097,13.8411)"
       id="g40">
      <path
         transform="scale(0.004,-0.004)"
         d="M 0,-46 C 0,45 116,136 217,136 280,136 326,101 326,46 326,-41 216,-136 106,-136 39,-136 0,-97 0,-46 Z"
         fill="currentColor"
         id="path39" />
    </g>
  </a>
  <g
     transform="translate(25.2131,7.150376)"
     id="g41">
    <rect
       x="-0.064999998"
       y="-2.9953001"
       width="0.13"
       height="2.8090999"
       ry="0.039999999"
       fill="currentColor"
       id="rect40" />
  </g>
  <g
     transform="translate(22.8239,7.150376)"
     id="g42">
    <path
       transform="scale(0.004,-0.004)"
       d="m 27,41 -1,-66 v -11 c 0,-22 1,-44 4,-66 45,38 93,80 93,139 0,33 -14,67 -43,67 C 49,104 28,74 27,41 Z m -42,-179 -12,595 c 8,5 18,8 27,8 9,0 19,-3 27,-8 L 20,112 c 25,21 58,34 91,34 52,0 89,-48 89,-102 0,-80 -86,-117 -147,-169 -15,-13 -24,-38 -45,-38 -13,0 -23,11 -23,25 z"
       fill="currentColor"
       id="path41" />
  </g>
  <a
     style="color:inherit"
     xlink:href="textedit:///Users/devonnuri/Documents/typst/241230%20Linear%20Harmony/lilypond/fig_123.ly:10:20:21"
     id="a43"
     transform="translate(-8.5358,-6.690724)">
    <g
       transform="translate(35.0139,14.3411)"
       id="g43">
      <path
         transform="scale(0.004,-0.004)"
         d="M 0,-46 C 0,45 116,136 217,136 280,136 326,101 326,46 326,-41 216,-136 106,-136 39,-136 0,-97 0,-46 Z"
         fill="currentColor"
         id="path42" />
    </g>
  </a>
  <g
     transform="translate(27.7173,7.150376)"
     id="g44">
    <rect
       x="-0.064999998"
       y="-2.8146999"
       width="0.13"
       height="3.1285"
       ry="0.039999999"
       fill="currentColor"
       id="rect43" />
  </g>
  <a
     style="color:inherit"
     xlink:href="textedit:///Users/devonnuri/Documents/typst/241230%20Linear%20Harmony/lilypond/fig_123.ly:10:22:23"
     id="a45"
     transform="translate(-8.5358,-6.690724)">
    <g
       transform="translate(37.5181,14.8411)"
       id="g45">
      <path
         transform="scale(0.004,-0.004)"
         d="M 0,-46 C 0,45 116,136 217,136 280,136 326,101 326,46 326,-41 216,-136 106,-136 39,-136 0,-97 0,-46 Z"
         fill="currentColor"
         id="path44" />
    </g>
  </a>
  <g
     transform="translate(30.2215,7.150376)"
     id="g46">
    <rect
       x="-0.064999998"
       y="-1.9953001"
       width="0.13"
       height="2.8090999"
       ry="0.039999999"
       fill="currentColor"
       id="rect45" />
  </g>
  <a
     style="color:inherit"
     xlink:href="textedit:///Users/devonnuri/Documents/typst/241230%20Linear%20Harmony/lilypond/fig_123.ly:10:24:25"
     id="a47"
     transform="translate(-8.5358,-6.690724)">
    <g
       transform="translate(40.0223,15.3411)"
       id="g47">
      <path
         transform="scale(0.004,-0.004)"
         d="M 0,-46 C 0,45 116,136 217,136 280,136 326,101 326,46 326,-41 216,-136 106,-136 39,-136 0,-97 0,-46 Z"
         fill="currentColor"
         id="path46" />
    </g>
  </a>
  <g
     transform="translate(32.7257,7.150376)"
     id="g48">
    <rect
       x="-0.064999998"
       y="-1.8147"
       width="0.13"
       height="3.1285"
       ry="0.039999999"
       fill="currentColor"
       id="rect47" />
  </g>
  <a
     style="color:inherit"
     xlink:href="textedit:///Users/devonnuri/Documents/typst/241230%20Linear%20Harmony/lilypond/fig_123.ly:10:26:27"
     id="a49"
     transform="translate(-8.5358,-6.690724)">
    <g
       transform="translate(42.5265,15.8411)"
       id="g49">
      <path
         transform="scale(0.004,-0.004)"
         d="M 0,-46 C 0,45 116,136 217,136 280,136 326,101 326,46 326,-41 216,-136 106,-136 39,-136 0,-97 0,-46 Z"
         fill="currentColor"
         id="path48" />
    </g>
  </a>
  <g
     transform="translate(35.2299,7.150376)"
     id="g50">
    <rect
       x="-0.064999998"
       y="-0.7931"
       width="0.13"
       height="2.6069"
       ry="0.039999999"
       fill="currentColor"
       id="rect49" />
  </g>
  <a
     style="color:inherit"
     xlink:href="textedit:///Users/devonnuri/Documents/typst/241230%20Linear%20Harmony/lilypond/fig_123.ly:10:28:29"
     id="a51"
     transform="translate(-8.5358,-6.690724)">
    <g
       transform="translate(44.7807,18.3411)"
       id="g51">
      <path
         transform="scale(0.004,-0.004)"
         d="M 0,-46 C 0,45 116,136 217,136 280,136 326,101 326,46 326,-41 216,-136 106,-136 39,-136 0,-97 0,-46 Z"
         fill="currentColor"
         id="path50" />
    </g>
  </a>
  <g
     transform="translate(37.4841,7.150376)"
     id="g52">
    <rect
       x="-0.064999998"
       y="-0.2069"
       width="0.13"
       height="4.5207"
       ry="0.039999999"
       fill="currentColor"
       id="rect51" />
  </g>
  <a
     style="color:inherit"
     xlink:href="textedit:///Users/devonnuri/Documents/typst/241230%20Linear%20Harmony/lilypond/fig_123.ly:10:31:32"
     id="a53"
     transform="translate(-8.5358,-6.690724)">
    <g
       transform="translate(48.1349,18.3411)"
       id="g53">
      <path
         transform="scale(0.004,-0.004)"
         d="M 0,-46 C 0,45 116,136 217,136 280,136 326,101 326,46 326,-41 216,-136 106,-136 39,-136 0,-97 0,-46 Z"
         fill="currentColor"
         id="path52" />
    </g>
  </a>
  <g
     transform="translate(40.8383,7.150376)"
     id="g54">
    <rect
       x="-0.064999998"
       y="-0.0046999999"
       width="0.13"
       height="4.3185"
       ry="0.039999999"
       fill="currentColor"
       id="rect53" />
  </g>
  <g
     transform="translate(38.1491,11.650376)"
     id="g55">
    <path
       transform="scale(0.004,-0.004)"
       d="m 0,119 c 0,8 5,15 13,18 l 46,17 v 158 c 0,10 8,19 18,19 10,0 19,-9 19,-19 V 167 l 83,31 v 158 c 0,10 9,19 19,19 10,0 18,-9 18,-19 V 211 l 32,12 c 2,1 5,1 7,1 11,0 20,-9 20,-20 v -60 c 0,-8 -5,-16 -13,-19 L 216,109 V -51 l 32,11 c 2,1 5,1 7,1 11,0 20,-9 20,-20 v -60 c 0,-8 -5,-15 -13,-18 l -46,-17 v -158 c 0,-10 -8,-19 -18,-19 -10,0 -19,9 -19,19 v 145 l -83,-31 v -158 c 0,-10 -9,-19 -19,-19 -10,0 -18,9 -18,19 v 145 l -32,-12 c -2,-1 -5,-1 -7,-1 -11,0 -20,9 -20,20 v 60 c 0,8 5,16 13,19 l 46,16 V 51 L 27,40 C 25,39 22,39 20,39 9,39 0,48 0,59 Z M 179,95 96,65 V -95 l 83,30 z"
       fill="currentColor"
       id="path54" />
  </g>
  <a
     style="color:inherit"
     xlink:href="textedit:///Users/devonnuri/Documents/typst/241230%20Linear%20Harmony/lilypond/fig_123.ly:10:35:36"
     id="a56"
     transform="translate(-8.5358,-6.690724)">
    <g
       transform="translate(50.6391,17.8411)"
       id="g56">
      <path
         transform="scale(0.004,-0.004)"
         d="M 0,-46 C 0,45 116,136 217,136 280,136 326,101 326,46 326,-41 216,-136 106,-136 39,-136 0,-97 0,-46 Z"
         fill="currentColor"
         id="path55" />
    </g>
  </a>
  <g
     transform="translate(43.3425,7.150376)"
     id="g57">
    <rect
       x="-0.064999998"
       y="-0.18529999"
       width="0.13"
       height="3.9991"
       ry="0.039999999"
       fill="currentColor"
       id="rect56" />
  </g>
  <a
     style="color:inherit"
     xlink:href="textedit:///Users/devonnuri/Documents/typst/241230%20Linear%20Harmony/lilypond/fig_123.ly:7:12:13"
     id="a59"
     transform="translate(-8.5358,-6.690724)">
    <g
       transform="translate(54.3761,8.8411)"
       id="g58">
      <text
         font-family="'Tex Gyre Termes'"
         font-size="2.3308px"
         text-anchor="start"
         fill="currentColor"
         id="text57"><tspan
           id="tspan57">C</tspan></text>
    </g>
    <g
       transform="translate(55.9467,7.7817)"
       id="g59">
      <text
         font-family="'Tex Gyre Termes'"
         font-size="1.648px"
         text-anchor="start"
         fill="currentColor"
         id="text58"><tspan
           id="tspan58">7</tspan></text>
    </g>
  </a>
  <a
     style="color:inherit"
     xlink:href="textedit:///Users/devonnuri/Documents/typst/241230%20Linear%20Harmony/lilypond/fig_123.ly:10:37:38"
     id="a60"
     transform="translate(-8.5358,-6.690724)">
    <g
       transform="translate(54.3761,16.3411)"
       id="g60">
      <path
         transform="scale(0.004,-0.004)"
         d="M 0,-46 C 0,45 116,136 217,136 280,136 326,101 326,46 326,-41 216,-136 106,-136 39,-136 0,-97 0,-46 Z"
         fill="currentColor"
         id="path59" />
    </g>
  </a>
  <g
     transform="translate(47.0795,7.150376)"
     id="g61">
    <rect
       x="-0.064999998"
       y="-0.18529999"
       width="0.13"
       height="2.4991"
       ry="0.039999999"
       fill="currentColor"
       id="rect60" />
  </g>
  <a
     style="color:inherit"
     xlink:href="textedit:///Users/devonnuri/Documents/typst/241230%20Linear%20Harmony/lilypond/fig_123.ly:10:39:40"
     id="a62"
     transform="translate(-8.5358,-6.690724)">
    <g
       transform="translate(56.8803,16.8411)"
       id="g62">
      <path
         transform="scale(0.004,-0.004)"
         d="M 0,-46 C 0,45 116,136 217,136 280,136 326,101 326,46 326,-41 216,-136 106,-136 39,-136 0,-97 0,-46 Z"
         fill="currentColor"
         id="path61" />
    </g>
  </a>
  <g
     transform="translate(49.5837,7.150376)"
     id="g63">
    <rect
       x="-0.064999998"
       y="-0.0046999999"
       width="0.13"
       height="2.8185"
       ry="0.039999999"
       fill="currentColor"
       id="rect62" />
  </g>
  <a
     style="color:inherit"
     xlink:href="textedit:///Users/devonnuri/Documents/typst/241230%20Linear%20Harmony/lilypond/fig_123.ly:10:41:42"
     id="a64"
     transform="translate(-8.5358,-6.690724)">
    <g
       transform="translate(60.0545,17.3411)"
       id="g64">
      <path
         transform="scale(0.004,-0.004)"
         d="M 0,-46 C 0,45 116,136 217,136 280,136 326,101 326,46 326,-41 216,-136 106,-136 39,-136 0,-97 0,-46 Z"
         fill="currentColor"
         id="path63" />
    </g>
  </a>
  <g
     transform="translate(52.7579,7.150376)"
     id="g65">
    <rect
       x="-0.064999998"
       y="-0.1865"
       width="0.13"
       height="3.5002999"
       ry="0.039999999"
       fill="currentColor"
       id="rect64" />
  </g>
  <g
     transform="translate(50.3687,10.650376)"
     id="g66">
    <path
       transform="scale(0.004,-0.004)"
       d="m 27,41 -1,-66 v -11 c 0,-22 1,-44 4,-66 45,38 93,80 93,139 0,33 -14,67 -43,67 C 49,104 28,74 27,41 Z m -42,-179 -12,595 c 8,5 18,8 27,8 9,0 19,-3 27,-8 L 20,112 c 25,21 58,34 91,34 52,0 89,-48 89,-102 0,-80 -86,-117 -147,-169 -15,-13 -24,-38 -45,-38 -13,0 -23,11 -23,25 z"
       fill="currentColor"
       id="path65" />
  </g>
  <a
     style="color:inherit"
     xlink:href="textedit:///Users/devonnuri/Documents/typst/241230%20Linear%20Harmony/lilypond/fig_123.ly:10:45:46"
     id="a67"
     transform="translate(-8.5358,-6.690724)">
    <g
       transform="translate(63.4087,18.3411)"
       id="g67">
      <path
         transform="scale(0.004,-0.004)"
         d="M 0,-46 C 0,45 116,136 217,136 280,136 326,101 326,46 326,-41 216,-136 106,-136 39,-136 0,-97 0,-46 Z"
         fill="currentColor"
         id="path66" />
    </g>
  </a>
  <g
     transform="translate(56.1121,7.150376)"
     id="g68">
    <rect
       x="-0.064999998"
       y="-0.0035000001"
       width="0.13"
       height="4.3172998"
       ry="0.039999999"
       fill="currentColor"
       id="rect67" />
  </g>
  <g
     transform="translate(53.4229,11.650376)"
     id="g69">
    <path
       transform="scale(0.004,-0.004)"
       d="m 0,119 c 0,8 5,15 13,18 l 46,17 v 158 c 0,10 8,19 18,19 10,0 19,-9 19,-19 V 167 l 83,31 v 158 c 0,10 9,19 19,19 10,0 18,-9 18,-19 V 211 l 32,12 c 2,1 5,1 7,1 11,0 20,-9 20,-20 v -60 c 0,-8 -5,-16 -13,-19 L 216,109 V -51 l 32,11 c 2,1 5,1 7,1 11,0 20,-9 20,-20 v -60 c 0,-8 -5,-15 -13,-18 l -46,-17 v -158 c 0,-10 -8,-19 -18,-19 -10,0 -19,9 -19,19 v 145 l -83,-31 v -158 c 0,-10 -9,-19 -19,-19 -10,0 -18,9 -18,19 v 145 l -32,-12 c -2,-1 -5,-1 -7,-1 -11,0 -20,9 -20,20 v 60 c 0,8 5,16 13,19 l 46,16 V 51 L 27,40 C 25,39 22,39 20,39 9,39 0,48 0,59 Z M 179,95 96,65 V -95 l 83,30 z"
       fill="currentColor"
       id="path68" />
  </g>
  <a
     style="color:inherit"
     xlink:href="textedit:///Users/devonnuri/Documents/typst/241230%20Linear%20Harmony/lilypond/fig_123.ly:10:49:50"
     id="a70"
     transform="translate(-8.5358,-6.690724)">
    <g
       transform="translate(65.9129,17.8411)"
       id="g70">
      <path
         transform="scale(0.004,-0.004)"
         d="M 0,-46 C 0,45 116,136 217,136 280,136 326,101 326,46 326,-41 216,-136 106,-136 39,-136 0,-97 0,-46 Z"
         fill="currentColor"
         id="path69" />
    </g>
  </a>
  <g
     transform="translate(58.6163,7.150376)"
     id="g71">
    <rect
       x="-0.064999998"
       y="0"
       width="0.13"
       height="3.8138001"
       ry="0.039999999"
       fill="currentColor"
       id="rect70" />
  </g>
  <a
     style="color:inherit"
     xlink:href="textedit:///Users/devonnuri/Documents/typst/241230%20Linear%20Harmony/lilypond/fig_123.ly:10:52:53"
     id="a72"
     transform="translate(-8.5358,-6.690724)">
    <g
       transform="translate(69.6171,13.8411)"
       id="g72">
      <path
         transform="scale(0.004,-0.004)"
         d="m -6,78 c 0,59 124,83 124,182 0,24 -8,49 -25,69 l -35,42 c -3,3 -4,7 -4,10 0,9 9,15 17,15 4,0 8,-1 11,-5 L 233,211 c 7,-9 10,-17 10,-25 0,-59 -124,-83 -124,-182 0,-24 7,-49 24,-69 l 84,-99 c 3,-3 4,-7 4,-10 0,-9 -8,-16 -16,-16 -8,0 -45,44 -109,44 -16,0 -53,0 -53,-67 0,-62 30,-97 30,-100 0,-4 -4,-7 -8,-7 -13,0 -98,130 -98,204 0,41 27,42 40,42 33,0 78,-13 119,-31 L 4,53 C -3,62 -6,70 -6,78 Z"
         fill="currentColor"
         id="path71" />
    </g>
  </a>
</svg>
