<?xml version="1.0" encoding="UTF-8" standalone="no"?>
<svg
   version="1.2"
   width="73.117683mm"
   height="19.62701mm"
   viewBox="0 0 41.608001 11.168853"
   id="svg45"
   sodipodi:docname="fig_267.svg"
   xmlns:inkscape="http://www.inkscape.org/namespaces/inkscape"
   xmlns:sodipodi="http://sodipodi.sourceforge.net/DTD/sodipodi-0.dtd"
   xmlns="http://www.w3.org/2000/svg"
   xmlns:svg="http://www.w3.org/2000/svg">
  <defs
     id="defs45" />
  <sodipodi:namedview
     id="namedview45"
     pagecolor="#505050"
     bordercolor="#eeeeee"
     borderopacity="1"
     inkscape:showpageshadow="0"
     inkscape:pageopacity="0"
     inkscape:pagecheckerboard="0"
     inkscape:deskcolor="#505050"
     inkscape:document-units="mm" />
  <style
     type="text/css"
     id="style1"><![CDATA[
tspan { white-space: pre; }
]]></style>
  <g
     transform="translate(41.418,6.6688528)"
     id="g1">
    <rect
       x="0"
       y="-2"
       width="0.19"
       height="4"
       ry="0.0000"
       fill="currentColor"
       id="rect1" />
  </g>
  <g
     transform="translate(40.928,6.6688528)"
     id="g2">
    <rect
       x="0"
       y="-2"
       width="0.19"
       height="4"
       ry="0.0000"
       fill="currentColor"
       id="rect2" />
  </g>
  <g
     transform="translate(0,9.6688528)"
     id="g3">
    <rect
       x="31.948799"
       y="-0.1"
       width="1.8053"
       height="0.2"
       ry="0.1"
       fill="currentColor"
       id="rect3" />
  </g>
  <g
     transform="translate(0,9.6688528)"
     id="g4">
    <rect
       x="28.443501"
       y="-0.1"
       width="1.9563"
       height="0.2"
       ry="0.1"
       fill="currentColor"
       id="rect4" />
  </g>
  <g
     transform="translate(0,9.6688528)"
     id="g5">
    <rect
       x="22.5319"
       y="-0.1"
       width="1.9563"
       height="0.2"
       ry="0.1"
       fill="currentColor"
       id="rect5" />
  </g>
  <g
     transform="translate(0,9.6688528)"
     id="g6">
    <rect
       x="15.0215"
       y="-0.1"
       width="1.9563"
       height="0.2"
       ry="0.1"
       fill="currentColor"
       id="rect6" />
  </g>
  <g
     transform="translate(0,8.6688528)"
     id="g7">
    <line
       stroke-linejoin="round"
       stroke-linecap="round"
       stroke-width="0.1"
       stroke="currentColor"
       x1="0.050000001"
       y1="0"
       x2="41.557999"
       y2="0"
       id="line6" />
  </g>
  <g
     transform="translate(0,7.6688528)"
     id="g8">
    <line
       stroke-linejoin="round"
       stroke-linecap="round"
       stroke-width="0.1"
       stroke="currentColor"
       x1="0.050000001"
       y1="0"
       x2="41.557999"
       y2="0"
       id="line7" />
  </g>
  <g
     transform="translate(0,6.6688528)"
     id="g9">
    <line
       stroke-linejoin="round"
       stroke-linecap="round"
       stroke-width="0.1"
       stroke="currentColor"
       x1="0.050000001"
       y1="0"
       x2="41.557999"
       y2="0"
       id="line8" />
  </g>
  <g
     transform="translate(0,5.6688528)"
     id="g10">
    <line
       stroke-linejoin="round"
       stroke-linecap="round"
       stroke-width="0.1"
       stroke="currentColor"
       x1="0.050000001"
       y1="0"
       x2="41.557999"
       y2="0"
       id="line9" />
  </g>
  <g
     transform="translate(0,4.6688528)"
     id="g11">
    <line
       stroke-linejoin="round"
       stroke-linecap="round"
       stroke-width="0.1"
       stroke="currentColor"
       x1="0.050000001"
       y1="0"
       x2="41.557999"
       y2="0"
       id="line10" />
  </g>
  <g
     transform="translate(25.4254,6.6688528)"
     id="g12">
    <rect
       x="0"
       y="-2"
       width="0.19"
       height="4"
       ry="0.0000"
       fill="currentColor"
       id="rect11" />
  </g>
  <g
     transform="translate(27.6896,6.4788528)"
     id="g13">
    <polygon
       stroke-linejoin="round"
       stroke-linecap="round"
       stroke-width="0.08"
       fill="currentColor"
       stroke="currentColor"
       points="0.04,0.2 0.04,-0.2 2.3442,-0.01 2.3442,0.39 "
       id="polygon12" />
  </g>
  <g
     transform="translate(14.2676,5.8588528)"
     id="g14">
    <polygon
       stroke-linejoin="round"
       stroke-linecap="round"
       stroke-width="0.08"
       fill="currentColor"
       stroke="currentColor"
       points="0.04,0.2 0.04,-0.2 2.3442,0.42 2.3442,0.82 "
       id="polygon13" />
  </g>
  <g
     transform="translate(8.585,1.6688528)"
     id="g15">
    <text
       font-family="'NewComputerModern Math'"
       font-size="2.3308px"
       text-anchor="start"
       fill="currentColor"
       id="text14"><tspan
         id="tspan14">E</tspan></text>
  </g>
  <g
     transform="translate(10.1556,2.4634528)"
     id="g16">
    <text
       font-family="'NewComputerModern Math'"
       font-size="1.648px"
       text-anchor="start"
       fill="currentColor"
       id="text15"><tspan
         id="tspan15">−</tspan></text>
  </g>
  <g
     transform="translate(11.4531,2.4634528)"
     id="g17">
    <text
       font-family="'NewComputerModern Math'"
       font-size="1.648px"
       text-anchor="start"
       fill="currentColor"
       id="text16"><tspan
         id="tspan16">7</tspan></text>
  </g>
  <g
     transform="translate(8.585,6.6688528)"
     id="g18">
    <path
       transform="scale(0.004,-0.004)"
       d="M 0,-46 C 0,45 116,136 217,136 280,136 326,101 326,46 326,-41 216,-136 106,-136 39,-136 0,-97 0,-46 Z"
       fill="currentColor"
       id="path17" />
  </g>
  <g
     transform="translate(0.8,7.6688528)"
     id="g19">
    <path
       transform="scale(0.004,-0.004)"
       d="m 266,-635 h -6 c -108,0 -195,88 -195,197 0,58 53,103 112,103 54,0 95,-47 95,-103 0,-52 -43,-95 -95,-95 -11,0 -21,2 -31,6 26,-39 68,-65 117,-65 h 4 z m 135,786 c 19,-89 48,-242 60,-354 76,27 112,94 112,163 0,89 -60,179 -172,191 z M 74,28 c 0,-112 98,-247 278,-247 21,0 44,2 68,6 -7,64 -29,203 -63,364 -79,-8 -124,-61 -124,-119 0,-44 25,-91 81,-123 5,-5 7,-10 7,-15 0,-11 -10,-22 -22,-22 -15,0 -126,62 -126,187 0,88 58,174 160,197 -14,58 -29,117 -46,175 C 180,310 74,188 74,28 Z m 283,1166 c 28,0 143,-206 143,-361 0,-143 -86,-255 -180,-364 21,-68 39,-138 56,-207 5,0 10,1 14,1 155,0 255,-129 255,-262 0,-113 -74,-212 -180,-245 3,-35 5,-70 5,-105 0,-19 -1,-39 -2,-58 -7,-119 -88,-225 -202,-228 l 1,43 c 93,2 153,92 159,191 1,18 2,37 2,55 0,31 -1,61 -4,92 -28,-5 -55,-8 -80,-8 -239,0 -342,217 -342,374 0,177 131,306 248,441 -29,96 -52,170 -52,346 0,189 144,295 159,295 z M 247,782 c 0,-55 12,-115 35,-190 83,100 147,202 147,326 0,40 -6,82 -21,127 -49,-24 -161,-97 -161,-263 z"
       fill="currentColor"
       id="path18" />
  </g>
  <g
     transform="translate(4.885,6.6688528)"
     id="g20">
    <path
       transform="scale(0.004,-0.004)"
       d="M 433,-89 C 433,-111 383,-263 250,-263 191,-263 0,-244 0,0 0,62 18,262 250,262 366,262 426,156 426,99 426,59 396,27 359,27 c -31,0 -75,25 -75,75 0,38 27,77 72,77 4,0 9,0 14,-1 -28,37 -72,59 -120,59 C 144,237 137,164 137,51 V 0 -51 c 0,-113 7,-187 113,-187 80,0 139,70 158,151 2,7 7,10 12,10 6,0 13,-4 13,-12 z"
       fill="currentColor"
       id="path19" />
  </g>
  <g
     transform="translate(9.8242,6.6688528)"
     id="g21">
    <rect
       x="-0.064999998"
       y="-2.7931001"
       width="0.13"
       height="2.6069"
       ry="0.039999999"
       fill="currentColor"
       id="rect20" />
  </g>
  <g
     transform="translate(9.7592,3.8588528)"
     id="g22">
    <polygon
       stroke-linejoin="round"
       stroke-linecap="round"
       stroke-width="0.08"
       fill="currentColor"
       stroke="currentColor"
       points="0.04,0.2 0.04,-0.2 2.3442,0.42 2.3442,0.82 "
       id="polygon21" />
  </g>
  <g
     transform="translate(10.8392,7.6688528)"
     id="g23">
    <path
       transform="scale(0.004,-0.004)"
       d="M 0,-46 C 0,45 116,136 217,136 280,136 326,101 326,46 326,-41 216,-136 106,-136 39,-136 0,-97 0,-46 Z"
       fill="currentColor"
       id="path22" />
  </g>
  <g
     transform="translate(12.0784,6.6688528)"
     id="g24">
    <rect
       x="-0.064999998"
       y="-2.2068999"
       width="0.13"
       height="3.0207"
       ry="0.039999999"
       fill="currentColor"
       id="rect23" />
  </g>
  <g
     transform="translate(13.0934,8.6688528)"
     id="g25">
    <path
       transform="scale(0.004,-0.004)"
       d="M 0,-46 C 0,45 116,136 217,136 280,136 326,101 326,46 326,-41 216,-136 106,-136 39,-136 0,-97 0,-46 Z"
       fill="currentColor"
       id="path24" />
  </g>
  <g
     transform="translate(14.3326,6.6688528)"
     id="g26">
    <rect
       x="-0.064999998"
       y="-0.7931"
       width="0.13"
       height="2.6069"
       ry="0.039999999"
       fill="currentColor"
       id="rect25" />
  </g>
  <g
     transform="translate(15.3476,10.168853)"
     id="g27">
    <path
       transform="scale(0.004,-0.004)"
       d="M 0,-46 C 0,45 116,136 217,136 280,136 326,101 326,46 326,-41 216,-136 106,-136 39,-136 0,-97 0,-46 Z"
       fill="currentColor"
       id="path26" />
  </g>
  <g
     transform="translate(16.5868,6.6688528)"
     id="g28">
    <rect
       x="-0.064999998"
       y="-0.2069"
       width="0.13"
       height="3.5207"
       ry="0.039999999"
       fill="currentColor"
       id="rect27" />
  </g>
  <g
     transform="translate(18.7018,9.1688528)"
     id="g29">
    <path
       transform="scale(0.004,-0.004)"
       d="M 0,-46 C 0,45 116,136 217,136 280,136 326,101 326,46 326,-41 216,-136 106,-136 39,-136 0,-97 0,-46 Z"
       fill="currentColor"
       id="path28" />
  </g>
  <g
     transform="translate(20.456,9.1688528)"
     id="g30">
    <path
       transform="scale(0.004,-0.004)"
       d="M 0,0 C 0,31 25,56 56,56 87,56 112,31 112,0 112,-31 87,-56 56,-56 25,-56 0,-31 0,0 Z"
       fill="currentColor"
       id="path29" />
  </g>
  <g
     transform="translate(19.941,6.6688528)"
     id="g31">
    <rect
       x="-0.064999998"
       y="-1"
       width="0.13"
       height="3.3138001"
       ry="0.039999999"
       fill="currentColor"
       id="rect30" />
  </g>
  <g
     transform="translate(17.2518,9.1688528)"
     id="g32">
    <path
       transform="scale(0.004,-0.004)"
       d="m 0,119 c 0,8 5,15 13,18 l 46,17 v 158 c 0,10 8,19 18,19 10,0 19,-9 19,-19 V 167 l 83,31 v 158 c 0,10 9,19 19,19 10,0 18,-9 18,-19 V 211 l 32,12 c 2,1 5,1 7,1 11,0 20,-9 20,-20 v -60 c 0,-8 -5,-16 -13,-19 L 216,109 V -51 l 32,11 c 2,1 5,1 7,1 11,0 20,-9 20,-20 v -60 c 0,-8 -5,-15 -13,-18 l -46,-17 v -158 c 0,-10 -8,-19 -18,-19 -10,0 -19,9 -19,19 v 145 l -83,-31 v -158 c 0,-10 -9,-19 -19,-19 -10,0 -18,9 -18,19 v 145 l -32,-12 c -2,-1 -5,-1 -7,-1 -11,0 -20,9 -20,20 v 60 c 0,8 5,16 13,19 l 46,16 V 51 L 27,40 C 25,39 22,39 20,39 9,39 0,48 0,59 Z M 179,95 96,65 V -95 l 83,30 z"
       fill="currentColor"
       id="path31" />
  </g>
  <g
     transform="translate(22.858,10.168853)"
     id="g33">
    <path
       transform="scale(0.004,-0.004)"
       d="M 0,-46 C 0,45 116,136 217,136 280,136 326,101 326,46 326,-41 216,-136 106,-136 39,-136 0,-97 0,-46 Z"
       fill="currentColor"
       id="path32" />
  </g>
  <g
     transform="translate(24.0972,6.6688528)"
     id="g34">
    <rect
       x="-0.064999998"
       y="0"
       width="0.13"
       height="3.3138001"
       ry="0.039999999"
       fill="currentColor"
       id="rect33" />
  </g>
  <g
     transform="translate(24.1622,6.7088528)"
     id="g35">
    <path
       transform="scale(0.004,-0.004)"
       d="M 0,0 V -375 H -16 V 0 Z m 123,-729 c 0,10 42,87 42,196 0,103 -94,208 -165,283 V 0 c 0,-197 207,-336 207,-533 0,-71 -15,-141 -41,-207 -5,-8 -13,-12 -20,-12 -12,0 -23,9 -23,23 z"
       fill="currentColor"
       id="path34" />
  </g>
  <g
     transform="translate(26.5154,1.6688528)"
     id="g36">
    <text
       font-family="'NewComputerModern Math'"
       font-size="2.3308px"
       text-anchor="start"
       fill="currentColor"
       id="text35"><tspan
         id="tspan35">A</tspan></text>
  </g>
  <g
     transform="translate(28.2567,2.4634528)"
     id="g37">
    <text
       font-family="'NewComputerModern Math'"
       font-size="1.648px"
       text-anchor="start"
       fill="currentColor"
       id="text36"><tspan
         id="tspan36">7</tspan></text>
  </g>
  <g
     transform="translate(26.5154,9.1688528)"
     id="g38">
    <path
       transform="scale(0.004,-0.004)"
       d="M 0,-46 C 0,45 116,136 217,136 280,136 326,101 326,46 326,-41 216,-136 106,-136 39,-136 0,-97 0,-46 Z"
       fill="currentColor"
       id="path37" />
  </g>
  <g
     transform="translate(27.7546,6.6688528)"
     id="g39">
    <rect
       x="-0.064999998"
       y="-0.1848"
       width="0.13"
       height="2.4986"
       ry="0.039999999"
       fill="currentColor"
       id="rect38" />
  </g>
  <g
     transform="translate(28.7696,10.168853)"
     id="g40">
    <path
       transform="scale(0.004,-0.004)"
       d="M 0,-46 C 0,45 116,136 217,136 280,136 326,101 326,46 326,-41 216,-136 106,-136 39,-136 0,-97 0,-46 Z"
       fill="currentColor"
       id="path39" />
  </g>
  <g
     transform="translate(30.0088,6.6688528)"
     id="g41">
    <rect
       x="-0.064999998"
       y="-0.0052"
       width="0.13"
       height="3.319"
       ry="0.039999999"
       fill="currentColor"
       id="rect40" />
  </g>
  <g
     transform="translate(32.1238,9.6688528)"
     id="g42">
    <path
       transform="scale(0.004,-0.004)"
       d="M 0,-46 C 0,45 116,136 217,136 280,136 326,101 326,46 326,-41 216,-136 106,-136 39,-136 0,-97 0,-46 Z"
       fill="currentColor"
       id="path41" />
  </g>
  <g
     transform="translate(33.363,6.6688528)"
     id="g43">
    <rect
       x="-0.064999998"
       y="-0.5"
       width="0.13"
       height="3.3138001"
       ry="0.039999999"
       fill="currentColor"
       id="rect42" />
  </g>
  <g
     transform="translate(30.6738,9.6688528)"
     id="g44">
    <path
       transform="scale(0.004,-0.004)"
       d="m 0,119 c 0,8 5,15 13,18 l 46,17 v 158 c 0,10 8,19 18,19 10,0 19,-9 19,-19 V 167 l 83,31 v 158 c 0,10 9,19 19,19 10,0 18,-9 18,-19 V 211 l 32,12 c 2,1 5,1 7,1 11,0 20,-9 20,-20 v -60 c 0,-8 -5,-16 -13,-19 L 216,109 V -51 l 32,11 c 2,1 5,1 7,1 11,0 20,-9 20,-20 v -60 c 0,-8 -5,-15 -13,-18 l -46,-17 v -158 c 0,-10 -8,-19 -18,-19 -10,0 -19,9 -19,19 v 145 l -83,-31 v -158 c 0,-10 -9,-19 -19,-19 -10,0 -18,9 -18,19 v 145 l -32,-12 c -2,-1 -5,-1 -7,-1 -11,0 -20,9 -20,20 v 60 c 0,8 5,16 13,19 l 46,16 V 51 L 27,40 C 25,39 22,39 20,39 9,39 0,48 0,59 Z M 179,95 96,65 V -95 l 83,30 z"
       fill="currentColor"
       id="path43" />
  </g>
  <g
     transform="translate(35.828,6.6688528)"
     id="g45">
    <path
       transform="scale(0.004,-0.004)"
       d="M 365,0 H 10 C 4,0 0,4 0,10 v 136 c 0,6 4,10 10,10 h 355 c 6,0 10,-4 10,-10 V 10 C 375,4 371,0 365,0 Z"
       fill="currentColor"
       id="path44" />
  </g>
</svg>
