<?xml version="1.0" encoding="UTF-8" standalone="no"?>
<svg
   version="1.2"
   width="161.96671mm"
   height="18.590111mm"
   viewBox="0 0 92.168002 10.5788"
   id="svg70"
   sodipodi:docname="fig_122.svg"
   xmlns:inkscape="http://www.inkscape.org/namespaces/inkscape"
   xmlns:sodipodi="http://sodipodi.sourceforge.net/DTD/sodipodi-0.dtd"
   xmlns="http://www.w3.org/2000/svg"
   xmlns:svg="http://www.w3.org/2000/svg">
  <defs
     id="defs70" />
  <sodipodi:namedview
     id="namedview70"
     pagecolor="#505050"
     bordercolor="#eeeeee"
     borderopacity="1"
     inkscape:showpageshadow="0"
     inkscape:pageopacity="0"
     inkscape:pagecheckerboard="0"
     inkscape:deskcolor="#505050"
     inkscape:document-units="mm" />
  <style
     type="text/css"
     id="style1"><![CDATA[
tspan { white-space: pre; }
]]></style>
  <g
     transform="translate(91.978,7.0388)"
     id="g1">
    <rect
       x="0"
       y="-2"
       width="0.19"
       height="4"
       ry="0.0000"
       fill="currentColor"
       id="rect1" />
  </g>
  <g
     transform="translate(91.488,7.0388)"
     id="g2">
    <rect
       x="0"
       y="-2"
       width="0.19"
       height="4"
       ry="0.0000"
       fill="currentColor"
       id="rect2" />
  </g>
  <g
     transform="translate(0,9.0388)"
     id="g3">
    <line
       stroke-linejoin="round"
       stroke-linecap="round"
       stroke-width="0.1"
       stroke="currentColor"
       x1="0.050000001"
       y1="0"
       x2="92.117897"
       y2="0"
       id="line2" />
  </g>
  <g
     transform="translate(0,8.0388)"
     id="g4">
    <line
       stroke-linejoin="round"
       stroke-linecap="round"
       stroke-width="0.1"
       stroke="currentColor"
       x1="0.050000001"
       y1="0"
       x2="92.117897"
       y2="0"
       id="line3" />
  </g>
  <g
     transform="translate(0,7.0388)"
     id="g5">
    <line
       stroke-linejoin="round"
       stroke-linecap="round"
       stroke-width="0.1"
       stroke="currentColor"
       x1="0.050000001"
       y1="0"
       x2="92.117897"
       y2="0"
       id="line4" />
  </g>
  <g
     transform="translate(0,6.0388)"
     id="g6">
    <line
       stroke-linejoin="round"
       stroke-linecap="round"
       stroke-width="0.1"
       stroke="currentColor"
       x1="0.050000001"
       y1="0"
       x2="92.117897"
       y2="0"
       id="line5" />
  </g>
  <g
     transform="translate(0,5.0388)"
     id="g7">
    <line
       stroke-linejoin="round"
       stroke-linecap="round"
       stroke-width="0.1"
       stroke="currentColor"
       x1="0.050000001"
       y1="0"
       x2="92.117897"
       y2="0"
       id="line6" />
  </g>
  <g
     transform="translate(71.5679,7.0388)"
     id="g8">
    <rect
       x="0"
       y="-2"
       width="0.19"
       height="4"
       ry="0.0000"
       fill="currentColor"
       id="rect7" />
  </g>
  <g
     transform="translate(31.1522,7.0388)"
     id="g9">
    <rect
       x="0"
       y="-2"
       width="0.19"
       height="4"
       ry="0.0000"
       fill="currentColor"
       id="rect8" />
  </g>
  <g
     transform="translate(60.5733,6.0388)"
     id="g10">
    <polygon
       stroke-linejoin="round"
       stroke-linecap="round"
       stroke-width="0.08"
       fill="currentColor"
       stroke="currentColor"
       points="0.04,0.2 0.04,-0.2 7.6026,-0.01 7.6026,0.39 "
       id="polygon9" />
  </g>
  <g
     transform="translate(60.5733,6.8488)"
     id="g11">
    <polygon
       stroke-linejoin="round"
       stroke-linecap="round"
       stroke-width="0.08"
       fill="currentColor"
       stroke="currentColor"
       points="0.04,0.2 0.04,-0.2 5.0984,-0.0723 5.0984,0.3277 "
       id="polygon10" />
  </g>
  <g
     transform="translate(51.761,5.0388)"
     id="g12">
    <polygon
       stroke-linejoin="round"
       stroke-linecap="round"
       stroke-width="0.08"
       fill="currentColor"
       stroke="currentColor"
       points="0.04,0.2 0.04,-0.2 4.4962,-0.01 4.4962,0.39 "
       id="polygon11" />
  </g>
  <g
     transform="translate(8.585,2.0388)"
     id="g13">
    <text
       font-family="'New Computer Modern Math'"
       font-size="2.3308px"
       text-anchor="start"
       fill="currentColor"
       id="text12"><tspan
         id="tspan12">B</tspan></text>
  </g>
  <g
     transform="translate(10.4411,1.7556)"
     id="g14">
    <path
       transform="scale(0.0038,-0.0038)"
       d="m 29,39 -2,-64 v -11 c 0,-22 2,-43 5,-65 44,38 91,80 91,138 0,33 -13,66 -42,66 C 50,103 30,72 29,39 Z m -57,415 c 9,5 18,8 28,8 10,0 19,-3 28,-8 L 21,111 c 25,23 58,36 92,36 51,0 87,-49 87,-103 0,-79 -84,-117 -144,-169 -16,-14 -25,-41 -47,-41 -14,0 -25,13 -25,27 z"
       fill="currentColor"
       id="path13" />
  </g>
  <g
     transform="translate(11.1962,2.8334)"
     id="g15">
    <text
       font-family="'New Computer Modern Math'"
       font-size="1.648px"
       text-anchor="start"
       fill="currentColor"
       id="text14"><tspan
         id="tspan14">−</tspan></text>
  </g>
  <g
     transform="translate(12.4936,2.8334)"
     id="g16">
    <text
       font-family="'New Computer Modern Math'"
       font-size="1.648px"
       text-anchor="start"
       fill="currentColor"
       id="text15"><tspan
         id="tspan15">7</tspan></text>
  </g>
  <g
     transform="translate(8.585,7.0388)"
     id="g17">
    <path
       transform="scale(0.004,-0.004)"
       d="M 365,0 H 10 C 4,0 0,4 0,10 v 136 c 0,6 4,10 10,10 h 355 c 6,0 10,-4 10,-10 V 10 C 375,4 371,0 365,0 Z"
       fill="currentColor"
       id="path16" />
  </g>
  <g
     transform="translate(0.8,8.0388)"
     id="g18">
    <path
       transform="scale(0.004,-0.004)"
       d="m 266,-635 h -6 c -108,0 -195,88 -195,197 0,58 53,103 112,103 54,0 95,-47 95,-103 0,-52 -43,-95 -95,-95 -11,0 -21,2 -31,6 26,-39 68,-65 117,-65 h 4 z m 135,786 c 19,-89 48,-242 60,-354 76,27 112,94 112,163 0,89 -60,179 -172,191 z M 74,28 c 0,-112 98,-247 278,-247 21,0 44,2 68,6 -7,64 -29,203 -63,364 -79,-8 -124,-61 -124,-119 0,-44 25,-91 81,-123 5,-5 7,-10 7,-15 0,-11 -10,-22 -22,-22 -15,0 -126,62 -126,187 0,88 58,174 160,197 -14,58 -29,117 -46,175 C 180,310 74,188 74,28 Z m 283,1166 c 28,0 143,-206 143,-361 0,-143 -86,-255 -180,-364 21,-68 39,-138 56,-207 5,0 10,1 14,1 155,0 255,-129 255,-262 0,-113 -74,-212 -180,-245 3,-35 5,-70 5,-105 0,-19 -1,-39 -2,-58 -7,-119 -88,-225 -202,-228 l 1,43 c 93,2 153,92 159,191 1,18 2,37 2,55 0,31 -1,61 -4,92 -28,-5 -55,-8 -80,-8 -239,0 -342,217 -342,374 0,177 131,306 248,441 -29,96 -52,170 -52,346 0,189 144,295 159,295 z M 247,782 c 0,-55 12,-115 35,-190 83,100 147,202 147,326 0,40 -6,82 -21,127 -49,-24 -161,-97 -161,-263 z"
       fill="currentColor"
       id="path17" />
  </g>
  <g
     transform="translate(4.885,7.0388)"
     id="g19">
    <path
       transform="scale(0.004,-0.004)"
       d="M 433,-89 C 433,-111 383,-263 250,-263 191,-263 0,-244 0,0 0,62 18,262 250,262 366,262 426,156 426,99 426,59 396,27 359,27 c -31,0 -75,25 -75,75 0,38 27,77 72,77 4,0 9,0 14,-1 -28,37 -72,59 -120,59 C 144,237 137,164 137,51 V 0 -51 c 0,-113 7,-187 113,-187 80,0 139,70 158,151 2,7 7,10 12,10 6,0 13,-4 13,-12 z"
       fill="currentColor"
       id="path18" />
  </g>
  <g
     transform="translate(62.6987,5.3233)"
     id="g20">
    <text
       font-family="'New Computer Modern Math'"
       font-style="italic"
       font-size="1.7459px"
       text-anchor="start"
       fill="currentColor"
       id="text19"><tspan
         id="tspan19">3</tspan></text>
  </g>
  <g
     transform="translate(15.587,7.0388)"
     id="g21">
    <path
       transform="scale(0.004,-0.004)"
       d="m -6,78 c 0,59 124,83 124,182 0,24 -8,49 -25,69 l -35,42 c -3,3 -4,7 -4,10 0,9 9,15 17,15 4,0 8,-1 11,-5 L 233,211 c 7,-9 10,-17 10,-25 0,-59 -124,-83 -124,-182 0,-24 7,-49 24,-69 l 84,-99 c 3,-3 4,-7 4,-10 0,-9 -8,-16 -16,-16 -8,0 -45,44 -109,44 -16,0 -53,0 -53,-67 0,-62 30,-97 30,-100 0,-4 -4,-7 -8,-7 -13,0 -98,130 -98,204 0,41 27,42 40,42 33,0 78,-13 119,-31 L 4,53 C -3,62 -6,70 -6,78 Z"
       fill="currentColor"
       id="path20" />
  </g>
  <g
     transform="translate(60.5733,4.6988)"
     id="g22">
    <line
       stroke-linejoin="round"
       stroke-linecap="round"
       stroke-width="0.16"
       stroke="currentColor"
       x1="5.3383002"
       y1="0.1294"
       x2="5.3383002"
       y2="0.8294"
       id="line21" />
  </g>
  <g
     transform="translate(60.5733,4.6988)"
     id="g23">
    <line
       stroke-linejoin="round"
       stroke-linecap="round"
       stroke-width="0.16"
       stroke="currentColor"
       x1="-0.1999"
       y1="-0.0048000002"
       x2="-0.1999"
       y2="0.69520003"
       id="line22" />
  </g>
  <g
     transform="translate(60.5733,4.6988)"
     id="g24">
    <line
       stroke-linejoin="round"
       stroke-linecap="round"
       stroke-width="0.16"
       stroke="currentColor"
       x1="5.3383002"
       y1="0.1294"
       x2="3.6127999"
       y2="0.087499999"
       id="line23" />
  </g>
  <g
     transform="translate(60.5733,4.6988)"
     id="g25">
    <line
       stroke-linejoin="round"
       stroke-linecap="round"
       stroke-width="0.16"
       stroke="currentColor"
       x1="-0.1999"
       y1="-0.0048000002"
       x2="1.7256"
       y2="0.0418"
       id="line24" />
  </g>
  <g
     transform="translate(20.8389,7.0388)"
     id="g26">
    <path
       transform="scale(0.004,-0.004)"
       d="m 70,205 c 79,0 46,-98 91,-98 16,0 54,48 61,63 3,6 8,9 14,9 6,0 12,-3 14,-9 L 127,-250 c -8,-7 -17,-10 -27,-10 -10,0 -20,3 -28,10 L 189,76 C 155,64 120,54 84,54 26,54 -1,95 -1,134 c 0,36 24,71 71,71 z"
       fill="currentColor"
       id="path25" />
  </g>
  <g
     transform="translate(42.9487,4.0388)"
     id="g27">
    <polygon
       stroke-linejoin="round"
       stroke-linecap="round"
       stroke-width="0.08"
       fill="currentColor"
       stroke="currentColor"
       points="0.04,0.2 0.04,-0.2 4.4962,-0.01 4.4962,0.39 "
       id="polygon26" />
  </g>
  <g
     transform="translate(24.9409,5.5388)"
     id="g28">
    <path
       transform="scale(0.004,-0.004)"
       d="M 0,-46 C 0,45 116,136 217,136 280,136 326,101 326,46 326,-41 216,-136 106,-136 39,-136 0,-97 0,-46 Z"
       fill="currentColor"
       id="path27" />
  </g>
  <g
     transform="translate(25.0059,7.0388)"
     id="g29">
    <rect
       x="-0.064999998"
       y="-1.3138"
       width="0.13"
       height="3.1275001"
       ry="0.039999999"
       fill="currentColor"
       id="rect28" />
  </g>
  <g
     transform="translate(23.7909,5.5388)"
     id="g30">
    <path
       transform="scale(0.004,-0.004)"
       d="m 27,41 -1,-66 v -11 c 0,-22 1,-44 4,-66 45,38 93,80 93,139 0,33 -14,67 -43,67 C 49,104 28,74 27,41 Z m -42,-179 -12,595 c 8,5 18,8 27,8 9,0 19,-3 27,-8 L 20,112 c 25,21 58,34 91,34 52,0 89,-48 89,-102 0,-80 -86,-117 -147,-169 -15,-13 -24,-38 -45,-38 -13,0 -23,11 -23,25 z"
       fill="currentColor"
       id="path29" />
  </g>
  <g
     transform="translate(33.2122,9.2288)"
     id="g31">
    <polygon
       stroke-linejoin="round"
       stroke-linecap="round"
       stroke-width="0.08"
       fill="currentColor"
       stroke="currentColor"
       points="0.04,0.2 0.04,-0.2 4.2462,0.61 4.2462,1.01 "
       id="polygon30" />
  </g>
  <g
     transform="translate(28.147,6.0388)"
     id="g32">
    <path
       transform="scale(0.004,-0.004)"
       d="M 0,-46 C 0,45 116,136 217,136 280,136 326,101 326,46 326,-41 216,-136 106,-136 39,-136 0,-97 0,-46 Z"
       fill="currentColor"
       id="path31" />
  </g>
  <g
     transform="translate(28.212,7.0388)"
     id="g33">
    <rect
       x="-0.064999998"
       y="-0.81379998"
       width="0.13"
       height="2.8101001"
       ry="0.039999999"
       fill="currentColor"
       id="rect32" />
  </g>
  <g
     transform="translate(24.9409,8.0388)"
     id="g34">
    <polygon
       stroke-linejoin="round"
       stroke-linecap="round"
       stroke-width="0.08"
       fill="currentColor"
       stroke="currentColor"
       points="0.04,0.2 0.04,-0.2 3.2962,-0.01 3.2962,0.39 "
       id="polygon33" />
  </g>
  <g
     transform="translate(24.9409,8.8488)"
     id="g35">
    <polygon
       stroke-linejoin="round"
       stroke-linecap="round"
       stroke-width="0.08"
       fill="currentColor"
       stroke="currentColor"
       points="0.04,0.2 0.04,-0.2 3.2962,-0.01 3.2962,0.39 "
       id="polygon34" />
  </g>
  <g
     transform="translate(33.2122,2.0388)"
     id="g36">
    <text
       font-family="'New Computer Modern Math'"
       font-size="2.3308px"
       text-anchor="start"
       fill="currentColor"
       id="text35"><tspan
         id="tspan35">E</tspan></text>
  </g>
  <g
     transform="translate(35,1.7556)"
     id="g37">
    <path
       transform="scale(0.0038,-0.0038)"
       d="m 29,39 -2,-64 v -11 c 0,-22 2,-43 5,-65 44,38 91,80 91,138 0,33 -13,66 -42,66 C 50,103 30,72 29,39 Z m -57,415 c 9,5 18,8 28,8 10,0 19,-3 28,-8 L 21,111 c 25,23 58,36 92,36 51,0 87,-49 87,-103 0,-79 -84,-117 -144,-169 -16,-14 -25,-41 -47,-41 -14,0 -25,13 -25,27 z"
       fill="currentColor"
       id="path36" />
  </g>
  <g
     transform="translate(35.7551,2.8334)"
     id="g38">
    <text
       font-family="'New Computer Modern Math'"
       font-size="1.648px"
       text-anchor="start"
       fill="currentColor"
       id="text37"><tspan
         id="tspan37">7</tspan></text>
  </g>
  <g
     transform="translate(33.2122,6.0388)"
     id="g39">
    <path
       transform="scale(0.004,-0.004)"
       d="M 0,-46 C 0,45 116,136 217,136 280,136 326,101 326,46 326,-41 216,-136 106,-136 39,-136 0,-97 0,-46 Z"
       fill="currentColor"
       id="path38" />
  </g>
  <g
     transform="translate(33.2772,7.0388)"
     id="g40">
    <rect
       x="-0.064999998"
       y="-0.81379998"
       width="0.13"
       height="3.0160999"
       ry="0.039999999"
       fill="currentColor"
       id="rect39" />
  </g>
  <g
     transform="translate(32.0622,6.0388)"
     id="g41">
    <path
       transform="scale(0.004,-0.004)"
       d="m 27,41 -1,-66 v -11 c 0,-22 1,-44 4,-66 45,38 93,80 93,139 0,33 -14,67 -43,67 C 49,104 28,74 27,41 Z m -42,-179 -12,595 c 8,5 18,8 27,8 9,0 19,-3 27,-8 L 20,112 c 25,21 58,34 91,34 52,0 89,-48 89,-102 0,-80 -86,-117 -147,-169 -15,-13 -24,-38 -45,-38 -13,0 -23,11 -23,25 z"
       fill="currentColor"
       id="path40" />
  </g>
  <g
     transform="translate(37.3684,7.5388)"
     id="g42">
    <path
       transform="scale(0.004,-0.004)"
       d="M 0,-46 C 0,45 116,136 217,136 280,136 326,101 326,46 326,-41 216,-136 106,-136 39,-136 0,-97 0,-46 Z"
       fill="currentColor"
       id="path41" />
  </g>
  <g
     transform="translate(37.4334,7.0388)"
     id="g43">
    <rect
       x="-0.064999998"
       y="0.68620002"
       width="0.13"
       height="2.3015001"
       ry="0.039999999"
       fill="currentColor"
       id="rect42" />
  </g>
  <g
     transform="translate(41.7745,7.0388)"
     id="g44">
    <path
       transform="scale(0.004,-0.004)"
       d="M 0,-46 C 0,45 116,136 217,136 280,136 326,101 326,46 326,-41 216,-136 106,-136 39,-136 0,-97 0,-46 Z"
       fill="currentColor"
       id="path43" />
  </g>
  <g
     transform="translate(43.0137,7.0388)"
     id="g45">
    <rect
       x="-0.064999998"
       y="-2.9972999"
       width="0.13"
       height="2.8111"
       ry="0.039999999"
       fill="currentColor"
       id="rect44" />
  </g>
  <g
     transform="translate(40.6245,7.0388)"
     id="g46">
    <path
       transform="scale(0.004,-0.004)"
       d="m 27,41 -1,-66 v -11 c 0,-22 1,-44 4,-66 45,38 93,80 93,139 0,33 -14,67 -43,67 C 49,104 28,74 27,41 Z m -42,-179 -12,595 c 8,5 18,8 27,8 9,0 19,-3 27,-8 L 20,112 c 25,21 58,34 91,34 52,0 89,-48 89,-102 0,-80 -86,-117 -147,-169 -15,-13 -24,-38 -45,-38 -13,0 -23,11 -23,25 z"
       fill="currentColor"
       id="path45" />
  </g>
  <g
     transform="translate(46.1807,7.5388)"
     id="g47">
    <path
       transform="scale(0.004,-0.004)"
       d="M 0,-46 C 0,45 116,136 217,136 280,136 326,101 326,46 326,-41 216,-136 106,-136 39,-136 0,-97 0,-46 Z"
       fill="currentColor"
       id="path46" />
  </g>
  <g
     transform="translate(47.4199,7.0388)"
     id="g48">
    <rect
       x="-0.064999998"
       y="-2.8127"
       width="0.13"
       height="3.1264999"
       ry="0.039999999"
       fill="currentColor"
       id="rect47" />
  </g>
  <g
     transform="translate(45.0307,7.5388)"
     id="g49">
    <path
       transform="scale(0.004,-0.004)"
       d="m 27,41 -1,-66 v -11 c 0,-22 1,-44 4,-66 45,38 93,80 93,139 0,33 -14,67 -43,67 C 49,104 28,74 27,41 Z m -42,-179 -12,595 c 8,5 18,8 27,8 9,0 19,-3 27,-8 L 20,112 c 25,21 58,34 91,34 52,0 89,-48 89,-102 0,-80 -86,-117 -147,-169 -15,-13 -24,-38 -45,-38 -13,0 -23,11 -23,25 z"
       fill="currentColor"
       id="path48" />
  </g>
  <g
     transform="translate(50.5868,8.0388)"
     id="g50">
    <path
       transform="scale(0.004,-0.004)"
       d="M 0,-46 C 0,45 116,136 217,136 280,136 326,101 326,46 326,-41 216,-136 106,-136 39,-136 0,-97 0,-46 Z"
       fill="currentColor"
       id="path49" />
  </g>
  <g
     transform="translate(51.826,7.0388)"
     id="g51">
    <rect
       x="-0.064999998"
       y="-1.9973"
       width="0.13"
       height="2.8111"
       ry="0.039999999"
       fill="currentColor"
       id="rect50" />
  </g>
  <g
     transform="translate(54.993,8.5388)"
     id="g52">
    <path
       transform="scale(0.004,-0.004)"
       d="M 0,-46 C 0,45 116,136 217,136 280,136 326,101 326,46 326,-41 216,-136 106,-136 39,-136 0,-97 0,-46 Z"
       fill="currentColor"
       id="path51" />
  </g>
  <g
     transform="translate(56.2322,7.0388)"
     id="g53">
    <rect
       x="-0.064999998"
       y="-1.8127"
       width="0.13"
       height="3.1264999"
       ry="0.039999999"
       fill="currentColor"
       id="rect52" />
  </g>
  <g
     transform="translate(59.3991,9.0388)"
     id="g54">
    <path
       transform="scale(0.004,-0.004)"
       d="M 0,-46 C 0,45 116,136 217,136 280,136 326,101 326,46 326,-41 216,-136 106,-136 39,-136 0,-97 0,-46 Z"
       fill="currentColor"
       id="path53" />
  </g>
  <g
     transform="translate(60.6383,7.0388)"
     id="g55">
    <rect
       x="-0.064999998"
       y="-0.99839997"
       width="0.13"
       height="2.8122001"
       ry="0.039999999"
       fill="currentColor"
       id="rect54" />
  </g>
  <g
     transform="translate(61.9033,8.5388)"
     id="g56">
    <path
       transform="scale(0.004,-0.004)"
       d="M 0,-46 C 0,45 116,136 217,136 280,136 326,101 326,46 326,-41 216,-136 106,-136 39,-136 0,-97 0,-46 Z"
       fill="currentColor"
       id="path55" />
  </g>
  <g
     transform="translate(63.1425,7.0388)"
     id="g57">
    <rect
       x="-0.064999998"
       y="-0.93610001"
       width="0.13"
       height="2.2499001"
       ry="0.039999999"
       fill="currentColor"
       id="rect56" />
  </g>
  <g
     transform="translate(64.4075,9.0388)"
     id="g58">
    <path
       transform="scale(0.004,-0.004)"
       d="M 0,-46 C 0,45 116,136 217,136 280,136 326,101 326,46 326,-41 216,-136 106,-136 39,-136 0,-97 0,-46 Z"
       fill="currentColor"
       id="path57" />
  </g>
  <g
     transform="translate(65.6467,7.0388)"
     id="g59">
    <rect
       x="-0.064999998"
       y="-0.8739"
       width="0.13"
       height="2.6877"
       ry="0.039999999"
       fill="currentColor"
       id="rect58" />
  </g>
  <g
     transform="translate(66.9117,9.5388)"
     id="g60">
    <path
       transform="scale(0.004,-0.004)"
       d="M 0,-46 C 0,45 116,136 217,136 280,136 326,101 326,46 326,-41 216,-136 106,-136 39,-136 0,-97 0,-46 Z"
       fill="currentColor"
       id="path59" />
  </g>
  <g
     transform="translate(68.1509,7.0388)"
     id="g61">
    <rect
       x="-0.064999998"
       y="-0.81160003"
       width="0.13"
       height="3.1254001"
       ry="0.039999999"
       fill="currentColor"
       id="rect60" />
  </g>
  <g
     transform="translate(73.6279,2.0388)"
     id="g62">
    <text
       font-family="'New Computer Modern Math'"
       font-size="2.3308px"
       text-anchor="start"
       fill="currentColor"
       id="text61"><tspan
         id="tspan61">A</tspan></text>
  </g>
  <g
     transform="translate(75.5864,1.7556)"
     id="g63">
    <path
       transform="scale(0.0038,-0.0038)"
       d="m 29,39 -2,-64 v -11 c 0,-22 2,-43 5,-65 44,38 91,80 91,138 0,33 -13,66 -42,66 C 50,103 30,72 29,39 Z m -57,415 c 9,5 18,8 28,8 10,0 19,-3 28,-8 L 21,111 c 25,23 58,36 92,36 51,0 87,-49 87,-103 0,-79 -84,-117 -144,-169 -16,-14 -25,-41 -47,-41 -14,0 -25,13 -25,27 z"
       fill="currentColor"
       id="path62" />
  </g>
  <g
     transform="translate(76.3415,2.8334)"
     id="g64">
    <text
       font-family="'New Computer Modern Math'"
       font-size="1.648px"
       text-anchor="start"
       fill="currentColor"
       id="text63"><tspan
         id="tspan63">△</tspan></text>
  </g>
  <g
     transform="translate(77.9462,2.8334)"
     id="g65">
    <text
       font-family="'New Computer Modern Math'"
       font-size="1.648px"
       text-anchor="start"
       fill="currentColor"
       id="text64"><tspan
         id="tspan64">7</tspan></text>
  </g>
  <g
     transform="translate(73.6279,9.0388)"
     id="g66">
    <path
       transform="scale(0.004,-0.004)"
       d="M 0,-46 C 0,45 116,136 217,136 280,136 326,101 326,46 326,-41 216,-136 106,-136 39,-136 0,-97 0,-46 Z"
       fill="currentColor"
       id="path65" />
  </g>
  <g
     transform="translate(74.8671,7.0388)"
     id="g67">
    <rect
       x="-0.064999998"
       y="-1.5"
       width="0.13"
       height="3.3138001"
       ry="0.039999999"
       fill="currentColor"
       id="rect66" />
  </g>
  <g
     transform="translate(72.4779,9.0388)"
     id="g68">
    <path
       transform="scale(0.004,-0.004)"
       d="m 27,41 -1,-66 v -11 c 0,-22 1,-44 4,-66 45,38 93,80 93,139 0,33 -14,67 -43,67 C 49,104 28,74 27,41 Z m -42,-179 -12,595 c 8,5 18,8 27,8 9,0 19,-3 27,-8 L 20,112 c 25,21 58,34 91,34 52,0 89,-48 89,-102 0,-80 -86,-117 -147,-169 -15,-13 -24,-38 -45,-38 -13,0 -23,11 -23,25 z"
       fill="currentColor"
       id="path67" />
  </g>
  <g
     transform="translate(79.2341,7.0388)"
     id="g69">
    <path
       transform="scale(0.004,-0.004)"
       d="m -6,78 c 0,59 124,83 124,182 0,24 -8,49 -25,69 l -35,42 c -3,3 -4,7 -4,10 0,9 9,15 17,15 4,0 8,-1 11,-5 L 233,211 c 7,-9 10,-17 10,-25 0,-59 -124,-83 -124,-182 0,-24 7,-49 24,-69 l 84,-99 c 3,-3 4,-7 4,-10 0,-9 -8,-16 -16,-16 -8,0 -45,44 -109,44 -16,0 -53,0 -53,-67 0,-62 30,-97 30,-100 0,-4 -4,-7 -8,-7 -13,0 -98,130 -98,204 0,41 27,42 40,42 33,0 78,-13 119,-31 L 4,53 C -3,62 -6,70 -6,78 Z"
       fill="currentColor"
       id="path68" />
  </g>
  <g
     transform="translate(84.486,7.0388)"
     id="g70">
    <path
       transform="scale(0.004,-0.004)"
       d="M 365,0 H 10 C 4,0 0,4 0,10 v 136 c 0,6 4,10 10,10 h 355 c 6,0 10,-4 10,-10 V 10 C 375,4 371,0 365,0 Z"
       fill="currentColor"
       id="path69" />
  </g>
</svg>
