<?xml version="1.0" encoding="UTF-8" standalone="no"?>
<svg
   version="1.2"
   width="124.31782mm"
   height="17.894949mm"
   viewBox="0 0 70.743705 10.183214"
   id="svg81"
   sodipodi:docname="fig_062.svg"
   xmlns:inkscape="http://www.inkscape.org/namespaces/inkscape"
   xmlns:sodipodi="http://sodipodi.sourceforge.net/DTD/sodipodi-0.dtd"
   xmlns="http://www.w3.org/2000/svg"
   xmlns:svg="http://www.w3.org/2000/svg">
  <defs
     id="defs81" />
  <sodipodi:namedview
     id="namedview81"
     pagecolor="#505050"
     bordercolor="#eeeeee"
     borderopacity="1"
     inkscape:showpageshadow="0"
     inkscape:pageopacity="0"
     inkscape:pagecheckerboard="0"
     inkscape:deskcolor="#505050"
     inkscape:document-units="mm" />
  <style
     type="text/css"
     id="style1"><![CDATA[
tspan { white-space: pre; }
]]></style>
  <g
     transform="translate(70.5537,6.643214)"
     id="g1">
    <path
       id="rect1"
       style="fill:currentColor"
       d="M 0,-2 H 0.19 V 2 H 0 Z" />
  </g>
  <g
     transform="translate(70.0637,6.643214)"
     id="g2">
    <path
       id="rect2"
       style="fill:currentColor"
       d="M 0,-2 H 0.19 V 2 H 0 Z" />
  </g>
  <g
     transform="translate(0,3.643214)"
     id="g3">
    <path
       id="rect3"
       style="fill:currentColor"
       d="m 35.538099,-0.1 h 1.7563 c 0.0554,0 0.1,0.0446 0.1,0.1 0,0.0554 -0.0446,0.1 -0.1,0.1 h -1.7563 c -0.0554,0 -0.1,-0.0446 -0.1,-0.1 0,-0.0554 0.0446,-0.1 0.1,-0.1 z" />
  </g>
  <g
     transform="translate(0,3.643214)"
     id="g4">
    <path
       id="rect4"
       style="fill:currentColor"
       d="m 33.1849,-0.1 h 1.6053 c 0.0554,0 0.1,0.0446 0.1,0.1 0,0.0554 -0.0446,0.1 -0.1,0.1 h -1.6053 c -0.0554,0 -0.1,-0.0446 -0.1,-0.1 0,-0.0554 0.0446,-0.1 0.1,-0.1 z" />
  </g>
  <g
     transform="translate(0,3.643214)"
     id="g5">
    <path
       id="rect5"
       style="fill:currentColor"
       d="m 28.612501,-0.1 h 1.7563 c 0.0554,0 0.1,0.0446 0.1,0.1 0,0.0554 -0.0446,0.1 -0.1,0.1 h -1.7563 c -0.0554,0 -0.1,-0.0446 -0.1,-0.1 0,-0.0554 0.0446,-0.1 0.1,-0.1 z" />
  </g>
  <g
     transform="translate(0,2.643214)"
     id="g6">
    <path
       id="rect6"
       style="fill:currentColor"
       d="m 26.108301,-0.1 h 1.7563 c 0.0554,0 0.1,0.0446 0.1,0.1 0,0.0554 -0.0446,0.1 -0.1,0.1 h -1.7563 c -0.0554,0 -0.1,-0.0446 -0.1,-0.1 0,-0.0554 0.0446,-0.1 0.1,-0.1 z" />
  </g>
  <g
     transform="translate(0,3.643214)"
     id="g7">
    <path
       id="rect7"
       style="fill:currentColor"
       d="m 26.108301,-0.1 h 1.7563 c 0.0554,0 0.1,0.0446 0.1,0.1 0,0.0554 -0.0446,0.1 -0.1,0.1 h -1.7563 c -0.0554,0 -0.1,-0.0446 -0.1,-0.1 0,-0.0554 0.0446,-0.1 0.1,-0.1 z" />
  </g>
  <g
     transform="translate(0,3.643214)"
     id="g8">
    <path
       id="rect8"
       style="fill:currentColor"
       d="m 23.7541,-0.1 h 1.7563 c 0.0554,0 0.1,0.0446 0.1,0.1 0,0.0554 -0.0446,0.1 -0.1,0.1 h -1.7563 c -0.0554,0 -0.1,-0.0446 -0.1,-0.1 0,-0.0554 0.0446,-0.1 0.1,-0.1 z" />
  </g>
  <g
     transform="translate(0,8.643214)"
     id="g9">
    <path
       id="line8"
       style="stroke:currentColor;stroke-width:0.1;stroke-linecap:round;stroke-linejoin:round"
       d="M 0.05,0 H 70.693703" />
  </g>
  <g
     transform="translate(0,7.643214)"
     id="g10">
    <path
       id="line9"
       style="stroke:currentColor;stroke-width:0.1;stroke-linecap:round;stroke-linejoin:round"
       d="M 0.05,0 H 70.693703" />
  </g>
  <g
     transform="translate(0,6.643214)"
     id="g11">
    <path
       id="line10"
       style="stroke:currentColor;stroke-width:0.1;stroke-linecap:round;stroke-linejoin:round"
       d="M 0.05,0 H 70.693703" />
  </g>
  <g
     transform="translate(0,5.643214)"
     id="g12">
    <path
       id="line11"
       style="stroke:currentColor;stroke-width:0.1;stroke-linecap:round;stroke-linejoin:round"
       d="M 0.05,0 H 70.693703" />
  </g>
  <g
     transform="translate(0,4.643214)"
     id="g13">
    <path
       id="line12"
       style="stroke:currentColor;stroke-width:0.1;stroke-linecap:round;stroke-linejoin:round"
       d="M 0.05,0 H 70.693703" />
  </g>
  <g
     transform="translate(53.834,6.643214)"
     id="g14">
    <path
       id="rect13"
       style="fill:currentColor"
       d="M 0,-2 H 0.19 V 2 H 0 Z" />
  </g>
  <g
     transform="translate(31.2,6.643214)"
     id="g15">
    <path
       id="rect14"
       style="fill:currentColor"
       d="M 0,-2 H 0.19 V 2 H 0 Z" />
  </g>
  <g
     transform="translate(61.2706,4.833214)"
     id="g16">
    <path
       id="polygon15"
       style="fill:currentColor;stroke:currentColor;stroke-width:0.08;stroke-linecap:round;stroke-linejoin:round"
       d="m 2.3442,0.42 v 0.4 L 0.04,0.2 v -0.4 z" />
  </g>
  <g
     transform="translate(54.9991,9.453214)"
     id="g17">
    <path
       id="polygon16"
       style="fill:currentColor;stroke:currentColor;stroke-width:0.08;stroke-linecap:round;stroke-linejoin:round"
       d="m 2.8442,-0.82 v 0.4 L 0.04,0.2 v -0.4 z" />
  </g>
  <g
     transform="translate(8.585,1.643214)"
     id="g18">
    <path
       style="font-size:2.3308px;font-family:'NewComputerModern Math';white-space:pre"
       d="m 1.713138,-0.56405361 v -0.0722548 l -0.2843576,0.006992 c -0.093232,0 -0.29135,0 -0.3752588,-0.006992 v 0.0722548 h 0.074586 c 0.209772,0 0.2167644,0.0256388 0.2167644,0.1118784 v 0.1491712 c 0,0.26104961 -0.2960116,0.28202681 -0.36127398,0.28202681 -0.151502,0 -0.61300041,-0.081578 -0.61300041,-0.77615642 0,-0.69690918 0.45916761,-0.77382558 0.59901561,-0.77382558 0.24939558,0 0.46149838,0.209772 0.50811438,0.5523996 0.00466,0.0326312 0.00466,0.0396236 0.037293,0.0396236 0.037293,0 0.037293,-0.006992 0.037293,-0.0559392 v -0.5523996 c 0,-0.039624 0,-0.055939 -0.025639,-0.055939 -0.00932,0 -0.018646,0 -0.037293,0.02797 l -0.11654,0.1724792 C 1.2982556,-1.5173508 1.1723924,-1.643214 0.94164322,-1.643214 c -0.43352881,0 -0.81111842,0.3682664 -0.81111842,0.84608038 0,0.47781401 0.37292801,0.84841122 0.81578002,0.84841122 0.17014838,0 0.35661238,-0.0606008 0.43585958,-0.198118 0.0303,0.0512776 0.1235324,0.1445096 0.1491712,0.1445096 0.020977,0 0.020977,-0.0186464 0.020977,-0.0536084 v -0.40555921 c 0,-0.0909012 0.00932,-0.1025552 0.1608254,-0.1025552 z"
       id="text17"
       aria-label="G" />
  </g>
  <g
     transform="translate(10.4288,2.437814)"
     id="g19">
    <path
       style="font-size:1.648px;font-family:'NewComputerModern Math';white-space:pre"
       d="m 1.189856,-0.412 c 0,-0.018128 -0.014832,-0.03296 -0.03296,-0.03296 H 0.125248 c -0.018128,0 -0.03296,0.014832 -0.03296,0.03296 0,0.018128 0.014832,0.03296 0.03296,0.03296 h 1.031648 c 0.018128,0 0.03296,-0.014832 0.03296,-0.03296 z"
       id="text18"
       aria-label="−" />
  </g>
  <g
     transform="translate(11.7262,2.437814)"
     id="g20">
    <path
       style="font-size:1.648px;font-family:'NewComputerModern Math';white-space:pre"
       d="M 0.79928,-1.061312 H 0.398816 c -0.201056,0 -0.204352,-0.021424 -0.210944,-0.052736 h -0.0412 L 0.092288,-0.77456 h 0.0412 c 0.004944,-0.026368 0.019776,-0.130192 0.0412,-0.149968 0.011536,-0.009888 0.14008,-0.009888 0.161504,-0.009888 h 0.341136 l -0.184576,0.260384 c -0.14832,0.22248 -0.202704,0.451552 -0.202704,0.619648 0,0.01648 0,0.09064 0.075808,0.09064 0.075808,0 0.075808,-0.07416 0.075808,-0.09064 v -0.084048 c 0,-0.09064 0.004944,-0.18128 0.018128,-0.270272 0.006592,-0.037904 0.029664,-0.179632 0.102176,-0.281808 l 0.22248,-0.31312 C 0.79928,-1.023408 0.79928,-1.026704 0.79928,-1.061312 Z"
       id="text19"
       aria-label="7" />
  </g>
  <g
     transform="translate(8.585,7.643214)"
     id="g21">
    <path
       transform="scale(0.004,-0.004)"
       d="M 0,-46 C 0,45 116,136 217,136 280,136 326,101 326,46 326,-41 216,-136 106,-136 39,-136 0,-97 0,-46 Z"
       fill="currentColor"
       id="path20" />
  </g>
  <g
     transform="translate(0.8,7.643214)"
     id="g22">
    <path
       transform="scale(0.004,-0.004)"
       d="m 266,-635 h -6 c -108,0 -195,88 -195,197 0,58 53,103 112,103 54,0 95,-47 95,-103 0,-52 -43,-95 -95,-95 -11,0 -21,2 -31,6 26,-39 68,-65 117,-65 h 4 z m 135,786 c 19,-89 48,-242 60,-354 76,27 112,94 112,163 0,89 -60,179 -172,191 z M 74,28 c 0,-112 98,-247 278,-247 21,0 44,2 68,6 -7,64 -29,203 -63,364 -79,-8 -124,-61 -124,-119 0,-44 25,-91 81,-123 5,-5 7,-10 7,-15 0,-11 -10,-22 -22,-22 -15,0 -126,62 -126,187 0,88 58,174 160,197 -14,58 -29,117 -46,175 C 180,310 74,188 74,28 Z m 283,1166 c 28,0 143,-206 143,-361 0,-143 -86,-255 -180,-364 21,-68 39,-138 56,-207 5,0 10,1 14,1 155,0 255,-129 255,-262 0,-113 -74,-212 -180,-245 3,-35 5,-70 5,-105 0,-19 -1,-39 -2,-58 -7,-119 -88,-225 -202,-228 l 1,43 c 93,2 153,92 159,191 1,18 2,37 2,55 0,31 -1,61 -4,92 -28,-5 -55,-8 -80,-8 -239,0 -342,217 -342,374 0,177 131,306 248,441 -29,96 -52,170 -52,346 0,189 144,295 159,295 z M 247,782 c 0,-55 12,-115 35,-190 83,100 147,202 147,326 0,40 -6,82 -21,127 -49,-24 -161,-97 -161,-263 z"
       fill="currentColor"
       id="path21" />
  </g>
  <g
     transform="translate(4.885,6.643214)"
     id="g23">
    <path
       transform="scale(0.004,-0.004)"
       d="M 433,-89 C 433,-111 383,-263 250,-263 191,-263 0,-244 0,0 0,62 18,262 250,262 366,262 426,156 426,99 426,59 396,27 359,27 c -31,0 -75,25 -75,75 0,38 27,77 72,77 4,0 9,0 14,-1 -28,37 -72,59 -120,59 C 144,237 137,164 137,51 V 0 -51 c 0,-113 7,-187 113,-187 80,0 139,70 158,151 2,7 7,10 12,10 6,0 13,-4 13,-12 z"
       fill="currentColor"
       id="path22" />
  </g>
  <g
     transform="translate(9.8242,6.643214)"
     id="g24">
    <path
       id="rect23"
       style="fill:currentColor"
       d="m -0.025,-2.0046999 h 0.05 c 0.02216,0 0.04,0.01784 0.04,0.04 v 2.7385 c 0,0.02216 -0.01784,0.04 -0.04,0.04 h -0.05 c -0.02216,0 -0.04,-0.01784 -0.04,-0.04 v -2.7385 c 0,-0.02216 0.01784,-0.04 0.04,-0.04 z" />
  </g>
  <g
     transform="translate(48.2852,9.453214)"
     id="g25">
    <path
       id="polygon24"
       style="fill:currentColor;stroke:currentColor;stroke-width:0.08;stroke-linecap:round;stroke-linejoin:round"
       d="m 3.2642,-0.01 v 0.4 L 0.04,0.2 v -0.4 z" />
  </g>
  <g
     transform="translate(11.0892,7.143214)"
     id="g26">
    <path
       transform="scale(0.004,-0.004)"
       d="M 0,-46 C 0,45 116,136 217,136 280,136 326,101 326,46 326,-41 216,-136 106,-136 39,-136 0,-97 0,-46 Z"
       fill="currentColor"
       id="path25" />
  </g>
  <g
     transform="translate(12.3284,6.643214)"
     id="g27">
    <path
       id="rect26"
       style="fill:currentColor"
       d="m -0.025,-2.1853001 h 0.05 c 0.02216,0 0.04,0.01784 0.04,0.04 v 2.41909996 c 0,0.02216 -0.01784,0.04 -0.04,0.04 h -0.05 c -0.02216,0 -0.04,-0.01784 -0.04,-0.04 V -2.1453001 c 0,-0.02216 0.01784,-0.04 0.04,-0.04 z" />
  </g>
  <g
     transform="translate(43.2768,8.453214)"
     id="g28">
    <path
       id="polygon27"
       style="fill:currentColor;stroke:currentColor;stroke-width:0.08;stroke-linecap:round;stroke-linejoin:round"
       d="m 2.5942,-0.01 v 0.4 L 0.04,0.2 v -0.4 z" />
  </g>
  <g
     transform="translate(14.2634,6.643214)"
     id="g29">
    <path
       transform="scale(0.004,-0.004)"
       d="M 0,-46 C 0,45 116,136 217,136 280,136 326,101 326,46 326,-41 216,-136 106,-136 39,-136 0,-97 0,-46 Z"
       fill="currentColor"
       id="path28" />
  </g>
  <g
     transform="translate(14.3284,6.643214)"
     id="g30">
    <path
       id="rect29"
       style="fill:currentColor"
       d="m -0.025,0.18619999 h 0.05 c 0.02216,0 0.04,0.01784 0.04,0.04 V 2.9552999 c 0,0.02216 -0.01784,0.04 -0.04,0.04 h -0.05 c -0.02216,0 -0.04,-0.01784 -0.04,-0.04 V 0.22619999 c 0,-0.02216 0.01784,-0.04 0.04,-0.04 z" />
  </g>
  <g
     transform="translate(13.1134,6.643214)"
     id="g31">
    <path
       transform="scale(0.004,-0.004)"
       d="m 27,41 -1,-66 v -11 c 0,-22 1,-44 4,-66 45,38 93,80 93,139 0,33 -14,67 -43,67 C 49,104 28,74 27,41 Z m -42,-179 -12,595 c 8,5 18,8 27,8 9,0 19,-3 27,-8 L 20,112 c 25,21 58,34 91,34 52,0 89,-48 89,-102 0,-80 -86,-117 -147,-169 -15,-13 -24,-38 -45,-38 -13,0 -23,11 -23,25 z"
       fill="currentColor"
       id="path30" />
  </g>
  <g
     transform="translate(38.2684,7.453214)"
     id="g32">
    <path
       id="polygon31"
       style="fill:currentColor;stroke:currentColor;stroke-width:0.08;stroke-linecap:round;stroke-linejoin:round"
       d="m 2.5942,-0.01 v 0.4 L 0.04,0.2 v -0.4 z" />
  </g>
  <g
     transform="translate(16.7676,6.143214)"
     id="g33">
    <path
       transform="scale(0.004,-0.004)"
       d="M 0,-46 C 0,45 116,136 217,136 280,136 326,101 326,46 326,-41 216,-136 106,-136 39,-136 0,-97 0,-46 Z"
       fill="currentColor"
       id="path32" />
  </g>
  <g
     transform="translate(16.8326,6.643214)"
     id="g34">
    <path
       id="rect33"
       style="fill:currentColor"
       d="m -0.025,-0.31380001 h 0.05 c 0.02216,0 0.04,0.01784 0.04,0.04 V 2.7747 c 0,0.02216 -0.01784,0.04 -0.04,0.04 h -0.05 c -0.02216,0 -0.04,-0.01784 -0.04,-0.04 v -3.04850001 c 0,-0.02216 0.01784,-0.04 0.04,-0.04 z" />
  </g>
  <g
     transform="translate(33.26,6.643214)"
     id="g35">
    <path
       id="polygon34"
       style="fill:currentColor;stroke:currentColor;stroke-width:0.08;stroke-linecap:round;stroke-linejoin:round"
       d="m 2.5942,-0.01 v 0.4 L 0.04,0.2 v -0.4 z" />
  </g>
  <g
     transform="translate(19.2718,5.643214)"
     id="g36">
    <path
       transform="scale(0.004,-0.004)"
       d="M 0,-46 C 0,45 116,136 217,136 280,136 326,101 326,46 326,-41 216,-136 106,-136 39,-136 0,-97 0,-46 Z"
       fill="currentColor"
       id="path35" />
  </g>
  <g
     transform="translate(19.3368,6.643214)"
     id="g37">
    <path
       id="rect36"
       style="fill:currentColor"
       d="m -0.025,-0.81379998 h 0.05 c 0.02216,0 0.04,0.01784 0.04,0.04 V 1.9440001 c 0,0.02216 -0.01784,0.04 -0.04,0.04 h -0.05 c -0.02216,0 -0.04,-0.01784 -0.04,-0.04 v -2.71780008 c 0,-0.02216 0.01784,-0.04 0.04,-0.04 z" />
  </g>
  <g
     transform="translate(26.3344,6.643214)"
     id="g38">
    <path
       id="polygon37"
       style="fill:currentColor;stroke:currentColor;stroke-width:0.08;stroke-linecap:round;stroke-linejoin:round"
       d="m 2.5942,-0.01 v 0.4 L 0.04,0.2 v -0.4 z" />
  </g>
  <g
     transform="translate(21.626,4.643214)"
     id="g39">
    <path
       transform="scale(0.004,-0.004)"
       d="M 0,-46 C 0,45 116,136 217,136 280,136 326,101 326,46 326,-41 216,-136 106,-136 39,-136 0,-97 0,-46 Z"
       fill="currentColor"
       id="path38" />
  </g>
  <g
     transform="translate(21.691,6.643214)"
     id="g40">
    <path
       id="rect39"
       style="fill:currentColor"
       d="m -0.025,-1.8138 h 0.05 c 0.02216,0 0.04,0.01784 0.04,0.04 v 3.1388001 c 0,0.02216 -0.01784,0.04 -0.04,0.04 h -0.05 c -0.02216,0 -0.04,-0.01784 -0.04,-0.04 V -1.7738 c 0,-0.02216 0.01784,-0.04 0.04,-0.04 z" />
  </g>
  <g
     transform="translate(19.2718,8.643214)"
     id="g41">
    <path
       id="polygon40"
       style="fill:currentColor;stroke:currentColor;stroke-width:0.08;stroke-linecap:round;stroke-linejoin:round"
       d="m 4.7984,-1.39 v 0.4 L 0.04,0.2 v -0.4 z" />
  </g>
  <g
     transform="translate(23.9802,3.643214)"
     id="g42">
    <path
       transform="scale(0.004,-0.004)"
       d="M 0,-46 C 0,45 116,136 217,136 280,136 326,101 326,46 326,-41 216,-136 106,-136 39,-136 0,-97 0,-46 Z"
       fill="currentColor"
       id="path41" />
  </g>
  <g
     transform="translate(24.0452,6.643214)"
     id="g43">
    <path
       id="rect42"
       style="fill:currentColor"
       d="m -0.025,-2.8138001 h 0.05 c 0.02216,0 0.04,0.01784 0.04,0.04 v 3.55980008 c 0,0.02216 -0.01784,0.04 -0.04,0.04 h -0.05 c -0.02216,0 -0.04,-0.01784 -0.04,-0.04 V -2.7738001 c 0,-0.02216 0.01784,-0.04 0.04,-0.04 z" />
  </g>
  <g
     transform="translate(14.2634,9.643214)"
     id="g44">
    <path
       id="polygon43"
       style="fill:currentColor;stroke:currentColor;stroke-width:0.08;stroke-linecap:round;stroke-linejoin:round"
       d="m 2.5942,-0.39 v 0.4 L 0.04,0.2 v -0.4 z" />
  </g>
  <g
     transform="translate(26.3344,2.643214)"
     id="g45">
    <path
       transform="scale(0.004,-0.004)"
       d="M 0,-46 C 0,45 116,136 217,136 280,136 326,101 326,46 326,-41 216,-136 106,-136 39,-136 0,-97 0,-46 Z"
       fill="currentColor"
       id="path44" />
  </g>
  <g
     transform="translate(26.3994,6.643214)"
     id="g46">
    <path
       id="rect45"
       style="fill:currentColor"
       d="m -0.025,-3.8138001 h 0.05 c 0.02216,0 0.04,0.01784 0.04,0.04 v 3.73850005 c 0,0.02216 -0.01784,0.04 -0.04,0.04 h -0.05 c -0.02216,0 -0.04,-0.01784 -0.04,-0.04 V -3.7738001 c 0,-0.02216 0.01784,-0.04 0.04,-0.04 z" />
  </g>
  <g
     transform="translate(21.2472,9.966014)"
     id="g47">
    <path
       style="font-style:italic;font-size:1.7459px;font-family:'NewComputerModern Math';white-space:pre"
       d="m 0.79787632,-0.29854891 c 0,-0.1431638 -0.10999171,-0.279344 -0.29156531,-0.3160079 0.1431638,-0.0471393 0.24442601,-0.16935231 0.24442601,-0.30727841 0,-0.14316378 -0.15363921,-0.24093418 -0.32124561,-0.24093418 -0.1763359,0 -0.30902431,0.104754 -0.30902431,0.23744238 0,0.0576147 0.0384098,0.0907868 0.0890409,0.0907868 0.0541229,0 0.0890409,-0.0384098 0.0890409,-0.0890409 0,-0.087295 -0.0820573,-0.087295 -0.10824581,-0.087295 0.0541229,-0.085549 0.16935231,-0.1082458 0.23220471,-0.1082458 0.0715819,0 0.1676064,0.03841 0.1676064,0.19554074 0,0.0209508 -0.003492,0.122213 -0.0488852,0.19903261 -0.052377,0.0838032 -0.1117376,0.0890409 -0.1553851,0.0907868 -0.0139672,0.001746 -0.0558688,0.005238 -0.0680901,0.005238 -0.0139672,0.001746 -0.0261885,0.003492 -0.0261885,0.0209508 0,0.0192049 0.0122213,0.0192049 0.0419016,0.0192049 h 0.0768196 c 0.1431638,0 0.2077621,0.1187212 0.2077621,0.2898194 0,0.23744241 -0.1204671,0.28807351 -0.1972867,0.28807351 -0.0750737,0 -0.20601621,-0.0296803 -0.26712271,-0.1326884 0.0611065,0.00873 0.11522941,-0.0296803 0.11522941,-0.0960245 0,-0.0628524 -0.0471393,-0.0977704 -0.0977704,-0.0977704 -0.0419016,0 -0.0977704,0.0244426 -0.0977704,0.10126221 0,0.1588769 0.1623687,0.2741063 0.35267181,0.2741063 0.2129998,0 0.37187671,-0.1588769 0.37187671,-0.33695898 z"
       id="text46"
       aria-label="3" />
  </g>
  <g
     transform="translate(28.8386,3.143214)"
     id="g48">
    <path
       transform="scale(0.004,-0.004)"
       d="M 0,-46 C 0,45 116,136 217,136 280,136 326,101 326,46 326,-41 216,-136 106,-136 39,-136 0,-97 0,-46 Z"
       fill="currentColor"
       id="path47" />
  </g>
  <g
     transform="translate(28.9036,6.643214)"
     id="g49">
    <path
       id="rect48"
       style="fill:currentColor"
       d="m -0.025,-3.3138001 h 0.05 c 0.02216,0 0.04,0.01784 0.04,0.04 v 3.41909997 c 0,0.02216 -0.01784,0.04 -0.04,0.04 h -0.05 c -0.02216,0 -0.04,-0.01784 -0.04,-0.04 V -3.2738001 c 0,-0.02216 0.01784,-0.04 0.04,-0.04 z" />
  </g>
  <g
     transform="translate(9.7592,4.643214)"
     id="g50">
    <path
       id="polygon49"
       style="fill:currentColor;stroke:currentColor;stroke-width:0.08;stroke-linecap:round;stroke-linejoin:round"
       d="m 2.5942,-0.39 v 0.4 L 0.04,0.2 v -0.4 z" />
  </g>
  <g
     transform="translate(33.26,1.643214)"
     id="g51">
    <path
       style="font-size:2.3308px;font-family:'NewComputerModern Math';white-space:pre"
       d="m 1.549982,-0.54307641 c 0,-0.023308 0,-0.0396236 -0.0303,-0.0396236 -0.025639,0 -0.025639,0.0139848 -0.02797,0.0372928 -0.018646,0.3333044 -0.268042,0.52443001 -0.52209918,0.52443001 -0.1421788,0 -0.59901561,-0.0792472 -0.59901561,-0.77382562 0,-0.69690918 0.45450601,-0.77615638 0.59668481,-0.77615638 0.25405718,0 0.46149838,0.2121028 0.50811438,0.5523996 0.00466,0.0326312 0.00466,0.0396236 0.037293,0.0396236 0.037293,0 0.037293,-0.006992 0.037293,-0.0559392 v -0.5523996 c 0,-0.039624 0,-0.055939 -0.025639,-0.055939 -0.00932,0 -0.018646,0 -0.037293,0.02797 l -0.11654,0.1724792 C 1.2842708,-1.526674 1.1654,-1.643214 0.94164322,-1.643214 c -0.43585961,0 -0.81111842,0.3705972 -0.81111842,0.84608038 0,0.48247561 0.37758961,0.84841122 0.81111842,0.84841122 0.37992038,0 0.60833878,-0.32398121 0.60833878,-0.59435401 z"
       id="text50"
       aria-label="C" />
  </g>
  <g
     transform="translate(34.933,2.437814)"
     id="g52">
    <path
       style="font-size:1.648px;font-family:'NewComputerModern Math';white-space:pre"
       d="M 0.79928,-1.061312 H 0.398816 c -0.201056,0 -0.204352,-0.021424 -0.210944,-0.052736 h -0.0412 L 0.092288,-0.77456 h 0.0412 c 0.004944,-0.026368 0.019776,-0.130192 0.0412,-0.149968 0.011536,-0.009888 0.14008,-0.009888 0.161504,-0.009888 h 0.341136 l -0.184576,0.260384 c -0.14832,0.22248 -0.202704,0.451552 -0.202704,0.619648 0,0.01648 0,0.09064 0.075808,0.09064 0.075808,0 0.075808,-0.07416 0.075808,-0.09064 v -0.084048 c 0,-0.09064 0.004944,-0.18128 0.018128,-0.270272 0.006592,-0.037904 0.029664,-0.179632 0.102176,-0.281808 l 0.22248,-0.31312 C 0.79928,-1.023408 0.79928,-1.026704 0.79928,-1.061312 Z"
       id="text51"
       aria-label="7" />
  </g>
  <g
     transform="translate(33.26,3.143214)"
     id="g53">
    <path
       transform="scale(0.004,-0.004)"
       d="M 0,-46 C 0,45 116,136 217,136 280,136 326,101 326,46 326,-41 216,-136 106,-136 39,-136 0,-97 0,-46 Z"
       fill="currentColor"
       id="path52" />
  </g>
  <g
     transform="translate(33.325,6.643214)"
     id="g54">
    <path
       id="rect53"
       style="fill:currentColor"
       d="m -0.025,-3.3138001 h 0.05 c 0.02216,0 0.04,0.01784 0.04,0.04 v 3.23850005 c 0,0.02216 -0.01784,0.04 -0.04,0.04 h -0.05 c -0.02216,0 -0.04,-0.01784 -0.04,-0.04 V -3.2738001 c 0,-0.02216 0.01784,-0.04 0.04,-0.04 z" />
  </g>
  <g
     transform="translate(32.11,3.143214)"
     id="g55">
    <path
       transform="scale(0.004,-0.004)"
       d="m 27,41 -1,-66 v -11 c 0,-22 1,-44 4,-66 45,38 93,80 93,139 0,33 -14,67 -43,67 C 49,104 28,74 27,41 Z m -42,-179 -12,595 c 8,5 18,8 27,8 9,0 19,-3 27,-8 L 20,112 c 25,21 58,34 91,34 52,0 89,-48 89,-102 0,-80 -86,-117 -147,-169 -15,-13 -24,-38 -45,-38 -13,0 -23,11 -23,25 z"
       fill="currentColor"
       id="path54" />
  </g>
  <g
     transform="translate(35.7642,3.643214)"
     id="g56">
    <path
       transform="scale(0.004,-0.004)"
       d="M 0,-46 C 0,45 116,136 217,136 280,136 326,101 326,46 326,-41 216,-136 106,-136 39,-136 0,-97 0,-46 Z"
       fill="currentColor"
       id="path55" />
  </g>
  <g
     transform="translate(35.8292,6.643214)"
     id="g57">
    <path
       id="rect56"
       style="fill:currentColor"
       d="m -0.025,-2.8138001 h 0.05 c 0.02216,0 0.04,0.01784 0.04,0.04 v 2.91909997 c 0,0.02216 -0.01784,0.04 -0.04,0.04 h -0.05 c -0.02216,0 -0.04,-0.01784 -0.04,-0.04 V -2.7738001 c 0,-0.02216 0.01784,-0.04 0.04,-0.04 z" />
  </g>
  <g
     transform="translate(38.2684,4.143214)"
     id="g58">
    <path
       transform="scale(0.004,-0.004)"
       d="M 0,-46 C 0,45 116,136 217,136 280,136 326,101 326,46 326,-41 216,-136 106,-136 39,-136 0,-97 0,-46 Z"
       fill="currentColor"
       id="path57" />
  </g>
  <g
     transform="translate(38.3334,6.643214)"
     id="g59">
    <path
       id="rect58"
       style="fill:currentColor"
       d="m -0.025,-2.3138001 h 0.05 c 0.02216,0 0.04,0.01784 0.04,0.04 v 3.04849999 c 0,0.02216 -0.01784,0.04 -0.04,0.04 h -0.05 c -0.02216,0 -0.04,-0.01784 -0.04,-0.04 V -2.2738001 c 0,-0.02216 0.01784,-0.04 0.04,-0.04 z" />
  </g>
  <g
     transform="translate(40.7726,4.643214)"
     id="g60">
    <path
       transform="scale(0.004,-0.004)"
       d="M 0,-46 C 0,45 116,136 217,136 280,136 326,101 326,46 326,-41 216,-136 106,-136 39,-136 0,-97 0,-46 Z"
       fill="currentColor"
       id="path59" />
  </g>
  <g
     transform="translate(40.8376,6.643214)"
     id="g61">
    <path
       id="rect60"
       style="fill:currentColor"
       d="m -0.025,-1.8138 h 0.05 c 0.02216,0 0.04,0.01784 0.04,0.04 v 2.72909994 c 0,0.02216 -0.01784,0.04 -0.04,0.04 h -0.05 c -0.02216,0 -0.04,-0.01784 -0.04,-0.04 V -1.7738 c 0,-0.02216 0.01784,-0.04 0.04,-0.04 z" />
  </g>
  <g
     transform="translate(43.2768,5.143214)"
     id="g62">
    <path
       transform="scale(0.004,-0.004)"
       d="M 0,-46 C 0,45 116,136 217,136 280,136 326,101 326,46 326,-41 216,-136 106,-136 39,-136 0,-97 0,-46 Z"
       fill="currentColor"
       id="path61" />
  </g>
  <g
     transform="translate(43.3418,6.643214)"
     id="g63">
    <path
       id="rect62"
       style="fill:currentColor"
       d="m -0.025,-1.3138 h 0.05 c 0.02216,0 0.04,0.01784 0.04,0.04 v 3.0485 c 0,0.02216 -0.01784,0.04 -0.04,0.04 h -0.05 c -0.02216,0 -0.04,-0.01784 -0.04,-0.04 v -3.0485 c 0,-0.02216 0.01784,-0.04 0.04,-0.04 z" />
  </g>
  <g
     transform="translate(45.781,5.643214)"
     id="g64">
    <path
       transform="scale(0.004,-0.004)"
       d="M 0,-46 C 0,45 116,136 217,136 280,136 326,101 326,46 326,-41 216,-136 106,-136 39,-136 0,-97 0,-46 Z"
       fill="currentColor"
       id="path63" />
  </g>
  <g
     transform="translate(45.846,6.643214)"
     id="g65">
    <path
       id="rect64"
       style="fill:currentColor"
       d="m -0.025,-0.81379998 h 0.05 c 0.02216,0 0.04,0.01784 0.04,0.04 V 1.9552999 c 0,0.02216 -0.01784,0.04 -0.04,0.04 h -0.05 c -0.02216,0 -0.04,-0.01784 -0.04,-0.04 v -2.72909988 c 0,-0.02216 0.01784,-0.04 0.04,-0.04 z" />
  </g>
  <g
     transform="translate(48.2852,6.143214)"
     id="g66">
    <path
       transform="scale(0.004,-0.004)"
       d="M 0,-46 C 0,45 116,136 217,136 280,136 326,101 326,46 326,-41 216,-136 106,-136 39,-136 0,-97 0,-46 Z"
       fill="currentColor"
       id="path65" />
  </g>
  <g
     transform="translate(48.3502,6.643214)"
     id="g67">
    <path
       id="rect66"
       style="fill:currentColor"
       d="m -0.025,-0.31380001 h 0.05 c 0.02216,0 0.04,0.01784 0.04,0.04 V 2.7737001 c 0,0.02216 -0.01784,0.04 -0.04,0.04 h -0.05 c -0.02216,0 -0.04,-0.01784 -0.04,-0.04 v -3.04750011 c 0,-0.02216 0.01784,-0.04 0.04,-0.04 z" />
  </g>
  <g
     transform="translate(51.4594,6.643214)"
     id="g68">
    <path
       transform="scale(0.004,-0.004)"
       d="M 0,-46 C 0,45 116,136 217,136 280,136 326,101 326,46 326,-41 216,-136 106,-136 39,-136 0,-97 0,-46 Z"
       fill="currentColor"
       id="path67" />
  </g>
  <g
     transform="translate(51.5244,6.643214)"
     id="g69">
    <path
       id="rect68"
       style="fill:currentColor"
       d="m -0.025,0.18619999 h 0.05 c 0.02216,0 0.04,0.01784 0.04,0.04 V 2.9563001 c 0,0.02216 -0.01784,0.04 -0.04,0.04 h -0.05 c -0.02216,0 -0.04,-0.01784 -0.04,-0.04 V 0.22619999 c 0,-0.02216 0.01784,-0.04 0.04,-0.04 z" />
  </g>
  <g
     transform="translate(50.3094,6.643214)"
     id="g70">
    <path
       transform="scale(0.004,-0.004)"
       d="m 27,41 -1,-66 v -11 c 0,-22 1,-44 4,-66 45,38 93,80 93,139 0,33 -14,67 -43,67 C 49,104 28,74 27,41 Z m -42,-179 -12,595 c 8,5 18,8 27,8 9,0 19,-3 27,-8 L 20,112 c 25,21 58,34 91,34 52,0 89,-48 89,-102 0,-80 -86,-117 -147,-169 -15,-13 -24,-38 -45,-38 -13,0 -23,11 -23,25 z"
       fill="currentColor"
       id="path69" />
  </g>
  <g
     transform="translate(54.9991,1.643214)"
     id="g71">
    <path
       style="font-size:2.3308px;font-family:'NewComputerModern Math';white-space:pre"
       d="M 1.421788,-1.060514 1.356526,-1.584944 H 0.0769164 v 0.072255 h 0.0559392 c 0.17947161,0 0.18413321,0.025639 0.18413321,0.1095476 v 1.2213392 c 0,0.0839088 -0.004662,0.1095476 -0.18413321,0.1095476 H 0.0769164 V 0 c 0.081578,-0.0069924 0.26338041,-0.0069924 0.35428161,-0.0069924 0.0955628,0 0.30766561,0 0.39157441,0.0069924 v -0.0722548 h -0.0769164 c -0.22142601,0 -0.22142601,-0.0303004 -0.22142601,-0.1118784 v -0.57337682 h 0.20044881 c 0.2237568,0 0.2470648,0.0745856 0.2470648,0.27270361 h 0.05827 V -1.1024684 h -0.05827 c 0,0.19578718 -0.023308,0.27270358 -0.2470648,0.27270358 H 0.52443001 V -1.4194572 c 0,-0.076916 0.004662,-0.093232 0.11420921,-0.093232 h 0.279696 c 0.34961998,0 0.40788998,0.1305248 0.44518278,0.4521752 z"
       id="text70"
       aria-label="F" />
  </g>
  <g
     transform="translate(54.9991,7.143214)"
     id="g72">
    <path
       transform="scale(0.004,-0.004)"
       d="M 0,-46 C 0,45 116,136 217,136 280,136 326,101 326,46 326,-41 216,-136 106,-136 39,-136 0,-97 0,-46 Z"
       fill="currentColor"
       id="path71" />
  </g>
  <g
     transform="translate(55.0641,6.643214)"
     id="g73">
    <path
       id="rect72"
       style="fill:currentColor"
       d="m -0.025,0.68620002 h 0.05 c 0.02216,0 0.04,0.01784 0.04,0.04 V 2.7560001 c 0,0.02216 -0.01784,0.04 -0.04,0.04 h -0.05 c -0.02216,0 -0.04,-0.01784 -0.04,-0.04 V 0.72620002 c 0,-0.02216 0.01784,-0.04 0.04,-0.04 z" />
  </g>
  <g
     transform="translate(57.7533,6.143214)"
     id="g74">
    <path
       transform="scale(0.004,-0.004)"
       d="M 0,-46 C 0,45 116,136 217,136 280,136 326,101 326,46 326,-41 216,-136 106,-136 39,-136 0,-97 0,-46 Z"
       fill="currentColor"
       id="path73" />
  </g>
  <g
     transform="translate(57.8183,6.643214)"
     id="g75">
    <path
       id="rect74"
       style="fill:currentColor"
       d="m -0.025,-0.31380001 h 0.05 c 0.02216,0 0.04,0.01784 0.04,0.04 V 2.1640001 c 0,0.02216 -0.01784,0.04 -0.04,0.04 h -0.05 c -0.02216,0 -0.04,-0.01784 -0.04,-0.04 v -2.43780011 c 0,-0.02216 0.01784,-0.04 0.04,-0.04 z" />
  </g>
  <g
     transform="translate(60.0964,7.643214)"
     id="g76">
    <path
       transform="scale(0.004,-0.004)"
       d="M 0,-46 C 0,45 116,136 217,136 280,136 326,101 326,46 326,-41 216,-136 106,-136 39,-136 0,-97 0,-46 Z"
       fill="currentColor"
       id="path75" />
  </g>
  <g
     transform="translate(61.3356,6.643214)"
     id="g77">
    <path
       id="rect76"
       style="fill:currentColor"
       d="m -0.025,-1.7931 h 0.05 c 0.02216,0 0.04,0.01784 0.04,0.04 v 2.52689998 c 0,0.02216 -0.01784,0.04 -0.04,0.04 h -0.05 c -0.02216,0 -0.04,-0.01784 -0.04,-0.04 V -1.7531 c 0,-0.02216 0.01784,-0.04 0.04,-0.04 z" />
  </g>
  <g
     transform="translate(62.3506,8.643214)"
     id="g78">
    <path
       transform="scale(0.004,-0.004)"
       d="M 0,-46 C 0,45 116,136 217,136 280,136 326,101 326,46 326,-41 216,-136 106,-136 39,-136 0,-97 0,-46 Z"
       fill="currentColor"
       id="path77" />
  </g>
  <g
     transform="translate(63.5898,6.643214)"
     id="g79">
    <path
       id="rect78"
       style="fill:currentColor"
       d="m -0.025,-1.2069 h 0.05 c 0.02216,0 0.04,0.01784 0.04,0.04 v 2.9407 c 0,0.02216 -0.01784,0.04 -0.04,0.04 h -0.05 c -0.02216,0 -0.04,-0.01784 -0.04,-0.04 v -2.9407 c 0,-0.02216 0.01784,-0.04 0.04,-0.04 z" />
  </g>
  <g
     transform="translate(64.8548,8.143214)"
     id="g80">
    <path
       transform="scale(0.004,-0.004)"
       d="m 72,-106 c 40,0 204,110 231,143 7,9 11,19 11,28 0,22 -18,41 -42,41 C 232,106 68,-4 41,-37 34,-46 31,-56 31,-65 c 0,-22 17,-41 41,-41 z M 0,-67 c 0,71 46,203 258,203 41,0 86,-10 86,-69 0,-71 -46,-203 -258,-203 -41,0 -86,10 -86,69 z"
       fill="currentColor"
       id="path79" />
  </g>
  <g
     transform="translate(66.1672,6.643214)"
     id="g81">
    <path
       id="rect80"
       style="fill:currentColor"
       d="m -0.025,-2 h 0.05 c 0.02216,0 0.04,0.01784 0.04,0.04 v 3.1609999 c 0,0.02216 -0.01784,0.04 -0.04,0.04 h -0.05 c -0.02216,0 -0.04,-0.01784 -0.04,-0.04 V -1.96 c 0,-0.02216 0.01784,-0.04 0.04,-0.04 z" />
  </g>
</svg>
