<?xml version="1.0" encoding="UTF-8" standalone="no"?>
<svg
   version="1.2"
   width="165.00401mm"
   height="27.560266mm"
   viewBox="0 0 93.896398 15.683313"
   id="svg102"
   sodipodi:docname="fig_036.svg"
   xmlns:inkscape="http://www.inkscape.org/namespaces/inkscape"
   xmlns:sodipodi="http://sodipodi.sourceforge.net/DTD/sodipodi-0.dtd"
   xmlns="http://www.w3.org/2000/svg"
   xmlns:svg="http://www.w3.org/2000/svg">
  <defs
     id="defs102" />
  <sodipodi:namedview
     id="namedview102"
     pagecolor="#505050"
     bordercolor="#eeeeee"
     borderopacity="1"
     inkscape:showpageshadow="0"
     inkscape:pageopacity="0"
     inkscape:pagecheckerboard="0"
     inkscape:deskcolor="#505050"
     inkscape:document-units="mm" />
  <style
     type="text/css"
     id="style1"><![CDATA[
tspan { white-space: pre; }
]]></style>
  <g
     transform="translate(93.7064,10.943314)"
     id="g1">
    <rect
       x="0"
       y="-2"
       width="0.19"
       height="4"
       ry="0.0000"
       fill="currentColor"
       id="rect1" />
  </g>
  <g
     transform="translate(93.2164,10.943314)"
     id="g2">
    <rect
       x="0"
       y="-2"
       width="0.19"
       height="4"
       ry="0.0000"
       fill="currentColor"
       id="rect2" />
  </g>
  <g
     transform="translate(0,7.943314)"
     id="g3">
    <rect
       x="80.765602"
       y="-0.1"
       width="1.9563"
       height="0.2"
       ry="0.1"
       fill="currentColor"
       id="rect3" />
  </g>
  <g
     transform="translate(0,7.943314)"
     id="g4">
    <rect
       x="28.6199"
       y="-0.1"
       width="1.9563"
       height="0.2"
       ry="0.1"
       fill="currentColor"
       id="rect4" />
  </g>
  <g
     transform="translate(0,13.943314)"
     id="g5">
    <rect
       x="24.415701"
       y="-0.1"
       width="1.9563"
       height="0.2"
       ry="0.1"
       fill="currentColor"
       id="rect5" />
  </g>
  <g
     transform="translate(0,13.943314)"
     id="g6">
    <rect
       x="19.3715"
       y="-0.1"
       width="1.9563"
       height="0.2"
       ry="0.1"
       fill="currentColor"
       id="rect6" />
  </g>
  <g
     transform="translate(0,12.943314)"
     id="g7">
    <line
       stroke-linejoin="round"
       stroke-linecap="round"
       stroke-width="0.1"
       stroke="currentColor"
       x1="0.050000001"
       y1="0"
       x2="93.846397"
       y2="0"
       id="line6" />
  </g>
  <g
     transform="translate(0,11.943314)"
     id="g8">
    <line
       stroke-linejoin="round"
       stroke-linecap="round"
       stroke-width="0.1"
       stroke="currentColor"
       x1="0.050000001"
       y1="0"
       x2="93.846397"
       y2="0"
       id="line7" />
  </g>
  <g
     transform="translate(0,10.943314)"
     id="g9">
    <line
       stroke-linejoin="round"
       stroke-linecap="round"
       stroke-width="0.1"
       stroke="currentColor"
       x1="0.050000001"
       y1="0"
       x2="93.846397"
       y2="0"
       id="line8" />
  </g>
  <g
     transform="translate(0,9.943314)"
     id="g10">
    <line
       stroke-linejoin="round"
       stroke-linecap="round"
       stroke-width="0.1"
       stroke="currentColor"
       x1="0.050000001"
       y1="0"
       x2="93.846397"
       y2="0"
       id="line9" />
  </g>
  <g
     transform="translate(0,8.943314)"
     id="g11">
    <line
       stroke-linejoin="round"
       stroke-linecap="round"
       stroke-width="0.1"
       stroke="currentColor"
       x1="0.050000001"
       y1="0"
       x2="93.846397"
       y2="0"
       id="line10" />
  </g>
  <g
     transform="translate(70.8629,10.943314)"
     id="g12">
    <rect
       x="0"
       y="-2"
       width="0.19"
       height="4"
       ry="0.0000"
       fill="currentColor"
       id="rect11" />
  </g>
  <g
     transform="translate(50.0061,10.943314)"
     id="g13">
    <rect
       x="0"
       y="-2"
       width="0.19"
       height="4"
       ry="0.0000"
       fill="currentColor"
       id="rect12" />
  </g>
  <g
     transform="translate(49.5161,10.943314)"
     id="g14">
    <rect
       x="0"
       y="-2"
       width="0.19"
       height="4"
       ry="0.0000"
       fill="currentColor"
       id="rect13" />
  </g>
  <g
     transform="translate(41.1261,10.943314)"
     id="g15">
    <rect
       x="0"
       y="-2"
       width="0.19"
       height="4"
       ry="0.0000"
       fill="currentColor"
       id="rect14" />
  </g>
  <g
     transform="translate(23.6518,10.943314)"
     id="g16">
    <rect
       x="0"
       y="-2"
       width="0.19"
       height="4"
       ry="0.0000"
       fill="currentColor"
       id="rect15" />
  </g>
  <g
     transform="translate(52.4212,10.943314)"
     id="g17">
    <rect
       x="-0.064999998"
       y="-2.2028999"
       width="0.13"
       height="3.5167"
       ry="0.039999999"
       fill="currentColor"
       id="rect16" />
  </g>
  <g
     transform="translate(8.585,5.943214)"
     id="g18">
    <text
       font-family="'New Computer Modern Math'"
       font-size="2.3308px"
       text-anchor="start"
       fill="currentColor"
       id="text17"><tspan
         id="tspan17">D</tspan></text>
  </g>
  <g
     transform="translate(10.3605,6.737814)"
     id="g19">
    <text
       font-family="'New Computer Modern Math'"
       font-size="1.648px"
       text-anchor="start"
       fill="currentColor"
       id="text18"><tspan
         id="tspan18">−</tspan></text>
  </g>
  <g
     transform="translate(11.6579,6.737814)"
     id="g20">
    <text
       font-family="'New Computer Modern Math'"
       font-size="1.648px"
       text-anchor="start"
       fill="currentColor"
       id="text19"><tspan
         id="tspan19">7</tspan></text>
  </g>
  <g
     transform="translate(8.585,12.443314)"
     id="g21">
    <path
       transform="scale(0.004,-0.004)"
       d="M 0,-46 C 0,45 116,136 217,136 280,136 326,101 326,46 326,-41 216,-136 106,-136 39,-136 0,-97 0,-46 Z"
       fill="currentColor"
       id="path20" />
  </g>
  <g
     transform="translate(0.8,11.943314)"
     id="g22">
    <path
       transform="scale(0.004,-0.004)"
       d="m 266,-635 h -6 c -108,0 -195,88 -195,197 0,58 53,103 112,103 54,0 95,-47 95,-103 0,-52 -43,-95 -95,-95 -11,0 -21,2 -31,6 26,-39 68,-65 117,-65 h 4 z m 135,786 c 19,-89 48,-242 60,-354 76,27 112,94 112,163 0,89 -60,179 -172,191 z M 74,28 c 0,-112 98,-247 278,-247 21,0 44,2 68,6 -7,64 -29,203 -63,364 -79,-8 -124,-61 -124,-119 0,-44 25,-91 81,-123 5,-5 7,-10 7,-15 0,-11 -10,-22 -22,-22 -15,0 -126,62 -126,187 0,88 58,174 160,197 -14,58 -29,117 -46,175 C 180,310 74,188 74,28 Z m 283,1166 c 28,0 143,-206 143,-361 0,-143 -86,-255 -180,-364 21,-68 39,-138 56,-207 5,0 10,1 14,1 155,0 255,-129 255,-262 0,-113 -74,-212 -180,-245 3,-35 5,-70 5,-105 0,-19 -1,-39 -2,-58 -7,-119 -88,-225 -202,-228 l 1,43 c 93,2 153,92 159,191 1,18 2,37 2,55 0,31 -1,61 -4,92 -28,-5 -55,-8 -80,-8 -239,0 -342,217 -342,374 0,177 131,306 248,441 -29,96 -52,170 -52,346 0,189 144,295 159,295 z M 247,782 c 0,-55 12,-115 35,-190 83,100 147,202 147,326 0,40 -6,82 -21,127 -49,-24 -161,-97 -161,-263 z"
       fill="currentColor"
       id="path21" />
  </g>
  <g
     transform="translate(4.885,10.943314)"
     id="g23">
    <path
       transform="scale(0.004,-0.004)"
       d="M 433,-89 C 433,-111 383,-263 250,-263 191,-263 0,-244 0,0 0,62 18,262 250,262 366,262 426,156 426,99 426,59 396,27 359,27 c -31,0 -75,25 -75,75 0,38 27,77 72,77 4,0 9,0 14,-1 -28,37 -72,59 -120,59 C 144,237 137,164 137,51 V 0 -51 c 0,-113 7,-187 113,-187 80,0 139,70 158,151 2,7 7,10 12,10 6,0 13,-4 13,-12 z"
       fill="currentColor"
       id="path22" />
  </g>
  <g
     transform="translate(3.365,1.643214)"
     id="g24">
    <text
       font-family="'New Computer Modern Math'"
       font-size="2.3308px"
       text-anchor="start"
       fill="currentColor"
       id="text23"><tspan
         id="tspan23">Outline</tspan></text>
  </g>
  <g
     transform="translate(11.6131,1.643214)"
     id="g25">
    <text
       font-family="'New Computer Modern Math'"
       font-size="2.3308px"
       text-anchor="start"
       fill="currentColor"
       id="text24"><tspan
         id="tspan24">with</tspan></text>
  </g>
  <g
     transform="translate(16.7542,1.643214)"
     id="g26">
    <text
       font-family="'New Computer Modern Math'"
       font-size="2.3308px"
       text-anchor="start"
       fill="currentColor"
       id="text25"><tspan
         id="tspan25">alternate</tspan></text>
  </g>
  <g
     transform="translate(26.4363,1.643214)"
     id="g27">
    <text
       font-family="'New Computer Modern Math'"
       font-size="2.3308px"
       text-anchor="start"
       fill="currentColor"
       id="text26"><tspan
         id="tspan26">octave</tspan></text>
  </g>
  <g
     transform="translate(33.5577,1.643214)"
     id="g28">
    <text
       font-family="'New Computer Modern Math'"
       font-size="2.3308px"
       text-anchor="start"
       fill="currentColor"
       id="text27"><tspan
         id="tspan27">displaced</tspan></text>
  </g>
  <g
     transform="translate(43.4788,1.643214)"
     id="g29">
    <text
       font-family="'New Computer Modern Math'"
       font-size="2.3308px"
       text-anchor="start"
       fill="currentColor"
       id="text28"><tspan
         id="tspan28">path:</tspan></text>
  </g>
  <g
     transform="translate(3.365,5.143214)"
     id="g30">
    <text
       font-family="'New Computer Modern Math'"
       font-size="2.3308px"
       text-anchor="start"
       fill="currentColor"
       id="text29"><tspan
         id="tspan29" /></text>
  </g>
  <g
     transform="translate(9.8242,10.943314)"
     id="g31">
    <rect
       x="-0.064999998"
       y="-2"
       width="0.13"
       height="3.3138001"
       ry="0.039999999"
       fill="currentColor"
       id="rect30" />
  </g>
  <g
     transform="translate(78.1086,11.753314)"
     id="g32">
    <polygon
       stroke-linejoin="round"
       stroke-linecap="round"
       stroke-width="0.08"
       fill="currentColor"
       stroke="currentColor"
       points="0.04,0.2 0.04,-0.2 3.0731,-0.82 3.0731,-0.42 "
       id="polygon31" />
  </g>
  <g
     transform="translate(12.2892,12.943314)"
     id="g33">
    <path
       transform="scale(0.004,-0.004)"
       d="M 0,-46 C 0,45 116,136 217,136 280,136 326,101 326,46 326,-41 216,-136 106,-136 39,-136 0,-97 0,-46 Z"
       fill="currentColor"
       id="path32" />
  </g>
  <g
     transform="translate(12.2892,9.443314)"
     id="g34">
    <path
       transform="scale(0.004,-0.004)"
       d="M 0,-46 C 0,45 116,136 217,136 280,136 326,101 326,46 326,-41 216,-136 106,-136 39,-136 0,-97 0,-46 Z"
       fill="currentColor"
       id="path33" />
  </g>
  <g
     transform="translate(13.5284,10.943314)"
     id="g35">
    <rect
       x="-0.064999998"
       y="-4.3333001"
       width="0.13"
       height="6.1471"
       ry="0.039999999"
       fill="currentColor"
       id="rect34" />
  </g>
  <g
     transform="translate(72.1424,13.753314)"
     id="g36">
    <polygon
       stroke-linejoin="round"
       stroke-linecap="round"
       stroke-width="0.08"
       fill="currentColor"
       stroke="currentColor"
       points="0.04,0.2 0.04,-0.2 3.0731,-0.82 3.0731,-0.42 "
       id="polygon35" />
  </g>
  <g
     transform="translate(15.9934,13.443314)"
     id="g37">
    <path
       transform="scale(0.004,-0.004)"
       d="M 0,-46 C 0,45 116,136 217,136 280,136 326,101 326,46 326,-41 216,-136 106,-136 39,-136 0,-97 0,-46 Z"
       fill="currentColor"
       id="path36" />
  </g>
  <g
     transform="translate(15.9934,9.943314)"
     id="g38">
    <path
       transform="scale(0.004,-0.004)"
       d="M 0,-46 C 0,45 116,136 217,136 280,136 326,101 326,46 326,-41 216,-136 106,-136 39,-136 0,-97 0,-46 Z"
       fill="currentColor"
       id="path37" />
  </g>
  <g
     transform="translate(17.2326,10.943314)"
     id="g39">
    <rect
       x="-0.064999998"
       y="-4"
       width="0.13"
       height="6.3137999"
       ry="0.039999999"
       fill="currentColor"
       id="rect38" />
  </g>
  <g
     transform="translate(56.9879,13.753314)"
     id="g40">
    <polygon
       stroke-linejoin="round"
       stroke-linecap="round"
       stroke-width="0.08"
       fill="currentColor"
       stroke="currentColor"
       points="0.04,0.2 0.04,-0.2 3.0731,-0.82 3.0731,-0.42 "
       id="polygon39" />
  </g>
  <g
     transform="translate(19.6976,13.943314)"
     id="g41">
    <path
       transform="scale(0.004,-0.004)"
       d="M 0,-46 C 0,45 116,136 217,136 280,136 326,101 326,46 326,-41 216,-136 106,-136 39,-136 0,-97 0,-46 Z"
       fill="currentColor"
       id="path40" />
  </g>
  <g
     transform="translate(19.6976,10.443314)"
     id="g42">
    <path
       transform="scale(0.004,-0.004)"
       d="M 0,-46 C 0,45 116,136 217,136 280,136 326,101 326,46 326,-41 216,-136 106,-136 39,-136 0,-97 0,-46 Z"
       fill="currentColor"
       id="path41" />
  </g>
  <g
     transform="translate(20.9368,10.943314)"
     id="g43">
    <rect
       x="-0.064999998"
       y="-3.6666999"
       width="0.13"
       height="6.4805002"
       ry="0.039999999"
       fill="currentColor"
       id="rect42" />
  </g>
  <g
     transform="translate(52.3562,8.753314)"
     id="g44">
    <polygon
       stroke-linejoin="round"
       stroke-linecap="round"
       stroke-width="0.08"
       fill="currentColor"
       stroke="currentColor"
       points="0.04,0.2 0.04,-0.2 3.0731,-0.82 3.0731,-0.42 "
       id="polygon43" />
  </g>
  <g
     transform="translate(36.3544,15.133314)"
     id="g45">
    <polygon
       stroke-linejoin="round"
       stroke-linecap="round"
       stroke-width="0.08"
       fill="currentColor"
       stroke="currentColor"
       points="0.04,0.2 0.04,-0.2 2.5942,0.11 2.5942,0.51 "
       id="polygon44" />
  </g>
  <g
     transform="translate(24.7418,5.943214)"
     id="g46">
    <text
       font-family="'New Computer Modern Math'"
       font-size="2.3308px"
       text-anchor="start"
       fill="currentColor"
       id="text45"><tspan
         id="tspan45">G</tspan></text>
  </g>
  <g
     transform="translate(26.5856,6.737814)"
     id="g47">
    <text
       font-family="'New Computer Modern Math'"
       font-size="1.648px"
       text-anchor="start"
       fill="currentColor"
       id="text46"><tspan
         id="tspan46">7</tspan></text>
  </g>
  <g
     transform="translate(24.7418,14.443314)"
     id="g48">
    <path
       transform="scale(0.004,-0.004)"
       d="M 0,-46 C 0,45 116,136 217,136 280,136 326,101 326,46 326,-41 216,-136 106,-136 39,-136 0,-97 0,-46 Z"
       fill="currentColor"
       id="path47" />
  </g>
  <g
     transform="translate(24.7418,10.943314)"
     id="g49">
    <path
       transform="scale(0.004,-0.004)"
       d="M 0,-46 C 0,45 116,136 217,136 280,136 326,101 326,46 326,-41 216,-136 106,-136 39,-136 0,-97 0,-46 Z"
       fill="currentColor"
       id="path48" />
  </g>
  <g
     transform="translate(25.981,10.943314)"
     id="g50">
    <rect
       x="-0.064999998"
       y="-3.3333001"
       width="0.13"
       height="6.6471"
       ry="0.039999999"
       fill="currentColor"
       id="rect49" />
  </g>
  <g
     transform="translate(28.946,11.443314)"
     id="g51">
    <path
       transform="scale(0.004,-0.004)"
       d="M 0,-46 C 0,45 116,136 217,136 280,136 326,101 326,46 326,-41 216,-136 106,-136 39,-136 0,-97 0,-46 Z"
       fill="currentColor"
       id="path50" />
  </g>
  <g
     transform="translate(28.946,7.943314)"
     id="g52">
    <path
       transform="scale(0.004,-0.004)"
       d="M 0,-46 C 0,45 116,136 217,136 280,136 326,101 326,46 326,-41 216,-136 106,-136 39,-136 0,-97 0,-46 Z"
       fill="currentColor"
       id="path51" />
  </g>
  <g
     transform="translate(29.011,10.943314)"
     id="g53">
    <rect
       x="-0.064999998"
       y="-2.8138001"
       width="0.13"
       height="6.4805002"
       ry="0.039999999"
       fill="currentColor"
       id="rect52" />
  </g>
  <g
     transform="translate(32.6502,11.943314)"
     id="g54">
    <path
       transform="scale(0.004,-0.004)"
       d="M 0,-46 C 0,45 116,136 217,136 280,136 326,101 326,46 326,-41 216,-136 106,-136 39,-136 0,-97 0,-46 Z"
       fill="currentColor"
       id="path53" />
  </g>
  <g
     transform="translate(32.6502,8.443314)"
     id="g55">
    <path
       transform="scale(0.004,-0.004)"
       d="M 0,-46 C 0,45 116,136 217,136 280,136 326,101 326,46 326,-41 216,-136 106,-136 39,-136 0,-97 0,-46 Z"
       fill="currentColor"
       id="path54" />
  </g>
  <g
     transform="translate(32.7152,10.943314)"
     id="g56">
    <rect
       x="-0.064999998"
       y="-2.3138001"
       width="0.13"
       height="6.3137999"
       ry="0.039999999"
       fill="currentColor"
       id="rect55" />
  </g>
  <g
     transform="translate(36.3544,12.443314)"
     id="g57">
    <path
       transform="scale(0.004,-0.004)"
       d="M 0,-46 C 0,45 116,136 217,136 280,136 326,101 326,46 326,-41 216,-136 106,-136 39,-136 0,-97 0,-46 Z"
       fill="currentColor"
       id="path56" />
  </g>
  <g
     transform="translate(36.3544,8.943314)"
     id="g58">
    <path
       transform="scale(0.004,-0.004)"
       d="M 0,-46 C 0,45 116,136 217,136 280,136 326,101 326,46 326,-41 216,-136 106,-136 39,-136 0,-97 0,-46 Z"
       fill="currentColor"
       id="path57" />
  </g>
  <g
     transform="translate(36.4194,10.943314)"
     id="g59">
    <rect
       x="-0.064999998"
       y="-1.8138"
       width="0.13"
       height="6.0114002"
       ry="0.039999999"
       fill="currentColor"
       id="rect58" />
  </g>
  <g
     transform="translate(38.8586,5.943214)"
     id="g60">
    <text
       font-family="'New Computer Modern Math'"
       font-size="2.3308px"
       text-anchor="start"
       fill="currentColor"
       id="text59"><tspan
         id="tspan59">C</tspan></text>
  </g>
  <g
     transform="translate(38.8586,12.943314)"
     id="g61">
    <path
       transform="scale(0.004,-0.004)"
       d="M 0,-46 C 0,45 116,136 217,136 280,136 326,101 326,46 326,-41 216,-136 106,-136 39,-136 0,-97 0,-46 Z"
       fill="currentColor"
       id="path60" />
  </g>
  <g
     transform="translate(38.8586,9.443314)"
     id="g62">
    <path
       transform="scale(0.004,-0.004)"
       d="M 0,-46 C 0,45 116,136 217,136 280,136 326,101 326,46 326,-41 216,-136 106,-136 39,-136 0,-97 0,-46 Z"
       fill="currentColor"
       id="path61" />
  </g>
  <g
     transform="translate(38.9236,10.943314)"
     id="g63">
    <rect
       x="-0.064999998"
       y="-1.3138"
       width="0.13"
       height="5.8062"
       ry="0.039999999"
       fill="currentColor"
       id="rect62" />
  </g>
  <g
     transform="translate(51.182,5.943214)"
     id="g64">
    <text
       font-family="'New Computer Modern Math'"
       font-size="2.3308px"
       text-anchor="start"
       fill="currentColor"
       id="text63"><tspan
         id="tspan63">D</tspan></text>
  </g>
  <g
     transform="translate(52.9574,6.737814)"
     id="g65">
    <text
       font-family="'New Computer Modern Math'"
       font-size="1.648px"
       text-anchor="start"
       fill="currentColor"
       id="text64"><tspan
         id="tspan64">−</tspan></text>
  </g>
  <g
     transform="translate(54.2549,6.737814)"
     id="g66">
    <text
       font-family="'New Computer Modern Math'"
       font-size="1.648px"
       text-anchor="start"
       fill="currentColor"
       id="text65"><tspan
         id="tspan65">7</tspan></text>
  </g>
  <g
     transform="translate(51.182,12.443314)"
     id="g67">
    <path
       transform="scale(0.004,-0.004)"
       d="M 0,-46 C 0,45 116,136 217,136 280,136 326,101 326,46 326,-41 216,-136 106,-136 39,-136 0,-97 0,-46 Z"
       fill="currentColor"
       id="path66" />
  </g>
  <g
     transform="translate(49.8561,1.643214)"
     id="g68">
    <text
       font-family="'New Computer Modern Math'"
       font-size="2.3308px"
       text-anchor="start"
       fill="currentColor"
       id="text67"><tspan
         id="tspan67">Octave</tspan></text>
  </g>
  <g
     transform="translate(57.6262,1.643214)"
     id="g69">
    <text
       font-family="'New Computer Modern Math'"
       font-size="2.3308px"
       text-anchor="start"
       fill="currentColor"
       id="text68"><tspan
         id="tspan68">displacement</tspan></text>
  </g>
  <g
     transform="translate(71.4397,1.643214)"
     id="g70">
    <text
       font-family="'New Computer Modern Math'"
       font-size="2.3308px"
       text-anchor="start"
       fill="currentColor"
       id="text69"><tspan
         id="tspan69">filled</tspan></text>
  </g>
  <g
     transform="translate(77.0246,1.643214)"
     id="g71">
    <text
       font-family="'New Computer Modern Math'"
       font-size="2.3308px"
       text-anchor="start"
       fill="currentColor"
       id="text70"><tspan
         id="tspan70">in</tspan></text>
  </g>
  <g
     transform="translate(79.5708,1.643214)"
     id="g72">
    <text
       font-family="'New Computer Modern Math'"
       font-size="2.3308px"
       text-anchor="start"
       fill="currentColor"
       id="text71"><tspan
         id="tspan71">with</tspan></text>
  </g>
  <g
     transform="translate(84.7118,1.643214)"
     id="g73">
    <text
       font-family="'New Computer Modern Math'"
       font-size="2.3308px"
       text-anchor="start"
       fill="currentColor"
       id="text72"><tspan
         id="tspan72">arpeggio:</tspan></text>
  </g>
  <g
     transform="translate(49.8561,5.143214)"
     id="g74">
    <text
       font-family="'New Computer Modern Math'"
       font-size="2.3308px"
       text-anchor="start"
       fill="currentColor"
       id="text73"><tspan
         id="tspan73" /></text>
  </g>
  <g
     transform="translate(87.9869,11.943314)"
     id="g75">
    <polygon
       stroke-linejoin="round"
       stroke-linecap="round"
       stroke-width="0.08"
       fill="currentColor"
       stroke="currentColor"
       points="0.04,0.2 0.04,-0.2 2.8231,-0.01 2.8231,0.39 "
       id="polygon74" />
  </g>
  <g
     transform="translate(54.1651,11.443314)"
     id="g76">
    <path
       transform="scale(0.004,-0.004)"
       d="M 0,-46 C 0,45 116,136 217,136 280,136 326,101 326,46 326,-41 216,-136 106,-136 39,-136 0,-97 0,-46 Z"
       fill="currentColor"
       id="path75" />
  </g>
  <g
     transform="translate(55.4043,10.943314)"
     id="g77">
    <rect
       x="-0.064999998"
       y="-2.7971001"
       width="0.13"
       height="3.1108999"
       ry="0.039999999"
       fill="currentColor"
       id="rect76" />
  </g>
  <g
     transform="translate(56.9879,10.443314)"
     id="g78">
    <path
       transform="scale(0.004,-0.004)"
       d="M 0,-46 C 0,45 116,136 217,136 280,136 326,101 326,46 326,-41 216,-136 106,-136 39,-136 0,-97 0,-46 Z"
       fill="currentColor"
       id="path77" />
  </g>
  <g
     transform="translate(57.0529,10.943314)"
     id="g79">
    <rect
       x="-0.064999998"
       y="-0.31380001"
       width="0.13"
       height="3.1108999"
       ry="0.039999999"
       fill="currentColor"
       id="rect78" />
  </g>
  <g
     transform="translate(59.971,9.443314)"
     id="g80">
    <path
       transform="scale(0.004,-0.004)"
       d="M 0,-46 C 0,45 116,136 217,136 280,136 326,101 326,46 326,-41 216,-136 106,-136 39,-136 0,-97 0,-46 Z"
       fill="currentColor"
       id="path79" />
  </g>
  <g
     transform="translate(60.036,10.943314)"
     id="g81">
    <rect
       x="-0.064999998"
       y="-1.3138"
       width="0.13"
       height="3.5167"
       ry="0.039999999"
       fill="currentColor"
       id="rect80" />
  </g>
  <g
     transform="translate(62.7041,9.943314)"
     id="g82">
    <path
       transform="scale(0.004,-0.004)"
       d="M 0,-46 C 0,45 116,136 217,136 280,136 326,101 326,46 326,-41 216,-136 106,-136 39,-136 0,-97 0,-46 Z"
       fill="currentColor"
       id="path81" />
  </g>
  <g
     transform="translate(62.7691,10.943314)"
     id="g83">
    <rect
       x="-0.064999998"
       y="-0.81379998"
       width="0.13"
       height="3.3138001"
       ry="0.039999999"
       fill="currentColor"
       id="rect82" />
  </g>
  <g
     transform="translate(66.8661,10.443314)"
     id="g84">
    <path
       transform="scale(0.004,-0.004)"
       d="M 0,-46 C 0,45 116,136 217,136 280,136 326,101 326,46 326,-41 216,-136 106,-136 39,-136 0,-97 0,-46 Z"
       fill="currentColor"
       id="path83" />
  </g>
  <g
     transform="translate(66.9311,10.943314)"
     id="g85">
    <rect
       x="-0.064999998"
       y="-0.31380001"
       width="0.13"
       height="3.3138001"
       ry="0.039999999"
       fill="currentColor"
       id="rect84" />
  </g>
  <g
     transform="translate(90.785,10.943314)"
     id="g86">
    <rect
       x="-0.064999998"
       y="-1.3138"
       width="0.13"
       height="2.4995"
       ry="0.039999999"
       fill="currentColor"
       id="rect85" />
  </g>
  <g
     transform="translate(72.1424,5.943214)"
     id="g87">
    <text
       font-family="'New Computer Modern Math'"
       font-size="2.3308px"
       text-anchor="start"
       fill="currentColor"
       id="text86"><tspan
         id="tspan86">G</tspan></text>
  </g>
  <g
     transform="translate(73.9861,6.737814)"
     id="g88">
    <text
       font-family="'New Computer Modern Math'"
       font-size="1.648px"
       text-anchor="start"
       fill="currentColor"
       id="text87"><tspan
         id="tspan87">7</tspan></text>
  </g>
  <g
     transform="translate(72.1424,10.943314)"
     id="g89">
    <path
       transform="scale(0.004,-0.004)"
       d="M 0,-46 C 0,45 116,136 217,136 280,136 326,101 326,46 326,-41 216,-136 106,-136 39,-136 0,-97 0,-46 Z"
       fill="currentColor"
       id="path88" />
  </g>
  <g
     transform="translate(72.2074,10.943314)"
     id="g90">
    <rect
       x="-0.064999998"
       y="0.18619999"
       width="0.13"
       height="2.6108999"
       ry="0.039999999"
       fill="currentColor"
       id="rect89" />
  </g>
  <g
     transform="translate(90.72,9.443314)"
     id="g91">
    <path
       transform="scale(0.004,-0.004)"
       d="M 0,-46 C 0,45 116,136 217,136 280,136 326,101 326,46 326,-41 216,-136 106,-136 39,-136 0,-97 0,-46 Z"
       fill="currentColor"
       id="path90" />
  </g>
  <g
     transform="translate(75.1255,9.943314)"
     id="g92">
    <path
       transform="scale(0.004,-0.004)"
       d="M 0,-46 C 0,45 116,136 217,136 280,136 326,101 326,46 326,-41 216,-136 106,-136 39,-136 0,-97 0,-46 Z"
       fill="currentColor"
       id="path91" />
  </g>
  <g
     transform="translate(75.1905,10.943314)"
     id="g93">
    <rect
       x="-0.064999998"
       y="-0.81379998"
       width="0.13"
       height="3.0167"
       ry="0.039999999"
       fill="currentColor"
       id="rect92" />
  </g>
  <g
     transform="translate(90.72,5.943214)"
     id="g94">
    <text
       font-family="'New Computer Modern Math'"
       font-size="2.3308px"
       text-anchor="start"
       fill="currentColor"
       id="text93"><tspan
         id="tspan93">C</tspan></text>
  </g>
  <g
     transform="translate(78.1086,8.943314)"
     id="g95">
    <path
       transform="scale(0.004,-0.004)"
       d="M 0,-46 C 0,45 116,136 217,136 280,136 326,101 326,46 326,-41 216,-136 106,-136 39,-136 0,-97 0,-46 Z"
       fill="currentColor"
       id="path94" />
  </g>
  <g
     transform="translate(78.1736,10.943314)"
     id="g96">
    <rect
       x="-0.064999998"
       y="-1.8138"
       width="0.13"
       height="2.6108999"
       ry="0.039999999"
       fill="currentColor"
       id="rect95" />
  </g>
  <g
     transform="translate(81.0917,7.943314)"
     id="g97">
    <path
       transform="scale(0.004,-0.004)"
       d="M 0,-46 C 0,45 116,136 217,136 280,136 326,101 326,46 326,-41 216,-136 106,-136 39,-136 0,-97 0,-46 Z"
       fill="currentColor"
       id="path96" />
  </g>
  <g
     transform="translate(81.1567,10.943314)"
     id="g98">
    <rect
       x="-0.064999998"
       y="-2.8138001"
       width="0.13"
       height="3.0167"
       ry="0.039999999"
       fill="currentColor"
       id="rect97" />
  </g>
  <g
     transform="translate(83.8248,8.443314)"
     id="g99">
    <path
       transform="scale(0.004,-0.004)"
       d="M 0,-46 C 0,45 116,136 217,136 280,136 326,101 326,46 326,-41 216,-136 106,-136 39,-136 0,-97 0,-46 Z"
       fill="currentColor"
       id="path98" />
  </g>
  <g
     transform="translate(83.8898,10.943314)"
     id="g100">
    <rect
       x="-0.064999998"
       y="-2.3138001"
       width="0.13"
       height="3.3138001"
       ry="0.039999999"
       fill="currentColor"
       id="rect99" />
  </g>
  <g
     transform="translate(87.9869,8.943314)"
     id="g101">
    <path
       transform="scale(0.004,-0.004)"
       d="M 0,-46 C 0,45 116,136 217,136 280,136 326,101 326,46 326,-41 216,-136 106,-136 39,-136 0,-97 0,-46 Z"
       fill="currentColor"
       id="path100" />
  </g>
  <g
     transform="translate(88.0519,10.943314)"
     id="g102">
    <rect
       x="-0.064999998"
       y="-1.8138"
       width="0.13"
       height="2.8181"
       ry="0.039999999"
       fill="currentColor"
       id="rect101" />
  </g>
</svg>
