<?xml version="1.0" encoding="UTF-8" standalone="no"?>
<svg
   version="1.2"
   width="121.42389mm"
   height="19.704332mm"
   viewBox="0 0 69.0969 11.212853"
   id="svg67"
   sodipodi:docname="fig_320.svg"
   xmlns:inkscape="http://www.inkscape.org/namespaces/inkscape"
   xmlns:sodipodi="http://sodipodi.sourceforge.net/DTD/sodipodi-0.dtd"
   xmlns="http://www.w3.org/2000/svg"
   xmlns:svg="http://www.w3.org/2000/svg">
  <defs
     id="defs67" />
  <sodipodi:namedview
     id="namedview67"
     pagecolor="#505050"
     bordercolor="#eeeeee"
     borderopacity="1"
     inkscape:showpageshadow="0"
     inkscape:pageopacity="0"
     inkscape:pagecheckerboard="0"
     inkscape:deskcolor="#505050"
     inkscape:document-units="mm" />
  <style
     type="text/css"
     id="style1"><![CDATA[
tspan { white-space: pre; }
]]></style>
  <g
     transform="translate(68.9069,6.6688528)"
     id="g1">
    <rect
       x="0"
       y="-2"
       width="0.19"
       height="4"
       ry="0.0000"
       fill="currentColor"
       id="rect1" />
  </g>
  <g
     transform="translate(68.4169,6.6688528)"
     id="g2">
    <rect
       x="0"
       y="-2"
       width="0.19"
       height="4"
       ry="0.0000"
       fill="currentColor"
       id="rect2" />
  </g>
  <g
     transform="translate(0,9.6688528)"
     id="g3">
    <rect
       x="57.995098"
       y="-0.1"
       width="2.0660999"
       height="0.2"
       ry="0.1"
       fill="currentColor"
       id="rect3" />
  </g>
  <g
     transform="translate(0,10.668853)"
     id="g4">
    <rect
       x="57.995098"
       y="-0.1"
       width="2.0660999"
       height="0.2"
       ry="0.1"
       fill="currentColor"
       id="rect4" />
  </g>
  <g
     transform="translate(0,9.6688528)"
     id="g5">
    <rect
       x="51.784801"
       y="-0.1"
       width="2.0660999"
       height="0.2"
       ry="0.1"
       fill="currentColor"
       id="rect5" />
  </g>
  <g
     transform="translate(0,9.6688528)"
     id="g6">
    <rect
       x="46.8074"
       y="-0.1"
       width="2.0660999"
       height="0.2"
       ry="0.1"
       fill="currentColor"
       id="rect6" />
  </g>
  <g
     transform="translate(0,8.6688528)"
     id="g7">
    <line
       stroke-linejoin="round"
       stroke-linecap="round"
       stroke-width="0.1"
       stroke="currentColor"
       x1="0.050000001"
       y1="0"
       x2="69.046898"
       y2="0"
       id="line6" />
  </g>
  <g
     transform="translate(0,7.6688528)"
     id="g8">
    <line
       stroke-linejoin="round"
       stroke-linecap="round"
       stroke-width="0.1"
       stroke="currentColor"
       x1="0.050000001"
       y1="0"
       x2="69.046898"
       y2="0"
       id="line7" />
  </g>
  <g
     transform="translate(0,6.6688528)"
     id="g9">
    <line
       stroke-linejoin="round"
       stroke-linecap="round"
       stroke-width="0.1"
       stroke="currentColor"
       x1="0.050000001"
       y1="0"
       x2="69.046898"
       y2="0"
       id="line8" />
  </g>
  <g
     transform="translate(0,5.6688528)"
     id="g10">
    <line
       stroke-linejoin="round"
       stroke-linecap="round"
       stroke-width="0.1"
       stroke="currentColor"
       x1="0.050000001"
       y1="0"
       x2="69.046898"
       y2="0"
       id="line9" />
  </g>
  <g
     transform="translate(0,4.6688528)"
     id="g11">
    <line
       stroke-linejoin="round"
       stroke-linecap="round"
       stroke-width="0.1"
       stroke="currentColor"
       x1="0.050000001"
       y1="0"
       x2="69.046898"
       y2="0"
       id="line10" />
  </g>
  <g
     transform="translate(57.2495,6.6688528)"
     id="g12">
    <rect
       x="0"
       y="-2"
       width="0.19"
       height="4"
       ry="0.0000"
       fill="currentColor"
       id="rect11" />
  </g>
  <g
     transform="translate(46.0618,6.6688528)"
     id="g13">
    <rect
       x="0"
       y="-2"
       width="0.19"
       height="4"
       ry="0.0000"
       fill="currentColor"
       id="rect12" />
  </g>
  <g
     transform="translate(23.5882,6.6688528)"
     id="g14">
    <rect
       x="0"
       y="-2"
       width="0.19"
       height="4"
       ry="0.0000"
       fill="currentColor"
       id="rect13" />
  </g>
  <g
     transform="translate(36.9692,4.6688528)"
     id="g15">
    <polygon
       stroke-linejoin="round"
       stroke-linecap="round"
       stroke-width="0.08"
       fill="currentColor"
       stroke="currentColor"
       points="0.04,0.2 0.04,-0.2 2.5942,-0.01 2.5942,0.39 "
       id="polygon14" />
  </g>
  <g
     transform="translate(8.585,1.6688528)"
     id="g16">
    <text
       font-family="'New Computer Modern Math'"
       font-size="2.3308px"
       text-anchor="start"
       fill="currentColor"
       id="text15"><tspan
         id="tspan15">C</tspan></text>
  </g>
  <g
     transform="translate(10.258,2.4634528)"
     id="g17">
    <text
       font-family="'New Computer Modern Math'"
       font-size="1.648px"
       text-anchor="start"
       fill="currentColor"
       id="text16"><tspan
         id="tspan16">△</tspan></text>
  </g>
  <g
     transform="translate(11.8628,2.4634528)"
     id="g18">
    <text
       font-family="'New Computer Modern Math'"
       font-size="1.648px"
       text-anchor="start"
       fill="currentColor"
       id="text17"><tspan
         id="tspan17">7</tspan></text>
  </g>
  <g
     transform="translate(8.585,8.6688528)"
     id="g19">
    <path
       transform="scale(0.004,-0.004)"
       d="m 72,-106 c 40,0 204,110 231,143 7,9 11,19 11,28 0,22 -18,41 -42,41 C 232,106 68,-4 41,-37 34,-46 31,-56 31,-65 c 0,-22 17,-41 41,-41 z M 0,-67 c 0,71 46,203 258,203 41,0 86,-10 86,-69 0,-71 -46,-203 -258,-203 -41,0 -86,10 -86,69 z"
       fill="currentColor"
       id="path18" />
  </g>
  <g
     transform="translate(0.8,7.6688528)"
     id="g20">
    <path
       transform="scale(0.004,-0.004)"
       d="m 266,-635 h -6 c -108,0 -195,88 -195,197 0,58 53,103 112,103 54,0 95,-47 95,-103 0,-52 -43,-95 -95,-95 -11,0 -21,2 -31,6 26,-39 68,-65 117,-65 h 4 z m 135,786 c 19,-89 48,-242 60,-354 76,27 112,94 112,163 0,89 -60,179 -172,191 z M 74,28 c 0,-112 98,-247 278,-247 21,0 44,2 68,6 -7,64 -29,203 -63,364 -79,-8 -124,-61 -124,-119 0,-44 25,-91 81,-123 5,-5 7,-10 7,-15 0,-11 -10,-22 -22,-22 -15,0 -126,62 -126,187 0,88 58,174 160,197 -14,58 -29,117 -46,175 C 180,310 74,188 74,28 Z m 283,1166 c 28,0 143,-206 143,-361 0,-143 -86,-255 -180,-364 21,-68 39,-138 56,-207 5,0 10,1 14,1 155,0 255,-129 255,-262 0,-113 -74,-212 -180,-245 3,-35 5,-70 5,-105 0,-19 -1,-39 -2,-58 -7,-119 -88,-225 -202,-228 l 1,43 c 93,2 153,92 159,191 1,18 2,37 2,55 0,31 -1,61 -4,92 -28,-5 -55,-8 -80,-8 -239,0 -342,217 -342,374 0,177 131,306 248,441 -29,96 -52,170 -52,346 0,189 144,295 159,295 z M 247,782 c 0,-55 12,-115 35,-190 83,100 147,202 147,326 0,40 -6,82 -21,127 -49,-24 -161,-97 -161,-263 z"
       fill="currentColor"
       id="path19" />
  </g>
  <g
     transform="translate(4.885,6.6688528)"
     id="g21">
    <path
       transform="scale(0.004,-0.004)"
       d="M 433,-89 C 433,-111 383,-263 250,-263 191,-263 0,-244 0,0 0,62 18,262 250,262 366,262 426,156 426,99 426,59 396,27 359,27 c -31,0 -75,25 -75,75 0,38 27,77 72,77 4,0 9,0 14,-1 -28,37 -72,59 -120,59 C 144,237 137,164 137,51 V 0 -51 c 0,-113 7,-187 113,-187 80,0 139,70 158,151 2,7 7,10 12,10 6,0 13,-4 13,-12 z"
       fill="currentColor"
       id="path20" />
  </g>
  <g
     transform="translate(9.8974,6.6688528)"
     id="g22">
    <rect
       x="-0.064999998"
       y="-1.5"
       width="0.13"
       height="3.2409999"
       ry="0.039999999"
       fill="currentColor"
       id="rect21" />
  </g>
  <g
     transform="translate(31.1108,3.6688528)"
     id="g23">
    <polygon
       stroke-linejoin="round"
       stroke-linecap="round"
       stroke-width="0.08"
       fill="currentColor"
       stroke="currentColor"
       points="0.04,0.2 0.04,-0.2 2.5942,-0.01 2.5942,0.39 "
       id="polygon22" />
  </g>
  <g
     transform="translate(13.5624,6.6688528)"
     id="g24">
    <path
       transform="scale(0.004,-0.004)"
       d="m 70,205 c 79,0 46,-98 91,-98 16,0 54,48 61,63 3,6 8,9 14,9 6,0 12,-3 14,-9 L 127,-250 c -8,-7 -17,-10 -27,-10 -10,0 -20,3 -28,10 L 189,76 C 155,64 120,54 84,54 26,54 -1,95 -1,134 c 0,36 24,71 71,71 z"
       fill="currentColor"
       id="path23" />
  </g>
  <g
     transform="translate(25.8524,4.8588528)"
     id="g25">
    <polygon
       stroke-linejoin="round"
       stroke-linecap="round"
       stroke-width="0.08"
       fill="currentColor"
       stroke="currentColor"
       points="0.04,0.2 0.04,-0.2 2.8442,-1.58 2.8442,-1.18 "
       id="polygon24" />
  </g>
  <g
     transform="translate(15.7624,7.6688528)"
     id="g26">
    <path
       transform="scale(0.004,-0.004)"
       d="M 0,-46 C 0,45 116,136 217,136 280,136 326,101 326,46 326,-41 216,-136 106,-136 39,-136 0,-97 0,-46 Z"
       fill="currentColor"
       id="path25" />
  </g>
  <g
     transform="translate(17.0016,6.6688528)"
     id="g27">
    <rect
       x="-0.064999998"
       y="-2.5"
       width="0.13"
       height="3.3138001"
       ry="0.039999999"
       fill="currentColor"
       id="rect26" />
  </g>
  <g
     transform="translate(17.0666,4.2088528)"
     id="g28">
    <path
       transform="scale(0.004,-0.004)"
       d="M 0,0 V -375 H -16 V 0 Z m 123,-729 c 0,10 42,87 42,196 0,103 -94,208 -165,283 V 0 c 0,-197 207,-336 207,-533 0,-71 -15,-141 -41,-207 -5,-8 -13,-12 -20,-12 -12,0 -23,9 -23,23 z"
       fill="currentColor"
       id="path27" />
  </g>
  <g
     transform="translate(19.504,5.4788528)"
     id="g29">
    <polygon
       stroke-linejoin="round"
       stroke-linecap="round"
       stroke-width="0.08"
       fill="currentColor"
       stroke="currentColor"
       points="0.04,0.2 0.04,-0.2 2.5942,-0.01 2.5942,0.39 "
       id="polygon28" />
  </g>
  <g
     transform="translate(18.3298,8.1688528)"
     id="g30">
    <path
       transform="scale(0.004,-0.004)"
       d="M 0,-46 C 0,45 116,136 217,136 280,136 326,101 326,46 326,-41 216,-136 106,-136 39,-136 0,-97 0,-46 Z"
       fill="currentColor"
       id="path29" />
  </g>
  <g
     transform="translate(19.569,6.6688528)"
     id="g31">
    <rect
       x="-0.064999998"
       y="-1.1853"
       width="0.13"
       height="2.4991"
       ry="0.039999999"
       fill="currentColor"
       id="rect30" />
  </g>
  <g
     transform="translate(20.834,8.6688528)"
     id="g32">
    <path
       transform="scale(0.004,-0.004)"
       d="M 0,-46 C 0,45 116,136 217,136 280,136 326,101 326,46 326,-41 216,-136 106,-136 39,-136 0,-97 0,-46 Z"
       fill="currentColor"
       id="path31" />
  </g>
  <g
     transform="translate(22.0732,6.6688528)"
     id="g33">
    <rect
       x="-0.064999998"
       y="-1.0046999"
       width="0.13"
       height="2.8185"
       ry="0.039999999"
       fill="currentColor"
       id="rect32" />
  </g>
  <g
     transform="translate(24.6782,1.6688528)"
     id="g34">
    <text
       font-family="'New Computer Modern Math'"
       font-size="2.3308px"
       text-anchor="start"
       fill="currentColor"
       id="text33"><tspan
         id="tspan33">B</tspan></text>
  </g>
  <g
     transform="translate(26.3171,2.4634528)"
     id="g35">
    <text
       font-family="'New Computer Modern Math'"
       font-size="1.648px"
       text-anchor="start"
       fill="currentColor"
       id="text34"><tspan
         id="tspan34">ø</tspan></text>
  </g>
  <g
     transform="translate(27.1365,2.4634528)"
     id="g36">
    <text
       font-family="'New Computer Modern Math'"
       font-size="1.648px"
       text-anchor="start"
       fill="currentColor"
       id="text35"><tspan
         id="tspan35">7</tspan></text>
  </g>
  <g
     transform="translate(24.6782,9.1688528)"
     id="g37">
    <path
       transform="scale(0.004,-0.004)"
       d="M 0,-46 C 0,45 116,136 217,136 280,136 326,101 326,46 326,-41 216,-136 106,-136 39,-136 0,-97 0,-46 Z"
       fill="currentColor"
       id="path36" />
  </g>
  <g
     transform="translate(25.9174,6.6688528)"
     id="g38">
    <rect
       x="-0.064999998"
       y="-1.8411"
       width="0.13"
       height="4.1549001"
       ry="0.039999999"
       fill="currentColor"
       id="rect37" />
  </g>
  <g
     transform="translate(27.4324,6.1688528)"
     id="g39">
    <path
       transform="scale(0.004,-0.004)"
       d="M 0,-46 C 0,45 116,136 217,136 280,136 326,101 326,46 326,-41 216,-136 106,-136 39,-136 0,-97 0,-46 Z"
       fill="currentColor"
       id="path38" />
  </g>
  <g
     transform="translate(28.6716,6.6688528)"
     id="g40">
    <rect
       x="-0.064999998"
       y="-3.1589"
       width="0.13"
       height="2.4727001"
       ry="0.039999999"
       fill="currentColor"
       id="rect39" />
  </g>
  <g
     transform="translate(29.9366,6.6688528)"
     id="g41">
    <path
       transform="scale(0.004,-0.004)"
       d="M 0,-46 C 0,45 116,136 217,136 280,136 326,101 326,46 326,-41 216,-136 106,-136 39,-136 0,-97 0,-46 Z"
       fill="currentColor"
       id="path40" />
  </g>
  <g
     transform="translate(31.1758,6.6688528)"
     id="g42">
    <rect
       x="-0.064999998"
       y="-2.9953001"
       width="0.13"
       height="2.8090999"
       ry="0.039999999"
       fill="currentColor"
       id="rect41" />
  </g>
  <g
     transform="translate(32.4408,7.1688528)"
     id="g43">
    <path
       transform="scale(0.004,-0.004)"
       d="M 0,-46 C 0,45 116,136 217,136 280,136 326,101 326,46 326,-41 216,-136 106,-136 39,-136 0,-97 0,-46 Z"
       fill="currentColor"
       id="path42" />
  </g>
  <g
     transform="translate(33.68,6.6688528)"
     id="g44">
    <rect
       x="-0.064999998"
       y="-2.8146999"
       width="0.13"
       height="3.1285"
       ry="0.039999999"
       fill="currentColor"
       id="rect43" />
  </g>
  <g
     transform="translate(35.795,1.6688528)"
     id="g45">
    <text
       font-family="'New Computer Modern Math'"
       font-size="2.3308px"
       text-anchor="start"
       fill="currentColor"
       id="text44"><tspan
         id="tspan44">E</tspan></text>
  </g>
  <g
     transform="translate(37.3656,2.4634528)"
     id="g46">
    <text
       font-family="'New Computer Modern Math'"
       font-size="1.648px"
       text-anchor="start"
       fill="currentColor"
       id="text45"><tspan
         id="tspan45">7</tspan></text>
  </g>
  <g
     transform="translate(38.1851,2.4634528)"
     id="g47">
    <text
       font-family="'New Computer Modern Math'"
       font-size="1.648px"
       text-anchor="start"
       fill="currentColor"
       id="text46"><tspan
         id="tspan46">♭</tspan></text>
  </g>
  <g
     transform="translate(38.8338,2.4634528)"
     id="g48">
    <text
       font-family="'New Computer Modern Math'"
       font-size="1.648px"
       text-anchor="start"
       fill="currentColor"
       id="text47"><tspan
         id="tspan47">9</tspan></text>
  </g>
  <g
     transform="translate(35.795,7.6688528)"
     id="g49">
    <path
       transform="scale(0.004,-0.004)"
       d="M 0,-46 C 0,45 116,136 217,136 280,136 326,101 326,46 326,-41 216,-136 106,-136 39,-136 0,-97 0,-46 Z"
       fill="currentColor"
       id="path48" />
  </g>
  <g
     transform="translate(37.0342,6.6688528)"
     id="g50">
    <rect
       x="-0.064999998"
       y="-1.9953001"
       width="0.13"
       height="2.8090999"
       ry="0.039999999"
       fill="currentColor"
       id="rect49" />
  </g>
  <g
     transform="translate(41.9776,5.6688528)"
     id="g51">
    <polygon
       stroke-linejoin="round"
       stroke-linecap="round"
       stroke-width="0.08"
       fill="currentColor"
       stroke="currentColor"
       points="0.04,0.2 0.04,-0.2 2.5942,-0.01 2.5942,0.39 "
       id="polygon50" />
  </g>
  <g
     transform="translate(34.345,7.6688528)"
     id="g52">
    <path
       transform="scale(0.004,-0.004)"
       d="m 0,119 c 0,8 5,15 13,18 l 46,17 v 158 c 0,10 8,19 18,19 10,0 19,-9 19,-19 V 167 l 83,31 v 158 c 0,10 9,19 19,19 10,0 18,-9 18,-19 V 211 l 32,12 c 2,1 5,1 7,1 11,0 20,-9 20,-20 v -60 c 0,-8 -5,-16 -13,-19 L 216,109 V -51 l 32,11 c 2,1 5,1 7,1 11,0 20,-9 20,-20 v -60 c 0,-8 -5,-15 -13,-18 l -46,-17 v -158 c 0,-10 -8,-19 -18,-19 -10,0 -19,9 -19,19 v 145 l -83,-31 v -158 c 0,-10 -9,-19 -19,-19 -10,0 -18,9 -18,19 v 145 l -32,-12 c -2,-1 -5,-1 -7,-1 -11,0 -20,9 -20,20 v 60 c 0,8 5,16 13,19 l 46,16 V 51 L 27,40 C 25,39 22,39 20,39 9,39 0,48 0,59 Z M 179,95 96,65 V -95 l 83,30 z"
       fill="currentColor"
       id="path51" />
  </g>
  <g
     transform="translate(38.2992,8.1688528)"
     id="g53">
    <path
       transform="scale(0.004,-0.004)"
       d="M 0,-46 C 0,45 116,136 217,136 280,136 326,101 326,46 326,-41 216,-136 106,-136 39,-136 0,-97 0,-46 Z"
       fill="currentColor"
       id="path52" />
  </g>
  <g
     transform="translate(39.5384,6.6688528)"
     id="g54">
    <rect
       x="-0.064999998"
       y="-1.8147"
       width="0.13"
       height="3.1285"
       ry="0.039999999"
       fill="currentColor"
       id="rect53" />
  </g>
  <g
     transform="translate(40.8034,8.6688528)"
     id="g55">
    <path
       transform="scale(0.004,-0.004)"
       d="M 0,-46 C 0,45 116,136 217,136 280,136 326,101 326,46 326,-41 216,-136 106,-136 39,-136 0,-97 0,-46 Z"
       fill="currentColor"
       id="path54" />
  </g>
  <g
     transform="translate(42.0426,6.6688528)"
     id="g56">
    <rect
       x="-0.064999998"
       y="-0.99529999"
       width="0.13"
       height="2.8090999"
       ry="0.039999999"
       fill="currentColor"
       id="rect55" />
  </g>
  <g
     transform="translate(43.3076,9.1688528)"
     id="g57">
    <path
       transform="scale(0.004,-0.004)"
       d="M 0,-46 C 0,45 116,136 217,136 280,136 326,101 326,46 326,-41 216,-136 106,-136 39,-136 0,-97 0,-46 Z"
       fill="currentColor"
       id="path56" />
  </g>
  <g
     transform="translate(44.5468,6.6688528)"
     id="g58">
    <rect
       x="-0.064999998"
       y="-0.81470001"
       width="0.13"
       height="3.1285"
       ry="0.039999999"
       fill="currentColor"
       id="rect57" />
  </g>
  <g
     transform="translate(47.1518,1.6688528)"
     id="g59">
    <text
       font-family="'New Computer Modern Math'"
       font-size="2.3308px"
       text-anchor="start"
       fill="currentColor"
       id="text58"><tspan
         id="tspan58">A</tspan></text>
  </g>
  <g
     transform="translate(48.8931,2.4634528)"
     id="g60">
    <text
       font-family="'New Computer Modern Math'"
       font-size="1.648px"
       text-anchor="start"
       fill="currentColor"
       id="text59"><tspan
         id="tspan59">−</tspan></text>
  </g>
  <g
     transform="translate(47.1518,9.6688528)"
     id="g61">
    <path
       transform="scale(0.004,-0.004)"
       d="m 72,-106 c 40,0 204,110 231,143 7,9 11,19 11,28 0,22 -18,41 -42,41 C 232,106 68,-4 41,-37 34,-46 31,-56 31,-65 c 0,-22 17,-41 41,-41 z M 0,-67 c 0,71 46,203 258,203 41,0 86,-10 86,-69 0,-71 -46,-203 -258,-203 -41,0 -86,10 -86,69 z"
       fill="currentColor"
       id="path60" />
  </g>
  <g
     transform="translate(48.4642,6.6688528)"
     id="g62">
    <rect
       x="-0.064999998"
       y="-0.5"
       width="0.13"
       height="3.2409999"
       ry="0.039999999"
       fill="currentColor"
       id="rect61" />
  </g>
  <g
     transform="translate(52.1292,10.168853)"
     id="g63">
    <path
       transform="scale(0.004,-0.004)"
       d="m 72,-106 c 40,0 204,110 231,143 7,9 11,19 11,28 0,22 -18,41 -42,41 C 232,106 68,-4 41,-37 34,-46 31,-56 31,-65 c 0,-22 17,-41 41,-41 z M 0,-67 c 0,71 46,203 258,203 41,0 86,-10 86,-69 0,-71 -46,-203 -258,-203 -41,0 -86,10 -86,69 z"
       fill="currentColor"
       id="path62" />
  </g>
  <g
     transform="translate(53.4416,6.6688528)"
     id="g64">
    <rect
       x="-0.064999998"
       y="0"
       width="0.13"
       height="3.2409999"
       ry="0.039999999"
       fill="currentColor"
       id="rect63" />
  </g>
  <g
     transform="translate(58.3395,10.668853)"
     id="g65">
    <path
       transform="scale(0.004,-0.004)"
       d="m 72,-106 c 40,0 204,110 231,143 7,9 11,19 11,28 0,22 -18,41 -42,41 C 232,106 68,-4 41,-37 34,-46 31,-56 31,-65 c 0,-22 17,-41 41,-41 z M 0,-67 c 0,71 46,203 258,203 41,0 86,-10 86,-69 0,-71 -46,-203 -258,-203 -41,0 -86,10 -86,69 z"
       fill="currentColor"
       id="path64" />
  </g>
  <g
     transform="translate(59.6519,6.6688528)"
     id="g66">
    <rect
       x="-0.064999998"
       y="0"
       width="0.13"
       height="3.7409999"
       ry="0.039999999"
       fill="currentColor"
       id="rect65" />
  </g>
  <g
     transform="translate(63.3169,6.6688528)"
     id="g67">
    <path
       transform="scale(0.004,-0.004)"
       d="M 365,0 H 10 C 4,0 0,4 0,10 v 136 c 0,6 4,10 10,10 h 355 c 6,0 10,-4 10,-10 V 10 C 375,4 371,0 365,0 Z"
       fill="currentColor"
       id="path66" />
  </g>
</svg>
