<?xml version="1.0" encoding="UTF-8" standalone="no"?>
<svg
   version="1.2"
   width="179.99992mm"
   height="22.394663mm"
   viewBox="0 0 102.4299 12.7438"
   id="svg137"
   sodipodi:docname="fig_227.svg"
   xmlns:inkscape="http://www.inkscape.org/namespaces/inkscape"
   xmlns:sodipodi="http://sodipodi.sourceforge.net/DTD/sodipodi-0.dtd"
   xmlns="http://www.w3.org/2000/svg"
   xmlns:svg="http://www.w3.org/2000/svg">
  <defs
     id="defs137" />
  <sodipodi:namedview
     id="namedview137"
     pagecolor="#505050"
     bordercolor="#eeeeee"
     borderopacity="1"
     inkscape:showpageshadow="0"
     inkscape:pageopacity="0"
     inkscape:pagecheckerboard="0"
     inkscape:deskcolor="#505050"
     inkscape:document-units="mm" />
  <style
     type="text/css"
     id="style1"><![CDATA[
tspan { white-space: pre; }
]]></style>
  <g
     transform="translate(102.2399,7.0388)"
     id="g1">
    <rect
       x="0"
       y="-2"
       width="0.19"
       height="4"
       ry="0.0000"
       fill="currentColor"
       id="rect1" />
  </g>
  <g
     transform="translate(101.7499,7.0388)"
     id="g2">
    <rect
       x="0"
       y="-2"
       width="0.19"
       height="4"
       ry="0.0000"
       fill="currentColor"
       id="rect2" />
  </g>
  <g
     transform="translate(0,10.0388)"
     id="g3">
    <rect
       x="83.319199"
       y="-0.1"
       width="1.9563"
       height="0.2"
       ry="0.1"
       fill="currentColor"
       id="rect3" />
  </g>
  <g
     transform="translate(0,10.0388)"
     id="g4">
    <rect
       x="81.058197"
       y="-0.1"
       width="1.9563"
       height="0.2"
       ry="0.1"
       fill="currentColor"
       id="rect4" />
  </g>
  <g
     transform="translate(0,11.0388)"
     id="g5">
    <rect
       x="81.200401"
       y="-0.1"
       width="1.8141"
       height="0.2"
       ry="0.1"
       fill="currentColor"
       id="rect5" />
  </g>
  <g
     transform="translate(0,10.0388)"
     id="g6">
    <rect
       x="78.470802"
       y="-0.1"
       width="1.8053"
       height="0.2"
       ry="0.1"
       fill="currentColor"
       id="rect6" />
  </g>
  <g
     transform="translate(0,10.0388)"
     id="g7">
    <rect
       x="10.9151"
       y="-0.1"
       width="1.9563"
       height="0.2"
       ry="0.1"
       fill="currentColor"
       id="rect7" />
  </g>
  <g
     transform="translate(0,9.0388)"
     id="g8">
    <line
       stroke-linejoin="round"
       stroke-linecap="round"
       stroke-width="0.1"
       stroke="currentColor"
       x1="0.050000001"
       y1="0"
       x2="102.3799"
       y2="0"
       id="line7" />
  </g>
  <g
     transform="translate(0,8.0388)"
     id="g9">
    <line
       stroke-linejoin="round"
       stroke-linecap="round"
       stroke-width="0.1"
       stroke="currentColor"
       x1="0.050000001"
       y1="0"
       x2="102.3799"
       y2="0"
       id="line8" />
  </g>
  <g
     transform="translate(0,7.0388)"
     id="g10">
    <line
       stroke-linejoin="round"
       stroke-linecap="round"
       stroke-width="0.1"
       stroke="currentColor"
       x1="0.050000001"
       y1="0"
       x2="102.3799"
       y2="0"
       id="line9" />
  </g>
  <g
     transform="translate(0,6.0388)"
     id="g11">
    <line
       stroke-linejoin="round"
       stroke-linecap="round"
       stroke-width="0.1"
       stroke="currentColor"
       x1="0.050000001"
       y1="0"
       x2="102.3799"
       y2="0"
       id="line10" />
  </g>
  <g
     transform="translate(0,5.0388)"
     id="g12">
    <line
       stroke-linejoin="round"
       stroke-linecap="round"
       stroke-width="0.1"
       stroke="currentColor"
       x1="0.050000001"
       y1="0"
       x2="102.3799"
       y2="0"
       id="line11" />
  </g>
  <g
     transform="translate(68.6264,7.0388)"
     id="g13">
    <rect
       x="0"
       y="-2"
       width="0.19"
       height="4"
       ry="0.0000"
       fill="currentColor"
       id="rect12" />
  </g>
  <g
     transform="translate(36.9022,7.0388)"
     id="g14">
    <rect
       x="0"
       y="-2"
       width="0.19"
       height="4"
       ry="0.0000"
       fill="currentColor"
       id="rect13" />
  </g>
  <g
     transform="translate(92.8157,5.0388)"
     id="g15">
    <polygon
       stroke-linejoin="round"
       stroke-linecap="round"
       stroke-width="0.08"
       fill="currentColor"
       stroke="currentColor"
       points="0.04,0.2 0.04,-0.2 7.5162,-0.01 7.5162,0.39 "
       id="polygon14" />
  </g>
  <g
     transform="translate(92.8157,5.8488)"
     id="g16">
    <polygon
       stroke-linejoin="round"
       stroke-linecap="round"
       stroke-width="0.08"
       fill="currentColor"
       stroke="currentColor"
       points="0.04,0.2 0.04,-0.2 7.5162,-0.01 7.5162,0.39 "
       id="polygon15" />
  </g>
  <g
     transform="translate(82.5585,7.0388)"
     id="g17">
    <polygon
       stroke-linejoin="round"
       stroke-linecap="round"
       stroke-width="0.08"
       fill="currentColor"
       stroke="currentColor"
       points="0.04,0.2 0.04,-0.2 7.373,-1.2 7.373,-0.8 "
       id="polygon16" />
  </g>
  <g
     transform="translate(82.5585,7.8488)"
     id="g18">
    <polygon
       stroke-linejoin="round"
       stroke-linecap="round"
       stroke-width="0.08"
       fill="currentColor"
       stroke="currentColor"
       points="0.04,0.2 0.04,-0.2 7.373,-1.2 7.373,-0.8 "
       id="polygon17" />
  </g>
  <g
     transform="translate(8.3276,2.0388)"
     id="g19">
    <text
       font-family="'New Computer Modern Math'"
       font-size="2.3308px"
       text-anchor="start"
       fill="currentColor"
       id="text18"><tspan
         id="tspan18">C</tspan></text>
  </g>
  <g
     transform="translate(10.0006,2.8334)"
     id="g20">
    <text
       font-family="'New Computer Modern Math'"
       font-size="1.648px"
       text-anchor="start"
       fill="currentColor"
       id="text19"><tspan
         id="tspan19">−</tspan></text>
  </g>
  <g
     transform="translate(11.2981,2.8334)"
     id="g21">
    <text
       font-family="'New Computer Modern Math'"
       font-size="1.648px"
       text-anchor="start"
       fill="currentColor"
       id="text20"><tspan
         id="tspan20">7</tspan></text>
  </g>
  <g
     transform="translate(8.3276,7.0388)"
     id="g22">
    <path
       transform="scale(0.004,-0.004)"
       d="m 70,205 c 79,0 46,-98 91,-98 16,0 54,48 61,63 3,6 8,9 14,9 6,0 12,-3 14,-9 L 127,-250 c -8,-7 -17,-10 -27,-10 -10,0 -20,3 -28,10 L 189,76 C 155,64 120,54 84,54 26,54 -1,95 -1,134 c 0,36 24,71 71,71 z"
       fill="currentColor"
       id="path21" />
  </g>
  <g
     transform="translate(0.8,8.0388)"
     id="g23">
    <path
       transform="scale(0.004,-0.004)"
       d="m 266,-635 h -6 c -108,0 -195,88 -195,197 0,58 53,103 112,103 54,0 95,-47 95,-103 0,-52 -43,-95 -95,-95 -11,0 -21,2 -31,6 26,-39 68,-65 117,-65 h 4 z m 135,786 c 19,-89 48,-242 60,-354 76,27 112,94 112,163 0,89 -60,179 -172,191 z M 74,28 c 0,-112 98,-247 278,-247 21,0 44,2 68,6 -7,64 -29,203 -63,364 -79,-8 -124,-61 -124,-119 0,-44 25,-91 81,-123 5,-5 7,-10 7,-15 0,-11 -10,-22 -22,-22 -15,0 -126,62 -126,187 0,88 58,174 160,197 -14,58 -29,117 -46,175 C 180,310 74,188 74,28 Z m 283,1166 c 28,0 143,-206 143,-361 0,-143 -86,-255 -180,-364 21,-68 39,-138 56,-207 5,0 10,1 14,1 155,0 255,-129 255,-262 0,-113 -74,-212 -180,-245 3,-35 5,-70 5,-105 0,-19 -1,-39 -2,-58 -7,-119 -88,-225 -202,-228 l 1,43 c 93,2 153,92 159,191 1,18 2,37 2,55 0,31 -1,61 -4,92 -28,-5 -55,-8 -80,-8 -239,0 -342,217 -342,374 0,177 131,306 248,441 -29,96 -52,170 -52,346 0,189 144,295 159,295 z M 247,782 c 0,-55 12,-115 35,-190 83,100 147,202 147,326 0,40 -6,82 -21,127 -49,-24 -161,-97 -161,-263 z"
       fill="currentColor"
       id="path22" />
  </g>
  <g
     transform="translate(5.0216,7.0388)"
     id="g24">
    <path
       transform="scale(0.004,-0.004)"
       d="m 263,265 c 0,-33 70,-23 70,-125 C 333,48 254,0 154,0 75,0 0,42 0,113 c 0,36 30,66 66,66 36,0 65,-30 65,-66 0,-25 -40,-28 -40,-53 0,-27 32,-37 63,-37 49,0 63,61 63,117 v 16 c 0,54 -2,94 -50,94 H 87 c -10,0 -14,8 -14,15 0,7 4,14 14,14 h 80 c 49,0 50,43 50,99 v 8 c 0,54 -18,91 -67,91 -28,0 -57,-9 -57,-33 0,-22 35,-25 35,-47 0,-32 -25,-58 -57,-58 -32,0 -58,26 -58,58 0,64 67,103 137,103 91,0 169,-33 169,-114 0,-122 -56,-80 -56,-121 z"
       fill="currentColor"
       id="path23" />
  </g>
  <g
     transform="translate(4.885,9.0388)"
     id="g25">
    <path
       transform="scale(0.004,-0.004)"
       d="m 196,117 h 117 c 0,-48 27,-94 72,-94 8,0 12,-5 12,-11 C 397,6 393,0 385,0 341,0 298,13 254,13 210,13 167,0 123,0 c -8,0 -12,6 -12,12 0,6 4,11 12,11 45,0 73,46 73,94 z m 29,370 c 36,0 69,14 76,14 8,0 14,-6 14,-12 0,-2 -1,-3 -2,-5 L 29,154 h 167 v 131 c 0,34 34,27 68,72 22,30 23,56 36,56 6,0 13,-5 13,-14 V 154 h 72 c 10,0 15,-7 15,-14 0,-7 -5,-15 -15,-15 h -72 v -8 H 196 v 8 H 29 c -23,0 -31,14 -31,23 0,12 140,143 140,336 0,9 6,16 13,16 5,0 39,-13 74,-13 z"
       fill="currentColor"
       id="path24" />
  </g>
  <g
     transform="translate(11.2412,10.0388)"
     id="g26">
    <path
       transform="scale(0.004,-0.004)"
       d="M 0,-46 C 0,45 116,136 217,136 280,136 326,101 326,46 326,-41 216,-136 106,-136 39,-136 0,-97 0,-46 Z"
       fill="currentColor"
       id="path25" />
  </g>
  <g
     transform="translate(12.4804,7.0388)"
     id="g27">
    <rect
       x="-0.064999998"
       y="-1.2029999"
       width="0.13"
       height="4.0167999"
       ry="0.039999999"
       fill="currentColor"
       id="rect26" />
  </g>
  <g
     transform="translate(83.6453,12.6438)"
     id="g28">
    <line
       stroke-linejoin="round"
       stroke-linecap="round"
       stroke-width="0.2"
       stroke="currentColor"
       x1="16.726601"
       y1="0"
       x2="16.726601"
       y2="-1"
       id="line27" />
  </g>
  <g
     transform="translate(83.6453,12.6438)"
     id="g29">
    <line
       stroke-linejoin="round"
       stroke-linecap="round"
       stroke-width="0.2"
       stroke="currentColor"
       x1="0"
       y1="0"
       x2="0"
       y2="-1"
       id="line28" />
  </g>
  <g
     transform="translate(83.6453,12.6438)"
     id="g30">
    <line
       stroke-linejoin="round"
       stroke-linecap="round"
       stroke-width="0.2"
       stroke="currentColor"
       x1="0"
       y1="0"
       x2="16.726601"
       y2="0"
       id="line29" />
  </g>
  <g
     transform="translate(14.2154,9.0388)"
     id="g31">
    <path
       transform="scale(0.004,-0.004)"
       d="M 0,-46 C 0,45 116,136 217,136 280,136 326,101 326,46 326,-41 216,-136 106,-136 39,-136 0,-97 0,-46 Z"
       fill="currentColor"
       id="path30" />
  </g>
  <g
     transform="translate(15.4546,7.0388)"
     id="g32">
    <rect
       x="-0.064999998"
       y="-1.7970001"
       width="0.13"
       height="3.6108"
       ry="0.039999999"
       fill="currentColor"
       id="rect31" />
  </g>
  <g
     transform="translate(13.0654,9.0388)"
     id="g33">
    <path
       transform="scale(0.004,-0.004)"
       d="m 27,41 -1,-66 v -11 c 0,-22 1,-44 4,-66 45,38 93,80 93,139 0,33 -14,67 -43,67 C 49,104 28,74 27,41 Z m -42,-179 -12,595 c 8,5 18,8 27,8 9,0 19,-3 27,-8 L 20,112 c 25,21 58,34 91,34 52,0 89,-48 89,-102 0,-80 -86,-117 -147,-169 -15,-13 -24,-38 -45,-38 -13,0 -23,11 -23,25 z"
       fill="currentColor"
       id="path32" />
  </g>
  <g
     transform="translate(71.8606,4.2288)"
     id="g34">
    <polygon
       stroke-linejoin="round"
       stroke-linecap="round"
       stroke-width="0.08"
       fill="currentColor"
       stroke="currentColor"
       points="0.04,0.2 0.04,-0.2 8.0494,1.61 8.0494,2.01 "
       id="polygon33" />
  </g>
  <g
     transform="translate(71.8606,5.0388)"
     id="g35">
    <polygon
       stroke-linejoin="round"
       stroke-linecap="round"
       stroke-width="0.08"
       fill="currentColor"
       stroke="currentColor"
       points="0.04,0.2 0.04,-0.2 8.0494,1.61 8.0494,2.01 "
       id="polygon34" />
  </g>
  <g
     transform="translate(16.7264,8.0388)"
     id="g36">
    <path
       transform="scale(0.004,-0.004)"
       d="M 0,-46 C 0,45 116,136 217,136 280,136 326,101 326,46 326,-41 216,-136 106,-136 39,-136 0,-97 0,-46 Z"
       fill="currentColor"
       id="path35" />
  </g>
  <g
     transform="translate(17.9656,7.0388)"
     id="g37">
    <rect
       x="-0.064999998"
       y="-3.5"
       width="0.13"
       height="4.3137999"
       ry="0.039999999"
       fill="currentColor"
       id="rect36" />
  </g>
  <g
     transform="translate(60.8414,4.0388)"
     id="g38">
    <polygon
       stroke-linejoin="round"
       stroke-linecap="round"
       stroke-width="0.08"
       fill="currentColor"
       stroke="currentColor"
       points="0.04,0.2 0.04,-0.2 6.623,-0.2 6.623,0.2 "
       id="polygon37" />
  </g>
  <g
     transform="translate(60.8414,4.8488)"
     id="g39">
    <polygon
       stroke-linejoin="round"
       stroke-linecap="round"
       stroke-width="0.08"
       fill="currentColor"
       stroke="currentColor"
       points="0.04,0.2 0.04,-0.2 6.623,-0.2 6.623,0.2 "
       id="polygon38" />
  </g>
  <g
     transform="translate(19.7006,7.0388)"
     id="g40">
    <path
       transform="scale(0.004,-0.004)"
       d="M 0,-46 C 0,45 116,136 217,136 280,136 326,101 326,46 326,-41 216,-136 106,-136 39,-136 0,-97 0,-46 Z"
       fill="currentColor"
       id="path39" />
  </g>
  <g
     transform="translate(20.9398,7.0388)"
     id="g41">
    <rect
       x="-0.064999998"
       y="-3.5"
       width="0.13"
       height="3.3138001"
       ry="0.039999999"
       fill="currentColor"
       id="rect40" />
  </g>
  <g
     transform="translate(18.5506,7.0388)"
     id="g42">
    <path
       transform="scale(0.004,-0.004)"
       d="m 27,41 -1,-66 v -11 c 0,-22 1,-44 4,-66 45,38 93,80 93,139 0,33 -14,67 -43,67 C 49,104 28,74 27,41 Z m -42,-179 -12,595 c 8,5 18,8 27,8 9,0 19,-3 27,-8 L 20,112 c 25,21 58,34 91,34 52,0 89,-48 89,-102 0,-80 -86,-117 -147,-169 -15,-13 -24,-38 -45,-38 -13,0 -23,11 -23,25 z"
       fill="currentColor"
       id="path41" />
  </g>
  <g
     transform="translate(48.7193,8.2288)"
     id="g43">
    <polygon
       stroke-linejoin="round"
       stroke-linecap="round"
       stroke-width="0.08"
       fill="currentColor"
       stroke="currentColor"
       points="0.04,0.2 0.04,-0.2 8.2994,0.8 8.2994,1.2 "
       id="polygon42" />
  </g>
  <g
     transform="translate(48.7193,9.0388)"
     id="g44">
    <polygon
       stroke-linejoin="round"
       stroke-linecap="round"
       stroke-width="0.08"
       fill="currentColor"
       stroke="currentColor"
       points="0.04,0.2 0.04,-0.2 8.2994,0.8 8.2994,1.2 "
       id="polygon43" />
  </g>
  <g
     transform="translate(21.7116,8.0388)"
     id="g45">
    <path
       transform="scale(0.004,-0.004)"
       d="M 0,-46 C 0,45 116,136 217,136 280,136 326,101 326,46 326,-41 216,-136 106,-136 39,-136 0,-97 0,-46 Z"
       fill="currentColor"
       id="path44" />
  </g>
  <g
     transform="translate(22.9508,7.0388)"
     id="g46">
    <rect
       x="-0.064999998"
       y="-3.5"
       width="0.13"
       height="4.3137999"
       ry="0.039999999"
       fill="currentColor"
       id="rect45" />
  </g>
  <g
     transform="translate(38.9622,7.2288)"
     id="g47">
    <polygon
       stroke-linejoin="round"
       stroke-linecap="round"
       stroke-width="0.08"
       fill="currentColor"
       stroke="currentColor"
       points="0.04,0.2 0.04,-0.2 6.873,-0.2 6.873,0.2 "
       id="polygon46" />
  </g>
  <g
     transform="translate(38.9622,8.0388)"
     id="g48">
    <polygon
       stroke-linejoin="round"
       stroke-linecap="round"
       stroke-width="0.08"
       fill="currentColor"
       stroke="currentColor"
       points="0.04,0.2 0.04,-0.2 6.873,-0.2 6.873,0.2 "
       id="polygon47" />
  </g>
  <g
     transform="translate(24.8658,8.0388)"
     id="g49">
    <path
       transform="scale(0.004,-0.004)"
       d="M 0,-46 C 0,45 116,136 217,136 280,136 326,101 326,46 326,-41 216,-136 106,-136 39,-136 0,-97 0,-46 Z"
       fill="currentColor"
       id="path48" />
  </g>
  <g
     transform="translate(26.105,7.0388)"
     id="g50">
    <rect
       x="-0.064999998"
       y="-3.5"
       width="0.13"
       height="4.3137999"
       ry="0.039999999"
       fill="currentColor"
       id="rect49" />
  </g>
  <g
     transform="translate(23.4158,8.0388)"
     id="g51">
    <path
       transform="scale(0.004,-0.004)"
       d="m 0,119 c 0,8 5,15 13,18 l 46,17 v 158 c 0,10 8,19 18,19 10,0 19,-9 19,-19 V 167 l 83,31 v 158 c 0,10 9,19 19,19 10,0 18,-9 18,-19 V 211 l 32,12 c 2,1 5,1 7,1 11,0 20,-9 20,-20 v -60 c 0,-8 -5,-16 -13,-19 L 216,109 V -51 l 32,11 c 2,1 5,1 7,1 11,0 20,-9 20,-20 v -60 c 0,-8 -5,-15 -13,-18 l -46,-17 v -158 c 0,-10 -8,-19 -18,-19 -10,0 -19,9 -19,19 v 145 l -83,-31 v -158 c 0,-10 -9,-19 -19,-19 -10,0 -18,9 -18,19 v 145 l -32,-12 c -2,-1 -5,-1 -7,-1 -11,0 -20,9 -20,20 v 60 c 0,8 5,16 13,19 l 46,16 V 51 L 27,40 C 25,39 22,39 20,39 9,39 0,48 0,59 Z M 179,95 96,65 V -95 l 83,30 z"
       fill="currentColor"
       id="path50" />
  </g>
  <g
     transform="translate(27.145,9.7288)"
     id="g52">
    <polygon
       stroke-linejoin="round"
       stroke-linecap="round"
       stroke-width="0.08"
       fill="currentColor"
       stroke="currentColor"
       points="0.04,0.2 0.04,-0.2 7.8362,-1.7 7.8362,-1.3 "
       id="polygon51" />
  </g>
  <g
     transform="translate(27.145,10.5388)"
     id="g53">
    <polygon
       stroke-linejoin="round"
       stroke-linecap="round"
       stroke-width="0.08"
       fill="currentColor"
       stroke="currentColor"
       points="0.04,0.2 0.04,-0.2 7.8362,-1.7 7.8362,-1.3 "
       id="polygon52" />
  </g>
  <g
     transform="translate(27.145,7.5388)"
     id="g54">
    <path
       transform="scale(0.004,-0.004)"
       d="M 0,-46 C 0,45 116,136 217,136 280,136 326,101 326,46 326,-41 216,-136 106,-136 39,-136 0,-97 0,-46 Z"
       fill="currentColor"
       id="path53" />
  </g>
  <g
     transform="translate(27.21,7.0388)"
     id="g55">
    <rect
       x="-0.064999998"
       y="0.68620002"
       width="0.13"
       height="2.8013999"
       ry="0.039999999"
       fill="currentColor"
       id="rect54" />
  </g>
  <g
     transform="translate(17.9006,3.5388)"
     id="g56">
    <polygon
       stroke-linejoin="round"
       stroke-linecap="round"
       stroke-width="0.08"
       fill="currentColor"
       stroke="currentColor"
       points="0.04,0.2 0.04,-0.2 8.2294,-0.2 8.2294,0.2 "
       id="polygon55" />
  </g>
  <g
     transform="translate(17.9006,4.3488)"
     id="g57">
    <polygon
       stroke-linejoin="round"
       stroke-linecap="round"
       stroke-width="0.08"
       fill="currentColor"
       stroke="currentColor"
       points="0.04,0.2 0.04,-0.2 8.2294,-0.2 8.2294,0.2 "
       id="polygon56" />
  </g>
  <g
     transform="translate(29.656,6.5388)"
     id="g58">
    <path
       transform="scale(0.004,-0.004)"
       d="M 0,-46 C 0,45 116,136 217,136 280,136 326,101 326,46 326,-41 216,-136 106,-136 39,-136 0,-97 0,-46 Z"
       fill="currentColor"
       id="path57" />
  </g>
  <g
     transform="translate(29.721,7.0388)"
     id="g59">
    <rect
       x="-0.064999998"
       y="-0.31380001"
       width="0.13"
       height="3.3232"
       ry="0.039999999"
       fill="currentColor"
       id="rect58" />
  </g>
  <g
     transform="translate(12.4154,5.8488)"
     id="g60">
    <polygon
       stroke-linejoin="round"
       stroke-linecap="round"
       stroke-width="0.08"
       fill="currentColor"
       stroke="currentColor"
       points="0.04,0.2 0.04,-0.2 3.0642,-0.82 3.0642,-0.42 "
       id="polygon59" />
  </g>
  <g
     transform="translate(12.4154,6.6588)"
     id="g61">
    <polygon
       stroke-linejoin="round"
       stroke-linecap="round"
       stroke-width="0.08"
       fill="currentColor"
       stroke="currentColor"
       points="0.04,0.2 0.04,-0.2 3.0642,-0.82 3.0642,-0.42 "
       id="polygon60" />
  </g>
  <g
     transform="translate(32.6302,5.5388)"
     id="g62">
    <path
       transform="scale(0.004,-0.004)"
       d="M 0,-46 C 0,45 116,136 217,136 280,136 326,101 326,46 326,-41 216,-136 106,-136 39,-136 0,-97 0,-46 Z"
       fill="currentColor"
       id="path61" />
  </g>
  <g
     transform="translate(32.6952,7.0388)"
     id="g63">
    <rect
       x="-0.064999998"
       y="-1.3138"
       width="0.13"
       height="3.7567999"
       ry="0.039999999"
       fill="currentColor"
       id="rect62" />
  </g>
  <g
     transform="translate(31.4802,5.5388)"
     id="g64">
    <path
       transform="scale(0.004,-0.004)"
       d="m 27,41 -1,-66 v -11 c 0,-22 1,-44 4,-66 45,38 93,80 93,139 0,33 -14,67 -43,67 C 49,104 28,74 27,41 Z m -42,-179 -12,595 c 8,5 18,8 27,8 9,0 19,-3 27,-8 L 20,112 c 25,21 58,34 91,34 52,0 89,-48 89,-102 0,-80 -86,-117 -147,-169 -15,-13 -24,-38 -45,-38 -13,0 -23,11 -23,25 z"
       fill="currentColor"
       id="path63" />
  </g>
  <g
     transform="translate(34.8912,5.0388)"
     id="g65">
    <path
       transform="scale(0.004,-0.004)"
       d="M 0,-46 C 0,45 116,136 217,136 280,136 326,101 326,46 326,-41 216,-136 106,-136 39,-136 0,-97 0,-46 Z"
       fill="currentColor"
       id="path64" />
  </g>
  <g
     transform="translate(34.9562,7.0388)"
     id="g66">
    <rect
       x="-0.064999998"
       y="-1.8138"
       width="0.13"
       height="3.8262"
       ry="0.039999999"
       fill="currentColor"
       id="rect65" />
  </g>
  <g
     transform="translate(11.2412,12.1438)"
     id="g67">
    <line
       stroke-linejoin="round"
       stroke-linecap="round"
       stroke-width="0.2"
       stroke="currentColor"
       x1="17.208"
       y1="0"
       x2="17.208"
       y2="-1"
       id="line66" />
  </g>
  <g
     transform="translate(11.2412,12.1438)"
     id="g68">
    <line
       stroke-linejoin="round"
       stroke-linecap="round"
       stroke-width="0.2"
       stroke="currentColor"
       x1="0"
       y1="0"
       x2="0"
       y2="-1"
       id="line67" />
  </g>
  <g
     transform="translate(11.2412,12.1438)"
     id="g69">
    <line
       stroke-linejoin="round"
       stroke-linecap="round"
       stroke-width="0.2"
       stroke="currentColor"
       x1="0"
       y1="0"
       x2="17.208"
       y2="0"
       id="line68" />
  </g>
  <g
     transform="translate(38.9622,2.0388)"
     id="g70">
    <text
       font-family="'New Computer Modern Math'"
       font-size="2.3308px"
       text-anchor="start"
       fill="currentColor"
       id="text69"><tspan
         id="tspan69">F</tspan></text>
  </g>
  <g
     transform="translate(40.4986,2.8334)"
     id="g71">
    <text
       font-family="'New Computer Modern Math'"
       font-size="1.648px"
       text-anchor="start"
       fill="currentColor"
       id="text70"><tspan
         id="tspan70">7</tspan></text>
  </g>
  <g
     transform="translate(38.9622,4.5388)"
     id="g72">
    <path
       transform="scale(0.004,-0.004)"
       d="M 0,-46 C 0,45 116,136 217,136 280,136 326,101 326,46 326,-41 216,-136 106,-136 39,-136 0,-97 0,-46 Z"
       fill="currentColor"
       id="path71" />
  </g>
  <g
     transform="translate(39.0272,7.0388)"
     id="g73">
    <rect
       x="-0.064999998"
       y="-2.3138001"
       width="0.13"
       height="3.3138001"
       ry="0.039999999"
       fill="currentColor"
       id="rect72" />
  </g>
  <g
     transform="translate(37.8122,4.5388)"
     id="g74">
    <path
       transform="scale(0.004,-0.004)"
       d="m 27,41 -1,-66 v -11 c 0,-22 1,-44 4,-66 45,38 93,80 93,139 0,33 -14,67 -43,67 C 49,104 28,74 27,41 Z m -42,-179 -12,595 c 8,5 18,8 27,8 9,0 19,-3 27,-8 L 20,112 c 25,21 58,34 91,34 52,0 89,-48 89,-102 0,-80 -86,-117 -147,-169 -15,-13 -24,-38 -45,-38 -13,0 -23,11 -23,25 z"
       fill="currentColor"
       id="path73" />
  </g>
  <g
     transform="translate(41.2232,5.0388)"
     id="g75">
    <path
       transform="scale(0.004,-0.004)"
       d="M 0,-46 C 0,45 116,136 217,136 280,136 326,101 326,46 326,-41 216,-136 106,-136 39,-136 0,-97 0,-46 Z"
       fill="currentColor"
       id="path74" />
  </g>
  <g
     transform="translate(41.2882,7.0388)"
     id="g76">
    <rect
       x="-0.064999998"
       y="-1.8138"
       width="0.13"
       height="2.8138001"
       ry="0.039999999"
       fill="currentColor"
       id="rect75" />
  </g>
  <g
     transform="translate(43.4841,4.5388)"
     id="g77">
    <path
       transform="scale(0.004,-0.004)"
       d="M 0,-46 C 0,45 116,136 217,136 280,136 326,101 326,46 326,-41 216,-136 106,-136 39,-136 0,-97 0,-46 Z"
       fill="currentColor"
       id="path76" />
  </g>
  <g
     transform="translate(43.5491,7.0388)"
     id="g78">
    <rect
       x="-0.064999998"
       y="-2.3138001"
       width="0.13"
       height="3.3138001"
       ry="0.039999999"
       fill="currentColor"
       id="rect77" />
  </g>
  <g
     transform="translate(45.7451,5.0388)"
     id="g79">
    <path
       transform="scale(0.004,-0.004)"
       d="M 0,-46 C 0,45 116,136 217,136 280,136 326,101 326,46 326,-41 216,-136 106,-136 39,-136 0,-97 0,-46 Z"
       fill="currentColor"
       id="path78" />
  </g>
  <g
     transform="translate(45.8101,7.0388)"
     id="g80">
    <rect
       x="-0.064999998"
       y="-1.8138"
       width="0.13"
       height="2.8138001"
       ry="0.039999999"
       fill="currentColor"
       id="rect79" />
  </g>
  <g
     transform="translate(48.7193,5.5388)"
     id="g81">
    <path
       transform="scale(0.004,-0.004)"
       d="M 0,-46 C 0,45 116,136 217,136 280,136 326,101 326,46 326,-41 216,-136 106,-136 39,-136 0,-97 0,-46 Z"
       fill="currentColor"
       id="path80" />
  </g>
  <g
     transform="translate(48.7843,7.0388)"
     id="g82">
    <rect
       x="-0.064999998"
       y="-1.3138"
       width="0.13"
       height="3.3216"
       ry="0.039999999"
       fill="currentColor"
       id="rect81" />
  </g>
  <g
     transform="translate(47.5693,5.5388)"
     id="g83">
    <path
       transform="scale(0.004,-0.004)"
       d="m 27,41 -1,-66 v -11 c 0,-22 1,-44 4,-66 45,38 93,80 93,139 0,33 -14,67 -43,67 C 49,104 28,74 27,41 Z m -42,-179 -12,595 c 8,5 18,8 27,8 9,0 19,-3 27,-8 L 20,112 c 25,21 58,34 91,34 52,0 89,-48 89,-102 0,-80 -86,-117 -147,-169 -15,-13 -24,-38 -45,-38 -13,0 -23,11 -23,25 z"
       fill="currentColor"
       id="path82" />
  </g>
  <g
     transform="translate(51.6935,6.0388)"
     id="g84">
    <path
       transform="scale(0.004,-0.004)"
       d="M 0,-46 C 0,45 116,136 217,136 280,136 326,101 326,46 326,-41 216,-136 106,-136 39,-136 0,-97 0,-46 Z"
       fill="currentColor"
       id="path83" />
  </g>
  <g
     transform="translate(51.7585,7.0388)"
     id="g85">
    <rect
       x="-0.064999998"
       y="-0.81379998"
       width="0.13"
       height="3.1782"
       ry="0.039999999"
       fill="currentColor"
       id="rect84" />
  </g>
  <g
     transform="translate(50.5435,6.0388)"
     id="g86">
    <path
       transform="scale(0.004,-0.004)"
       d="m 27,41 -1,-66 v -11 c 0,-22 1,-44 4,-66 45,38 93,80 93,139 0,33 -14,67 -43,67 C 49,104 28,74 27,41 Z m -42,-179 -12,595 c 8,5 18,8 27,8 9,0 19,-3 27,-8 L 20,112 c 25,21 58,34 91,34 52,0 89,-48 89,-102 0,-80 -86,-117 -147,-169 -15,-13 -24,-38 -45,-38 -13,0 -23,11 -23,25 z"
       fill="currentColor"
       id="path85" />
  </g>
  <g
     transform="translate(53.9545,6.5388)"
     id="g87">
    <path
       transform="scale(0.004,-0.004)"
       d="M 0,-46 C 0,45 116,136 217,136 280,136 326,101 326,46 326,-41 216,-136 106,-136 39,-136 0,-97 0,-46 Z"
       fill="currentColor"
       id="path86" />
  </g>
  <g
     transform="translate(54.0195,7.0388)"
     id="g88">
    <rect
       x="-0.064999998"
       y="-0.31380001"
       width="0.13"
       height="2.9493999"
       ry="0.039999999"
       fill="currentColor"
       id="rect87" />
  </g>
  <g
     transform="translate(56.9287,7.0388)"
     id="g89">
    <path
       transform="scale(0.004,-0.004)"
       d="M 0,-46 C 0,45 116,136 217,136 280,136 326,101 326,46 326,-41 216,-136 106,-136 39,-136 0,-97 0,-46 Z"
       fill="currentColor"
       id="path88" />
  </g>
  <g
     transform="translate(56.9937,7.0388)"
     id="g90">
    <rect
       x="-0.064999998"
       y="0.18619999"
       width="0.13"
       height="2.806"
       ry="0.039999999"
       fill="currentColor"
       id="rect89" />
  </g>
  <g
     transform="translate(55.7787,7.0388)"
     id="g91">
    <path
       transform="scale(0.004,-0.004)"
       d="m 27,41 -1,-66 v -11 c 0,-22 1,-44 4,-66 45,38 93,80 93,139 0,33 -14,67 -43,67 C 49,104 28,74 27,41 Z m -42,-179 -12,595 c 8,5 18,8 27,8 9,0 19,-3 27,-8 L 20,112 c 25,21 58,34 91,34 52,0 89,-48 89,-102 0,-80 -86,-117 -147,-169 -15,-13 -24,-38 -45,-38 -13,0 -23,11 -23,25 z"
       fill="currentColor"
       id="path90" />
  </g>
  <g
     transform="translate(59.6672,7.5388)"
     id="g92">
    <path
       transform="scale(0.004,-0.004)"
       d="M 0,-46 C 0,45 116,136 217,136 280,136 326,101 326,46 326,-41 216,-136 106,-136 39,-136 0,-97 0,-46 Z"
       fill="currentColor"
       id="path91" />
  </g>
  <g
     transform="translate(60.9064,7.0388)"
     id="g93">
    <rect
       x="-0.064999998"
       y="-3"
       width="0.13"
       height="3.3138001"
       ry="0.039999999"
       fill="currentColor"
       id="rect92" />
  </g>
  <g
     transform="translate(58.6329,7.5388)"
     id="g94">
    <path
       transform="scale(0.004,-0.004)"
       d="m -7,375 c 8,4 17,7 25,7 8,0 16,-3 24,-7 l -2,-183 106,20 h 3 c 10,0 18,-7 18,-17 l 7,-570 c -8,-4 -17,-7 -25,-7 -8,0 -16,3 -24,7 l 2,183 -106,-20 h -3 c -10,0 -18,7 -18,17 z M 131,112 39,95 l -3,-207 92,17 z"
       fill="currentColor"
       id="path93" />
  </g>
  <g
     transform="translate(61.9282,7.0388)"
     id="g95">
    <path
       transform="scale(0.004,-0.004)"
       d="M 0,-46 C 0,45 116,136 217,136 280,136 326,101 326,46 326,-41 216,-136 106,-136 39,-136 0,-97 0,-46 Z"
       fill="currentColor"
       id="path94" />
  </g>
  <g
     transform="translate(63.1674,7.0388)"
     id="g96">
    <rect
       x="-0.064999998"
       y="-3"
       width="0.13"
       height="2.8138001"
       ry="0.039999999"
       fill="currentColor"
       id="rect95" />
  </g>
  <g
     transform="translate(64.1892,6.5388)"
     id="g97">
    <path
       transform="scale(0.004,-0.004)"
       d="M 0,-46 C 0,45 116,136 217,136 280,136 326,101 326,46 326,-41 216,-136 106,-136 39,-136 0,-97 0,-46 Z"
       fill="currentColor"
       id="path96" />
  </g>
  <g
     transform="translate(65.4284,7.0388)"
     id="g98">
    <rect
       x="-0.064999998"
       y="-3"
       width="0.13"
       height="2.3138001"
       ry="0.039999999"
       fill="currentColor"
       id="rect97" />
  </g>
  <g
     transform="translate(66.2002,7.5388)"
     id="g99">
    <path
       transform="scale(0.004,-0.004)"
       d="M 0,-46 C 0,45 116,136 217,136 280,136 326,101 326,46 326,-41 216,-136 106,-136 39,-136 0,-97 0,-46 Z"
       fill="currentColor"
       id="path98" />
  </g>
  <g
     transform="translate(67.4394,7.0388)"
     id="g100">
    <rect
       x="-0.064999998"
       y="-3"
       width="0.13"
       height="3.3138001"
       ry="0.039999999"
       fill="currentColor"
       id="rect99" />
  </g>
  <g
     transform="translate(70.6864,2.0388)"
     id="g101">
    <text
       font-family="'New Computer Modern Math'"
       font-size="2.3308px"
       text-anchor="start"
       fill="currentColor"
       id="text100"><tspan
         id="tspan100">B</tspan></text>
  </g>
  <g
     transform="translate(72.5425,1.7556)"
     id="g102">
    <path
       transform="scale(0.0038,-0.0038)"
       d="m 29,39 -2,-64 v -11 c 0,-22 2,-43 5,-65 44,38 91,80 91,138 0,33 -13,66 -42,66 C 50,103 30,72 29,39 Z m -57,415 c 9,5 18,8 28,8 10,0 19,-3 28,-8 L 21,111 c 25,23 58,36 92,36 51,0 87,-49 87,-103 0,-79 -84,-117 -144,-169 -16,-14 -25,-41 -47,-41 -14,0 -25,13 -25,27 z"
       fill="currentColor"
       id="path101" />
  </g>
  <g
     transform="translate(73.2976,2.8334)"
     id="g103">
    <text
       font-family="'New Computer Modern Math'"
       font-size="1.648px"
       text-anchor="start"
       fill="currentColor"
       id="text102"><tspan
         id="tspan102">−</tspan></text>
  </g>
  <g
     transform="translate(74.595,2.8334)"
     id="g104">
    <text
       font-family="'New Computer Modern Math'"
       font-size="1.648px"
       text-anchor="start"
       fill="currentColor"
       id="text103"><tspan
         id="tspan103">7</tspan></text>
  </g>
  <g
     transform="translate(70.6864,7.0388)"
     id="g105">
    <path
       transform="scale(0.004,-0.004)"
       d="M 0,-46 C 0,45 116,136 217,136 280,136 326,101 326,46 326,-41 216,-136 106,-136 39,-136 0,-97 0,-46 Z"
       fill="currentColor"
       id="path104" />
  </g>
  <g
     transform="translate(71.9256,7.0388)"
     id="g106">
    <rect
       x="-0.064999998"
       y="-2.7955"
       width="0.13"
       height="2.6092999"
       ry="0.039999999"
       fill="currentColor"
       id="rect105" />
  </g>
  <g
     transform="translate(69.5364,7.0388)"
     id="g107">
    <path
       transform="scale(0.004,-0.004)"
       d="m 27,41 -1,-66 v -11 c 0,-22 1,-44 4,-66 45,38 93,80 93,139 0,33 -14,67 -43,67 C 49,104 28,74 27,41 Z m -42,-179 -12,595 c 8,5 18,8 27,8 9,0 19,-3 27,-8 L 20,112 c 25,21 58,34 91,34 52,0 89,-48 89,-102 0,-80 -86,-117 -147,-169 -15,-13 -24,-38 -45,-38 -13,0 -23,11 -23,25 z"
       fill="currentColor"
       id="path106" />
  </g>
  <g
     transform="translate(72.6974,8.5388)"
     id="g108">
    <path
       transform="scale(0.004,-0.004)"
       d="M 0,-46 C 0,45 116,136 217,136 280,136 326,101 326,46 326,-41 216,-136 106,-136 39,-136 0,-97 0,-46 Z"
       fill="currentColor"
       id="path107" />
  </g>
  <g
     transform="translate(73.9366,7.0388)"
     id="g109">
    <rect
       x="-0.064999998"
       y="-2.3455"
       width="0.13"
       height="3.6593001"
       ry="0.039999999"
       fill="currentColor"
       id="rect108" />
  </g>
  <g
     transform="translate(100.3068,7.0388)"
     id="g110">
    <rect
       x="-0.064999998"
       y="-1.8116"
       width="0.13"
       height="2.6254001"
       ry="0.039999999"
       fill="currentColor"
       id="rect109" />
  </g>
  <g
     transform="translate(75.6716,9.5388)"
     id="g111">
    <path
       transform="scale(0.004,-0.004)"
       d="M 0,-46 C 0,45 116,136 217,136 280,136 326,101 326,46 326,-41 216,-136 106,-136 39,-136 0,-97 0,-46 Z"
       fill="currentColor"
       id="path110" />
  </g>
  <g
     transform="translate(76.9108,7.0388)"
     id="g112">
    <rect
       x="-0.064999998"
       y="-1.6799999"
       width="0.13"
       height="3.9937999"
       ry="0.039999999"
       fill="currentColor"
       id="rect111" />
  </g>
  <g
     transform="translate(74.5216,9.5388)"
     id="g113">
    <path
       transform="scale(0.004,-0.004)"
       d="m 27,41 -1,-66 v -11 c 0,-22 1,-44 4,-66 45,38 93,80 93,139 0,33 -14,67 -43,67 C 49,104 28,74 27,41 Z m -42,-179 -12,595 c 8,5 18,8 27,8 9,0 19,-3 27,-8 L 20,112 c 25,21 58,34 91,34 52,0 89,-48 89,-102 0,-80 -86,-117 -147,-169 -15,-13 -24,-38 -45,-38 -13,0 -23,11 -23,25 z"
       fill="currentColor"
       id="path112" />
  </g>
  <g
     transform="translate(99.0676,8.0388)"
     id="g114">
    <path
       transform="scale(0.004,-0.004)"
       d="M 0,-46 C 0,45 116,136 217,136 280,136 326,101 326,46 326,-41 216,-136 106,-136 39,-136 0,-97 0,-46 Z"
       fill="currentColor"
       id="path113" />
  </g>
  <g
     transform="translate(78.6458,10.5388)"
     id="g115">
    <path
       transform="scale(0.004,-0.004)"
       d="M 0,-46 C 0,45 116,136 217,136 280,136 326,101 326,46 326,-41 216,-136 106,-136 39,-136 0,-97 0,-46 Z"
       fill="currentColor"
       id="path114" />
  </g>
  <g
     transform="translate(79.885,7.0388)"
     id="g116">
    <rect
       x="-0.064999998"
       y="-1.0145"
       width="0.13"
       height="4.3283"
       ry="0.039999999"
       fill="currentColor"
       id="rect115" />
  </g>
  <g
     transform="translate(77.4958,10.5388)"
     id="g117">
    <path
       transform="scale(0.004,-0.004)"
       d="m 27,41 -1,-66 v -11 c 0,-22 1,-44 4,-66 45,38 93,80 93,139 0,33 -14,67 -43,67 C 49,104 28,74 27,41 Z m -42,-179 -12,595 c 8,5 18,8 27,8 9,0 19,-3 27,-8 L 20,112 c 25,21 58,34 91,34 52,0 89,-48 89,-102 0,-80 -86,-117 -147,-169 -15,-13 -24,-38 -45,-38 -13,0 -23,11 -23,25 z"
       fill="currentColor"
       id="path116" />
  </g>
  <g
     transform="translate(99.0676,2.0388)"
     id="g118">
    <text
       font-family="'New Computer Modern Math'"
       font-size="2.3308px"
       text-anchor="start"
       fill="currentColor"
       id="text117"><tspan
         id="tspan117">E</tspan></text>
  </g>
  <g
     transform="translate(100.8554,1.7556)"
     id="g119">
    <path
       transform="scale(0.0038,-0.0038)"
       d="m 29,39 -2,-64 v -11 c 0,-22 2,-43 5,-65 44,38 91,80 91,138 0,33 -13,66 -42,66 C 50,103 30,72 29,39 Z m -57,415 c 9,5 18,8 28,8 10,0 19,-3 28,-8 L 21,111 c 25,23 58,36 92,36 51,0 87,-49 87,-103 0,-79 -84,-117 -144,-169 -16,-14 -25,-41 -47,-41 -14,0 -25,13 -25,27 z"
       fill="currentColor"
       id="path118" />
  </g>
  <g
     transform="translate(101.6105,2.8334)"
     id="g120">
    <text
       font-family="'New Computer Modern Math'"
       font-size="1.648px"
       text-anchor="start"
       fill="currentColor"
       id="text119"><tspan
         id="tspan119">7</tspan></text>
  </g>
  <g
     transform="translate(81.3843,11.0388)"
     id="g121">
    <path
       transform="scale(0.004,-0.004)"
       d="M 0,-46 C 0,45 116,136 217,136 280,136 326,101 326,46 326,-41 216,-136 106,-136 39,-136 0,-97 0,-46 Z"
       fill="currentColor"
       id="path120" />
  </g>
  <g
     transform="translate(82.6235,7.0388)"
     id="g122">
    <rect
       x="-0.064999998"
       y="-0.0088"
       width="0.13"
       height="3.8225999"
       ry="0.039999999"
       fill="currentColor"
       id="rect121" />
  </g>
  <g
     transform="translate(80.35,11.0388)"
     id="g123">
    <path
       transform="scale(0.004,-0.004)"
       d="m -7,375 c 8,4 17,7 25,7 8,0 16,-3 24,-7 l -2,-183 106,20 h 3 c 10,0 18,-7 18,-17 l 7,-570 c -8,-4 -17,-7 -25,-7 -8,0 -16,3 -24,7 l 2,183 -106,-20 h -3 c -10,0 -18,7 -18,17 z M 131,112 39,95 l -3,-207 92,17 z"
       fill="currentColor"
       id="path122" />
  </g>
  <g
     transform="translate(83.6453,10.5388)"
     id="g124">
    <path
       transform="scale(0.004,-0.004)"
       d="M 0,-46 C 0,45 116,136 217,136 280,136 326,101 326,46 326,-41 216,-136 106,-136 39,-136 0,-97 0,-46 Z"
       fill="currentColor"
       id="path123" />
  </g>
  <g
     transform="translate(84.8845,7.0388)"
     id="g125">
    <rect
       x="-0.064999998"
       y="-0.31380001"
       width="0.13"
       height="3.6276"
       ry="0.039999999"
       fill="currentColor"
       id="rect124" />
  </g>
  <g
     transform="translate(95.3566,8.5388)"
     id="g126">
    <path
       transform="scale(0.004,-0.004)"
       d="m 0,119 c 0,8 5,15 13,18 l 46,17 v 158 c 0,10 8,19 18,19 10,0 19,-9 19,-19 V 167 l 83,31 v 158 c 0,10 9,19 19,19 10,0 18,-9 18,-19 V 211 l 32,12 c 2,1 5,1 7,1 11,0 20,-9 20,-20 v -60 c 0,-8 -5,-16 -13,-19 L 216,109 V -51 l 32,11 c 2,1 5,1 7,1 11,0 20,-9 20,-20 v -60 c 0,-8 -5,-15 -13,-18 l -46,-17 v -158 c 0,-10 -8,-19 -18,-19 -10,0 -19,9 -19,19 v 145 l -83,-31 v -158 c 0,-10 -9,-19 -19,-19 -10,0 -18,9 -18,19 v 145 l -32,-12 c -2,-1 -5,-1 -7,-1 -11,0 -20,9 -20,20 v 60 c 0,8 5,16 13,19 l 46,16 V 51 L 27,40 C 25,39 22,39 20,39 9,39 0,48 0,59 Z M 179,95 96,65 V -95 l 83,30 z"
       fill="currentColor"
       id="path125" />
  </g>
  <g
     transform="translate(86.1563,9.5388)"
     id="g127">
    <path
       transform="scale(0.004,-0.004)"
       d="M 0,-46 C 0,45 116,136 217,136 280,136 326,101 326,46 326,-41 216,-136 106,-136 39,-136 0,-97 0,-46 Z"
       fill="currentColor"
       id="path126" />
  </g>
  <g
     transform="translate(87.3955,7.0388)"
     id="g128">
    <rect
       x="-0.064999998"
       y="-0.65249997"
       width="0.13"
       height="2.9663"
       ry="0.039999999"
       fill="currentColor"
       id="rect127" />
  </g>
  <g
     transform="translate(88.6673,8.5388)"
     id="g129">
    <path
       transform="scale(0.004,-0.004)"
       d="M 0,-46 C 0,45 116,136 217,136 280,136 326,101 326,46 326,-41 216,-136 106,-136 39,-136 0,-97 0,-46 Z"
       fill="currentColor"
       id="path128" />
  </g>
  <g
     transform="translate(89.9065,7.0388)"
     id="g130">
    <rect
       x="-0.064999998"
       y="-0.99119997"
       width="0.13"
       height="2.3050001"
       ry="0.039999999"
       fill="currentColor"
       id="rect129" />
  </g>
  <g
     transform="translate(91.6415,7.5388)"
     id="g131">
    <path
       transform="scale(0.004,-0.004)"
       d="M 0,-46 C 0,45 116,136 217,136 280,136 326,101 326,46 326,-41 216,-136 106,-136 39,-136 0,-97 0,-46 Z"
       fill="currentColor"
       id="path130" />
  </g>
  <g
     transform="translate(92.8807,7.0388)"
     id="g132">
    <rect
       x="-0.064999998"
       y="-1.9984"
       width="0.13"
       height="2.3122001"
       ry="0.039999999"
       fill="currentColor"
       id="rect131" />
  </g>
  <g
     transform="translate(90.4915,7.5388)"
     id="g133">
    <path
       transform="scale(0.004,-0.004)"
       d="m 27,41 -1,-66 v -11 c 0,-22 1,-44 4,-66 45,38 93,80 93,139 0,33 -14,67 -43,67 C 49,104 28,74 27,41 Z m -42,-179 -12,595 c 8,5 18,8 27,8 9,0 19,-3 27,-8 L 20,112 c 25,21 58,34 91,34 52,0 89,-48 89,-102 0,-80 -86,-117 -147,-169 -15,-13 -24,-38 -45,-38 -13,0 -23,11 -23,25 z"
       fill="currentColor"
       id="path132" />
  </g>
  <g
     transform="translate(93.6524,8.5388)"
     id="g134">
    <path
       transform="scale(0.004,-0.004)"
       d="M 0,-46 C 0,45 116,136 217,136 280,136 326,101 326,46 326,-41 216,-136 106,-136 39,-136 0,-97 0,-46 Z"
       fill="currentColor"
       id="path133" />
  </g>
  <g
     transform="translate(94.8916,7.0388)"
     id="g135">
    <rect
       x="-0.064999998"
       y="-1.9478"
       width="0.13"
       height="3.2616"
       ry="0.039999999"
       fill="currentColor"
       id="rect134" />
  </g>
  <g
     transform="translate(96.8066,8.5388)"
     id="g136">
    <path
       transform="scale(0.004,-0.004)"
       d="M 0,-46 C 0,45 116,136 217,136 280,136 326,101 326,46 326,-41 216,-136 106,-136 39,-136 0,-97 0,-46 Z"
       fill="currentColor"
       id="path135" />
  </g>
  <g
     transform="translate(98.0458,7.0388)"
     id="g137">
    <rect
       x="-0.064999998"
       y="-1.8685"
       width="0.13"
       height="3.1823001"
       ry="0.039999999"
       fill="currentColor"
       id="rect136" />
  </g>
</svg>
