<?xml version="1.0" encoding="UTF-8" standalone="no"?>
<svg
   version="1.2"
   width="92.579414mm"
   height="12.863426mm"
   viewBox="0 0 52.682801 7.3199998"
   id="svg39"
   sodipodi:docname="fig_006.svg"
   xmlns:inkscape="http://www.inkscape.org/namespaces/inkscape"
   xmlns:sodipodi="http://sodipodi.sourceforge.net/DTD/sodipodi-0.dtd"
   xmlns="http://www.w3.org/2000/svg"
   xmlns:svg="http://www.w3.org/2000/svg">
  <defs
     id="defs39" />
  <sodipodi:namedview
     id="namedview39"
     pagecolor="#505050"
     bordercolor="#eeeeee"
     borderopacity="1"
     inkscape:showpageshadow="0"
     inkscape:pageopacity="0"
     inkscape:pagecheckerboard="0"
     inkscape:deskcolor="#505050"
     inkscape:document-units="mm" />
  <style
     type="text/css"
     id="style1"><![CDATA[
tspan { white-space: pre; }
]]></style>
  <g
     transform="translate(0,0.776)"
     id="g1">
    <path
       id="rect1"
       style="fill:currentColor"
       d="m 45.830999,-0.1 h 1.8661 c 0.0554,0 0.1,0.0446 0.1,0.1 0,0.0554 -0.0446,0.1 -0.1,0.1 h -1.8661 c -0.0554,0 -0.1,-0.0446 -0.1,-0.1 0,-0.0554 0.0446,-0.1 0.1,-0.1 z" />
  </g>
  <g
     transform="translate(0,6.776)"
     id="g2">
    <path
       id="rect2"
       style="fill:currentColor"
       d="M 8.3405996,-0.1 H 10.2067 c 0.0554,0 0.1,0.0446 0.1,0.1 0,0.0554 -0.0446,0.1 -0.1,0.1 H 8.3405996 c -0.0554,0 -0.1,-0.0446 -0.1,-0.1 0,-0.0554 0.0446,-0.1 0.1,-0.1 z" />
  </g>
  <g
     transform="translate(0,5.776)"
     id="g3">
    <path
       id="line2"
       style="stroke:currentColor;stroke-width:0.1;stroke-linecap:round;stroke-linejoin:round"
       d="M 0.05,0 H 52.632801" />
  </g>
  <g
     transform="translate(0,4.776)"
     id="g4">
    <path
       id="line3"
       style="stroke:currentColor;stroke-width:0.1;stroke-linecap:round;stroke-linejoin:round"
       d="M 0.05,0 H 52.632801" />
  </g>
  <g
     transform="translate(0,3.776)"
     id="g5">
    <path
       id="line4"
       style="stroke:currentColor;stroke-width:0.1;stroke-linecap:round;stroke-linejoin:round"
       d="M 0.05,0 H 52.632801" />
  </g>
  <g
     transform="translate(0,2.776)"
     id="g6">
    <path
       id="line5"
       style="stroke:currentColor;stroke-width:0.1;stroke-linecap:round;stroke-linejoin:round"
       d="M 0.05,0 H 52.632801" />
  </g>
  <g
     transform="translate(0,1.776)"
     id="g7">
    <path
       id="line6"
       style="stroke:currentColor;stroke-width:0.1;stroke-linecap:round;stroke-linejoin:round"
       d="M 0.05,0 H 52.632801" />
  </g>
  <g
     transform="translate(52.4928,3.776)"
     id="g8">
    <path
       id="rect7"
       style="fill:currentColor"
       d="M 0,-2 H 0.19 V 2 H 0 Z" />
  </g>
  <g
     transform="translate(52.0028,3.776)"
     id="g9">
    <path
       id="rect8"
       style="fill:currentColor"
       d="M 0,-2 H 0.19 V 2 H 0 Z" />
  </g>
  <g
     transform="translate(33.7206,3.776)"
     id="g10">
    <path
       transform="scale(0.004,-0.004)"
       d="m 72,-106 c 40,0 204,110 231,143 7,9 11,19 11,28 0,22 -18,41 -42,41 C 232,106 68,-4 41,-37 34,-46 31,-56 31,-65 c 0,-22 17,-41 41,-41 z M 0,-67 c 0,71 46,203 258,203 41,0 86,-10 86,-69 0,-71 -46,-203 -258,-203 -41,0 -86,10 -86,69 z"
       fill="currentColor"
       id="path9" />
  </g>
  <g
     transform="translate(8.585,6.776)"
     id="g11">
    <path
       transform="scale(0.004,-0.004)"
       d="m 72,-106 c 40,0 204,110 231,143 7,9 11,19 11,28 0,22 -18,41 -42,41 C 232,106 68,-4 41,-37 34,-46 31,-56 31,-65 c 0,-22 17,-41 41,-41 z M 0,-67 c 0,71 46,203 258,203 41,0 86,-10 86,-69 0,-71 -46,-203 -258,-203 -41,0 -86,10 -86,69 z"
       fill="currentColor"
       id="path10" />
  </g>
  <g
     transform="translate(8.585,5.776)"
     id="g12">
    <path
       transform="scale(0.004,-0.004)"
       d="m 72,-106 c 40,0 204,110 231,143 7,9 11,19 11,28 0,22 -18,41 -42,41 C 232,106 68,-4 41,-37 34,-46 31,-56 31,-65 c 0,-22 17,-41 41,-41 z M 0,-67 c 0,71 46,203 258,203 41,0 86,-10 86,-69 0,-71 -46,-203 -258,-203 -41,0 -86,10 -86,69 z"
       fill="currentColor"
       id="path11" />
  </g>
  <g
     transform="translate(8.585,4.776)"
     id="g13">
    <path
       transform="scale(0.004,-0.004)"
       d="m 72,-106 c 40,0 204,110 231,143 7,9 11,19 11,28 0,22 -18,41 -42,41 C 232,106 68,-4 41,-37 34,-46 31,-56 31,-65 c 0,-22 17,-41 41,-41 z M 0,-67 c 0,71 46,203 258,203 41,0 86,-10 86,-69 0,-71 -46,-203 -258,-203 -41,0 -86,10 -86,69 z"
       fill="currentColor"
       id="path12" />
  </g>
  <g
     transform="translate(8.585,3.776)"
     id="g14">
    <path
       transform="scale(0.004,-0.004)"
       d="m 72,-106 c 40,0 204,110 231,143 7,9 11,19 11,28 0,22 -18,41 -42,41 C 232,106 68,-4 41,-37 34,-46 31,-56 31,-65 c 0,-22 17,-41 41,-41 z M 0,-67 c 0,71 46,203 258,203 41,0 86,-10 86,-69 0,-71 -46,-203 -258,-203 -41,0 -86,10 -86,69 z"
       fill="currentColor"
       id="path13" />
  </g>
  <g
     transform="translate(0.8,4.776)"
     id="g15">
    <path
       transform="scale(0.004,-0.004)"
       d="m 266,-635 h -6 c -108,0 -195,88 -195,197 0,58 53,103 112,103 54,0 95,-47 95,-103 0,-52 -43,-95 -95,-95 -11,0 -21,2 -31,6 26,-39 68,-65 117,-65 h 4 z m 135,786 c 19,-89 48,-242 60,-354 76,27 112,94 112,163 0,89 -60,179 -172,191 z M 74,28 c 0,-112 98,-247 278,-247 21,0 44,2 68,6 -7,64 -29,203 -63,364 -79,-8 -124,-61 -124,-119 0,-44 25,-91 81,-123 5,-5 7,-10 7,-15 0,-11 -10,-22 -22,-22 -15,0 -126,62 -126,187 0,88 58,174 160,197 -14,58 -29,117 -46,175 C 180,310 74,188 74,28 Z m 283,1166 c 28,0 143,-206 143,-361 0,-143 -86,-255 -180,-364 21,-68 39,-138 56,-207 5,0 10,1 14,1 155,0 255,-129 255,-262 0,-113 -74,-212 -180,-245 3,-35 5,-70 5,-105 0,-19 -1,-39 -2,-58 -7,-119 -88,-225 -202,-228 l 1,43 c 93,2 153,92 159,191 1,18 2,37 2,55 0,31 -1,61 -4,92 -28,-5 -55,-8 -80,-8 -239,0 -342,217 -342,374 0,177 131,306 248,441 -29,96 -52,170 -52,346 0,189 144,295 159,295 z M 247,782 c 0,-55 12,-115 35,-190 83,100 147,202 147,326 0,40 -6,82 -21,127 -49,-24 -161,-97 -161,-263 z"
       fill="currentColor"
       id="path14" />
  </g>
  <g
     transform="translate(4.885,3.776)"
     id="g16">
    <path
       transform="scale(0.004,-0.004)"
       d="M 433,-89 C 433,-111 383,-263 250,-263 191,-263 0,-244 0,0 0,62 18,262 250,262 366,262 426,156 426,99 426,59 396,27 359,27 c -31,0 -75,25 -75,75 0,38 27,77 72,77 4,0 9,0 14,-1 -28,37 -72,59 -120,59 C 144,237 137,164 137,51 V 0 -51 c 0,-113 7,-187 113,-187 80,0 139,70 158,151 2,7 7,10 12,10 6,0 13,-4 13,-12 z"
       fill="currentColor"
       id="path15" />
  </g>
  <g
     transform="translate(14.7624,6.276)"
     id="g17">
    <path
       transform="scale(0.004,-0.004)"
       d="m 72,-106 c 40,0 204,110 231,143 7,9 11,19 11,28 0,22 -18,41 -42,41 C 232,106 68,-4 41,-37 34,-46 31,-56 31,-65 c 0,-22 17,-41 41,-41 z M 0,-67 c 0,71 46,203 258,203 41,0 86,-10 86,-69 0,-71 -46,-203 -258,-203 -41,0 -86,10 -86,69 z"
       fill="currentColor"
       id="path16" />
  </g>
  <g
     transform="translate(14.7624,5.276)"
     id="g18">
    <path
       transform="scale(0.004,-0.004)"
       d="m 72,-106 c 40,0 204,110 231,143 7,9 11,19 11,28 0,22 -18,41 -42,41 C 232,106 68,-4 41,-37 34,-46 31,-56 31,-65 c 0,-22 17,-41 41,-41 z M 0,-67 c 0,71 46,203 258,203 41,0 86,-10 86,-69 0,-71 -46,-203 -258,-203 -41,0 -86,10 -86,69 z"
       fill="currentColor"
       id="path17" />
  </g>
  <g
     transform="translate(14.7624,4.276)"
     id="g19">
    <path
       transform="scale(0.004,-0.004)"
       d="m 72,-106 c 40,0 204,110 231,143 7,9 11,19 11,28 0,22 -18,41 -42,41 C 232,106 68,-4 41,-37 34,-46 31,-56 31,-65 c 0,-22 17,-41 41,-41 z M 0,-67 c 0,71 46,203 258,203 41,0 86,-10 86,-69 0,-71 -46,-203 -258,-203 -41,0 -86,10 -86,69 z"
       fill="currentColor"
       id="path18" />
  </g>
  <g
     transform="translate(14.7624,3.276)"
     id="g20">
    <path
       transform="scale(0.004,-0.004)"
       d="m 72,-106 c 40,0 204,110 231,143 7,9 11,19 11,28 0,22 -18,41 -42,41 C 232,106 68,-4 41,-37 34,-46 31,-56 31,-65 c 0,-22 17,-41 41,-41 z M 0,-67 c 0,71 46,203 258,203 41,0 86,-10 86,-69 0,-71 -46,-203 -258,-203 -41,0 -86,10 -86,69 z"
       fill="currentColor"
       id="path19" />
  </g>
  <g
     transform="translate(20.9398,5.776)"
     id="g21">
    <path
       transform="scale(0.004,-0.004)"
       d="m 72,-106 c 40,0 204,110 231,143 7,9 11,19 11,28 0,22 -18,41 -42,41 C 232,106 68,-4 41,-37 34,-46 31,-56 31,-65 c 0,-22 17,-41 41,-41 z M 0,-67 c 0,71 46,203 258,203 41,0 86,-10 86,-69 0,-71 -46,-203 -258,-203 -41,0 -86,10 -86,69 z"
       fill="currentColor"
       id="path20" />
  </g>
  <g
     transform="translate(20.9398,4.776)"
     id="g22">
    <path
       transform="scale(0.004,-0.004)"
       d="m 72,-106 c 40,0 204,110 231,143 7,9 11,19 11,28 0,22 -18,41 -42,41 C 232,106 68,-4 41,-37 34,-46 31,-56 31,-65 c 0,-22 17,-41 41,-41 z M 0,-67 c 0,71 46,203 258,203 41,0 86,-10 86,-69 0,-71 -46,-203 -258,-203 -41,0 -86,10 -86,69 z"
       fill="currentColor"
       id="path21" />
  </g>
  <g
     transform="translate(20.9398,3.776)"
     id="g23">
    <path
       transform="scale(0.004,-0.004)"
       d="m 72,-106 c 40,0 204,110 231,143 7,9 11,19 11,28 0,22 -18,41 -42,41 C 232,106 68,-4 41,-37 34,-46 31,-56 31,-65 c 0,-22 17,-41 41,-41 z M 0,-67 c 0,71 46,203 258,203 41,0 86,-10 86,-69 0,-71 -46,-203 -258,-203 -41,0 -86,10 -86,69 z"
       fill="currentColor"
       id="path22" />
  </g>
  <g
     transform="translate(20.9398,2.776)"
     id="g24">
    <path
       transform="scale(0.004,-0.004)"
       d="m 72,-106 c 40,0 204,110 231,143 7,9 11,19 11,28 0,22 -18,41 -42,41 C 232,106 68,-4 41,-37 34,-46 31,-56 31,-65 c 0,-22 17,-41 41,-41 z M 0,-67 c 0,71 46,203 258,203 41,0 86,-10 86,-69 0,-71 -46,-203 -258,-203 -41,0 -86,10 -86,69 z"
       fill="currentColor"
       id="path23" />
  </g>
  <g
     transform="translate(27.5432,5.276)"
     id="g25">
    <path
       transform="scale(0.004,-0.004)"
       d="m 72,-106 c 40,0 204,110 231,143 7,9 11,19 11,28 0,22 -18,41 -42,41 C 232,106 68,-4 41,-37 34,-46 31,-56 31,-65 c 0,-22 17,-41 41,-41 z M 0,-67 c 0,71 46,203 258,203 41,0 86,-10 86,-69 0,-71 -46,-203 -258,-203 -41,0 -86,10 -86,69 z"
       fill="currentColor"
       id="path24" />
  </g>
  <g
     transform="translate(27.5432,4.276)"
     id="g26">
    <path
       transform="scale(0.004,-0.004)"
       d="m 72,-106 c 40,0 204,110 231,143 7,9 11,19 11,28 0,22 -18,41 -42,41 C 232,106 68,-4 41,-37 34,-46 31,-56 31,-65 c 0,-22 17,-41 41,-41 z M 0,-67 c 0,71 46,203 258,203 41,0 86,-10 86,-69 0,-71 -46,-203 -258,-203 -41,0 -86,10 -86,69 z"
       fill="currentColor"
       id="path25" />
  </g>
  <g
     transform="translate(27.5432,3.276)"
     id="g27">
    <path
       transform="scale(0.004,-0.004)"
       d="m 72,-106 c 40,0 204,110 231,143 7,9 11,19 11,28 0,22 -18,41 -42,41 C 232,106 68,-4 41,-37 34,-46 31,-56 31,-65 c 0,-22 17,-41 41,-41 z M 0,-67 c 0,71 46,203 258,203 41,0 86,-10 86,-69 0,-71 -46,-203 -258,-203 -41,0 -86,10 -86,69 z"
       fill="currentColor"
       id="path26" />
  </g>
  <g
     transform="translate(27.5432,2.276)"
     id="g28">
    <path
       transform="scale(0.004,-0.004)"
       d="m 72,-106 c 40,0 204,110 231,143 7,9 11,19 11,28 0,22 -18,41 -42,41 C 232,106 68,-4 41,-37 34,-46 31,-56 31,-65 c 0,-22 17,-41 41,-41 z M 0,-67 c 0,71 46,203 258,203 41,0 86,-10 86,-69 0,-71 -46,-203 -258,-203 -41,0 -86,10 -86,69 z"
       fill="currentColor"
       id="path27" />
  </g>
  <g
     transform="translate(33.7206,4.776)"
     id="g29">
    <path
       transform="scale(0.004,-0.004)"
       d="m 72,-106 c 40,0 204,110 231,143 7,9 11,19 11,28 0,22 -18,41 -42,41 C 232,106 68,-4 41,-37 34,-46 31,-56 31,-65 c 0,-22 17,-41 41,-41 z M 0,-67 c 0,71 46,203 258,203 41,0 86,-10 86,-69 0,-71 -46,-203 -258,-203 -41,0 -86,10 -86,69 z"
       fill="currentColor"
       id="path28" />
  </g>
  <g
     transform="translate(33.7206,2.776)"
     id="g30">
    <path
       transform="scale(0.004,-0.004)"
       d="m 72,-106 c 40,0 204,110 231,143 7,9 11,19 11,28 0,22 -18,41 -42,41 C 232,106 68,-4 41,-37 34,-46 31,-56 31,-65 c 0,-22 17,-41 41,-41 z M 0,-67 c 0,71 46,203 258,203 41,0 86,-10 86,-69 0,-71 -46,-203 -258,-203 -41,0 -86,10 -86,69 z"
       fill="currentColor"
       id="path29" />
  </g>
  <g
     transform="translate(33.7206,1.776)"
     id="g31">
    <path
       transform="scale(0.004,-0.004)"
       d="m 72,-106 c 40,0 204,110 231,143 7,9 11,19 11,28 0,22 -18,41 -42,41 C 232,106 68,-4 41,-37 34,-46 31,-56 31,-65 c 0,-22 17,-41 41,-41 z M 0,-67 c 0,71 46,203 258,203 41,0 86,-10 86,-69 0,-71 -46,-203 -258,-203 -41,0 -86,10 -86,69 z"
       fill="currentColor"
       id="path30" />
  </g>
  <g
     transform="translate(39.898,4.276)"
     id="g32">
    <path
       transform="scale(0.004,-0.004)"
       d="m 72,-106 c 40,0 204,110 231,143 7,9 11,19 11,28 0,22 -18,41 -42,41 C 232,106 68,-4 41,-37 34,-46 31,-56 31,-65 c 0,-22 17,-41 41,-41 z M 0,-67 c 0,71 46,203 258,203 41,0 86,-10 86,-69 0,-71 -46,-203 -258,-203 -41,0 -86,10 -86,69 z"
       fill="currentColor"
       id="path31" />
  </g>
  <g
     transform="translate(39.898,3.276)"
     id="g33">
    <path
       transform="scale(0.004,-0.004)"
       d="m 72,-106 c 40,0 204,110 231,143 7,9 11,19 11,28 0,22 -18,41 -42,41 C 232,106 68,-4 41,-37 34,-46 31,-56 31,-65 c 0,-22 17,-41 41,-41 z M 0,-67 c 0,71 46,203 258,203 41,0 86,-10 86,-69 0,-71 -46,-203 -258,-203 -41,0 -86,10 -86,69 z"
       fill="currentColor"
       id="path32" />
  </g>
  <g
     transform="translate(39.898,2.276)"
     id="g34">
    <path
       transform="scale(0.004,-0.004)"
       d="m 72,-106 c 40,0 204,110 231,143 7,9 11,19 11,28 0,22 -18,41 -42,41 C 232,106 68,-4 41,-37 34,-46 31,-56 31,-65 c 0,-22 17,-41 41,-41 z M 0,-67 c 0,71 46,203 258,203 41,0 86,-10 86,-69 0,-71 -46,-203 -258,-203 -41,0 -86,10 -86,69 z"
       fill="currentColor"
       id="path33" />
  </g>
  <g
     transform="translate(39.898,1.276)"
     id="g35">
    <path
       transform="scale(0.004,-0.004)"
       d="m 72,-106 c 40,0 204,110 231,143 7,9 11,19 11,28 0,22 -18,41 -42,41 C 232,106 68,-4 41,-37 34,-46 31,-56 31,-65 c 0,-22 17,-41 41,-41 z M 0,-67 c 0,71 46,203 258,203 41,0 86,-10 86,-69 0,-71 -46,-203 -258,-203 -41,0 -86,10 -86,69 z"
       fill="currentColor"
       id="path34" />
  </g>
  <g
     transform="translate(46.0754,3.776)"
     id="g36">
    <path
       transform="scale(0.004,-0.004)"
       d="m 72,-106 c 40,0 204,110 231,143 7,9 11,19 11,28 0,22 -18,41 -42,41 C 232,106 68,-4 41,-37 34,-46 31,-56 31,-65 c 0,-22 17,-41 41,-41 z M 0,-67 c 0,71 46,203 258,203 41,0 86,-10 86,-69 0,-71 -46,-203 -258,-203 -41,0 -86,10 -86,69 z"
       fill="currentColor"
       id="path35" />
  </g>
  <g
     transform="translate(46.0754,2.776)"
     id="g37">
    <path
       transform="scale(0.004,-0.004)"
       d="m 72,-106 c 40,0 204,110 231,143 7,9 11,19 11,28 0,22 -18,41 -42,41 C 232,106 68,-4 41,-37 34,-46 31,-56 31,-65 c 0,-22 17,-41 41,-41 z M 0,-67 c 0,71 46,203 258,203 41,0 86,-10 86,-69 0,-71 -46,-203 -258,-203 -41,0 -86,10 -86,69 z"
       fill="currentColor"
       id="path36" />
  </g>
  <g
     transform="translate(46.0754,1.776)"
     id="g38">
    <path
       transform="scale(0.004,-0.004)"
       d="m 72,-106 c 40,0 204,110 231,143 7,9 11,19 11,28 0,22 -18,41 -42,41 C 232,106 68,-4 41,-37 34,-46 31,-56 31,-65 c 0,-22 17,-41 41,-41 z M 0,-67 c 0,71 46,203 258,203 41,0 86,-10 86,-69 0,-71 -46,-203 -258,-203 -41,0 -86,10 -86,69 z"
       fill="currentColor"
       id="path37" />
  </g>
  <g
     transform="translate(46.0754,0.776)"
     id="g39">
    <path
       transform="scale(0.004,-0.004)"
       d="m 72,-106 c 40,0 204,110 231,143 7,9 11,19 11,28 0,22 -18,41 -42,41 C 232,106 68,-4 41,-37 34,-46 31,-56 31,-65 c 0,-22 17,-41 41,-41 z M 0,-67 c 0,71 46,203 258,203 41,0 86,-10 86,-69 0,-71 -46,-203 -258,-203 -41,0 -86,10 -86,69 z"
       fill="currentColor"
       id="path38" />
  </g>
</svg>
