<?xml version="1.0" encoding="UTF-8" standalone="no"?>
<svg
   version="1.2"
   width="116.1288mm"
   height="20.47319mm"
   viewBox="0 0 66.083702 11.650376"
   id="svg69"
   sodipodi:docname="fig_164.svg"
   xmlns:inkscape="http://www.inkscape.org/namespaces/inkscape"
   xmlns:sodipodi="http://sodipodi.sourceforge.net/DTD/sodipodi-0.dtd"
   xmlns:xlink="http://www.w3.org/1999/xlink"
   xmlns="http://www.w3.org/2000/svg"
   xmlns:svg="http://www.w3.org/2000/svg">
  <defs
     id="defs69" />
  <sodipodi:namedview
     id="namedview69"
     pagecolor="#505050"
     bordercolor="#eeeeee"
     borderopacity="1"
     inkscape:showpageshadow="0"
     inkscape:pageopacity="0"
     inkscape:pagecheckerboard="0"
     inkscape:deskcolor="#505050"
     inkscape:document-units="mm" />
  <style
     type="text/css"
     id="style1"><![CDATA[
tspan { white-space: pre; }
]]></style>
  <g
     transform="translate(65.8937,7.150376)"
     id="g1">
    <rect
       x="0"
       y="-2"
       width="0.19"
       height="4"
       ry="0.0000"
       fill="currentColor"
       id="rect1" />
  </g>
  <g
     transform="translate(65.4037,7.150376)"
     id="g2">
    <rect
       x="0"
       y="-2"
       width="0.19"
       height="4"
       ry="0.0000"
       fill="currentColor"
       id="rect2" />
  </g>
  <g
     transform="translate(0,10.150376)"
     id="g3">
    <rect
       x="44.935101"
       y="-0.1"
       width="1.8053"
       height="0.2"
       ry="0.1"
       fill="currentColor"
       id="rect3" />
  </g>
  <g
     transform="translate(0,9.150376)"
     id="g4">
    <line
       stroke-linejoin="round"
       stroke-linecap="round"
       stroke-width="0.1"
       stroke="currentColor"
       x1="0.050000001"
       y1="0"
       x2="66.0336"
       y2="0"
       id="line3" />
  </g>
  <g
     transform="translate(0,8.150376)"
     id="g5">
    <line
       stroke-linejoin="round"
       stroke-linecap="round"
       stroke-width="0.1"
       stroke="currentColor"
       x1="0.050000001"
       y1="0"
       x2="66.0336"
       y2="0"
       id="line4" />
  </g>
  <g
     transform="translate(0,7.150376)"
     id="g6">
    <line
       stroke-linejoin="round"
       stroke-linecap="round"
       stroke-width="0.1"
       stroke="currentColor"
       x1="0.050000001"
       y1="0"
       x2="66.0336"
       y2="0"
       id="line5" />
  </g>
  <g
     transform="translate(0,6.150376)"
     id="g7">
    <line
       stroke-linejoin="round"
       stroke-linecap="round"
       stroke-width="0.1"
       stroke="currentColor"
       x1="0.050000001"
       y1="0"
       x2="66.0336"
       y2="0"
       id="line6" />
  </g>
  <g
     transform="translate(0,5.150376)"
     id="g8">
    <line
       stroke-linejoin="round"
       stroke-linecap="round"
       stroke-width="0.1"
       stroke="currentColor"
       x1="0.050000001"
       y1="0"
       x2="66.0336"
       y2="0"
       id="line7" />
  </g>
  <g
     transform="translate(50.6053,7.150376)"
     id="g9">
    <rect
       x="0"
       y="-2"
       width="0.19"
       height="4"
       ry="0.0000"
       fill="currentColor"
       id="rect8" />
  </g>
  <g
     transform="translate(27.295,7.150376)"
     id="g10">
    <rect
       x="0"
       y="-2"
       width="0.19"
       height="4"
       ry="0.0000"
       fill="currentColor"
       id="rect9" />
  </g>
  <g
     transform="translate(46.2844,6.960376)"
     id="g11">
    <polygon
       stroke-linejoin="round"
       stroke-linecap="round"
       stroke-width="0.08"
       fill="currentColor"
       stroke="currentColor"
       points="0.04,0.2 0.04,-0.2 2.8442,-0.82 2.8442,-0.42 "
       id="polygon10" />
  </g>
  <g
     transform="translate(40.426,6.150376)"
     id="g12">
    <polygon
       stroke-linejoin="round"
       stroke-linecap="round"
       stroke-width="0.08"
       fill="currentColor"
       stroke="currentColor"
       points="0.04,0.2 0.04,-0.2 2.5942,-0.01 2.5942,0.39 "
       id="polygon11" />
  </g>
  <a
     style="color:inherit"
     xlink:href="textedit:///Users/devonnuri/Documents/typst/241230%20Linear%20Harmony/lilypond/fig_164.ly:8:4:5"
     id="a15"
     transform="translate(-8.5358,-6.690724)">
    <g
       transform="translate(17.1208,8.8411)"
       id="g13">
      <text
         font-family="'Tex Gyre Termes'"
         font-size="2.3308px"
         text-anchor="start"
         fill="currentColor"
         id="text12"><tspan
           id="tspan12">E</tspan></text>
    </g>
    <g
       transform="translate(18.5548,8.8411)"
       id="g14">
      <text
         font-family="'Tex Gyre Termes'"
         font-size="2.3308px"
         text-anchor="start"
         fill="currentColor"
         id="text13"><tspan
           id="tspan13">m</tspan></text>
    </g>
    <g
       transform="translate(20.3644,7.7817)"
       id="g15">
      <text
         font-family="'Tex Gyre Termes'"
         font-size="1.648px"
         text-anchor="start"
         fill="currentColor"
         id="text14"><tspan
           id="tspan14">7</tspan></text>
    </g>
  </a>
  <a
     style="color:inherit"
     xlink:href="textedit:///Users/devonnuri/Documents/typst/241230%20Linear%20Harmony/lilypond/fig_164.ly:11:4:5"
     id="a16"
     transform="translate(-8.5358,-6.690724)">
    <g
       transform="translate(17.1208,13.8411)"
       id="g16">
      <path
         transform="scale(0.004,-0.004)"
         d="M 365,0 H 10 C 4,0 0,4 0,10 v 136 c 0,6 4,10 10,10 h 355 c 6,0 10,-4 10,-10 V 10 C 375,4 371,0 365,0 Z"
         fill="currentColor"
         id="path15" />
    </g>
  </a>
  <g
     transform="translate(0.8,8.150376)"
     id="g17">
    <path
       transform="scale(0.004,-0.004)"
       d="m 266,-635 h -6 c -108,0 -195,88 -195,197 0,58 53,103 112,103 54,0 95,-47 95,-103 0,-52 -43,-95 -95,-95 -11,0 -21,2 -31,6 26,-39 68,-65 117,-65 h 4 z m 135,786 c 19,-89 48,-242 60,-354 76,27 112,94 112,163 0,89 -60,179 -172,191 z M 74,28 c 0,-112 98,-247 278,-247 21,0 44,2 68,6 -7,64 -29,203 -63,364 -79,-8 -124,-61 -124,-119 0,-44 25,-91 81,-123 5,-5 7,-10 7,-15 0,-11 -10,-22 -22,-22 -15,0 -126,62 -126,187 0,88 58,174 160,197 -14,58 -29,117 -46,175 C 180,310 74,188 74,28 Z m 283,1166 c 28,0 143,-206 143,-361 0,-143 -86,-255 -180,-364 21,-68 39,-138 56,-207 5,0 10,1 14,1 155,0 255,-129 255,-262 0,-113 -74,-212 -180,-245 3,-35 5,-70 5,-105 0,-19 -1,-39 -2,-58 -7,-119 -88,-225 -202,-228 l 1,43 c 93,2 153,92 159,191 1,18 2,37 2,55 0,31 -1,61 -4,92 -28,-5 -55,-8 -80,-8 -239,0 -342,217 -342,374 0,177 131,306 248,441 -29,96 -52,170 -52,346 0,189 144,295 159,295 z M 247,782 c 0,-55 12,-115 35,-190 83,100 147,202 147,326 0,40 -6,82 -21,127 -49,-24 -161,-97 -161,-263 z"
       fill="currentColor"
       id="path16" />
  </g>
  <g
     transform="translate(4.885,7.150376)"
     id="g18">
    <path
       transform="scale(0.004,-0.004)"
       d="M 433,-89 C 433,-111 383,-263 250,-263 191,-263 0,-244 0,0 0,62 18,262 250,262 366,262 426,156 426,99 426,59 396,27 359,27 c -31,0 -75,25 -75,75 0,38 27,77 72,77 4,0 9,0 14,-1 -28,37 -72,59 -120,59 C 144,237 137,164 137,51 V 0 -51 c 0,-113 7,-187 113,-187 80,0 139,70 158,151 2,7 7,10 12,10 6,0 13,-4 13,-12 z"
       fill="currentColor"
       id="path17" />
  </g>
  <g
     transform="translate(34.5676,5.150376)"
     id="g19">
    <polygon
       stroke-linejoin="round"
       stroke-linecap="round"
       stroke-width="0.08"
       fill="currentColor"
       stroke="currentColor"
       points="0.04,0.2 0.04,-0.2 3.4442,-0.01 3.4442,0.39 "
       id="polygon18" />
  </g>
  <a
     style="color:inherit"
     xlink:href="textedit:///Users/devonnuri/Documents/typst/241230%20Linear%20Harmony/lilypond/fig_164.ly:11:20:21"
     id="a20"
     transform="translate(-8.5358,-6.690724)">
    <g
       transform="translate(22.2208,11.8411)"
       id="g20">
      <path
         transform="scale(0.004,-0.004)"
         d="M 0,-46 C 0,45 116,136 217,136 280,136 326,101 326,46 326,-41 216,-136 106,-136 39,-136 0,-97 0,-46 Z"
         fill="currentColor"
         id="path19" />
    </g>
  </a>
  <g
     transform="translate(13.75,7.150376)"
     id="g21">
    <rect
       x="-0.064999998"
       y="-1.8138"
       width="0.13"
       height="2.6283"
       ry="0.039999999"
       fill="currentColor"
       id="rect20" />
  </g>
  <g
     transform="translate(12.235,5.150376)"
     id="g22">
    <path
       transform="scale(0.004,-0.004)"
       d="m 0,119 c 0,8 5,15 13,18 l 46,17 v 158 c 0,10 8,19 18,19 10,0 19,-9 19,-19 V 167 l 83,31 v 158 c 0,10 9,19 19,19 10,0 18,-9 18,-19 V 211 l 32,12 c 2,1 5,1 7,1 11,0 20,-9 20,-20 v -60 c 0,-8 -5,-16 -13,-19 L 216,109 V -51 l 32,11 c 2,1 5,1 7,1 11,0 20,-9 20,-20 v -60 c 0,-8 -5,-15 -13,-18 l -46,-17 v -158 c 0,-10 -8,-19 -18,-19 -10,0 -19,9 -19,19 v 145 l -83,-31 v -158 c 0,-10 -9,-19 -19,-19 -10,0 -18,9 -18,19 v 145 l -32,-12 c -2,-1 -5,-1 -7,-1 -11,0 -20,9 -20,20 v 60 c 0,8 5,16 13,19 l 46,16 V 51 L 27,40 C 25,39 22,39 20,39 9,39 0,48 0,59 Z M 179,95 96,65 V -95 l 83,30 z"
       fill="currentColor"
       id="path21" />
  </g>
  <g
     transform="translate(29.5592,4.150376)"
     id="g23">
    <polygon
       stroke-linejoin="round"
       stroke-linecap="round"
       stroke-width="0.08"
       fill="currentColor"
       stroke="currentColor"
       points="0.04,0.2 0.04,-0.2 2.5942,-0.01 2.5942,0.39 "
       id="polygon22" />
  </g>
  <a
     style="color:inherit"
     xlink:href="textedit:///Users/devonnuri/Documents/typst/241230%20Linear%20Harmony/lilypond/fig_164.ly:11:27:28"
     id="a24"
     transform="translate(-8.5358,-6.690724)">
    <g
       transform="translate(24.025,11.3411)"
       id="g24">
      <path
         transform="scale(0.004,-0.004)"
         d="M 0,-46 C 0,45 116,136 217,136 280,136 326,101 326,46 326,-41 216,-136 106,-136 39,-136 0,-97 0,-46 Z"
         fill="currentColor"
         id="path23" />
    </g>
  </a>
  <g
     transform="translate(15.5542,7.150376)"
     id="g25">
    <rect
       x="-0.064999998"
       y="-2.3138001"
       width="0.13"
       height="3.2520001"
       ry="0.039999999"
       fill="currentColor"
       id="rect24" />
  </g>
  <g
     transform="translate(21.6018,9.150376)"
     id="g26">
    <polygon
       stroke-linejoin="round"
       stroke-linecap="round"
       stroke-width="0.08"
       fill="currentColor"
       stroke="currentColor"
       points="0.04,0.2 0.04,-0.2 3.4442,-0.01 3.4442,0.39 "
       id="polygon25" />
  </g>
  <a
     style="color:inherit"
     xlink:href="textedit:///Users/devonnuri/Documents/typst/241230%20Linear%20Harmony/lilypond/fig_164.ly:11:29:30"
     id="a27"
     transform="translate(-8.5358,-6.690724)">
    <g
       transform="translate(25.8292,11.8411)"
       id="g27">
      <path
         transform="scale(0.004,-0.004)"
         d="M 0,-46 C 0,45 116,136 217,136 280,136 326,101 326,46 326,-41 216,-136 106,-136 39,-136 0,-97 0,-46 Z"
         fill="currentColor"
         id="path26" />
    </g>
  </a>
  <g
     transform="translate(17.3584,7.150376)"
     id="g28">
    <rect
       x="-0.064999998"
       y="-1.8138"
       width="0.13"
       height="2.8756001"
       ry="0.039999999"
       fill="currentColor"
       id="rect27" />
  </g>
  <g
     transform="translate(13.685,7.150376)"
     id="g29">
    <polygon
       stroke-linejoin="round"
       stroke-linecap="round"
       stroke-width="0.08"
       fill="currentColor"
       stroke="currentColor"
       points="0.04,0.2 0.04,-0.2 3.6984,0.0563 3.6984,0.4563 "
       id="polygon28" />
  </g>
  <g
     transform="translate(13.685,7.960376)"
     id="g30">
    <polygon
       stroke-linejoin="round"
       stroke-linecap="round"
       stroke-width="0.08"
       fill="currentColor"
       stroke="currentColor"
       points="0.04,0.2 0.04,-0.2 5.5026,0.18 5.5026,0.58 "
       id="polygon29" />
  </g>
  <a
     style="color:inherit"
     xlink:href="textedit:///Users/devonnuri/Documents/typst/241230%20Linear%20Harmony/lilypond/fig_164.ly:11:34:35"
     id="a31"
     transform="translate(-8.5358,-6.690724)">
    <g
       transform="translate(27.6334,12.3411)"
       id="g31">
      <path
         transform="scale(0.004,-0.004)"
         d="M 0,-46 C 0,45 116,136 217,136 280,136 326,101 326,46 326,-41 216,-136 106,-136 39,-136 0,-97 0,-46 Z"
         fill="currentColor"
         id="path30" />
    </g>
  </a>
  <g
     transform="translate(19.1626,7.150376)"
     id="g32">
    <rect
       x="-0.064999998"
       y="-1.3138"
       width="0.13"
       height="2.4993"
       ry="0.039999999"
       fill="currentColor"
       id="rect31" />
  </g>
  <a
     style="color:inherit"
     xlink:href="textedit:///Users/devonnuri/Documents/typst/241230%20Linear%20Harmony/lilypond/fig_164.ly:11:7:8"
     id="a33"
     transform="translate(-8.5358,-6.690724)">
    <g
       transform="translate(23.6462,16.7077)"
       id="g33">
      <text
         font-family="'Tex Gyre Termes'"
         font-style="italic"
         font-size="1.7459px"
         text-anchor="start"
         fill="currentColor"
         id="text32"><tspan
           id="tspan32">3</tspan></text>
    </g>
  </a>
  <a
     style="color:inherit"
     xlink:href="textedit:///Users/devonnuri/Documents/typst/241230%20Linear%20Harmony/lilypond/fig_164.ly:11:37:38"
     id="a34"
     transform="translate(-8.5358,-6.690724)">
    <g
       transform="translate(30.1376,12.8411)"
       id="g34">
      <path
         transform="scale(0.004,-0.004)"
         d="M 0,-46 C 0,45 116,136 217,136 280,136 326,101 326,46 326,-41 216,-136 106,-136 39,-136 0,-97 0,-46 Z"
         fill="currentColor"
         id="path33" />
    </g>
  </a>
  <g
     transform="translate(21.6668,7.150376)"
     id="g35">
    <rect
       x="-0.064999998"
       y="-0.81379998"
       width="0.13"
       height="2.8173001"
       ry="0.039999999"
       fill="currentColor"
       id="rect34" />
  </g>
  <a
     style="color:inherit"
     xlink:href="textedit:///Users/devonnuri/Documents/typst/241230%20Linear%20Harmony/lilypond/fig_164.ly:11:7:8"
     id="a39"
     transform="translate(-8.5358,-6.690724)">
    <g
       transform="translate(22.2208,15.9999)"
       id="g36">
      <line
         stroke-linejoin="round"
         stroke-linecap="round"
         stroke-width="0.16"
         stroke="currentColor"
         x1="3.938"
         y1="0.2606"
         x2="3.938"
         y2="-0.43939999"
         id="line35" />
    </g>
    <g
       transform="translate(22.2208,15.9999)"
       id="g37">
      <line
         stroke-linejoin="round"
         stroke-linecap="round"
         stroke-width="0.16"
         stroke="currentColor"
         x1="-0.1996"
         y1="-0.0132"
         x2="-0.1996"
         y2="-0.71319997"
         id="line36" />
    </g>
    <g
       transform="translate(22.2208,15.9999)"
       id="g38">
      <line
         stroke-linejoin="round"
         stroke-linecap="round"
         stroke-width="0.16"
         stroke="currentColor"
         x1="3.938"
         y1="0.2606"
         x2="2.9108"
         y2="0.1926"
         id="line37" />
    </g>
    <g
       transform="translate(22.2208,15.9999)"
       id="g39">
      <line
         stroke-linejoin="round"
         stroke-linecap="round"
         stroke-width="0.16"
         stroke="currentColor"
         x1="-0.1996"
         y1="-0.0132"
         x2="1.0272"
         y2="0.068000004"
         id="line38" />
    </g>
  </a>
  <a
     style="color:inherit"
     xlink:href="textedit:///Users/devonnuri/Documents/typst/241230%20Linear%20Harmony/lilypond/fig_164.ly:11:39:40"
     id="a40"
     transform="translate(-8.5358,-6.690724)">
    <g
       transform="translate(33.4918,13.3411)"
       id="g40">
      <path
         transform="scale(0.004,-0.004)"
         d="M 0,-46 C 0,45 116,136 217,136 280,136 326,101 326,46 326,-41 216,-136 106,-136 39,-136 0,-97 0,-46 Z"
         fill="currentColor"
         id="path39" />
    </g>
  </a>
  <g
     transform="translate(25.021,7.150376)"
     id="g41">
    <rect
       x="-0.064999998"
       y="-0.31380001"
       width="0.13"
       height="2.5002999"
       ry="0.039999999"
       fill="currentColor"
       id="rect40" />
  </g>
  <g
     transform="translate(23.506,6.650376)"
     id="g42">
    <path
       transform="scale(0.004,-0.004)"
       d="m 0,119 c 0,8 5,15 13,18 l 46,17 v 158 c 0,10 8,19 18,19 10,0 19,-9 19,-19 V 167 l 83,31 v 158 c 0,10 9,19 19,19 10,0 18,-9 18,-19 V 211 l 32,12 c 2,1 5,1 7,1 11,0 20,-9 20,-20 v -60 c 0,-8 -5,-16 -13,-19 L 216,109 V -51 l 32,11 c 2,1 5,1 7,1 11,0 20,-9 20,-20 v -60 c 0,-8 -5,-15 -13,-18 l -46,-17 v -158 c 0,-10 -8,-19 -18,-19 -10,0 -19,9 -19,19 v 145 l -83,-31 v -158 c 0,-10 -9,-19 -19,-19 -10,0 -18,9 -18,19 v 145 l -32,-12 c -2,-1 -5,-1 -7,-1 -11,0 -20,9 -20,20 v 60 c 0,8 5,16 13,19 l 46,16 V 51 L 27,40 C 25,39 22,39 20,39 9,39 0,48 0,59 Z M 179,95 96,65 V -95 l 83,30 z"
       fill="currentColor"
       id="path41" />
  </g>
  <a
     style="color:inherit"
     xlink:href="textedit:///Users/devonnuri/Documents/typst/241230%20Linear%20Harmony/lilypond/fig_164.ly:8:10:11"
     id="a44"
     transform="translate(-8.5358,-6.690724)">
    <g
       transform="translate(36.9208,8.8411)"
       id="g43">
      <text
         font-family="'Tex Gyre Termes'"
         font-size="2.3308px"
         text-anchor="start"
         fill="currentColor"
         id="text42"><tspan
           id="tspan42">A</tspan></text>
    </g>
    <g
       transform="translate(38.5938,7.7817)"
       id="g44">
      <text
         font-family="'Tex Gyre Termes'"
         font-size="1.648px"
         text-anchor="start"
         fill="currentColor"
         id="text43"><tspan
           id="tspan43">7</tspan></text>
    </g>
  </a>
  <a
     style="color:inherit"
     xlink:href="textedit:///Users/devonnuri/Documents/typst/241230%20Linear%20Harmony/lilypond/fig_164.ly:12:4:5"
     id="a45"
     transform="translate(-8.5358,-6.690724)">
    <g
       transform="translate(36.9208,13.8411)"
       id="g45">
      <path
         transform="scale(0.004,-0.004)"
         d="M 0,-46 C 0,45 116,136 217,136 280,136 326,101 326,46 326,-41 216,-136 106,-136 39,-136 0,-97 0,-46 Z"
         fill="currentColor"
         id="path44" />
    </g>
  </a>
  <g
     transform="translate(29.6242,7.150376)"
     id="g46">
    <rect
       x="-0.064999998"
       y="-2.9953001"
       width="0.13"
       height="2.8090999"
       ry="0.039999999"
       fill="currentColor"
       id="rect45" />
  </g>
  <a
     style="color:inherit"
     xlink:href="textedit:///Users/devonnuri/Documents/typst/241230%20Linear%20Harmony/lilypond/fig_164.ly:12:6:7"
     id="a47"
     transform="translate(-8.5358,-6.690724)">
    <g
       transform="translate(39.425,14.3411)"
       id="g47">
      <path
         transform="scale(0.004,-0.004)"
         d="M 0,-46 C 0,45 116,136 217,136 280,136 326,101 326,46 326,-41 216,-136 106,-136 39,-136 0,-97 0,-46 Z"
         fill="currentColor"
         id="path46" />
    </g>
  </a>
  <g
     transform="translate(32.1284,7.150376)"
     id="g48">
    <rect
       x="-0.064999998"
       y="-2.8146999"
       width="0.13"
       height="3.1285"
       ry="0.039999999"
       fill="currentColor"
       id="rect47" />
  </g>
  <a
     style="color:inherit"
     xlink:href="textedit:///Users/devonnuri/Documents/typst/241230%20Linear%20Harmony/lilypond/fig_164.ly:12:8:9"
     id="a49"
     transform="translate(-8.5358,-6.690724)">
    <g
       transform="translate(41.9292,14.8411)"
       id="g49">
      <path
         transform="scale(0.004,-0.004)"
         d="M 0,-46 C 0,45 116,136 217,136 280,136 326,101 326,46 326,-41 216,-136 106,-136 39,-136 0,-97 0,-46 Z"
         fill="currentColor"
         id="path48" />
    </g>
  </a>
  <g
     transform="translate(34.6326,7.150376)"
     id="g50">
    <rect
       x="-0.064999998"
       y="-1.9965"
       width="0.13"
       height="2.8103001"
       ry="0.039999999"
       fill="currentColor"
       id="rect49" />
  </g>
  <g
     transform="translate(52.8695,4.960376)"
     id="g51">
    <polygon
       stroke-linejoin="round"
       stroke-linecap="round"
       stroke-width="0.08"
       fill="currentColor"
       stroke="currentColor"
       points="0.04,0.2 0.04,-0.2 2.8442,-0.82 2.8442,-0.42 "
       id="polygon50" />
  </g>
  <a
     style="color:inherit"
     xlink:href="textedit:///Users/devonnuri/Documents/typst/241230%20Linear%20Harmony/lilypond/fig_164.ly:12:10:11"
     id="a52"
     transform="translate(-8.5358,-6.690724)">
    <g
       transform="translate(45.2834,15.3411)"
       id="g52">
      <path
         transform="scale(0.004,-0.004)"
         d="M 0,-46 C 0,45 116,136 217,136 280,136 326,101 326,46 326,-41 216,-136 106,-136 39,-136 0,-97 0,-46 Z"
         fill="currentColor"
         id="path51" />
    </g>
  </a>
  <g
     transform="translate(37.9868,7.150376)"
     id="g53">
    <rect
       x="-0.064999998"
       y="-1.8135"
       width="0.13"
       height="3.1273"
       ry="0.039999999"
       fill="currentColor"
       id="rect52" />
  </g>
  <g
     transform="translate(35.2976,8.650376)"
     id="g54">
    <path
       transform="scale(0.004,-0.004)"
       d="m 0,119 c 0,8 5,15 13,18 l 46,17 v 158 c 0,10 8,19 18,19 10,0 19,-9 19,-19 V 167 l 83,31 v 158 c 0,10 9,19 19,19 10,0 18,-9 18,-19 V 211 l 32,12 c 2,1 5,1 7,1 11,0 20,-9 20,-20 v -60 c 0,-8 -5,-16 -13,-19 L 216,109 V -51 l 32,11 c 2,1 5,1 7,1 11,0 20,-9 20,-20 v -60 c 0,-8 -5,-15 -13,-18 l -46,-17 v -158 c 0,-10 -8,-19 -18,-19 -10,0 -19,9 -19,19 v 145 l -83,-31 v -158 c 0,-10 -9,-19 -19,-19 -10,0 -18,9 -18,19 v 145 l -32,-12 c -2,-1 -5,-1 -7,-1 -11,0 -20,9 -20,20 v 60 c 0,8 5,16 13,19 l 46,16 V 51 L 27,40 C 25,39 22,39 20,39 9,39 0,48 0,59 Z M 179,95 96,65 V -95 l 83,30 z"
       fill="currentColor"
       id="path53" />
  </g>
  <a
     style="color:inherit"
     xlink:href="textedit:///Users/devonnuri/Documents/typst/241230%20Linear%20Harmony/lilypond/fig_164.ly:12:14:15"
     id="a55"
     transform="translate(-8.5358,-6.690724)">
    <g
       transform="translate(47.7876,15.8411)"
       id="g55">
      <path
         transform="scale(0.004,-0.004)"
         d="M 0,-46 C 0,45 116,136 217,136 280,136 326,101 326,46 326,-41 216,-136 106,-136 39,-136 0,-97 0,-46 Z"
         fill="currentColor"
         id="path54" />
    </g>
  </a>
  <g
     transform="translate(40.491,7.150376)"
     id="g56">
    <rect
       x="-0.064999998"
       y="-0.99529999"
       width="0.13"
       height="2.8090999"
       ry="0.039999999"
       fill="currentColor"
       id="rect55" />
  </g>
  <a
     style="color:inherit"
     xlink:href="textedit:///Users/devonnuri/Documents/typst/241230%20Linear%20Harmony/lilypond/fig_164.ly:12:16:17"
     id="a57"
     transform="translate(-8.5358,-6.690724)">
    <g
       transform="translate(50.2918,16.3411)"
       id="g57">
      <path
         transform="scale(0.004,-0.004)"
         d="M 0,-46 C 0,45 116,136 217,136 280,136 326,101 326,46 326,-41 216,-136 106,-136 39,-136 0,-97 0,-46 Z"
         fill="currentColor"
         id="path56" />
    </g>
  </a>
  <g
     transform="translate(42.9952,7.150376)"
     id="g58">
    <rect
       x="-0.064999998"
       y="-0.81470001"
       width="0.13"
       height="3.1285"
       ry="0.039999999"
       fill="currentColor"
       id="rect57" />
  </g>
  <a
     style="color:inherit"
     xlink:href="textedit:///Users/devonnuri/Documents/typst/241230%20Linear%20Harmony/lilypond/fig_164.ly:12:18:19"
     id="a59"
     transform="translate(-8.5358,-6.690724)">
    <g
       transform="translate(53.646,16.8411)"
       id="g59">
      <path
         transform="scale(0.004,-0.004)"
         d="M 0,-46 C 0,45 116,136 217,136 280,136 326,101 326,46 326,-41 216,-136 106,-136 39,-136 0,-97 0,-46 Z"
         fill="currentColor"
         id="path58" />
    </g>
  </a>
  <g
     transform="translate(46.3494,7.150376)"
     id="g60">
    <rect
       x="-0.064999998"
       y="-0.204"
       width="0.13"
       height="3.0178001"
       ry="0.039999999"
       fill="currentColor"
       id="rect59" />
  </g>
  <g
     transform="translate(43.6602,10.150376)"
     id="g61">
    <path
       transform="scale(0.004,-0.004)"
       d="m 0,119 c 0,8 5,15 13,18 l 46,17 v 158 c 0,10 8,19 18,19 10,0 19,-9 19,-19 V 167 l 83,31 v 158 c 0,10 9,19 19,19 10,0 18,-9 18,-19 V 211 l 32,12 c 2,1 5,1 7,1 11,0 20,-9 20,-20 v -60 c 0,-8 -5,-16 -13,-19 L 216,109 V -51 l 32,11 c 2,1 5,1 7,1 11,0 20,-9 20,-20 v -60 c 0,-8 -5,-15 -13,-18 l -46,-17 v -158 c 0,-10 -8,-19 -18,-19 -10,0 -19,9 -19,19 v 145 l -83,-31 v -158 c 0,-10 -9,-19 -19,-19 -10,0 -18,9 -18,19 v 145 l -32,-12 c -2,-1 -5,-1 -7,-1 -11,0 -20,9 -20,20 v 60 c 0,8 5,16 13,19 l 46,16 V 51 L 27,40 C 25,39 22,39 20,39 9,39 0,48 0,59 Z M 179,95 96,65 V -95 l 83,30 z"
       fill="currentColor"
       id="path60" />
  </g>
  <a
     style="color:inherit"
     xlink:href="textedit:///Users/devonnuri/Documents/typst/241230%20Linear%20Harmony/lilypond/fig_164.ly:12:22:23"
     id="a62"
     transform="translate(-8.5358,-6.690724)">
    <g
       transform="translate(56.4002,15.8411)"
       id="g62">
      <path
         transform="scale(0.004,-0.004)"
         d="M 0,-46 C 0,45 116,136 217,136 280,136 326,101 326,46 326,-41 216,-136 106,-136 39,-136 0,-97 0,-46 Z"
         fill="currentColor"
         id="path61" />
    </g>
  </a>
  <g
     transform="translate(49.1036,7.150376)"
     id="g63">
    <rect
       x="-0.064999998"
       y="-0.796"
       width="0.13"
       height="2.6098001"
       ry="0.039999999"
       fill="currentColor"
       id="rect62" />
  </g>
  <a
     style="color:inherit"
     xlink:href="textedit:///Users/devonnuri/Documents/typst/241230%20Linear%20Harmony/lilypond/fig_164.ly:12:24:25"
     id="a64"
     transform="translate(-8.5358,-6.690724)">
    <g
       transform="translate(60.2311,14.8411)"
       id="g64">
      <path
         transform="scale(0.004,-0.004)"
         d="M 0,-46 C 0,45 116,136 217,136 280,136 326,101 326,46 326,-41 216,-136 106,-136 39,-136 0,-97 0,-46 Z"
         fill="currentColor"
         id="path63" />
    </g>
  </a>
  <g
     transform="translate(52.9345,7.150376)"
     id="g65">
    <rect
       x="-0.064999998"
       y="-2.204"
       width="0.13"
       height="3.0178001"
       ry="0.039999999"
       fill="currentColor"
       id="rect64" />
  </g>
  <a
     style="color:inherit"
     xlink:href="textedit:///Users/devonnuri/Documents/typst/241230%20Linear%20Harmony/lilypond/fig_164.ly:12:26:27"
     id="a66"
     transform="translate(-8.5358,-6.690724)">
    <g
       transform="translate(62.9853,13.8411)"
       id="g66">
      <path
         transform="scale(0.004,-0.004)"
         d="M 0,-46 C 0,45 116,136 217,136 280,136 326,101 326,46 326,-41 216,-136 106,-136 39,-136 0,-97 0,-46 Z"
         fill="currentColor"
         id="path65" />
    </g>
  </a>
  <g
     transform="translate(55.6887,7.150376)"
     id="g67">
    <rect
       x="-0.064999998"
       y="-2.796"
       width="0.13"
       height="2.6098001"
       ry="0.039999999"
       fill="currentColor"
       id="rect66" />
  </g>
  <a
     style="color:inherit"
     xlink:href="textedit:///Users/devonnuri/Documents/typst/241230%20Linear%20Harmony/lilypond/fig_164.ly:12:28:29"
     id="a68"
     transform="translate(-8.5358,-6.690724)">
    <g
       transform="translate(65.4895,13.8411)"
       id="g68">
      <path
         transform="scale(0.004,-0.004)"
         d="m -6,78 c 0,59 124,83 124,182 0,24 -8,49 -25,69 l -35,42 c -3,3 -4,7 -4,10 0,9 9,15 17,15 4,0 8,-1 11,-5 L 233,211 c 7,-9 10,-17 10,-25 0,-59 -124,-83 -124,-182 0,-24 7,-49 24,-69 l 84,-99 c 3,-3 4,-7 4,-10 0,-9 -8,-16 -16,-16 -8,0 -45,44 -109,44 -16,0 -53,0 -53,-67 0,-62 30,-97 30,-100 0,-4 -4,-7 -8,-7 -13,0 -98,130 -98,204 0,41 27,42 40,42 33,0 78,-13 119,-31 L 4,53 C -3,62 -6,70 -6,78 Z"
         fill="currentColor"
         id="path67" />
    </g>
  </a>
  <a
     style="color:inherit"
     xlink:href="textedit:///Users/devonnuri/Documents/typst/241230%20Linear%20Harmony/lilypond/fig_164.ly:12:31:32"
     id="a69"
     transform="translate(-8.5358,-6.690724)">
    <g
       transform="translate(68.8395,13.8411)"
       id="g69">
      <path
         transform="scale(0.004,-0.004)"
         d="M 365,0 H 10 C 4,0 0,4 0,10 v 136 c 0,6 4,10 10,10 h 355 c 6,0 10,-4 10,-10 V 10 C 375,4 371,0 365,0 Z"
         fill="currentColor"
         id="path68" />
    </g>
  </a>
</svg>
