<?xml version="1.0" encoding="UTF-8" standalone="no"?>
<svg
   version="1.2"
   width="159.371mm"
   height="21.401045mm"
   viewBox="0 0 90.690904 12.178376"
   id="svg96"
   sodipodi:docname="fig_093.svg"
   xmlns:inkscape="http://www.inkscape.org/namespaces/inkscape"
   xmlns:sodipodi="http://sodipodi.sourceforge.net/DTD/sodipodi-0.dtd"
   xmlns:xlink="http://www.w3.org/1999/xlink"
   xmlns="http://www.w3.org/2000/svg"
   xmlns:svg="http://www.w3.org/2000/svg">
  <defs
     id="defs96" />
  <sodipodi:namedview
     id="namedview96"
     pagecolor="#505050"
     bordercolor="#eeeeee"
     borderopacity="1"
     inkscape:showpageshadow="0"
     inkscape:pageopacity="0"
     inkscape:pagecheckerboard="0"
     inkscape:deskcolor="#505050"
     inkscape:document-units="mm" />
  <style
     type="text/css"
     id="style1"><![CDATA[
tspan { white-space: pre; }
]]></style>
  <g
     transform="translate(90.5009,7.150376)"
     id="g1">
    <rect
       x="0"
       y="-2"
       width="0.19"
       height="4"
       ry="0.0000"
       fill="currentColor"
       id="rect1" />
  </g>
  <g
     transform="translate(0,10.150376)"
     id="g2">
    <rect
       x="56.0504"
       y="-0.1"
       width="1.8141"
       height="0.2"
       ry="0.1"
       fill="currentColor"
       id="rect2" />
  </g>
  <g
     transform="translate(0,4.150376)"
     id="g3">
    <rect
       x="49.527699"
       y="-0.1"
       width="1.9563"
       height="0.2"
       ry="0.1"
       fill="currentColor"
       id="rect3" />
  </g>
  <g
     transform="translate(0,9.150376)"
     id="g4">
    <line
       stroke-linejoin="round"
       stroke-linecap="round"
       stroke-width="0.1"
       stroke="currentColor"
       x1="0.050000001"
       y1="0"
       x2="90.6409"
       y2="0"
       id="line3" />
  </g>
  <g
     transform="translate(0,8.150376)"
     id="g5">
    <line
       stroke-linejoin="round"
       stroke-linecap="round"
       stroke-width="0.1"
       stroke="currentColor"
       x1="0.050000001"
       y1="0"
       x2="90.6409"
       y2="0"
       id="line4" />
  </g>
  <g
     transform="translate(0,7.150376)"
     id="g6">
    <line
       stroke-linejoin="round"
       stroke-linecap="round"
       stroke-width="0.1"
       stroke="currentColor"
       x1="0.050000001"
       y1="0"
       x2="90.6409"
       y2="0"
       id="line5" />
  </g>
  <g
     transform="translate(0,6.150376)"
     id="g7">
    <line
       stroke-linejoin="round"
       stroke-linecap="round"
       stroke-width="0.1"
       stroke="currentColor"
       x1="0.050000001"
       y1="0"
       x2="90.6409"
       y2="0"
       id="line6" />
  </g>
  <g
     transform="translate(0,5.150376)"
     id="g8">
    <line
       stroke-linejoin="round"
       stroke-linecap="round"
       stroke-width="0.1"
       stroke="currentColor"
       x1="0.050000001"
       y1="0"
       x2="90.6409"
       y2="0"
       id="line7" />
  </g>
  <g
     transform="translate(72.0468,7.150376)"
     id="g9">
    <rect
       x="0"
       y="-2"
       width="0.19"
       height="4"
       ry="0.0000"
       fill="currentColor"
       id="rect8" />
  </g>
  <g
     transform="translate(54.4099,7.150376)"
     id="g10">
    <rect
       x="0"
       y="-2"
       width="0.19"
       height="4"
       ry="0.0000"
       fill="currentColor"
       id="rect9" />
  </g>
  <g
     transform="translate(30.7778,7.150376)"
     id="g11">
    <rect
       x="0"
       y="-2"
       width="0.19"
       height="4"
       ry="0.0000"
       fill="currentColor"
       id="rect10" />
  </g>
  <a
     style="color:inherit"
     xlink:href="textedit:///Users/devonnuri/Documents/typst/241230%20Linear%20Harmony/lilypond/fig_093.ly:14:14:15"
     id="a12"
     transform="translate(-8.5358,-6.690724)">
    <g
       transform="translate(69.1762,13.8411)"
       id="g12">
      <path
         stroke-width="0.08"
         stroke-linejoin="round"
         stroke-linecap="round"
         stroke="currentColor"
         fill="currentColor"
         d="m 0.8521,1.225 c 0.5181,0.5998 1.6493,0.5998 2.1674,0 v 0 c -0.5181,0.4798 -1.6493,0.4798 -2.1674,0 z"
         id="path11" />
    </g>
  </a>
  <a
     style="color:inherit"
     xlink:href="textedit:///Users/devonnuri/Documents/typst/241230%20Linear%20Harmony/lilypond/fig_093.ly:7:4:5"
     id="a13"
     transform="translate(-8.5358,-6.690724)" />
  <a
     style="color:inherit"
     xlink:href="textedit:///Users/devonnuri/Documents/typst/241230%20Linear%20Harmony/lilypond/fig_093.ly:11:4:5"
     id="a14"
     transform="translate(-8.5358,-6.690724)">
    <g
       transform="translate(17.2392,11.8411)"
       id="g13">
      <path
         transform="scale(0.004,-0.004)"
         d="M 0,-46 C 0,45 116,136 217,136 280,136 326,101 326,46 326,-41 216,-136 106,-136 39,-136 0,-97 0,-46 Z"
         fill="currentColor"
         id="path13" />
    </g>
  </a>
  <g
     transform="translate(0.8,6.150376)"
     id="g14">
    <path
       transform="scale(0.004,-0.004)"
       d="m 557,-125 c 0,28 23,51 51,51 28,0 51,-23 51,-51 0,-28 -23,-51 -51,-51 -28,0 -51,23 -51,51 z m 0,250 c 0,28 23,51 51,51 28,0 51,-23 51,-51 0,-28 -23,-51 -51,-51 -28,0 -51,23 -51,51 z M 232,263 c 172,0 293,-88 293,-251 0,-263 -263,-414 -516,-521 -3,-3 -6,-4 -9,-4 -7,0 -13,6 -13,13 0,3 1,6 4,9 202,118 412,265 412,493 0,120 -63,235 -171,235 -74,0 -129,-54 -154,-126 11,5 22,8 34,8 C 167,119 212,74 212,19 212,-39 168,-87 112,-87 52,-87 0,-40 0,19 0,152 102,263 232,263 Z"
       fill="currentColor"
       id="path14" />
  </g>
  <g
     transform="translate(5.0034,7.150376)"
     id="g15">
    <path
       transform="scale(0.004,-0.004)"
       d="M 433,-89 C 433,-111 383,-263 250,-263 191,-263 0,-244 0,0 0,62 18,262 250,262 366,262 426,156 426,99 426,59 396,27 359,27 c -31,0 -75,25 -75,75 0,38 27,77 72,77 4,0 9,0 14,-1 -28,37 -72,59 -120,59 C 144,237 137,164 137,51 V 0 -51 c 0,-113 7,-187 113,-187 80,0 139,70 158,151 2,7 7,10 12,10 6,0 13,-4 13,-12 z"
       fill="currentColor"
       id="path15" />
  </g>
  <g
     transform="translate(8.7684,7.150376)"
     id="g16">
    <rect
       x="-0.064999998"
       y="-1.8138"
       width="0.13"
       height="2.8185"
       ry="0.039999999"
       fill="currentColor"
       id="rect15" />
  </g>
  <g
     transform="translate(47.0995,7.960376)"
     id="g17">
    <polygon
       stroke-linejoin="round"
       stroke-linecap="round"
       stroke-width="0.08"
       fill="currentColor"
       stroke="currentColor"
       points="0.04,0.2 0.04,-0.2 2.8442,-0.82 2.8442,-0.42 "
       id="polygon16" />
  </g>
  <a
     style="color:inherit"
     xlink:href="textedit:///Users/devonnuri/Documents/typst/241230%20Linear%20Harmony/lilypond/fig_093.ly:11:7:8"
     id="a18"
     transform="translate(-8.5358,-6.690724)">
    <g
       transform="translate(19.7434,12.3411)"
       id="g18">
      <path
         transform="scale(0.004,-0.004)"
         d="M 0,-46 C 0,45 116,136 217,136 280,136 326,101 326,46 326,-41 216,-136 106,-136 39,-136 0,-97 0,-46 Z"
         fill="currentColor"
         id="path17" />
    </g>
  </a>
  <g
     transform="translate(11.2726,7.150376)"
     id="g19">
    <rect
       x="-0.064999998"
       y="-1.3138"
       width="0.13"
       height="2.4991"
       ry="0.039999999"
       fill="currentColor"
       id="rect18" />
  </g>
  <g
     transform="translate(41.5911,9.960376)"
     id="g20">
    <polygon
       stroke-linejoin="round"
       stroke-linecap="round"
       stroke-width="0.08"
       fill="currentColor"
       stroke="currentColor"
       points="0.04,0.2 0.04,-0.2 2.8442,-0.82 2.8442,-0.42 "
       id="polygon19" />
  </g>
  <a
     style="color:inherit"
     xlink:href="textedit:///Users/devonnuri/Documents/typst/241230%20Linear%20Harmony/lilypond/fig_093.ly:11:9:10"
     id="a21"
     transform="translate(-8.5358,-6.690724)">
    <g
       transform="translate(22.9176,11.8411)"
       id="g21">
      <path
         transform="scale(0.004,-0.004)"
         d="M 0,-46 C 0,45 116,136 217,136 280,136 326,101 326,46 326,-41 216,-136 106,-136 39,-136 0,-97 0,-46 Z"
         fill="currentColor"
         id="path20" />
    </g>
  </a>
  <g
     transform="translate(14.4468,7.150376)"
     id="g22">
    <rect
       x="-0.064999998"
       y="-1.8138"
       width="0.13"
       height="2.8175001"
       ry="0.039999999"
       fill="currentColor"
       id="rect21" />
  </g>
  <g
     transform="translate(13.2318,5.150376)"
     id="g23">
    <path
       transform="scale(0.004,-0.004)"
       d="m 27,41 -1,-66 v -11 c 0,-22 1,-44 4,-66 45,38 93,80 93,139 0,33 -14,67 -43,67 C 49,104 28,74 27,41 Z m -42,-179 -12,595 c 8,5 18,8 27,8 9,0 19,-3 27,-8 L 20,112 c 25,21 58,34 91,34 52,0 89,-48 89,-102 0,-80 -86,-117 -147,-169 -15,-13 -24,-38 -45,-38 -13,0 -23,11 -23,25 z"
       fill="currentColor"
       id="path22" />
  </g>
  <g
     transform="translate(35.7327,9.340376)"
     id="g24">
    <polygon
       stroke-linejoin="round"
       stroke-linecap="round"
       stroke-width="0.08"
       fill="currentColor"
       stroke="currentColor"
       points="0.04,0.2 0.04,-0.2 3.4442,0.61 3.4442,1.01 "
       id="polygon23" />
  </g>
  <a
     style="color:inherit"
     xlink:href="textedit:///Users/devonnuri/Documents/typst/241230%20Linear%20Harmony/lilypond/fig_093.ly:11:13:14"
     id="a25"
     transform="translate(-8.5358,-6.690724)">
    <g
       transform="translate(26.0918,12.3411)"
       id="g25">
      <path
         transform="scale(0.004,-0.004)"
         d="M 0,-46 C 0,45 116,136 217,136 280,136 326,101 326,46 326,-41 216,-136 106,-136 39,-136 0,-97 0,-46 Z"
         fill="currentColor"
         id="path24" />
    </g>
  </a>
  <g
     transform="translate(17.621,7.150376)"
     id="g26">
    <rect
       x="-0.064999998"
       y="-1.3138"
       width="0.13"
       height="2.5000999"
       ry="0.039999999"
       fill="currentColor"
       id="rect25" />
  </g>
  <g
     transform="translate(16.406,5.650376)"
     id="g27">
    <path
       transform="scale(0.004,-0.004)"
       d="m 27,41 -1,-66 v -11 c 0,-22 1,-44 4,-66 45,38 93,80 93,139 0,33 -14,67 -43,67 C 49,104 28,74 27,41 Z m -42,-179 -12,595 c 8,5 18,8 27,8 9,0 19,-3 27,-8 L 20,112 c 25,21 58,34 91,34 52,0 89,-48 89,-102 0,-80 -86,-117 -147,-169 -15,-13 -24,-38 -45,-38 -13,0 -23,11 -23,25 z"
       fill="currentColor"
       id="path26" />
  </g>
  <g
     transform="translate(26.1846,9.340376)"
     id="g28">
    <polygon
       stroke-linejoin="round"
       stroke-linecap="round"
       stroke-width="0.08"
       fill="currentColor"
       stroke="currentColor"
       points="0.04,0.2 0.04,-0.2 2.3442,0.42 2.3442,0.82 "
       id="polygon27" />
  </g>
  <a
     style="color:inherit"
     xlink:href="textedit:///Users/devonnuri/Documents/typst/241230%20Linear%20Harmony/lilypond/fig_093.ly:11:17:18"
     id="a29"
     transform="translate(-8.5358,-6.690724)">
    <g
       transform="translate(29.042,12.3411)"
       id="g29">
      <path
         transform="scale(0.004,-0.004)"
         d="M 0,-46 C 0,45 116,136 217,136 280,136 326,101 326,46 326,-41 216,-136 106,-136 39,-136 0,-97 0,-46 Z"
         fill="currentColor"
         id="path28" />
    </g>
  </a>
  <g
     transform="translate(20.5712,7.150376)"
     id="g30">
    <rect
       x="-0.064999998"
       y="-1.3138"
       width="0.13"
       height="3.1285"
       ry="0.039999999"
       fill="currentColor"
       id="rect29" />
  </g>
  <g
     transform="translate(19.4602,5.650376)"
     id="g31">
    <path
       transform="scale(0.004,-0.004)"
       d="m -7,375 c 8,4 17,7 25,7 8,0 16,-3 24,-7 l -2,-183 106,20 h 3 c 10,0 18,-7 18,-17 l 7,-570 c -8,-4 -17,-7 -25,-7 -8,0 -16,3 -24,7 l 2,183 -106,-20 h -3 c -10,0 -18,7 -18,17 z M 131,112 39,95 l -3,-207 92,17 z"
       fill="currentColor"
       id="path30" />
  </g>
  <g
     transform="translate(20.5062,8.960376)"
     id="g32">
    <polygon
       stroke-linejoin="round"
       stroke-linecap="round"
       stroke-width="0.08"
       fill="currentColor"
       stroke="currentColor"
       points="0.04,0.2 0.04,-0.2 2.5942,-0.01 2.5942,0.39 "
       id="polygon31" />
  </g>
  <a
     style="color:inherit"
     xlink:href="textedit:///Users/devonnuri/Documents/typst/241230%20Linear%20Harmony/lilypond/fig_093.ly:11:19:20"
     id="a33"
     transform="translate(-8.5358,-6.690724)">
    <g
       transform="translate(31.5462,12.8411)"
       id="g33">
      <path
         transform="scale(0.004,-0.004)"
         d="M 0,-46 C 0,45 116,136 217,136 280,136 326,101 326,46 326,-41 216,-136 106,-136 39,-136 0,-97 0,-46 Z"
         fill="currentColor"
         id="path32" />
    </g>
  </a>
  <g
     transform="translate(23.0754,7.150376)"
     id="g34">
    <rect
       x="-0.064999998"
       y="-0.81379998"
       width="0.13"
       height="2.8090999"
       ry="0.039999999"
       fill="currentColor"
       id="rect33" />
  </g>
  <g
     transform="translate(14.3818,8.150376)"
     id="g35">
    <polygon
       stroke-linejoin="round"
       stroke-linecap="round"
       stroke-width="0.08"
       fill="currentColor"
       stroke="currentColor"
       points="0.04,0.2 0.04,-0.2 3.2642,-0.01 3.2642,0.39 "
       id="polygon34" />
  </g>
  <a
     style="color:inherit"
     xlink:href="textedit:///Users/devonnuri/Documents/typst/241230%20Linear%20Harmony/lilypond/fig_093.ly:11:21:22"
     id="a36"
     transform="translate(-8.5358,-6.690724)">
    <g
       transform="translate(34.7204,12.3411)"
       id="g36">
      <path
         transform="scale(0.004,-0.004)"
         d="M 0,-46 C 0,45 116,136 217,136 280,136 326,101 326,46 326,-41 216,-136 106,-136 39,-136 0,-97 0,-46 Z"
         fill="currentColor"
         id="path35" />
    </g>
  </a>
  <g
     transform="translate(26.2496,7.150376)"
     id="g37">
    <rect
       x="-0.064999998"
       y="-1.3138"
       width="0.13"
       height="3.5207"
       ry="0.039999999"
       fill="currentColor"
       id="rect36" />
  </g>
  <g
     transform="translate(25.0346,5.650376)"
     id="g38">
    <path
       transform="scale(0.004,-0.004)"
       d="m 27,41 -1,-66 v -11 c 0,-22 1,-44 4,-66 45,38 93,80 93,139 0,33 -14,67 -43,67 C 49,104 28,74 27,41 Z m -42,-179 -12,595 c 8,5 18,8 27,8 9,0 19,-3 27,-8 L 20,112 c 25,21 58,34 91,34 52,0 89,-48 89,-102 0,-80 -86,-117 -147,-169 -15,-13 -24,-38 -45,-38 -13,0 -23,11 -23,25 z"
       fill="currentColor"
       id="path37" />
  </g>
  <g
     transform="translate(8.7034,8.150376)"
     id="g39">
    <polygon
       stroke-linejoin="round"
       stroke-linecap="round"
       stroke-width="0.08"
       fill="currentColor"
       stroke="currentColor"
       points="0.04,0.2 0.04,-0.2 2.5942,-0.01 2.5942,0.39 "
       id="polygon38" />
  </g>
  <a
     style="color:inherit"
     xlink:href="textedit:///Users/devonnuri/Documents/typst/241230%20Linear%20Harmony/lilypond/fig_093.ly:11:25:26"
     id="a40"
     transform="translate(-8.5358,-6.690724)">
    <g
       transform="translate(36.9746,13.3411)"
       id="g40">
      <path
         transform="scale(0.004,-0.004)"
         d="M 0,-46 C 0,45 116,136 217,136 280,136 326,101 326,46 326,-41 216,-136 106,-136 39,-136 0,-97 0,-46 Z"
         fill="currentColor"
         id="path39" />
    </g>
  </a>
  <g
     transform="translate(28.5038,7.150376)"
     id="g41">
    <rect
       x="-0.064999998"
       y="-0.31380001"
       width="0.13"
       height="3.1069"
       ry="0.039999999"
       fill="currentColor"
       id="rect40" />
  </g>
  <a
     style="color:inherit"
     xlink:href="textedit:///Users/devonnuri/Documents/typst/241230%20Linear%20Harmony/lilypond/fig_093.ly:7:7:8"
     id="a43"
     transform="translate(-8.5358,-6.690724)">
    <g
       transform="translate(40.5643,8.8411)"
       id="g42">
      <text
         font-family="'Tex Gyre Termes'"
         font-size="2.3308px"
         text-anchor="start"
         fill="currentColor"
         id="text41"><tspan
           id="tspan41">B</tspan></text>
    </g>
    <g
       transform="translate(42.3521,8.558)"
       id="g43">
      <path
         transform="scale(0.0038,-0.0038)"
         d="m 29,39 -2,-64 v -11 c 0,-22 2,-43 5,-65 44,38 91,80 91,138 0,33 -13,66 -42,66 C 50,103 30,72 29,39 Z m -57,415 c 9,5 18,8 28,8 10,0 19,-3 28,-8 L 21,111 c 25,23 58,36 92,36 51,0 87,-49 87,-103 0,-79 -84,-117 -144,-169 -16,-14 -25,-41 -47,-41 -14,0 -25,13 -25,27 z"
         fill="currentColor"
         id="path42" />
    </g>
  </a>
  <a
     style="color:inherit"
     xlink:href="textedit:///Users/devonnuri/Documents/typst/241230%20Linear%20Harmony/lilypond/fig_093.ly:12:4:5"
     id="a44"
     transform="translate(-8.5358,-6.690724)">
    <g
       transform="translate(40.5643,12.8411)"
       id="g44">
      <path
         transform="scale(0.004,-0.004)"
         d="M 0,-46 C 0,45 116,136 217,136 280,136 326,101 326,46 326,-41 216,-136 106,-136 39,-136 0,-97 0,-46 Z"
         fill="currentColor"
         id="path43" />
    </g>
  </a>
  <g
     transform="translate(32.0935,7.150376)"
     id="g45">
    <rect
       x="-0.064999998"
       y="-0.81379998"
       width="0.13"
       height="3.3138001"
       ry="0.039999999"
       fill="currentColor"
       id="rect44" />
  </g>
  <a
     style="color:inherit"
     xlink:href="textedit:///Users/devonnuri/Documents/typst/241230%20Linear%20Harmony/lilypond/fig_093.ly:12:7:8"
     id="a46"
     transform="translate(-8.5358,-6.690724)">
    <g
       transform="translate(44.2685,13.3411)"
       id="g46">
      <path
         transform="scale(0.004,-0.004)"
         d="M 0,-46 C 0,45 116,136 217,136 280,136 326,101 326,46 326,-41 216,-136 106,-136 39,-136 0,-97 0,-46 Z"
         fill="currentColor"
         id="path45" />
    </g>
  </a>
  <g
     transform="translate(35.7977,7.150376)"
     id="g47">
    <rect
       x="-0.064999998"
       y="-0.31380001"
       width="0.13"
       height="2.5188999"
       ry="0.039999999"
       fill="currentColor"
       id="rect46" />
  </g>
  <g
     transform="translate(34.5827,6.650376)"
     id="g48">
    <path
       transform="scale(0.004,-0.004)"
       d="m 27,41 -1,-66 v -11 c 0,-22 1,-44 4,-66 45,38 93,80 93,139 0,33 -14,67 -43,67 C 49,104 28,74 27,41 Z m -42,-179 -12,595 c 8,5 18,8 27,8 9,0 19,-3 27,-8 L 20,112 c 25,21 58,34 91,34 52,0 89,-48 89,-102 0,-80 -86,-117 -147,-169 -15,-13 -24,-38 -45,-38 -13,0 -23,11 -23,25 z"
       fill="currentColor"
       id="path47" />
  </g>
  <a
     style="color:inherit"
     xlink:href="textedit:///Users/devonnuri/Documents/typst/241230%20Linear%20Harmony/lilypond/fig_093.ly:12:11:12"
     id="a49"
     transform="translate(-8.5358,-6.690724)">
    <g
       transform="translate(47.6227,14.3411)"
       id="g49">
      <path
         transform="scale(0.004,-0.004)"
         d="M 0,-46 C 0,45 116,136 217,136 280,136 326,101 326,46 326,-41 216,-136 106,-136 39,-136 0,-97 0,-46 Z"
         fill="currentColor"
         id="path48" />
    </g>
  </a>
  <g
     transform="translate(39.1519,7.150376)"
     id="g50">
    <rect
       x="-0.064999998"
       y="0.68620002"
       width="0.13"
       height="2.2987001"
       ry="0.039999999"
       fill="currentColor"
       id="rect49" />
  </g>
  <g
     transform="translate(37.6369,7.650376)"
     id="g51">
    <path
       transform="scale(0.004,-0.004)"
       d="m 0,119 c 0,8 5,15 13,18 l 46,17 v 158 c 0,10 8,19 18,19 10,0 19,-9 19,-19 V 167 l 83,31 v 158 c 0,10 9,19 19,19 10,0 18,-9 18,-19 V 211 l 32,12 c 2,1 5,1 7,1 11,0 20,-9 20,-20 v -60 c 0,-8 -5,-16 -13,-19 L 216,109 V -51 l 32,11 c 2,1 5,1 7,1 11,0 20,-9 20,-20 v -60 c 0,-8 -5,-15 -13,-18 l -46,-17 v -158 c 0,-10 -8,-19 -18,-19 -10,0 -19,9 -19,19 v 145 l -83,-31 v -158 c 0,-10 -9,-19 -19,-19 -10,0 -18,9 -18,19 v 145 l -32,-12 c -2,-1 -5,-1 -7,-1 -11,0 -20,9 -20,20 v 60 c 0,8 5,16 13,19 l 46,16 V 51 L 27,40 C 25,39 22,39 20,39 9,39 0,48 0,59 Z M 179,95 96,65 V -95 l 83,30 z"
       fill="currentColor"
       id="path50" />
  </g>
  <a
     style="color:inherit"
     xlink:href="textedit:///Users/devonnuri/Documents/typst/241230%20Linear%20Harmony/lilypond/fig_093.ly:12:15:16"
     id="a52"
     transform="translate(-8.5358,-6.690724)">
    <g
       transform="translate(50.1269,13.8411)"
       id="g52">
      <path
         transform="scale(0.004,-0.004)"
         d="M 0,-46 C 0,45 116,136 217,136 280,136 326,101 326,46 326,-41 216,-136 106,-136 39,-136 0,-97 0,-46 Z"
         fill="currentColor"
         id="path51" />
    </g>
  </a>
  <g
     transform="translate(41.6561,7.150376)"
     id="g53">
    <rect
       x="-0.064999998"
       y="0.18619999"
       width="0.13"
       height="2.6098001"
       ry="0.039999999"
       fill="currentColor"
       id="rect52" />
  </g>
  <a
     style="color:inherit"
     xlink:href="textedit:///Users/devonnuri/Documents/typst/241230%20Linear%20Harmony/lilypond/fig_093.ly:12:17:18"
     id="a54"
     transform="translate(-8.5358,-6.690724)">
    <g
       transform="translate(52.8811,12.8411)"
       id="g54">
      <path
         transform="scale(0.004,-0.004)"
         d="M 0,-46 C 0,45 116,136 217,136 280,136 326,101 326,46 326,-41 216,-136 106,-136 39,-136 0,-97 0,-46 Z"
         fill="currentColor"
         id="path53" />
    </g>
  </a>
  <g
     transform="translate(44.4103,7.150376)"
     id="g55">
    <rect
       x="-0.064999998"
       y="-0.81379998"
       width="0.13"
       height="3.0178001"
       ry="0.039999999"
       fill="currentColor"
       id="rect54" />
  </g>
  <a
     style="color:inherit"
     xlink:href="textedit:///Users/devonnuri/Documents/typst/241230%20Linear%20Harmony/lilypond/fig_093.ly:12:19:20"
     id="a56"
     transform="translate(-8.5358,-6.690724)">
    <g
       transform="translate(55.6353,11.8411)"
       id="g56">
      <path
         transform="scale(0.004,-0.004)"
         d="M 0,-46 C 0,45 116,136 217,136 280,136 326,101 326,46 326,-41 216,-136 106,-136 39,-136 0,-97 0,-46 Z"
         fill="currentColor"
         id="path55" />
    </g>
  </a>
  <g
     transform="translate(47.1645,7.150376)"
     id="g57">
    <rect
       x="-0.064999998"
       y="-1.8138"
       width="0.13"
       height="2.6098001"
       ry="0.039999999"
       fill="currentColor"
       id="rect56" />
  </g>
  <a
     style="color:inherit"
     xlink:href="textedit:///Users/devonnuri/Documents/typst/241230%20Linear%20Harmony/lilypond/fig_093.ly:12:21:22"
     id="a58"
     transform="translate(-8.5358,-6.690724)">
    <g
       transform="translate(58.3895,10.8411)"
       id="g58">
      <path
         transform="scale(0.004,-0.004)"
         d="M 0,-46 C 0,45 116,136 217,136 280,136 326,101 326,46 326,-41 216,-136 106,-136 39,-136 0,-97 0,-46 Z"
         fill="currentColor"
         id="path57" />
    </g>
  </a>
  <g
     transform="translate(49.9187,7.150376)"
     id="g59">
    <rect
       x="-0.064999998"
       y="-2.8138001"
       width="0.13"
       height="3.0178001"
       ry="0.039999999"
       fill="currentColor"
       id="rect58" />
  </g>
  <a
     style="color:inherit"
     xlink:href="textedit:///Users/devonnuri/Documents/typst/241230%20Linear%20Harmony/lilypond/fig_093.ly:7:11:12"
     id="a61"
     transform="translate(-8.5358,-6.690724)">
    <g
       transform="translate(64.77,8.8411)"
       id="g60">
      <text
         font-family="'Tex Gyre Termes'"
         font-size="2.3308px"
         text-anchor="start"
         fill="currentColor"
         id="text59"><tspan
           id="tspan59">G</tspan></text>
    </g>
    <g
       transform="translate(66.443,7.7817)"
       id="g61">
      <text
         font-family="'Tex Gyre Termes'"
         font-size="1.648px"
         text-anchor="start"
         fill="currentColor"
         id="text60"><tspan
           id="tspan60">7</tspan></text>
    </g>
  </a>
  <a
     style="color:inherit"
     xlink:href="textedit:///Users/devonnuri/Documents/typst/241230%20Linear%20Harmony/lilypond/fig_093.ly:14:4:5"
     id="a62"
     transform="translate(-8.5358,-6.690724)">
    <g
       transform="translate(64.77,17.3411)"
       id="g62">
      <path
         transform="scale(0.004,-0.004)"
         d="M 0,-46 C 0,45 116,136 217,136 280,136 326,101 326,46 326,-41 216,-136 106,-136 39,-136 0,-97 0,-46 Z"
         fill="currentColor"
         id="path61" />
    </g>
  </a>
  <g
     transform="translate(51.6579,8.150376)"
     id="g63">
    <path
       transform="scale(0.004,-0.004)"
       d="m 210,-512 h -4 c -87,0 -159,72 -159,160 0,46 42,83 90,83 43,0 76,-38 76,-83 0,-42 -34,-76 -76,-76 -4,0 -6,0 -10,1 19,-26 47,-42 81,-42 h 3 z m 117,629 c 3,-12 33,-157 46,-272 55,22 81,74 81,125 0,67 -44,135 -127,147 z M 63,19 c 0,-90 79,-188 218,-188 16,0 32,1 50,4 -6,51 -22,159 -48,283 -59,-7 -93,-48 -93,-92 0,-34 21,-70 64,-95 5,-5 6,-10 6,-15 0,-11 -9,-22 -21,-22 -15,0 -104,51 -104,152 0,71 46,141 128,161 -11,48 -24,95 -38,143 C 143,249 63,148 63,19 Z m 212,968 c 26,0 118,-173 118,-299 0,-115 -63,-207 -135,-297 17,-59 33,-119 47,-179 h 1 c 2,0 4,1 6,1 131,0 205,-107 205,-213 0,-82 -44,-164 -140,-196 2,-27 3,-54 3,-81 0,-16 0,-33 -1,-49 -6,-98 -75,-184 -169,-186 l 1,43 c 38,1 127,22 127,194 0,23 -1,46 -3,69 -21,-4 -41,-6 -60,-6 C 79,-212 2,-31 2,90 c 0,144 101,254 191,367 -27,86 -42,136 -42,288 0,152 110,242 124,242 z M 319,860 C 224,806 198,725 198,650 c 0,-60 16,-116 27,-152 68,91 108,171 108,263 0,31 -5,64 -14,99 z"
       fill="currentColor"
       id="path62" />
  </g>
  <g
     transform="translate(57.9884,10.650376)"
     id="g64">
    <path
       transform="scale(0.004,-0.004)"
       d="M 0,0 C 0,31 25,56 56,56 87,56 112,31 112,0 112,-31 87,-56 56,-56 25,-56 0,-31 0,0 Z"
       fill="currentColor"
       id="path63" />
  </g>
  <g
     transform="translate(57.4734,7.150376)"
     id="g65">
    <rect
       x="-0.064999998"
       y="0"
       width="0.13"
       height="3.3138001"
       ry="0.039999999"
       fill="currentColor"
       id="rect64" />
  </g>
  <g
     transform="translate(55.1999,10.650376)"
     id="g66">
    <path
       transform="scale(0.004,-0.004)"
       d="m -7,375 c 8,4 17,7 25,7 8,0 16,-3 24,-7 l -2,-183 106,20 h 3 c 10,0 18,-7 18,-17 l 7,-570 c -8,-4 -17,-7 -25,-7 -8,0 -16,3 -24,7 l 2,183 -106,-20 h -3 c -10,0 -18,7 -18,17 z M 131,112 39,95 l -3,-207 92,17 z"
       fill="currentColor"
       id="path65" />
  </g>
  <a
     style="color:inherit"
     xlink:href="textedit:///Users/devonnuri/Documents/typst/241230%20Linear%20Harmony/lilypond/fig_093.ly:14:9:10"
     id="a67"
     transform="translate(-8.5358,-6.690724)">
    <g
       transform="translate(69.1762,14.3411)"
       id="g67">
      <path
         transform="scale(0.004,-0.004)"
         d="M 0,-46 C 0,45 116,136 217,136 280,136 326,101 326,46 326,-41 216,-136 106,-136 39,-136 0,-97 0,-46 Z"
         fill="currentColor"
         id="path66" />
    </g>
  </a>
  <g
     transform="translate(61.8796,7.150376)"
     id="g68">
    <rect
       x="-0.064999998"
       y="-3"
       width="0.13"
       height="3.3138001"
       ry="0.039999999"
       fill="currentColor"
       id="rect67" />
  </g>
  <g
     transform="translate(61.9446,4.190376)"
     id="g69">
    <path
       transform="scale(0.004,-0.004)"
       d="M 0,0 V -375 H -16 V 0 Z m 123,-729 c 0,10 42,87 42,196 0,103 -94,208 -165,283 V 0 c 0,-197 207,-336 207,-533 0,-71 -15,-141 -41,-207 -5,-8 -13,-12 -20,-12 -12,0 -23,9 -23,23 z"
       fill="currentColor"
       id="path68" />
  </g>
  <g
     transform="translate(59.4904,7.650376)"
     id="g70">
    <path
       transform="scale(0.004,-0.004)"
       d="m 27,41 -1,-66 v -11 c 0,-22 1,-44 4,-66 45,38 93,80 93,139 0,33 -14,67 -43,67 C 49,104 28,74 27,41 Z m -42,-179 -12,595 c 8,5 18,8 27,8 9,0 19,-3 27,-8 L 20,112 c 25,21 58,34 91,34 52,0 89,-48 89,-102 0,-80 -86,-117 -147,-169 -15,-13 -24,-38 -45,-38 -13,0 -23,11 -23,25 z"
       fill="currentColor"
       id="path69" />
  </g>
  <a
     style="color:inherit"
     xlink:href="textedit:///Users/devonnuri/Documents/typst/241230%20Linear%20Harmony/lilypond/fig_093.ly:14:16:17"
     id="a71"
     transform="translate(-8.5358,-6.690724)">
    <g
       transform="translate(71.7436,14.3411)"
       id="g71">
      <path
         transform="scale(0.004,-0.004)"
         d="M 0,-46 C 0,45 116,136 217,136 280,136 326,101 326,46 326,-41 216,-136 106,-136 39,-136 0,-97 0,-46 Z"
         fill="currentColor"
         id="path70" />
    </g>
  </a>
  <g
     transform="translate(64.447,7.150376)"
     id="g72">
    <rect
       x="-0.064999998"
       y="-3"
       width="0.13"
       height="3.3138001"
       ry="0.039999999"
       fill="currentColor"
       id="rect71" />
  </g>
  <g
     transform="translate(64.512,4.190376)"
     id="g73">
    <path
       transform="scale(0.004,-0.004)"
       d="M 0,0 V -375 H -16 V 0 Z m 123,-729 c 0,10 42,87 42,196 0,103 -94,208 -165,283 V 0 c 0,-197 207,-336 207,-533 0,-71 -15,-141 -41,-207 -5,-8 -13,-12 -20,-12 -12,0 -23,9 -23,23 z"
       fill="currentColor"
       id="path72" />
  </g>
  <g
     transform="translate(86.8467,7.150376)"
     id="g74">
    <path
       transform="scale(0.004,-0.004)"
       d="m 27,41 -1,-66 v -11 c 0,-22 1,-44 4,-66 45,38 93,80 93,139 0,33 -14,67 -43,67 C 49,104 28,74 27,41 Z m -42,-179 -12,595 c 8,5 18,8 27,8 9,0 19,-3 27,-8 L 20,112 c 25,21 58,34 91,34 52,0 89,-48 89,-102 0,-80 -86,-117 -147,-169 -15,-13 -24,-38 -45,-38 -13,0 -23,11 -23,25 z"
       fill="currentColor"
       id="path73" />
  </g>
  <a
     style="color:inherit"
     xlink:href="textedit:///Users/devonnuri/Documents/typst/241230%20Linear%20Harmony/lilypond/fig_093.ly:14:20:21"
     id="a75"
     transform="translate(-8.5358,-6.690724)">
    <g
       transform="translate(74.311,14.8411)"
       id="g75">
      <path
         transform="scale(0.004,-0.004)"
         d="M 0,-46 C 0,45 116,136 217,136 280,136 326,101 326,46 326,-41 216,-136 106,-136 39,-136 0,-97 0,-46 Z"
         fill="currentColor"
         id="path74" />
    </g>
  </a>
  <g
     transform="translate(67.0144,7.150376)"
     id="g76">
    <rect
       x="-0.064999998"
       y="-2.5"
       width="0.13"
       height="3.3138001"
       ry="0.039999999"
       fill="currentColor"
       id="rect75" />
  </g>
  <a
     style="color:inherit"
     xlink:href="textedit:///Users/devonnuri/Documents/typst/241230%20Linear%20Harmony/lilypond/fig_093.ly:14:23:24"
     id="a77"
     transform="translate(-8.5358,-6.690724)">
    <g
       transform="translate(78.0152,15.3411)"
       id="g77">
      <path
         transform="scale(0.004,-0.004)"
         d="M 0,-46 C 0,45 116,136 217,136 280,136 326,101 326,46 326,-41 216,-136 106,-136 39,-136 0,-97 0,-46 Z"
         fill="currentColor"
         id="path76" />
    </g>
  </a>
  <g
     transform="translate(70.7186,7.150376)"
     id="g78">
    <rect
       x="-0.064999998"
       y="-2"
       width="0.13"
       height="3.3138001"
       ry="0.039999999"
       fill="currentColor"
       id="rect77" />
  </g>
  <g
     transform="translate(70.7836,5.190376)"
     id="g79">
    <path
       transform="scale(0.004,-0.004)"
       d="M 0,0 V -375 H -16 V 0 Z m 123,-729 c 0,10 42,87 42,196 0,103 -94,208 -165,283 V 0 c 0,-197 207,-336 207,-533 0,-71 -15,-141 -41,-207 -5,-8 -13,-12 -20,-12 -12,0 -23,9 -23,23 z"
       fill="currentColor"
       id="path78" />
  </g>
  <g
     transform="translate(88.1267,10.485376)"
     id="g80">
    <path
       transform="scale(0.004,-0.004)"
       d="M 0,0 H -16 V 375 H 0 Z m 224,509 c 0,94 -40,158 -40,168 0,14 11,22 23,22 7,0 15,-3 20,-11 25,-56 40,-117 40,-179 C 267,306 0,203 0,0 v 250 c 97,59 224,148 224,259 z"
       fill="currentColor"
       id="path79" />
  </g>
  <a
     style="color:inherit"
     xlink:href="textedit:///Users/devonnuri/Documents/typst/241230%20Linear%20Harmony/lilypond/fig_093.ly:7:15:16"
     id="a82"
     transform="translate(-8.5358,-6.690724)">
    <g
       transform="translate(81.6726,8.8411)"
       id="g81">
      <text
         font-family="'Tex Gyre Termes'"
         font-size="2.3308px"
         text-anchor="start"
         fill="currentColor"
         id="text80"><tspan
           id="tspan80">C</tspan></text>
    </g>
    <g
       transform="translate(83.2432,7.7817)"
       id="g82">
      <text
         font-family="'Tex Gyre Termes'"
         font-size="1.648px"
         text-anchor="start"
         fill="currentColor"
         id="text81"><tspan
           id="tspan81">7</tspan></text>
    </g>
  </a>
  <a
     style="color:inherit"
     xlink:href="textedit:///Users/devonnuri/Documents/typst/241230%20Linear%20Harmony/lilypond/fig_093.ly:15:4:5"
     id="a83"
     transform="translate(-8.5358,-6.690724)">
    <g
       transform="translate(81.6726,15.8411)"
       id="g83">
      <path
         transform="scale(0.004,-0.004)"
         d="M 0,-46 C 0,45 116,136 217,136 280,136 326,101 326,46 326,-41 216,-136 106,-136 39,-136 0,-97 0,-46 Z"
         fill="currentColor"
         id="path82" />
    </g>
  </a>
  <g
     transform="translate(74.891,8.650376)"
     id="g84">
    <path
       transform="scale(0.004,-0.004)"
       d="M 0,0 C 0,31 25,56 56,56 87,56 112,31 112,0 112,-31 87,-56 56,-56 25,-56 0,-31 0,0 Z"
       fill="currentColor"
       id="path83" />
  </g>
  <g
     transform="translate(74.376,7.150376)"
     id="g85">
    <rect
       x="-0.064999998"
       y="-1.5"
       width="0.13"
       height="3.3138001"
       ry="0.039999999"
       fill="currentColor"
       id="rect84" />
  </g>
  <a
     style="color:inherit"
     xlink:href="textedit:///Users/devonnuri/Documents/typst/241230%20Linear%20Harmony/lilypond/fig_093.ly:15:8:9"
     id="a86"
     transform="translate(-8.5358,-6.690724)">
    <g
       transform="translate(86.4541,12.8411)"
       id="g86">
      <path
         transform="scale(0.004,-0.004)"
         d="M 0,-46 C 0,45 116,136 217,136 280,136 326,101 326,46 326,-41 216,-136 106,-136 39,-136 0,-97 0,-46 Z"
         fill="currentColor"
         id="path85" />
    </g>
  </a>
  <g
     transform="translate(77.9833,7.150376)"
     id="g87">
    <rect
       x="-0.064999998"
       y="-0.81379998"
       width="0.13"
       height="3.3138001"
       ry="0.039999999"
       fill="currentColor"
       id="rect86" />
  </g>
  <g
     transform="translate(78.0483,9.610376)"
     id="g88">
    <path
       transform="scale(0.004,-0.004)"
       d="M 0,0 H -16 V 375 H 0 Z m 224,509 c 0,94 -40,158 -40,168 0,14 11,22 23,22 7,0 15,-3 20,-11 25,-56 40,-117 40,-179 C 267,306 0,203 0,0 v 250 c 97,59 224,148 224,259 z"
       fill="currentColor"
       id="path87" />
  </g>
  <g
     transform="translate(76.7683,6.150376)"
     id="g89">
    <path
       transform="scale(0.004,-0.004)"
       d="m 27,41 -1,-66 v -11 c 0,-22 1,-44 4,-66 45,38 93,80 93,139 0,33 -14,67 -43,67 C 49,104 28,74 27,41 Z m -42,-179 -12,595 c 8,5 18,8 27,8 9,0 19,-3 27,-8 L 20,112 c 25,21 58,34 91,34 52,0 89,-48 89,-102 0,-80 -86,-117 -147,-169 -15,-13 -24,-38 -45,-38 -13,0 -23,11 -23,25 z"
       fill="currentColor"
       id="path88" />
  </g>
  <g
     transform="translate(88.0617,7.150376)"
     id="g90">
    <rect
       x="-0.064999998"
       y="0.18619999"
       width="0.13"
       height="3.1888001"
       ry="0.039999999"
       fill="currentColor"
       id="rect89" />
  </g>
  <a
     style="color:inherit"
     xlink:href="textedit:///Users/devonnuri/Documents/typst/241230%20Linear%20Harmony/lilypond/fig_093.ly:15:14:15"
     id="a91"
     transform="translate(-8.5358,-6.690724)">
    <g
       transform="translate(88.9583,13.8411)"
       id="g91">
      <path
         transform="scale(0.004,-0.004)"
         d="m 70,205 c 79,0 46,-98 91,-98 16,0 54,48 61,63 3,6 8,9 14,9 6,0 12,-3 14,-9 L 127,-250 c -8,-7 -17,-10 -27,-10 -10,0 -20,3 -28,10 L 189,76 C 155,64 120,54 84,54 26,54 -1,95 -1,134 c 0,36 24,71 71,71 z"
         fill="currentColor"
         id="path90" />
    </g>
  </a>
  <a
     style="color:inherit"
     xlink:href="textedit:///Users/devonnuri/Documents/typst/241230%20Linear%20Harmony/lilypond/fig_093.ly:15:20:21"
     id="a92"
     transform="translate(-8.5358,-6.690724)">
    <g
       transform="translate(96.5325,13.8411)"
       id="g92">
      <path
         transform="scale(0.004,-0.004)"
         d="M 0,-46 C 0,45 116,136 217,136 280,136 326,101 326,46 326,-41 216,-136 106,-136 39,-136 0,-97 0,-46 Z"
         fill="currentColor"
         id="path91" />
    </g>
  </a>
  <a
     style="color:inherit"
     xlink:href="textedit:///Users/devonnuri/Documents/typst/241230%20Linear%20Harmony/lilypond/fig_093.ly:15:16:17"
     id="a93"
     transform="translate(-8.5358,-6.690724)">
    <g
       transform="translate(91.1583,13.3411)"
       id="g93">
      <path
         transform="scale(0.004,-0.004)"
         d="M 0,-46 C 0,45 116,136 217,136 280,136 326,101 326,46 326,-41 216,-136 106,-136 39,-136 0,-97 0,-46 Z"
         fill="currentColor"
         id="path92" />
    </g>
  </a>
  <g
     transform="translate(82.6875,7.150376)"
     id="g94">
    <rect
       x="-0.064999998"
       y="-0.31380001"
       width="0.13"
       height="3.3138001"
       ry="0.039999999"
       fill="currentColor"
       id="rect93" />
  </g>
  <g
     transform="translate(82.7525,10.110376)"
     id="g95">
    <path
       transform="scale(0.004,-0.004)"
       d="M 0,0 H -16 V 375 H 0 Z m 224,509 c 0,94 -40,158 -40,168 0,14 11,22 23,22 7,0 15,-3 20,-11 25,-56 40,-117 40,-179 C 267,306 0,203 0,0 v 250 c 97,59 224,148 224,259 z"
       fill="currentColor"
       id="path94" />
  </g>
  <a
     style="color:inherit"
     xlink:href="textedit:///Users/devonnuri/Documents/typst/241230%20Linear%20Harmony/lilypond/fig_093.ly:15:18:19"
     id="a96"
     transform="translate(-8.5358,-6.690724)">
    <g
       transform="translate(93.6625,13.8411)"
       id="g96">
      <path
         transform="scale(0.004,-0.004)"
         d="m 70,205 c 79,0 46,-98 91,-98 16,0 54,48 61,63 3,6 8,9 14,9 6,0 12,-3 14,-9 L 127,-250 c -8,-7 -17,-10 -27,-10 -10,0 -20,3 -28,10 L 189,76 C 155,64 120,54 84,54 26,54 -1,95 -1,134 c 0,36 24,71 71,71 z"
         fill="currentColor"
         id="path95" />
    </g>
  </a>
</svg>
