<?xml version="1.0" encoding="UTF-8" standalone="no"?>
<svg
   version="1.2"
   width="124.46209mm"
   height="23.413368mm"
   viewBox="0 0 70.825804 13.323499"
   id="svg93"
   sodipodi:docname="fig_163.svg"
   xmlns:inkscape="http://www.inkscape.org/namespaces/inkscape"
   xmlns:sodipodi="http://sodipodi.sourceforge.net/DTD/sodipodi-0.dtd"
   xmlns="http://www.w3.org/2000/svg"
   xmlns:svg="http://www.w3.org/2000/svg">
  <defs
     id="defs93" />
  <sodipodi:namedview
     id="namedview93"
     pagecolor="#505050"
     bordercolor="#eeeeee"
     borderopacity="1"
     inkscape:showpageshadow="0"
     inkscape:pageopacity="0"
     inkscape:pagecheckerboard="0"
     inkscape:deskcolor="#505050"
     inkscape:document-units="mm" />
  <style
     type="text/css"
     id="style1"><![CDATA[
tspan { white-space: pre; }
]]></style>
  <g
     transform="translate(70.6358,8.2955)"
     id="g1">
    <path
       id="rect1"
       style="fill:currentColor"
       d="M 0,-2 H 0.19 V 2 H 0 Z" />
  </g>
  <g
     transform="translate(70.1458,8.2955)"
     id="g2">
    <path
       id="rect2"
       style="fill:currentColor"
       d="M 0,-2 H 0.19 V 2 H 0 Z" />
  </g>
  <g
     transform="translate(0,11.2955)"
     id="g3">
    <path
       id="rect3"
       style="fill:currentColor"
       d="m 53.518999,-0.1 h 1.6141 c 0.0554,0 0.1,0.0446 0.1,0.1 0,0.0554 -0.0446,0.1 -0.1,0.1 h -1.6141 c -0.0554,0 -0.1,-0.0446 -0.1,-0.1 0,-0.0554 0.0446,-0.1 0.1,-0.1 z" />
  </g>
  <g
     transform="translate(0,11.2955)"
     id="g4">
    <path
       id="rect4"
       style="fill:currentColor"
       d="m 48.970701,-0.1 h 1.7563 c 0.0554,0 0.1,0.0446 0.1,0.1 0,0.0554 -0.0446,0.1 -0.1,0.1 h -1.7563 c -0.0554,0 -0.1,-0.0446 -0.1,-0.1 0,-0.0554 0.0446,-0.1 0.1,-0.1 z" />
  </g>
  <g
     transform="translate(0,10.2955)"
     id="g5">
    <path
       id="line4"
       style="stroke:currentColor;stroke-width:0.1;stroke-linecap:round;stroke-linejoin:round"
       d="M 0.05,0 H 70.775803" />
  </g>
  <g
     transform="translate(0,9.2955)"
     id="g6">
    <path
       id="line5"
       style="stroke:currentColor;stroke-width:0.1;stroke-linecap:round;stroke-linejoin:round"
       d="M 0.05,0 H 70.775803" />
  </g>
  <g
     transform="translate(0,8.2955)"
     id="g7">
    <path
       id="line6"
       style="stroke:currentColor;stroke-width:0.1;stroke-linecap:round;stroke-linejoin:round"
       d="M 0.05,0 H 70.775803" />
  </g>
  <g
     transform="translate(0,7.2955)"
     id="g8">
    <path
       id="line7"
       style="stroke:currentColor;stroke-width:0.1;stroke-linecap:round;stroke-linejoin:round"
       d="M 0.05,0 H 70.775803" />
  </g>
  <g
     transform="translate(0,6.2955)"
     id="g9">
    <path
       id="line8"
       style="stroke:currentColor;stroke-width:0.1;stroke-linecap:round;stroke-linejoin:round"
       d="M 0.05,0 H 70.775803" />
  </g>
  <g
     transform="translate(38.0222,8.2955)"
     id="g10">
    <path
       id="rect9"
       style="fill:currentColor"
       d="M 0,-2 H 0.19 V 2 H 0 Z" />
  </g>
  <g
     transform="translate(62.3574,6.1055)"
     id="g11">
    <path
       id="polygon10"
       style="fill:currentColor;stroke:currentColor;stroke-width:0.08;stroke-linecap:round;stroke-linejoin:round"
       d="m 6.2984,0.18 v 0.4 L 0.04,0.2 v -0.4 z" />
  </g>
  <g
     transform="translate(66.0616,7.1375)"
     id="g12">
    <path
       id="polygon11"
       style="fill:currentColor;stroke:currentColor;stroke-width:0.08;stroke-linecap:round;stroke-linejoin:round"
       d="m 2.5942,-0.0421 v 0.4 L 0.04,0.2 v -0.4 z" />
  </g>
  <g
     transform="translate(54.7771,5.4855)"
     id="g13">
    <path
       id="polygon12"
       style="fill:currentColor;stroke:currentColor;stroke-width:0.08;stroke-linecap:round;stroke-linejoin:round"
       d="m 3.2642,-1.58 v 0.4 L 0.04,0.2 v -0.4 z" />
  </g>
  <g
     transform="translate(54.7771,6.2955)"
     id="g14">
    <path
       id="polygon13"
       style="fill:currentColor;stroke:currentColor;stroke-width:0.08;stroke-linecap:round;stroke-linejoin:round"
       d="m 1.125,-0.6866 v 0.4 L 0.04,0.2 v -0.4 z" />
  </g>
  <g
     transform="translate(9.155,2.2955)"
     id="g15">
    <path
       style="font-size:2.3308px;font-family:'NewComputerModern Math';white-space:pre"
       d="m 1.549982,-0.54307641 c 0,-0.023308 0,-0.0396236 -0.0303,-0.0396236 -0.025639,0 -0.025639,0.0139848 -0.02797,0.0372928 -0.018646,0.3333044 -0.268042,0.52443001 -0.52209918,0.52443001 -0.1421788,0 -0.59901561,-0.0792472 -0.59901561,-0.77382562 0,-0.69690918 0.45450601,-0.77615638 0.59668481,-0.77615638 0.25405718,0 0.46149838,0.2121028 0.50811438,0.5523996 0.00466,0.0326312 0.00466,0.0396236 0.037293,0.0396236 0.037293,0 0.037293,-0.006992 0.037293,-0.0559392 v -0.5523996 c 0,-0.039624 0,-0.055939 -0.025639,-0.055939 -0.00932,0 -0.018646,0 -0.037293,0.02797 l -0.11654,0.1724792 C 1.2842708,-1.526674 1.1654,-1.643214 0.94164322,-1.643214 c -0.43585961,0 -0.81111842,0.3705972 -0.81111842,0.84608038 0,0.48247561 0.37758961,0.84841122 0.81111842,0.84841122 0.37992038,0 0.60833878,-0.32398121 0.60833878,-0.59435401 z"
       id="text14"
       aria-label="C" />
  </g>
  <g
     transform="translate(10.828,3.0901)"
     id="g16">
    <path
       style="font-size:1.648px;font-family:'NewComputerModern Math';white-space:pre"
       d="m 1.189856,-0.412 c 0,-0.018128 -0.014832,-0.03296 -0.03296,-0.03296 H 0.125248 c -0.018128,0 -0.03296,0.014832 -0.03296,0.03296 0,0.018128 0.014832,0.03296 0.03296,0.03296 h 1.031648 c 0.018128,0 0.03296,-0.014832 0.03296,-0.03296 z"
       id="text15"
       aria-label="−" />
  </g>
  <g
     transform="translate(12.1255,3.0901)"
     id="g17">
    <path
       style="font-size:1.648px;font-family:'NewComputerModern Math';white-space:pre"
       d="M 0.79928,-1.061312 H 0.398816 c -0.201056,0 -0.204352,-0.021424 -0.210944,-0.052736 h -0.0412 L 0.092288,-0.77456 h 0.0412 c 0.004944,-0.026368 0.019776,-0.130192 0.0412,-0.149968 0.011536,-0.009888 0.14008,-0.009888 0.161504,-0.009888 h 0.341136 l -0.184576,0.260384 c -0.14832,0.22248 -0.202704,0.451552 -0.202704,0.619648 0,0.01648 0,0.09064 0.075808,0.09064 0.075808,0 0.075808,-0.07416 0.075808,-0.09064 v -0.084048 c 0,-0.09064 0.004944,-0.18128 0.018128,-0.270272 0.006592,-0.037904 0.029664,-0.179632 0.102176,-0.281808 l 0.22248,-0.31312 C 0.79928,-1.023408 0.79928,-1.026704 0.79928,-1.061312 Z"
       id="text16"
       aria-label="7" />
  </g>
  <g
     transform="translate(9.155,6.7955)"
     id="g18">
    <path
       transform="scale(0.004,-0.004)"
       d="M 0,-46 C 0,45 116,136 217,136 280,136 326,101 326,46 326,-41 216,-136 106,-136 39,-136 0,-97 0,-46 Z"
       fill="currentColor"
       id="path17" />
  </g>
  <g
     transform="translate(9.155,5.3917)"
     id="g19">
    <path
       style="font-size:2.2px;font-family:'NewComputerModern Math';white-space:pre"
       d="m 1.056,-0.1298 c 0,-0.0242 -0.0198,-0.044 -0.044,-0.044 -0.0044,0 -0.0088,0 -0.0132,0.0022 -0.11,0.033 -0.209,0.0924 -0.2904,0.1694 -0.044,0.044 -0.0814,0.0924 -0.11440001,0.143 v -1.6434 c 0,-0.0242 -0.0198,-0.044 -0.044,-0.044 -0.0242,0 -0.044,0.0198 -0.044,0.044 v 1.6434 c -0.033,-0.0506 -0.0704,-0.099 -0.1144,-0.143 C 0.31020001,-0.0792 0.2112,-0.1386 0.1012,-0.1716 0.0968,-0.1738 0.0924,-0.1738 0.088,-0.1738 c -0.0242,0 -0.044,0.0198 -0.044,0.044 0,0.0198 0.0132,0.0352 0.0308,0.0418 0.0968,0.0286 0.18480001,0.0814 0.25520001,0.1496 0.088,0.0858 0.1628,0.18700001 0.1914,0.31020001 0.0022,0.0132 0.0154,0.022 0.0286,0.022 0.0132,0 0.0264,-0.0088 0.0286,-0.022 0.0286,-0.1232 0.1034,-0.22440001 0.19140001,-0.31020001 0.0704,-0.0682 0.1584,-0.121 0.25519998,-0.1496 C 1.0428,-0.0946 1.056,-0.11 1.056,-0.1298 Z"
       id="text18"
       aria-label="↓" />
  </g>
  <g
     transform="translate(0.8,9.2955)"
     id="g20">
    <path
       transform="scale(0.004,-0.004)"
       d="m 266,-635 h -6 c -108,0 -195,88 -195,197 0,58 53,103 112,103 54,0 95,-47 95,-103 0,-52 -43,-95 -95,-95 -11,0 -21,2 -31,6 26,-39 68,-65 117,-65 h 4 z m 135,786 c 19,-89 48,-242 60,-354 76,27 112,94 112,163 0,89 -60,179 -172,191 z M 74,28 c 0,-112 98,-247 278,-247 21,0 44,2 68,6 -7,64 -29,203 -63,364 -79,-8 -124,-61 -124,-119 0,-44 25,-91 81,-123 5,-5 7,-10 7,-15 0,-11 -10,-22 -22,-22 -15,0 -126,62 -126,187 0,88 58,174 160,197 -14,58 -29,117 -46,175 C 180,310 74,188 74,28 Z m 283,1166 c 28,0 143,-206 143,-361 0,-143 -86,-255 -180,-364 21,-68 39,-138 56,-207 5,0 10,1 14,1 155,0 255,-129 255,-262 0,-113 -74,-212 -180,-245 3,-35 5,-70 5,-105 0,-19 -1,-39 -2,-58 -7,-119 -88,-225 -202,-228 l 1,43 c 93,2 153,92 159,191 1,18 2,37 2,55 0,31 -1,61 -4,92 -28,-5 -55,-8 -80,-8 -239,0 -342,217 -342,374 0,177 131,306 248,441 -29,96 -52,170 -52,346 0,189 144,295 159,295 z M 247,782 c 0,-55 12,-115 35,-190 83,100 147,202 147,326 0,40 -6,82 -21,127 -49,-24 -161,-97 -161,-263 z"
       fill="currentColor"
       id="path19" />
  </g>
  <g
     transform="translate(4.885,8.2955)"
     id="g21">
    <path
       transform="scale(0.004,-0.004)"
       d="M 433,-89 C 433,-111 383,-263 250,-263 191,-263 0,-244 0,0 0,62 18,262 250,262 366,262 426,156 426,99 426,59 396,27 359,27 c -31,0 -75,25 -75,75 0,38 27,77 72,77 4,0 9,0 14,-1 -28,37 -72,59 -120,59 C 144,237 137,164 137,51 V 0 -51 c 0,-113 7,-187 113,-187 80,0 139,70 158,151 2,7 7,10 12,10 6,0 13,-4 13,-12 z"
       fill="currentColor"
       id="path20" />
  </g>
  <g
     transform="translate(9.22,8.2955)"
     id="g22">
    <path
       id="rect21"
       style="fill:currentColor"
       d="m -0.025,-1.3138 h 0.05 c 0.02216,0 0.04,0.01784 0.04,0.04 v 3.2338001 c 0,0.02216 -0.01784,0.04 -0.04,0.04 h -0.05 c -0.02216,0 -0.04,-0.01784 -0.04,-0.04 V -1.2738 c 0,-0.02216 0.01784,-0.04 0.04,-0.04 z" />
  </g>
  <g
     transform="translate(8.005,6.7955)"
     id="g23">
    <path
       transform="scale(0.004,-0.004)"
       d="m 27,41 -1,-66 v -11 c 0,-22 1,-44 4,-66 45,38 93,80 93,139 0,33 -14,67 -43,67 C 49,104 28,74 27,41 Z m -42,-179 -12,595 c 8,5 18,8 27,8 9,0 19,-3 27,-8 L 20,112 c 25,21 58,34 91,34 52,0 89,-48 89,-102 0,-80 -86,-117 -147,-169 -15,-13 -24,-38 -45,-38 -13,0 -23,11 -23,25 z"
       fill="currentColor"
       id="path22" />
  </g>
  <g
     transform="translate(47.8667,7.2955)"
     id="g24">
    <path
       id="polygon23"
       style="fill:currentColor;stroke:currentColor;stroke-width:0.08;stroke-linecap:round;stroke-linejoin:round"
       d="m 2.5942,-0.01 v 0.4 L 0.04,0.2 v -0.4 z" />
  </g>
  <g
     transform="translate(47.8667,8.1055)"
     id="g25">
    <path
       id="polygon24"
       style="fill:currentColor;stroke:currentColor;stroke-width:0.08;stroke-linecap:round;stroke-linejoin:round"
       d="m 1.125,-0.116 v 0.4 L 0.04,0.2 v -0.4 z" />
  </g>
  <g
     transform="translate(14.0592,7.2955)"
     id="g26">
    <path
       transform="scale(0.004,-0.004)"
       d="M 0,-46 C 0,45 116,136 217,136 280,136 326,101 326,46 326,-41 216,-136 106,-136 39,-136 0,-97 0,-46 Z"
       fill="currentColor"
       id="path25" />
  </g>
  <g
     transform="translate(14.0592,5.3917)"
     id="g27">
    <path
       style="font-size:2.2px;font-family:'NewComputerModern Math';white-space:pre"
       d="m 1.056,-0.1298 c 0,-0.0242 -0.0198,-0.044 -0.044,-0.044 -0.0044,0 -0.0088,0 -0.0132,0.0022 -0.11,0.033 -0.209,0.0924 -0.2904,0.1694 -0.044,0.044 -0.0814,0.0924 -0.11440001,0.143 v -1.6434 c 0,-0.0242 -0.0198,-0.044 -0.044,-0.044 -0.0242,0 -0.044,0.0198 -0.044,0.044 v 1.6434 c -0.033,-0.0506 -0.0704,-0.099 -0.1144,-0.143 C 0.31020001,-0.0792 0.2112,-0.1386 0.1012,-0.1716 0.0968,-0.1738 0.0924,-0.1738 0.088,-0.1738 c -0.0242,0 -0.044,0.0198 -0.044,0.044 0,0.0198 0.0132,0.0352 0.0308,0.0418 0.0968,0.0286 0.18480001,0.0814 0.25520001,0.1496 0.088,0.0858 0.1628,0.18700001 0.1914,0.31020001 0.0022,0.0132 0.0154,0.022 0.0286,0.022 0.0132,0 0.0264,-0.0088 0.0286,-0.022 0.0286,-0.1232 0.1034,-0.22440001 0.19140001,-0.31020001 0.0704,-0.0682 0.1584,-0.121 0.25519998,-0.1496 C 1.0428,-0.0946 1.056,-0.11 1.056,-0.1298 Z"
       id="text26"
       aria-label="↓" />
  </g>
  <g
     transform="translate(14.1242,8.2955)"
     id="g28">
    <path
       id="rect27"
       style="fill:currentColor"
       d="m -0.025,-0.81379998 h 0.05 c 0.02216,0 0.04,0.01784 0.04,0.04 V 2.1557999 c 0,0.02216 -0.01784,0.04 -0.04,0.04 h -0.05 c -0.02216,0 -0.04,-0.01784 -0.04,-0.04 v -2.92959988 c 0,-0.02216 0.01784,-0.04 0.04,-0.04 z" />
  </g>
  <g
     transform="translate(40.2864,6.2955)"
     id="g29">
    <path
       id="polygon28"
       style="fill:currentColor;stroke:currentColor;stroke-width:0.08;stroke-linecap:round;stroke-linejoin:round"
       d="m 3.2642,-0.01 v 0.4 L 0.04,0.2 v -0.4 z" />
  </g>
  <g
     transform="translate(40.2864,7.1055)"
     id="g30">
    <path
       id="polygon29"
       style="fill:currentColor;stroke:currentColor;stroke-width:0.08;stroke-linecap:round;stroke-linejoin:round"
       d="m 1.125,-0.133 v 0.4 L 0.04,0.2 v -0.4 z" />
  </g>
  <g
     transform="translate(17.7634,7.7955)"
     id="g31">
    <path
       transform="scale(0.004,-0.004)"
       d="M 0,-46 C 0,45 116,136 217,136 280,136 326,101 326,46 326,-41 216,-136 106,-136 39,-136 0,-97 0,-46 Z"
       fill="currentColor"
       id="path30" />
  </g>
  <g
     transform="translate(17.7634,5.3917)"
     id="g32">
    <path
       style="font-size:2.2px;font-family:'NewComputerModern Math';white-space:pre"
       d="m 1.056,-0.1298 c 0,-0.0242 -0.0198,-0.044 -0.044,-0.044 -0.0044,0 -0.0088,0 -0.0132,0.0022 -0.11,0.033 -0.209,0.0924 -0.2904,0.1694 -0.044,0.044 -0.0814,0.0924 -0.11440001,0.143 v -1.6434 c 0,-0.0242 -0.0198,-0.044 -0.044,-0.044 -0.0242,0 -0.044,0.0198 -0.044,0.044 v 1.6434 c -0.033,-0.0506 -0.0704,-0.099 -0.1144,-0.143 C 0.31020001,-0.0792 0.2112,-0.1386 0.1012,-0.1716 0.0968,-0.1738 0.0924,-0.1738 0.088,-0.1738 c -0.0242,0 -0.044,0.0198 -0.044,0.044 0,0.0198 0.0132,0.0352 0.0308,0.0418 0.0968,0.0286 0.18480001,0.0814 0.25520001,0.1496 0.088,0.0858 0.1628,0.18700001 0.1914,0.31020001 0.0022,0.0132 0.0154,0.022 0.0286,0.022 0.0132,0 0.0264,-0.0088 0.0286,-0.022 0.0286,-0.1232 0.1034,-0.22440001 0.19140001,-0.31020001 0.0704,-0.0682 0.1584,-0.121 0.25519998,-0.1496 C 1.0428,-0.0946 1.056,-0.11 1.056,-0.1298 Z"
       id="text31"
       aria-label="↓" />
  </g>
  <g
     transform="translate(17.8284,8.2955)"
     id="g33">
    <path
       id="rect32"
       style="fill:currentColor"
       d="m -0.025,-0.31380001 h 0.05 c 0.02216,0 0.04,0.01784 0.04,0.04 V 2.4833999 c 0,0.02216 -0.01784,0.04 -0.04,0.04 h -0.05 c -0.02216,0 -0.04,-0.01784 -0.04,-0.04 v -2.75719991 c 0,-0.02216 0.01784,-0.04 0.04,-0.04 z" />
  </g>
  <g
     transform="translate(17.7634,10.0032)"
     id="g34">
    <path
       id="polygon33"
       style="fill:currentColor;stroke:currentColor;stroke-width:0.08;stroke-linecap:round;stroke-linejoin:round"
       d="m 3.2642,0.0923 v 0.4 L 0.04,0.2 v -0.4 z" />
  </g>
  <g
     transform="translate(14.0592,10.4855)"
     id="g35">
    <path
       id="polygon34"
       style="fill:currentColor;stroke:currentColor;stroke-width:0.08;stroke-linecap:round;stroke-linejoin:round"
       d="m 6.9684,0.42 v 0.4 L 0.04,0.2 v -0.4 z" />
  </g>
  <g
     transform="translate(20.9376,8.2955)"
     id="g36">
    <path
       transform="scale(0.004,-0.004)"
       d="M 0,-46 C 0,45 116,136 217,136 280,136 326,101 326,46 326,-41 216,-136 106,-136 39,-136 0,-97 0,-46 Z"
       fill="currentColor"
       id="path35" />
  </g>
  <g
     transform="translate(20.9376,5.3917)"
     id="g37">
    <path
       style="font-size:2.2px;font-family:'NewComputerModern Math';white-space:pre"
       d="m 1.056,-0.1298 c 0,-0.0242 -0.0198,-0.044 -0.044,-0.044 -0.0044,0 -0.0088,0 -0.0132,0.0022 -0.11,0.033 -0.209,0.0924 -0.2904,0.1694 -0.044,0.044 -0.0814,0.0924 -0.11440001,0.143 v -1.6434 c 0,-0.0242 -0.0198,-0.044 -0.044,-0.044 -0.0242,0 -0.044,0.0198 -0.044,0.044 v 1.6434 c -0.033,-0.0506 -0.0704,-0.099 -0.1144,-0.143 C 0.31020001,-0.0792 0.2112,-0.1386 0.1012,-0.1716 0.0968,-0.1738 0.0924,-0.1738 0.088,-0.1738 c -0.0242,0 -0.044,0.0198 -0.044,0.044 0,0.0198 0.0132,0.0352 0.0308,0.0418 0.0968,0.0286 0.18480001,0.0814 0.25520001,0.1496 0.088,0.0858 0.1628,0.18700001 0.1914,0.31020001 0.0022,0.0132 0.0154,0.022 0.0286,0.022 0.0132,0 0.0264,-0.0088 0.0286,-0.022 0.0286,-0.1232 0.1034,-0.22440001 0.19140001,-0.31020001 0.0704,-0.0682 0.1584,-0.121 0.25519998,-0.1496 C 1.0428,-0.0946 1.056,-0.11 1.056,-0.1298 Z"
       id="text36"
       aria-label="↓" />
  </g>
  <g
     transform="translate(21.0026,8.2955)"
     id="g38">
    <path
       id="rect37"
       style="fill:currentColor"
       d="m -0.025,0.18619999 h 0.05 c 0.02216,0 0.04,0.01784 0.04,0.04 V 2.7642 c 0,0.02216 -0.01784,0.04 -0.04,0.04 h -0.05 c -0.02216,0 -0.04,-0.01784 -0.04,-0.04 V 0.22619999 c 0,-0.02216 0.01784,-0.04 0.04,-0.04 z" />
  </g>
  <g
     transform="translate(19.7876,8.2955)"
     id="g39">
    <path
       transform="scale(0.004,-0.004)"
       d="m 27,41 -1,-66 v -11 c 0,-22 1,-44 4,-66 45,38 93,80 93,139 0,33 -14,67 -43,67 C 49,104 28,74 27,41 Z m -42,-179 -12,595 c 8,5 18,8 27,8 9,0 19,-3 27,-8 L 20,112 c 25,21 58,34 91,34 52,0 89,-48 89,-102 0,-80 -86,-117 -147,-169 -15,-13 -24,-38 -45,-38 -13,0 -23,11 -23,25 z"
       fill="currentColor"
       id="path38" />
  </g>
  <g
     transform="translate(23.4418,8.2955)"
     id="g40">
    <path
       transform="scale(0.004,-0.004)"
       d="m 70,205 c 79,0 46,-98 91,-98 16,0 54,48 61,63 3,6 8,9 14,9 6,0 12,-3 14,-9 L 127,-250 c -8,-7 -17,-10 -27,-10 -10,0 -20,3 -28,10 L 189,76 C 155,64 120,54 84,54 26,54 -1,95 -1,134 c 0,36 24,71 71,71 z"
       fill="currentColor"
       id="path39" />
  </g>
  <g
     transform="translate(26.8418,8.7955)"
     id="g41">
    <path
       transform="scale(0.004,-0.004)"
       d="M 0,-46 C 0,45 116,136 217,136 280,136 326,101 326,46 326,-41 216,-136 106,-136 39,-136 0,-97 0,-46 Z"
       fill="currentColor"
       id="path40" />
  </g>
  <g
     transform="translate(26.8418,4.9235)"
     id="g42">
    <path
       style="font-size:2.2px;font-family:'NewComputerModern Math';white-space:pre"
       d="m 1.056,-0.1298 c 0,-0.0242 -0.0198,-0.044 -0.044,-0.044 -0.0044,0 -0.0088,0 -0.0132,0.0022 -0.11,0.033 -0.209,0.0924 -0.2904,0.1694 -0.044,0.044 -0.0814,0.0924 -0.11440001,0.143 v -1.6434 c 0,-0.0242 -0.0198,-0.044 -0.044,-0.044 -0.0242,0 -0.044,0.0198 -0.044,0.044 v 1.6434 c -0.033,-0.0506 -0.0704,-0.099 -0.1144,-0.143 C 0.31020001,-0.0792 0.2112,-0.1386 0.1012,-0.1716 0.0968,-0.1738 0.0924,-0.1738 0.088,-0.1738 c -0.0242,0 -0.044,0.0198 -0.044,0.044 0,0.0198 0.0132,0.0352 0.0308,0.0418 0.0968,0.0286 0.18480001,0.0814 0.25520001,0.1496 0.088,0.0858 0.1628,0.18700001 0.1914,0.31020001 0.0022,0.0132 0.0154,0.022 0.0286,0.022 0.0132,0 0.0264,-0.0088 0.0286,-0.022 0.0286,-0.1232 0.1034,-0.22440001 0.19140001,-0.31020001 0.0704,-0.0682 0.1584,-0.121 0.25519998,-0.1496 C 1.0428,-0.0946 1.056,-0.11 1.056,-0.1298 Z"
       id="text41"
       aria-label="↓" />
  </g>
  <g
     transform="translate(28.081,8.2955)"
     id="g43">
    <path
       id="rect42"
       style="fill:currentColor"
       d="m -0.025,-3 h 0.05 c 0.02216,0 0.04,0.01784 0.04,0.04 v 3.2338001 c 0,0.02216 -0.01784,0.04 -0.04,0.04 h -0.05 c -0.02216,0 -0.04,-0.01784 -0.04,-0.04 V -2.96 c 0,-0.02216 0.01784,-0.04 0.04,-0.04 z" />
  </g>
  <g
     transform="translate(28.146,5.3355)"
     id="g44">
    <path
       transform="scale(0.004,-0.004)"
       d="M 0,0 V -375 H -16 V 0 Z m 123,-729 c 0,10 42,87 42,196 0,103 -94,208 -165,283 V 0 c 0,-197 207,-336 207,-533 0,-71 -15,-141 -41,-207 -5,-8 -13,-12 -20,-12 -12,0 -23,9 -23,23 z"
       fill="currentColor"
       id="path43" />
  </g>
  <g
     transform="translate(30.546,8.2955)"
     id="g45">
    <path
       transform="scale(0.004,-0.004)"
       d="m 125,205 c 79,0 45,-98 90,-98 15,0 50,49 57,63 3,6 8,9 14,9 6,0 12,-3 14,-9 L 121,-500 c -8,-7 -17,-10 -27,-10 -10,0 -20,3 -28,10 l 101,327 c -34,-12 -70,-23 -106,-23 -58,0 -86,41 -86,80 0,36 24,71 71,71 79,0 46,-98 91,-98 16,0 55,51 60,68 L 243,76 C 209,64 175,54 139,54 81,54 54,95 54,134 c 0,36 24,71 71,71 z"
       fill="currentColor"
       id="path44" />
  </g>
  <g
     transform="translate(33.616,9.2955)"
     id="g46">
    <path
       transform="scale(0.004,-0.004)"
       d="M 0,-46 C 0,45 116,136 217,136 280,136 326,101 326,46 326,-41 216,-136 106,-136 39,-136 0,-97 0,-46 Z"
       fill="currentColor"
       id="path45" />
  </g>
  <g
     transform="translate(33.616,5.3917)"
     id="g47">
    <path
       style="font-size:2.2px;font-family:'NewComputerModern Math';white-space:pre"
       d="m 1.056,-0.1298 c 0,-0.0242 -0.0198,-0.044 -0.044,-0.044 -0.0044,0 -0.0088,0 -0.0132,0.0022 -0.11,0.033 -0.209,0.0924 -0.2904,0.1694 -0.044,0.044 -0.0814,0.0924 -0.11440001,0.143 v -1.6434 c 0,-0.0242 -0.0198,-0.044 -0.044,-0.044 -0.0242,0 -0.044,0.0198 -0.044,0.044 v 1.6434 c -0.033,-0.0506 -0.0704,-0.099 -0.1144,-0.143 C 0.31020001,-0.0792 0.2112,-0.1386 0.1012,-0.1716 0.0968,-0.1738 0.0924,-0.1738 0.088,-0.1738 c -0.0242,0 -0.044,0.0198 -0.044,0.044 0,0.0198 0.0132,0.0352 0.0308,0.0418 0.0968,0.0286 0.18480001,0.0814 0.25520001,0.1496 0.088,0.0858 0.1628,0.18700001 0.1914,0.31020001 0.0022,0.0132 0.0154,0.022 0.0286,0.022 0.0132,0 0.0264,-0.0088 0.0286,-0.022 0.0286,-0.1232 0.1034,-0.22440001 0.19140001,-0.31020001 0.0704,-0.0682 0.1584,-0.121 0.25519998,-0.1496 C 1.0428,-0.0946 1.056,-0.11 1.056,-0.1298 Z"
       id="text46"
       aria-label="↓" />
  </g>
  <g
     transform="translate(36.1334,8.7955)"
     id="g48">
    <path
       transform="scale(0.004,-0.004)"
       d="M 0,0 C 0,31 25,56 56,56 87,56 112,31 112,0 112,-31 87,-56 56,-56 25,-56 0,-31 0,0 Z"
       fill="currentColor"
       id="path47" />
  </g>
  <g
     transform="translate(34.8552,8.2955)"
     id="g49">
    <path
       id="rect48"
       style="fill:currentColor"
       d="m -0.025,-2.5 h 0.05 c 0.02216,0 0.04,0.01784 0.04,0.04 v 3.2338001 c 0,0.02216 -0.01784,0.04 -0.04,0.04 h -0.05 c -0.02216,0 -0.04,-0.01784 -0.04,-0.04 V -2.46 c 0,-0.02216 0.01784,-0.04 0.04,-0.04 z" />
  </g>
  <g
     transform="translate(34.9202,5.8355)"
     id="g50">
    <path
       transform="scale(0.004,-0.004)"
       d="M 0,0 V -375 H -16 V 0 Z m 123,-729 c 0,10 42,87 42,196 0,103 -94,208 -165,283 V 0 c 0,-197 207,-336 207,-533 0,-71 -15,-141 -41,-207 -5,-8 -13,-12 -20,-12 -12,0 -23,9 -23,23 z"
       fill="currentColor"
       id="path49" />
  </g>
  <g
     transform="translate(32.466,9.2955)"
     id="g51">
    <path
       transform="scale(0.004,-0.004)"
       d="m 27,41 -1,-66 v -11 c 0,-22 1,-44 4,-66 45,38 93,80 93,139 0,33 -14,67 -43,67 C 49,104 28,74 27,41 Z m -42,-179 -12,595 c 8,5 18,8 27,8 9,0 19,-3 27,-8 L 20,112 c 25,21 58,34 91,34 52,0 89,-48 89,-102 0,-80 -86,-117 -147,-169 -15,-13 -24,-38 -45,-38 -13,0 -23,11 -23,25 z"
       fill="currentColor"
       id="path50" />
  </g>
  <g
     transform="translate(39.1122,2.2955)"
     id="g52">
    <path
       style="font-size:2.3308px;font-family:'NewComputerModern Math';white-space:pre"
       d="m 1.5173508,-0.42653641 c 0,-0.20277961 -0.1911256,-0.37758961 -0.4498444,-0.40555921 0.2260876,-0.0442852 0.3869128,-0.19345638 0.3869128,-0.36593558 0,-0.2027796 -0.2144336,-0.3939052 -0.51743758,-0.3939052 H 0.0839088 v 0.072255 H 0.139848 c 0.17947161,0 0.18413321,0.025639 0.18413321,0.1095476 v 1.2283316 c 0,0.0839088 -0.004662,0.1095476 -0.18413321,0.1095476 H 0.0839088 V 0 H 0.99758242 C 1.3075788,0 1.5173508,-0.20744121 1.5173508,-0.42653641 Z M 1.2283316,-1.1980312 c 0,0.1491712 -0.1142092,0.34495838 -0.37292798,0.34495838 H 0.51743761 V -1.4264496 c 0,-0.076916 0.004662,-0.093232 0.11420921,-0.093232 h 0.2890192 c 0.22608758,0 0.30766558,0.198118 0.30766558,0.3216504 z m 0.055939,0.76916399 c 0,0.1654868 -0.1212016,0.35661241 -0.36127398,0.35661241 h -0.29135 c -0.10954761,0 -0.11420921,-0.0163156 -0.11420921,-0.093232 v -0.63630842 h 0.43819041 c 0.23074918,0 0.32864278,0.21676441 0.32864278,0.37292801 z"
       id="text51"
       aria-label="B" />
  </g>
  <g
     transform="translate(40.7511,1.236)"
     id="g53">
    <path
       style="font-size:1.648px;font-family:'NewComputerModern Math';white-space:pre"
       d="m 0.548784,-0.529008 c 0,-0.121952 -0.09064,-0.229072 -0.225776,-0.229072 -0.092288,0 -0.158208,0.037904 -0.191168,0.069216 v -0.500992 c 0,-0.031312 0,-0.046144 -0.019776,-0.046144 -0.021424,0 -0.021424,0.013184 -0.021424,0.046144 v 1.179968 c 0,0.03296 0,0.046144 0.021424,0.046144 0.01648,0 0.187872,-0.118656 0.278512,-0.215888 0.09064,-0.097232 0.158208,-0.212592 0.158208,-0.349376 z m -0.133488,0 c 0,0.260384 -0.243904,0.46968 -0.283456,0.50264 v -0.538896 c 0,-0.037904 0,-0.072512 0.054384,-0.103824 0.051088,-0.029664 0.1236,-0.029664 0.1236,-0.029664 0.075808,0 0.105472,0.088992 0.105472,0.169744 z"
       id="text52"
       aria-label="♭" />
  </g>
  <g
     transform="translate(41.3998,3.0901)"
     id="g54">
    <path
       style="font-size:1.648px;font-family:'NewComputerModern Math';white-space:pre"
       d="m 1.502976,-0.02472 c 0,-0.004944 -0.00165,-0.011536 -0.00494,-0.01648 L 0.825648,-1.204688 c -0.004944,-0.00989 -0.01648,-0.01648 -0.028016,-0.01648 -0.013184,0 -0.023072,0.00659 -0.028016,0.01648 L 0.097232,-0.0412 c -0.003296,0.004944 -0.004944,0.011536 -0.004944,0.01648 0,0.019776 0.014832,0.03296 0.03296,0.03296 h 1.344768 c 0.018128,0 0.03296,-0.013184 0.03296,-0.03296 z M 1.412336,-0.05768 H 0.182928 l 0.614704,-1.064608 z"
       id="text53"
       aria-label="△" />
  </g>
  <g
     transform="translate(43.0045,3.0901)"
     id="g55">
    <path
       style="font-size:1.648px;font-family:'NewComputerModern Math';white-space:pre"
       d="M 0.79928,-1.061312 H 0.398816 c -0.201056,0 -0.204352,-0.021424 -0.210944,-0.052736 h -0.0412 L 0.092288,-0.77456 h 0.0412 c 0.004944,-0.026368 0.019776,-0.130192 0.0412,-0.149968 0.011536,-0.009888 0.14008,-0.009888 0.161504,-0.009888 h 0.341136 l -0.184576,0.260384 c -0.14832,0.22248 -0.202704,0.451552 -0.202704,0.619648 0,0.01648 0,0.09064 0.075808,0.09064 0.075808,0 0.075808,-0.07416 0.075808,-0.09064 v -0.084048 c 0,-0.09064 0.004944,-0.18128 0.018128,-0.270272 0.006592,-0.037904 0.029664,-0.179632 0.102176,-0.281808 l 0.22248,-0.31312 C 0.79928,-1.023408 0.79928,-1.026704 0.79928,-1.061312 Z"
       id="text54"
       aria-label="7" />
  </g>
  <g
     transform="translate(39.1122,9.7955)"
     id="g56">
    <path
       transform="scale(0.004,-0.004)"
       d="M 0,-46 C 0,45 116,136 217,136 280,136 326,101 326,46 326,-41 216,-136 106,-136 39,-136 0,-97 0,-46 Z"
       fill="currentColor"
       id="path55" />
  </g>
  <g
     transform="translate(39.1122,5.3917)"
     id="g57">
    <path
       style="font-size:2.2px;font-family:'NewComputerModern Math';white-space:pre"
       d="m 1.056,-0.1298 c 0,-0.0242 -0.0198,-0.044 -0.044,-0.044 -0.0044,0 -0.0088,0 -0.0132,0.0022 -0.11,0.033 -0.209,0.0924 -0.2904,0.1694 -0.044,0.044 -0.0814,0.0924 -0.11440001,0.143 v -1.6434 c 0,-0.0242 -0.0198,-0.044 -0.044,-0.044 -0.0242,0 -0.044,0.0198 -0.044,0.044 v 1.6434 c -0.033,-0.0506 -0.0704,-0.099 -0.1144,-0.143 C 0.31020001,-0.0792 0.2112,-0.1386 0.1012,-0.1716 0.0968,-0.1738 0.0924,-0.1738 0.088,-0.1738 c -0.0242,0 -0.044,0.0198 -0.044,0.044 0,0.0198 0.0132,0.0352 0.0308,0.0418 0.0968,0.0286 0.18480001,0.0814 0.25520001,0.1496 0.088,0.0858 0.1628,0.18700001 0.1914,0.31020001 0.0022,0.0132 0.0154,0.022 0.0286,0.022 0.0132,0 0.0264,-0.0088 0.0286,-0.022 0.0286,-0.1232 0.1034,-0.22440001 0.19140001,-0.31020001 0.0704,-0.0682 0.1584,-0.121 0.25519998,-0.1496 C 1.0428,-0.0946 1.056,-0.11 1.056,-0.1298 Z"
       id="text56"
       aria-label="↓" />
  </g>
  <g
     transform="translate(40.3514,8.2955)"
     id="g58">
    <path
       id="rect57"
       style="fill:currentColor"
       d="m -0.025,-1.9963 h 0.05 c 0.02216,0 0.04,0.01784 0.04,0.04 v 3.2301001 c 0,0.02216 -0.01784,0.04 -0.04,0.04 h -0.05 c -0.02216,0 -0.04,-0.01784 -0.04,-0.04 V -1.9563 c 0,-0.02216 0.01784,-0.04 0.04,-0.04 z" />
  </g>
  <g
     transform="translate(42.2864,10.2955)"
     id="g59">
    <path
       transform="scale(0.004,-0.004)"
       d="M 0,-46 C 0,45 116,136 217,136 280,136 326,101 326,46 326,-41 216,-136 106,-136 39,-136 0,-97 0,-46 Z"
       fill="currentColor"
       id="path58" />
  </g>
  <g
     transform="translate(42.2864,5.3368)"
     id="g60">
    <path
       style="font-size:2.2px;font-family:'NewComputerModern Math';white-space:pre"
       d="m 1.056,-0.1298 c 0,-0.0242 -0.0198,-0.044 -0.044,-0.044 -0.0044,0 -0.0088,0 -0.0132,0.0022 -0.11,0.033 -0.209,0.0924 -0.2904,0.1694 -0.044,0.044 -0.0814,0.0924 -0.11440001,0.143 v -1.6434 c 0,-0.0242 -0.0198,-0.044 -0.044,-0.044 -0.0242,0 -0.044,0.0198 -0.044,0.044 v 1.6434 c -0.033,-0.0506 -0.0704,-0.099 -0.1144,-0.143 C 0.31020001,-0.0792 0.2112,-0.1386 0.1012,-0.1716 0.0968,-0.1738 0.0924,-0.1738 0.088,-0.1738 c -0.0242,0 -0.044,0.0198 -0.044,0.044 0,0.0198 0.0132,0.0352 0.0308,0.0418 0.0968,0.0286 0.18480001,0.0814 0.25520001,0.1496 0.088,0.0858 0.1628,0.18700001 0.1914,0.31020001 0.0022,0.0132 0.0154,0.022 0.0286,0.022 0.0132,0 0.0264,-0.0088 0.0286,-0.022 0.0286,-0.1232 0.1034,-0.22440001 0.19140001,-0.31020001 0.0704,-0.0682 0.1584,-0.121 0.25519998,-0.1496 C 1.0428,-0.0946 1.056,-0.11 1.056,-0.1298 Z"
       id="text59"
       aria-label="↓" />
  </g>
  <g
     transform="translate(44.0406,9.7955)"
     id="g61">
    <path
       transform="scale(0.004,-0.004)"
       d="M 0,0 C 0,31 25,56 56,56 87,56 112,31 112,0 112,-31 87,-56 56,-56 25,-56 0,-31 0,0 Z"
       fill="currentColor"
       id="path60" />
  </g>
  <g
     transform="translate(43.5256,8.2955)"
     id="g62">
    <path
       id="rect61"
       style="fill:currentColor"
       d="m -0.025,-1.8137 h 0.05 c 0.02216,0 0.04,0.01784 0.04,0.04 v 3.5475001 c 0,0.02216 -0.01784,0.04 -0.04,0.04 h -0.05 c -0.02216,0 -0.04,-0.01784 -0.04,-0.04 V -1.7737 c 0,-0.02216 0.01784,-0.04 0.04,-0.04 z" />
  </g>
  <g
     transform="translate(41.1364,10.2955)"
     id="g63">
    <path
       transform="scale(0.004,-0.004)"
       d="m 27,41 -1,-66 v -11 c 0,-22 1,-44 4,-66 45,38 93,80 93,139 0,33 -14,67 -43,67 C 49,104 28,74 27,41 Z m -42,-179 -12,595 c 8,5 18,8 27,8 9,0 19,-3 27,-8 L 20,112 c 25,21 58,34 91,34 52,0 89,-48 89,-102 0,-80 -86,-117 -147,-169 -15,-13 -24,-38 -45,-38 -13,0 -23,11 -23,25 z"
       fill="currentColor"
       id="path62" />
  </g>
  <g
     transform="translate(46.6925,10.7955)"
     id="g64">
    <path
       transform="scale(0.004,-0.004)"
       d="M 0,-46 C 0,45 116,136 217,136 280,136 326,101 326,46 326,-41 216,-136 106,-136 39,-136 0,-97 0,-46 Z"
       fill="currentColor"
       id="path63" />
  </g>
  <g
     transform="translate(46.6925,5.3917)"
     id="g65">
    <path
       style="font-size:2.2px;font-family:'NewComputerModern Math';white-space:pre"
       d="m 1.056,-0.1298 c 0,-0.0242 -0.0198,-0.044 -0.044,-0.044 -0.0044,0 -0.0088,0 -0.0132,0.0022 -0.11,0.033 -0.209,0.0924 -0.2904,0.1694 -0.044,0.044 -0.0814,0.0924 -0.11440001,0.143 v -1.6434 c 0,-0.0242 -0.0198,-0.044 -0.044,-0.044 -0.0242,0 -0.044,0.0198 -0.044,0.044 v 1.6434 c -0.033,-0.0506 -0.0704,-0.099 -0.1144,-0.143 C 0.31020001,-0.0792 0.2112,-0.1386 0.1012,-0.1716 0.0968,-0.1738 0.0924,-0.1738 0.088,-0.1738 c -0.0242,0 -0.044,0.0198 -0.044,0.044 0,0.0198 0.0132,0.0352 0.0308,0.0418 0.0968,0.0286 0.18480001,0.0814 0.25520001,0.1496 0.088,0.0858 0.1628,0.18700001 0.1914,0.31020001 0.0022,0.0132 0.0154,0.022 0.0286,0.022 0.0132,0 0.0264,-0.0088 0.0286,-0.022 0.0286,-0.1232 0.1034,-0.22440001 0.19140001,-0.31020001 0.0704,-0.0682 0.1584,-0.121 0.25519998,-0.1496 C 1.0428,-0.0946 1.056,-0.11 1.056,-0.1298 Z"
       id="text64"
       aria-label="↓" />
  </g>
  <g
     transform="translate(47.9317,8.2955)"
     id="g66">
    <path
       id="rect65"
       style="fill:currentColor"
       d="m -0.025,-0.99529999 h 0.05 c 0.02216,0 0.04,0.01784 0.04,0.04 V 2.2737999 c 0,0.02216 -0.01784,0.04 -0.04,0.04 h -0.05 c -0.02216,0 -0.04,-0.01784 -0.04,-0.04 V -0.9553 c 0,-0.02216 0.01784,-0.04 0.04,-0.04 z" />
  </g>
  <g
     transform="translate(49.1967,11.2955)"
     id="g67">
    <path
       transform="scale(0.004,-0.004)"
       d="M 0,-46 C 0,45 116,136 217,136 280,136 326,101 326,46 326,-41 216,-136 106,-136 39,-136 0,-97 0,-46 Z"
       fill="currentColor"
       id="path66" />
  </g>
  <g
     transform="translate(49.1967,5.3917)"
     id="g68">
    <path
       style="font-size:2.2px;font-family:'NewComputerModern Math';white-space:pre"
       d="m 1.056,-0.1298 c 0,-0.0242 -0.0198,-0.044 -0.044,-0.044 -0.0044,0 -0.0088,0 -0.0132,0.0022 -0.11,0.033 -0.209,0.0924 -0.2904,0.1694 -0.044,0.044 -0.0814,0.0924 -0.11440001,0.143 v -1.6434 c 0,-0.0242 -0.0198,-0.044 -0.044,-0.044 -0.0242,0 -0.044,0.0198 -0.044,0.044 v 1.6434 c -0.033,-0.0506 -0.0704,-0.099 -0.1144,-0.143 C 0.31020001,-0.0792 0.2112,-0.1386 0.1012,-0.1716 0.0968,-0.1738 0.0924,-0.1738 0.088,-0.1738 c -0.0242,0 -0.044,0.0198 -0.044,0.044 0,0.0198 0.0132,0.0352 0.0308,0.0418 0.0968,0.0286 0.18480001,0.0814 0.25520001,0.1496 0.088,0.0858 0.1628,0.18700001 0.1914,0.31020001 0.0022,0.0132 0.0154,0.022 0.0286,0.022 0.0132,0 0.0264,-0.0088 0.0286,-0.022 0.0286,-0.1232 0.1034,-0.22440001 0.19140001,-0.31020001 0.0704,-0.0682 0.1584,-0.121 0.25519998,-0.1496 C 1.0428,-0.0946 1.056,-0.11 1.056,-0.1298 Z"
       id="text67"
       aria-label="↓" />
  </g>
  <g
     transform="translate(50.9509,10.7955)"
     id="g69">
    <path
       transform="scale(0.004,-0.004)"
       d="M 0,0 C 0,31 25,56 56,56 87,56 112,31 112,0 112,-31 87,-56 56,-56 25,-56 0,-31 0,0 Z"
       fill="currentColor"
       id="path68" />
  </g>
  <g
     transform="translate(50.4359,8.2955)"
     id="g70">
    <path
       id="rect69"
       style="fill:currentColor"
       d="m -0.025,-0.81470001 h 0.05 c 0.02216,0 0.04,0.01784 0.04,0.04 V 2.7738 c 0,0.02216 -0.01784,0.04 -0.04,0.04 h -0.05 c -0.02216,0 -0.04,-0.01784 -0.04,-0.04 v -3.54850001 c 0,-0.02216 0.01784,-0.04 0.04,-0.04 z" />
  </g>
  <g
     transform="translate(53.6029,2.2955)"
     id="g71">
    <path
       style="font-size:2.3308px;font-family:'NewComputerModern Math';white-space:pre"
       d="m 1.713138,-0.56405361 v -0.0722548 l -0.2843576,0.006992 c -0.093232,0 -0.29135,0 -0.3752588,-0.006992 v 0.0722548 h 0.074586 c 0.209772,0 0.2167644,0.0256388 0.2167644,0.1118784 v 0.1491712 c 0,0.26104961 -0.2960116,0.28202681 -0.36127398,0.28202681 -0.151502,0 -0.61300041,-0.081578 -0.61300041,-0.77615642 0,-0.69690918 0.45916761,-0.77382558 0.59901561,-0.77382558 0.24939558,0 0.46149838,0.209772 0.50811438,0.5523996 0.00466,0.0326312 0.00466,0.0396236 0.037293,0.0396236 0.037293,0 0.037293,-0.006992 0.037293,-0.0559392 v -0.5523996 c 0,-0.039624 0,-0.055939 -0.025639,-0.055939 -0.00932,0 -0.018646,0 -0.037293,0.02797 l -0.11654,0.1724792 C 1.2982556,-1.5173508 1.1723924,-1.643214 0.94164322,-1.643214 c -0.43352881,0 -0.81111842,0.3682664 -0.81111842,0.84608038 0,0.47781401 0.37292801,0.84841122 0.81578002,0.84841122 0.17014838,0 0.35661238,-0.0606008 0.43585958,-0.198118 0.0303,0.0512776 0.1235324,0.1445096 0.1491712,0.1445096 0.020977,0 0.020977,-0.0186464 0.020977,-0.0536084 v -0.40555921 c 0,-0.0909012 0.00932,-0.1025552 0.1608254,-0.1025552 z"
       id="text70"
       aria-label="G" />
  </g>
  <g
     transform="translate(55.4466,3.0901)"
     id="g72">
    <path
       style="font-size:1.648px;font-family:'NewComputerModern Math';white-space:pre"
       d="M 0.79928,-1.061312 H 0.398816 c -0.201056,0 -0.204352,-0.021424 -0.210944,-0.052736 h -0.0412 L 0.092288,-0.77456 h 0.0412 c 0.004944,-0.026368 0.019776,-0.130192 0.0412,-0.149968 0.011536,-0.009888 0.14008,-0.009888 0.161504,-0.009888 h 0.341136 l -0.184576,0.260384 c -0.14832,0.22248 -0.202704,0.451552 -0.202704,0.619648 0,0.01648 0,0.09064 0.075808,0.09064 0.075808,0 0.075808,-0.07416 0.075808,-0.09064 v -0.084048 c 0,-0.09064 0.004944,-0.18128 0.018128,-0.270272 0.006592,-0.037904 0.029664,-0.179632 0.102176,-0.281808 l 0.22248,-0.31312 C 0.79928,-1.023408 0.79928,-1.026704 0.79928,-1.061312 Z"
       id="text71"
       aria-label="7" />
  </g>
  <g
     transform="translate(53.6029,11.7955)"
     id="g73">
    <path
       transform="scale(0.004,-0.004)"
       d="M 0,-46 C 0,45 116,136 217,136 280,136 326,101 326,46 326,-41 216,-136 106,-136 39,-136 0,-97 0,-46 Z"
       fill="currentColor"
       id="path72" />
  </g>
  <g
     transform="translate(53.6029,4.8464)"
     id="g74">
    <path
       style="font-size:2.2px;font-family:'NewComputerModern Math';white-space:pre"
       d="m 1.056,-0.1298 c 0,-0.0242 -0.0198,-0.044 -0.044,-0.044 -0.0044,0 -0.0088,0 -0.0132,0.0022 -0.11,0.033 -0.209,0.0924 -0.2904,0.1694 -0.044,0.044 -0.0814,0.0924 -0.11440001,0.143 v -1.6434 c 0,-0.0242 -0.0198,-0.044 -0.044,-0.044 -0.0242,0 -0.044,0.0198 -0.044,0.044 v 1.6434 c -0.033,-0.0506 -0.0704,-0.099 -0.1144,-0.143 C 0.31020001,-0.0792 0.2112,-0.1386 0.1012,-0.1716 0.0968,-0.1738 0.0924,-0.1738 0.088,-0.1738 c -0.0242,0 -0.044,0.0198 -0.044,0.044 0,0.0198 0.0132,0.0352 0.0308,0.0418 0.0968,0.0286 0.18480001,0.0814 0.25520001,0.1496 0.088,0.0858 0.1628,0.18700001 0.1914,0.31020001 0.0022,0.0132 0.0154,0.022 0.0286,0.022 0.0132,0 0.0264,-0.0088 0.0286,-0.022 0.0286,-0.1232 0.1034,-0.22440001 0.19140001,-0.31020001 0.0704,-0.0682 0.1584,-0.121 0.25519998,-0.1496 C 1.0428,-0.0946 1.056,-0.11 1.056,-0.1298 Z"
       id="text73"
       aria-label="↓" />
  </g>
  <g
     transform="translate(54.8421,8.2955)"
     id="g75">
    <path
       id="rect74"
       style="fill:currentColor"
       d="m -0.025,-2.8371 h 0.05 c 0.02216,0 0.04,0.01784 0.04,0.04 v 6.0708999 c 0,0.02216 -0.01784,0.04 -0.04,0.04 h -0.05 c -0.02216,0 -0.04,-0.01784 -0.04,-0.04 V -2.7971 c 0,-0.02216 0.01784,-0.04 0.04,-0.04 z" />
  </g>
  <g
     transform="translate(52.5686,11.7955)"
     id="g76">
    <path
       transform="scale(0.004,-0.004)"
       d="m -7,375 c 8,4 17,7 25,7 8,0 16,-3 24,-7 l -2,-183 106,20 h 3 c 10,0 18,-7 18,-17 l 7,-570 c -8,-4 -17,-7 -25,-7 -8,0 -16,3 -24,7 l 2,183 -106,-20 h -3 c -10,0 -18,7 -18,17 z M 131,112 39,95 l -3,-207 92,17 z"
       fill="currentColor"
       id="path75" />
  </g>
  <g
     transform="translate(56.7771,8.7955)"
     id="g77">
    <path
       transform="scale(0.004,-0.004)"
       d="M 0,-46 C 0,45 116,136 217,136 280,136 326,101 326,46 326,-41 216,-136 106,-136 39,-136 0,-97 0,-46 Z"
       fill="currentColor"
       id="path76" />
  </g>
  <g
     transform="translate(56.7771,3.2415)"
     id="g78">
    <path
       style="font-size:2.2px;font-family:'NewComputerModern Math';white-space:pre"
       d="m 1.056,-0.1298 c 0,-0.0242 -0.0198,-0.044 -0.044,-0.044 -0.0044,0 -0.0088,0 -0.0132,0.0022 -0.11,0.033 -0.209,0.0924 -0.2904,0.1694 -0.044,0.044 -0.0814,0.0924 -0.11440001,0.143 v -1.6434 c 0,-0.0242 -0.0198,-0.044 -0.044,-0.044 -0.0242,0 -0.044,0.0198 -0.044,0.044 v 1.6434 c -0.033,-0.0506 -0.0704,-0.099 -0.1144,-0.143 C 0.31020001,-0.0792 0.2112,-0.1386 0.1012,-0.1716 0.0968,-0.1738 0.0924,-0.1738 0.088,-0.1738 c -0.0242,0 -0.044,0.0198 -0.044,0.044 0,0.0198 0.0132,0.0352 0.0308,0.0418 0.0968,0.0286 0.18480001,0.0814 0.25520001,0.1496 0.088,0.0858 0.1628,0.18700001 0.1914,0.31020001 0.0022,0.0132 0.0154,0.022 0.0286,0.022 0.0132,0 0.0264,-0.0088 0.0286,-0.022 0.0286,-0.1232 0.1034,-0.22440001 0.19140001,-0.31020001 0.0704,-0.0682 0.1584,-0.121 0.25519998,-0.1496 C 1.0428,-0.0946 1.056,-0.11 1.056,-0.1298 Z"
       id="text77"
       aria-label="↓" />
  </g>
  <g
     transform="translate(58.5313,8.7955)"
     id="g79">
    <path
       transform="scale(0.004,-0.004)"
       d="M 0,0 C 0,31 25,56 56,56 87,56 112,31 112,0 112,-31 87,-56 56,-56 25,-56 0,-31 0,0 Z"
       fill="currentColor"
       id="path78" />
  </g>
  <g
     transform="translate(58.0163,8.2955)"
     id="g80">
    <path
       id="rect79"
       style="fill:currentColor"
       d="m -0.025,-4.1629 h 0.05 c 0.02216,0 0.04,0.01784 0.04,0.04 v 4.39669986 c 0,0.02216 -0.01784,0.04 -0.04,0.04 h -0.05 c -0.02216,0 -0.04,-0.01784 -0.04,-0.04 V -4.1229 c 0,-0.02216 0.01784,-0.04 0.04,-0.04 z" />
  </g>
  <g
     transform="translate(55.6271,8.7955)"
     id="g81">
    <path
       transform="scale(0.004,-0.004)"
       d="m 27,41 -1,-66 v -11 c 0,-22 1,-44 4,-66 45,38 93,80 93,139 0,33 -14,67 -43,67 C 49,104 28,74 27,41 Z m -42,-179 -12,595 c 8,5 18,8 27,8 9,0 19,-3 27,-8 L 20,112 c 25,21 58,34 91,34 52,0 89,-48 89,-102 0,-80 -86,-117 -147,-169 -15,-13 -24,-38 -45,-38 -13,0 -23,11 -23,25 z"
       fill="currentColor"
       id="path80" />
  </g>
  <g
     transform="translate(61.1832,9.2955)"
     id="g82">
    <path
       transform="scale(0.004,-0.004)"
       d="M 0,-46 C 0,45 116,136 217,136 280,136 326,101 326,46 326,-41 216,-136 106,-136 39,-136 0,-97 0,-46 Z"
       fill="currentColor"
       id="path81" />
  </g>
  <g
     transform="translate(61.1832,5.3917)"
     id="g83">
    <path
       style="font-size:2.2px;font-family:'NewComputerModern Math';white-space:pre"
       d="m 1.056,-0.1298 c 0,-0.0242 -0.0198,-0.044 -0.044,-0.044 -0.0044,0 -0.0088,0 -0.0132,0.0022 -0.11,0.033 -0.209,0.0924 -0.2904,0.1694 -0.044,0.044 -0.0814,0.0924 -0.11440001,0.143 v -1.6434 c 0,-0.0242 -0.0198,-0.044 -0.044,-0.044 -0.0242,0 -0.044,0.0198 -0.044,0.044 v 1.6434 c -0.033,-0.0506 -0.0704,-0.099 -0.1144,-0.143 C 0.31020001,-0.0792 0.2112,-0.1386 0.1012,-0.1716 0.0968,-0.1738 0.0924,-0.1738 0.088,-0.1738 c -0.0242,0 -0.044,0.0198 -0.044,0.044 0,0.0198 0.0132,0.0352 0.0308,0.0418 0.0968,0.0286 0.18480001,0.0814 0.25520001,0.1496 0.088,0.0858 0.1628,0.18700001 0.1914,0.31020001 0.0022,0.0132 0.0154,0.022 0.0286,0.022 0.0132,0 0.0264,-0.0088 0.0286,-0.022 0.0286,-0.1232 0.1034,-0.22440001 0.19140001,-0.31020001 0.0704,-0.0682 0.1584,-0.121 0.25519998,-0.1496 C 1.0428,-0.0946 1.056,-0.11 1.056,-0.1298 Z"
       id="text82"
       aria-label="↓" />
  </g>
  <g
     transform="translate(62.4224,8.2955)"
     id="g84">
    <path
       id="rect83"
       style="fill:currentColor"
       d="m -0.025,-2.1861 h 0.05 c 0.02216,0 0.04,0.01784 0.04,0.04 v 2.9199001 c 0,0.02216 -0.01784,0.04 -0.04,0.04 h -0.05 c -0.02216,0 -0.04,-0.01784 -0.04,-0.04 V -2.1461 c 0,-0.02216 0.01784,-0.04 0.04,-0.04 z" />
  </g>
  <g
     transform="translate(64.8874,9.7955)"
     id="g85">
    <path
       transform="scale(0.004,-0.004)"
       d="M 0,-46 C 0,45 116,136 217,136 280,136 326,101 326,46 326,-41 216,-136 106,-136 39,-136 0,-97 0,-46 Z"
       fill="currentColor"
       id="path84" />
  </g>
  <g
     transform="translate(64.8874,5.1844)"
     id="g86">
    <path
       style="font-size:2.2px;font-family:'NewComputerModern Math';white-space:pre"
       d="m 1.056,-0.1298 c 0,-0.0242 -0.0198,-0.044 -0.044,-0.044 -0.0044,0 -0.0088,0 -0.0132,0.0022 -0.11,0.033 -0.209,0.0924 -0.2904,0.1694 -0.044,0.044 -0.0814,0.0924 -0.11440001,0.143 v -1.6434 c 0,-0.0242 -0.0198,-0.044 -0.044,-0.044 -0.0242,0 -0.044,0.0198 -0.044,0.044 v 1.6434 c -0.033,-0.0506 -0.0704,-0.099 -0.1144,-0.143 C 0.31020001,-0.0792 0.2112,-0.1386 0.1012,-0.1716 0.0968,-0.1738 0.0924,-0.1738 0.088,-0.1738 c -0.0242,0 -0.044,0.0198 -0.044,0.044 0,0.0198 0.0132,0.0352 0.0308,0.0418 0.0968,0.0286 0.18480001,0.0814 0.25520001,0.1496 0.088,0.0858 0.1628,0.18700001 0.1914,0.31020001 0.0022,0.0132 0.0154,0.022 0.0286,0.022 0.0132,0 0.0264,-0.0088 0.0286,-0.022 0.0286,-0.1232 0.1034,-0.22440001 0.19140001,-0.31020001 0.0704,-0.0682 0.1584,-0.121 0.25519998,-0.1496 C 1.0428,-0.0946 1.056,-0.11 1.056,-0.1298 Z"
       id="text85"
       aria-label="↓" />
  </g>
  <g
     transform="translate(66.1266,8.2955)"
     id="g87">
    <path
       id="rect86"
       style="fill:currentColor"
       d="m -0.025,-1.964 h 0.05 c 0.02216,0 0.04,0.01784 0.04,0.04 v 3.1978001 c 0,0.02216 -0.01784,0.04 -0.04,0.04 h -0.05 c -0.02216,0 -0.04,-0.01784 -0.04,-0.04 V -1.924 c 0,-0.02216 0.01784,-0.04 0.04,-0.04 z" />
  </g>
  <g
     transform="translate(63.8532,9.7955)"
     id="g88">
    <path
       transform="scale(0.004,-0.004)"
       d="m -7,375 c 8,4 17,7 25,7 8,0 16,-3 24,-7 l -2,-183 106,20 h 3 c 10,0 18,-7 18,-17 l 7,-570 c -8,-4 -17,-7 -25,-7 -8,0 -16,3 -24,7 l 2,183 -106,-20 h -3 c -10,0 -18,7 -18,17 z M 131,112 39,95 l -3,-207 92,17 z"
       fill="currentColor"
       id="path87" />
  </g>
  <g
     transform="translate(67.3916,2.2955)"
     id="g89">
    <path
       style="font-size:2.3308px;font-family:'NewComputerModern Math';white-space:pre"
       d="m 1.549982,-0.54307641 c 0,-0.023308 0,-0.0396236 -0.0303,-0.0396236 -0.025639,0 -0.025639,0.0139848 -0.02797,0.0372928 -0.018646,0.3333044 -0.268042,0.52443001 -0.52209918,0.52443001 -0.1421788,0 -0.59901561,-0.0792472 -0.59901561,-0.77382562 0,-0.69690918 0.45450601,-0.77615638 0.59668481,-0.77615638 0.25405718,0 0.46149838,0.2121028 0.50811438,0.5523996 0.00466,0.0326312 0.00466,0.0396236 0.037293,0.0396236 0.037293,0 0.037293,-0.006992 0.037293,-0.0559392 v -0.5523996 c 0,-0.039624 0,-0.055939 -0.025639,-0.055939 -0.00932,0 -0.018646,0 -0.037293,0.02797 l -0.11654,0.1724792 C 1.2842708,-1.526674 1.1654,-1.643214 0.94164322,-1.643214 c -0.43585961,0 -0.81111842,0.3705972 -0.81111842,0.84608038 0,0.48247561 0.37758961,0.84841122 0.81111842,0.84841122 0.37992038,0 0.60833878,-0.32398121 0.60833878,-0.59435401 z"
       id="text88"
       aria-label="C" />
  </g>
  <g
     transform="translate(69.0647,3.0901)"
     id="g90">
    <path
       style="font-size:1.648px;font-family:'NewComputerModern Math';white-space:pre"
       d="m 1.189856,-0.412 c 0,-0.018128 -0.014832,-0.03296 -0.03296,-0.03296 H 0.125248 c -0.018128,0 -0.03296,0.014832 -0.03296,0.03296 0,0.018128 0.014832,0.03296 0.03296,0.03296 h 1.031648 c 0.018128,0 0.03296,-0.014832 0.03296,-0.03296 z"
       id="text89"
       aria-label="−" />
  </g>
  <g
     transform="translate(67.3916,10.2955)"
     id="g91">
    <path
       transform="scale(0.004,-0.004)"
       d="M 0,-46 C 0,45 116,136 217,136 280,136 326,101 326,46 326,-41 216,-136 106,-136 39,-136 0,-97 0,-46 Z"
       fill="currentColor"
       id="path90" />
  </g>
  <g
     transform="translate(67.3916,5.3345)"
     id="g92">
    <path
       style="font-size:2.2px;font-family:'NewComputerModern Math';white-space:pre"
       d="m 1.056,-0.1298 c 0,-0.0242 -0.0198,-0.044 -0.044,-0.044 -0.0044,0 -0.0088,0 -0.0132,0.0022 -0.11,0.033 -0.209,0.0924 -0.2904,0.1694 -0.044,0.044 -0.0814,0.0924 -0.11440001,0.143 v -1.6434 c 0,-0.0242 -0.0198,-0.044 -0.044,-0.044 -0.0242,0 -0.044,0.0198 -0.044,0.044 v 1.6434 c -0.033,-0.0506 -0.0704,-0.099 -0.1144,-0.143 C 0.31020001,-0.0792 0.2112,-0.1386 0.1012,-0.1716 0.0968,-0.1738 0.0924,-0.1738 0.088,-0.1738 c -0.0242,0 -0.044,0.0198 -0.044,0.044 0,0.0198 0.0132,0.0352 0.0308,0.0418 0.0968,0.0286 0.18480001,0.0814 0.25520001,0.1496 0.088,0.0858 0.1628,0.18700001 0.1914,0.31020001 0.0022,0.0132 0.0154,0.022 0.0286,0.022 0.0132,0 0.0264,-0.0088 0.0286,-0.022 0.0286,-0.1232 0.1034,-0.22440001 0.19140001,-0.31020001 0.0704,-0.0682 0.1584,-0.121 0.25519998,-0.1496 C 1.0428,-0.0946 1.056,-0.11 1.056,-0.1298 Z"
       id="text91"
       aria-label="↓" />
  </g>
  <g
     transform="translate(68.6308,8.2955)"
     id="g93">
    <path
       id="rect92"
       style="fill:currentColor"
       d="m -0.025,-1.8139 h 0.05 c 0.02216,0 0.04,0.01784 0.04,0.04 v 3.5477001 c 0,0.02216 -0.01784,0.04 -0.04,0.04 h -0.05 c -0.02216,0 -0.04,-0.01784 -0.04,-0.04 V -1.7739 c 0,-0.02216 0.01784,-0.04 0.04,-0.04 z" />
  </g>
</svg>
