<?xml version="1.0" encoding="UTF-8" standalone="no"?>
<svg
   version="1.2"
   width="102.52555mm"
   height="24.242813mm"
   viewBox="0 0 58.342702 13.795499"
   id="svg79"
   sodipodi:docname="fig_266.svg"
   xmlns:inkscape="http://www.inkscape.org/namespaces/inkscape"
   xmlns:sodipodi="http://sodipodi.sourceforge.net/DTD/sodipodi-0.dtd"
   xmlns="http://www.w3.org/2000/svg"
   xmlns:svg="http://www.w3.org/2000/svg">
  <defs
     id="defs79" />
  <sodipodi:namedview
     id="namedview79"
     pagecolor="#505050"
     bordercolor="#eeeeee"
     borderopacity="1"
     inkscape:showpageshadow="0"
     inkscape:pageopacity="0"
     inkscape:pagecheckerboard="0"
     inkscape:deskcolor="#505050"
     inkscape:document-units="mm" />
  <style
     type="text/css"
     id="style1"><![CDATA[
tspan { white-space: pre; }
]]></style>
  <g
     transform="translate(58.1527,7.2955)"
     id="g1">
    <rect
       x="0"
       y="-2"
       width="0.19"
       height="4"
       ry="0.0000"
       fill="currentColor"
       id="rect1" />
  </g>
  <g
     transform="translate(57.6627,7.2955)"
     id="g2">
    <rect
       x="0"
       y="-2"
       width="0.19"
       height="4"
       ry="0.0000"
       fill="currentColor"
       id="rect2" />
  </g>
  <g
     transform="translate(0,10.2955)"
     id="g3">
    <rect
       x="45.013401"
       y="-0.1"
       width="1.9563"
       height="0.2"
       ry="0.1"
       fill="currentColor"
       id="rect3" />
  </g>
  <g
     transform="translate(0,11.2955)"
     id="g4">
    <rect
       x="45.013401"
       y="-0.1"
       width="1.9563"
       height="0.2"
       ry="0.1"
       fill="currentColor"
       id="rect4" />
  </g>
  <g
     transform="translate(0,10.2955)"
     id="g5">
    <rect
       x="41.807301"
       y="-0.1"
       width="1.9563"
       height="0.2"
       ry="0.1"
       fill="currentColor"
       id="rect5" />
  </g>
  <g
     transform="translate(0,11.2955)"
     id="g6">
    <rect
       x="41.807301"
       y="-0.1"
       width="1.9563"
       height="0.2"
       ry="0.1"
       fill="currentColor"
       id="rect6" />
  </g>
  <g
     transform="translate(0,12.2955)"
     id="g7">
    <rect
       x="41.958302"
       y="-0.1"
       width="1.8053"
       height="0.2"
       ry="0.1"
       fill="currentColor"
       id="rect7" />
  </g>
  <g
     transform="translate(0,10.2955)"
     id="g8">
    <rect
       x="38.453098"
       y="-0.1"
       width="1.9563"
       height="0.2"
       ry="0.1"
       fill="currentColor"
       id="rect8" />
  </g>
  <g
     transform="translate(0,11.2955)"
     id="g9">
    <rect
       x="38.604099"
       y="-0.1"
       width="1.8053"
       height="0.2"
       ry="0.1"
       fill="currentColor"
       id="rect9" />
  </g>
  <g
     transform="translate(0,10.2955)"
     id="g10">
    <rect
       x="33.674599"
       y="-0.1"
       width="1.9563"
       height="0.2"
       ry="0.1"
       fill="currentColor"
       id="rect10" />
  </g>
  <g
     transform="translate(0,11.2955)"
     id="g11">
    <rect
       x="33.674599"
       y="-0.1"
       width="1.9563"
       height="0.2"
       ry="0.1"
       fill="currentColor"
       id="rect11" />
  </g>
  <g
     transform="translate(0,12.2955)"
     id="g12">
    <rect
       x="33.674599"
       y="-0.1"
       width="1.9563"
       height="0.2"
       ry="0.1"
       fill="currentColor"
       id="rect12" />
  </g>
  <g
     transform="translate(0,10.2955)"
     id="g13">
    <rect
       x="31.420401"
       y="-0.1"
       width="1.9563"
       height="0.2"
       ry="0.1"
       fill="currentColor"
       id="rect13" />
  </g>
  <g
     transform="translate(0,10.2955)"
     id="g14">
    <rect
       x="22.753901"
       y="-0.1"
       width="1.9563"
       height="0.2"
       ry="0.1"
       fill="currentColor"
       id="rect14" />
  </g>
  <g
     transform="translate(0,11.2955)"
     id="g15">
    <rect
       x="22.753901"
       y="-0.1"
       width="1.9563"
       height="0.2"
       ry="0.1"
       fill="currentColor"
       id="rect15" />
  </g>
  <g
     transform="translate(0,10.2955)"
     id="g16">
    <rect
       x="19.999701"
       y="-0.1"
       width="1.9563"
       height="0.2"
       ry="0.1"
       fill="currentColor"
       id="rect16" />
  </g>
  <g
     transform="translate(0,11.2955)"
     id="g17">
    <rect
       x="19.999701"
       y="-0.1"
       width="1.9563"
       height="0.2"
       ry="0.1"
       fill="currentColor"
       id="rect17" />
  </g>
  <g
     transform="translate(0,12.2955)"
     id="g18">
    <rect
       x="19.999701"
       y="-0.1"
       width="1.9563"
       height="0.2"
       ry="0.1"
       fill="currentColor"
       id="rect18" />
  </g>
  <g
     transform="translate(0,10.2955)"
     id="g19">
    <rect
       x="17.745501"
       y="-0.1"
       width="1.9563"
       height="0.2"
       ry="0.1"
       fill="currentColor"
       id="rect19" />
  </g>
  <g
     transform="translate(0,10.2955)"
     id="g20">
    <rect
       x="8.9799995"
       y="-0.1"
       width="1.8052"
       height="0.2"
       ry="0.1"
       fill="currentColor"
       id="rect20" />
  </g>
  <g
     transform="translate(0,9.2955)"
     id="g21">
    <line
       stroke-linejoin="round"
       stroke-linecap="round"
       stroke-width="0.1"
       stroke="currentColor"
       x1="0.050000001"
       y1="0"
       x2="58.292599"
       y2="0"
       id="line20" />
  </g>
  <g
     transform="translate(0,8.2955)"
     id="g22">
    <line
       stroke-linejoin="round"
       stroke-linecap="round"
       stroke-width="0.1"
       stroke="currentColor"
       x1="0.050000001"
       y1="0"
       x2="58.292599"
       y2="0"
       id="line21" />
  </g>
  <g
     transform="translate(0,7.2955)"
     id="g23">
    <line
       stroke-linejoin="round"
       stroke-linecap="round"
       stroke-width="0.1"
       stroke="currentColor"
       x1="0.050000001"
       y1="0"
       x2="58.292599"
       y2="0"
       id="line22" />
  </g>
  <g
     transform="translate(0,6.2955)"
     id="g24">
    <line
       stroke-linejoin="round"
       stroke-linecap="round"
       stroke-width="0.1"
       stroke="currentColor"
       x1="0.050000001"
       y1="0"
       x2="58.292599"
       y2="0"
       id="line23" />
  </g>
  <g
     transform="translate(0,5.2955)"
     id="g25">
    <line
       stroke-linejoin="round"
       stroke-linecap="round"
       stroke-width="0.1"
       stroke="currentColor"
       x1="0.050000001"
       y1="0"
       x2="58.292599"
       y2="0"
       id="line24" />
  </g>
  <g
     transform="translate(36.7191,7.2955)"
     id="g26">
    <rect
       x="0"
       y="-2"
       width="0.19"
       height="4"
       ry="0.0000"
       fill="currentColor"
       id="rect25" />
  </g>
  <g
     transform="translate(46.5137,7.1055)"
     id="g27">
    <polygon
       stroke-linejoin="round"
       stroke-linecap="round"
       stroke-width="0.08"
       fill="currentColor"
       stroke="currentColor"
       points="0.04,0.2 0.04,-0.2 3.2962,-1.01 3.2962,-0.61 "
       id="polygon26" />
  </g>
  <g
     transform="translate(48.5456,7.2955)"
     id="g28">
    <path
       stroke-width="0.08"
       stroke-linejoin="round"
       stroke-linecap="round"
       stroke="currentColor"
       fill="currentColor"
       d="m 0.8521,2.75 c 0.6287,0.6831 2.214,0.6831 2.8428,0 v 0 c -0.6288,0.5631 -2.2141,0.5631 -2.8428,0 z"
       id="path27" />
  </g>
  <g
     transform="translate(9.155,2.2955)"
     id="g29">
    <text
       font-family="'NewComputerModern Math'"
       font-size="2.3308px"
       text-anchor="start"
       fill="currentColor"
       id="text28"><tspan
         id="tspan28">B</tspan></text>
  </g>
  <g
     transform="translate(10.7939,1.236)"
     id="g30">
    <text
       font-family="'NewComputerModern Math'"
       font-size="1.648px"
       text-anchor="start"
       fill="currentColor"
       id="text29"><tspan
         id="tspan29">♭</tspan></text>
  </g>
  <g
     transform="translate(11.4426,3.0901)"
     id="g31">
    <text
       font-family="'NewComputerModern Math'"
       font-size="1.648px"
       text-anchor="start"
       fill="currentColor"
       id="text30"><tspan
         id="tspan30">−</tspan></text>
  </g>
  <g
     transform="translate(12.7401,3.0901)"
     id="g32">
    <text
       font-family="'NewComputerModern Math'"
       font-size="1.648px"
       text-anchor="start"
       fill="currentColor"
       id="text31"><tspan
         id="tspan31">7</tspan></text>
  </g>
  <g
     transform="translate(9.155,10.7955)"
     id="g33">
    <path
       transform="scale(0.004,-0.004)"
       d="M 0,-46 C 0,45 116,136 217,136 280,136 326,101 326,46 326,-41 216,-136 106,-136 39,-136 0,-97 0,-46 Z"
       fill="currentColor"
       id="path32" />
  </g>
  <g
     transform="translate(0.8,8.2955)"
     id="g34">
    <path
       transform="scale(0.004,-0.004)"
       d="m 266,-635 h -6 c -108,0 -195,88 -195,197 0,58 53,103 112,103 54,0 95,-47 95,-103 0,-52 -43,-95 -95,-95 -11,0 -21,2 -31,6 26,-39 68,-65 117,-65 h 4 z m 135,786 c 19,-89 48,-242 60,-354 76,27 112,94 112,163 0,89 -60,179 -172,191 z M 74,28 c 0,-112 98,-247 278,-247 21,0 44,2 68,6 -7,64 -29,203 -63,364 -79,-8 -124,-61 -124,-119 0,-44 25,-91 81,-123 5,-5 7,-10 7,-15 0,-11 -10,-22 -22,-22 -15,0 -126,62 -126,187 0,88 58,174 160,197 -14,58 -29,117 -46,175 C 180,310 74,188 74,28 Z m 283,1166 c 28,0 143,-206 143,-361 0,-143 -86,-255 -180,-364 21,-68 39,-138 56,-207 5,0 10,1 14,1 155,0 255,-129 255,-262 0,-113 -74,-212 -180,-245 3,-35 5,-70 5,-105 0,-19 -1,-39 -2,-58 -7,-119 -88,-225 -202,-228 l 1,43 c 93,2 153,92 159,191 1,18 2,37 2,55 0,31 -1,61 -4,92 -28,-5 -55,-8 -80,-8 -239,0 -342,217 -342,374 0,177 131,306 248,441 -29,96 -52,170 -52,346 0,189 144,295 159,295 z M 247,782 c 0,-55 12,-115 35,-190 83,100 147,202 147,326 0,40 -6,82 -21,127 -49,-24 -161,-97 -161,-263 z"
       fill="currentColor"
       id="path33" />
  </g>
  <g
     transform="translate(4.885,7.2955)"
     id="g35">
    <path
       transform="scale(0.004,-0.004)"
       d="M 433,-89 C 433,-111 383,-263 250,-263 191,-263 0,-244 0,0 0,62 18,262 250,262 366,262 426,156 426,99 426,59 396,27 359,27 c -31,0 -75,25 -75,75 0,38 27,77 72,77 4,0 9,0 14,-1 -28,37 -72,59 -120,59 C 144,237 137,164 137,51 V 0 -51 c 0,-113 7,-187 113,-187 80,0 139,70 158,151 2,7 7,10 12,10 6,0 13,-4 13,-12 z"
       fill="currentColor"
       id="path34" />
  </g>
  <g
     transform="translate(10.3942,7.2955)"
     id="g36">
    <rect
       x="-0.064999998"
       y="-0.20469999"
       width="0.13"
       height="3.5185001"
       ry="0.039999999"
       fill="currentColor"
       id="rect35" />
  </g>
  <g
     transform="translate(8.005,10.7955)"
     id="g37">
    <path
       transform="scale(0.004,-0.004)"
       d="m 27,41 -1,-66 v -11 c 0,-22 1,-44 4,-66 45,38 93,80 93,139 0,33 -14,67 -43,67 C 49,104 28,74 27,41 Z m -42,-179 -12,595 c 8,5 18,8 27,8 9,0 19,-3 27,-8 L 20,112 c 25,21 58,34 91,34 52,0 89,-48 89,-102 0,-80 -86,-117 -147,-169 -15,-13 -24,-38 -45,-38 -13,0 -23,11 -23,25 z"
       fill="currentColor"
       id="path36" />
  </g>
  <g
     transform="translate(39.9533,7.1055)"
     id="g38">
    <polygon
       stroke-linejoin="round"
       stroke-linecap="round"
       stroke-width="0.08"
       fill="currentColor"
       stroke="currentColor"
       points="0.04,0.2 0.04,-0.2 3.4442,-0.01 3.4442,0.39 "
       id="polygon37" />
  </g>
  <g
     transform="translate(12.6112,8.7955)"
     id="g39">
    <path
       transform="scale(0.004,-0.004)"
       d="M 0,-46 C 0,45 116,136 217,136 280,136 326,101 326,46 326,-41 216,-136 106,-136 39,-136 0,-97 0,-46 Z"
       fill="currentColor"
       id="path38" />
  </g>
  <g
     transform="translate(13.8504,7.2955)"
     id="g40">
    <rect
       x="-0.064999998"
       y="-0.9853"
       width="0.13"
       height="2.2990999"
       ry="0.039999999"
       fill="currentColor"
       id="rect39" />
  </g>
  <g
     transform="translate(30.6664,7.1055)"
     id="g41">
    <polygon
       stroke-linejoin="round"
       stroke-linecap="round"
       stroke-width="0.08"
       fill="currentColor"
       stroke="currentColor"
       points="0.04,0.2 0.04,-0.2 4.5984,-0.01 4.5984,0.39 "
       id="polygon40" />
  </g>
  <g
     transform="translate(15.8173,9.7955)"
     id="g42">
    <path
       transform="scale(0.004,-0.004)"
       d="M 0,-46 C 0,45 116,136 217,136 280,136 326,101 326,46 326,-41 216,-136 106,-136 39,-136 0,-97 0,-46 Z"
       fill="currentColor"
       id="path41" />
  </g>
  <g
     transform="translate(17.0565,7.2955)"
     id="g43">
    <rect
       x="-0.064999998"
       y="-0.1873"
       width="0.13"
       height="2.5011001"
       ry="0.039999999"
       fill="currentColor"
       id="rect42" />
  </g>
  <g
     transform="translate(14.6673,9.7955)"
     id="g44">
    <path
       transform="scale(0.004,-0.004)"
       d="m 27,41 -1,-66 v -11 c 0,-22 1,-44 4,-66 45,38 93,80 93,139 0,33 -14,67 -43,67 C 49,104 28,74 27,41 Z m -42,-179 -12,595 c 8,5 18,8 27,8 9,0 19,-3 27,-8 L 20,112 c 25,21 58,34 91,34 52,0 89,-48 89,-102 0,-80 -86,-117 -147,-169 -15,-13 -24,-38 -45,-38 -13,0 -23,11 -23,25 z"
       fill="currentColor"
       id="path43" />
  </g>
  <g
     transform="translate(24.2541,7.1055)"
     id="g45">
    <polygon
       stroke-linejoin="round"
       stroke-linecap="round"
       stroke-width="0.08"
       fill="currentColor"
       stroke="currentColor"
       points="0.04,0.2 0.04,-0.2 3.5462,-1.01 3.5462,-0.61 "
       id="polygon44" />
  </g>
  <g
     transform="translate(18.0715,10.7955)"
     id="g46">
    <path
       transform="scale(0.004,-0.004)"
       d="M 0,-46 C 0,45 116,136 217,136 280,136 326,101 326,46 326,-41 216,-136 106,-136 39,-136 0,-97 0,-46 Z"
       fill="currentColor"
       id="path45" />
  </g>
  <g
     transform="translate(19.3107,7.2955)"
     id="g47">
    <rect
       x="-0.064999998"
       y="-0.094999999"
       width="0.13"
       height="3.4087999"
       ry="0.039999999"
       fill="currentColor"
       id="rect46" />
  </g>
  <g
     transform="translate(32.5418,6.4201)"
     id="g48">
    <text
       font-family="'NewComputerModern Math'"
       font-style="italic"
       font-size="1.7459px"
       text-anchor="start"
       fill="currentColor"
       id="text47"><tspan
         id="tspan47">3</tspan></text>
  </g>
  <g
     transform="translate(20.3257,12.2955)"
     id="g49">
    <path
       transform="scale(0.004,-0.004)"
       d="M 0,-46 C 0,45 116,136 217,136 280,136 326,101 326,46 326,-41 216,-136 106,-136 39,-136 0,-97 0,-46 Z"
       fill="currentColor"
       id="path48" />
  </g>
  <g
     transform="translate(21.5649,7.2955)"
     id="g50">
    <rect
       x="-0.064999998"
       y="-0.0027000001"
       width="0.13"
       height="4.8165002"
       ry="0.039999999"
       fill="currentColor"
       id="rect49" />
  </g>
  <g
     transform="translate(23.0799,11.2955)"
     id="g51">
    <path
       transform="scale(0.004,-0.004)"
       d="M 0,-46 C 0,45 116,136 217,136 280,136 326,101 326,46 326,-41 216,-136 106,-136 39,-136 0,-97 0,-46 Z"
       fill="currentColor"
       id="path50" />
  </g>
  <g
     transform="translate(24.3191,7.2955)"
     id="g52">
    <rect
       x="-0.064999998"
       y="-0.20469999"
       width="0.13"
       height="4.0184999"
       ry="0.039999999"
       fill="currentColor"
       id="rect51" />
  </g>
  <g
     transform="translate(16.9915,7.1055)"
     id="g53">
    <polygon
       stroke-linejoin="round"
       stroke-linecap="round"
       stroke-width="0.08"
       fill="currentColor"
       stroke="currentColor"
       points="0.04,0.2 0.04,-0.2 4.5984,-0.01 4.5984,0.39 "
       id="polygon52" />
  </g>
  <g
     transform="translate(26.5361,8.7955)"
     id="g54">
    <path
       transform="scale(0.004,-0.004)"
       d="M 0,-46 C 0,45 116,136 217,136 280,136 326,101 326,46 326,-41 216,-136 106,-136 39,-136 0,-97 0,-46 Z"
       fill="currentColor"
       id="path53" />
  </g>
  <g
     transform="translate(27.7753,7.2955)"
     id="g55">
    <rect
       x="-0.064999998"
       y="-0.9853"
       width="0.13"
       height="2.2990999"
       ry="0.039999999"
       fill="currentColor"
       id="rect54" />
  </g>
  <g
     transform="translate(10.3292,7.1055)"
     id="g56">
    <polygon
       stroke-linejoin="round"
       stroke-linecap="round"
       stroke-width="0.08"
       fill="currentColor"
       stroke="currentColor"
       points="0.04,0.2 0.04,-0.2 3.5462,-1.01 3.5462,-0.61 "
       id="polygon55" />
  </g>
  <g
     transform="translate(29.4922,9.7955)"
     id="g57">
    <path
       transform="scale(0.004,-0.004)"
       d="M 0,-46 C 0,45 116,136 217,136 280,136 326,101 326,46 326,-41 216,-136 106,-136 39,-136 0,-97 0,-46 Z"
       fill="currentColor"
       id="path56" />
  </g>
  <g
     transform="translate(30.7314,7.2955)"
     id="g58">
    <rect
       x="-0.064999998"
       y="-0.1873"
       width="0.13"
       height="2.5011001"
       ry="0.039999999"
       fill="currentColor"
       id="rect57" />
  </g>
  <g
     transform="translate(18.8669,6.4201)"
     id="g59">
    <text
       font-family="'NewComputerModern Math'"
       font-style="italic"
       font-size="1.7459px"
       text-anchor="start"
       fill="currentColor"
       id="text58"><tspan
         id="tspan58">3</tspan></text>
  </g>
  <g
     transform="translate(31.7464,10.7955)"
     id="g60">
    <path
       transform="scale(0.004,-0.004)"
       d="M 0,-46 C 0,45 116,136 217,136 280,136 326,101 326,46 326,-41 216,-136 106,-136 39,-136 0,-97 0,-46 Z"
       fill="currentColor"
       id="path59" />
  </g>
  <g
     transform="translate(32.9856,7.2955)"
     id="g61">
    <rect
       x="-0.064999998"
       y="-0.094999999"
       width="0.13"
       height="3.4087999"
       ry="0.039999999"
       fill="currentColor"
       id="rect60" />
  </g>
  <g
     transform="translate(34.0006,12.2955)"
     id="g62">
    <path
       transform="scale(0.004,-0.004)"
       d="M 0,-46 C 0,45 116,136 217,136 280,136 326,101 326,46 326,-41 216,-136 106,-136 39,-136 0,-97 0,-46 Z"
       fill="currentColor"
       id="path61" />
  </g>
  <g
     transform="translate(35.2398,7.2955)"
     id="g63">
    <rect
       x="-0.064999998"
       y="-0.0027000001"
       width="0.13"
       height="4.8165002"
       ry="0.039999999"
       fill="currentColor"
       id="rect62" />
  </g>
  <g
     transform="translate(38.7791,2.2955)"
     id="g64">
    <text
       font-family="'NewComputerModern Math'"
       font-size="2.3308px"
       text-anchor="start"
       fill="currentColor"
       id="text63"><tspan
         id="tspan63">E</tspan></text>
  </g>
  <g
     transform="translate(40.3497,1.236)"
     id="g65">
    <text
       font-family="'NewComputerModern Math'"
       font-size="1.648px"
       text-anchor="start"
       fill="currentColor"
       id="text64"><tspan
         id="tspan64">♭</tspan></text>
  </g>
  <g
     transform="translate(40.9984,3.0901)"
     id="g66">
    <text
       font-family="'NewComputerModern Math'"
       font-size="1.648px"
       text-anchor="start"
       fill="currentColor"
       id="text65"><tspan
         id="tspan65">7</tspan></text>
  </g>
  <g
     transform="translate(38.7791,11.2955)"
     id="g67">
    <path
       transform="scale(0.004,-0.004)"
       d="M 0,-46 C 0,45 116,136 217,136 280,136 326,101 326,46 326,-41 216,-136 106,-136 39,-136 0,-97 0,-46 Z"
       fill="currentColor"
       id="path66" />
  </g>
  <g
     transform="translate(40.0183,7.2955)"
     id="g68">
    <rect
       x="-0.064999998"
       y="-0.1865"
       width="0.13"
       height="4.0002999"
       ry="0.039999999"
       fill="currentColor"
       id="rect67" />
  </g>
  <g
     transform="translate(37.6291,11.2955)"
     id="g69">
    <path
       transform="scale(0.004,-0.004)"
       d="m 27,41 -1,-66 v -11 c 0,-22 1,-44 4,-66 45,38 93,80 93,139 0,33 -14,67 -43,67 C 49,104 28,74 27,41 Z m -42,-179 -12,595 c 8,5 18,8 27,8 9,0 19,-3 27,-8 L 20,112 c 25,21 58,34 91,34 52,0 89,-48 89,-102 0,-80 -86,-117 -147,-169 -15,-13 -24,-38 -45,-38 -13,0 -23,11 -23,25 z"
       fill="currentColor"
       id="path68" />
  </g>
  <g
     transform="translate(42.1333,12.2955)"
     id="g70">
    <path
       transform="scale(0.004,-0.004)"
       d="M 0,-46 C 0,45 116,136 217,136 280,136 326,101 326,46 326,-41 216,-136 106,-136 39,-136 0,-97 0,-46 Z"
       fill="currentColor"
       id="path69" />
  </g>
  <g
     transform="translate(43.3725,7.2955)"
     id="g71">
    <rect
       x="-0.064999998"
       y="-0.0035000001"
       width="0.13"
       height="4.8172998"
       ry="0.039999999"
       fill="currentColor"
       id="rect70" />
  </g>
  <g
     transform="translate(40.6833,12.2955)"
     id="g72">
    <path
       transform="scale(0.004,-0.004)"
       d="m 0,119 c 0,8 5,15 13,18 l 46,17 v 158 c 0,10 8,19 18,19 10,0 19,-9 19,-19 V 167 l 83,31 v 158 c 0,10 9,19 19,19 10,0 18,-9 18,-19 V 211 l 32,12 c 2,1 5,1 7,1 11,0 20,-9 20,-20 v -60 c 0,-8 -5,-16 -13,-19 L 216,109 V -51 l 32,11 c 2,1 5,1 7,1 11,0 20,-9 20,-20 v -60 c 0,-8 -5,-15 -13,-18 l -46,-17 v -158 c 0,-10 -8,-19 -18,-19 -10,0 -19,9 -19,19 v 145 l -83,-31 v -158 c 0,-10 -9,-19 -19,-19 -10,0 -18,9 -18,19 v 145 l -32,-12 c -2,-1 -5,-1 -7,-1 -11,0 -20,9 -20,20 v 60 c 0,8 5,16 13,19 l 46,16 V 51 L 27,40 C 25,39 22,39 20,39 9,39 0,48 0,59 Z M 179,95 96,65 V -95 l 83,30 z"
       fill="currentColor"
       id="path71" />
  </g>
  <g
     transform="translate(45.3395,11.7955)"
     id="g73">
    <path
       transform="scale(0.004,-0.004)"
       d="M 0,-46 C 0,45 116,136 217,136 280,136 326,101 326,46 326,-41 216,-136 106,-136 39,-136 0,-97 0,-46 Z"
       fill="currentColor"
       id="path72" />
  </g>
  <g
     transform="translate(46.5787,7.2955)"
     id="g74">
    <rect
       x="-0.064999998"
       y="-0.2058"
       width="0.13"
       height="4.5195999"
       ry="0.039999999"
       fill="currentColor"
       id="rect73" />
  </g>
  <g
     transform="translate(48.5456,9.2955)"
     id="g75">
    <path
       transform="scale(0.004,-0.004)"
       d="M 0,-46 C 0,45 116,136 217,136 280,136 326,101 326,46 326,-41 216,-136 106,-136 39,-136 0,-97 0,-46 Z"
       fill="currentColor"
       id="path74" />
  </g>
  <g
     transform="translate(49.7848,7.2955)"
     id="g76">
    <rect
       x="-0.064999998"
       y="-0.9842"
       width="0.13"
       height="2.7980001"
       ry="0.039999999"
       fill="currentColor"
       id="rect75" />
  </g>
  <g
     transform="translate(47.3956,9.2955)"
     id="g77">
    <path
       transform="scale(0.004,-0.004)"
       d="m 27,41 -1,-66 v -11 c 0,-22 1,-44 4,-66 45,38 93,80 93,139 0,33 -14,67 -43,67 C 49,104 28,74 27,41 Z m -42,-179 -12,595 c 8,5 18,8 27,8 9,0 19,-3 27,-8 L 20,112 c 25,21 58,34 91,34 52,0 89,-48 89,-102 0,-80 -86,-117 -147,-169 -15,-13 -24,-38 -45,-38 -13,0 -23,11 -23,25 z"
       fill="currentColor"
       id="path76" />
  </g>
  <g
     transform="translate(51.7518,9.2955)"
     id="g78">
    <path
       transform="scale(0.004,-0.004)"
       d="m 72,-106 c 40,0 204,110 231,143 7,9 11,19 11,28 0,22 -18,41 -42,41 C 232,106 68,-4 41,-37 34,-46 31,-56 31,-65 c 0,-22 17,-41 41,-41 z M 0,-67 c 0,71 46,203 258,203 41,0 86,-10 86,-69 0,-71 -46,-203 -258,-203 -41,0 -86,10 -86,69 z"
       fill="currentColor"
       id="path77" />
  </g>
  <g
     transform="translate(53.0642,7.2955)"
     id="g79">
    <rect
       x="-0.064999998"
       y="-1.5"
       width="0.13"
       height="3.2409999"
       ry="0.039999999"
       fill="currentColor"
       id="rect78" />
  </g>
</svg>
