<?xml version="1.0" encoding="UTF-8" standalone="no"?>
<svg
   version="1.2"
   width="181.43102mm"
   height="49.81628mm"
   viewBox="0 0 103.24427 28.348214"
   id="svg144"
   sodipodi:docname="fig_227.svg"
   xmlns:inkscape="http://www.inkscape.org/namespaces/inkscape"
   xmlns:sodipodi="http://sodipodi.sourceforge.net/DTD/sodipodi-0.dtd"
   xmlns="http://www.w3.org/2000/svg"
   xmlns:svg="http://www.w3.org/2000/svg">
  <defs
     id="defs144" />
  <sodipodi:namedview
     id="namedview144"
     pagecolor="#505050"
     bordercolor="#eeeeee"
     borderopacity="1"
     inkscape:showpageshadow="0"
     inkscape:pageopacity="0"
     inkscape:pagecheckerboard="0"
     inkscape:deskcolor="#505050"
     inkscape:document-units="mm" />
  <style
     type="text/css"
     id="style1"><![CDATA[
tspan { white-space: pre; }
]]></style>
  <g
     transform="translate(103.05427,6.643214)"
     id="g1">
    <path
       id="rect1"
       style="fill:currentColor"
       d="M 0,-2 H 0.19 V 2 H 0 Z" />
  </g>
  <g
     transform="translate(0.8143722,9.643214)"
     id="g2">
    <path
       id="rect2"
       style="fill:currentColor"
       d="m 13.9578,-0.1 h 1.7563 c 0.0554,0 0.1,0.0446 0.1,0.1 0,0.0554 -0.0446,0.1 -0.1,0.1 h -1.7563 c -0.0554,0 -0.1,-0.0446 -0.1,-0.1 0,-0.0554 0.0446,-0.1 0.1,-0.1 z" />
  </g>
  <g
     transform="translate(0.8143722,8.643214)"
     id="g3">
    <path
       id="line2"
       style="stroke:currentColor;stroke-width:0.1;stroke-linecap:round;stroke-linejoin:round"
       d="M 0.05,0 H 102.3799" />
  </g>
  <g
     transform="translate(0.8143722,7.643214)"
     id="g4">
    <path
       id="line3"
       style="stroke:currentColor;stroke-width:0.1;stroke-linecap:round;stroke-linejoin:round"
       d="M 0.05,0 H 102.3799" />
  </g>
  <g
     transform="translate(0.8143722,6.643214)"
     id="g5">
    <path
       id="line4"
       style="stroke:currentColor;stroke-width:0.1;stroke-linecap:round;stroke-linejoin:round"
       d="M 0.05,0 H 102.3799" />
  </g>
  <g
     transform="translate(0.8143722,5.643214)"
     id="g6">
    <path
       id="line5"
       style="stroke:currentColor;stroke-width:0.1;stroke-linecap:round;stroke-linejoin:round"
       d="M 0.05,0 H 102.3799" />
  </g>
  <g
     transform="translate(0.8143722,4.643214)"
     id="g7">
    <path
       id="line6"
       style="stroke:currentColor;stroke-width:0.1;stroke-linecap:round;stroke-linejoin:round"
       d="M 0.05,0 H 102.3799" />
  </g>
  <g
     transform="translate(54.389272,6.643214)"
     id="g8">
    <path
       id="rect7"
       style="fill:currentColor"
       d="M 0,-2 H 0.19 V 2 H 0 Z" />
  </g>
  <g
     transform="translate(89.708172,3.643214)"
     id="g9">
    <path
       id="polygon8"
       style="fill:currentColor;stroke:currentColor;stroke-width:0.08;stroke-linecap:round;stroke-linejoin:round"
       d="M 10.7938,-0.2 V 0.2 H 0.04 v -0.4 z" />
  </g>
  <g
     transform="translate(89.708172,4.453214)"
     id="g10">
    <path
       id="polygon9"
       style="fill:currentColor;stroke:currentColor;stroke-width:0.08;stroke-linecap:round;stroke-linejoin:round"
       d="M 10.7938,-0.2 V 0.2 H 0.04 v -0.4 z" />
  </g>
  <g
     transform="translate(72.154572,7.833214)"
     id="g11">
    <path
       id="polygon10"
       style="fill:currentColor;stroke:currentColor;stroke-width:0.08;stroke-linecap:round;stroke-linejoin:round"
       d="M 12.3838,0.8 V 1.2 L 0.04,0.2 v -0.4 z" />
  </g>
  <g
     transform="translate(72.154572,8.643214)"
     id="g12">
    <path
       id="polygon11"
       style="fill:currentColor;stroke:currentColor;stroke-width:0.08;stroke-linecap:round;stroke-linejoin:round"
       d="M 12.3838,0.8 V 1.2 L 0.04,0.2 v -0.4 z" />
  </g>
  <g
     transform="translate(9.3041722,1.643214)"
     id="g13">
    <path
       style="font-size:2.3308px;font-family:'NewComputerModern Math';white-space:pre"
       d="m 1.549982,-0.54307641 c 0,-0.023308 0,-0.0396236 -0.0303,-0.0396236 -0.025639,0 -0.025639,0.0139848 -0.02797,0.0372928 -0.018646,0.3333044 -0.268042,0.52443001 -0.52209918,0.52443001 -0.1421788,0 -0.59901561,-0.0792472 -0.59901561,-0.77382562 0,-0.69690918 0.45450601,-0.77615638 0.59668481,-0.77615638 0.25405718,0 0.46149838,0.2121028 0.50811438,0.5523996 0.00466,0.0326312 0.00466,0.0396236 0.037293,0.0396236 0.037293,0 0.037293,-0.006992 0.037293,-0.0559392 v -0.5523996 c 0,-0.039624 0,-0.055939 -0.025639,-0.055939 -0.00932,0 -0.018646,0 -0.037293,0.02797 l -0.11654,0.1724792 C 1.2842708,-1.526674 1.1654,-1.643214 0.94164322,-1.643214 c -0.43585961,0 -0.81111842,0.3705972 -0.81111842,0.84608038 0,0.48247561 0.37758961,0.84841122 0.81111842,0.84841122 0.37992038,0 0.60833878,-0.32398121 0.60833878,-0.59435401 z"
       id="text12"
       aria-label="C" />
  </g>
  <g
     transform="translate(10.977172,2.437814)"
     id="g14">
    <path
       style="font-size:1.648px;font-family:'NewComputerModern Math';white-space:pre"
       d="m 1.189856,-0.412 c 0,-0.018128 -0.014832,-0.03296 -0.03296,-0.03296 H 0.125248 c -0.018128,0 -0.03296,0.014832 -0.03296,0.03296 0,0.018128 0.014832,0.03296 0.03296,0.03296 h 1.031648 c 0.018128,0 0.03296,-0.014832 0.03296,-0.03296 z"
       id="text13"
       aria-label="−" />
  </g>
  <g
     transform="translate(12.274572,2.437814)"
     id="g15">
    <path
       style="font-size:1.648px;font-family:'NewComputerModern Math';white-space:pre"
       d="M 0.79928,-1.061312 H 0.398816 c -0.201056,0 -0.204352,-0.021424 -0.210944,-0.052736 h -0.0412 L 0.092288,-0.77456 h 0.0412 c 0.004944,-0.026368 0.019776,-0.130192 0.0412,-0.149968 0.011536,-0.009888 0.14008,-0.009888 0.161504,-0.009888 h 0.341136 l -0.184576,0.260384 c -0.14832,0.22248 -0.202704,0.451552 -0.202704,0.619648 0,0.01648 0,0.09064 0.075808,0.09064 0.075808,0 0.075808,-0.07416 0.075808,-0.09064 v -0.084048 c 0,-0.09064 0.004944,-0.18128 0.018128,-0.270272 0.006592,-0.037904 0.029664,-0.179632 0.102176,-0.281808 l 0.22248,-0.31312 C 0.79928,-1.023408 0.79928,-1.026704 0.79928,-1.061312 Z"
       id="text14"
       aria-label="7" />
  </g>
  <g
     transform="translate(9.3041722,6.643214)"
     id="g16">
    <path
       transform="scale(0.004,-0.004)"
       d="m 70,205 c 79,0 46,-98 91,-98 16,0 54,48 61,63 3,6 8,9 14,9 6,0 12,-3 14,-9 L 127,-250 c -8,-7 -17,-10 -27,-10 -10,0 -20,3 -28,10 L 189,76 C 155,64 120,54 84,54 26,54 -1,95 -1,134 c 0,36 24,71 71,71 z"
       fill="currentColor"
       id="path15" />
  </g>
  <g
     transform="translate(1.6143722,7.643214)"
     id="g17">
    <path
       transform="scale(0.004,-0.004)"
       d="m 266,-635 h -6 c -108,0 -195,88 -195,197 0,58 53,103 112,103 54,0 95,-47 95,-103 0,-52 -43,-95 -95,-95 -11,0 -21,2 -31,6 26,-39 68,-65 117,-65 h 4 z m 135,786 c 19,-89 48,-242 60,-354 76,27 112,94 112,163 0,89 -60,179 -172,191 z M 74,28 c 0,-112 98,-247 278,-247 21,0 44,2 68,6 -7,64 -29,203 -63,364 -79,-8 -124,-61 -124,-119 0,-44 25,-91 81,-123 5,-5 7,-10 7,-15 0,-11 -10,-22 -22,-22 -15,0 -126,62 -126,187 0,88 58,174 160,197 -14,58 -29,117 -46,175 C 180,310 74,188 74,28 Z m 283,1166 c 28,0 143,-206 143,-361 0,-143 -86,-255 -180,-364 21,-68 39,-138 56,-207 5,0 10,1 14,1 155,0 255,-129 255,-262 0,-113 -74,-212 -180,-245 3,-35 5,-70 5,-105 0,-19 -1,-39 -2,-58 -7,-119 -88,-225 -202,-228 l 1,43 c 93,2 153,92 159,191 1,18 2,37 2,55 0,31 -1,61 -4,92 -28,-5 -55,-8 -80,-8 -239,0 -342,217 -342,374 0,177 131,306 248,441 -29,96 -52,170 -52,346 0,189 144,295 159,295 z M 247,782 c 0,-55 12,-115 35,-190 83,100 147,202 147,326 0,40 -6,82 -21,127 -49,-24 -161,-97 -161,-263 z"
       fill="currentColor"
       id="path16" />
  </g>
  <g
     transform="translate(5.8359722,6.643214)"
     id="g18">
    <path
       transform="scale(0.004,-0.004)"
       d="m 263,265 c 0,-33 70,-23 70,-125 C 333,48 254,0 154,0 75,0 0,42 0,113 c 0,36 30,66 66,66 36,0 65,-30 65,-66 0,-25 -40,-28 -40,-53 0,-27 32,-37 63,-37 49,0 63,61 63,117 v 16 c 0,54 -2,94 -50,94 H 87 c -10,0 -14,8 -14,15 0,7 4,14 14,14 h 80 c 49,0 50,43 50,99 v 8 c 0,54 -18,91 -67,91 -28,0 -57,-9 -57,-33 0,-22 35,-25 35,-47 0,-32 -25,-58 -57,-58 -32,0 -58,26 -58,58 0,64 67,103 137,103 91,0 169,-33 169,-114 0,-122 -56,-80 -56,-121 z"
       fill="currentColor"
       id="path17" />
  </g>
  <g
     transform="translate(5.6993722,8.643214)"
     id="g19">
    <path
       transform="scale(0.004,-0.004)"
       d="m 196,117 h 117 c 0,-48 27,-94 72,-94 8,0 12,-5 12,-11 C 397,6 393,0 385,0 341,0 298,13 254,13 210,13 167,0 123,0 c -8,0 -12,6 -12,12 0,6 4,11 12,11 45,0 73,46 73,94 z m 29,370 c 36,0 69,14 76,14 8,0 14,-6 14,-12 0,-2 -1,-3 -2,-5 L 29,154 h 167 v 131 c 0,34 34,27 68,72 22,30 23,56 36,56 6,0 13,-5 13,-14 V 154 h 72 c 10,0 15,-7 15,-14 0,-7 -5,-15 -15,-15 h -72 v -8 H 196 v 8 H 29 c -23,0 -31,14 -31,23 0,12 140,143 140,336 0,9 6,16 13,16 5,0 39,-13 74,-13 z"
       fill="currentColor"
       id="path18" />
  </g>
  <g
     transform="translate(56.879472,6.833214)"
     id="g20">
    <path
       id="polygon19"
       style="fill:currentColor;stroke:currentColor;stroke-width:0.08;stroke-linecap:round;stroke-linejoin:round"
       d="M 11.0438,-0.2 V 0.2 H 0.04 v -0.4 z" />
  </g>
  <g
     transform="translate(56.879472,7.643214)"
     id="g21">
    <path
       id="polygon20"
       style="fill:currentColor;stroke:currentColor;stroke-width:0.08;stroke-linecap:round;stroke-linejoin:round"
       d="M 11.0438,-0.2 V 0.2 H 0.04 v -0.4 z" />
  </g>
  <g
     transform="translate(14.998272,9.643214)"
     id="g22">
    <path
       transform="scale(0.004,-0.004)"
       d="M 0,-46 C 0,45 116,136 217,136 280,136 326,101 326,46 326,-41 216,-136 106,-136 39,-136 0,-97 0,-46 Z"
       fill="currentColor"
       id="path21" />
  </g>
  <g
     transform="translate(16.237472,6.643214)"
     id="g23">
    <path
       id="rect22"
       style="fill:currentColor"
       d="m -0.025,-1.0118001 h 0.05 c 0.02216,0 0.04,0.0178401 0.04,0.0400001 v 3.7455999 c 0,0.02216 -0.01784,0.04 -0.04,0.04 h -0.05 c -0.02216,0 -0.04,-0.01784 -0.04,-0.04 v -3.74559995 c 0,-0.02216 0.01784,-0.0400001 0.04,-0.0400001 z" />
  </g>
  <g
     transform="translate(39.114172,9.333214)"
     id="g24">
    <path
       id="polygon23"
       style="fill:currentColor;stroke:currentColor;stroke-width:0.08;stroke-linecap:round;stroke-linejoin:round"
       d="m 11.9638,-1.7 v 0.4 L 0.04,0.2 v -0.4 z" />
  </g>
  <g
     transform="translate(39.114172,10.143214)"
     id="g25">
    <path
       id="polygon24"
       style="fill:currentColor;stroke:currentColor;stroke-width:0.08;stroke-linecap:round;stroke-linejoin:round"
       d="m 11.9638,-1.7 v 0.4 L 0.04,0.2 v -0.4 z" />
  </g>
  <g
     transform="translate(19.319572,8.643214)"
     id="g26">
    <path
       transform="scale(0.004,-0.004)"
       d="M 0,-46 C 0,45 116,136 217,136 280,136 326,101 326,46 326,-41 216,-136 106,-136 39,-136 0,-97 0,-46 Z"
       fill="currentColor"
       id="path25" />
  </g>
  <g
     transform="translate(20.558772,6.643214)"
     id="g27">
    <path
       id="rect26"
       style="fill:currentColor"
       d="m -0.025,-1.7982 h 0.05 c 0.02216,0 0.04,0.01784 0.04,0.04 v 3.532 c 0,0.02216 -0.01784,0.04 -0.04,0.04 h -0.05 c -0.02216,0 -0.04,-0.01784 -0.04,-0.04 v -3.532 c 0,-0.02216 0.01784,-0.04 0.04,-0.04 z" />
  </g>
  <g
     transform="translate(18.169572,8.643214)"
     id="g28">
    <path
       transform="scale(0.004,-0.004)"
       d="m 27,41 -1,-66 v -11 c 0,-22 1,-44 4,-66 45,38 93,80 93,139 0,33 -14,67 -43,67 C 49,104 28,74 27,41 Z m -42,-179 -12,595 c 8,5 18,8 27,8 9,0 19,-3 27,-8 L 20,112 c 25,21 58,34 91,34 52,0 89,-48 89,-102 0,-80 -86,-117 -147,-169 -15,-13 -24,-38 -45,-38 -13,0 -23,11 -23,25 z"
       fill="currentColor"
       id="path27" />
  </g>
  <g
     transform="translate(24.395072,3.143214)"
     id="g29">
    <path
       id="polygon28"
       style="fill:currentColor;stroke:currentColor;stroke-width:0.08;stroke-linecap:round;stroke-linejoin:round"
       d="M 12.3138,-0.2 V 0.2 H 0.04 v -0.4 z" />
  </g>
  <g
     transform="translate(24.395072,3.953214)"
     id="g30">
    <path
       id="polygon29"
       style="fill:currentColor;stroke:currentColor;stroke-width:0.08;stroke-linecap:round;stroke-linejoin:round"
       d="M 12.3138,-0.2 V 0.2 H 0.04 v -0.4 z" />
  </g>
  <g
     transform="translate(23.220872,7.643214)"
     id="g31">
    <path
       transform="scale(0.004,-0.004)"
       d="M 0,-46 C 0,45 116,136 217,136 280,136 326,101 326,46 326,-41 216,-136 106,-136 39,-136 0,-97 0,-46 Z"
       fill="currentColor"
       id="path30" />
  </g>
  <g
     transform="translate(24.460072,6.643214)"
     id="g32">
    <path
       id="rect31"
       style="fill:currentColor"
       d="m -0.025,-3.5 h 0.05 c 0.02216,0 0.04,0.01784 0.04,0.04 v 4.23379986 c 0,0.02216 -0.01784,0.04 -0.04,0.04 h -0.05 c -0.02216,0 -0.04,-0.01784 -0.04,-0.04 V -3.46 c 0,-0.02216 0.01784,-0.04 0.04,-0.04 z" />
  </g>
  <g
     transform="translate(16.172472,5.643214)"
     id="g33">
    <path
       id="polygon32"
       style="fill:currentColor;stroke:currentColor;stroke-width:0.08;stroke-linecap:round;stroke-linejoin:round"
       d="m 4.4113,-1.01 v 0.4 L 0.04,0.2 v -0.4 z" />
  </g>
  <g
     transform="translate(16.172472,6.453214)"
     id="g34">
    <path
       id="polygon33"
       style="fill:currentColor;stroke:currentColor;stroke-width:0.08;stroke-linecap:round;stroke-linejoin:round"
       d="m 4.4113,-1.01 v 0.4 L 0.04,0.2 v -0.4 z" />
  </g>
  <g
     transform="translate(27.542072,6.643214)"
     id="g35">
    <path
       transform="scale(0.004,-0.004)"
       d="M 0,-46 C 0,45 116,136 217,136 280,136 326,101 326,46 326,-41 216,-136 106,-136 39,-136 0,-97 0,-46 Z"
       fill="currentColor"
       id="path34" />
  </g>
  <g
     transform="translate(28.781272,6.643214)"
     id="g36">
    <path
       id="rect35"
       style="fill:currentColor"
       d="m -0.025,-3.5 h 0.05 c 0.02216,0 0.04,0.01784 0.04,0.04 v 3.2338001 c 0,0.02216 -0.01784,0.04 -0.04,0.04 h -0.05 c -0.02216,0 -0.04,-0.01784 -0.04,-0.04 V -3.46 c 0,-0.02216 0.01784,-0.04 0.04,-0.04 z" />
  </g>
  <g
     transform="translate(26.392072,6.643214)"
     id="g37">
    <path
       transform="scale(0.004,-0.004)"
       d="m 27,41 -1,-66 v -11 c 0,-22 1,-44 4,-66 45,38 93,80 93,139 0,33 -14,67 -43,67 C 49,104 28,74 27,41 Z m -42,-179 -12,595 c 8,5 18,8 27,8 9,0 19,-3 27,-8 L 20,112 c 25,21 58,34 91,34 52,0 89,-48 89,-102 0,-80 -86,-117 -147,-169 -15,-13 -24,-38 -45,-38 -13,0 -23,11 -23,25 z"
       fill="currentColor"
       id="path36" />
  </g>
  <g
     transform="translate(30.943372,7.643214)"
     id="g38">
    <path
       transform="scale(0.004,-0.004)"
       d="M 0,-46 C 0,45 116,136 217,136 280,136 326,101 326,46 326,-41 216,-136 106,-136 39,-136 0,-97 0,-46 Z"
       fill="currentColor"
       id="path37" />
  </g>
  <g
     transform="translate(32.182572,6.643214)"
     id="g39">
    <path
       id="rect38"
       style="fill:currentColor"
       d="m -0.025,-3.5 h 0.05 c 0.02216,0 0.04,0.01784 0.04,0.04 v 4.23379986 c 0,0.02216 -0.01784,0.04 -0.04,0.04 h -0.05 c -0.02216,0 -0.04,-0.01784 -0.04,-0.04 V -3.46 c 0,-0.02216 0.01784,-0.04 0.04,-0.04 z" />
  </g>
  <g
     transform="translate(14.998272,11.767714)"
     id="g40">
    <path
       id="line39"
       style="stroke:currentColor;stroke-width:0.2;stroke-linecap:round;stroke-linejoin:round"
       d="M 25.420099,0 V -1" />
  </g>
  <g
     transform="translate(14.998272,11.767714)"
     id="g41">
    <path
       id="line40"
       style="stroke:currentColor;stroke-width:0.2;stroke-linecap:round;stroke-linejoin:round"
       d="M 0,0 V -1" />
  </g>
  <g
     transform="translate(14.998272,11.767714)"
     id="g42">
    <path
       id="line41"
       style="stroke:currentColor;stroke-width:0.2;stroke-linecap:round;stroke-linejoin:round"
       d="M 0,0 H 25.420099" />
  </g>
  <g
     transform="translate(35.444672,7.643214)"
     id="g43">
    <path
       transform="scale(0.004,-0.004)"
       d="M 0,-46 C 0,45 116,136 217,136 280,136 326,101 326,46 326,-41 216,-136 106,-136 39,-136 0,-97 0,-46 Z"
       fill="currentColor"
       id="path42" />
  </g>
  <g
     transform="translate(36.683872,6.643214)"
     id="g44">
    <path
       id="rect43"
       style="fill:currentColor"
       d="m -0.025,-3.5 h 0.05 c 0.02216,0 0.04,0.01784 0.04,0.04 v 4.23379986 c 0,0.02216 -0.01784,0.04 -0.04,0.04 h -0.05 c -0.02216,0 -0.04,-0.01784 -0.04,-0.04 V -3.46 c 0,-0.02216 0.01784,-0.04 0.04,-0.04 z" />
  </g>
  <g
     transform="translate(33.994672,7.643214)"
     id="g45">
    <path
       transform="scale(0.004,-0.004)"
       d="m 0,119 c 0,8 5,15 13,18 l 46,17 v 158 c 0,10 8,19 18,19 10,0 19,-9 19,-19 V 167 l 83,31 v 158 c 0,10 9,19 19,19 10,0 18,-9 18,-19 V 211 l 32,12 c 2,1 5,1 7,1 11,0 20,-9 20,-20 v -60 c 0,-8 -5,-16 -13,-19 L 216,109 V -51 l 32,11 c 2,1 5,1 7,1 11,0 20,-9 20,-20 v -60 c 0,-8 -5,-15 -13,-18 l -46,-17 v -158 c 0,-10 -8,-19 -18,-19 -10,0 -19,9 -19,19 v 145 l -83,-31 v -158 c 0,-10 -9,-19 -19,-19 -10,0 -18,9 -18,19 v 145 l -32,-12 c -2,-1 -5,-1 -7,-1 -11,0 -20,9 -20,20 v 60 c 0,8 5,16 13,19 l 46,16 V 51 L 27,40 C 25,39 22,39 20,39 9,39 0,48 0,59 Z M 179,95 96,65 V -95 l 83,30 z"
       fill="currentColor"
       id="path44" />
  </g>
  <g
     transform="translate(39.114172,7.143214)"
     id="g46">
    <path
       transform="scale(0.004,-0.004)"
       d="M 0,-46 C 0,45 116,136 217,136 280,136 326,101 326,46 326,-41 216,-136 106,-136 39,-136 0,-97 0,-46 Z"
       fill="currentColor"
       id="path45" />
  </g>
  <g
     transform="translate(39.179172,6.643214)"
     id="g47">
    <path
       id="rect46"
       style="fill:currentColor"
       d="m -0.025,0.68620002 h 0.05 c 0.02216,0 0.04,0.01784 0.04,0.04 V 3.4519001 c 0,0.02216 -0.01784,0.04 -0.04,0.04 h -0.05 c -0.02216,0 -0.04,-0.01784 -0.04,-0.04 V 0.72620002 c 0,-0.02216 0.01784,-0.04 0.04,-0.04 z" />
  </g>
  <g
     transform="translate(43.015472,6.143214)"
     id="g48">
    <path
       transform="scale(0.004,-0.004)"
       d="M 0,-46 C 0,45 116,136 217,136 280,136 326,101 326,46 326,-41 216,-136 106,-136 39,-136 0,-97 0,-46 Z"
       fill="currentColor"
       id="path47" />
  </g>
  <g
     transform="translate(43.080472,6.643214)"
     id="g49">
    <path
       id="rect48"
       style="fill:currentColor"
       d="m -0.025,-0.31380001 h 0.05 c 0.02216,0 0.04,0.01784 0.04,0.04 V 2.9644001 c 0,0.02216 -0.01784,0.04 -0.04,0.04 h -0.05 c -0.02216,0 -0.04,-0.01784 -0.04,-0.04 v -3.23820011 c 0,-0.02216 0.01784,-0.04 0.04,-0.04 z" />
  </g>
  <g
     transform="translate(47.336772,5.143214)"
     id="g50">
    <path
       transform="scale(0.004,-0.004)"
       d="M 0,-46 C 0,45 116,136 217,136 280,136 326,101 326,46 326,-41 216,-136 106,-136 39,-136 0,-97 0,-46 Z"
       fill="currentColor"
       id="path49" />
  </g>
  <g
     transform="translate(47.401772,6.643214)"
     id="g51">
    <path
       id="rect50"
       style="fill:currentColor"
       d="m -0.025,-1.3138 h 0.05 c 0.02216,0 0.04,0.01784 0.04,0.04 v 3.6981999 c 0,0.02216 -0.01784,0.04 -0.04,0.04 h -0.05 c -0.02216,0 -0.04,-0.01784 -0.04,-0.04 V -1.2738 c 0,-0.02216 0.01784,-0.04 0.04,-0.04 z" />
  </g>
  <g
     transform="translate(46.186772,5.143214)"
     id="g52">
    <path
       transform="scale(0.004,-0.004)"
       d="m 27,41 -1,-66 v -11 c 0,-22 1,-44 4,-66 45,38 93,80 93,139 0,33 -14,67 -43,67 C 49,104 28,74 27,41 Z m -42,-179 -12,595 c 8,5 18,8 27,8 9,0 19,-3 27,-8 L 20,112 c 25,21 58,34 91,34 52,0 89,-48 89,-102 0,-80 -86,-117 -147,-169 -15,-13 -24,-38 -45,-38 -13,0 -23,11 -23,25 z"
       fill="currentColor"
       id="path51" />
  </g>
  <g
     transform="translate(50.987972,4.643214)"
     id="g53">
    <path
       transform="scale(0.004,-0.004)"
       d="M 0,-46 C 0,45 116,136 217,136 280,136 326,101 326,46 326,-41 216,-136 106,-136 39,-136 0,-97 0,-46 Z"
       fill="currentColor"
       id="path52" />
  </g>
  <g
     transform="translate(51.052972,6.643214)"
     id="g54">
    <path
       id="rect53"
       style="fill:currentColor"
       d="m -0.025,-1.8138 h 0.05 c 0.02216,0 0.04,0.01784 0.04,0.04 v 3.7418999 c 0,0.02216 -0.01784,0.04 -0.04,0.04 h -0.05 c -0.02216,0 -0.04,-0.01784 -0.04,-0.04 V -1.7738 c 0,-0.02216 0.01784,-0.04 0.04,-0.04 z" />
  </g>
  <g
     transform="translate(56.879472,1.643214)"
     id="g55">
    <path
       style="font-size:2.3308px;font-family:'NewComputerModern Math';white-space:pre"
       d="M 1.421788,-1.060514 1.356526,-1.584944 H 0.0769164 v 0.072255 h 0.0559392 c 0.17947161,0 0.18413321,0.025639 0.18413321,0.1095476 v 1.2213392 c 0,0.0839088 -0.004662,0.1095476 -0.18413321,0.1095476 H 0.0769164 V 0 c 0.081578,-0.0069924 0.26338041,-0.0069924 0.35428161,-0.0069924 0.0955628,0 0.30766561,0 0.39157441,0.0069924 v -0.0722548 h -0.0769164 c -0.22142601,0 -0.22142601,-0.0303004 -0.22142601,-0.1118784 v -0.57337682 h 0.20044881 c 0.2237568,0 0.2470648,0.0745856 0.2470648,0.27270361 h 0.05827 V -1.1024684 h -0.05827 c 0,0.19578718 -0.023308,0.27270358 -0.2470648,0.27270358 H 0.52443001 V -1.4194572 c 0,-0.076916 0.004662,-0.093232 0.11420921,-0.093232 h 0.279696 c 0.34961998,0 0.40788998,0.1305248 0.44518278,0.4521752 z"
       id="text54"
       aria-label="F" />
  </g>
  <g
     transform="translate(58.415872,2.437814)"
     id="g56">
    <path
       style="font-size:1.648px;font-family:'NewComputerModern Math';white-space:pre"
       d="M 0.79928,-1.061312 H 0.398816 c -0.201056,0 -0.204352,-0.021424 -0.210944,-0.052736 h -0.0412 L 0.092288,-0.77456 h 0.0412 c 0.004944,-0.026368 0.019776,-0.130192 0.0412,-0.149968 0.011536,-0.009888 0.14008,-0.009888 0.161504,-0.009888 h 0.341136 l -0.184576,0.260384 c -0.14832,0.22248 -0.202704,0.451552 -0.202704,0.619648 0,0.01648 0,0.09064 0.075808,0.09064 0.075808,0 0.075808,-0.07416 0.075808,-0.09064 v -0.084048 c 0,-0.09064 0.004944,-0.18128 0.018128,-0.270272 0.006592,-0.037904 0.029664,-0.179632 0.102176,-0.281808 l 0.22248,-0.31312 C 0.79928,-1.023408 0.79928,-1.026704 0.79928,-1.061312 Z"
       id="text55"
       aria-label="7" />
  </g>
  <g
     transform="translate(56.879472,4.143214)"
     id="g57">
    <path
       transform="scale(0.004,-0.004)"
       d="M 0,-46 C 0,45 116,136 217,136 280,136 326,101 326,46 326,-41 216,-136 106,-136 39,-136 0,-97 0,-46 Z"
       fill="currentColor"
       id="path56" />
  </g>
  <g
     transform="translate(56.944472,6.643214)"
     id="g58">
    <path
       id="rect57"
       style="fill:currentColor"
       d="m -0.025,-2.3138001 h 0.05 c 0.02216,0 0.04,0.01784 0.04,0.04 V 0.96 C 0.065,0.98216 0.04716,1 0.025,1 h -0.05 c -0.02216,0 -0.04,-0.01784 -0.04,-0.04 v -3.2338001 c 0,-0.02216 0.01784,-0.04 0.04,-0.04 z" />
  </g>
  <g
     transform="translate(55.729472,4.143214)"
     id="g59">
    <path
       transform="scale(0.004,-0.004)"
       d="m 27,41 -1,-66 v -11 c 0,-22 1,-44 4,-66 45,38 93,80 93,139 0,33 -14,67 -43,67 C 49,104 28,74 27,41 Z m -42,-179 -12,595 c 8,5 18,8 27,8 9,0 19,-3 27,-8 L 20,112 c 25,21 58,34 91,34 52,0 89,-48 89,-102 0,-80 -86,-117 -147,-169 -15,-13 -24,-38 -45,-38 -13,0 -23,11 -23,25 z"
       fill="currentColor"
       id="path58" />
  </g>
  <g
     transform="translate(60.530772,4.643214)"
     id="g60">
    <path
       transform="scale(0.004,-0.004)"
       d="M 0,-46 C 0,45 116,136 217,136 280,136 326,101 326,46 326,-41 216,-136 106,-136 39,-136 0,-97 0,-46 Z"
       fill="currentColor"
       id="path59" />
  </g>
  <g
     transform="translate(60.595772,6.643214)"
     id="g61">
    <path
       id="rect60"
       style="fill:currentColor"
       d="m -0.025,-1.8138 h 0.05 c 0.02216,0 0.04,0.01784 0.04,0.04 v 2.73380012 c 0,0.02216 -0.01784,0.04 -0.04,0.04 h -0.05 c -0.02216,0 -0.04,-0.01784 -0.04,-0.04 V -1.7738 c 0,-0.02216 0.01784,-0.04 0.04,-0.04 z" />
  </g>
  <g
     transform="translate(64.181972,4.143214)"
     id="g62">
    <path
       transform="scale(0.004,-0.004)"
       d="M 0,-46 C 0,45 116,136 217,136 280,136 326,101 326,46 326,-41 216,-136 106,-136 39,-136 0,-97 0,-46 Z"
       fill="currentColor"
       id="path61" />
  </g>
  <g
     transform="translate(64.246972,6.643214)"
     id="g63">
    <path
       id="rect62"
       style="fill:currentColor"
       d="m -0.025,-2.3138001 h 0.05 c 0.02216,0 0.04,0.01784 0.04,0.04 V 0.96 C 0.065,0.98216 0.04716,1 0.025,1 h -0.05 c -0.02216,0 -0.04,-0.01784 -0.04,-0.04 v -3.2338001 c 0,-0.02216 0.01784,-0.04 0.04,-0.04 z" />
  </g>
  <g
     transform="translate(67.833272,4.643214)"
     id="g64">
    <path
       transform="scale(0.004,-0.004)"
       d="M 0,-46 C 0,45 116,136 217,136 280,136 326,101 326,46 326,-41 216,-136 106,-136 39,-136 0,-97 0,-46 Z"
       fill="currentColor"
       id="path63" />
  </g>
  <g
     transform="translate(67.898272,6.643214)"
     id="g65">
    <path
       id="rect64"
       style="fill:currentColor"
       d="m -0.025,-1.8138 h 0.05 c 0.02216,0 0.04,0.01784 0.04,0.04 v 2.73380012 c 0,0.02216 -0.01784,0.04 -0.04,0.04 h -0.05 c -0.02216,0 -0.04,-0.01784 -0.04,-0.04 V -1.7738 c 0,-0.02216 0.01784,-0.04 0.04,-0.04 z" />
  </g>
  <g
     transform="translate(72.154572,5.143214)"
     id="g66">
    <path
       transform="scale(0.004,-0.004)"
       d="M 0,-46 C 0,45 116,136 217,136 280,136 326,101 326,46 326,-41 216,-136 106,-136 39,-136 0,-97 0,-46 Z"
       fill="currentColor"
       id="path65" />
  </g>
  <g
     transform="translate(72.219572,6.643214)"
     id="g67">
    <path
       id="rect66"
       style="fill:currentColor"
       d="m -0.025,-1.3138 h 0.05 c 0.02216,0 0.04,0.01784 0.04,0.04 v 3.239 c 0,0.02216 -0.01784,0.04 -0.04,0.04 h -0.05 c -0.02216,0 -0.04,-0.01784 -0.04,-0.04 v -3.239 c 0,-0.02216 0.01784,-0.04 0.04,-0.04 z" />
  </g>
  <g
     transform="translate(71.004572,5.143214)"
     id="g68">
    <path
       transform="scale(0.004,-0.004)"
       d="m 27,41 -1,-66 v -11 c 0,-22 1,-44 4,-66 45,38 93,80 93,139 0,33 -14,67 -43,67 C 49,104 28,74 27,41 Z m -42,-179 -12,595 c 8,5 18,8 27,8 9,0 19,-3 27,-8 L 20,112 c 25,21 58,34 91,34 52,0 89,-48 89,-102 0,-80 -86,-117 -147,-169 -15,-13 -24,-38 -45,-38 -13,0 -23,11 -23,25 z"
       fill="currentColor"
       id="path67" />
  </g>
  <g
     transform="translate(76.475872,5.643214)"
     id="g69">
    <path
       transform="scale(0.004,-0.004)"
       d="M 0,-46 C 0,45 116,136 217,136 280,136 326,101 326,46 326,-41 216,-136 106,-136 39,-136 0,-97 0,-46 Z"
       fill="currentColor"
       id="path68" />
  </g>
  <g
     transform="translate(76.540872,6.643214)"
     id="g70">
    <path
       id="rect69"
       style="fill:currentColor"
       d="m -0.025,-0.81379998 h 0.05 c 0.02216,0 0.04,0.01784 0.04,0.04 V 2.3130999 c 0,0.02216 -0.01784,0.04 -0.04,0.04 h -0.05 c -0.02216,0 -0.04,-0.01784 -0.04,-0.04 v -3.08689988 c 0,-0.02216 0.01784,-0.04 0.04,-0.04 z" />
  </g>
  <g
     transform="translate(75.325872,5.643214)"
     id="g71">
    <path
       transform="scale(0.004,-0.004)"
       d="m 27,41 -1,-66 v -11 c 0,-22 1,-44 4,-66 45,38 93,80 93,139 0,33 -14,67 -43,67 C 49,104 28,74 27,41 Z m -42,-179 -12,595 c 8,5 18,8 27,8 9,0 19,-3 27,-8 L 20,112 c 25,21 58,34 91,34 52,0 89,-48 89,-102 0,-80 -86,-117 -147,-169 -15,-13 -24,-38 -45,-38 -13,0 -23,11 -23,25 z"
       fill="currentColor"
       id="path70" />
  </g>
  <g
     transform="translate(80.127072,6.143214)"
     id="g72">
    <path
       transform="scale(0.004,-0.004)"
       d="M 0,-46 C 0,45 116,136 217,136 280,136 326,101 326,46 326,-41 216,-136 106,-136 39,-136 0,-97 0,-46 Z"
       fill="currentColor"
       id="path71" />
  </g>
  <g
     transform="translate(80.192072,6.643214)"
     id="g73">
    <path
       id="rect72"
       style="fill:currentColor"
       d="m -0.025,-0.31380001 h 0.05 c 0.02216,0 0.04,0.01784 0.04,0.04 V 2.6069 c 0,0.02216 -0.01784,0.04 -0.04,0.04 h -0.05 c -0.02216,0 -0.04,-0.01784 -0.04,-0.04 v -2.88070001 c 0,-0.02216 0.01784,-0.04 0.04,-0.04 z" />
  </g>
  <g
     transform="translate(84.448372,6.643214)"
     id="g74">
    <path
       transform="scale(0.004,-0.004)"
       d="M 0,-46 C 0,45 116,136 217,136 280,136 326,101 326,46 326,-41 216,-136 106,-136 39,-136 0,-97 0,-46 Z"
       fill="currentColor"
       id="path73" />
  </g>
  <g
     transform="translate(84.513372,6.643214)"
     id="g75">
    <path
       id="rect74"
       style="fill:currentColor"
       d="m -0.025,0.18619999 h 0.05 c 0.02216,0 0.04,0.01784 0.04,0.04 V 2.9547999 c 0,0.02216 -0.01784,0.04 -0.04,0.04 h -0.05 c -0.02216,0 -0.04,-0.01784 -0.04,-0.04 V 0.22619999 c 0,-0.02216 0.01784,-0.04 0.04,-0.04 z" />
  </g>
  <g
     transform="translate(83.298372,6.643214)"
     id="g76">
    <path
       transform="scale(0.004,-0.004)"
       d="m 27,41 -1,-66 v -11 c 0,-22 1,-44 4,-66 45,38 93,80 93,139 0,33 -14,67 -43,67 C 49,104 28,74 27,41 Z m -42,-179 -12,595 c 8,5 18,8 27,8 9,0 19,-3 27,-8 L 20,112 c 25,21 58,34 91,34 52,0 89,-48 89,-102 0,-80 -86,-117 -147,-169 -15,-13 -24,-38 -45,-38 -13,0 -23,11 -23,25 z"
       fill="currentColor"
       id="path75" />
  </g>
  <g
     transform="translate(88.533972,7.143214)"
     id="g77">
    <path
       transform="scale(0.004,-0.004)"
       d="M 0,-46 C 0,45 116,136 217,136 280,136 326,101 326,46 326,-41 216,-136 106,-136 39,-136 0,-97 0,-46 Z"
       fill="currentColor"
       id="path76" />
  </g>
  <g
     transform="translate(89.773172,6.643214)"
     id="g78">
    <path
       id="rect77"
       style="fill:currentColor"
       d="m -0.025,-3 h 0.05 c 0.02216,0 0.04,0.01784 0.04,0.04 v 3.2338001 c 0,0.02216 -0.01784,0.04 -0.04,0.04 h -0.05 c -0.02216,0 -0.04,-0.01784 -0.04,-0.04 V -2.96 c 0,-0.02216 0.01784,-0.04 0.04,-0.04 z" />
  </g>
  <g
     transform="translate(87.499672,7.143214)"
     id="g79">
    <path
       transform="scale(0.004,-0.004)"
       d="m -7,375 c 8,4 17,7 25,7 8,0 16,-3 24,-7 l -2,-183 106,20 h 3 c 10,0 18,-7 18,-17 l 7,-570 c -8,-4 -17,-7 -25,-7 -8,0 -16,3 -24,7 l 2,183 -106,-20 h -3 c -10,0 -18,7 -18,17 z M 131,112 39,95 l -3,-207 92,17 z"
       fill="currentColor"
       id="path78" />
  </g>
  <g
     transform="translate(92.185172,6.643214)"
     id="g80">
    <path
       transform="scale(0.004,-0.004)"
       d="M 0,-46 C 0,45 116,136 217,136 280,136 326,101 326,46 326,-41 216,-136 106,-136 39,-136 0,-97 0,-46 Z"
       fill="currentColor"
       id="path79" />
  </g>
  <g
     transform="translate(93.424372,6.643214)"
     id="g81">
    <path
       id="rect80"
       style="fill:currentColor"
       d="m -0.025,-3 h 0.05 c 0.02216,0 0.04,0.01784 0.04,0.04 v 2.7338001 c 0,0.02216 -0.01784,0.04 -0.04,0.04 h -0.05 c -0.02216,0 -0.04,-0.01784 -0.04,-0.04 V -2.96 c 0,-0.02216 0.01784,-0.04 0.04,-0.04 z" />
  </g>
  <g
     transform="translate(100.47697,6.643214)"
     id="g82">
    <path
       id="rect81"
       style="fill:currentColor"
       d="m -0.025,-3 h 0.05 c 0.02216,0 0.04,0.01784 0.04,0.04 v 3.2338001 c 0,0.02216 -0.01784,0.04 -0.04,0.04 h -0.05 c -0.02216,0 -0.04,-0.01784 -0.04,-0.04 V -2.96 c 0,-0.02216 0.01784,-0.04 0.04,-0.04 z" />
  </g>
  <g
     transform="translate(95.836472,6.143214)"
     id="g83">
    <path
       transform="scale(0.004,-0.004)"
       d="M 0,-46 C 0,45 116,136 217,136 280,136 326,101 326,46 326,-41 216,-136 106,-136 39,-136 0,-97 0,-46 Z"
       fill="currentColor"
       id="path82" />
  </g>
  <g
     transform="translate(97.075672,6.643214)"
     id="g84">
    <path
       id="rect83"
       style="fill:currentColor"
       d="m -0.025,-3 h 0.05 c 0.02216,0 0.04,0.01784 0.04,0.04 v 2.2338001 c 0,0.02216 -0.01784,0.04 -0.04,0.04 h -0.05 c -0.02216,0 -0.04,-0.01784 -0.04,-0.04 V -2.96 c 0,-0.02216 0.01784,-0.04 0.04,-0.04 z" />
  </g>
  <g
     transform="translate(99.237772,7.143214)"
     id="g85">
    <path
       transform="scale(0.004,-0.004)"
       d="M 0,-46 C 0,45 116,136 217,136 280,136 326,101 326,46 326,-41 216,-136 106,-136 39,-136 0,-97 0,-46 Z"
       fill="currentColor"
       id="path84" />
  </g>
  <g
     transform="translate(40.650072,22.643214)"
     id="g86">
    <path
       id="rect85"
       style="fill:currentColor"
       d="M 0,-2 H 0.19 V 2 H 0 Z" />
  </g>
  <g
     transform="translate(40.160072,22.643214)"
     id="g87">
    <path
       id="rect86"
       style="fill:currentColor"
       d="M 0,-2 H 0.19 V 2 H 0 Z" />
  </g>
  <g
     transform="translate(0.8143722,25.643214)"
     id="g88">
    <path
       id="rect87"
       style="fill:currentColor"
       d="m 19.619199,-0.1 h 1.7563 c 0.0554,0 0.1,0.0446 0.1,0.1 0,0.0554 -0.0446,0.1 -0.1,0.1 h -1.7563 c -0.0554,0 -0.1,-0.0446 -0.1,-0.1 0,-0.0554 0.0446,-0.1 0.1,-0.1 z" />
  </g>
  <g
     transform="translate(0.8143722,25.643214)"
     id="g89">
    <path
       id="rect88"
       style="fill:currentColor"
       d="m 17.114999,-0.1 h 1.7563 c 0.0554,0 0.1,0.0446 0.1,0.1 0,0.0554 -0.0446,0.1 -0.1,0.1 h -1.7563 c -0.0554,0 -0.1,-0.0446 -0.1,-0.1 0,-0.0554 0.0446,-0.1 0.1,-0.1 z" />
  </g>
  <g
     transform="translate(0.8143722,26.643214)"
     id="g90">
    <path
       id="rect89"
       style="fill:currentColor"
       d="m 17.2572,-0.1 h 1.6141 c 0.0554,0 0.1,0.0446 0.1,0.1 0,0.0554 -0.0446,0.1 -0.1,0.1 h -1.6141 c -0.0554,0 -0.1,-0.0446 -0.1,-0.1 0,-0.0554 0.0446,-0.1 0.1,-0.1 z" />
  </g>
  <g
     transform="translate(0.8143722,25.643214)"
     id="g91">
    <path
       id="rect90"
       style="fill:currentColor"
       d="m 14.3276,-0.1 h 1.6053 c 0.0554,0 0.1,0.0446 0.1,0.1 0,0.0554 -0.0446,0.1 -0.1,0.1 h -1.6053 c -0.0554,0 -0.1,-0.0446 -0.1,-0.1 0,-0.0554 0.0446,-0.1 0.1,-0.1 z" />
  </g>
  <g
     transform="translate(0.8143722,24.643214)"
     id="g92">
    <path
       id="line91"
       style="stroke:currentColor;stroke-width:0.1;stroke-linecap:round;stroke-linejoin:round"
       d="M 0.05,0 H 39.9757" />
  </g>
  <g
     transform="translate(0.8143722,23.643214)"
     id="g93">
    <path
       id="line92"
       style="stroke:currentColor;stroke-width:0.1;stroke-linecap:round;stroke-linejoin:round"
       d="M 0.05,0 H 39.9757" />
  </g>
  <g
     transform="translate(0.8143722,22.643214)"
     id="g94">
    <path
       id="line93"
       style="stroke:currentColor;stroke-width:0.1;stroke-linecap:round;stroke-linejoin:round"
       d="M 0.05,0 H 39.9757" />
  </g>
  <g
     transform="translate(0.8143722,21.643214)"
     id="g95">
    <path
       id="line94"
       style="stroke:currentColor;stroke-width:0.1;stroke-linecap:round;stroke-linejoin:round"
       d="M 0.05,0 H 39.9757" />
  </g>
  <g
     transform="translate(0.8143722,20.643214)"
     id="g96">
    <path
       id="line95"
       style="stroke:currentColor;stroke-width:0.1;stroke-linecap:round;stroke-linejoin:round"
       d="M 0.05,0 H 39.9757" />
  </g>
  <g
     transform="translate(30.516472,20.643214)"
     id="g97">
    <path
       id="polygon96"
       style="fill:currentColor;stroke:currentColor;stroke-width:0.08;stroke-linecap:round;stroke-linejoin:round"
       d="m 8.2026,-0.01 v 0.4 L 0.04,0.2 v -0.4 z" />
  </g>
  <g
     transform="translate(30.516472,21.453214)"
     id="g98">
    <path
       id="polygon97"
       style="fill:currentColor;stroke:currentColor;stroke-width:0.08;stroke-linecap:round;stroke-linejoin:round"
       d="m 8.2026,-0.01 v 0.4 L 0.04,0.2 v -0.4 z" />
  </g>
  <g
     transform="translate(1.6143722,23.643214)"
     id="g99">
    <path
       transform="scale(0.004,-0.004)"
       d="m 266,-635 h -6 c -108,0 -195,88 -195,197 0,58 53,103 112,103 54,0 95,-47 95,-103 0,-52 -43,-95 -95,-95 -11,0 -21,2 -31,6 26,-39 68,-65 117,-65 h 4 z m 135,786 c 19,-89 48,-242 60,-354 76,27 112,94 112,163 0,89 -60,179 -172,191 z M 74,28 c 0,-112 98,-247 278,-247 21,0 44,2 68,6 -7,64 -29,203 -63,364 -79,-8 -124,-61 -124,-119 0,-44 25,-91 81,-123 5,-5 7,-10 7,-15 0,-11 -10,-22 -22,-22 -15,0 -126,62 -126,187 0,88 58,174 160,197 -14,58 -29,117 -46,175 C 180,310 74,188 74,28 Z m 283,1166 c 28,0 143,-206 143,-361 0,-143 -86,-255 -180,-364 21,-68 39,-138 56,-207 5,0 10,1 14,1 155,0 255,-129 255,-262 0,-113 -74,-212 -180,-245 3,-35 5,-70 5,-105 0,-19 -1,-39 -2,-58 -7,-119 -88,-225 -202,-228 l 1,43 c 93,2 153,92 159,191 1,18 2,37 2,55 0,31 -1,61 -4,92 -28,-5 -55,-8 -80,-8 -239,0 -342,217 -342,374 0,177 131,306 248,441 -29,96 -52,170 -52,346 0,189 144,295 159,295 z M 247,782 c 0,-55 12,-115 35,-190 83,100 147,202 147,326 0,40 -6,82 -21,127 -49,-24 -161,-97 -161,-263 z"
       fill="currentColor"
       id="path98" />
  </g>
  <g
     transform="translate(-0.0733278,19.554814)"
     id="g100">
    <path
       style="font-size:1.7459px;font-family:'NewComputerModern Math';white-space:pre"
       d="m 0.79787632,-0.29854891 c 0,-0.1431638 -0.10999171,-0.279344 -0.29156531,-0.3160079 0.1431638,-0.0471393 0.24442601,-0.16935231 0.24442601,-0.30727841 0,-0.14316378 -0.15363921,-0.24093418 -0.32124561,-0.24093418 -0.1763359,0 -0.30902431,0.104754 -0.30902431,0.23744238 0,0.0576147 0.0384098,0.0907868 0.0890409,0.0907868 0.0541229,0 0.0890409,-0.0384098 0.0890409,-0.0890409 0,-0.087295 -0.0820573,-0.087295 -0.10824581,-0.087295 0.0541229,-0.085549 0.16935231,-0.1082458 0.23220471,-0.1082458 0.0715819,0 0.1676064,0.03841 0.1676064,0.19554074 0,0.0209508 -0.003492,0.122213 -0.0488852,0.19903261 -0.052377,0.0838032 -0.1117376,0.0890409 -0.1553851,0.0907868 -0.0139672,0.001746 -0.0558688,0.005238 -0.0680901,0.005238 -0.0139672,0.001746 -0.0261885,0.003492 -0.0261885,0.0209508 0,0.0192049 0.0122213,0.0192049 0.0419016,0.0192049 h 0.0768196 c 0.1431638,0 0.2077621,0.1187212 0.2077621,0.2898194 0,0.23744241 -0.1204671,0.28807351 -0.1972867,0.28807351 -0.0750737,0 -0.20601621,-0.0296803 -0.26712271,-0.1326884 0.0611065,0.00873 0.11522941,-0.0296803 0.11522941,-0.0960245 0,-0.0628524 -0.0471393,-0.0977704 -0.0977704,-0.0977704 -0.0419016,0 -0.0977704,0.0244426 -0.0977704,0.10126221 0,0.1588769 0.1623687,0.2741063 0.35267181,0.2741063 0.2129998,0 0.37187671,-0.1588769 0.37187671,-0.33695898 z"
       id="text99"
       aria-label="3" />
  </g>
  <g
     transform="translate(19.329672,22.643214)"
     id="g101">
    <path
       id="polygon100"
       style="fill:currentColor;stroke:currentColor;stroke-width:0.08;stroke-linecap:round;stroke-linejoin:round"
       d="m 8.1026,-1.2 v 0.4 L 0.04,0.2 v -0.4 z" />
  </g>
  <g
     transform="translate(19.329672,23.453214)"
     id="g102">
    <path
       id="polygon101"
       style="fill:currentColor;stroke:currentColor;stroke-width:0.08;stroke-linecap:round;stroke-linejoin:round"
       d="m 8.1026,-1.2 v 0.4 L 0.04,0.2 v -0.4 z" />
  </g>
  <g
     transform="translate(6.6143722,17.143214)"
     id="g103">
    <path
       style="font-size:2.3308px;font-family:'NewComputerModern Math';white-space:pre"
       d="m 1.5173508,-0.42653641 c 0,-0.20277961 -0.1911256,-0.37758961 -0.4498444,-0.40555921 0.2260876,-0.0442852 0.3869128,-0.19345638 0.3869128,-0.36593558 0,-0.2027796 -0.2144336,-0.3939052 -0.51743758,-0.3939052 H 0.0839088 v 0.072255 H 0.139848 c 0.17947161,0 0.18413321,0.025639 0.18413321,0.1095476 v 1.2283316 c 0,0.0839088 -0.004662,0.1095476 -0.18413321,0.1095476 H 0.0839088 V 0 H 0.99758242 C 1.3075788,0 1.5173508,-0.20744121 1.5173508,-0.42653641 Z M 1.2283316,-1.1980312 c 0,0.1491712 -0.1142092,0.34495838 -0.37292798,0.34495838 H 0.51743761 V -1.4264496 c 0,-0.076916 0.004662,-0.093232 0.11420921,-0.093232 h 0.2890192 c 0.22608758,0 0.30766558,0.198118 0.30766558,0.3216504 z m 0.055939,0.76916399 c 0,0.1654868 -0.1212016,0.35661241 -0.36127398,0.35661241 h -0.29135 c -0.10954761,0 -0.11420921,-0.0163156 -0.11420921,-0.093232 v -0.63630842 h 0.43819041 c 0.23074918,0 0.32864278,0.21676441 0.32864278,0.37292801 z"
       id="text102"
       aria-label="B" />
  </g>
  <g
     transform="translate(8.2532722,16.083714)"
     id="g104">
    <path
       style="font-size:1.648px;font-family:'NewComputerModern Math';white-space:pre"
       d="m 0.548784,-0.529008 c 0,-0.121952 -0.09064,-0.229072 -0.225776,-0.229072 -0.092288,0 -0.158208,0.037904 -0.191168,0.069216 v -0.500992 c 0,-0.031312 0,-0.046144 -0.019776,-0.046144 -0.021424,0 -0.021424,0.013184 -0.021424,0.046144 v 1.179968 c 0,0.03296 0,0.046144 0.021424,0.046144 0.01648,0 0.187872,-0.118656 0.278512,-0.215888 0.09064,-0.097232 0.158208,-0.212592 0.158208,-0.349376 z m -0.133488,0 c 0,0.260384 -0.243904,0.46968 -0.283456,0.50264 v -0.538896 c 0,-0.037904 0,-0.072512 0.054384,-0.103824 0.051088,-0.029664 0.1236,-0.029664 0.1236,-0.029664 0.075808,0 0.105472,0.088992 0.105472,0.169744 z"
       id="text103"
       aria-label="♭" />
  </g>
  <g
     transform="translate(8.9019722,17.937814)"
     id="g105">
    <path
       style="font-size:1.648px;font-family:'NewComputerModern Math';white-space:pre"
       d="m 1.189856,-0.412 c 0,-0.018128 -0.014832,-0.03296 -0.03296,-0.03296 H 0.125248 c -0.018128,0 -0.03296,0.014832 -0.03296,0.03296 0,0.018128 0.014832,0.03296 0.03296,0.03296 h 1.031648 c 0.018128,0 0.03296,-0.014832 0.03296,-0.03296 z"
       id="text104"
       aria-label="−" />
  </g>
  <g
     transform="translate(10.199472,17.937814)"
     id="g106">
    <path
       style="font-size:1.648px;font-family:'NewComputerModern Math';white-space:pre"
       d="M 0.79928,-1.061312 H 0.398816 c -0.201056,0 -0.204352,-0.021424 -0.210944,-0.052736 h -0.0412 L 0.092288,-0.77456 h 0.0412 c 0.004944,-0.026368 0.019776,-0.130192 0.0412,-0.149968 0.011536,-0.009888 0.14008,-0.009888 0.161504,-0.009888 h 0.341136 l -0.184576,0.260384 c -0.14832,0.22248 -0.202704,0.451552 -0.202704,0.619648 0,0.01648 0,0.09064 0.075808,0.09064 0.075808,0 0.075808,-0.07416 0.075808,-0.09064 v -0.084048 c 0,-0.09064 0.004944,-0.18128 0.018128,-0.270272 0.006592,-0.037904 0.029664,-0.179632 0.102176,-0.281808 l 0.22248,-0.31312 C 0.79928,-1.023408 0.79928,-1.026704 0.79928,-1.061312 Z"
       id="text105"
       aria-label="7" />
  </g>
  <g
     transform="translate(6.6143722,22.643214)"
     id="g107">
    <path
       transform="scale(0.004,-0.004)"
       d="M 0,-46 C 0,45 116,136 217,136 280,136 326,101 326,46 326,-41 216,-136 106,-136 39,-136 0,-97 0,-46 Z"
       fill="currentColor"
       id="path106" />
  </g>
  <g
     transform="translate(7.8535722,22.643214)"
     id="g108">
    <path
       id="rect107"
       style="fill:currentColor"
       d="m -0.025,-2.7965 h 0.05 c 0.02216,0 0.04,0.01784 0.04,0.04 v 2.5303001 c 0,0.02216 -0.01784,0.04 -0.04,0.04 h -0.05 c -0.02216,0 -0.04,-0.01784 -0.04,-0.04 V -2.7565 c 0,-0.02216 0.01784,-0.04 0.04,-0.04 z" />
  </g>
  <g
     transform="translate(5.4643722,22.643214)"
     id="g109">
    <path
       transform="scale(0.004,-0.004)"
       d="m 27,41 -1,-66 v -11 c 0,-22 1,-44 4,-66 45,38 93,80 93,139 0,33 -14,67 -43,67 C 49,104 28,74 27,41 Z m -42,-179 -12,595 c 8,5 18,8 27,8 9,0 19,-3 27,-8 L 20,112 c 25,21 58,34 91,34 52,0 89,-48 89,-102 0,-80 -86,-117 -147,-169 -15,-13 -24,-38 -45,-38 -13,0 -23,11 -23,25 z"
       fill="currentColor"
       id="path108" />
  </g>
  <g
     transform="translate(8.8685722,24.143214)"
     id="g110">
    <path
       transform="scale(0.004,-0.004)"
       d="M 0,-46 C 0,45 116,136 217,136 280,136 326,101 326,46 326,-41 216,-136 106,-136 39,-136 0,-97 0,-46 Z"
       fill="currentColor"
       id="path109" />
  </g>
  <g
     transform="translate(10.107772,22.643214)"
     id="g111">
    <path
       id="rect110"
       style="fill:currentColor"
       d="m -0.025,-2.3292999 h 0.05 c 0.02216,0 0.04,0.01784 0.04,0.04 v 3.5631 c 0,0.02216 -0.01784,0.04 -0.04,0.04 h -0.05 c -0.02216,0 -0.04,-0.01784 -0.04,-0.04 v -3.5631 c 0,-0.02216 0.01784,-0.04 0.04,-0.04 z" />
  </g>
  <g
     transform="translate(20.659672,28.248214)"
     id="g112">
    <path
       id="line111"
       style="stroke:currentColor;stroke-width:0.2;stroke-linecap:round;stroke-linejoin:round"
       d="M 18.0994,0 V -1" />
  </g>
  <g
     transform="translate(20.659672,28.248214)"
     id="g113">
    <path
       id="line112"
       style="stroke:currentColor;stroke-width:0.2;stroke-linecap:round;stroke-linejoin:round"
       d="M 0,0 V -1" />
  </g>
  <g
     transform="translate(20.659672,28.248214)"
     id="g114">
    <path
       id="line113"
       style="stroke:currentColor;stroke-width:0.2;stroke-linecap:round;stroke-linejoin:round"
       d="M 0,0 H 18.0994" />
  </g>
  <g
     transform="translate(12.042772,25.143214)"
     id="g115">
    <path
       transform="scale(0.004,-0.004)"
       d="M 0,-46 C 0,45 116,136 217,136 280,136 326,101 326,46 326,-41 216,-136 106,-136 39,-136 0,-97 0,-46 Z"
       fill="currentColor"
       id="path114" />
  </g>
  <g
     transform="translate(13.281972,22.643214)"
     id="g116">
    <path
       id="rect115"
       style="fill:currentColor"
       d="m -0.025,-1.6714 h 0.05 c 0.02216,0 0.04,0.01784 0.04,0.04 v 3.9052 c 0,0.02216 -0.01784,0.04 -0.04,0.04 h -0.05 c -0.02216,0 -0.04,-0.01784 -0.04,-0.04 v -3.9052 c 0,-0.02216 0.01784,-0.04 0.04,-0.04 z" />
  </g>
  <g
     transform="translate(10.892772,25.143214)"
     id="g117">
    <path
       transform="scale(0.004,-0.004)"
       d="m 27,41 -1,-66 v -11 c 0,-22 1,-44 4,-66 45,38 93,80 93,139 0,33 -14,67 -43,67 C 49,104 28,74 27,41 Z m -42,-179 -12,595 c 8,5 18,8 27,8 9,0 19,-3 27,-8 L 20,112 c 25,21 58,34 91,34 52,0 89,-48 89,-102 0,-80 -86,-117 -147,-169 -15,-13 -24,-38 -45,-38 -13,0 -23,11 -23,25 z"
       fill="currentColor"
       id="path116" />
  </g>
  <g
     transform="translate(7.7885722,19.833214)"
     id="g118">
    <path
       id="polygon117"
       style="fill:currentColor;stroke:currentColor;stroke-width:0.08;stroke-linecap:round;stroke-linejoin:round"
       d="m 8.6926,1.61 v 0.4 L 0.04,0.2 v -0.4 z" />
  </g>
  <g
     transform="translate(7.7885722,20.643214)"
     id="g119">
    <path
       id="polygon118"
       style="fill:currentColor;stroke:currentColor;stroke-width:0.08;stroke-linecap:round;stroke-linejoin:round"
       d="m 8.6926,1.61 v 0.4 L 0.04,0.2 v -0.4 z" />
  </g>
  <g
     transform="translate(15.216972,26.143214)"
     id="g120">
    <path
       transform="scale(0.004,-0.004)"
       d="M 0,-46 C 0,45 116,136 217,136 280,136 326,101 326,46 326,-41 216,-136 106,-136 39,-136 0,-97 0,-46 Z"
       fill="currentColor"
       id="path119" />
  </g>
  <g
     transform="translate(16.456172,22.643214)"
     id="g121">
    <path
       id="rect120"
       style="fill:currentColor"
       d="m -0.025,-1.0135 h 0.05 c 0.02216,0 0.04,0.01784 0.04,0.04 v 4.2473001 c 0,0.02216 -0.01784,0.04 -0.04,0.04 h -0.05 c -0.02216,0 -0.04,-0.01784 -0.04,-0.04 v -4.24730008 c 0,-0.02216 0.01784,-0.04 0.04,-0.04 z" />
  </g>
  <g
     transform="translate(14.066972,26.143214)"
     id="g122">
    <path
       transform="scale(0.004,-0.004)"
       d="m 27,41 -1,-66 v -11 c 0,-22 1,-44 4,-66 45,38 93,80 93,139 0,33 -14,67 -43,67 C 49,104 28,74 27,41 Z m -42,-179 -12,595 c 8,5 18,8 27,8 9,0 19,-3 27,-8 L 20,112 c 25,21 58,34 91,34 52,0 89,-48 89,-102 0,-80 -86,-117 -147,-169 -15,-13 -24,-38 -45,-38 -13,0 -23,11 -23,25 z"
       fill="currentColor"
       id="path121" />
  </g>
  <g
     transform="translate(18.155472,26.643214)"
     id="g123">
    <path
       transform="scale(0.004,-0.004)"
       d="M 0,-46 C 0,45 116,136 217,136 280,136 326,101 326,46 326,-41 216,-136 106,-136 39,-136 0,-97 0,-46 Z"
       fill="currentColor"
       id="path122" />
  </g>
  <g
     transform="translate(19.394672,22.643214)"
     id="g124">
    <path
       id="rect123"
       style="fill:currentColor"
       d="m -0.025,-0.008 h 0.05 c 0.02216,0 0.04,0.01784 0.04,0.04 v 3.7418 c 0,0.02216 -0.01784,0.04 -0.04,0.04 h -0.05 c -0.02216,0 -0.04,-0.01784 -0.04,-0.04 V 0.032 c 0,-0.02216 0.01784,-0.04 0.04,-0.04 z" />
  </g>
  <g
     transform="translate(17.121172,26.643214)"
     id="g125">
    <path
       transform="scale(0.004,-0.004)"
       d="m -7,375 c 8,4 17,7 25,7 8,0 16,-3 24,-7 l -2,-183 106,20 h 3 c 10,0 18,-7 18,-17 l 7,-570 c -8,-4 -17,-7 -25,-7 -8,0 -16,3 -24,7 l 2,183 -106,-20 h -3 c -10,0 -18,7 -18,17 z M 131,112 39,95 l -3,-207 92,17 z"
       fill="currentColor"
       id="path124" />
  </g>
  <g
     transform="translate(20.659672,26.143214)"
     id="g126">
    <path
       transform="scale(0.004,-0.004)"
       d="M 0,-46 C 0,45 116,136 217,136 280,136 326,101 326,46 326,-41 216,-136 106,-136 39,-136 0,-97 0,-46 Z"
       fill="currentColor"
       id="path125" />
  </g>
  <g
     transform="translate(21.898872,22.643214)"
     id="g127">
    <path
       id="rect126"
       style="fill:currentColor"
       d="m -0.025,-0.31549999 h 0.05 c 0.02216,0 0.04,0.01784 0.04,0.04 V 3.2738001 c 0,0.02216 -0.01784,0.04 -0.04,0.04 h -0.05 c -0.02216,0 -0.04,-0.01784 -0.04,-0.04 v -3.54930009 c 0,-0.02216 0.01784,-0.04 0.04,-0.04 z" />
  </g>
  <g
     transform="translate(23.413872,25.143214)"
     id="g128">
    <path
       transform="scale(0.004,-0.004)"
       d="M 0,-46 C 0,45 116,136 217,136 280,136 326,101 326,46 326,-41 216,-136 106,-136 39,-136 0,-97 0,-46 Z"
       fill="currentColor"
       id="path127" />
  </g>
  <g
     transform="translate(24.653072,22.643214)"
     id="g129">
    <path
       id="rect128"
       style="fill:currentColor"
       d="m -0.025,-0.65380001 h 0.05 c 0.02216,0 0.04,0.01784 0.04,0.04 V 2.2738001 c 0,0.02216 -0.01784,0.04 -0.04,0.04 h -0.05 c -0.02216,0 -0.04,-0.01784 -0.04,-0.04 v -2.88760011 c 0,-0.02216 0.01784,-0.04 0.04,-0.04 z" />
  </g>
  <g
     transform="translate(26.168072,24.143214)"
     id="g130">
    <path
       transform="scale(0.004,-0.004)"
       d="M 0,-46 C 0,45 116,136 217,136 280,136 326,101 326,46 326,-41 216,-136 106,-136 39,-136 0,-97 0,-46 Z"
       fill="currentColor"
       id="path129" />
  </g>
  <g
     transform="translate(27.407272,22.643214)"
     id="g131">
    <path
       id="rect130"
       style="fill:currentColor"
       d="m -0.025,-0.99199998 h 0.05 c 0.02216,0 0.04,0.01784 0.04,0.04 V 1.2738 c 0,0.02216 -0.01784,0.04 -0.04,0.04 h -0.05 c -0.02216,0 -0.04,-0.01784 -0.04,-0.04 v -2.22579998 c 0,-0.02216 0.01784,-0.04 0.04,-0.04 z" />
  </g>
  <g
     transform="translate(29.342272,23.143214)"
     id="g132">
    <path
       transform="scale(0.004,-0.004)"
       d="M 0,-46 C 0,45 116,136 217,136 280,136 326,101 326,46 326,-41 216,-136 106,-136 39,-136 0,-97 0,-46 Z"
       fill="currentColor"
       id="path131" />
  </g>
  <g
     transform="translate(30.581472,22.643214)"
     id="g133">
    <path
       id="rect132"
       style="fill:currentColor"
       d="m -0.025,-1.9985 h 0.05 c 0.02216,0 0.04,0.01784 0.04,0.04 v 2.23229998 c 0,0.02216 -0.01784,0.04 -0.04,0.04 h -0.05 c -0.02216,0 -0.04,-0.01784 -0.04,-0.04 V -1.9585 c 0,-0.02216 0.01784,-0.04 0.04,-0.04 z" />
  </g>
  <g
     transform="translate(28.192272,23.143214)"
     id="g134">
    <path
       transform="scale(0.004,-0.004)"
       d="m 27,41 -1,-66 v -11 c 0,-22 1,-44 4,-66 45,38 93,80 93,139 0,33 -14,67 -43,67 C 49,104 28,74 27,41 Z m -42,-179 -12,595 c 8,5 18,8 27,8 9,0 19,-3 27,-8 L 20,112 c 25,21 58,34 91,34 52,0 89,-48 89,-102 0,-80 -86,-117 -147,-169 -15,-13 -24,-38 -45,-38 -13,0 -23,11 -23,25 z"
       fill="currentColor"
       id="path133" />
  </g>
  <g
     transform="translate(31.596472,24.143214)"
     id="g135">
    <path
       transform="scale(0.004,-0.004)"
       d="M 0,-46 C 0,45 116,136 217,136 280,136 326,101 326,46 326,-41 216,-136 106,-136 39,-136 0,-97 0,-46 Z"
       fill="currentColor"
       id="path134" />
  </g>
  <g
     transform="translate(32.835672,22.643214)"
     id="g136">
    <path
       id="rect135"
       style="fill:currentColor"
       d="m -0.025,-1.9464999 h 0.05 c 0.02216,0 0.04,0.01784 0.04,0.04 V 1.2738 c 0,0.02216 -0.01784,0.04 -0.04,0.04 h -0.05 c -0.02216,0 -0.04,-0.01784 -0.04,-0.04 v -3.1802999 c 0,-0.02216 0.01784,-0.04 0.04,-0.04 z" />
  </g>
  <g
     transform="translate(34.950672,24.143214)"
     id="g137">
    <path
       transform="scale(0.004,-0.004)"
       d="M 0,-46 C 0,45 116,136 217,136 280,136 326,101 326,46 326,-41 216,-136 106,-136 39,-136 0,-97 0,-46 Z"
       fill="currentColor"
       id="path136" />
  </g>
  <g
     transform="translate(36.189872,22.643214)"
     id="g138">
    <path
       id="rect137"
       style="fill:currentColor"
       d="m -0.025,-1.8692 h 0.05 c 0.02216,0 0.04,0.01784 0.04,0.04 v 3.1030001 c 0,0.02216 -0.01784,0.04 -0.04,0.04 h -0.05 c -0.02216,0 -0.04,-0.01784 -0.04,-0.04 V -1.8292 c 0,-0.02216 0.01784,-0.04 0.04,-0.04 z" />
  </g>
  <g
     transform="translate(33.500672,24.143214)"
     id="g139">
    <path
       transform="scale(0.004,-0.004)"
       d="m 0,119 c 0,8 5,15 13,18 l 46,17 v 158 c 0,10 8,19 18,19 10,0 19,-9 19,-19 V 167 l 83,31 v 158 c 0,10 9,19 19,19 10,0 18,-9 18,-19 V 211 l 32,12 c 2,1 5,1 7,1 11,0 20,-9 20,-20 v -60 c 0,-8 -5,-16 -13,-19 L 216,109 V -51 l 32,11 c 2,1 5,1 7,1 11,0 20,-9 20,-20 v -60 c 0,-8 -5,-15 -13,-18 l -46,-17 v -158 c 0,-10 -8,-19 -18,-19 -10,0 -19,9 -19,19 v 145 l -83,-31 v -158 c 0,-10 -9,-19 -19,-19 -10,0 -18,9 -18,19 v 145 l -32,-12 c -2,-1 -5,-1 -7,-1 -11,0 -20,9 -20,20 v 60 c 0,8 5,16 13,19 l 46,16 V 51 L 27,40 C 25,39 22,39 20,39 9,39 0,48 0,59 Z M 179,95 96,65 V -95 l 83,30 z"
       fill="currentColor"
       id="path138" />
  </g>
  <g
     transform="translate(37.454872,17.143214)"
     id="g140">
    <path
       style="font-size:2.3308px;font-family:'NewComputerModern Math';white-space:pre"
       d="m 1.5196816,-0.60134641 h -0.05827 c -0.05827,0.3589432 -0.1118784,0.52909161 -0.51277598,0.52909161 h -0.3099964 c -0.10954761,0 -0.11420921,-0.0163156 -0.11420921,-0.093232 v -0.62232362 h 0.20977201 c 0.2260876,0 0.2517264,0.0745856 0.2517264,0.27270361 h 0.05827 V -1.1327688 h -0.05827 c 0,0.20044878 -0.0256388,0.27270358 -0.2517264,0.27270358 H 0.52443001 V -1.4194572 c 0,-0.076916 0.004662,-0.093232 0.11420921,-0.093232 h 0.3006732 c 0.35661238,0 0.41954398,0.128194 0.45683678,0.4521752 h 0.05827 l -0.065262,-0.52443 H 0.0769164 v 0.072255 h 0.0559392 c 0.17947161,0 0.18413321,0.025639 0.18413321,0.1095476 v 1.2213392 c 0,0.0839088 -0.004662,0.1095476 -0.18413321,0.1095476 H 0.0769164 V 0 H 1.421788 Z"
       id="text139"
       aria-label="E" />
  </g>
  <g
     transform="translate(39.025472,16.083714)"
     id="g141">
    <path
       style="font-size:1.648px;font-family:'NewComputerModern Math';white-space:pre"
       d="m 0.548784,-0.529008 c 0,-0.121952 -0.09064,-0.229072 -0.225776,-0.229072 -0.092288,0 -0.158208,0.037904 -0.191168,0.069216 v -0.500992 c 0,-0.031312 0,-0.046144 -0.019776,-0.046144 -0.021424,0 -0.021424,0.013184 -0.021424,0.046144 v 1.179968 c 0,0.03296 0,0.046144 0.021424,0.046144 0.01648,0 0.187872,-0.118656 0.278512,-0.215888 0.09064,-0.097232 0.158208,-0.212592 0.158208,-0.349376 z m -0.133488,0 c 0,0.260384 -0.243904,0.46968 -0.283456,0.50264 v -0.538896 c 0,-0.037904 0,-0.072512 0.054384,-0.103824 0.051088,-0.029664 0.1236,-0.029664 0.1236,-0.029664 0.075808,0 0.105472,0.088992 0.105472,0.169744 z"
       id="text140"
       aria-label="♭" />
  </g>
  <g
     transform="translate(39.674172,17.937814)"
     id="g142">
    <path
       style="font-size:1.648px;font-family:'NewComputerModern Math';white-space:pre"
       d="M 0.79928,-1.061312 H 0.398816 c -0.201056,0 -0.204352,-0.021424 -0.210944,-0.052736 h -0.0412 L 0.092288,-0.77456 h 0.0412 c 0.004944,-0.026368 0.019776,-0.130192 0.0412,-0.149968 0.011536,-0.009888 0.14008,-0.009888 0.161504,-0.009888 h 0.341136 l -0.184576,0.260384 c -0.14832,0.22248 -0.202704,0.451552 -0.202704,0.619648 0,0.01648 0,0.09064 0.075808,0.09064 0.075808,0 0.075808,-0.07416 0.075808,-0.09064 v -0.084048 c 0,-0.09064 0.004944,-0.18128 0.018128,-0.270272 0.006592,-0.037904 0.029664,-0.179632 0.102176,-0.281808 l 0.22248,-0.31312 C 0.79928,-1.023408 0.79928,-1.026704 0.79928,-1.061312 Z"
       id="text141"
       aria-label="7" />
  </g>
  <g
     transform="translate(37.454872,23.643214)"
     id="g143">
    <path
       transform="scale(0.004,-0.004)"
       d="M 0,-46 C 0,45 116,136 217,136 280,136 326,101 326,46 326,-41 216,-136 106,-136 39,-136 0,-97 0,-46 Z"
       fill="currentColor"
       id="path142" />
  </g>
  <g
     transform="translate(38.694072,22.643214)"
     id="g144">
    <path
       id="rect143"
       style="fill:currentColor"
       d="m -0.025,-1.8115 h 0.05 c 0.02216,0 0.04,0.01784 0.04,0.04 v 2.54529998 c 0,0.02216 -0.01784,0.04 -0.04,0.04 h -0.05 c -0.02216,0 -0.04,-0.01784 -0.04,-0.04 V -1.7715 c 0,-0.02216 0.01784,-0.04 0.04,-0.04 z" />
  </g>
</svg>
