<?xml version="1.0" encoding="UTF-8" standalone="no"?>
<svg
   version="1.2"
   width="136.66406mm"
   height="20.740299mm"
   viewBox="0 0 77.769401 11.802376"
   id="svg92"
   sodipodi:docname="fig_083.svg"
   xmlns:inkscape="http://www.inkscape.org/namespaces/inkscape"
   xmlns:sodipodi="http://sodipodi.sourceforge.net/DTD/sodipodi-0.dtd"
   xmlns:xlink="http://www.w3.org/1999/xlink"
   xmlns="http://www.w3.org/2000/svg"
   xmlns:svg="http://www.w3.org/2000/svg">
  <defs
     id="defs92" />
  <sodipodi:namedview
     id="namedview92"
     pagecolor="#505050"
     bordercolor="#eeeeee"
     borderopacity="1"
     inkscape:showpageshadow="0"
     inkscape:pageopacity="0"
     inkscape:pagecheckerboard="0"
     inkscape:deskcolor="#505050"
     inkscape:document-units="mm" />
  <style
     type="text/css"
     id="style1"><![CDATA[
tspan { white-space: pre; }
]]></style>
  <g
     transform="translate(77.5794,7.150376)"
     id="g1">
    <rect
       x="0"
       y="-2"
       width="0.19"
       height="4"
       ry="0.0000"
       fill="currentColor"
       id="rect1" />
  </g>
  <g
     transform="translate(77.0894,7.150376)"
     id="g2">
    <rect
       x="0"
       y="-2"
       width="0.19"
       height="4"
       ry="0.0000"
       fill="currentColor"
       id="rect2" />
  </g>
  <g
     transform="translate(0,10.150376)"
     id="g3">
    <rect
       x="70.909103"
       y="-0.1"
       width="1.9563"
       height="0.2"
       ry="0.1"
       fill="currentColor"
       id="rect3" />
  </g>
  <g
     transform="translate(0,10.150376)"
     id="g4">
    <rect
       x="50.6987"
       y="-0.1"
       width="1.9563"
       height="0.2"
       ry="0.1"
       fill="currentColor"
       id="rect4" />
  </g>
  <g
     transform="translate(0,10.150376)"
     id="g5">
    <rect
       x="48.1945"
       y="-0.1"
       width="1.9563"
       height="0.2"
       ry="0.1"
       fill="currentColor"
       id="rect5" />
  </g>
  <g
     transform="translate(0,10.150376)"
     id="g6">
    <rect
       x="45.6903"
       y="-0.1"
       width="1.9563"
       height="0.2"
       ry="0.1"
       fill="currentColor"
       id="rect6" />
  </g>
  <g
     transform="translate(0,11.150376)"
     id="g7">
    <rect
       x="45.8414"
       y="-0.1"
       width="1.8053"
       height="0.2"
       ry="0.1"
       fill="currentColor"
       id="rect7" />
  </g>
  <g
     transform="translate(0,10.150376)"
     id="g8">
    <rect
       x="42.667198"
       y="-0.1"
       width="1.8053"
       height="0.2"
       ry="0.1"
       fill="currentColor"
       id="rect8" />
  </g>
  <g
     transform="translate(0,10.150376)"
     id="g9">
    <rect
       x="39.3419"
       y="-0.1"
       width="1.9563"
       height="0.2"
       ry="0.1"
       fill="currentColor"
       id="rect9" />
  </g>
  <g
     transform="translate(0,9.150376)"
     id="g10">
    <line
       stroke-linejoin="round"
       stroke-linecap="round"
       stroke-width="0.1"
       stroke="currentColor"
       x1="0.050000001"
       y1="0"
       x2="77.719299"
       y2="0"
       id="line9" />
  </g>
  <g
     transform="translate(0,8.150376)"
     id="g11">
    <line
       stroke-linejoin="round"
       stroke-linecap="round"
       stroke-width="0.1"
       stroke="currentColor"
       x1="0.050000001"
       y1="0"
       x2="77.719299"
       y2="0"
       id="line10" />
  </g>
  <g
     transform="translate(0,7.150376)"
     id="g12">
    <line
       stroke-linejoin="round"
       stroke-linecap="round"
       stroke-width="0.1"
       stroke="currentColor"
       x1="0.050000001"
       y1="0"
       x2="77.719299"
       y2="0"
       id="line11" />
  </g>
  <g
     transform="translate(0,6.150376)"
     id="g13">
    <line
       stroke-linejoin="round"
       stroke-linecap="round"
       stroke-width="0.1"
       stroke="currentColor"
       x1="0.050000001"
       y1="0"
       x2="77.719299"
       y2="0"
       id="line12" />
  </g>
  <g
     transform="translate(0,5.150376)"
     id="g14">
    <line
       stroke-linejoin="round"
       stroke-linecap="round"
       stroke-width="0.1"
       stroke="currentColor"
       x1="0.050000001"
       y1="0"
       x2="77.719299"
       y2="0"
       id="line13" />
  </g>
  <g
     transform="translate(56.5199,7.150376)"
     id="g15">
    <rect
       x="0"
       y="-2"
       width="0.19"
       height="4"
       ry="0.0000"
       fill="currentColor"
       id="rect14" />
  </g>
  <g
     transform="translate(32.8996,7.150376)"
     id="g16">
    <rect
       x="0"
       y="-2"
       width="0.19"
       height="4"
       ry="0.0000"
       fill="currentColor"
       id="rect15" />
  </g>
  <g
     transform="translate(70.1552,6.150376)"
     id="g17">
    <polygon
       stroke-linejoin="round"
       stroke-linecap="round"
       stroke-width="0.08"
       fill="currentColor"
       stroke="currentColor"
       points="0.04,0.2 0.04,-0.2 2.3442,0.61 2.3442,1.01 "
       id="polygon16" />
  </g>
  <g
     transform="translate(64.8968,5.960376)"
     id="g18">
    <polygon
       stroke-linejoin="round"
       stroke-linecap="round"
       stroke-width="0.08"
       fill="currentColor"
       stroke="currentColor"
       points="0.04,0.2 0.04,-0.2 2.8442,-0.82 2.8442,-0.42 "
       id="polygon17" />
  </g>
  <a
     style="color:inherit"
     xlink:href="textedit:///Users/devonnuri/Documents/typst/241230%20Linear%20Harmony/lilypond/fig_083.ly:7:4:5"
     id="a21"
     transform="translate(-8.5358,-6.690724)">
    <g
       transform="translate(17.1208,8.8411)"
       id="g19">
      <text
         font-family="'Tex Gyre Termes'"
         font-size="2.3308px"
         text-anchor="start"
         fill="currentColor"
         id="text18"><tspan
           id="tspan18">G</tspan></text>
    </g>
    <g
       transform="translate(18.7938,7.7817)"
       id="g20">
      <text
         font-family="'Tex Gyre Termes'"
         font-size="1.648px"
         text-anchor="start"
         fill="currentColor"
         id="text19"><tspan
           id="tspan19">ø</tspan></text>
    </g>
    <g
       transform="translate(19.6133,7.7817)"
       id="g21">
      <text
         font-family="'Tex Gyre Termes'"
         font-size="1.648px"
         text-anchor="start"
         fill="currentColor"
         id="text20"><tspan
           id="tspan20">7</tspan></text>
    </g>
  </a>
  <a
     style="color:inherit"
     xlink:href="textedit:///Users/devonnuri/Documents/typst/241230%20Linear%20Harmony/lilypond/fig_083.ly:10:4:5"
     id="a22"
     transform="translate(-8.5358,-6.690724)">
    <g
       transform="translate(17.1208,13.8411)"
       id="g22">
      <path
         transform="scale(0.004,-0.004)"
         d="m 70,205 c 79,0 46,-98 91,-98 16,0 54,48 61,63 3,6 8,9 14,9 6,0 12,-3 14,-9 L 127,-250 c -8,-7 -17,-10 -27,-10 -10,0 -20,3 -28,10 L 189,76 C 155,64 120,54 84,54 26,54 -1,95 -1,134 c 0,36 24,71 71,71 z"
         fill="currentColor"
         id="path21" />
    </g>
  </a>
  <g
     transform="translate(0.8,8.150376)"
     id="g23">
    <path
       transform="scale(0.004,-0.004)"
       d="m 266,-635 h -6 c -108,0 -195,88 -195,197 0,58 53,103 112,103 54,0 95,-47 95,-103 0,-52 -43,-95 -95,-95 -11,0 -21,2 -31,6 26,-39 68,-65 117,-65 h 4 z m 135,786 c 19,-89 48,-242 60,-354 76,27 112,94 112,163 0,89 -60,179 -172,191 z M 74,28 c 0,-112 98,-247 278,-247 21,0 44,2 68,6 -7,64 -29,203 -63,364 -79,-8 -124,-61 -124,-119 0,-44 25,-91 81,-123 5,-5 7,-10 7,-15 0,-11 -10,-22 -22,-22 -15,0 -126,62 -126,187 0,88 58,174 160,197 -14,58 -29,117 -46,175 C 180,310 74,188 74,28 Z m 283,1166 c 28,0 143,-206 143,-361 0,-143 -86,-255 -180,-364 21,-68 39,-138 56,-207 5,0 10,1 14,1 155,0 255,-129 255,-262 0,-113 -74,-212 -180,-245 3,-35 5,-70 5,-105 0,-19 -1,-39 -2,-58 -7,-119 -88,-225 -202,-228 l 1,43 c 93,2 153,92 159,191 1,18 2,37 2,55 0,31 -1,61 -4,92 -28,-5 -55,-8 -80,-8 -239,0 -342,217 -342,374 0,177 131,306 248,441 -29,96 -52,170 -52,346 0,189 144,295 159,295 z M 247,782 c 0,-55 12,-115 35,-190 83,100 147,202 147,326 0,40 -6,82 -21,127 -49,-24 -161,-97 -161,-263 z"
       fill="currentColor"
       id="path22" />
  </g>
  <g
     transform="translate(4.885,7.150376)"
     id="g24">
    <path
       transform="scale(0.004,-0.004)"
       d="M 433,-89 C 433,-111 383,-263 250,-263 191,-263 0,-244 0,0 0,62 18,262 250,262 366,262 426,156 426,99 426,59 396,27 359,27 c -31,0 -75,25 -75,75 0,38 27,77 72,77 4,0 9,0 14,-1 -28,37 -72,59 -120,59 C 144,237 137,164 137,51 V 0 -51 c 0,-113 7,-187 113,-187 80,0 139,70 158,151 2,7 7,10 12,10 6,0 13,-4 13,-12 z"
       fill="currentColor"
       id="path23" />
  </g>
  <g
     transform="translate(58.7841,5.150376)"
     id="g25">
    <polygon
       stroke-linejoin="round"
       stroke-linecap="round"
       stroke-width="0.08"
       fill="currentColor"
       stroke="currentColor"
       points="0.04,0.2 0.04,-0.2 3.2642,-0.39 3.2642,0.01 "
       id="polygon24" />
  </g>
  <a
     style="color:inherit"
     xlink:href="textedit:///Users/devonnuri/Documents/typst/241230%20Linear%20Harmony/lilypond/fig_083.ly:10:7:8"
     id="a26"
     transform="translate(-8.5358,-6.690724)">
    <g
       transform="translate(19.3208,15.3411)"
       id="g26">
      <path
         transform="scale(0.004,-0.004)"
         d="M 0,-46 C 0,45 116,136 217,136 280,136 326,101 326,46 326,-41 216,-136 106,-136 39,-136 0,-97 0,-46 Z"
         fill="currentColor"
         id="path25" />
    </g>
  </a>
  <g
     transform="translate(12.0242,7.150376)"
     id="g27">
    <rect
       x="-0.064999998"
       y="-1.8161"
       width="0.13"
       height="3.1299"
       ry="0.039999999"
       fill="currentColor"
       id="rect26" />
  </g>
  <g
     transform="translate(52.199,6.960376)"
     id="g28">
    <polygon
       stroke-linejoin="round"
       stroke-linecap="round"
       stroke-width="0.08"
       fill="currentColor"
       stroke="currentColor"
       points="0.04,0.2 0.04,-0.2 2.8442,-0.82 2.8442,-0.42 "
       id="polygon27" />
  </g>
  <a
     style="color:inherit"
     xlink:href="textedit:///Users/devonnuri/Documents/typst/241230%20Linear%20Harmony/lilypond/fig_083.ly:10:11:12"
     id="a29"
     transform="translate(-8.5358,-6.690724)">
    <g
       transform="translate(21.225,14.8411)"
       id="g29">
      <path
         transform="scale(0.004,-0.004)"
         d="M 0,-46 C 0,45 116,136 217,136 280,136 326,101 326,46 326,-41 216,-136 106,-136 39,-136 0,-97 0,-46 Z"
         fill="currentColor"
         id="path28" />
    </g>
  </a>
  <g
     transform="translate(13.9284,7.150376)"
     id="g30">
    <rect
       x="-0.064999998"
       y="-1.9938999"
       width="0.13"
       height="2.8076999"
       ry="0.039999999"
       fill="currentColor"
       id="rect29" />
  </g>
  <g
     transform="translate(47.1906,7.150376)"
     id="g31">
    <polygon
       stroke-linejoin="round"
       stroke-linecap="round"
       stroke-width="0.08"
       fill="currentColor"
       stroke="currentColor"
       points="0.04,0.2 0.04,-0.2 2.5942,-0.39 2.5942,0.01 "
       id="polygon30" />
  </g>
  <a
     style="color:inherit"
     xlink:href="textedit:///Users/devonnuri/Documents/typst/241230%20Linear%20Harmony/lilypond/fig_083.ly:10:13:14"
     id="a32"
     transform="translate(-8.5358,-6.690724)">
    <g
       transform="translate(24.3992,14.3411)"
       id="g32">
      <path
         transform="scale(0.004,-0.004)"
         d="M 0,-46 C 0,45 116,136 217,136 280,136 326,101 326,46 326,-41 216,-136 106,-136 39,-136 0,-97 0,-46 Z"
         fill="currentColor"
         id="path31" />
    </g>
  </a>
  <g
     transform="translate(17.1026,7.150376)"
     id="g33">
    <rect
       x="-0.064999998"
       y="-2.8099999"
       width="0.13"
       height="3.1238"
       ry="0.039999999"
       fill="currentColor"
       id="rect32" />
  </g>
  <g
     transform="translate(14.7134,7.650376)"
     id="g34">
    <path
       transform="scale(0.004,-0.004)"
       d="m 27,41 -1,-66 v -11 c 0,-22 1,-44 4,-66 45,38 93,80 93,139 0,33 -14,67 -43,67 C 49,104 28,74 27,41 Z m -42,-179 -12,595 c 8,5 18,8 27,8 9,0 19,-3 27,-8 L 20,112 c 25,21 58,34 91,34 52,0 89,-48 89,-102 0,-80 -86,-117 -147,-169 -15,-13 -24,-38 -45,-38 -13,0 -23,11 -23,25 z"
       fill="currentColor"
       id="path33" />
  </g>
  <g
     transform="translate(40.8422,6.960376)"
     id="g35">
    <polygon
       stroke-linejoin="round"
       stroke-linecap="round"
       stroke-width="0.08"
       fill="currentColor"
       stroke="currentColor"
       points="0.04,0.2 0.04,-0.2 3.2642,-0.01 3.2642,0.39 "
       id="polygon34" />
  </g>
  <a
     style="color:inherit"
     xlink:href="textedit:///Users/devonnuri/Documents/typst/241230%20Linear%20Harmony/lilypond/fig_083.ly:10:18:19"
     id="a36"
     transform="translate(-8.5358,-6.690724)">
    <g
       transform="translate(27.3377,14.3411)"
       id="g36">
      <path
         transform="scale(0.004,-0.004)"
         d="M 0,-46 C 0,45 116,136 217,136 280,136 326,101 326,46 326,-41 216,-136 106,-136 39,-136 0,-97 0,-46 Z"
         fill="currentColor"
         id="path35" />
    </g>
  </a>
  <g
     transform="translate(20.0411,7.150376)"
     id="g37">
    <rect
       x="-0.064999998"
       y="-2.8099999"
       width="0.13"
       height="3.1238"
       ry="0.039999999"
       fill="currentColor"
       id="rect36" />
  </g>
  <g
     transform="translate(17.7676,7.650376)"
     id="g38">
    <path
       transform="scale(0.004,-0.004)"
       d="m -7,375 c 8,4 17,7 25,7 8,0 16,-3 24,-7 l -2,-183 106,20 h 3 c 10,0 18,-7 18,-17 l 7,-570 c -8,-4 -17,-7 -25,-7 -8,0 -16,3 -24,7 l 2,183 -106,-20 h -3 c -10,0 -18,7 -18,17 z M 131,112 39,95 l -3,-207 92,17 z"
       fill="currentColor"
       id="path37" />
  </g>
  <g
     transform="translate(35.1638,6.150376)"
     id="g39">
    <polygon
       stroke-linejoin="round"
       stroke-linecap="round"
       stroke-width="0.08"
       fill="currentColor"
       stroke="currentColor"
       points="0.04,0.2 0.04,-0.2 3.2642,-0.01 3.2642,0.39 "
       id="polygon38" />
  </g>
  <a
     style="color:inherit"
     xlink:href="textedit:///Users/devonnuri/Documents/typst/241230%20Linear%20Harmony/lilypond/fig_083.ly:10:20:21"
     id="a40"
     transform="translate(-8.5358,-6.690724)">
    <g
       transform="translate(30.5119,13.8411)"
       id="g40">
      <path
         transform="scale(0.004,-0.004)"
         d="M 0,-46 C 0,45 116,136 217,136 280,136 326,101 326,46 326,-41 216,-136 106,-136 39,-136 0,-97 0,-46 Z"
         fill="currentColor"
         id="path39" />
    </g>
  </a>
  <g
     transform="translate(23.2153,7.150376)"
     id="g41">
    <rect
       x="-0.064999998"
       y="-2.9963"
       width="0.13"
       height="2.8101001"
       ry="0.039999999"
       fill="currentColor"
       id="rect40" />
  </g>
  <g
     transform="translate(20.8261,7.150376)"
     id="g42">
    <path
       transform="scale(0.004,-0.004)"
       d="m 27,41 -1,-66 v -11 c 0,-22 1,-44 4,-66 45,38 93,80 93,139 0,33 -14,67 -43,67 C 49,104 28,74 27,41 Z m -42,-179 -12,595 c 8,5 18,8 27,8 9,0 19,-3 27,-8 L 20,112 c 25,21 58,34 91,34 52,0 89,-48 89,-102 0,-80 -86,-117 -147,-169 -15,-13 -24,-38 -45,-38 -13,0 -23,11 -23,25 z"
       fill="currentColor"
       id="path41" />
  </g>
  <g
     transform="translate(28.8287,5.150376)"
     id="g43">
    <polygon
       stroke-linejoin="round"
       stroke-linecap="round"
       stroke-width="0.08"
       fill="currentColor"
       stroke="currentColor"
       points="0.04,0.2 0.04,-0.2 2.5942,-0.01 2.5942,0.39 "
       id="polygon42" />
  </g>
  <a
     style="color:inherit"
     xlink:href="textedit:///Users/devonnuri/Documents/typst/241230%20Linear%20Harmony/lilypond/fig_083.ly:10:24:25"
     id="a44"
     transform="translate(-8.5358,-6.690724)">
    <g
       transform="translate(33.6861,14.3411)"
       id="g44">
      <path
         transform="scale(0.004,-0.004)"
         d="M 0,-46 C 0,45 116,136 217,136 280,136 326,101 326,46 326,-41 216,-136 106,-136 39,-136 0,-97 0,-46 Z"
         fill="currentColor"
         id="path43" />
    </g>
  </a>
  <g
     transform="translate(26.3895,7.150376)"
     id="g45">
    <rect
       x="-0.064999998"
       y="-2.8137"
       width="0.13"
       height="3.1275001"
       ry="0.039999999"
       fill="currentColor"
       id="rect44" />
  </g>
  <g
     transform="translate(24.0003,7.650376)"
     id="g46">
    <path
       transform="scale(0.004,-0.004)"
       d="m 27,41 -1,-66 v -11 c 0,-22 1,-44 4,-66 45,38 93,80 93,139 0,33 -14,67 -43,67 C 49,104 28,74 27,41 Z m -42,-179 -12,595 c 8,5 18,8 27,8 9,0 19,-3 27,-8 L 20,112 c 25,21 58,34 91,34 52,0 89,-48 89,-102 0,-80 -86,-117 -147,-169 -15,-13 -24,-38 -45,-38 -13,0 -23,11 -23,25 z"
       fill="currentColor"
       id="path45" />
  </g>
  <g
     transform="translate(23.1503,4.150376)"
     id="g47">
    <polygon
       stroke-linejoin="round"
       stroke-linecap="round"
       stroke-width="0.08"
       fill="currentColor"
       stroke="currentColor"
       points="0.04,0.2 0.04,-0.2 3.2642,-0.01 3.2642,0.39 "
       id="polygon46" />
  </g>
  <a
     style="color:inherit"
     xlink:href="textedit:///Users/devonnuri/Documents/typst/241230%20Linear%20Harmony/lilypond/fig_083.ly:10:28:29"
     id="a48"
     transform="translate(-8.5358,-6.690724)">
    <g
       transform="translate(36.1903,14.8411)"
       id="g48">
      <path
         transform="scale(0.004,-0.004)"
         d="M 0,-46 C 0,45 116,136 217,136 280,136 326,101 326,46 326,-41 216,-136 106,-136 39,-136 0,-97 0,-46 Z"
         fill="currentColor"
         id="path47" />
    </g>
  </a>
  <g
     transform="translate(28.8937,7.150376)"
     id="g49">
    <rect
       x="-0.064999998"
       y="-1.9953001"
       width="0.13"
       height="2.8090999"
       ry="0.039999999"
       fill="currentColor"
       id="rect48" />
  </g>
  <g
     transform="translate(17.0376,4.340376)"
     id="g50">
    <polygon
       stroke-linejoin="round"
       stroke-linecap="round"
       stroke-width="0.08"
       fill="currentColor"
       stroke="currentColor"
       points="0.04,0.2 0.04,-0.2 3.0285,-0.2 3.0285,0.2 "
       id="polygon49" />
  </g>
  <a
     style="color:inherit"
     xlink:href="textedit:///Users/devonnuri/Documents/typst/241230%20Linear%20Harmony/lilypond/fig_083.ly:10:30:31"
     id="a51"
     transform="translate(-8.5358,-6.690724)">
    <g
       transform="translate(38.6945,15.3411)"
       id="g51">
      <path
         transform="scale(0.004,-0.004)"
         d="M 0,-46 C 0,45 116,136 217,136 280,136 326,101 326,46 326,-41 216,-136 106,-136 39,-136 0,-97 0,-46 Z"
         fill="currentColor"
         id="path50" />
    </g>
  </a>
  <g
     transform="translate(31.3979,7.150376)"
     id="g52">
    <rect
       x="-0.064999998"
       y="-1.8147"
       width="0.13"
       height="3.1285"
       ry="0.039999999"
       fill="currentColor"
       id="rect51" />
  </g>
  <g
     transform="translate(11.9592,5.340376)"
     id="g53">
    <polygon
       stroke-linejoin="round"
       stroke-linecap="round"
       stroke-width="0.08"
       fill="currentColor"
       stroke="currentColor"
       points="0.04,0.2 0.04,-0.2 1.9942,-0.39 1.9942,0.01 "
       id="polygon52" />
  </g>
  <g
     transform="translate(11.9592,6.150376)"
     id="g54">
    <polygon
       stroke-linejoin="round"
       stroke-linecap="round"
       stroke-width="0.08"
       fill="currentColor"
       stroke="currentColor"
       points="0.04,0.2 0.04,-0.2 1.9942,-0.39 1.9942,0.01 "
       id="polygon53" />
  </g>
  <a
     style="color:inherit"
     xlink:href="textedit:///Users/devonnuri/Documents/typst/241230%20Linear%20Harmony/lilypond/fig_083.ly:7:13:14"
     id="a56"
     transform="translate(-8.5358,-6.690724)">
    <g
       transform="translate(42.5254,8.8411)"
       id="g55">
      <text
         font-family="'Tex Gyre Termes'"
         font-size="2.3308px"
         text-anchor="start"
         fill="currentColor"
         id="text54"><tspan
           id="tspan54">C</tspan></text>
    </g>
    <g
       transform="translate(44.096,7.7817)"
       id="g56">
      <text
         font-family="'Tex Gyre Termes'"
         font-size="1.648px"
         text-anchor="start"
         fill="currentColor"
         id="text55"><tspan
           id="tspan55">7</tspan></text>
    </g>
  </a>
  <a
     style="color:inherit"
     xlink:href="textedit:///Users/devonnuri/Documents/typst/241230%20Linear%20Harmony/lilypond/fig_083.ly:10:32:33"
     id="a57"
     transform="translate(-8.5358,-6.690724)">
    <g
       transform="translate(42.5254,15.8411)"
       id="g57">
      <path
         transform="scale(0.004,-0.004)"
         d="M 0,-46 C 0,45 116,136 217,136 280,136 326,101 326,46 326,-41 216,-136 106,-136 39,-136 0,-97 0,-46 Z"
         fill="currentColor"
         id="path56" />
    </g>
  </a>
  <g
     transform="translate(35.2288,7.150376)"
     id="g58">
    <rect
       x="-0.064999998"
       y="-0.99629998"
       width="0.13"
       height="2.8101001"
       ry="0.039999999"
       fill="currentColor"
       id="rect57" />
  </g>
  <a
     style="color:inherit"
     xlink:href="textedit:///Users/devonnuri/Documents/typst/241230%20Linear%20Harmony/lilypond/fig_083.ly:10:34:35"
     id="a59"
     transform="translate(-8.5358,-6.690724)">
    <g
       transform="translate(45.6996,16.3411)"
       id="g59">
      <path
         transform="scale(0.004,-0.004)"
         d="M 0,-46 C 0,45 116,136 217,136 280,136 326,101 326,46 326,-41 216,-136 106,-136 39,-136 0,-97 0,-46 Z"
         fill="currentColor"
         id="path58" />
    </g>
  </a>
  <g
     transform="translate(38.403,7.150376)"
     id="g60">
    <rect
       x="-0.064999998"
       y="-0.81370002"
       width="0.13"
       height="3.1275001"
       ry="0.039999999"
       fill="currentColor"
       id="rect59" />
  </g>
  <g
     transform="translate(36.0138,9.650376)"
     id="g61">
    <path
       transform="scale(0.004,-0.004)"
       d="m 27,41 -1,-66 v -11 c 0,-22 1,-44 4,-66 45,38 93,80 93,139 0,33 -14,67 -43,67 C 49,104 28,74 27,41 Z m -42,-179 -12,595 c 8,5 18,8 27,8 9,0 19,-3 27,-8 L 20,112 c 25,21 58,34 91,34 52,0 89,-48 89,-102 0,-80 -86,-117 -147,-169 -15,-13 -24,-38 -45,-38 -13,0 -23,11 -23,25 z"
       fill="currentColor"
       id="path60" />
  </g>
  <a
     style="color:inherit"
     xlink:href="textedit:///Users/devonnuri/Documents/typst/241230%20Linear%20Harmony/lilypond/fig_083.ly:10:38:39"
     id="a62"
     transform="translate(-8.5358,-6.690724)">
    <g
       transform="translate(48.2038,16.8411)"
       id="g62">
      <path
         transform="scale(0.004,-0.004)"
         d="M 0,-46 C 0,45 116,136 217,136 280,136 326,101 326,46 326,-41 216,-136 106,-136 39,-136 0,-97 0,-46 Z"
         fill="currentColor"
         id="path61" />
    </g>
  </a>
  <g
     transform="translate(40.9072,7.150376)"
     id="g63">
    <rect
       x="-0.064999998"
       y="-0.18629999"
       width="0.13"
       height="3.0000999"
       ry="0.039999999"
       fill="currentColor"
       id="rect62" />
  </g>
  <a
     style="color:inherit"
     xlink:href="textedit:///Users/devonnuri/Documents/typst/241230%20Linear%20Harmony/lilypond/fig_083.ly:10:40:41"
     id="a64"
     transform="translate(-8.5358,-6.690724)">
    <g
       transform="translate(51.378,17.3411)"
       id="g64">
      <path
         transform="scale(0.004,-0.004)"
         d="M 0,-46 C 0,45 116,136 217,136 280,136 326,101 326,46 326,-41 216,-136 106,-136 39,-136 0,-97 0,-46 Z"
         fill="currentColor"
         id="path63" />
    </g>
  </a>
  <g
     transform="translate(44.0814,7.150376)"
     id="g65">
    <rect
       x="-0.064999998"
       y="-0.0037"
       width="0.13"
       height="3.3175001"
       ry="0.039999999"
       fill="currentColor"
       id="rect64" />
  </g>
  <g
     transform="translate(41.6922,10.650376)"
     id="g66">
    <path
       transform="scale(0.004,-0.004)"
       d="m 27,41 -1,-66 v -11 c 0,-22 1,-44 4,-66 45,38 93,80 93,139 0,33 -14,67 -43,67 C 49,104 28,74 27,41 Z m -42,-179 -12,595 c 8,5 18,8 27,8 9,0 19,-3 27,-8 L 20,112 c 25,21 58,34 91,34 52,0 89,-48 89,-102 0,-80 -86,-117 -147,-169 -15,-13 -24,-38 -45,-38 -13,0 -23,11 -23,25 z"
       fill="currentColor"
       id="path65" />
  </g>
  <a
     style="color:inherit"
     xlink:href="textedit:///Users/devonnuri/Documents/typst/241230%20Linear%20Harmony/lilypond/fig_083.ly:10:44:45"
     id="a67"
     transform="translate(-8.5358,-6.690724)">
    <g
       transform="translate(54.5522,17.8411)"
       id="g67">
      <path
         transform="scale(0.004,-0.004)"
         d="M 0,-46 C 0,45 116,136 217,136 280,136 326,101 326,46 326,-41 216,-136 106,-136 39,-136 0,-97 0,-46 Z"
         fill="currentColor"
         id="path66" />
    </g>
  </a>
  <g
     transform="translate(47.2556,7.150376)"
     id="g68">
    <rect
       x="-0.064999998"
       y="-0.0046999999"
       width="0.13"
       height="3.8185"
       ry="0.039999999"
       fill="currentColor"
       id="rect67" />
  </g>
  <g
     transform="translate(44.8664,11.150376)"
     id="g69">
    <path
       transform="scale(0.004,-0.004)"
       d="m 27,41 -1,-66 v -11 c 0,-22 1,-44 4,-66 45,38 93,80 93,139 0,33 -14,67 -43,67 C 49,104 28,74 27,41 Z m -42,-179 -12,595 c 8,5 18,8 27,8 9,0 19,-3 27,-8 L 20,112 c 25,21 58,34 91,34 52,0 89,-48 89,-102 0,-80 -86,-117 -147,-169 -15,-13 -24,-38 -45,-38 -13,0 -23,11 -23,25 z"
       fill="currentColor"
       id="path68" />
  </g>
  <a
     style="color:inherit"
     xlink:href="textedit:///Users/devonnuri/Documents/typst/241230%20Linear%20Harmony/lilypond/fig_083.ly:10:48:49"
     id="a70"
     transform="translate(-8.5358,-6.690724)">
    <g
       transform="translate(57.0564,17.3411)"
       id="g70">
      <path
         transform="scale(0.004,-0.004)"
         d="M 0,-46 C 0,45 116,136 217,136 280,136 326,101 326,46 326,-41 216,-136 106,-136 39,-136 0,-97 0,-46 Z"
         fill="currentColor"
         id="path69" />
    </g>
  </a>
  <g
     transform="translate(49.7598,7.150376)"
     id="g71">
    <rect
       x="-0.064999998"
       y="-0.18529999"
       width="0.13"
       height="3.4991"
       ry="0.039999999"
       fill="currentColor"
       id="rect70" />
  </g>
  <a
     style="color:inherit"
     xlink:href="textedit:///Users/devonnuri/Documents/typst/241230%20Linear%20Harmony/lilypond/fig_083.ly:10:52:53"
     id="a72"
     transform="translate(-8.5358,-6.690724)">
    <g
       transform="translate(59.5606,16.8411)"
       id="g72">
      <path
         transform="scale(0.004,-0.004)"
         d="M 0,-46 C 0,45 116,136 217,136 280,136 326,101 326,46 326,-41 216,-136 106,-136 39,-136 0,-97 0,-46 Z"
         fill="currentColor"
         id="path71" />
    </g>
  </a>
  <g
     transform="translate(52.264,7.150376)"
     id="g73">
    <rect
       x="-0.064999998"
       y="-0.204"
       width="0.13"
       height="3.0178001"
       ry="0.039999999"
       fill="currentColor"
       id="rect72" />
  </g>
  <a
     style="color:inherit"
     xlink:href="textedit:///Users/devonnuri/Documents/typst/241230%20Linear%20Harmony/lilypond/fig_083.ly:10:54:55"
     id="a74"
     transform="translate(-8.5358,-6.690724)">
    <g
       transform="translate(62.3148,15.8411)"
       id="g74">
      <path
         transform="scale(0.004,-0.004)"
         d="M 0,-46 C 0,45 116,136 217,136 280,136 326,101 326,46 326,-41 216,-136 106,-136 39,-136 0,-97 0,-46 Z"
         fill="currentColor"
         id="path73" />
    </g>
  </a>
  <g
     transform="translate(55.0182,7.150376)"
     id="g75">
    <rect
       x="-0.064999998"
       y="-0.796"
       width="0.13"
       height="2.6098001"
       ry="0.039999999"
       fill="currentColor"
       id="rect74" />
  </g>
  <a
     style="color:inherit"
     xlink:href="textedit:///Users/devonnuri/Documents/typst/241230%20Linear%20Harmony/lilypond/fig_083.ly:7:17:18"
     id="a77"
     transform="translate(-8.5358,-6.690724)">
    <g
       transform="translate(66.1457,8.8411)"
       id="g76">
      <text
         font-family="'Tex Gyre Termes'"
         font-size="2.3308px"
         text-anchor="start"
         fill="currentColor"
         id="text75"><tspan
           id="tspan75">F</tspan></text>
    </g>
    <g
       transform="translate(67.4431,8.8411)"
       id="g77">
      <text
         font-family="'Tex Gyre Termes'"
         font-size="2.3308px"
         text-anchor="start"
         fill="currentColor"
         id="text76"><tspan
           id="tspan76">m</tspan></text>
    </g>
  </a>
  <a
     style="color:inherit"
     xlink:href="textedit:///Users/devonnuri/Documents/typst/241230%20Linear%20Harmony/lilypond/fig_083.ly:10:56:57"
     id="a78"
     transform="translate(-8.5358,-6.690724)">
    <g
       transform="translate(66.1457,14.8411)"
       id="g78">
      <path
         transform="scale(0.004,-0.004)"
         d="M 0,-46 C 0,45 116,136 217,136 280,136 326,101 326,46 326,-41 216,-136 106,-136 39,-136 0,-97 0,-46 Z"
         fill="currentColor"
         id="path77" />
    </g>
  </a>
  <g
     transform="translate(58.8491,7.150376)"
     id="g79">
    <rect
       x="-0.064999998"
       y="-2.0037"
       width="0.13"
       height="2.8175001"
       ry="0.039999999"
       fill="currentColor"
       id="rect78" />
  </g>
  <a
     style="color:inherit"
     xlink:href="textedit:///Users/devonnuri/Documents/typst/241230%20Linear%20Harmony/lilypond/fig_083.ly:10:58:59"
     id="a80"
     transform="translate(-8.5358,-6.690724)">
    <g
       transform="translate(69.3199,14.3411)"
       id="g80">
      <path
         transform="scale(0.004,-0.004)"
         d="M 0,-46 C 0,45 116,136 217,136 280,136 326,101 326,46 326,-41 216,-136 106,-136 39,-136 0,-97 0,-46 Z"
         fill="currentColor"
         id="path79" />
    </g>
  </a>
  <g
     transform="translate(62.0233,7.150376)"
     id="g81">
    <rect
       x="-0.064999998"
       y="-2.1863"
       width="0.13"
       height="2.5000999"
       ry="0.039999999"
       fill="currentColor"
       id="rect80" />
  </g>
  <g
     transform="translate(59.6341,7.650376)"
     id="g82">
    <path
       transform="scale(0.004,-0.004)"
       d="m 27,41 -1,-66 v -11 c 0,-22 1,-44 4,-66 45,38 93,80 93,139 0,33 -14,67 -43,67 C 49,104 28,74 27,41 Z m -42,-179 -12,595 c 8,5 18,8 27,8 9,0 19,-3 27,-8 L 20,112 c 25,21 58,34 91,34 52,0 89,-48 89,-102 0,-80 -86,-117 -147,-169 -15,-13 -24,-38 -45,-38 -13,0 -23,11 -23,25 z"
       fill="currentColor"
       id="path81" />
  </g>
  <a
     style="color:inherit"
     xlink:href="textedit:///Users/devonnuri/Documents/typst/241230%20Linear%20Harmony/lilypond/fig_083.ly:10:62:63"
     id="a83"
     transform="translate(-8.5358,-6.690724)">
    <g
       transform="translate(72.2584,15.8411)"
       id="g83">
      <path
         transform="scale(0.004,-0.004)"
         d="M 0,-46 C 0,45 116,136 217,136 280,136 326,101 326,46 326,-41 216,-136 106,-136 39,-136 0,-97 0,-46 Z"
         fill="currentColor"
         id="path82" />
    </g>
  </a>
  <g
     transform="translate(64.9618,7.150376)"
     id="g84">
    <rect
       x="-0.064999998"
       y="-1.204"
       width="0.13"
       height="3.0178001"
       ry="0.039999999"
       fill="currentColor"
       id="rect83" />
  </g>
  <g
     transform="translate(62.6883,9.150376)"
     id="g85">
    <path
       transform="scale(0.004,-0.004)"
       d="m -7,375 c 8,4 17,7 25,7 8,0 16,-3 24,-7 l -2,-183 106,20 h 3 c 10,0 18,-7 18,-17 l 7,-570 c -8,-4 -17,-7 -25,-7 -8,0 -16,3 -24,7 l 2,183 -106,-20 h -3 c -10,0 -18,7 -18,17 z M 131,112 39,95 l -3,-207 92,17 z"
       fill="currentColor"
       id="path84" />
  </g>
  <a
     style="color:inherit"
     xlink:href="textedit:///Users/devonnuri/Documents/typst/241230%20Linear%20Harmony/lilypond/fig_083.ly:10:65:66"
     id="a86"
     transform="translate(-8.5358,-6.690724)">
    <g
       transform="translate(75.0126,14.8411)"
       id="g86">
      <path
         transform="scale(0.004,-0.004)"
         d="M 0,-46 C 0,45 116,136 217,136 280,136 326,101 326,46 326,-41 216,-136 106,-136 39,-136 0,-97 0,-46 Z"
         fill="currentColor"
         id="path85" />
    </g>
  </a>
  <g
     transform="translate(67.716,7.150376)"
     id="g87">
    <rect
       x="-0.064999998"
       y="-1.796"
       width="0.13"
       height="2.6098001"
       ry="0.039999999"
       fill="currentColor"
       id="rect86" />
  </g>
  <a
     style="color:inherit"
     xlink:href="textedit:///Users/devonnuri/Documents/typst/241230%20Linear%20Harmony/lilypond/fig_083.ly:10:67:68"
     id="a88"
     transform="translate(-8.5358,-6.690724)">
    <g
       transform="translate(77.5168,15.3411)"
       id="g88">
      <path
         transform="scale(0.004,-0.004)"
         d="M 0,-46 C 0,45 116,136 217,136 280,136 326,101 326,46 326,-41 216,-136 106,-136 39,-136 0,-97 0,-46 Z"
         fill="currentColor"
         id="path87" />
    </g>
  </a>
  <g
     transform="translate(70.2202,7.150376)"
     id="g89">
    <rect
       x="-0.064999998"
       y="-0.97790003"
       width="0.13"
       height="2.2916999"
       ry="0.039999999"
       fill="currentColor"
       id="rect88" />
  </g>
  <a
     style="color:inherit"
     xlink:href="textedit:///Users/devonnuri/Documents/typst/241230%20Linear%20Harmony/lilypond/fig_083.ly:10:69:70"
     id="a90"
     transform="translate(-8.5358,-6.690724)">
    <g
       transform="translate(79.771,16.8411)"
       id="g90">
      <path
         transform="scale(0.004,-0.004)"
         d="M 0,-46 C 0,45 116,136 217,136 280,136 326,101 326,46 326,-41 216,-136 106,-136 39,-136 0,-97 0,-46 Z"
         fill="currentColor"
         id="path89" />
    </g>
  </a>
  <g
     transform="translate(72.4744,7.150376)"
     id="g91">
    <rect
       x="-0.064999998"
       y="-0.2121"
       width="0.13"
       height="3.0258999"
       ry="0.039999999"
       fill="currentColor"
       id="rect90" />
  </g>
  <a
     style="color:inherit"
     xlink:href="textedit:///Users/devonnuri/Documents/typst/241230%20Linear%20Harmony/lilypond/fig_083.ly:10:71:72"
     id="a92"
     transform="translate(-8.5358,-6.690724)">
    <g
       transform="translate(82.2752,13.8411)"
       id="g92">
      <path
         transform="scale(0.004,-0.004)"
         d="m -6,78 c 0,59 124,83 124,182 0,24 -8,49 -25,69 l -35,42 c -3,3 -4,7 -4,10 0,9 9,15 17,15 4,0 8,-1 11,-5 L 233,211 c 7,-9 10,-17 10,-25 0,-59 -124,-83 -124,-182 0,-24 7,-49 24,-69 l 84,-99 c 3,-3 4,-7 4,-10 0,-9 -8,-16 -16,-16 -8,0 -45,44 -109,44 -16,0 -53,0 -53,-67 0,-62 30,-97 30,-100 0,-4 -4,-7 -8,-7 -13,0 -98,130 -98,204 0,41 27,42 40,42 33,0 78,-13 119,-31 L 4,53 C -3,62 -6,70 -6,78 Z"
         fill="currentColor"
         id="path91" />
    </g>
  </a>
</svg>
