<?xml version="1.0" encoding="UTF-8" standalone="no"?>
<svg
   version="1.2"
   width="181.40648mm"
   height="48.626587mm"
   viewBox="0 0 103.23031 27.671213"
   id="svg158"
   sodipodi:docname="fig_315.svg"
   xmlns:inkscape="http://www.inkscape.org/namespaces/inkscape"
   xmlns:sodipodi="http://sodipodi.sourceforge.net/DTD/sodipodi-0.dtd"
   xmlns="http://www.w3.org/2000/svg"
   xmlns:svg="http://www.w3.org/2000/svg">
  <defs
     id="defs158" />
  <sodipodi:namedview
     id="namedview158"
     pagecolor="#505050"
     bordercolor="#eeeeee"
     borderopacity="1"
     inkscape:showpageshadow="0"
     inkscape:pageopacity="0"
     inkscape:pagecheckerboard="0"
     inkscape:deskcolor="#505050"
     inkscape:document-units="mm" />
  <style
     type="text/css"
     id="style1"><![CDATA[
tspan { white-space: pre; }
]]></style>
  <g
     transform="translate(103.04031,6.643214)"
     id="g1">
    <path
       id="rect1"
       style="fill:currentColor"
       d="M 0,-2 H 0.19 V 2 H 0 Z" />
  </g>
  <g
     transform="translate(0.800405,8.643214)"
     id="g2">
    <path
       id="line1"
       style="stroke:currentColor;stroke-width:0.1;stroke-linecap:round;stroke-linejoin:round"
       d="M 0.05,0 H 102.3799" />
  </g>
  <g
     transform="translate(0.800405,7.643214)"
     id="g3">
    <path
       id="line2"
       style="stroke:currentColor;stroke-width:0.1;stroke-linecap:round;stroke-linejoin:round"
       d="M 0.05,0 H 102.3799" />
  </g>
  <g
     transform="translate(0.800405,6.643214)"
     id="g4">
    <path
       id="line3"
       style="stroke:currentColor;stroke-width:0.1;stroke-linecap:round;stroke-linejoin:round"
       d="M 0.05,0 H 102.3799" />
  </g>
  <g
     transform="translate(0.800405,5.643214)"
     id="g5">
    <path
       id="line4"
       style="stroke:currentColor;stroke-width:0.1;stroke-linecap:round;stroke-linejoin:round"
       d="M 0.05,0 H 102.3799" />
  </g>
  <g
     transform="translate(0.800405,4.643214)"
     id="g6">
    <path
       id="line5"
       style="stroke:currentColor;stroke-width:0.1;stroke-linecap:round;stroke-linejoin:round"
       d="M 0.05,0 H 102.3799" />
  </g>
  <g
     transform="translate(89.025005,6.643214)"
     id="g7">
    <path
       id="rect6"
       style="fill:currentColor"
       d="M 0,-2 H 0.19 V 2 H 0 Z" />
  </g>
  <g
     transform="translate(56.756805,6.643214)"
     id="g8">
    <path
       id="rect7"
       style="fill:currentColor"
       d="M 0,-2 H 0.19 V 2 H 0 Z" />
  </g>
  <g
     transform="translate(42.741505,6.643214)"
     id="g9">
    <path
       id="rect8"
       style="fill:currentColor"
       d="M 0,-2 H 0.19 V 2 H 0 Z" />
  </g>
  <g
     transform="translate(75.225005,3.643214)"
     id="g10">
    <path
       id="polygon9"
       style="fill:currentColor;stroke:currentColor;stroke-width:0.08;stroke-linecap:round;stroke-linejoin:round"
       d="m 3.7744,-0.01 v 0.4 L 0.04,0.2 v -0.4 z" />
  </g>
  <g
     transform="translate(12.595405,1.643214)"
     id="g11">
    <path
       style="font-size:2.3308px;font-family:'NewComputerModern Math';white-space:pre"
       d="m 1.6478756,-0.78314882 c 0,-0.44285198 -0.314658,-0.80878758 -0.71322478,-0.80878758 H 0.081578 v 0.072255 h 0.0559392 c 0.17947161,0 0.18413321,0.025639 0.18413321,0.1095476 v 1.2283316 c 0,0.0839088 -0.004662,0.1095476 -0.18413321,0.1095476 H 0.081578 V 0 H 0.93465082 C 1.3262252,0 1.6478756,-0.34495841 1.6478756,-0.78314882 Z m -0.23308,0 c 0,0.25871881 -0.044285,0.39856681 -0.128194,0.51277601 -0.046616,0.0629316 -0.1794716,0.19811801 -0.41488238,0.19811801 h -0.2354108 c -0.10954761,0 -0.11420921,-0.0163156 -0.11420921,-0.093232 v -1.2609628 c 0,-0.076916 0.004662,-0.093232 0.11420921,-0.093232 h 0.23308 c 0.14450958,0 0.30533478,0.051278 0.42420558,0.2167644 0.1002244,0.1375172 0.1212016,0.33796598 0.1212016,0.51976838 z"
       id="text10"
       aria-label="D" />
  </g>
  <g
     transform="translate(14.370905,2.437814)"
     id="g12">
    <path
       style="font-size:1.648px;font-family:'NewComputerModern Math';white-space:pre"
       d="m 0.764672,-0.351024 c 0,-0.161504 -0.088992,-0.27192 -0.151616,-0.318064 L 0.723472,-0.860256 0.69216,-0.880032 0.583392,-0.688864 C 0.545488,-0.713584 0.482864,-0.738304 0.412,-0.738304 c -0.196112,0 -0.35432,0.174688 -0.35432,0.38728 0,0.13184 0.06592,0.242256 0.154912,0.30488 L 0.110416,0.13184 0.09888,0.14832 0.130192,0.168096 0.242256,-0.026368 c 0.037904,0.021424 0.09888,0.044496 0.168096,0.044496 0.196112,0 0.35432,-0.1648 0.35432,-0.369152 z M 0.557024,-0.646016 0.240608,-0.097232 c -0.060976,-0.069216 -0.069216,-0.163152 -0.069216,-0.25544 0,-0.069216 0.003296,-0.161504 0.047792,-0.235664 0.04944,-0.085696 0.13184,-0.113712 0.191168,-0.113712 0.06592,0 0.117008,0.029664 0.146672,0.056032 z m 0.093936,0.293344 c 0,0.054384 0,0.153264 -0.047792,0.229072 -0.047792,0.075808 -0.126896,0.105472 -0.191168,0.105472 -0.0412,0 -0.097232,-0.011536 -0.143376,-0.051088 l 0.314768,-0.547136 c 0.064272,0.075808 0.067568,0.196112 0.067568,0.26368 z"
       id="text11"
       aria-label="ø" />
  </g>
  <g
     transform="translate(15.190305,2.437814)"
     id="g13">
    <path
       style="font-size:1.648px;font-family:'NewComputerModern Math';white-space:pre"
       d="M 0.79928,-1.061312 H 0.398816 c -0.201056,0 -0.204352,-0.021424 -0.210944,-0.052736 h -0.0412 L 0.092288,-0.77456 h 0.0412 c 0.004944,-0.026368 0.019776,-0.130192 0.0412,-0.149968 0.011536,-0.009888 0.14008,-0.009888 0.161504,-0.009888 h 0.341136 l -0.184576,0.260384 c -0.14832,0.22248 -0.202704,0.451552 -0.202704,0.619648 0,0.01648 0,0.09064 0.075808,0.09064 0.075808,0 0.075808,-0.07416 0.075808,-0.09064 v -0.084048 c 0,-0.09064 0.004944,-0.18128 0.018128,-0.270272 0.006592,-0.037904 0.029664,-0.179632 0.102176,-0.281808 l 0.22248,-0.31312 C 0.79928,-1.023408 0.79928,-1.026704 0.79928,-1.061312 Z"
       id="text12"
       aria-label="7" />
  </g>
  <g
     transform="translate(12.595405,4.643214)"
     id="g14">
    <path
       transform="scale(0.004,-0.004)"
       d="M 0,-46 C 0,45 116,136 217,136 280,136 326,101 326,46 326,-41 216,-136 106,-136 39,-136 0,-97 0,-46 Z"
       fill="currentColor"
       id="path13" />
  </g>
  <g
     transform="translate(1.600405,7.643214)"
     id="g15">
    <path
       transform="scale(0.004,-0.004)"
       d="m 266,-635 h -6 c -108,0 -195,88 -195,197 0,58 53,103 112,103 54,0 95,-47 95,-103 0,-52 -43,-95 -95,-95 -11,0 -21,2 -31,6 26,-39 68,-65 117,-65 h 4 z m 135,786 c 19,-89 48,-242 60,-354 76,27 112,94 112,163 0,89 -60,179 -172,191 z M 74,28 c 0,-112 98,-247 278,-247 21,0 44,2 68,6 -7,64 -29,203 -63,364 -79,-8 -124,-61 -124,-119 0,-44 25,-91 81,-123 5,-5 7,-10 7,-15 0,-11 -10,-22 -22,-22 -15,0 -126,62 -126,187 0,88 58,174 160,197 -14,58 -29,117 -46,175 C 180,310 74,188 74,28 Z m 283,1166 c 28,0 143,-206 143,-361 0,-143 -86,-255 -180,-364 21,-68 39,-138 56,-207 5,0 10,1 14,1 155,0 255,-129 255,-262 0,-113 -74,-212 -180,-245 3,-35 5,-70 5,-105 0,-19 -1,-39 -2,-58 -7,-119 -88,-225 -202,-228 l 1,43 c 93,2 153,92 159,191 1,18 2,37 2,55 0,31 -1,61 -4,92 -28,-5 -55,-8 -80,-8 -239,0 -342,217 -342,374 0,177 131,306 248,441 -29,96 -52,170 -52,346 0,189 144,295 159,295 z M 247,782 c 0,-55 12,-115 35,-190 83,100 147,202 147,326 0,40 -6,82 -21,127 -49,-24 -161,-97 -161,-263 z"
       fill="currentColor"
       id="path14" />
  </g>
  <g
     transform="translate(5.105405,6.643214)"
     id="g16">
    <path
       transform="scale(0.004,-0.004)"
       d="m 27,41 -1,-66 v -11 c 0,-22 1,-44 4,-66 45,38 93,80 93,139 0,33 -14,67 -43,67 C 49,104 28,74 27,41 Z m -42,-179 -12,595 c 8,5 18,8 27,8 9,0 19,-3 27,-8 L 20,112 c 25,21 58,34 91,34 52,0 89,-48 89,-102 0,-80 -86,-117 -147,-169 -15,-13 -24,-38 -45,-38 -13,0 -23,11 -23,25 z"
       fill="currentColor"
       id="path15" />
  </g>
  <g
     transform="translate(6.025405,5.143214)"
     id="g17">
    <path
       transform="scale(0.004,-0.004)"
       d="m 27,41 -1,-66 v -11 c 0,-22 1,-44 4,-66 45,38 93,80 93,139 0,33 -14,67 -43,67 C 49,104 28,74 27,41 Z m -42,-179 -12,595 c 8,5 18,8 27,8 9,0 19,-3 27,-8 L 20,112 c 25,21 58,34 91,34 52,0 89,-48 89,-102 0,-80 -86,-117 -147,-169 -15,-13 -24,-38 -45,-38 -13,0 -23,11 -23,25 z"
       fill="currentColor"
       id="path16" />
  </g>
  <g
     transform="translate(6.945405,7.143214)"
     id="g18">
    <path
       transform="scale(0.004,-0.004)"
       d="m 27,41 -1,-66 v -11 c 0,-22 1,-44 4,-66 45,38 93,80 93,139 0,33 -14,67 -43,67 C 49,104 28,74 27,41 Z m -42,-179 -12,595 c 8,5 18,8 27,8 9,0 19,-3 27,-8 L 20,112 c 25,21 58,34 91,34 52,0 89,-48 89,-102 0,-80 -86,-117 -147,-169 -15,-13 -24,-38 -45,-38 -13,0 -23,11 -23,25 z"
       fill="currentColor"
       id="path17" />
  </g>
  <g
     transform="translate(8.895405,6.643214)"
     id="g19">
    <path
       transform="scale(0.004,-0.004)"
       d="M 433,-89 C 433,-111 383,-263 250,-263 191,-263 0,-244 0,0 0,62 18,262 250,262 366,262 426,156 426,99 426,59 396,27 359,27 c -31,0 -75,25 -75,75 0,38 27,77 72,77 4,0 9,0 14,-1 -28,37 -72,59 -120,59 C 144,237 137,164 137,51 V 0 -51 c 0,-113 7,-187 113,-187 80,0 139,70 158,151 2,7 7,10 12,10 6,0 13,-4 13,-12 z"
       fill="currentColor"
       id="path18" />
  </g>
  <g
     transform="translate(12.660405,6.643214)"
     id="g20">
    <path
       id="rect19"
       style="fill:currentColor"
       d="m -0.025,-1.8138 h 0.05 c 0.02216,0 0.04,0.01784 0.04,0.04 v 2.73699994 c 0,0.02216 -0.01784,0.04 -0.04,0.04 h -0.05 c -0.02216,0 -0.04,-0.01784 -0.04,-0.04 V -1.7738 c 0,-0.02216 0.01784,-0.04 0.04,-0.04 z" />
  </g>
  <g
     transform="translate(65.997805,9.453214)"
     id="g21">
    <path
       id="polygon20"
       style="fill:currentColor;stroke:currentColor;stroke-width:0.08;stroke-linecap:round;stroke-linejoin:round"
       d="m 4.0244,-0.82 v 0.4 L 0.04,0.2 v -0.4 z" />
  </g>
  <g
     transform="translate(16.279805,5.143214)"
     id="g22">
    <path
       transform="scale(0.004,-0.004)"
       d="M 0,-46 C 0,45 116,136 217,136 280,136 326,101 326,46 326,-41 216,-136 106,-136 39,-136 0,-97 0,-46 Z"
       fill="currentColor"
       id="path21" />
  </g>
  <g
     transform="translate(16.344805,6.643214)"
     id="g23">
    <path
       id="rect22"
       style="fill:currentColor"
       d="m -0.025,-1.3138 h 0.05 c 0.02216,0 0.04,0.01784 0.04,0.04 v 2.4206001 c 0,0.02216 -0.01784,0.04 -0.04,0.04 h -0.05 c -0.02216,0 -0.04,-0.01784 -0.04,-0.04 V -1.2738 c 0,-0.02216 0.01784,-0.04 0.04,-0.04 z" />
  </g>
  <g
     transform="translate(59.463505,5.453214)"
     id="g24">
    <path
       id="polygon23"
       style="fill:currentColor;stroke:currentColor;stroke-width:0.08;stroke-linecap:round;stroke-linejoin:round"
       d="m 4.0244,-0.82 v 0.4 L 0.04,0.2 v -0.4 z" />
  </g>
  <g
     transform="translate(19.964205,5.643214)"
     id="g25">
    <path
       transform="scale(0.004,-0.004)"
       d="M 0,-46 C 0,45 116,136 217,136 280,136 326,101 326,46 326,-41 216,-136 106,-136 39,-136 0,-97 0,-46 Z"
       fill="currentColor"
       id="path24" />
  </g>
  <g
     transform="translate(20.029205,6.643214)"
     id="g26">
    <path
       id="rect25"
       style="fill:currentColor"
       d="m -0.025,-0.81379998 h 0.05 c 0.02216,0 0.04,0.01784 0.04,0.04 V 1.9631999 c 0,0.02216 -0.01784,0.04 -0.04,0.04 h -0.05 c -0.02216,0 -0.04,-0.01784 -0.04,-0.04 v -2.73699988 c 0,-0.02216 0.01784,-0.04 0.04,-0.04 z" />
  </g>
  <g
     transform="translate(36.310205,4.643214)"
     id="g27">
    <path
       id="polygon26"
       style="fill:currentColor;stroke:currentColor;stroke-width:0.08;stroke-linecap:round;stroke-linejoin:round"
       d="m 3.7744,-0.01 v 0.4 L 0.04,0.2 v -0.4 z" />
  </g>
  <g
     transform="translate(23.648605,6.143214)"
     id="g28">
    <path
       transform="scale(0.004,-0.004)"
       d="M 0,-46 C 0,45 116,136 217,136 280,136 326,101 326,46 326,-41 216,-136 106,-136 39,-136 0,-97 0,-46 Z"
       fill="currentColor"
       id="path27" />
  </g>
  <g
     transform="translate(23.713605,6.643214)"
     id="g29">
    <path
       id="rect28"
       style="fill:currentColor"
       d="m -0.025,-0.31380001 h 0.05 c 0.02216,0 0.04,0.01784 0.04,0.04 V 2.1468001 c 0,0.02216 -0.01784,0.04 -0.04,0.04 h -0.05 c -0.02216,0 -0.04,-0.01784 -0.04,-0.04 v -2.42060011 c 0,-0.02216 0.01784,-0.04 0.04,-0.04 z" />
  </g>
  <g
     transform="translate(28.941405,3.643214)"
     id="g30">
    <path
       id="polygon29"
       style="fill:currentColor;stroke:currentColor;stroke-width:0.08;stroke-linecap:round;stroke-linejoin:round"
       d="m 3.7744,-0.01 v 0.4 L 0.04,0.2 v -0.4 z" />
  </g>
  <g
     transform="translate(27.767205,1.643214)"
     id="g31">
    <path
       style="font-size:2.3308px;font-family:'NewComputerModern Math';white-space:pre"
       d="m 1.713138,-0.56405361 v -0.0722548 l -0.2843576,0.006992 c -0.093232,0 -0.29135,0 -0.3752588,-0.006992 v 0.0722548 h 0.074586 c 0.209772,0 0.2167644,0.0256388 0.2167644,0.1118784 v 0.1491712 c 0,0.26104961 -0.2960116,0.28202681 -0.36127398,0.28202681 -0.151502,0 -0.61300041,-0.081578 -0.61300041,-0.77615642 0,-0.69690918 0.45916761,-0.77382558 0.59901561,-0.77382558 0.24939558,0 0.46149838,0.209772 0.50811438,0.5523996 0.00466,0.0326312 0.00466,0.0396236 0.037293,0.0396236 0.037293,0 0.037293,-0.006992 0.037293,-0.0559392 v -0.5523996 c 0,-0.039624 0,-0.055939 -0.025639,-0.055939 -0.00932,0 -0.018646,0 -0.037293,0.02797 l -0.11654,0.1724792 C 1.2982556,-1.5173508 1.1723924,-1.643214 0.94164322,-1.643214 c -0.43352881,0 -0.81111842,0.3682664 -0.81111842,0.84608038 0,0.47781401 0.37292801,0.84841122 0.81578002,0.84841122 0.17014838,0 0.35661238,-0.0606008 0.43585958,-0.198118 0.0303,0.0512776 0.1235324,0.1445096 0.1491712,0.1445096 0.020977,0 0.020977,-0.0186464 0.020977,-0.0536084 v -0.40555921 c 0,-0.0909012 0.00932,-0.1025552 0.1608254,-0.1025552 z"
       id="text30"
       aria-label="G" />
  </g>
  <g
     transform="translate(29.611005,2.437814)"
     id="g32">
    <path
       style="font-size:1.648px;font-family:'NewComputerModern Math';white-space:pre"
       d="M 0.79928,-1.061312 H 0.398816 c -0.201056,0 -0.204352,-0.021424 -0.210944,-0.052736 h -0.0412 L 0.092288,-0.77456 h 0.0412 c 0.004944,-0.026368 0.019776,-0.130192 0.0412,-0.149968 0.011536,-0.009888 0.14008,-0.009888 0.161504,-0.009888 h 0.341136 l -0.184576,0.260384 c -0.14832,0.22248 -0.202704,0.451552 -0.202704,0.619648 0,0.01648 0,0.09064 0.075808,0.09064 0.075808,0 0.075808,-0.07416 0.075808,-0.09064 v -0.084048 c 0,-0.09064 0.004944,-0.18128 0.018128,-0.270272 0.006592,-0.037904 0.029664,-0.179632 0.102176,-0.281808 l 0.22248,-0.31312 C 0.79928,-1.023408 0.79928,-1.026704 0.79928,-1.061312 Z"
       id="text31"
       aria-label="7" />
  </g>
  <g
     transform="translate(30.430405,2.437814)"
     id="g33">
    <path
       style="font-size:1.648px;font-family:'NewComputerModern Math';white-space:pre"
       d="m 0.548784,-0.529008 c 0,-0.121952 -0.09064,-0.229072 -0.225776,-0.229072 -0.092288,0 -0.158208,0.037904 -0.191168,0.069216 v -0.500992 c 0,-0.031312 0,-0.046144 -0.019776,-0.046144 -0.021424,0 -0.021424,0.013184 -0.021424,0.046144 v 1.179968 c 0,0.03296 0,0.046144 0.021424,0.046144 0.01648,0 0.187872,-0.118656 0.278512,-0.215888 0.09064,-0.097232 0.158208,-0.212592 0.158208,-0.349376 z m -0.133488,0 c 0,0.260384 -0.243904,0.46968 -0.283456,0.50264 v -0.538896 c 0,-0.037904 0,-0.072512 0.054384,-0.103824 0.051088,-0.029664 0.1236,-0.029664 0.1236,-0.029664 0.075808,0 0.105472,0.088992 0.105472,0.169744 z"
       id="text32"
       aria-label="♭" />
  </g>
  <g
     transform="translate(31.079105,2.437814)"
     id="g34">
    <path
       style="font-size:1.648px;font-family:'NewComputerModern Math';white-space:pre"
       d="m 0.753136,-0.542192 c 0,-0.443312 -0.18952,-0.555376 -0.336192,-0.555376 -0.09064,0 -0.171392,0.029664 -0.242256,0.103824 -0.067568,0.07416 -0.105472,0.143376 -0.105472,0.266976 0,0.206 0.145024,0.367504 0.3296,0.367504 0.100528,0 0.168096,-0.069216 0.206,-0.1648 v 0.052736 c 0,0.385632 -0.171392,0.46144 -0.266976,0.46144 -0.028016,0 -0.117008,-0.003296 -0.161504,-0.059328 0.072512,0 0.085696,-0.047792 0.085696,-0.075808 0,-0.051088 -0.039552,-0.075808 -0.075808,-0.075808 -0.026368,0 -0.075808,0.014832 -0.075808,0.079104 0,0.110416 0.088992,0.177984 0.229072,0.177984 0.212592,0 0.413648,-0.224128 0.413648,-0.578448 z M 0.60152,-0.693808 c 0,0.136784 -0.056032,0.29664 -0.201056,0.29664 -0.026368,0 -0.102176,0 -0.153264,-0.103824 -0.029664,-0.060976 -0.029664,-0.143376 -0.029664,-0.224128 0,-0.088992 0,-0.166448 0.034608,-0.227424 0.044496,-0.0824 0.10712,-0.103824 0.1648,-0.103824 0.075808,0 0.130192,0.056032 0.158208,0.130192 0.019776,0.052736 0.026368,0.15656 0.026368,0.232368 z"
       id="text33"
       aria-label="9" />
  </g>
  <g
     transform="translate(27.767205,6.643214)"
     id="g35">
    <path
       transform="scale(0.004,-0.004)"
       d="M 0,-46 C 0,45 116,136 217,136 280,136 326,101 326,46 326,-41 216,-136 106,-136 39,-136 0,-97 0,-46 Z"
       fill="currentColor"
       id="path34" />
  </g>
  <g
     transform="translate(29.006405,6.643214)"
     id="g36">
    <path
       id="rect35"
       style="fill:currentColor"
       d="m -0.025,-2.9967999 h 0.05 c 0.02216,0 0.04,0.01784 0.04,0.04 v 2.7306 c 0,0.02216 -0.01784,0.04 -0.04,0.04 h -0.05 c -0.02216,0 -0.04,-0.01784 -0.04,-0.04 v -2.7306 c 0,-0.02216 0.01784,-0.04 0.04,-0.04 z" />
  </g>
  <g
     transform="translate(26.733005,6.643214)"
     id="g37">
    <path
       transform="scale(0.004,-0.004)"
       d="m -7,375 c 8,4 17,7 25,7 8,0 16,-3 24,-7 l -2,-183 106,20 h 3 c 10,0 18,-7 18,-17 l 7,-570 c -8,-4 -17,-7 -25,-7 -8,0 -16,3 -24,7 l 2,183 -106,-20 h -3 c -10,0 -18,7 -18,17 z M 131,112 39,95 l -3,-207 92,17 z"
       fill="currentColor"
       id="path36" />
  </g>
  <g
     transform="translate(19.964205,8.643214)"
     id="g38">
    <path
       id="polygon37"
       style="fill:currentColor;stroke:currentColor;stroke-width:0.08;stroke-linecap:round;stroke-linejoin:round"
       d="m 3.7744,-0.01 v 0.4 L 0.04,0.2 v -0.4 z" />
  </g>
  <g
     transform="translate(31.451605,7.143214)"
     id="g39">
    <path
       transform="scale(0.004,-0.004)"
       d="M 0,-46 C 0,45 116,136 217,136 280,136 326,101 326,46 326,-41 216,-136 106,-136 39,-136 0,-97 0,-46 Z"
       fill="currentColor"
       id="path38" />
  </g>
  <g
     transform="translate(32.690805,6.643214)"
     id="g40">
    <path
       id="rect39"
       style="fill:currentColor"
       d="m -0.025,-2.8132 h 0.05 c 0.02216,0 0.04,0.01784 0.04,0.04 v 3.0470001 c 0,0.02216 -0.01784,0.04 -0.04,0.04 h -0.05 c -0.02216,0 -0.04,-0.01784 -0.04,-0.04 V -2.7732 c 0,-0.02216 0.01784,-0.04 0.04,-0.04 z" />
  </g>
  <g
     transform="translate(12.595405,7.643214)"
     id="g41">
    <path
       id="polygon40"
       style="fill:currentColor;stroke:currentColor;stroke-width:0.08;stroke-linecap:round;stroke-linejoin:round"
       d="m 3.7744,-0.01 v 0.4 L 0.04,0.2 v -0.4 z" />
  </g>
  <g
     transform="translate(35.136005,7.643214)"
     id="g42">
    <path
       transform="scale(0.004,-0.004)"
       d="M 0,-46 C 0,45 116,136 217,136 280,136 326,101 326,46 326,-41 216,-136 106,-136 39,-136 0,-97 0,-46 Z"
       fill="currentColor"
       id="path41" />
  </g>
  <g
     transform="translate(36.375205,6.643214)"
     id="g43">
    <path
       id="rect42"
       style="fill:currentColor"
       d="m -0.025,-1.9967999 h 0.05 c 0.02216,0 0.04,0.01784 0.04,0.04 v 2.7306 c 0,0.02216 -0.01784,0.04 -0.04,0.04 h -0.05 c -0.02216,0 -0.04,-0.01784 -0.04,-0.04 v -2.7306 c 0,-0.02216 0.01784,-0.04 0.04,-0.04 z" />
  </g>
  <g
     transform="translate(38.820405,8.143214)"
     id="g44">
    <path
       transform="scale(0.004,-0.004)"
       d="M 0,-46 C 0,45 116,136 217,136 280,136 326,101 326,46 326,-41 216,-136 106,-136 39,-136 0,-97 0,-46 Z"
       fill="currentColor"
       id="path43" />
  </g>
  <g
     transform="translate(40.059605,6.643214)"
     id="g45">
    <path
       id="rect44"
       style="fill:currentColor"
       d="m -0.025,-1.8132 h 0.05 c 0.02216,0 0.04,0.01784 0.04,0.04 v 3.0470001 c 0,0.02216 -0.01784,0.04 -0.04,0.04 h -0.05 c -0.02216,0 -0.04,-0.01784 -0.04,-0.04 V -1.7732 c 0,-0.02216 0.01784,-0.04 0.04,-0.04 z" />
  </g>
  <g
     transform="translate(45.274005,1.643214)"
     id="g46">
    <path
       style="font-size:2.3308px;font-family:'NewComputerModern Math';white-space:pre"
       d="m 1.549982,-0.54307641 c 0,-0.023308 0,-0.0396236 -0.0303,-0.0396236 -0.025639,0 -0.025639,0.0139848 -0.02797,0.0372928 -0.018646,0.3333044 -0.268042,0.52443001 -0.52209918,0.52443001 -0.1421788,0 -0.59901561,-0.0792472 -0.59901561,-0.77382562 0,-0.69690918 0.45450601,-0.77615638 0.59668481,-0.77615638 0.25405718,0 0.46149838,0.2121028 0.50811438,0.5523996 0.00466,0.0326312 0.00466,0.0396236 0.037293,0.0396236 0.037293,0 0.037293,-0.006992 0.037293,-0.0559392 v -0.5523996 c 0,-0.039624 0,-0.055939 -0.025639,-0.055939 -0.00932,0 -0.018646,0 -0.037293,0.02797 l -0.11654,0.1724792 C 1.2842708,-1.526674 1.1654,-1.643214 0.94164322,-1.643214 c -0.43585961,0 -0.81111842,0.3705972 -0.81111842,0.84608038 0,0.48247561 0.37758961,0.84841122 0.81111842,0.84841122 0.37992038,0 0.60833878,-0.32398121 0.60833878,-0.59435401 z"
       id="text45"
       aria-label="C" />
  </g>
  <g
     transform="translate(46.947105,2.437814)"
     id="g47">
    <path
       style="font-size:1.648px;font-family:'NewComputerModern Math';white-space:pre"
       d="m 1.189856,-0.412 c 0,-0.018128 -0.014832,-0.03296 -0.03296,-0.03296 H 0.125248 c -0.018128,0 -0.03296,0.014832 -0.03296,0.03296 0,0.018128 0.014832,0.03296 0.03296,0.03296 h 1.031648 c 0.018128,0 0.03296,-0.014832 0.03296,-0.03296 z"
       id="text46"
       aria-label="−" />
  </g>
  <g
     transform="translate(45.274005,8.643214)"
     id="g48">
    <path
       transform="scale(0.004,-0.004)"
       d="m 347,-26 c 0,102 -89,139 -133,139 -23,0 -70,-10 -70,-89 0,-91 76,-136 132,-136 22,0 71,8 71,86 z M 245,136 C 389,136 491,71 491,0 491,-71 389,-136 245,-136 101,-136 0,-71 0,0 0,71 101,136 245,136 Z"
       fill="currentColor"
       id="path47" />
  </g>
  <g
     transform="translate(58.289305,1.643214)"
     id="g49">
    <path
       style="font-size:2.3308px;font-family:'NewComputerModern Math';white-space:pre"
       d="m 1.6478756,-0.78314882 c 0,-0.44285198 -0.314658,-0.80878758 -0.71322478,-0.80878758 H 0.081578 v 0.072255 h 0.0559392 c 0.17947161,0 0.18413321,0.025639 0.18413321,0.1095476 v 1.2283316 c 0,0.0839088 -0.004662,0.1095476 -0.18413321,0.1095476 H 0.081578 V 0 H 0.93465082 C 1.3262252,0 1.6478756,-0.34495841 1.6478756,-0.78314882 Z m -0.23308,0 c 0,0.25871881 -0.044285,0.39856681 -0.128194,0.51277601 -0.046616,0.0629316 -0.1794716,0.19811801 -0.41488238,0.19811801 h -0.2354108 c -0.10954761,0 -0.11420921,-0.0163156 -0.11420921,-0.093232 v -1.2609628 c 0,-0.076916 0.004662,-0.093232 0.11420921,-0.093232 h 0.23308 c 0.14450958,0 0.30533478,0.051278 0.42420558,0.2167644 0.1002244,0.1375172 0.1212016,0.33796598 0.1212016,0.51976838 z"
       id="text48"
       aria-label="D" />
  </g>
  <g
     transform="translate(60.064805,2.437814)"
     id="g50">
    <path
       style="font-size:1.648px;font-family:'NewComputerModern Math';white-space:pre"
       d="m 0.764672,-0.351024 c 0,-0.161504 -0.088992,-0.27192 -0.151616,-0.318064 L 0.723472,-0.860256 0.69216,-0.880032 0.583392,-0.688864 C 0.545488,-0.713584 0.482864,-0.738304 0.412,-0.738304 c -0.196112,0 -0.35432,0.174688 -0.35432,0.38728 0,0.13184 0.06592,0.242256 0.154912,0.30488 L 0.110416,0.13184 0.09888,0.14832 0.130192,0.168096 0.242256,-0.026368 c 0.037904,0.021424 0.09888,0.044496 0.168096,0.044496 0.196112,0 0.35432,-0.1648 0.35432,-0.369152 z M 0.557024,-0.646016 0.240608,-0.097232 c -0.060976,-0.069216 -0.069216,-0.163152 -0.069216,-0.25544 0,-0.069216 0.003296,-0.161504 0.047792,-0.235664 0.04944,-0.085696 0.13184,-0.113712 0.191168,-0.113712 0.06592,0 0.117008,0.029664 0.146672,0.056032 z m 0.093936,0.293344 c 0,0.054384 0,0.153264 -0.047792,0.229072 -0.047792,0.075808 -0.126896,0.105472 -0.191168,0.105472 -0.0412,0 -0.097232,-0.011536 -0.143376,-0.051088 l 0.314768,-0.547136 c 0.064272,0.075808 0.067568,0.196112 0.067568,0.26368 z"
       id="text49"
       aria-label="ø" />
  </g>
  <g
     transform="translate(60.884205,2.437814)"
     id="g51">
    <path
       style="font-size:1.648px;font-family:'NewComputerModern Math';white-space:pre"
       d="M 0.79928,-1.061312 H 0.398816 c -0.201056,0 -0.204352,-0.021424 -0.210944,-0.052736 h -0.0412 L 0.092288,-0.77456 h 0.0412 c 0.004944,-0.026368 0.019776,-0.130192 0.0412,-0.149968 0.011536,-0.009888 0.14008,-0.009888 0.161504,-0.009888 h 0.341136 l -0.184576,0.260384 c -0.14832,0.22248 -0.202704,0.451552 -0.202704,0.619648 0,0.01648 0,0.09064 0.075808,0.09064 0.075808,0 0.075808,-0.07416 0.075808,-0.09064 v -0.084048 c 0,-0.09064 0.004944,-0.18128 0.018128,-0.270272 0.006592,-0.037904 0.029664,-0.179632 0.102176,-0.281808 l 0.22248,-0.31312 C 0.79928,-1.023408 0.79928,-1.026704 0.79928,-1.061312 Z"
       id="text50"
       aria-label="7" />
  </g>
  <g
     transform="translate(58.289305,9.143214)"
     id="g52">
    <path
       transform="scale(0.004,-0.004)"
       d="M 0,-46 C 0,45 116,136 217,136 280,136 326,101 326,46 326,-41 216,-136 106,-136 39,-136 0,-97 0,-46 Z"
       fill="currentColor"
       id="path51" />
  </g>
  <g
     transform="translate(59.528505,6.643214)"
     id="g53">
    <path
       id="rect52"
       style="fill:currentColor"
       d="m -0.025,-1.1999 h 0.05 c 0.02216,0 0.04,0.01784 0.04,0.04 v 3.4337 c 0,0.02216 -0.01784,0.04 -0.04,0.04 h -0.05 c -0.02216,0 -0.04,-0.01784 -0.04,-0.04 v -3.4337 c 0,-0.02216 0.01784,-0.04 0.04,-0.04 z" />
  </g>
  <g
     transform="translate(82.593805,4.643214)"
     id="g54">
    <path
       id="polygon53"
       style="fill:currentColor;stroke:currentColor;stroke-width:0.08;stroke-linecap:round;stroke-linejoin:round"
       d="m 3.7744,-0.01 v 0.4 L 0.04,0.2 v -0.4 z" />
  </g>
  <g
     transform="translate(62.223705,8.143214)"
     id="g55">
    <path
       transform="scale(0.004,-0.004)"
       d="M 0,-46 C 0,45 116,136 217,136 280,136 326,101 326,46 326,-41 216,-136 106,-136 39,-136 0,-97 0,-46 Z"
       fill="currentColor"
       id="path54" />
  </g>
  <g
     transform="translate(63.462905,6.643214)"
     id="g56">
    <path
       id="rect55"
       style="fill:currentColor"
       d="m -0.025,-1.8001 h 0.05 c 0.02216,0 0.04,0.01784 0.04,0.04 v 3.0339 c 0,0.02216 -0.01784,0.04 -0.04,0.04 h -0.05 c -0.02216,0 -0.04,-0.01784 -0.04,-0.04 v -3.0339 c 0,-0.02216 0.01784,-0.04 0.04,-0.04 z" />
  </g>
  <g
     transform="translate(65.997805,7.143214)"
     id="g57">
    <path
       transform="scale(0.004,-0.004)"
       d="M 0,-46 C 0,45 116,136 217,136 280,136 326,101 326,46 326,-41 216,-136 106,-136 39,-136 0,-97 0,-46 Z"
       fill="currentColor"
       id="path56" />
  </g>
  <g
     transform="translate(66.062805,6.643214)"
     id="g58">
    <path
       id="rect57"
       style="fill:currentColor"
       d="m -0.025,0.68620002 h 0.05 c 0.02216,0 0.04,0.01784 0.04,0.04 V 2.7601 c 0,0.02216 -0.01784,0.04 -0.04,0.04 h -0.05 c -0.02216,0 -0.04,-0.01784 -0.04,-0.04 V 0.72620002 c 0,-0.02216 0.01784,-0.04 0.04,-0.04 z" />
  </g>
  <g
     transform="translate(69.932205,6.143214)"
     id="g59">
    <path
       transform="scale(0.004,-0.004)"
       d="M 0,-46 C 0,45 116,136 217,136 280,136 326,101 326,46 326,-41 216,-136 106,-136 39,-136 0,-97 0,-46 Z"
       fill="currentColor"
       id="path58" />
  </g>
  <g
     transform="translate(69.997205,6.643214)"
     id="g60">
    <path
       id="rect59"
       style="fill:currentColor"
       d="m -0.025,-0.31380001 h 0.05 c 0.02216,0 0.04,0.01784 0.04,0.04 V 2.1599 c 0,0.02216 -0.01784,0.04 -0.04,0.04 h -0.05 c -0.02216,0 -0.04,-0.01784 -0.04,-0.04 v -2.43370001 c 0,-0.02216 0.01784,-0.04 0.04,-0.04 z" />
  </g>
  <g
     transform="translate(74.050805,1.643214)"
     id="g61">
    <path
       style="font-size:2.3308px;font-family:'NewComputerModern Math';white-space:pre"
       d="m 1.713138,-0.56405361 v -0.0722548 l -0.2843576,0.006992 c -0.093232,0 -0.29135,0 -0.3752588,-0.006992 v 0.0722548 h 0.074586 c 0.209772,0 0.2167644,0.0256388 0.2167644,0.1118784 v 0.1491712 c 0,0.26104961 -0.2960116,0.28202681 -0.36127398,0.28202681 -0.151502,0 -0.61300041,-0.081578 -0.61300041,-0.77615642 0,-0.69690918 0.45916761,-0.77382558 0.59901561,-0.77382558 0.24939558,0 0.46149838,0.209772 0.50811438,0.5523996 0.00466,0.0326312 0.00466,0.0396236 0.037293,0.0396236 0.037293,0 0.037293,-0.006992 0.037293,-0.0559392 v -0.5523996 c 0,-0.039624 0,-0.055939 -0.025639,-0.055939 -0.00932,0 -0.018646,0 -0.037293,0.02797 l -0.11654,0.1724792 C 1.2982556,-1.5173508 1.1723924,-1.643214 0.94164322,-1.643214 c -0.43352881,0 -0.81111842,0.3682664 -0.81111842,0.84608038 0,0.47781401 0.37292801,0.84841122 0.81578002,0.84841122 0.17014838,0 0.35661238,-0.0606008 0.43585958,-0.198118 0.0303,0.0512776 0.1235324,0.1445096 0.1491712,0.1445096 0.020977,0 0.020977,-0.0186464 0.020977,-0.0536084 v -0.40555921 c 0,-0.0909012 0.00932,-0.1025552 0.1608254,-0.1025552 z"
       id="text60"
       aria-label="G" />
  </g>
  <g
     transform="translate(75.894505,2.437814)"
     id="g62">
    <path
       style="font-size:1.648px;font-family:'NewComputerModern Math';white-space:pre"
       d="M 0.79928,-1.061312 H 0.398816 c -0.201056,0 -0.204352,-0.021424 -0.210944,-0.052736 h -0.0412 L 0.092288,-0.77456 h 0.0412 c 0.004944,-0.026368 0.019776,-0.130192 0.0412,-0.149968 0.011536,-0.009888 0.14008,-0.009888 0.161504,-0.009888 h 0.341136 l -0.184576,0.260384 c -0.14832,0.22248 -0.202704,0.451552 -0.202704,0.619648 0,0.01648 0,0.09064 0.075808,0.09064 0.075808,0 0.075808,-0.07416 0.075808,-0.09064 v -0.084048 c 0,-0.09064 0.004944,-0.18128 0.018128,-0.270272 0.006592,-0.037904 0.029664,-0.179632 0.102176,-0.281808 l 0.22248,-0.31312 C 0.79928,-1.023408 0.79928,-1.026704 0.79928,-1.061312 Z"
       id="text61"
       aria-label="7" />
  </g>
  <g
     transform="translate(76.714005,2.437814)"
     id="g63">
    <path
       style="font-size:1.648px;font-family:'NewComputerModern Math';white-space:pre"
       d="m 0.548784,-0.529008 c 0,-0.121952 -0.09064,-0.229072 -0.225776,-0.229072 -0.092288,0 -0.158208,0.037904 -0.191168,0.069216 v -0.500992 c 0,-0.031312 0,-0.046144 -0.019776,-0.046144 -0.021424,0 -0.021424,0.013184 -0.021424,0.046144 v 1.179968 c 0,0.03296 0,0.046144 0.021424,0.046144 0.01648,0 0.187872,-0.118656 0.278512,-0.215888 0.09064,-0.097232 0.158208,-0.212592 0.158208,-0.349376 z m -0.133488,0 c 0,0.260384 -0.243904,0.46968 -0.283456,0.50264 v -0.538896 c 0,-0.037904 0,-0.072512 0.054384,-0.103824 0.051088,-0.029664 0.1236,-0.029664 0.1236,-0.029664 0.075808,0 0.105472,0.088992 0.105472,0.169744 z"
       id="text62"
       aria-label="♭" />
  </g>
  <g
     transform="translate(77.362705,2.437814)"
     id="g64">
    <path
       style="font-size:1.648px;font-family:'NewComputerModern Math';white-space:pre"
       d="m 0.753136,-0.542192 c 0,-0.443312 -0.18952,-0.555376 -0.336192,-0.555376 -0.09064,0 -0.171392,0.029664 -0.242256,0.103824 -0.067568,0.07416 -0.105472,0.143376 -0.105472,0.266976 0,0.206 0.145024,0.367504 0.3296,0.367504 0.100528,0 0.168096,-0.069216 0.206,-0.1648 v 0.052736 c 0,0.385632 -0.171392,0.46144 -0.266976,0.46144 -0.028016,0 -0.117008,-0.003296 -0.161504,-0.059328 0.072512,0 0.085696,-0.047792 0.085696,-0.075808 0,-0.051088 -0.039552,-0.075808 -0.075808,-0.075808 -0.026368,0 -0.075808,0.014832 -0.075808,0.079104 0,0.110416 0.088992,0.177984 0.229072,0.177984 0.212592,0 0.413648,-0.224128 0.413648,-0.578448 z M 0.60152,-0.693808 c 0,0.136784 -0.056032,0.29664 -0.201056,0.29664 -0.026368,0 -0.102176,0 -0.153264,-0.103824 -0.029664,-0.060976 -0.029664,-0.143376 -0.029664,-0.224128 0,-0.088992 0,-0.166448 0.034608,-0.227424 0.044496,-0.0824 0.10712,-0.103824 0.1648,-0.103824 0.075808,0 0.130192,0.056032 0.158208,0.130192 0.019776,0.052736 0.026368,0.15656 0.026368,0.232368 z"
       id="text63"
       aria-label="9" />
  </g>
  <g
     transform="translate(74.050805,6.643214)"
     id="g65">
    <path
       transform="scale(0.004,-0.004)"
       d="M 0,-46 C 0,45 116,136 217,136 280,136 326,101 326,46 326,-41 216,-136 106,-136 39,-136 0,-97 0,-46 Z"
       fill="currentColor"
       id="path64" />
  </g>
  <g
     transform="translate(75.290005,6.643214)"
     id="g66">
    <path
       id="rect65"
       style="fill:currentColor"
       d="m -0.025,-2.9967999 h 0.05 c 0.02216,0 0.04,0.01784 0.04,0.04 v 2.7306 c 0,0.02216 -0.01784,0.04 -0.04,0.04 h -0.05 c -0.02216,0 -0.04,-0.01784 -0.04,-0.04 v -2.7306 c 0,-0.02216 0.01784,-0.04 0.04,-0.04 z" />
  </g>
  <g
     transform="translate(73.016505,6.643214)"
     id="g67">
    <path
       transform="scale(0.004,-0.004)"
       d="m -7,375 c 8,4 17,7 25,7 8,0 16,-3 24,-7 l -2,-183 106,20 h 3 c 10,0 18,-7 18,-17 l 7,-570 c -8,-4 -17,-7 -25,-7 -8,0 -16,3 -24,7 l 2,183 -106,-20 h -3 c -10,0 -18,7 -18,17 z M 131,112 39,95 l -3,-207 92,17 z"
       fill="currentColor"
       id="path66" />
  </g>
  <g
     transform="translate(77.735205,7.143214)"
     id="g68">
    <path
       transform="scale(0.004,-0.004)"
       d="M 0,-46 C 0,45 116,136 217,136 280,136 326,101 326,46 326,-41 216,-136 106,-136 39,-136 0,-97 0,-46 Z"
       fill="currentColor"
       id="path67" />
  </g>
  <g
     transform="translate(78.974405,6.643214)"
     id="g69">
    <path
       id="rect68"
       style="fill:currentColor"
       d="m -0.025,-2.8132 h 0.05 c 0.02216,0 0.04,0.01784 0.04,0.04 v 3.0470001 c 0,0.02216 -0.01784,0.04 -0.04,0.04 h -0.05 c -0.02216,0 -0.04,-0.01784 -0.04,-0.04 V -2.7732 c 0,-0.02216 0.01784,-0.04 0.04,-0.04 z" />
  </g>
  <g
     transform="translate(81.419605,7.643214)"
     id="g70">
    <path
       transform="scale(0.004,-0.004)"
       d="M 0,-46 C 0,45 116,136 217,136 280,136 326,101 326,46 326,-41 216,-136 106,-136 39,-136 0,-97 0,-46 Z"
       fill="currentColor"
       id="path69" />
  </g>
  <g
     transform="translate(82.658805,6.643214)"
     id="g71">
    <path
       id="rect70"
       style="fill:currentColor"
       d="m -0.025,-1.9967999 h 0.05 c 0.02216,0 0.04,0.01784 0.04,0.04 v 2.7306 c 0,0.02216 -0.01784,0.04 -0.04,0.04 h -0.05 c -0.02216,0 -0.04,-0.01784 -0.04,-0.04 v -2.7306 c 0,-0.02216 0.01784,-0.04 0.04,-0.04 z" />
  </g>
  <g
     transform="translate(85.104005,8.143214)"
     id="g72">
    <path
       transform="scale(0.004,-0.004)"
       d="M 0,-46 C 0,45 116,136 217,136 280,136 326,101 326,46 326,-41 216,-136 106,-136 39,-136 0,-97 0,-46 Z"
       fill="currentColor"
       id="path71" />
  </g>
  <g
     transform="translate(86.343205,6.643214)"
     id="g73">
    <path
       id="rect72"
       style="fill:currentColor"
       d="m -0.025,-1.8132 h 0.05 c 0.02216,0 0.04,0.01784 0.04,0.04 v 3.0470001 c 0,0.02216 -0.01784,0.04 -0.04,0.04 h -0.05 c -0.02216,0 -0.04,-0.01784 -0.04,-0.04 V -1.7732 c 0,-0.02216 0.01784,-0.04 0.04,-0.04 z" />
  </g>
  <g
     transform="translate(91.557605,1.643214)"
     id="g74">
    <path
       style="font-size:2.3308px;font-family:'NewComputerModern Math';white-space:pre"
       d="m 1.549982,-0.54307641 c 0,-0.023308 0,-0.0396236 -0.0303,-0.0396236 -0.025639,0 -0.025639,0.0139848 -0.02797,0.0372928 -0.018646,0.3333044 -0.268042,0.52443001 -0.52209918,0.52443001 -0.1421788,0 -0.59901561,-0.0792472 -0.59901561,-0.77382562 0,-0.69690918 0.45450601,-0.77615638 0.59668481,-0.77615638 0.25405718,0 0.46149838,0.2121028 0.50811438,0.5523996 0.00466,0.0326312 0.00466,0.0396236 0.037293,0.0396236 0.037293,0 0.037293,-0.006992 0.037293,-0.0559392 v -0.5523996 c 0,-0.039624 0,-0.055939 -0.025639,-0.055939 -0.00932,0 -0.018646,0 -0.037293,0.02797 l -0.11654,0.1724792 C 1.2842708,-1.526674 1.1654,-1.643214 0.94164322,-1.643214 c -0.43585961,0 -0.81111842,0.3705972 -0.81111842,0.84608038 0,0.48247561 0.37758961,0.84841122 0.81111842,0.84841122 0.37992038,0 0.60833878,-0.32398121 0.60833878,-0.59435401 z"
       id="text73"
       aria-label="C" />
  </g>
  <g
     transform="translate(93.230605,2.437814)"
     id="g75">
    <path
       style="font-size:1.648px;font-family:'NewComputerModern Math';white-space:pre"
       d="m 1.189856,-0.412 c 0,-0.018128 -0.014832,-0.03296 -0.03296,-0.03296 H 0.125248 c -0.018128,0 -0.03296,0.014832 -0.03296,0.03296 0,0.018128 0.014832,0.03296 0.03296,0.03296 h 1.031648 c 0.018128,0 0.03296,-0.014832 0.03296,-0.03296 z"
       id="text74"
       aria-label="−" />
  </g>
  <g
     transform="translate(91.557605,8.643214)"
     id="g76">
    <path
       transform="scale(0.004,-0.004)"
       d="m 347,-26 c 0,102 -89,139 -133,139 -23,0 -70,-10 -70,-89 0,-91 76,-136 132,-136 22,0 71,8 71,86 z M 245,136 C 389,136 491,71 491,0 491,-71 389,-136 245,-136 101,-136 0,-71 0,0 0,71 101,136 245,136 Z"
       fill="currentColor"
       id="path75" />
  </g>
  <g
     transform="translate(70.683405,22.143214)"
     id="g77">
    <path
       transform="scale(0.004,-0.004)"
       d="M 0,0 C 0,31 25,56 56,56 87,56 112,31 112,0 112,-31 87,-56 56,-56 25,-56 0,-31 0,0 Z"
       fill="currentColor"
       id="path76" />
  </g>
  <g
     transform="translate(70.683405,23.143214)"
     id="g78">
    <path
       transform="scale(0.004,-0.004)"
       d="M 0,0 C 0,31 25,56 56,56 87,56 112,31 112,0 112,-31 87,-56 56,-56 25,-56 0,-31 0,0 Z"
       fill="currentColor"
       id="path77" />
  </g>
  <g
     transform="translate(71.923405,22.643214)"
     id="g79">
    <path
       id="rect78"
       style="fill:currentColor"
       d="M 0,-2 H 0.60000002 V 2 H 0 Z" />
  </g>
  <g
     transform="translate(71.433405,22.643214)"
     id="g80">
    <path
       id="rect79"
       style="fill:currentColor"
       d="M 0,-2 H 0.19 V 2 H 0 Z" />
  </g>
  <g
     transform="translate(0.800405,19.643214)"
     id="g81">
    <path
       id="rect80"
       style="fill:currentColor"
       d="m 53.529001,-0.1 h 1.7563 c 0.0554,0 0.1,0.0446 0.1,0.1 0,0.0554 -0.0446,0.1 -0.1,0.1 h -1.7563 c -0.0554,0 -0.1,-0.0446 -0.1,-0.1 0,-0.0554 0.0446,-0.1 0.1,-0.1 z" />
  </g>
  <g
     transform="translate(0.800405,25.643214)"
     id="g82">
    <path
       id="rect81"
       style="fill:currentColor"
       d="m 19.3122,-0.1 h 1.6141 c 0.0554,0 0.1,0.0446 0.1,0.1 0,0.0554 -0.0446,0.1 -0.1,0.1 h -1.6141 c -0.0554,0 -0.1,-0.0446 -0.1,-0.1 0,-0.0554 0.0446,-0.1 0.1,-0.1 z" />
  </g>
  <g
     transform="translate(0.800405,25.643214)"
     id="g83">
    <path
       id="rect82"
       style="fill:currentColor"
       d="m 16.231599,-0.1 h 1.7563 c 0.0554,0 0.1,0.0446 0.1,0.1 0,0.0554 -0.0446,0.1 -0.1,0.1 h -1.7563 c -0.0554,0 -0.1,-0.0446 -0.1,-0.1 0,-0.0554 0.0446,-0.1 0.1,-0.1 z" />
  </g>
  <g
     transform="translate(0.800405,24.643214)"
     id="g84">
    <path
       id="line83"
       style="stroke:currentColor;stroke-width:0.1;stroke-linecap:round;stroke-linejoin:round"
       d="M 0.05,0 H 71.672997" />
  </g>
  <g
     transform="translate(0.800405,23.643214)"
     id="g85">
    <path
       id="line84"
       style="stroke:currentColor;stroke-width:0.1;stroke-linecap:round;stroke-linejoin:round"
       d="M 0.05,0 H 71.672997" />
  </g>
  <g
     transform="translate(0.800405,22.643214)"
     id="g86">
    <path
       id="line85"
       style="stroke:currentColor;stroke-width:0.1;stroke-linecap:round;stroke-linejoin:round"
       d="M 0.05,0 H 71.672997" />
  </g>
  <g
     transform="translate(0.800405,21.643214)"
     id="g87">
    <path
       id="line86"
       style="stroke:currentColor;stroke-width:0.1;stroke-linecap:round;stroke-linejoin:round"
       d="M 0.05,0 H 71.672997" />
  </g>
  <g
     transform="translate(0.800405,20.643214)"
     id="g88">
    <path
       id="line87"
       style="stroke:currentColor;stroke-width:0.1;stroke-linecap:round;stroke-linejoin:round"
       d="M 0.05,0 H 71.672997" />
  </g>
  <g
     transform="translate(61.831405,22.643214)"
     id="g89">
    <path
       id="rect88"
       style="fill:currentColor"
       d="M 0,-2 H 0.19 V 2 H 0 Z" />
  </g>
  <g
     transform="translate(39.980605,22.643214)"
     id="g90">
    <path
       id="rect89"
       style="fill:currentColor"
       d="M 0,-2 H 0.19 V 2 H 0 Z" />
  </g>
  <g
     transform="translate(31.128605,22.643214)"
     id="g91">
    <path
       id="rect90"
       style="fill:currentColor"
       d="M 0,-2 H 0.19 V 2 H 0 Z" />
  </g>
  <g
     transform="translate(1.600405,23.643214)"
     id="g92">
    <path
       transform="scale(0.004,-0.004)"
       d="m 266,-635 h -6 c -108,0 -195,88 -195,197 0,58 53,103 112,103 54,0 95,-47 95,-103 0,-52 -43,-95 -95,-95 -11,0 -21,2 -31,6 26,-39 68,-65 117,-65 h 4 z m 135,786 c 19,-89 48,-242 60,-354 76,27 112,94 112,163 0,89 -60,179 -172,191 z M 74,28 c 0,-112 98,-247 278,-247 21,0 44,2 68,6 -7,64 -29,203 -63,364 -79,-8 -124,-61 -124,-119 0,-44 25,-91 81,-123 5,-5 7,-10 7,-15 0,-11 -10,-22 -22,-22 -15,0 -126,62 -126,187 0,88 58,174 160,197 -14,58 -29,117 -46,175 C 180,310 74,188 74,28 Z m 283,1166 c 28,0 143,-206 143,-361 0,-143 -86,-255 -180,-364 21,-68 39,-138 56,-207 5,0 10,1 14,1 155,0 255,-129 255,-262 0,-113 -74,-212 -180,-245 3,-35 5,-70 5,-105 0,-19 -1,-39 -2,-58 -7,-119 -88,-225 -202,-228 l 1,43 c 93,2 153,92 159,191 1,18 2,37 2,55 0,31 -1,61 -4,92 -28,-5 -55,-8 -80,-8 -239,0 -342,217 -342,374 0,177 131,306 248,441 -29,96 -52,170 -52,346 0,189 144,295 159,295 z M 247,782 c 0,-55 12,-115 35,-190 83,100 147,202 147,326 0,40 -6,82 -21,127 -49,-24 -161,-97 -161,-263 z"
       fill="currentColor"
       id="path91" />
  </g>
  <g
     transform="translate(5.105405,22.643214)"
     id="g93">
    <path
       transform="scale(0.004,-0.004)"
       d="m 27,41 -1,-66 v -11 c 0,-22 1,-44 4,-66 45,38 93,80 93,139 0,33 -14,67 -43,67 C 49,104 28,74 27,41 Z m -42,-179 -12,595 c 8,5 18,8 27,8 9,0 19,-3 27,-8 L 20,112 c 25,21 58,34 91,34 52,0 89,-48 89,-102 0,-80 -86,-117 -147,-169 -15,-13 -24,-38 -45,-38 -13,0 -23,11 -23,25 z"
       fill="currentColor"
       id="path92" />
  </g>
  <g
     transform="translate(6.025405,21.143214)"
     id="g94">
    <path
       transform="scale(0.004,-0.004)"
       d="m 27,41 -1,-66 v -11 c 0,-22 1,-44 4,-66 45,38 93,80 93,139 0,33 -14,67 -43,67 C 49,104 28,74 27,41 Z m -42,-179 -12,595 c 8,5 18,8 27,8 9,0 19,-3 27,-8 L 20,112 c 25,21 58,34 91,34 52,0 89,-48 89,-102 0,-80 -86,-117 -147,-169 -15,-13 -24,-38 -45,-38 -13,0 -23,11 -23,25 z"
       fill="currentColor"
       id="path93" />
  </g>
  <g
     transform="translate(6.945405,23.143214)"
     id="g95">
    <path
       transform="scale(0.004,-0.004)"
       d="m 27,41 -1,-66 v -11 c 0,-22 1,-44 4,-66 45,38 93,80 93,139 0,33 -14,67 -43,67 C 49,104 28,74 27,41 Z m -42,-179 -12,595 c 8,5 18,8 27,8 9,0 19,-3 27,-8 L 20,112 c 25,21 58,34 91,34 52,0 89,-48 89,-102 0,-80 -86,-117 -147,-169 -15,-13 -24,-38 -45,-38 -13,0 -23,11 -23,25 z"
       fill="currentColor"
       id="path94" />
  </g>
  <g
     transform="translate(-0.087295,19.554814)"
     id="g96">
    <path
       style="font-size:1.7459px;font-family:'NewComputerModern Math';white-space:pre"
       d="m 0.78390912,-0.35092591 c 0,-0.2077621 -0.14316381,-0.3823521 -0.33172101,-0.3823521 -0.0838032,0 -0.1588769,0.0279344 -0.22172931,0.0890409 v -0.34045051 c 0.034918,0.0104754 0.0925327,0.0226967 0.14840151,0.0226967 0.2147457,0 0.3369587,-0.15887688 0.3369587,-0.18157358 0,-0.010475 -0.005238,-0.019205 -0.017459,-0.019205 0,0 -0.005238,0 -0.0139672,0.00524 -0.034918,0.015713 -0.1204671,0.050631 -0.2374424,0.050631 -0.069836,0 -0.1501474,-0.012221 -0.23220471,-0.048885 -0.0139672,-0.00524 -0.0209508,-0.00524 -0.0209508,-0.00524 -0.017459,0 -0.017459,0.013967 -0.017459,0.041902 v 0.51678639 c 0,0.0314262 0,0.0453934 0.0244426,0.0453934 0.0122213,0 0.0157131,-0.005238 0.0226967,-0.0157131 0.0192049,-0.0279344 0.0838032,-0.122213 0.22522111,-0.122213 0.0907868,0 0.1344343,0.0803114 0.1484015,0.1117376 0.0279344,0.0645983 0.0314262,0.1326884 0.0314262,0.2199834 0,0.0611065 0,0.16586051 -0.0419016,0.23918831 -0.0419016,0.0680901 -0.1064999,0.1134835 -0.1868113,0.1134835 -0.1274507,0 -0.22696701,-0.0925327 -0.25664731,-0.1955408 0.005238,0.001746 0.0104754,0.003492 0.0296803,0.003492 0.0576147,0 0.087295,-0.0436475 0.087295,-0.0855491 0,-0.0419016 -0.0296803,-0.0855491 -0.087295,-0.0855491 -0.0244426,0 -0.0855491,0.0122213 -0.0855491,0.0925327 0,0.15014741 0.1204671,0.31949971 0.31600791,0.31949971 0.2025244,0 0.38060621,-0.1676064 0.38060621,-0.38933632 z"
       id="text95"
       aria-label="5" />
  </g>
  <g
     transform="translate(51.801305,25.833214)"
     id="g97">
    <path
       id="polygon96"
       style="fill:currentColor;stroke:currentColor;stroke-width:0.08;stroke-linecap:round;stroke-linejoin:round"
       d="m 2.8442,-1.58 v 0.4 L 0.04,0.2 v -0.4 z" />
  </g>
  <g
     transform="translate(10.245405,17.143214)"
     id="g98">
    <path
       style="font-size:2.3308px;font-family:'NewComputerModern Math';white-space:pre"
       d="m 1.6478756,-0.78314882 c 0,-0.44285198 -0.314658,-0.80878758 -0.71322478,-0.80878758 H 0.081578 v 0.072255 h 0.0559392 c 0.17947161,0 0.18413321,0.025639 0.18413321,0.1095476 v 1.2283316 c 0,0.0839088 -0.004662,0.1095476 -0.18413321,0.1095476 H 0.081578 V 0 H 0.93465082 C 1.3262252,0 1.6478756,-0.34495841 1.6478756,-0.78314882 Z m -0.23308,0 c 0,0.25871881 -0.044285,0.39856681 -0.128194,0.51277601 -0.046616,0.0629316 -0.1794716,0.19811801 -0.41488238,0.19811801 h -0.2354108 c -0.10954761,0 -0.11420921,-0.0163156 -0.11420921,-0.093232 v -1.2609628 c 0,-0.076916 0.004662,-0.093232 0.11420921,-0.093232 h 0.23308 c 0.14450958,0 0.30533478,0.051278 0.42420558,0.2167644 0.1002244,0.1375172 0.1212016,0.33796598 0.1212016,0.51976838 z"
       id="text97"
       aria-label="D" />
  </g>
  <g
     transform="translate(12.020905,17.937814)"
     id="g99">
    <path
       style="font-size:1.648px;font-family:'NewComputerModern Math';white-space:pre"
       d="m 0.764672,-0.351024 c 0,-0.161504 -0.088992,-0.27192 -0.151616,-0.318064 L 0.723472,-0.860256 0.69216,-0.880032 0.583392,-0.688864 C 0.545488,-0.713584 0.482864,-0.738304 0.412,-0.738304 c -0.196112,0 -0.35432,0.174688 -0.35432,0.38728 0,0.13184 0.06592,0.242256 0.154912,0.30488 L 0.110416,0.13184 0.09888,0.14832 0.130192,0.168096 0.242256,-0.026368 c 0.037904,0.021424 0.09888,0.044496 0.168096,0.044496 0.196112,0 0.35432,-0.1648 0.35432,-0.369152 z M 0.557024,-0.646016 0.240608,-0.097232 c -0.060976,-0.069216 -0.069216,-0.163152 -0.069216,-0.25544 0,-0.069216 0.003296,-0.161504 0.047792,-0.235664 0.04944,-0.085696 0.13184,-0.113712 0.191168,-0.113712 0.06592,0 0.117008,0.029664 0.146672,0.056032 z m 0.093936,0.293344 c 0,0.054384 0,0.153264 -0.047792,0.229072 -0.047792,0.075808 -0.126896,0.105472 -0.191168,0.105472 -0.0412,0 -0.097232,-0.011536 -0.143376,-0.051088 l 0.314768,-0.547136 c 0.064272,0.075808 0.067568,0.196112 0.067568,0.26368 z"
       id="text98"
       aria-label="ø" />
  </g>
  <g
     transform="translate(12.840305,17.937814)"
     id="g100">
    <path
       style="font-size:1.648px;font-family:'NewComputerModern Math';white-space:pre"
       d="M 0.79928,-1.061312 H 0.398816 c -0.201056,0 -0.204352,-0.021424 -0.210944,-0.052736 h -0.0412 L 0.092288,-0.77456 h 0.0412 c 0.004944,-0.026368 0.019776,-0.130192 0.0412,-0.149968 0.011536,-0.009888 0.14008,-0.009888 0.161504,-0.009888 h 0.341136 l -0.184576,0.260384 c -0.14832,0.22248 -0.202704,0.451552 -0.202704,0.619648 0,0.01648 0,0.09064 0.075808,0.09064 0.075808,0 0.075808,-0.07416 0.075808,-0.09064 v -0.084048 c 0,-0.09064 0.004944,-0.18128 0.018128,-0.270272 0.006592,-0.037904 0.029664,-0.179632 0.102176,-0.281808 l 0.22248,-0.31312 C 0.79928,-1.023408 0.79928,-1.026704 0.79928,-1.061312 Z"
       id="text99"
       aria-label="7" />
  </g>
  <g
     transform="translate(10.245405,23.143214)"
     id="g101">
    <path
       transform="scale(0.004,-0.004)"
       d="M 0,-46 C 0,45 116,136 217,136 280,136 326,101 326,46 326,-41 216,-136 106,-136 39,-136 0,-97 0,-46 Z"
       fill="currentColor"
       id="path100" />
  </g>
  <g
     transform="translate(11.484605,22.643214)"
     id="g102">
    <path
       id="rect101"
       style="fill:currentColor"
       d="m -0.025,-2.7931001 h 0.05 c 0.02216,0 0.04,0.01784 0.04,0.04 v 3.02689996 c 0,0.02216 -0.01784,0.04 -0.04,0.04 h -0.05 c -0.02216,0 -0.04,-0.01784 -0.04,-0.04 V -2.7531001 c 0,-0.02216 0.01784,-0.04 0.04,-0.04 z" />
  </g>
  <g
     transform="translate(46.346905,24.643214)"
     id="g103">
    <path
       id="polygon102"
       style="fill:currentColor;stroke:currentColor;stroke-width:0.08;stroke-linecap:round;stroke-linejoin:round"
       d="m 2.5942,-0.01 v 0.4 L 0.04,0.2 v -0.4 z" />
  </g>
  <g
     transform="translate(12.499605,24.143214)"
     id="g104">
    <path
       transform="scale(0.004,-0.004)"
       d="M 0,-46 C 0,45 116,136 217,136 280,136 326,101 326,46 326,-41 216,-136 106,-136 39,-136 0,-97 0,-46 Z"
       fill="currentColor"
       id="path103" />
  </g>
  <g
     transform="translate(13.738805,22.643214)"
     id="g105">
    <path
       id="rect104"
       style="fill:currentColor"
       d="m -0.025,-2.2068999 h 0.05 c 0.02216,0 0.04,0.01784 0.04,0.04 v 3.4407 c 0,0.02216 -0.01784,0.04 -0.04,0.04 h -0.05 c -0.02216,0 -0.04,-0.01784 -0.04,-0.04 v -3.4407 c 0,-0.02216 0.01784,-0.04 0.04,-0.04 z" />
  </g>
  <g
     transform="translate(41.088505,26.833214)"
     id="g106">
    <path
       id="polygon105"
       style="fill:currentColor;stroke:currentColor;stroke-width:0.08;stroke-linecap:round;stroke-linejoin:round"
       d="m 2.8442,-1.58 v 0.4 L 0.04,0.2 v -0.4 z" />
  </g>
  <g
     transform="translate(14.753805,25.143214)"
     id="g107">
    <path
       transform="scale(0.004,-0.004)"
       d="M 0,-46 C 0,45 116,136 217,136 280,136 326,101 326,46 326,-41 216,-136 106,-136 39,-136 0,-97 0,-46 Z"
       fill="currentColor"
       id="path106" />
  </g>
  <g
     transform="translate(15.993005,22.643214)"
     id="g108">
    <path
       id="rect107"
       style="fill:currentColor"
       d="m -0.025,-0.18529999 h 0.05 c 0.02216,0 0.04,0.01784 0.04,0.04 V 2.2738 c 0,0.02216 -0.01784,0.04 -0.04,0.04 h -0.05 c -0.02216,0 -0.04,-0.01784 -0.04,-0.04 v -2.41909999 c 0,-0.02216 0.01784,-0.04 0.04,-0.04 z" />
  </g>
  <g
     transform="translate(26.879105,20.453214)"
     id="g109">
    <path
       id="polygon108"
       style="fill:currentColor;stroke:currentColor;stroke-width:0.08;stroke-linecap:round;stroke-linejoin:round"
       d="m 2.8442,-0.82 v 0.4 L 0.04,0.2 v -0.4 z" />
  </g>
  <g
     transform="translate(17.258005,25.643214)"
     id="g110">
    <path
       transform="scale(0.004,-0.004)"
       d="M 0,-46 C 0,45 116,136 217,136 280,136 326,101 326,46 326,-41 216,-136 106,-136 39,-136 0,-97 0,-46 Z"
       fill="currentColor"
       id="path109" />
  </g>
  <g
     transform="translate(18.497205,22.643214)"
     id="g111">
    <path
       id="rect110"
       style="fill:currentColor"
       d="m -0.025,-0.0047 h 0.05 c 0.02216,0 0.04,0.01784 0.04,0.04 v 2.7385 c 0,0.02216 -0.01784,0.04 -0.04,0.04 h -0.05 c -0.02216,0 -0.04,-0.01784 -0.04,-0.04 V 0.0353 c 0,-0.02216 0.01784,-0.04 0.04,-0.04 z" />
  </g>
  <g
     transform="translate(21.370705,22.643214)"
     id="g112">
    <path
       id="polygon111"
       style="fill:currentColor;stroke:currentColor;stroke-width:0.08;stroke-linecap:round;stroke-linejoin:round"
       d="m 2.8442,-0.39 v 0.4 L 0.04,0.2 v -0.4 z" />
  </g>
  <g
     transform="translate(20.196505,17.143214)"
     id="g113">
    <path
       style="font-size:2.3308px;font-family:'NewComputerModern Math';white-space:pre"
       d="m 1.713138,-0.56405361 v -0.0722548 l -0.2843576,0.006992 c -0.093232,0 -0.29135,0 -0.3752588,-0.006992 v 0.0722548 h 0.074586 c 0.209772,0 0.2167644,0.0256388 0.2167644,0.1118784 v 0.1491712 c 0,0.26104961 -0.2960116,0.28202681 -0.36127398,0.28202681 -0.151502,0 -0.61300041,-0.081578 -0.61300041,-0.77615642 0,-0.69690918 0.45916761,-0.77382558 0.59901561,-0.77382558 0.24939558,0 0.46149838,0.209772 0.50811438,0.5523996 0.00466,0.0326312 0.00466,0.0396236 0.037293,0.0396236 0.037293,0 0.037293,-0.006992 0.037293,-0.0559392 v -0.5523996 c 0,-0.039624 0,-0.055939 -0.025639,-0.055939 -0.00932,0 -0.018646,0 -0.037293,0.02797 l -0.11654,0.1724792 C 1.2982556,-1.5173508 1.1723924,-1.643214 0.94164322,-1.643214 c -0.43352881,0 -0.81111842,0.3682664 -0.81111842,0.84608038 0,0.47781401 0.37292801,0.84841122 0.81578002,0.84841122 0.17014838,0 0.35661238,-0.0606008 0.43585958,-0.198118 0.0303,0.0512776 0.1235324,0.1445096 0.1491712,0.1445096 0.020977,0 0.020977,-0.0186464 0.020977,-0.0536084 v -0.40555921 c 0,-0.0909012 0.00932,-0.1025552 0.1608254,-0.1025552 z"
       id="text112"
       aria-label="G" />
  </g>
  <g
     transform="translate(22.040205,17.937814)"
     id="g114">
    <path
       style="font-size:1.648px;font-family:'NewComputerModern Math';white-space:pre"
       d="M 0.79928,-1.061312 H 0.398816 c -0.201056,0 -0.204352,-0.021424 -0.210944,-0.052736 h -0.0412 L 0.092288,-0.77456 h 0.0412 c 0.004944,-0.026368 0.019776,-0.130192 0.0412,-0.149968 0.011536,-0.009888 0.14008,-0.009888 0.161504,-0.009888 h 0.341136 l -0.184576,0.260384 c -0.14832,0.22248 -0.202704,0.451552 -0.202704,0.619648 0,0.01648 0,0.09064 0.075808,0.09064 0.075808,0 0.075808,-0.07416 0.075808,-0.09064 v -0.084048 c 0,-0.09064 0.004944,-0.18128 0.018128,-0.270272 0.006592,-0.037904 0.029664,-0.179632 0.102176,-0.281808 l 0.22248,-0.31312 C 0.79928,-1.023408 0.79928,-1.026704 0.79928,-1.061312 Z"
       id="text113"
       aria-label="7" />
  </g>
  <g
     transform="translate(22.859705,17.937814)"
     id="g115">
    <path
       style="font-size:1.648px;font-family:'NewComputerModern Math';white-space:pre"
       d="m 0.548784,-0.529008 c 0,-0.121952 -0.09064,-0.229072 -0.225776,-0.229072 -0.092288,0 -0.158208,0.037904 -0.191168,0.069216 v -0.500992 c 0,-0.031312 0,-0.046144 -0.019776,-0.046144 -0.021424,0 -0.021424,0.013184 -0.021424,0.046144 v 1.179968 c 0,0.03296 0,0.046144 0.021424,0.046144 0.01648,0 0.187872,-0.118656 0.278512,-0.215888 0.09064,-0.097232 0.158208,-0.212592 0.158208,-0.349376 z m -0.133488,0 c 0,0.260384 -0.243904,0.46968 -0.283456,0.50264 v -0.538896 c 0,-0.037904 0,-0.072512 0.054384,-0.103824 0.051088,-0.029664 0.1236,-0.029664 0.1236,-0.029664 0.075808,0 0.105472,0.088992 0.105472,0.169744 z"
       id="text114"
       aria-label="♭" />
  </g>
  <g
     transform="translate(23.508405,17.937814)"
     id="g116">
    <path
       style="font-size:1.648px;font-family:'NewComputerModern Math';white-space:pre"
       d="m 0.753136,-0.542192 c 0,-0.443312 -0.18952,-0.555376 -0.336192,-0.555376 -0.09064,0 -0.171392,0.029664 -0.242256,0.103824 -0.067568,0.07416 -0.105472,0.143376 -0.105472,0.266976 0,0.206 0.145024,0.367504 0.3296,0.367504 0.100528,0 0.168096,-0.069216 0.206,-0.1648 v 0.052736 c 0,0.385632 -0.171392,0.46144 -0.266976,0.46144 -0.028016,0 -0.117008,-0.003296 -0.161504,-0.059328 0.072512,0 0.085696,-0.047792 0.085696,-0.075808 0,-0.051088 -0.039552,-0.075808 -0.075808,-0.075808 -0.026368,0 -0.075808,0.014832 -0.075808,0.079104 0,0.110416 0.088992,0.177984 0.229072,0.177984 0.212592,0 0.413648,-0.224128 0.413648,-0.578448 z M 0.60152,-0.693808 c 0,0.136784 -0.056032,0.29664 -0.201056,0.29664 -0.026368,0 -0.102176,0 -0.153264,-0.103824 -0.029664,-0.060976 -0.029664,-0.143376 -0.029664,-0.224128 0,-0.088992 0,-0.166448 0.034608,-0.227424 0.044496,-0.0824 0.10712,-0.103824 0.1648,-0.103824 0.075808,0 0.130192,0.056032 0.158208,0.130192 0.019776,0.052736 0.026368,0.15656 0.026368,0.232368 z"
       id="text115"
       aria-label="9" />
  </g>
  <g
     transform="translate(20.196505,26.143214)"
     id="g117">
    <path
       transform="scale(0.004,-0.004)"
       d="M 0,-46 C 0,45 116,136 217,136 280,136 326,101 326,46 326,-41 216,-136 106,-136 39,-136 0,-97 0,-46 Z"
       fill="currentColor"
       id="path116" />
  </g>
  <g
     transform="translate(21.435705,22.643214)"
     id="g118">
    <path
       id="rect117"
       style="fill:currentColor"
       d="m -0.025,-0.0043 h 0.05 c 0.02216,0 0.04,0.01784 0.04,0.04 v 3.2381 c 0,0.02216 -0.01784,0.04 -0.04,0.04 h -0.05 c -0.02216,0 -0.04,-0.01784 -0.04,-0.04 V 0.0357 c 0,-0.02216 0.01784,-0.04 0.04,-0.04 z" />
  </g>
  <g
     transform="translate(19.162205,26.143214)"
     id="g119">
    <path
       transform="scale(0.004,-0.004)"
       d="m -7,375 c 8,4 17,7 25,7 8,0 16,-3 24,-7 l -2,-183 106,20 h 3 c 10,0 18,-7 18,-17 l 7,-570 c -8,-4 -17,-7 -25,-7 -8,0 -16,3 -24,7 l 2,183 -106,-20 h -3 c -10,0 -18,7 -18,17 z M 131,112 39,95 l -3,-207 92,17 z"
       fill="currentColor"
       id="path118" />
  </g>
  <g
     transform="translate(15.928005,22.453214)"
     id="g120">
    <path
       id="polygon119"
       style="fill:currentColor;stroke:currentColor;stroke-width:0.08;stroke-linecap:round;stroke-linejoin:round"
       d="m 2.5942,-0.01 v 0.4 L 0.04,0.2 v -0.4 z" />
  </g>
  <g
     transform="translate(22.950705,25.143214)"
     id="g121">
    <path
       transform="scale(0.004,-0.004)"
       d="M 0,-46 C 0,45 116,136 217,136 280,136 326,101 326,46 326,-41 216,-136 106,-136 39,-136 0,-97 0,-46 Z"
       fill="currentColor"
       id="path120" />
  </g>
  <g
     transform="translate(24.189905,22.643214)"
     id="g122">
    <path
       id="rect121"
       style="fill:currentColor"
       d="m -0.025,-0.1857 h 0.05 c 0.02216,0 0.04,0.01784 0.04,0.04 v 2.4195 c 0,0.02216 -0.01784,0.04 -0.04,0.04 h -0.05 c -0.02216,0 -0.04,-0.01784 -0.04,-0.04 v -2.4195 c 0,-0.02216 0.01784,-0.04 0.04,-0.04 z" />
  </g>
  <g
     transform="translate(11.419605,19.833214)"
     id="g123">
    <path
       id="polygon122"
       style="fill:currentColor;stroke:currentColor;stroke-width:0.08;stroke-linecap:round;stroke-linejoin:round"
       d="m 2.3442,0.42 v 0.4 L 0.04,0.2 v -0.4 z" />
  </g>
  <g
     transform="translate(25.704905,24.143214)"
     id="g124">
    <path
       transform="scale(0.004,-0.004)"
       d="M 0,-46 C 0,45 116,136 217,136 280,136 326,101 326,46 326,-41 216,-136 106,-136 39,-136 0,-97 0,-46 Z"
       fill="currentColor"
       id="path123" />
  </g>
  <g
     transform="translate(26.944105,22.643214)"
     id="g125">
    <path
       id="rect124"
       style="fill:currentColor"
       d="m -0.025,-2.204 h 0.05 c 0.02216,0 0.04,0.01784 0.04,0.04 v 3.4378001 c 0,0.02216 -0.01784,0.04 -0.04,0.04 h -0.05 c -0.02216,0 -0.04,-0.01784 -0.04,-0.04 V -2.164 c 0,-0.02216 0.01784,-0.04 0.04,-0.04 z" />
  </g>
  <g
     transform="translate(28.459105,23.143214)"
     id="g126">
    <path
       transform="scale(0.004,-0.004)"
       d="M 0,-46 C 0,45 116,136 217,136 280,136 326,101 326,46 326,-41 216,-136 106,-136 39,-136 0,-97 0,-46 Z"
       fill="currentColor"
       id="path125" />
  </g>
  <g
     transform="translate(29.698305,22.643214)"
     id="g127">
    <path
       id="rect126"
       style="fill:currentColor"
       d="m -0.025,-2.796 h 0.05 c 0.02216,0 0.04,0.01784 0.04,0.04 v 3.0298001 c 0,0.02216 -0.01784,0.04 -0.04,0.04 h -0.05 c -0.02216,0 -0.04,-0.01784 -0.04,-0.04 V -2.756 c 0,-0.02216 0.01784,-0.04 0.04,-0.04 z" />
  </g>
  <g
     transform="translate(33.218605,17.143214)"
     id="g128">
    <path
       style="font-size:2.3308px;font-family:'NewComputerModern Math';white-space:pre"
       d="m 1.549982,-0.54307641 c 0,-0.023308 0,-0.0396236 -0.0303,-0.0396236 -0.025639,0 -0.025639,0.0139848 -0.02797,0.0372928 -0.018646,0.3333044 -0.268042,0.52443001 -0.52209918,0.52443001 -0.1421788,0 -0.59901561,-0.0792472 -0.59901561,-0.77382562 0,-0.69690918 0.45450601,-0.77615638 0.59668481,-0.77615638 0.25405718,0 0.46149838,0.2121028 0.50811438,0.5523996 0.00466,0.0326312 0.00466,0.0396236 0.037293,0.0396236 0.037293,0 0.037293,-0.006992 0.037293,-0.0559392 v -0.5523996 c 0,-0.039624 0,-0.055939 -0.025639,-0.055939 -0.00932,0 -0.018646,0 -0.037293,0.02797 l -0.11654,0.1724792 C 1.2842708,-1.526674 1.1654,-1.643214 0.94164322,-1.643214 c -0.43585961,0 -0.81111842,0.3705972 -0.81111842,0.84608038 0,0.48247561 0.37758961,0.84841122 0.81111842,0.84841122 0.37992038,0 0.60833878,-0.32398121 0.60833878,-0.59435401 z"
       id="text127"
       aria-label="C" />
  </g>
  <g
     transform="translate(34.891605,17.937814)"
     id="g129">
    <path
       style="font-size:1.648px;font-family:'NewComputerModern Math';white-space:pre"
       d="m 1.189856,-0.412 c 0,-0.018128 -0.014832,-0.03296 -0.03296,-0.03296 H 0.125248 c -0.018128,0 -0.03296,0.014832 -0.03296,0.03296 0,0.018128 0.014832,0.03296 0.03296,0.03296 h 1.031648 c 0.018128,0 0.03296,-0.014832 0.03296,-0.03296 z"
       id="text128"
       aria-label="−" />
  </g>
  <g
     transform="translate(33.218605,23.643214)"
     id="g130">
    <path
       transform="scale(0.004,-0.004)"
       d="m 347,-26 c 0,102 -89,139 -133,139 -23,0 -70,-10 -70,-89 0,-91 76,-136 132,-136 22,0 71,8 71,86 z M 245,136 C 389,136 491,71 491,0 491,-71 389,-136 245,-136 101,-136 0,-71 0,0 0,71 101,136 245,136 Z"
       fill="currentColor"
       id="path129" />
  </g>
  <g
     transform="translate(41.088505,17.143214)"
     id="g131">
    <path
       style="font-size:2.3308px;font-family:'NewComputerModern Math';white-space:pre"
       d="m 1.6478756,-0.78314882 c 0,-0.44285198 -0.314658,-0.80878758 -0.71322478,-0.80878758 H 0.081578 v 0.072255 h 0.0559392 c 0.17947161,0 0.18413321,0.025639 0.18413321,0.1095476 v 1.2283316 c 0,0.0839088 -0.004662,0.1095476 -0.18413321,0.1095476 H 0.081578 V 0 H 0.93465082 C 1.3262252,0 1.6478756,-0.34495841 1.6478756,-0.78314882 Z m -0.23308,0 c 0,0.25871881 -0.044285,0.39856681 -0.128194,0.51277601 -0.046616,0.0629316 -0.1794716,0.19811801 -0.41488238,0.19811801 h -0.2354108 c -0.10954761,0 -0.11420921,-0.0163156 -0.11420921,-0.093232 v -1.2609628 c 0,-0.076916 0.004662,-0.093232 0.11420921,-0.093232 h 0.23308 c 0.14450958,0 0.30533478,0.051278 0.42420558,0.2167644 0.1002244,0.1375172 0.1212016,0.33796598 0.1212016,0.51976838 z"
       id="text130"
       aria-label="D" />
  </g>
  <g
     transform="translate(42.864005,17.937814)"
     id="g132">
    <path
       style="font-size:1.648px;font-family:'NewComputerModern Math';white-space:pre"
       d="m 0.764672,-0.351024 c 0,-0.161504 -0.088992,-0.27192 -0.151616,-0.318064 L 0.723472,-0.860256 0.69216,-0.880032 0.583392,-0.688864 C 0.545488,-0.713584 0.482864,-0.738304 0.412,-0.738304 c -0.196112,0 -0.35432,0.174688 -0.35432,0.38728 0,0.13184 0.06592,0.242256 0.154912,0.30488 L 0.110416,0.13184 0.09888,0.14832 0.130192,0.168096 0.242256,-0.026368 c 0.037904,0.021424 0.09888,0.044496 0.168096,0.044496 0.196112,0 0.35432,-0.1648 0.35432,-0.369152 z M 0.557024,-0.646016 0.240608,-0.097232 c -0.060976,-0.069216 -0.069216,-0.163152 -0.069216,-0.25544 0,-0.069216 0.003296,-0.161504 0.047792,-0.235664 0.04944,-0.085696 0.13184,-0.113712 0.191168,-0.113712 0.06592,0 0.117008,0.029664 0.146672,0.056032 z m 0.093936,0.293344 c 0,0.054384 0,0.153264 -0.047792,0.229072 -0.047792,0.075808 -0.126896,0.105472 -0.191168,0.105472 -0.0412,0 -0.097232,-0.011536 -0.143376,-0.051088 l 0.314768,-0.547136 c 0.064272,0.075808 0.067568,0.196112 0.067568,0.26368 z"
       id="text131"
       aria-label="ø" />
  </g>
  <g
     transform="translate(43.683405,17.937814)"
     id="g133">
    <path
       style="font-size:1.648px;font-family:'NewComputerModern Math';white-space:pre"
       d="M 0.79928,-1.061312 H 0.398816 c -0.201056,0 -0.204352,-0.021424 -0.210944,-0.052736 h -0.0412 L 0.092288,-0.77456 h 0.0412 c 0.004944,-0.026368 0.019776,-0.130192 0.0412,-0.149968 0.011536,-0.009888 0.14008,-0.009888 0.161504,-0.009888 h 0.341136 l -0.184576,0.260384 c -0.14832,0.22248 -0.202704,0.451552 -0.202704,0.619648 0,0.01648 0,0.09064 0.075808,0.09064 0.075808,0 0.075808,-0.07416 0.075808,-0.09064 v -0.084048 c 0,-0.09064 0.004944,-0.18128 0.018128,-0.270272 0.006592,-0.037904 0.029664,-0.179632 0.102176,-0.281808 l 0.22248,-0.31312 C 0.79928,-1.023408 0.79928,-1.026704 0.79928,-1.061312 Z"
       id="text132"
       aria-label="7" />
  </g>
  <g
     transform="translate(41.088505,24.143214)"
     id="g134">
    <path
       transform="scale(0.004,-0.004)"
       d="M 0,-46 C 0,45 116,136 217,136 280,136 326,101 326,46 326,-41 216,-136 106,-136 39,-136 0,-97 0,-46 Z"
       fill="currentColor"
       id="path133" />
  </g>
  <g
     transform="translate(41.153505,22.643214)"
     id="g135">
    <path
       id="rect134"
       style="fill:currentColor"
       d="m -0.025,1.6862 h 0.05 c 0.02216,0 0.04,0.01784 0.04,0.04 v 2.3927001 c 0,0.02216 -0.01784,0.04 -0.04,0.04 h -0.05 c -0.02216,0 -0.04,-0.01784 -0.04,-0.04 V 1.7262 c 0,-0.02216 0.01784,-0.04 0.04,-0.04 z" />
  </g>
  <g
     transform="translate(57.059705,23.453214)"
     id="g136">
    <path
       id="polygon135"
       style="fill:currentColor;stroke:currentColor;stroke-width:0.08;stroke-linecap:round;stroke-linejoin:round"
       d="m 2.5942,-0.01 v 0.4 L 0.04,0.2 v -0.4 z" />
  </g>
  <g
     transform="translate(43.842705,21.143214)"
     id="g137">
    <path
       transform="scale(0.004,-0.004)"
       d="M 0,-46 C 0,45 116,136 217,136 280,136 326,101 326,46 326,-41 216,-136 106,-136 39,-136 0,-97 0,-46 Z"
       fill="currentColor"
       id="path136" />
  </g>
  <g
     transform="translate(43.907705,22.643214)"
     id="g138">
    <path
       id="rect137"
       style="fill:currentColor"
       d="m -0.025,-1.3138 h 0.05 c 0.02216,0 0.04,0.01784 0.04,0.04 v 4.0749001 c 0,0.02216 -0.01784,0.04 -0.04,0.04 h -0.05 c -0.02216,0 -0.04,-0.01784 -0.04,-0.04 V -1.2738 c 0,-0.02216 0.01784,-0.04 0.04,-0.04 z" />
  </g>
  <g
     transform="translate(46.346905,21.643214)"
     id="g139">
    <path
       transform="scale(0.004,-0.004)"
       d="M 0,-46 C 0,45 116,136 217,136 280,136 326,101 326,46 326,-41 216,-136 106,-136 39,-136 0,-97 0,-46 Z"
       fill="currentColor"
       id="path138" />
  </g>
  <g
     transform="translate(46.411905,22.643214)"
     id="g140">
    <path
       id="rect139"
       style="fill:currentColor"
       d="m -0.025,-0.81379998 h 0.05 c 0.02216,0 0.04,0.01784 0.04,0.04 V 1.9647001 c 0,0.02216 -0.01784,0.04 -0.04,0.04 h -0.05 c -0.02216,0 -0.04,-0.01784 -0.04,-0.04 v -2.73850008 c 0,-0.02216 0.01784,-0.04 0.04,-0.04 z" />
  </g>
  <g
     transform="translate(48.851105,22.143214)"
     id="g141">
    <path
       transform="scale(0.004,-0.004)"
       d="M 0,-46 C 0,45 116,136 217,136 280,136 326,101 326,46 326,-41 216,-136 106,-136 39,-136 0,-97 0,-46 Z"
       fill="currentColor"
       id="path140" />
  </g>
  <g
     transform="translate(48.916105,22.643214)"
     id="g142">
    <path
       id="rect141"
       style="fill:currentColor"
       d="m -0.025,-0.31380001 h 0.05 c 0.02216,0 0.04,0.01784 0.04,0.04 V 2.1453 c 0,0.02216 -0.01784,0.04 -0.04,0.04 h -0.05 c -0.02216,0 -0.04,-0.01784 -0.04,-0.04 v -2.41910001 c 0,-0.02216 0.01784,-0.04 0.04,-0.04 z" />
  </g>
  <g
     transform="translate(51.801305,17.143214)"
     id="g143">
    <path
       style="font-size:2.3308px;font-family:'NewComputerModern Math';white-space:pre"
       d="m 1.713138,-0.56405361 v -0.0722548 l -0.2843576,0.006992 c -0.093232,0 -0.29135,0 -0.3752588,-0.006992 v 0.0722548 h 0.074586 c 0.209772,0 0.2167644,0.0256388 0.2167644,0.1118784 v 0.1491712 c 0,0.26104961 -0.2960116,0.28202681 -0.36127398,0.28202681 -0.151502,0 -0.61300041,-0.081578 -0.61300041,-0.77615642 0,-0.69690918 0.45916761,-0.77382558 0.59901561,-0.77382558 0.24939558,0 0.46149838,0.209772 0.50811438,0.5523996 0.00466,0.0326312 0.00466,0.0396236 0.037293,0.0396236 0.037293,0 0.037293,-0.006992 0.037293,-0.0559392 v -0.5523996 c 0,-0.039624 0,-0.055939 -0.025639,-0.055939 -0.00932,0 -0.018646,0 -0.037293,0.02797 l -0.11654,0.1724792 C 1.2982556,-1.5173508 1.1723924,-1.643214 0.94164322,-1.643214 c -0.43352881,0 -0.81111842,0.3682664 -0.81111842,0.84608038 0,0.47781401 0.37292801,0.84841122 0.81578002,0.84841122 0.17014838,0 0.35661238,-0.0606008 0.43585958,-0.198118 0.0303,0.0512776 0.1235324,0.1445096 0.1491712,0.1445096 0.020977,0 0.020977,-0.0186464 0.020977,-0.0536084 v -0.40555921 c 0,-0.0909012 0.00932,-0.1025552 0.1608254,-0.1025552 z"
       id="text142"
       aria-label="G" />
  </g>
  <g
     transform="translate(53.645005,17.937814)"
     id="g144">
    <path
       style="font-size:1.648px;font-family:'NewComputerModern Math';white-space:pre"
       d="M 0.79928,-1.061312 H 0.398816 c -0.201056,0 -0.204352,-0.021424 -0.210944,-0.052736 h -0.0412 L 0.092288,-0.77456 h 0.0412 c 0.004944,-0.026368 0.019776,-0.130192 0.0412,-0.149968 0.011536,-0.009888 0.14008,-0.009888 0.161504,-0.009888 h 0.341136 l -0.184576,0.260384 c -0.14832,0.22248 -0.202704,0.451552 -0.202704,0.619648 0,0.01648 0,0.09064 0.075808,0.09064 0.075808,0 0.075808,-0.07416 0.075808,-0.09064 v -0.084048 c 0,-0.09064 0.004944,-0.18128 0.018128,-0.270272 0.006592,-0.037904 0.029664,-0.179632 0.102176,-0.281808 l 0.22248,-0.31312 C 0.79928,-1.023408 0.79928,-1.026704 0.79928,-1.061312 Z"
       id="text143"
       aria-label="7" />
  </g>
  <g
     transform="translate(54.464505,17.937814)"
     id="g145">
    <path
       style="font-size:1.648px;font-family:'NewComputerModern Math';white-space:pre"
       d="m 0.548784,-0.529008 c 0,-0.121952 -0.09064,-0.229072 -0.225776,-0.229072 -0.092288,0 -0.158208,0.037904 -0.191168,0.069216 v -0.500992 c 0,-0.031312 0,-0.046144 -0.019776,-0.046144 -0.021424,0 -0.021424,0.013184 -0.021424,0.046144 v 1.179968 c 0,0.03296 0,0.046144 0.021424,0.046144 0.01648,0 0.187872,-0.118656 0.278512,-0.215888 0.09064,-0.097232 0.158208,-0.212592 0.158208,-0.349376 z m -0.133488,0 c 0,0.260384 -0.243904,0.46968 -0.283456,0.50264 v -0.538896 c 0,-0.037904 0,-0.072512 0.054384,-0.103824 0.051088,-0.029664 0.1236,-0.029664 0.1236,-0.029664 0.075808,0 0.105472,0.088992 0.105472,0.169744 z"
       id="text144"
       aria-label="♭" />
  </g>
  <g
     transform="translate(55.113205,17.937814)"
     id="g146">
    <path
       style="font-size:1.648px;font-family:'NewComputerModern Math';white-space:pre"
       d="m 0.753136,-0.542192 c 0,-0.443312 -0.18952,-0.555376 -0.336192,-0.555376 -0.09064,0 -0.171392,0.029664 -0.242256,0.103824 -0.067568,0.07416 -0.105472,0.143376 -0.105472,0.266976 0,0.206 0.145024,0.367504 0.3296,0.367504 0.100528,0 0.168096,-0.069216 0.206,-0.1648 v 0.052736 c 0,0.385632 -0.171392,0.46144 -0.266976,0.46144 -0.028016,0 -0.117008,-0.003296 -0.161504,-0.059328 0.072512,0 0.085696,-0.047792 0.085696,-0.075808 0,-0.051088 -0.039552,-0.075808 -0.075808,-0.075808 -0.026368,0 -0.075808,0.014832 -0.075808,0.079104 0,0.110416 0.088992,0.177984 0.229072,0.177984 0.212592,0 0.413648,-0.224128 0.413648,-0.578448 z M 0.60152,-0.693808 c 0,0.136784 -0.056032,0.29664 -0.201056,0.29664 -0.026368,0 -0.102176,0 -0.153264,-0.103824 -0.029664,-0.060976 -0.029664,-0.143376 -0.029664,-0.224128 0,-0.088992 0,-0.166448 0.034608,-0.227424 0.044496,-0.0824 0.10712,-0.103824 0.1648,-0.103824 0.075808,0 0.130192,0.056032 0.158208,0.130192 0.019776,0.052736 0.026368,0.15656 0.026368,0.232368 z"
       id="text145"
       aria-label="9" />
  </g>
  <g
     transform="translate(51.801305,22.643214)"
     id="g147">
    <path
       transform="scale(0.004,-0.004)"
       d="M 0,-46 C 0,45 116,136 217,136 280,136 326,101 326,46 326,-41 216,-136 106,-136 39,-136 0,-97 0,-46 Z"
       fill="currentColor"
       id="path146" />
  </g>
  <g
     transform="translate(51.866305,22.643214)"
     id="g148">
    <path
       id="rect147"
       style="fill:currentColor"
       d="m -0.025,0.18619999 h 0.05 c 0.02216,0 0.04,0.01784 0.04,0.04 V 3.1189001 c 0,0.02216 -0.01784,0.04 -0.04,0.04 h -0.05 c -0.02216,0 -0.04,-0.01784 -0.04,-0.04 V 0.22619999 c 0,-0.02216 0.01784,-0.04 0.04,-0.04 z" />
  </g>
  <g
     transform="translate(50.755305,22.643214)"
     id="g149">
    <path
       transform="scale(0.004,-0.004)"
       d="m -7,375 c 8,4 17,7 25,7 8,0 16,-3 24,-7 l -2,-183 106,20 h 3 c 10,0 18,-7 18,-17 l 7,-570 c -8,-4 -17,-7 -25,-7 -8,0 -16,3 -24,7 l 2,183 -106,-20 h -3 c -10,0 -18,7 -18,17 z M 131,112 39,95 l -3,-207 92,17 z"
       fill="currentColor"
       id="path148" />
  </g>
  <g
     transform="translate(54.555505,19.643214)"
     id="g150">
    <path
       transform="scale(0.004,-0.004)"
       d="M 0,-46 C 0,45 116,136 217,136 280,136 326,101 326,46 326,-41 216,-136 106,-136 39,-136 0,-97 0,-46 Z"
       fill="currentColor"
       id="path149" />
  </g>
  <g
     transform="translate(54.620505,22.643214)"
     id="g151">
    <path
       id="rect150"
       style="fill:currentColor"
       d="m -0.025,-2.8138001 h 0.05 c 0.02216,0 0.04,0.01784 0.04,0.04 V 1.8011 c 0,0.02216 -0.01784,0.04 -0.04,0.04 h -0.05 c -0.02216,0 -0.04,-0.01784 -0.04,-0.04 v -4.5749001 c 0,-0.02216 0.01784,-0.04 0.04,-0.04 z" />
  </g>
  <g
     transform="translate(57.059705,20.143214)"
     id="g152">
    <path
       transform="scale(0.004,-0.004)"
       d="M 0,-46 C 0,45 116,136 217,136 280,136 326,101 326,46 326,-41 216,-136 106,-136 39,-136 0,-97 0,-46 Z"
       fill="currentColor"
       id="path151" />
  </g>
  <g
     transform="translate(57.124705,22.643214)"
     id="g153">
    <path
       id="rect152"
       style="fill:currentColor"
       d="m -0.025,-2.3138001 h 0.05 c 0.02216,0 0.04,0.01784 0.04,0.04 v 3.04849999 c 0,0.02216 -0.01784,0.04 -0.04,0.04 h -0.05 c -0.02216,0 -0.04,-0.01784 -0.04,-0.04 V -2.2738001 c 0,-0.02216 0.01784,-0.04 0.04,-0.04 z" />
  </g>
  <g
     transform="translate(59.563905,20.643214)"
     id="g154">
    <path
       transform="scale(0.004,-0.004)"
       d="M 0,-46 C 0,45 116,136 217,136 280,136 326,101 326,46 326,-41 216,-136 106,-136 39,-136 0,-97 0,-46 Z"
       fill="currentColor"
       id="path153" />
  </g>
  <g
     transform="translate(59.628905,22.643214)"
     id="g155">
    <path
       id="rect154"
       style="fill:currentColor"
       d="m -0.025,-1.8138 h 0.05 c 0.02216,0 0.04,0.01784 0.04,0.04 v 2.72909994 c 0,0.02216 -0.01784,0.04 -0.04,0.04 h -0.05 c -0.02216,0 -0.04,-0.01784 -0.04,-0.04 V -1.7738 c 0,-0.02216 0.01784,-0.04 0.04,-0.04 z" />
  </g>
  <g
     transform="translate(63.921405,17.143214)"
     id="g156">
    <path
       style="font-size:2.3308px;font-family:'NewComputerModern Math';white-space:pre"
       d="m 1.549982,-0.54307641 c 0,-0.023308 0,-0.0396236 -0.0303,-0.0396236 -0.025639,0 -0.025639,0.0139848 -0.02797,0.0372928 -0.018646,0.3333044 -0.268042,0.52443001 -0.52209918,0.52443001 -0.1421788,0 -0.59901561,-0.0792472 -0.59901561,-0.77382562 0,-0.69690918 0.45450601,-0.77615638 0.59668481,-0.77615638 0.25405718,0 0.46149838,0.2121028 0.50811438,0.5523996 0.00466,0.0326312 0.00466,0.0396236 0.037293,0.0396236 0.037293,0 0.037293,-0.006992 0.037293,-0.0559392 v -0.5523996 c 0,-0.039624 0,-0.055939 -0.025639,-0.055939 -0.00932,0 -0.018646,0 -0.037293,0.02797 l -0.11654,0.1724792 C 1.2842708,-1.526674 1.1654,-1.643214 0.94164322,-1.643214 c -0.43585961,0 -0.81111842,0.3705972 -0.81111842,0.84608038 0,0.48247561 0.37758961,0.84841122 0.81111842,0.84841122 0.37992038,0 0.60833878,-0.32398121 0.60833878,-0.59435401 z"
       id="text155"
       aria-label="C" />
  </g>
  <g
     transform="translate(65.594405,17.937814)"
     id="g157">
    <path
       style="font-size:1.648px;font-family:'NewComputerModern Math';white-space:pre"
       d="m 1.189856,-0.412 c 0,-0.018128 -0.014832,-0.03296 -0.03296,-0.03296 H 0.125248 c -0.018128,0 -0.03296,0.014832 -0.03296,0.03296 0,0.018128 0.014832,0.03296 0.03296,0.03296 h 1.031648 c 0.018128,0 0.03296,-0.014832 0.03296,-0.03296 z"
       id="text156"
       aria-label="−" />
  </g>
  <g
     transform="translate(63.921405,21.143214)"
     id="g158">
    <path
       transform="scale(0.004,-0.004)"
       d="m 347,-26 c 0,102 -89,139 -133,139 -23,0 -70,-10 -70,-89 0,-91 76,-136 132,-136 22,0 71,8 71,86 z M 245,136 C 389,136 491,71 491,0 491,-71 389,-136 245,-136 101,-136 0,-71 0,0 0,71 101,136 245,136 Z"
       fill="currentColor"
       id="path157" />
  </g>
</svg>
