<?xml version="1.0" encoding="UTF-8" standalone="no"?>
<svg
   version="1.2"
   width="111.61289mm"
   height="17.729034mm"
   viewBox="0 0 63.513901 10.0888"
   id="svg78"
   sodipodi:docname="fig_059.svg"
   xmlns:inkscape="http://www.inkscape.org/namespaces/inkscape"
   xmlns:sodipodi="http://sodipodi.sourceforge.net/DTD/sodipodi-0.dtd"
   xmlns="http://www.w3.org/2000/svg"
   xmlns:svg="http://www.w3.org/2000/svg">
  <defs
     id="defs78" />
  <sodipodi:namedview
     id="namedview78"
     pagecolor="#505050"
     bordercolor="#eeeeee"
     borderopacity="1"
     inkscape:showpageshadow="0"
     inkscape:pageopacity="0"
     inkscape:pagecheckerboard="0"
     inkscape:deskcolor="#505050"
     inkscape:document-units="mm" />
  <style
     type="text/css"
     id="style1"><![CDATA[
tspan { white-space: pre; }
]]></style>
  <g
     transform="translate(63.3239,8.0388)"
     id="g1">
    <rect
       x="0"
       y="-2"
       width="0.19"
       height="4"
       ry="0.0000"
       fill="currentColor"
       id="rect1" />
  </g>
  <g
     transform="translate(62.8339,8.0388)"
     id="g2">
    <rect
       x="0"
       y="-2"
       width="0.19"
       height="4"
       ry="0.0000"
       fill="currentColor"
       id="rect2" />
  </g>
  <g
     transform="translate(0,5.0388)"
     id="g3">
    <rect
       x="50.353699"
       y="-0.1"
       width="1.9563"
       height="0.2"
       ry="0.1"
       fill="currentColor"
       id="rect3" />
  </g>
  <g
     transform="translate(0,4.0388)"
     id="g4">
    <rect
       x="46.939098"
       y="-0.1"
       width="1.8053"
       height="0.2"
       ry="0.1"
       fill="currentColor"
       id="rect4" />
  </g>
  <g
     transform="translate(0,5.0388)"
     id="g5">
    <rect
       x="46.787998"
       y="-0.1"
       width="1.9563"
       height="0.2"
       ry="0.1"
       fill="currentColor"
       id="rect5" />
  </g>
  <g
     transform="translate(0,4.0388)"
     id="g6">
    <rect
       x="43.750198"
       y="-0.1"
       width="1.8200001"
       height="0.2"
       ry="0.1"
       fill="currentColor"
       id="rect6" />
  </g>
  <g
     transform="translate(0,5.0388)"
     id="g7">
    <rect
       x="43.6138"
       y="-0.1"
       width="1.9563"
       height="0.2"
       ry="0.1"
       fill="currentColor"
       id="rect7" />
  </g>
  <g
     transform="translate(0,4.0388)"
     id="g8">
    <rect
       x="40.663601"
       y="-0.1"
       width="1.9563"
       height="0.2"
       ry="0.1"
       fill="currentColor"
       id="rect8" />
  </g>
  <g
     transform="translate(0,5.0388)"
     id="g9">
    <rect
       x="40.663601"
       y="-0.1"
       width="1.9563"
       height="0.2"
       ry="0.1"
       fill="currentColor"
       id="rect9" />
  </g>
  <g
     transform="translate(0,5.0388)"
     id="g10">
    <rect
       x="32.230999"
       y="-0.1"
       width="1.9563"
       height="0.2"
       ry="0.1"
       fill="currentColor"
       id="rect10" />
  </g>
  <g
     transform="translate(0,5.0388)"
     id="g11">
    <rect
       x="29.726801"
       y="-0.1"
       width="1.9563"
       height="0.2"
       ry="0.1"
       fill="currentColor"
       id="rect11" />
  </g>
  <g
     transform="translate(0,4.0388)"
     id="g12">
    <rect
       x="27.373699"
       y="-0.1"
       width="1.8052"
       height="0.2"
       ry="0.1"
       fill="currentColor"
       id="rect12" />
  </g>
  <g
     transform="translate(0,5.0388)"
     id="g13">
    <rect
       x="27.222601"
       y="-0.1"
       width="1.9563"
       height="0.2"
       ry="0.1"
       fill="currentColor"
       id="rect13" />
  </g>
  <g
     transform="translate(0,5.0388)"
     id="g14">
    <rect
       x="18.964199"
       y="-0.1"
       width="1.9563"
       height="0.2"
       ry="0.1"
       fill="currentColor"
       id="rect14" />
  </g>
  <g
     transform="translate(0,5.0388)"
     id="g15">
    <rect
       x="16.4599"
       y="-0.1"
       width="1.9563"
       height="0.2"
       ry="0.1"
       fill="currentColor"
       id="rect15" />
  </g>
  <g
     transform="translate(0,4.0388)"
     id="g16">
    <rect
       x="13.9558"
       y="-0.1"
       width="1.9563"
       height="0.2"
       ry="0.1"
       fill="currentColor"
       id="rect16" />
  </g>
  <g
     transform="translate(0,5.0388)"
     id="g17">
    <rect
       x="13.9558"
       y="-0.1"
       width="1.9563"
       height="0.2"
       ry="0.1"
       fill="currentColor"
       id="rect17" />
  </g>
  <g
     transform="translate(0,5.0388)"
     id="g18">
    <rect
       x="11.4515"
       y="-0.1"
       width="1.9563"
       height="0.2"
       ry="0.1"
       fill="currentColor"
       id="rect18" />
  </g>
  <g
     transform="translate(0,4.0388)"
     id="g19">
    <rect
       x="9.0984001"
       y="-0.1"
       width="1.8052"
       height="0.2"
       ry="0.1"
       fill="currentColor"
       id="rect19" />
  </g>
  <g
     transform="translate(0,5.0388)"
     id="g20">
    <rect
       x="8.9474001"
       y="-0.1"
       width="1.9563"
       height="0.2"
       ry="0.1"
       fill="currentColor"
       id="rect20" />
  </g>
  <g
     transform="translate(0,10.0388)"
     id="g21">
    <line
       stroke-linejoin="round"
       stroke-linecap="round"
       stroke-width="0.1"
       stroke="currentColor"
       x1="0.050000001"
       y1="0"
       x2="63.463902"
       y2="0"
       id="line20" />
  </g>
  <g
     transform="translate(0,9.0388)"
     id="g22">
    <line
       stroke-linejoin="round"
       stroke-linecap="round"
       stroke-width="0.1"
       stroke="currentColor"
       x1="0.050000001"
       y1="0"
       x2="63.463902"
       y2="0"
       id="line21" />
  </g>
  <g
     transform="translate(0,8.0388)"
     id="g23">
    <line
       stroke-linejoin="round"
       stroke-linecap="round"
       stroke-width="0.1"
       stroke="currentColor"
       x1="0.050000001"
       y1="0"
       x2="63.463902"
       y2="0"
       id="line22" />
  </g>
  <g
     transform="translate(0,7.0388)"
     id="g24">
    <line
       stroke-linejoin="round"
       stroke-linecap="round"
       stroke-width="0.1"
       stroke="currentColor"
       x1="0.050000001"
       y1="0"
       x2="63.463902"
       y2="0"
       id="line23" />
  </g>
  <g
     transform="translate(0,6.0388)"
     id="g25">
    <line
       stroke-linejoin="round"
       stroke-linecap="round"
       stroke-width="0.1"
       stroke="currentColor"
       x1="0.050000001"
       y1="0"
       x2="63.463902"
       y2="0"
       id="line24" />
  </g>
  <g
     transform="translate(49.4755,8.0388)"
     id="g26">
    <rect
       x="0"
       y="-2"
       width="0.19"
       height="4"
       ry="0.0000"
       fill="currentColor"
       id="rect25" />
  </g>
  <g
     transform="translate(26.3444,8.0388)"
     id="g27">
    <rect
       x="0"
       y="-2"
       width="0.19"
       height="4"
       ry="0.0000"
       fill="currentColor"
       id="rect26" />
  </g>
  <g
     transform="translate(38.2355,8.8488)"
     id="g28">
    <polygon
       stroke-linejoin="round"
       stroke-linecap="round"
       stroke-width="0.08"
       fill="currentColor"
       stroke="currentColor"
       points="0.04,0.2 0.04,-0.2 2.8442,-0.82 2.8442,-0.42 "
       id="polygon27" />
  </g>
  <g
     transform="translate(32.5571,8.0388)"
     id="g29">
    <polygon
       stroke-linejoin="round"
       stroke-linecap="round"
       stroke-width="0.08"
       fill="currentColor"
       stroke="currentColor"
       points="0.04,0.2 0.04,-0.2 3.2642,-0.01 3.2642,0.39 "
       id="polygon28" />
  </g>
  <g
     transform="translate(9.2734,2.0388)"
     id="g30">
    <text
       font-family="'New Computer Modern Math'"
       font-size="2.3308px"
       text-anchor="start"
       fill="currentColor"
       id="text29"><tspan
         id="tspan29">C</tspan></text>
  </g>
  <g
     transform="translate(10.9464,2.8334)"
     id="g31">
    <text
       font-family="'New Computer Modern Math'"
       font-size="1.648px"
       text-anchor="start"
       fill="currentColor"
       id="text30"><tspan
         id="tspan30">−</tspan></text>
  </g>
  <g
     transform="translate(12.2439,2.8334)"
     id="g32">
    <text
       font-family="'New Computer Modern Math'"
       font-size="1.648px"
       text-anchor="start"
       fill="currentColor"
       id="text31"><tspan
         id="tspan31">7</tspan></text>
  </g>
  <g
     transform="translate(9.2734,4.0388)"
     id="g33">
    <path
       transform="scale(0.004,-0.004)"
       d="M 0,-46 C 0,45 116,136 217,136 280,136 326,101 326,46 326,-41 216,-136 106,-136 39,-136 0,-97 0,-46 Z"
       fill="currentColor"
       id="path32" />
  </g>
  <g
     transform="translate(0.8,7.0388)"
     id="g34">
    <path
       transform="scale(0.004,-0.004)"
       d="m 557,-125 c 0,28 23,51 51,51 28,0 51,-23 51,-51 0,-28 -23,-51 -51,-51 -28,0 -51,23 -51,51 z m 0,250 c 0,28 23,51 51,51 28,0 51,-23 51,-51 0,-28 -23,-51 -51,-51 -28,0 -51,23 -51,51 z M 232,263 c 172,0 293,-88 293,-251 0,-263 -263,-414 -516,-521 -3,-3 -6,-4 -9,-4 -7,0 -13,6 -13,13 0,3 1,6 4,9 202,118 412,265 412,493 0,120 -63,235 -171,235 -74,0 -129,-54 -154,-126 11,5 22,8 34,8 C 167,119 212,74 212,19 212,-39 168,-87 112,-87 52,-87 0,-40 0,19 0,152 102,263 232,263 Z"
       fill="currentColor"
       id="path33" />
  </g>
  <g
     transform="translate(5.0034,8.0388)"
     id="g35">
    <path
       transform="scale(0.004,-0.004)"
       d="M 433,-89 C 433,-111 383,-263 250,-263 191,-263 0,-244 0,0 0,62 18,262 250,262 366,262 426,156 426,99 426,59 396,27 359,27 c -31,0 -75,25 -75,75 0,38 27,77 72,77 4,0 9,0 14,-1 -28,37 -72,59 -120,59 C 144,237 137,164 137,51 V 0 -51 c 0,-113 7,-187 113,-187 80,0 139,70 158,151 2,7 7,10 12,10 6,0 13,-4 13,-12 z"
       fill="currentColor"
       id="path34" />
  </g>
  <g
     transform="translate(9.3384,8.0388)"
     id="g36">
    <rect
       x="-0.064999998"
       y="-3.8138001"
       width="0.13"
       height="3.8185"
       ry="0.039999999"
       fill="currentColor"
       id="rect35" />
  </g>
  <g
     transform="translate(8.1234,4.0388)"
     id="g37">
    <path
       transform="scale(0.004,-0.004)"
       d="m 27,41 -1,-66 v -11 c 0,-22 1,-44 4,-66 45,38 93,80 93,139 0,33 -14,67 -43,67 C 49,104 28,74 27,41 Z m -42,-179 -12,595 c 8,5 18,8 27,8 9,0 19,-3 27,-8 L 20,112 c 25,21 58,34 91,34 52,0 89,-48 89,-102 0,-80 -86,-117 -147,-169 -15,-13 -24,-38 -45,-38 -13,0 -23,11 -23,25 z"
       fill="currentColor"
       id="path36" />
  </g>
  <g
     transform="translate(27.5487,8.0388)"
     id="g38">
    <polygon
       stroke-linejoin="round"
       stroke-linecap="round"
       stroke-width="0.08"
       fill="currentColor"
       stroke="currentColor"
       points="0.04,0.2 0.04,-0.2 2.5942,-0.01 2.5942,0.39 "
       id="polygon37" />
  </g>
  <g
     transform="translate(11.7776,4.5388)"
     id="g39">
    <path
       transform="scale(0.004,-0.004)"
       d="M 0,-46 C 0,45 116,136 217,136 280,136 326,101 326,46 326,-41 216,-136 106,-136 39,-136 0,-97 0,-46 Z"
       fill="currentColor"
       id="path38" />
  </g>
  <g
     transform="translate(11.8426,8.0388)"
     id="g40">
    <rect
       x="-0.064999998"
       y="-3.3138001"
       width="0.13"
       height="3.4991"
       ry="0.039999999"
       fill="currentColor"
       id="rect39" />
  </g>
  <g
     transform="translate(14.2818,8.0388)"
     id="g41">
    <polygon
       stroke-linejoin="round"
       stroke-linecap="round"
       stroke-width="0.08"
       fill="currentColor"
       stroke="currentColor"
       points="0.04,0.2 0.04,-0.2 2.5942,-0.01 2.5942,0.39 "
       id="polygon40" />
  </g>
  <g
     transform="translate(14.2818,4.0388)"
     id="g42">
    <path
       transform="scale(0.004,-0.004)"
       d="M 0,-46 C 0,45 116,136 217,136 280,136 326,101 326,46 326,-41 216,-136 106,-136 39,-136 0,-97 0,-46 Z"
       fill="currentColor"
       id="path41" />
  </g>
  <g
     transform="translate(14.3468,8.0388)"
     id="g43">
    <rect
       x="-0.064999998"
       y="-3.8138001"
       width="0.13"
       height="3.8185"
       ry="0.039999999"
       fill="currentColor"
       id="rect42" />
  </g>
  <g
     transform="translate(9.2734,8.0388)"
     id="g44">
    <polygon
       stroke-linejoin="round"
       stroke-linecap="round"
       stroke-width="0.08"
       fill="currentColor"
       stroke="currentColor"
       points="0.04,0.2 0.04,-0.2 2.5942,-0.01 2.5942,0.39 "
       id="polygon43" />
  </g>
  <g
     transform="translate(16.786,4.5388)"
     id="g45">
    <path
       transform="scale(0.004,-0.004)"
       d="M 0,-46 C 0,45 116,136 217,136 280,136 326,101 326,46 326,-41 216,-136 106,-136 39,-136 0,-97 0,-46 Z"
       fill="currentColor"
       id="path44" />
  </g>
  <g
     transform="translate(16.851,8.0388)"
     id="g46">
    <rect
       x="-0.064999998"
       y="-3.3138001"
       width="0.13"
       height="3.4991"
       ry="0.039999999"
       fill="currentColor"
       id="rect45" />
  </g>
  <g
     transform="translate(19.2902,5.0388)"
     id="g47">
    <path
       transform="scale(0.004,-0.004)"
       d="M 0,-46 C 0,45 116,136 217,136 280,136 326,101 326,46 326,-41 216,-136 106,-136 39,-136 0,-97 0,-46 Z"
       fill="currentColor"
       id="path46" />
  </g>
  <g
     transform="translate(19.3552,8.0388)"
     id="g48">
    <rect
       x="-0.064999998"
       y="-2.8138001"
       width="0.13"
       height="3.3138001"
       ry="0.039999999"
       fill="currentColor"
       id="rect47" />
  </g>
  <g
     transform="translate(22.9944,8.0388)"
     id="g49">
    <path
       transform="scale(0.004,-0.004)"
       d="m -6,78 c 0,59 124,83 124,182 0,24 -8,49 -25,69 l -35,42 c -3,3 -4,7 -4,10 0,9 9,15 17,15 4,0 8,-1 11,-5 L 233,211 c 7,-9 10,-17 10,-25 0,-59 -124,-83 -124,-182 0,-24 7,-49 24,-69 l 84,-99 c 3,-3 4,-7 4,-10 0,-9 -8,-16 -16,-16 -8,0 -45,44 -109,44 -16,0 -53,0 -53,-67 0,-62 30,-97 30,-100 0,-4 -4,-7 -8,-7 -13,0 -98,130 -98,204 0,41 27,42 40,42 33,0 78,-13 119,-31 L 4,53 C -3,62 -6,70 -6,78 Z"
       fill="currentColor"
       id="path48" />
  </g>
  <g
     transform="translate(27.5487,2.0388)"
     id="g50">
    <text
       font-family="'New Computer Modern Math'"
       font-size="2.3308px"
       text-anchor="start"
       fill="currentColor"
       id="text49"><tspan
         id="tspan49">F</tspan></text>
  </g>
  <g
     transform="translate(29.0852,2.8334)"
     id="g51">
    <text
       font-family="'New Computer Modern Math'"
       font-size="1.648px"
       text-anchor="start"
       fill="currentColor"
       id="text50"><tspan
         id="tspan50">7</tspan></text>
  </g>
  <g
     transform="translate(27.5487,4.0388)"
     id="g52">
    <path
       transform="scale(0.004,-0.004)"
       d="M 0,-46 C 0,45 116,136 217,136 280,136 326,101 326,46 326,-41 216,-136 106,-136 39,-136 0,-97 0,-46 Z"
       fill="currentColor"
       id="path51" />
  </g>
  <g
     transform="translate(27.6137,8.0388)"
     id="g53">
    <rect
       x="-0.064999998"
       y="-3.8138001"
       width="0.13"
       height="3.8185"
       ry="0.039999999"
       fill="currentColor"
       id="rect52" />
  </g>
  <g
     transform="translate(26.3987,4.0388)"
     id="g54">
    <path
       transform="scale(0.004,-0.004)"
       d="m 27,41 -1,-66 v -11 c 0,-22 1,-44 4,-66 45,38 93,80 93,139 0,33 -14,67 -43,67 C 49,104 28,74 27,41 Z m -42,-179 -12,595 c 8,5 18,8 27,8 9,0 19,-3 27,-8 L 20,112 c 25,21 58,34 91,34 52,0 89,-48 89,-102 0,-80 -86,-117 -147,-169 -15,-13 -24,-38 -45,-38 -13,0 -23,11 -23,25 z"
       fill="currentColor"
       id="path53" />
  </g>
  <g
     transform="translate(30.0529,4.5388)"
     id="g55">
    <path
       transform="scale(0.004,-0.004)"
       d="M 0,-46 C 0,45 116,136 217,136 280,136 326,101 326,46 326,-41 216,-136 106,-136 39,-136 0,-97 0,-46 Z"
       fill="currentColor"
       id="path54" />
  </g>
  <g
     transform="translate(30.1179,8.0388)"
     id="g56">
    <rect
       x="-0.064999998"
       y="-3.3138001"
       width="0.13"
       height="3.4991"
       ry="0.039999999"
       fill="currentColor"
       id="rect55" />
  </g>
  <g
     transform="translate(32.5571,5.0388)"
     id="g57">
    <path
       transform="scale(0.004,-0.004)"
       d="M 0,-46 C 0,45 116,136 217,136 280,136 326,101 326,46 326,-41 216,-136 106,-136 39,-136 0,-97 0,-46 Z"
       fill="currentColor"
       id="path56" />
  </g>
  <g
     transform="translate(32.6221,8.0388)"
     id="g58">
    <rect
       x="-0.064999998"
       y="-2.8138001"
       width="0.13"
       height="2.8175001"
       ry="0.039999999"
       fill="currentColor"
       id="rect57" />
  </g>
  <g
     transform="translate(43.9399,8.0388)"
     id="g59">
    <polygon
       stroke-linejoin="round"
       stroke-linecap="round"
       stroke-width="0.08"
       fill="currentColor"
       stroke="currentColor"
       points="0.04,0.2 0.04,-0.2 3.2642,-0.2 3.2642,0.2 "
       id="polygon58" />
  </g>
  <g
     transform="translate(35.7313,5.5388)"
     id="g60">
    <path
       transform="scale(0.004,-0.004)"
       d="M 0,-46 C 0,45 116,136 217,136 280,136 326,101 326,46 326,-41 216,-136 106,-136 39,-136 0,-97 0,-46 Z"
       fill="currentColor"
       id="path59" />
  </g>
  <g
     transform="translate(35.7963,8.0388)"
     id="g61">
    <rect
       x="-0.064999998"
       y="-2.3138001"
       width="0.13"
       height="2.5000999"
       ry="0.039999999"
       fill="currentColor"
       id="rect60" />
  </g>
  <g
     transform="translate(34.5813,5.5388)"
     id="g62">
    <path
       transform="scale(0.004,-0.004)"
       d="m 27,41 -1,-66 v -11 c 0,-22 1,-44 4,-66 45,38 93,80 93,139 0,33 -14,67 -43,67 C 49,104 28,74 27,41 Z m -42,-179 -12,595 c 8,5 18,8 27,8 9,0 19,-3 27,-8 L 20,112 c 25,21 58,34 91,34 52,0 89,-48 89,-102 0,-80 -86,-117 -147,-169 -15,-13 -24,-38 -45,-38 -13,0 -23,11 -23,25 z"
       fill="currentColor"
       id="path61" />
  </g>
  <g
     transform="translate(38.2355,6.0388)"
     id="g63">
    <path
       transform="scale(0.004,-0.004)"
       d="M 0,-46 C 0,45 116,136 217,136 280,136 326,101 326,46 326,-41 216,-136 106,-136 39,-136 0,-97 0,-46 Z"
       fill="currentColor"
       id="path62" />
  </g>
  <g
     transform="translate(38.3005,8.0388)"
     id="g64">
    <rect
       x="-0.064999998"
       y="-1.8138"
       width="0.13"
       height="2.6098001"
       ry="0.039999999"
       fill="currentColor"
       id="rect63" />
  </g>
  <g
     transform="translate(40.9897,3.5388)"
     id="g65">
    <path
       transform="scale(0.004,-0.004)"
       d="M 0,-46 C 0,45 116,136 217,136 280,136 326,101 326,46 326,-41 216,-136 106,-136 39,-136 0,-97 0,-46 Z"
       fill="currentColor"
       id="path64" />
  </g>
  <g
     transform="translate(41.0547,8.0388)"
     id="g66">
    <rect
       x="-0.064999998"
       y="-4.3137999"
       width="0.13"
       height="4.5177999"
       ry="0.039999999"
       fill="currentColor"
       id="rect65" />
  </g>
  <g
     transform="translate(43.9399,4.0388)"
     id="g67">
    <path
       transform="scale(0.004,-0.004)"
       d="M 0,-46 C 0,45 116,136 217,136 280,136 326,101 326,46 326,-41 216,-136 106,-136 39,-136 0,-97 0,-46 Z"
       fill="currentColor"
       id="path66" />
  </g>
  <g
     transform="translate(44.0049,8.0388)"
     id="g68">
    <rect
       x="-0.064999998"
       y="-3.8138001"
       width="0.13"
       height="3.8138001"
       ry="0.039999999"
       fill="currentColor"
       id="rect67" />
  </g>
  <g
     transform="translate(42.8939,4.0388)"
     id="g69">
    <path
       transform="scale(0.004,-0.004)"
       d="m -7,375 c 8,4 17,7 25,7 8,0 16,-3 24,-7 l -2,-183 106,20 h 3 c 10,0 18,-7 18,-17 l 7,-570 c -8,-4 -17,-7 -25,-7 -8,0 -16,3 -24,7 l 2,183 -106,-20 h -3 c -10,0 -18,7 -18,17 z M 131,112 39,95 l -3,-207 92,17 z"
       fill="currentColor"
       id="path68" />
  </g>
  <g
     transform="translate(47.1141,4.0388)"
     id="g70">
    <path
       transform="scale(0.004,-0.004)"
       d="M 0,-46 C 0,45 116,136 217,136 280,136 326,101 326,46 326,-41 216,-136 106,-136 39,-136 0,-97 0,-46 Z"
       fill="currentColor"
       id="path69" />
  </g>
  <g
     transform="translate(47.1791,8.0388)"
     id="g71">
    <rect
       x="-0.064999998"
       y="-3.8138001"
       width="0.13"
       height="3.8138001"
       ry="0.039999999"
       fill="currentColor"
       id="rect70" />
  </g>
  <g
     transform="translate(45.9641,4.0388)"
     id="g72">
    <path
       transform="scale(0.004,-0.004)"
       d="m 27,41 -1,-66 v -11 c 0,-22 1,-44 4,-66 45,38 93,80 93,139 0,33 -14,67 -43,67 C 49,104 28,74 27,41 Z m -42,-179 -12,595 c 8,5 18,8 27,8 9,0 19,-3 27,-8 L 20,112 c 25,21 58,34 91,34 52,0 89,-48 89,-102 0,-80 -86,-117 -147,-169 -15,-13 -24,-38 -45,-38 -13,0 -23,11 -23,25 z"
       fill="currentColor"
       id="path71" />
  </g>
  <g
     transform="translate(50.6797,2.0388)"
     id="g73">
    <text
       font-family="'New Computer Modern Math'"
       font-size="2.3308px"
       text-anchor="start"
       fill="currentColor"
       id="text72"><tspan
         id="tspan72">B</tspan></text>
  </g>
  <g
     transform="translate(52.5358,1.7556)"
     id="g74">
    <path
       transform="scale(0.0038,-0.0038)"
       d="m 29,39 -2,-64 v -11 c 0,-22 2,-43 5,-65 44,38 91,80 91,138 0,33 -13,66 -42,66 C 50,103 30,72 29,39 Z m -57,415 c 9,5 18,8 28,8 10,0 19,-3 28,-8 L 21,111 c 25,23 58,36 92,36 51,0 87,-49 87,-103 0,-79 -84,-117 -144,-169 -16,-14 -25,-41 -47,-41 -14,0 -25,13 -25,27 z"
       fill="currentColor"
       id="path73" />
  </g>
  <g
     transform="translate(50.6797,4.5388)"
     id="g75">
    <path
       transform="scale(0.004,-0.004)"
       d="M 0,-46 C 0,45 116,136 217,136 280,136 326,101 326,46 326,-41 216,-136 106,-136 39,-136 0,-97 0,-46 Z"
       fill="currentColor"
       id="path74" />
  </g>
  <g
     transform="translate(50.7447,8.0388)"
     id="g76">
    <rect
       x="-0.064999998"
       y="-3.3138001"
       width="0.13"
       height="3.3138001"
       ry="0.039999999"
       fill="currentColor"
       id="rect75" />
  </g>
  <g
     transform="translate(54.3839,8.0388)"
     id="g77">
    <path
       transform="scale(0.004,-0.004)"
       d="m -6,78 c 0,59 124,83 124,182 0,24 -8,49 -25,69 l -35,42 c -3,3 -4,7 -4,10 0,9 9,15 17,15 4,0 8,-1 11,-5 L 233,211 c 7,-9 10,-17 10,-25 0,-59 -124,-83 -124,-182 0,-24 7,-49 24,-69 l 84,-99 c 3,-3 4,-7 4,-10 0,-9 -8,-16 -16,-16 -8,0 -45,44 -109,44 -16,0 -53,0 -53,-67 0,-62 30,-97 30,-100 0,-4 -4,-7 -8,-7 -13,0 -98,130 -98,204 0,41 27,42 40,42 33,0 78,-13 119,-31 L 4,53 C -3,62 -6,70 -6,78 Z"
       fill="currentColor"
       id="path76" />
  </g>
  <g
     transform="translate(57.7339,8.0388)"
     id="g78">
    <path
       transform="scale(0.004,-0.004)"
       d="M 365,0 H 10 C 4,0 0,4 0,10 v 136 c 0,6 4,10 10,10 h 355 c 6,0 10,-4 10,-10 V 10 C 375,4 371,0 365,0 Z"
       fill="currentColor"
       id="path77" />
  </g>
</svg>
