<?xml version="1.0" encoding="UTF-8" standalone="no"?>
<svg
   version="1.2"
   width="181.40648mm"
   height="47.776054mm"
   viewBox="0 0 103.23031 27.187213"
   id="svg89"
   sodipodi:docname="fig_408.svg"
   xmlns:inkscape="http://www.inkscape.org/namespaces/inkscape"
   xmlns:sodipodi="http://sodipodi.sourceforge.net/DTD/sodipodi-0.dtd"
   xmlns="http://www.w3.org/2000/svg"
   xmlns:svg="http://www.w3.org/2000/svg">
  <defs
     id="defs89" />
  <sodipodi:namedview
     id="namedview89"
     pagecolor="#505050"
     bordercolor="#eeeeee"
     borderopacity="1"
     inkscape:showpageshadow="0"
     inkscape:pageopacity="0"
     inkscape:pagecheckerboard="0"
     inkscape:deskcolor="#505050"
     inkscape:document-units="mm" />
  <style
     type="text/css"
     id="style1"><![CDATA[
tspan { white-space: pre; }
]]></style>
  <g
     transform="translate(103.0403,6.643214)"
     id="g1">
    <rect
       x="0"
       y="-2"
       width="0.19"
       height="4"
       ry="0.0000"
       fill="currentColor"
       id="rect1" />
  </g>
  <g
     transform="translate(0.800405,9.643214)"
     id="g2">
    <rect
       x="57.529301"
       y="-0.1"
       width="1.9056"
       height="0.2"
       ry="0.1"
       fill="currentColor"
       id="rect2" />
  </g>
  <g
     transform="translate(0.800405,9.643214)"
     id="g3">
    <rect
       x="44.011799"
       y="-0.1"
       width="2.0660999"
       height="0.2"
       ry="0.1"
       fill="currentColor"
       id="rect3" />
  </g>
  <g
     transform="translate(0.800405,8.643214)"
     id="g4">
    <line
       stroke-linejoin="round"
       stroke-linecap="round"
       stroke-width="0.1"
       stroke="currentColor"
       x1="0.050000001"
       y1="0"
       x2="102.3799"
       y2="0"
       id="line3" />
  </g>
  <g
     transform="translate(0.800405,7.643214)"
     id="g5">
    <line
       stroke-linejoin="round"
       stroke-linecap="round"
       stroke-width="0.1"
       stroke="currentColor"
       x1="0.050000001"
       y1="0"
       x2="102.3799"
       y2="0"
       id="line4" />
  </g>
  <g
     transform="translate(0.800405,6.643214)"
     id="g6">
    <line
       stroke-linejoin="round"
       stroke-linecap="round"
       stroke-width="0.1"
       stroke="currentColor"
       x1="0.050000001"
       y1="0"
       x2="102.3799"
       y2="0"
       id="line5" />
  </g>
  <g
     transform="translate(0.800405,5.643214)"
     id="g7">
    <line
       stroke-linejoin="round"
       stroke-linecap="round"
       stroke-width="0.1"
       stroke="currentColor"
       x1="0.050000001"
       y1="0"
       x2="102.3799"
       y2="0"
       id="line6" />
  </g>
  <g
     transform="translate(0.800405,4.643214)"
     id="g8">
    <line
       stroke-linejoin="round"
       stroke-linecap="round"
       stroke-width="0.1"
       stroke="currentColor"
       x1="0.050000001"
       y1="0"
       x2="102.3799"
       y2="0"
       id="line7" />
  </g>
  <g
     transform="translate(79.783405,6.643214)"
     id="g9">
    <rect
       x="0"
       y="-2"
       width="0.19"
       height="4"
       ry="0.0000"
       fill="currentColor"
       id="rect8" />
  </g>
  <g
     transform="translate(55.737905,6.643214)"
     id="g10">
    <rect
       x="0"
       y="-2"
       width="0.19"
       height="4"
       ry="0.0000"
       fill="currentColor"
       id="rect9" />
  </g>
  <g
     transform="translate(32.712405,6.643214)"
     id="g11">
    <rect
       x="0"
       y="-2"
       width="0.19"
       height="4"
       ry="0.0000"
       fill="currentColor"
       id="rect10" />
  </g>
  <g
     transform="translate(11.675405,1.643214)"
     id="g12">
    <text
       font-family="'NewComputerModern Math'"
       font-size="2.3308px"
       text-anchor="start"
       fill="currentColor"
       id="text11"><tspan
         id="tspan11">D</tspan></text>
  </g>
  <g
     transform="translate(13.450905,2.437814)"
     id="g13">
    <text
       font-family="'NewComputerModern Math'"
       font-size="1.648px"
       text-anchor="start"
       fill="currentColor"
       id="text12"><tspan
         id="tspan12">7</tspan></text>
  </g>
  <g
     transform="translate(11.675405,7.143214)"
     id="g14">
    <path
       transform="scale(0.004,-0.004)"
       d="m 72,-106 c 40,0 204,110 231,143 7,9 11,19 11,28 0,22 -18,41 -42,41 C 232,106 68,-4 41,-37 34,-46 31,-56 31,-65 c 0,-22 17,-41 41,-41 z M 0,-67 c 0,71 46,203 258,203 41,0 86,-10 86,-69 0,-71 -46,-203 -258,-203 -41,0 -86,10 -86,69 z"
       fill="currentColor"
       id="path13" />
  </g>
  <g
     transform="translate(1.600405,7.643214)"
     id="g15">
    <path
       transform="scale(0.004,-0.004)"
       d="m 266,-635 h -6 c -108,0 -195,88 -195,197 0,58 53,103 112,103 54,0 95,-47 95,-103 0,-52 -43,-95 -95,-95 -11,0 -21,2 -31,6 26,-39 68,-65 117,-65 h 4 z m 135,786 c 19,-89 48,-242 60,-354 76,27 112,94 112,163 0,89 -60,179 -172,191 z M 74,28 c 0,-112 98,-247 278,-247 21,0 44,2 68,6 -7,64 -29,203 -63,364 -79,-8 -124,-61 -124,-119 0,-44 25,-91 81,-123 5,-5 7,-10 7,-15 0,-11 -10,-22 -22,-22 -15,0 -126,62 -126,187 0,88 58,174 160,197 -14,58 -29,117 -46,175 C 180,310 74,188 74,28 Z m 283,1166 c 28,0 143,-206 143,-361 0,-143 -86,-255 -180,-364 21,-68 39,-138 56,-207 5,0 10,1 14,1 155,0 255,-129 255,-262 0,-113 -74,-212 -180,-245 3,-35 5,-70 5,-105 0,-19 -1,-39 -2,-58 -7,-119 -88,-225 -202,-228 l 1,43 c 93,2 153,92 159,191 1,18 2,37 2,55 0,31 -1,61 -4,92 -28,-5 -55,-8 -80,-8 -239,0 -342,217 -342,374 0,177 131,306 248,441 -29,96 -52,170 -52,346 0,189 144,295 159,295 z M 247,782 c 0,-55 12,-115 35,-190 83,100 147,202 147,326 0,40 -6,82 -21,127 -49,-24 -161,-97 -161,-263 z"
       fill="currentColor"
       id="path14" />
  </g>
  <g
     transform="translate(5.105405,6.643214)"
     id="g16">
    <path
       transform="scale(0.004,-0.004)"
       d="m 27,41 -1,-66 v -11 c 0,-22 1,-44 4,-66 45,38 93,80 93,139 0,33 -14,67 -43,67 C 49,104 28,74 27,41 Z m -42,-179 -12,595 c 8,5 18,8 27,8 9,0 19,-3 27,-8 L 20,112 c 25,21 58,34 91,34 52,0 89,-48 89,-102 0,-80 -86,-117 -147,-169 -15,-13 -24,-38 -45,-38 -13,0 -23,11 -23,25 z"
       fill="currentColor"
       id="path15" />
  </g>
  <g
     transform="translate(6.025405,5.143214)"
     id="g17">
    <path
       transform="scale(0.004,-0.004)"
       d="m 27,41 -1,-66 v -11 c 0,-22 1,-44 4,-66 45,38 93,80 93,139 0,33 -14,67 -43,67 C 49,104 28,74 27,41 Z m -42,-179 -12,595 c 8,5 18,8 27,8 9,0 19,-3 27,-8 L 20,112 c 25,21 58,34 91,34 52,0 89,-48 89,-102 0,-80 -86,-117 -147,-169 -15,-13 -24,-38 -45,-38 -13,0 -23,11 -23,25 z"
       fill="currentColor"
       id="path16" />
  </g>
  <g
     transform="translate(7.975405,6.643214)"
     id="g18">
    <path
       transform="scale(0.004,-0.004)"
       d="M 433,-89 C 433,-111 383,-263 250,-263 191,-263 0,-244 0,0 0,62 18,262 250,262 366,262 426,156 426,99 426,59 396,27 359,27 c -31,0 -75,25 -75,75 0,38 27,77 72,77 4,0 9,0 14,-1 -28,37 -72,59 -120,59 C 144,237 137,164 137,51 V 0 -51 c 0,-113 7,-187 113,-187 80,0 139,70 158,151 2,7 7,10 12,10 6,0 13,-4 13,-12 z"
       fill="currentColor"
       id="path17" />
  </g>
  <g
     transform="translate(12.987805,6.643214)"
     id="g19">
    <rect
       x="-0.064999998"
       y="-3"
       width="0.13"
       height="3.2409999"
       ry="0.039999999"
       fill="currentColor"
       id="rect18" />
  </g>
  <g
     transform="translate(22.078205,8.143214)"
     id="g20">
    <path
       transform="scale(0.004,-0.004)"
       d="m 72,-106 c 40,0 204,110 231,143 7,9 11,19 11,28 0,22 -18,41 -42,41 C 232,106 68,-4 41,-37 34,-46 31,-56 31,-65 c 0,-22 17,-41 41,-41 z M 0,-67 c 0,71 46,203 258,203 41,0 86,-10 86,-69 0,-71 -46,-203 -258,-203 -41,0 -86,10 -86,69 z"
       fill="currentColor"
       id="path19" />
  </g>
  <g
     transform="translate(23.390605,6.643214)"
     id="g21">
    <rect
       x="-0.064999998"
       y="-2"
       width="0.13"
       height="3.2409999"
       ry="0.039999999"
       fill="currentColor"
       id="rect20" />
  </g>
  <g
     transform="translate(20.628205,8.143214)"
     id="g22">
    <path
       transform="scale(0.004,-0.004)"
       d="m 0,119 c 0,8 5,15 13,18 l 46,17 v 158 c 0,10 8,19 18,19 10,0 19,-9 19,-19 V 167 l 83,31 v 158 c 0,10 9,19 19,19 10,0 18,-9 18,-19 V 211 l 32,12 c 2,1 5,1 7,1 11,0 20,-9 20,-20 v -60 c 0,-8 -5,-16 -13,-19 L 216,109 V -51 l 32,11 c 2,1 5,1 7,1 11,0 20,-9 20,-20 v -60 c 0,-8 -5,-15 -13,-18 l -46,-17 v -158 c 0,-10 -8,-19 -18,-19 -10,0 -19,9 -19,19 v 145 l -83,-31 v -158 c 0,-10 -9,-19 -19,-19 -10,0 -18,9 -18,19 v 145 l -32,-12 c -2,-1 -5,-1 -7,-1 -11,0 -20,9 -20,20 v 60 c 0,8 5,16 13,19 l 46,16 V 51 L 27,40 C 25,39 22,39 20,39 9,39 0,48 0,59 Z M 179,95 96,65 V -95 l 83,30 z"
       fill="currentColor"
       id="path21" />
  </g>
  <g
     transform="translate(34.753805,9.143214)"
     id="g23">
    <path
       transform="scale(0.004,-0.004)"
       d="m 72,-106 c 40,0 204,110 231,143 7,9 11,19 11,28 0,22 -18,41 -42,41 C 232,106 68,-4 41,-37 34,-46 31,-56 31,-65 c 0,-22 17,-41 41,-41 z M 0,-67 c 0,71 46,203 258,203 41,0 86,-10 86,-69 0,-71 -46,-203 -258,-203 -41,0 -86,10 -86,69 z"
       fill="currentColor"
       id="path22" />
  </g>
  <g
     transform="translate(36.066205,6.643214)"
     id="g24">
    <rect
       x="-0.064999998"
       y="-1"
       width="0.13"
       height="3.2409999"
       ry="0.039999999"
       fill="currentColor"
       id="rect23" />
  </g>
  <g
     transform="translate(45.156605,9.643214)"
     id="g25">
    <path
       transform="scale(0.004,-0.004)"
       d="m 72,-106 c 40,0 204,110 231,143 7,9 11,19 11,28 0,22 -18,41 -42,41 C 232,106 68,-4 41,-37 34,-46 31,-56 31,-65 c 0,-22 17,-41 41,-41 z M 0,-67 c 0,71 46,203 258,203 41,0 86,-10 86,-69 0,-71 -46,-203 -258,-203 -41,0 -86,10 -86,69 z"
       fill="currentColor"
       id="path24" />
  </g>
  <g
     transform="translate(46.469005,6.643214)"
     id="g26">
    <rect
       x="-0.064999998"
       y="-0.5"
       width="0.13"
       height="3.2409999"
       ry="0.039999999"
       fill="currentColor"
       id="rect25" />
  </g>
  <g
     transform="translate(58.513605,1.643214)"
     id="g27">
    <text
       font-family="'NewComputerModern Math'"
       font-size="2.3308px"
       text-anchor="start"
       fill="currentColor"
       id="text26"><tspan
         id="tspan26">G</tspan></text>
  </g>
  <g
     transform="translate(60.357305,2.437814)"
     id="g28">
    <text
       font-family="'NewComputerModern Math'"
       font-size="1.648px"
       text-anchor="start"
       fill="currentColor"
       id="text27"><tspan
         id="tspan27">7</tspan></text>
  </g>
  <g
     transform="translate(58.513605,10.143214)"
     id="g29">
    <path
       transform="scale(0.004,-0.004)"
       d="m 72,-106 c 40,0 204,110 231,143 7,9 11,19 11,28 0,22 -18,41 -42,41 C 232,106 68,-4 41,-37 34,-46 31,-56 31,-65 c 0,-22 17,-41 41,-41 z M 0,-67 c 0,71 46,203 258,203 41,0 86,-10 86,-69 0,-71 -46,-203 -258,-203 -41,0 -86,10 -86,69 z"
       fill="currentColor"
       id="path28" />
  </g>
  <g
     transform="translate(59.826005,6.643214)"
     id="g30">
    <rect
       x="-0.064999998"
       y="0"
       width="0.13"
       height="3.2409999"
       ry="0.039999999"
       fill="currentColor"
       id="rect29" />
  </g>
  <g
     transform="translate(57.479305,10.143214)"
     id="g31">
    <path
       transform="scale(0.004,-0.004)"
       d="m -7,375 c 8,4 17,7 25,7 8,0 16,-3 24,-7 l -2,-183 106,20 h 3 c 10,0 18,-7 18,-17 l 7,-570 c -8,-4 -17,-7 -25,-7 -8,0 -16,3 -24,7 l 2,183 -106,-20 h -3 c -10,0 -18,7 -18,17 z M 131,112 39,95 l -3,-207 92,17 z"
       fill="currentColor"
       id="path30" />
  </g>
  <g
     transform="translate(69.166305,9.143214)"
     id="g32">
    <path
       transform="scale(0.004,-0.004)"
       d="m 72,-106 c 40,0 204,110 231,143 7,9 11,19 11,28 0,22 -18,41 -42,41 C 232,106 68,-4 41,-37 34,-46 31,-56 31,-65 c 0,-22 17,-41 41,-41 z M 0,-67 c 0,71 46,203 258,203 41,0 86,-10 86,-69 0,-71 -46,-203 -258,-203 -41,0 -86,10 -86,69 z"
       fill="currentColor"
       id="path31" />
  </g>
  <g
     transform="translate(70.478705,6.643214)"
     id="g33">
    <rect
       x="-0.064999998"
       y="-1"
       width="0.13"
       height="3.2409999"
       ry="0.039999999"
       fill="currentColor"
       id="rect32" />
  </g>
  <g
     transform="translate(81.824805,8.143214)"
     id="g34">
    <path
       transform="scale(0.004,-0.004)"
       d="m 72,-106 c 40,0 204,110 231,143 7,9 11,19 11,28 0,22 -18,41 -42,41 C 232,106 68,-4 41,-37 34,-46 31,-56 31,-65 c 0,-22 17,-41 41,-41 z M 0,-67 c 0,71 46,203 258,203 41,0 86,-10 86,-69 0,-71 -46,-203 -258,-203 -41,0 -86,10 -86,69 z"
       fill="currentColor"
       id="path33" />
  </g>
  <g
     transform="translate(83.137205,6.643214)"
     id="g35">
    <rect
       x="-0.064999998"
       y="-2"
       width="0.13"
       height="3.2409999"
       ry="0.039999999"
       fill="currentColor"
       id="rect34" />
  </g>
  <g
     transform="translate(92.477505,7.143214)"
     id="g36">
    <path
       transform="scale(0.004,-0.004)"
       d="m 72,-106 c 40,0 204,110 231,143 7,9 11,19 11,28 0,22 -18,41 -42,41 C 232,106 68,-4 41,-37 34,-46 31,-56 31,-65 c 0,-22 17,-41 41,-41 z M 0,-67 c 0,71 46,203 258,203 41,0 86,-10 86,-69 0,-71 -46,-203 -258,-203 -41,0 -86,10 -86,69 z"
       fill="currentColor"
       id="path35" />
  </g>
  <g
     transform="translate(93.789905,6.643214)"
     id="g37">
    <rect
       x="-0.064999998"
       y="-3"
       width="0.13"
       height="3.2409999"
       ry="0.039999999"
       fill="currentColor"
       id="rect36" />
  </g>
  <g
     transform="translate(103.0403,22.643214)"
     id="g38">
    <rect
       x="0"
       y="-2"
       width="0.19"
       height="4"
       ry="0.0000"
       fill="currentColor"
       id="rect37" />
  </g>
  <g
     transform="translate(102.5503,22.643214)"
     id="g39">
    <rect
       x="0"
       y="-2"
       width="0.19"
       height="4"
       ry="0.0000"
       fill="currentColor"
       id="rect38" />
  </g>
  <g
     transform="translate(0.800405,25.643214)"
     id="g40">
    <rect
       x="45.902599"
       y="-0.1"
       width="2.0660999"
       height="0.2"
       ry="0.1"
       fill="currentColor"
       id="rect39" />
  </g>
  <g
     transform="translate(0.800405,26.643214)"
     id="g41">
    <rect
       x="45.902599"
       y="-0.1"
       width="2.0660999"
       height="0.2"
       ry="0.1"
       fill="currentColor"
       id="rect40" />
  </g>
  <g
     transform="translate(0.800405,25.643214)"
     id="g42">
    <rect
       x="35.473999"
       y="-0.1"
       width="2.0660999"
       height="0.2"
       ry="0.1"
       fill="currentColor"
       id="rect41" />
  </g>
  <g
     transform="translate(0.800405,25.643214)"
     id="g43">
    <rect
       x="27.0324"
       y="-0.1"
       width="2.0660999"
       height="0.2"
       ry="0.1"
       fill="currentColor"
       id="rect42" />
  </g>
  <g
     transform="translate(0.800405,24.643214)"
     id="g44">
    <line
       stroke-linejoin="round"
       stroke-linecap="round"
       stroke-width="0.1"
       stroke="currentColor"
       x1="0.050000001"
       y1="0"
       x2="102.3799"
       y2="0"
       id="line43" />
  </g>
  <g
     transform="translate(0.800405,23.643214)"
     id="g45">
    <line
       stroke-linejoin="round"
       stroke-linecap="round"
       stroke-width="0.1"
       stroke="currentColor"
       x1="0.050000001"
       y1="0"
       x2="102.3799"
       y2="0"
       id="line44" />
  </g>
  <g
     transform="translate(0.800405,22.643214)"
     id="g46">
    <line
       stroke-linejoin="round"
       stroke-linecap="round"
       stroke-width="0.1"
       stroke="currentColor"
       x1="0.050000001"
       y1="0"
       x2="102.3799"
       y2="0"
       id="line45" />
  </g>
  <g
     transform="translate(0.800405,21.643214)"
     id="g47">
    <line
       stroke-linejoin="round"
       stroke-linecap="round"
       stroke-width="0.1"
       stroke="currentColor"
       x1="0.050000001"
       y1="0"
       x2="102.3799"
       y2="0"
       id="line46" />
  </g>
  <g
     transform="translate(0.800405,20.643214)"
     id="g48">
    <line
       stroke-linejoin="round"
       stroke-linecap="round"
       stroke-width="0.1"
       stroke="currentColor"
       x1="0.050000001"
       y1="0"
       x2="102.3799"
       y2="0"
       id="line47" />
  </g>
  <g
     transform="translate(83.593805,22.643214)"
     id="g49">
    <rect
       x="0"
       y="-2"
       width="0.19"
       height="4"
       ry="0.0000"
       fill="currentColor"
       id="rect48" />
  </g>
  <g
     transform="translate(83.103805,22.643214)"
     id="g50">
    <rect
       x="0"
       y="-2"
       width="0.19"
       height="4"
       ry="0.0000"
       fill="currentColor"
       id="rect49" />
  </g>
  <g
     transform="translate(64.233605,22.643214)"
     id="g51">
    <rect
       x="0"
       y="-2"
       width="0.19"
       height="4"
       ry="0.0000"
       fill="currentColor"
       id="rect50" />
  </g>
  <g
     transform="translate(45.310405,22.643214)"
     id="g52">
    <rect
       x="0"
       y="-2"
       width="0.19"
       height="4"
       ry="0.0000"
       fill="currentColor"
       id="rect51" />
  </g>
  <g
     transform="translate(26.440205,22.643214)"
     id="g53">
    <rect
       x="0"
       y="-2"
       width="0.19"
       height="4"
       ry="0.0000"
       fill="currentColor"
       id="rect52" />
  </g>
  <g
     transform="translate(1.600405,23.643214)"
     id="g54">
    <path
       transform="scale(0.004,-0.004)"
       d="m 266,-635 h -6 c -108,0 -195,88 -195,197 0,58 53,103 112,103 54,0 95,-47 95,-103 0,-52 -43,-95 -95,-95 -11,0 -21,2 -31,6 26,-39 68,-65 117,-65 h 4 z m 135,786 c 19,-89 48,-242 60,-354 76,27 112,94 112,163 0,89 -60,179 -172,191 z M 74,28 c 0,-112 98,-247 278,-247 21,0 44,2 68,6 -7,64 -29,203 -63,364 -79,-8 -124,-61 -124,-119 0,-44 25,-91 81,-123 5,-5 7,-10 7,-15 0,-11 -10,-22 -22,-22 -15,0 -126,62 -126,187 0,88 58,174 160,197 -14,58 -29,117 -46,175 C 180,310 74,188 74,28 Z m 283,1166 c 28,0 143,-206 143,-361 0,-143 -86,-255 -180,-364 21,-68 39,-138 56,-207 5,0 10,1 14,1 155,0 255,-129 255,-262 0,-113 -74,-212 -180,-245 3,-35 5,-70 5,-105 0,-19 -1,-39 -2,-58 -7,-119 -88,-225 -202,-228 l 1,43 c 93,2 153,92 159,191 1,18 2,37 2,55 0,31 -1,61 -4,92 -28,-5 -55,-8 -80,-8 -239,0 -342,217 -342,374 0,177 131,306 248,441 -29,96 -52,170 -52,346 0,189 144,295 159,295 z M 247,782 c 0,-55 12,-115 35,-190 83,100 147,202 147,326 0,40 -6,82 -21,127 -49,-24 -161,-97 -161,-263 z"
       fill="currentColor"
       id="path53" />
  </g>
  <g
     transform="translate(5.105405,22.643214)"
     id="g55">
    <path
       transform="scale(0.004,-0.004)"
       d="m 27,41 -1,-66 v -11 c 0,-22 1,-44 4,-66 45,38 93,80 93,139 0,33 -14,67 -43,67 C 49,104 28,74 27,41 Z m -42,-179 -12,595 c 8,5 18,8 27,8 9,0 19,-3 27,-8 L 20,112 c 25,21 58,34 91,34 52,0 89,-48 89,-102 0,-80 -86,-117 -147,-169 -15,-13 -24,-38 -45,-38 -13,0 -23,11 -23,25 z"
       fill="currentColor"
       id="path54" />
  </g>
  <g
     transform="translate(6.025405,21.143214)"
     id="g56">
    <path
       transform="scale(0.004,-0.004)"
       d="m 27,41 -1,-66 v -11 c 0,-22 1,-44 4,-66 45,38 93,80 93,139 0,33 -14,67 -43,67 C 49,104 28,74 27,41 Z m -42,-179 -12,595 c 8,5 18,8 27,8 9,0 19,-3 27,-8 L 20,112 c 25,21 58,34 91,34 52,0 89,-48 89,-102 0,-80 -86,-117 -147,-169 -15,-13 -24,-38 -45,-38 -13,0 -23,11 -23,25 z"
       fill="currentColor"
       id="path55" />
  </g>
  <g
     transform="translate(-0.087295,19.554814)"
     id="g57">
    <text
       font-family="'NewComputerModern Math'"
       font-size="1.7459px"
       text-anchor="start"
       fill="currentColor"
       id="text56"><tspan
         id="tspan56">5</tspan></text>
  </g>
  <g
     transform="translate(9.325405,17.143214)"
     id="g58">
    <text
       font-family="'NewComputerModern Math'"
       font-size="2.3308px"
       text-anchor="start"
       fill="currentColor"
       id="text57"><tspan
         id="tspan57">C</tspan></text>
  </g>
  <g
     transform="translate(10.998405,17.937814)"
     id="g59">
    <text
       font-family="'NewComputerModern Math'"
       font-size="1.648px"
       text-anchor="start"
       fill="currentColor"
       id="text58"><tspan
         id="tspan58">7</tspan></text>
  </g>
  <g
     transform="translate(9.325405,23.643214)"
     id="g60">
    <path
       transform="scale(0.004,-0.004)"
       d="m 72,-106 c 40,0 204,110 231,143 7,9 11,19 11,28 0,22 -18,41 -42,41 C 232,106 68,-4 41,-37 34,-46 31,-56 31,-65 c 0,-22 17,-41 41,-41 z M 0,-67 c 0,71 46,203 258,203 41,0 86,-10 86,-69 0,-71 -46,-203 -258,-203 -41,0 -86,10 -86,69 z"
       fill="currentColor"
       id="path59" />
  </g>
  <g
     transform="translate(10.637805,22.643214)"
     id="g61">
    <rect
       x="-0.064999998"
       y="-2.5"
       width="0.13"
       height="3.2409999"
       ry="0.039999999"
       fill="currentColor"
       id="rect60" />
  </g>
  <g
     transform="translate(17.767105,24.643214)"
     id="g62">
    <path
       transform="scale(0.004,-0.004)"
       d="m 72,-106 c 40,0 204,110 231,143 7,9 11,19 11,28 0,22 -18,41 -42,41 C 232,106 68,-4 41,-37 34,-46 31,-56 31,-65 c 0,-22 17,-41 41,-41 z M 0,-67 c 0,71 46,203 258,203 41,0 86,-10 86,-69 0,-71 -46,-203 -258,-203 -41,0 -86,10 -86,69 z"
       fill="currentColor"
       id="path61" />
  </g>
  <g
     transform="translate(19.079505,22.643214)"
     id="g63">
    <rect
       x="-0.064999998"
       y="-1.5"
       width="0.13"
       height="3.2409999"
       ry="0.039999999"
       fill="currentColor"
       id="rect62" />
  </g>
  <g
     transform="translate(16.732805,24.643214)"
     id="g64">
    <path
       transform="scale(0.004,-0.004)"
       d="m -7,375 c 8,4 17,7 25,7 8,0 16,-3 24,-7 l -2,-183 106,20 h 3 c 10,0 18,-7 18,-17 l 7,-570 c -8,-4 -17,-7 -25,-7 -8,0 -16,3 -24,7 l 2,183 -106,-20 h -3 c -10,0 -18,7 -18,17 z M 131,112 39,95 l -3,-207 92,17 z"
       fill="currentColor"
       id="path63" />
  </g>
  <g
     transform="translate(28.177105,25.643214)"
     id="g65">
    <path
       transform="scale(0.004,-0.004)"
       d="m 72,-106 c 40,0 204,110 231,143 7,9 11,19 11,28 0,22 -18,41 -42,41 C 232,106 68,-4 41,-37 34,-46 31,-56 31,-65 c 0,-22 17,-41 41,-41 z M 0,-67 c 0,71 46,203 258,203 41,0 86,-10 86,-69 0,-71 -46,-203 -258,-203 -41,0 -86,10 -86,69 z"
       fill="currentColor"
       id="path64" />
  </g>
  <g
     transform="translate(28.177105,22.143214)"
     id="g66">
    <path
       transform="scale(0.004,-0.004)"
       d="m 72,-106 c 40,0 204,110 231,143 7,9 11,19 11,28 0,22 -18,41 -42,41 C 232,106 68,-4 41,-37 34,-46 31,-56 31,-65 c 0,-22 17,-41 41,-41 z M 0,-67 c 0,71 46,203 258,203 41,0 86,-10 86,-69 0,-71 -46,-203 -258,-203 -41,0 -86,10 -86,69 z"
       fill="currentColor"
       id="path65" />
  </g>
  <g
     transform="translate(29.489505,22.643214)"
     id="g67">
    <rect
       x="-0.064999998"
       y="-3.6666999"
       width="0.13"
       height="6.4077001"
       ry="0.039999999"
       fill="currentColor"
       id="rect66" />
  </g>
  <g
     transform="translate(36.618805,26.143214)"
     id="g68">
    <path
       transform="scale(0.004,-0.004)"
       d="m 72,-106 c 40,0 204,110 231,143 7,9 11,19 11,28 0,22 -18,41 -42,41 C 232,106 68,-4 41,-37 34,-46 31,-56 31,-65 c 0,-22 17,-41 41,-41 z M 0,-67 c 0,71 46,203 258,203 41,0 86,-10 86,-69 0,-71 -46,-203 -258,-203 -41,0 -86,10 -86,69 z"
       fill="currentColor"
       id="path67" />
  </g>
  <g
     transform="translate(36.618805,22.643214)"
     id="g69">
    <path
       transform="scale(0.004,-0.004)"
       d="m 72,-106 c 40,0 204,110 231,143 7,9 11,19 11,28 0,22 -18,41 -42,41 C 232,106 68,-4 41,-37 34,-46 31,-56 31,-65 c 0,-22 17,-41 41,-41 z M 0,-67 c 0,71 46,203 258,203 41,0 86,-10 86,-69 0,-71 -46,-203 -258,-203 -41,0 -86,10 -86,69 z"
       fill="currentColor"
       id="path68" />
  </g>
  <g
     transform="translate(37.931205,22.643214)"
     id="g70">
    <rect
       x="-0.064999998"
       y="-3.3333001"
       width="0.13"
       height="6.5742998"
       ry="0.039999999"
       fill="currentColor"
       id="rect69" />
  </g>
  <g
     transform="translate(47.047305,17.143214)"
     id="g71">
    <text
       font-family="'NewComputerModern Math'"
       font-size="2.3308px"
       text-anchor="start"
       fill="currentColor"
       id="text70"><tspan
         id="tspan70">F</tspan></text>
  </g>
  <g
     transform="translate(48.583805,17.937814)"
     id="g72">
    <text
       font-family="'NewComputerModern Math'"
       font-size="1.648px"
       text-anchor="start"
       fill="currentColor"
       id="text71"><tspan
         id="tspan71">7</tspan></text>
  </g>
  <g
     transform="translate(47.047305,26.643214)"
     id="g73">
    <path
       transform="scale(0.004,-0.004)"
       d="m 72,-106 c 40,0 204,110 231,143 7,9 11,19 11,28 0,22 -18,41 -42,41 C 232,106 68,-4 41,-37 34,-46 31,-56 31,-65 c 0,-22 17,-41 41,-41 z M 0,-67 c 0,71 46,203 258,203 41,0 86,-10 86,-69 0,-71 -46,-203 -258,-203 -41,0 -86,10 -86,69 z"
       fill="currentColor"
       id="path72" />
  </g>
  <g
     transform="translate(47.047305,23.143214)"
     id="g74">
    <path
       transform="scale(0.004,-0.004)"
       d="m 72,-106 c 40,0 204,110 231,143 7,9 11,19 11,28 0,22 -18,41 -42,41 C 232,106 68,-4 41,-37 34,-46 31,-56 31,-65 c 0,-22 17,-41 41,-41 z M 0,-67 c 0,71 46,203 258,203 41,0 86,-10 86,-69 0,-71 -46,-203 -258,-203 -41,0 -86,10 -86,69 z"
       fill="currentColor"
       id="path73" />
  </g>
  <g
     transform="translate(48.359705,22.643214)"
     id="g75">
    <rect
       x="-0.064999998"
       y="-3"
       width="0.13"
       height="6.7410002"
       ry="0.039999999"
       fill="currentColor"
       id="rect74" />
  </g>
  <g
     transform="translate(55.952005,22.143214)"
     id="g76">
    <path
       transform="scale(0.004,-0.004)"
       d="m 72,-106 c 40,0 204,110 231,143 7,9 11,19 11,28 0,22 -18,41 -42,41 C 232,106 68,-4 41,-37 34,-46 31,-56 31,-65 c 0,-22 17,-41 41,-41 z M 0,-67 c 0,71 46,203 258,203 41,0 86,-10 86,-69 0,-71 -46,-203 -258,-203 -41,0 -86,10 -86,69 z"
       fill="currentColor"
       id="path75" />
  </g>
  <g
     transform="translate(56.017005,22.643214)"
     id="g77">
    <rect
       x="-0.064999998"
       y="-0.241"
       width="0.13"
       height="3.2409999"
       ry="0.039999999"
       fill="currentColor"
       id="rect76" />
  </g>
  <g
     transform="translate(65.970505,24.643214)"
     id="g78">
    <path
       transform="scale(0.004,-0.004)"
       d="m 72,-106 c 40,0 204,110 231,143 7,9 11,19 11,28 0,22 -18,41 -42,41 C 232,106 68,-4 41,-37 34,-46 31,-56 31,-65 c 0,-22 17,-41 41,-41 z M 0,-67 c 0,71 46,203 258,203 41,0 86,-10 86,-69 0,-71 -46,-203 -258,-203 -41,0 -86,10 -86,69 z"
       fill="currentColor"
       id="path77" />
  </g>
  <g
     transform="translate(65.970505,21.143214)"
     id="g79">
    <path
       transform="scale(0.004,-0.004)"
       d="m 72,-106 c 40,0 204,110 231,143 7,9 11,19 11,28 0,22 -18,41 -42,41 C 232,106 68,-4 41,-37 34,-46 31,-56 31,-65 c 0,-22 17,-41 41,-41 z M 0,-67 c 0,71 46,203 258,203 41,0 86,-10 86,-69 0,-71 -46,-203 -258,-203 -41,0 -86,10 -86,69 z"
       fill="currentColor"
       id="path78" />
  </g>
  <g
     transform="translate(67.282905,22.643214)"
     id="g80">
    <rect
       x="-0.064999998"
       y="-4.3333001"
       width="0.13"
       height="6.0742998"
       ry="0.039999999"
       fill="currentColor"
       id="rect79" />
  </g>
  <g
     transform="translate(74.912105,23.643214)"
     id="g81">
    <path
       transform="scale(0.004,-0.004)"
       d="m 72,-106 c 40,0 204,110 231,143 7,9 11,19 11,28 0,22 -18,41 -42,41 C 232,106 68,-4 41,-37 34,-46 31,-56 31,-65 c 0,-22 17,-41 41,-41 z M 0,-67 c 0,71 46,203 258,203 41,0 86,-10 86,-69 0,-71 -46,-203 -258,-203 -41,0 -86,10 -86,69 z"
       fill="currentColor"
       id="path80" />
  </g>
  <g
     transform="translate(74.912105,20.143214)"
     id="g82">
    <path
       transform="scale(0.004,-0.004)"
       d="m 72,-106 c 40,0 204,110 231,143 7,9 11,19 11,28 0,22 -18,41 -42,41 C 232,106 68,-4 41,-37 34,-46 31,-56 31,-65 c 0,-22 17,-41 41,-41 z M 0,-67 c 0,71 46,203 258,203 41,0 86,-10 86,-69 0,-71 -46,-203 -258,-203 -41,0 -86,10 -86,69 z"
       fill="currentColor"
       id="path81" />
  </g>
  <g
     transform="translate(74.977105,22.643214)"
     id="g83">
    <rect
       x="-0.064999998"
       y="-2.2409999"
       width="0.13"
       height="6.2410002"
       ry="0.039999999"
       fill="currentColor"
       id="rect82" />
  </g>
  <g
     transform="translate(85.544505,17.143214)"
     id="g84">
    <text
       font-family="'NewComputerModern Math'"
       font-size="2.3308px"
       text-anchor="start"
       fill="currentColor"
       id="text83"><tspan
         id="tspan83">B</tspan></text>
  </g>
  <g
     transform="translate(87.183305,16.083714)"
     id="g85">
    <text
       font-family="'NewComputerModern Math'"
       font-size="1.648px"
       text-anchor="start"
       fill="currentColor"
       id="text84"><tspan
         id="tspan84">♭</tspan></text>
  </g>
  <g
     transform="translate(85.544505,24.143214)"
     id="g86">
    <path
       transform="scale(0.004,-0.004)"
       d="m 72,-106 c 40,0 204,110 231,143 7,9 11,19 11,28 0,22 -18,41 -42,41 C 232,106 68,-4 41,-37 34,-46 31,-56 31,-65 c 0,-22 17,-41 41,-41 z M 0,-67 c 0,71 46,203 258,203 41,0 86,-10 86,-69 0,-71 -46,-203 -258,-203 -41,0 -86,10 -86,69 z"
       fill="currentColor"
       id="path85" />
  </g>
  <g
     transform="translate(85.544505,20.643214)"
     id="g87">
    <path
       transform="scale(0.004,-0.004)"
       d="m 72,-106 c 40,0 204,110 231,143 7,9 11,19 11,28 0,22 -18,41 -42,41 C 232,106 68,-4 41,-37 34,-46 31,-56 31,-65 c 0,-22 17,-41 41,-41 z M 0,-67 c 0,71 46,203 258,203 41,0 86,-10 86,-69 0,-71 -46,-203 -258,-203 -41,0 -86,10 -86,69 z"
       fill="currentColor"
       id="path86" />
  </g>
  <g
     transform="translate(85.609505,22.643214)"
     id="g88">
    <rect
       x="-0.064999998"
       y="-1.7410001"
       width="0.13"
       height="6.0742998"
       ry="0.039999999"
       fill="currentColor"
       id="rect87" />
  </g>
  <g
     transform="translate(93.986105,22.643214)"
     id="g89">
    <path
       transform="scale(0.004,-0.004)"
       d="M 365,0 H 10 C 4,0 0,4 0,10 v 136 c 0,6 4,10 10,10 h 355 c 6,0 10,-4 10,-10 V 10 C 375,4 371,0 365,0 Z"
       fill="currentColor"
       id="path88" />
  </g>
</svg>
