<?xml version="1.0" encoding="UTF-8" standalone="no"?>
<svg
   version="1.2"
   width="117.8905mm"
   height="21.429161mm"
   viewBox="0 0 67.086204 12.194376"
   id="svg74"
   sodipodi:docname="fig_194.svg"
   xmlns:inkscape="http://www.inkscape.org/namespaces/inkscape"
   xmlns:sodipodi="http://sodipodi.sourceforge.net/DTD/sodipodi-0.dtd"
   xmlns:xlink="http://www.w3.org/1999/xlink"
   xmlns="http://www.w3.org/2000/svg"
   xmlns:svg="http://www.w3.org/2000/svg">
  <defs
     id="defs74" />
  <sodipodi:namedview
     id="namedview74"
     pagecolor="#505050"
     bordercolor="#eeeeee"
     borderopacity="1"
     inkscape:showpageshadow="0"
     inkscape:pageopacity="0"
     inkscape:pagecheckerboard="0"
     inkscape:deskcolor="#505050"
     inkscape:document-units="mm" />
  <style
     type="text/css"
     id="style1"><![CDATA[
tspan { white-space: pre; }
]]></style>
  <g
     transform="translate(66.8962,7.150376)"
     id="g1">
    <rect
       x="0"
       y="-2"
       width="0.19"
       height="4"
       ry="0.0000"
       fill="currentColor"
       id="rect1" />
  </g>
  <g
     transform="translate(66.4062,7.150376)"
     id="g2">
    <rect
       x="0"
       y="-2"
       width="0.19"
       height="4"
       ry="0.0000"
       fill="currentColor"
       id="rect2" />
  </g>
  <g
     transform="translate(0,10.150376)"
     id="g3">
    <rect
       x="32.955299"
       y="-0.1"
       width="1.9563"
       height="0.2"
       ry="0.1"
       fill="currentColor"
       id="rect3" />
  </g>
  <g
     transform="translate(0,10.150376)"
     id="g4">
    <rect
       x="30.6022"
       y="-0.1"
       width="1.8053"
       height="0.2"
       ry="0.1"
       fill="currentColor"
       id="rect4" />
  </g>
  <g
     transform="translate(0,10.150376)"
     id="g5">
    <rect
       x="25.708401"
       y="-0.1"
       width="1.9563"
       height="0.2"
       ry="0.1"
       fill="currentColor"
       id="rect5" />
  </g>
  <g
     transform="translate(0,11.150376)"
     id="g6">
    <rect
       x="25.708401"
       y="-0.1"
       width="1.9563"
       height="0.2"
       ry="0.1"
       fill="currentColor"
       id="rect6" />
  </g>
  <g
     transform="translate(0,10.150376)"
     id="g7">
    <rect
       x="23.4541"
       y="-0.1"
       width="1.9563"
       height="0.2"
       ry="0.1"
       fill="currentColor"
       id="rect7" />
  </g>
  <g
     transform="translate(0,10.150376)"
     id="g8">
    <rect
       x="20.700001"
       y="-0.1"
       width="1.9563"
       height="0.2"
       ry="0.1"
       fill="currentColor"
       id="rect8" />
  </g>
  <g
     transform="translate(0,11.150376)"
     id="g9">
    <rect
       x="20.700001"
       y="-0.1"
       width="1.9563"
       height="0.2"
       ry="0.1"
       fill="currentColor"
       id="rect9" />
  </g>
  <g
     transform="translate(0,10.150376)"
     id="g10">
    <rect
       x="18.5968"
       y="-0.1"
       width="1.8053"
       height="0.2"
       ry="0.1"
       fill="currentColor"
       id="rect10" />
  </g>
  <g
     transform="translate(0,9.150376)"
     id="g11">
    <line
       stroke-linejoin="round"
       stroke-linecap="round"
       stroke-width="0.1"
       stroke="currentColor"
       x1="0.050000001"
       y1="0"
       x2="67.036201"
       y2="0"
       id="line10" />
  </g>
  <g
     transform="translate(0,8.150376)"
     id="g12">
    <line
       stroke-linejoin="round"
       stroke-linecap="round"
       stroke-width="0.1"
       stroke="currentColor"
       x1="0.050000001"
       y1="0"
       x2="67.036201"
       y2="0"
       id="line11" />
  </g>
  <g
     transform="translate(0,7.150376)"
     id="g13">
    <line
       stroke-linejoin="round"
       stroke-linecap="round"
       stroke-width="0.1"
       stroke="currentColor"
       x1="0.050000001"
       y1="0"
       x2="67.036201"
       y2="0"
       id="line12" />
  </g>
  <g
     transform="translate(0,6.150376)"
     id="g14">
    <line
       stroke-linejoin="round"
       stroke-linecap="round"
       stroke-width="0.1"
       stroke="currentColor"
       x1="0.050000001"
       y1="0"
       x2="67.036201"
       y2="0"
       id="line13" />
  </g>
  <g
     transform="translate(0,5.150376)"
     id="g15">
    <line
       stroke-linejoin="round"
       stroke-linecap="round"
       stroke-width="0.1"
       stroke="currentColor"
       x1="0.050000001"
       y1="0"
       x2="67.036201"
       y2="0"
       id="line14" />
  </g>
  <g
     transform="translate(52.0298,7.150376)"
     id="g16">
    <rect
       x="0"
       y="-2"
       width="0.19"
       height="4"
       ry="0.0000"
       fill="currentColor"
       id="rect15" />
  </g>
  <g
     transform="translate(28.7172,7.150376)"
     id="g17">
    <rect
       x="0"
       y="-2"
       width="0.19"
       height="4"
       ry="0.0000"
       fill="currentColor"
       id="rect16" />
  </g>
  <g
     transform="translate(46.9724,9.960376)"
     id="g18">
    <polygon
       stroke-linejoin="round"
       stroke-linecap="round"
       stroke-width="0.08"
       fill="currentColor"
       stroke="currentColor"
       points="0.04,0.2 0.04,-0.2 2.8442,-0.82 2.8442,-0.42 "
       id="polygon17" />
  </g>
  <g
     transform="translate(42.2182,5.960376)"
     id="g19">
    <polygon
       stroke-linejoin="round"
       stroke-linecap="round"
       stroke-width="0.08"
       fill="currentColor"
       stroke="currentColor"
       points="0.04,0.2 0.04,-0.2 2.8442,-0.82 2.8442,-0.42 "
       id="polygon18" />
  </g>
  <a
     style="color:inherit"
     xlink:href="textedit:///Users/devonnuri/Documents/typst/241230%20Linear%20Harmony/lilypond/fig_194.ly:8:4:5"
     id="a22"
     transform="translate(-8.5358,-6.690724)">
    <g
       transform="translate(17.1208,8.8411)"
       id="g20">
      <text
         font-family="'Tex Gyre Termes'"
         font-size="2.3308px"
         text-anchor="start"
         fill="currentColor"
         id="text19"><tspan
           id="tspan19">G</tspan></text>
    </g>
    <g
       transform="translate(18.7938,8.8411)"
       id="g21">
      <text
         font-family="'Tex Gyre Termes'"
         font-size="2.3308px"
         text-anchor="start"
         fill="currentColor"
         id="text20"><tspan
           id="tspan20">m</tspan></text>
    </g>
    <g
       transform="translate(20.6034,7.7817)"
       id="g22">
      <text
         font-family="'Tex Gyre Termes'"
         font-size="1.648px"
         text-anchor="start"
         fill="currentColor"
         id="text21"><tspan
           id="tspan21">7</tspan></text>
    </g>
  </a>
  <a
     style="color:inherit"
     xlink:href="textedit:///Users/devonnuri/Documents/typst/241230%20Linear%20Harmony/lilypond/fig_194.ly:11:4:5"
     id="a23"
     transform="translate(-8.5358,-6.690724)">
    <g
       transform="translate(17.1208,14.8411)"
       id="g23">
      <path
         transform="scale(0.004,-0.004)"
         d="M 0,-46 C 0,45 116,136 217,136 280,136 326,101 326,46 326,-41 216,-136 106,-136 39,-136 0,-97 0,-46 Z"
         fill="currentColor"
         id="path22" />
    </g>
  </a>
  <g
     transform="translate(0.8,8.150376)"
     id="g24">
    <path
       transform="scale(0.004,-0.004)"
       d="m 266,-635 h -6 c -108,0 -195,88 -195,197 0,58 53,103 112,103 54,0 95,-47 95,-103 0,-52 -43,-95 -95,-95 -11,0 -21,2 -31,6 26,-39 68,-65 117,-65 h 4 z m 135,786 c 19,-89 48,-242 60,-354 76,27 112,94 112,163 0,89 -60,179 -172,191 z M 74,28 c 0,-112 98,-247 278,-247 21,0 44,2 68,6 -7,64 -29,203 -63,364 -79,-8 -124,-61 -124,-119 0,-44 25,-91 81,-123 5,-5 7,-10 7,-15 0,-11 -10,-22 -22,-22 -15,0 -126,62 -126,187 0,88 58,174 160,197 -14,58 -29,117 -46,175 C 180,310 74,188 74,28 Z m 283,1166 c 28,0 143,-206 143,-361 0,-143 -86,-255 -180,-364 21,-68 39,-138 56,-207 5,0 10,1 14,1 155,0 255,-129 255,-262 0,-113 -74,-212 -180,-245 3,-35 5,-70 5,-105 0,-19 -1,-39 -2,-58 -7,-119 -88,-225 -202,-228 l 1,43 c 93,2 153,92 159,191 1,18 2,37 2,55 0,31 -1,61 -4,92 -28,-5 -55,-8 -80,-8 -239,0 -342,217 -342,374 0,177 131,306 248,441 -29,96 -52,170 -52,346 0,189 144,295 159,295 z M 247,782 c 0,-55 12,-115 35,-190 83,100 147,202 147,326 0,40 -6,82 -21,127 -49,-24 -161,-97 -161,-263 z"
       fill="currentColor"
       id="path23" />
  </g>
  <g
     transform="translate(4.885,7.150376)"
     id="g25">
    <path
       transform="scale(0.004,-0.004)"
       d="M 433,-89 C 433,-111 383,-263 250,-263 191,-263 0,-244 0,0 0,62 18,262 250,262 366,262 426,156 426,99 426,59 396,27 359,27 c -31,0 -75,25 -75,75 0,38 27,77 72,77 4,0 9,0 14,-1 -28,37 -72,59 -120,59 C 144,237 137,164 137,51 V 0 -51 c 0,-113 7,-187 113,-187 80,0 139,70 158,151 2,7 7,10 12,10 6,0 13,-4 13,-12 z"
       fill="currentColor"
       id="path24" />
  </g>
  <g
     transform="translate(9.8242,7.150376)"
     id="g26">
    <rect
       x="-0.064999998"
       y="-1.7931"
       width="0.13"
       height="2.6069"
       ry="0.039999999"
       fill="currentColor"
       id="rect25" />
  </g>
  <g
     transform="translate(36.9598,5.960376)"
     id="g27">
    <polygon
       stroke-linejoin="round"
       stroke-linecap="round"
       stroke-width="0.08"
       fill="currentColor"
       stroke="currentColor"
       points="0.04,0.2 0.04,-0.2 2.8442,-0.82 2.8442,-0.42 "
       id="polygon26" />
  </g>
  <a
     style="color:inherit"
     xlink:href="textedit:///Users/devonnuri/Documents/typst/241230%20Linear%20Harmony/lilypond/fig_194.ly:11:8:9"
     id="a28"
     transform="translate(-8.5358,-6.690724)">
    <g
       transform="translate(19.375,15.8411)"
       id="g28">
      <path
         transform="scale(0.004,-0.004)"
         d="M 0,-46 C 0,45 116,136 217,136 280,136 326,101 326,46 326,-41 216,-136 106,-136 39,-136 0,-97 0,-46 Z"
         fill="currentColor"
         id="path27" />
    </g>
  </a>
  <g
     transform="translate(12.0784,7.150376)"
     id="g29">
    <rect
       x="-0.064999998"
       y="-1.2069"
       width="0.13"
       height="3.0207"
       ry="0.039999999"
       fill="currentColor"
       id="rect28" />
  </g>
  <g
     transform="translate(31.9514,7.150376)"
     id="g30">
    <polygon
       stroke-linejoin="round"
       stroke-linecap="round"
       stroke-width="0.08"
       fill="currentColor"
       stroke="currentColor"
       points="0.04,0.2 0.04,-0.2 2.5942,-0.39 2.5942,0.01 "
       id="polygon29" />
  </g>
  <a
     style="color:inherit"
     xlink:href="textedit:///Users/devonnuri/Documents/typst/241230%20Linear%20Harmony/lilypond/fig_194.ly:11:10:11"
     id="a31"
     transform="translate(-8.5358,-6.690724)">
    <g
       transform="translate(21.8792,15.3411)"
       id="g31">
      <path
         transform="scale(0.004,-0.004)"
         d="M 0,-46 C 0,45 116,136 217,136 280,136 326,101 326,46 326,-41 216,-136 106,-136 39,-136 0,-97 0,-46 Z"
         fill="currentColor"
         id="path30" />
    </g>
  </a>
  <g
     transform="translate(14.5826,7.150376)"
     id="g32">
    <rect
       x="-0.064999998"
       y="-1.7931"
       width="0.13"
       height="3.1069"
       ry="0.039999999"
       fill="currentColor"
       id="rect31" />
  </g>
  <g
     transform="translate(24.9544,6.960376)"
     id="g33">
    <polygon
       stroke-linejoin="round"
       stroke-linecap="round"
       stroke-width="0.08"
       fill="currentColor"
       stroke="currentColor"
       points="0.04,0.2 0.04,-0.2 2.3442,-0.01 2.3442,0.39 "
       id="polygon32" />
  </g>
  <a
     style="color:inherit"
     xlink:href="textedit:///Users/devonnuri/Documents/typst/241230%20Linear%20Harmony/lilypond/fig_194.ly:11:12:13"
     id="a34"
     transform="translate(-8.5358,-6.690724)">
    <g
       transform="translate(24.1334,16.3411)"
       id="g34">
      <path
         transform="scale(0.004,-0.004)"
         d="M 0,-46 C 0,45 116,136 217,136 280,136 326,101 326,46 326,-41 216,-136 106,-136 39,-136 0,-97 0,-46 Z"
         fill="currentColor"
         id="path33" />
    </g>
  </a>
  <g
     transform="translate(16.8368,7.150376)"
     id="g35">
    <rect
       x="-0.064999998"
       y="-1.2069"
       width="0.13"
       height="3.5207"
       ry="0.039999999"
       fill="currentColor"
       id="rect34" />
  </g>
  <g
     transform="translate(19.946,6.960376)"
     id="g36">
    <polygon
       stroke-linejoin="round"
       stroke-linecap="round"
       stroke-width="0.08"
       fill="currentColor"
       stroke="currentColor"
       points="0.04,0.2 0.04,-0.2 2.3442,-0.01 2.3442,0.39 "
       id="polygon35" />
  </g>
  <a
     style="color:inherit"
     xlink:href="textedit:///Users/devonnuri/Documents/typst/241230%20Linear%20Harmony/lilypond/fig_194.ly:11:14:15"
     id="a37"
     transform="translate(-8.5358,-6.690724)">
    <g
       transform="translate(27.3076,17.3411)"
       id="g37">
      <path
         transform="scale(0.004,-0.004)"
         d="M 0,-46 C 0,45 116,136 217,136 280,136 326,101 326,46 326,-41 216,-136 106,-136 39,-136 0,-97 0,-46 Z"
         fill="currentColor"
         id="path36" />
    </g>
  </a>
  <g
     transform="translate(20.011,7.150376)"
     id="g38">
    <rect
       x="-0.064999998"
       y="-0.1848"
       width="0.13"
       height="3.4986"
       ry="0.039999999"
       fill="currentColor"
       id="rect37" />
  </g>
  <g
     transform="translate(17.6218,10.650376)"
     id="g39">
    <path
       transform="scale(0.004,-0.004)"
       d="m 27,41 -1,-66 v -11 c 0,-22 1,-44 4,-66 45,38 93,80 93,139 0,33 -14,67 -43,67 C 49,104 28,74 27,41 Z m -42,-179 -12,595 c 8,5 18,8 27,8 9,0 19,-3 27,-8 L 20,112 c 25,21 58,34 91,34 52,0 89,-48 89,-102 0,-80 -86,-117 -147,-169 -15,-13 -24,-38 -45,-38 -13,0 -23,11 -23,25 z"
       fill="currentColor"
       id="path38" />
  </g>
  <g
     transform="translate(14.5176,5.340376)"
     id="g40">
    <polygon
       stroke-linejoin="round"
       stroke-linecap="round"
       stroke-width="0.08"
       fill="currentColor"
       stroke="currentColor"
       points="0.04,0.2 0.04,-0.2 2.3442,0.42 2.3442,0.82 "
       id="polygon39" />
  </g>
  <a
     style="color:inherit"
     xlink:href="textedit:///Users/devonnuri/Documents/typst/241230%20Linear%20Harmony/lilypond/fig_194.ly:11:18:19"
     id="a41"
     transform="translate(-8.5358,-6.690724)">
    <g
       transform="translate(29.5618,18.3411)"
       id="g41">
      <path
         transform="scale(0.004,-0.004)"
         d="M 0,-46 C 0,45 116,136 217,136 280,136 326,101 326,46 326,-41 216,-136 106,-136 39,-136 0,-97 0,-46 Z"
         fill="currentColor"
         id="path40" />
    </g>
  </a>
  <g
     transform="translate(22.2652,7.150376)"
     id="g42">
    <rect
       x="-0.064999998"
       y="-0.0052"
       width="0.13"
       height="4.3189998"
       ry="0.039999999"
       fill="currentColor"
       id="rect41" />
  </g>
  <g
     transform="translate(9.7592,5.340376)"
     id="g43">
    <polygon
       stroke-linejoin="round"
       stroke-linecap="round"
       stroke-width="0.08"
       fill="currentColor"
       stroke="currentColor"
       points="0.04,0.2 0.04,-0.2 2.3442,0.42 2.3442,0.82 "
       id="polygon42" />
  </g>
  <a
     style="color:inherit"
     xlink:href="textedit:///Users/devonnuri/Documents/typst/241230%20Linear%20Harmony/lilypond/fig_194.ly:11:20:21"
     id="a44"
     transform="translate(-8.5358,-6.690724)">
    <g
       transform="translate(32.316,16.8411)"
       id="g44">
      <path
         transform="scale(0.004,-0.004)"
         d="M 0,-46 C 0,45 116,136 217,136 280,136 326,101 326,46 326,-41 216,-136 106,-136 39,-136 0,-97 0,-46 Z"
         fill="currentColor"
         id="path43" />
    </g>
  </a>
  <g
     transform="translate(25.0194,7.150376)"
     id="g45">
    <rect
       x="-0.064999998"
       y="-0.1848"
       width="0.13"
       height="2.9986"
       ry="0.039999999"
       fill="currentColor"
       id="rect44" />
  </g>
  <a
     style="color:inherit"
     xlink:href="textedit:///Users/devonnuri/Documents/typst/241230%20Linear%20Harmony/lilypond/fig_194.ly:11:22:23"
     id="a46"
     transform="translate(-8.5358,-6.690724)">
    <g
       transform="translate(34.5702,17.8411)"
       id="g46">
      <path
         transform="scale(0.004,-0.004)"
         d="M 0,-46 C 0,45 116,136 217,136 280,136 326,101 326,46 326,-41 216,-136 106,-136 39,-136 0,-97 0,-46 Z"
         fill="currentColor"
         id="path45" />
    </g>
  </a>
  <g
     transform="translate(27.2736,7.150376)"
     id="g47">
    <rect
       x="-0.064999998"
       y="-0.0052"
       width="0.13"
       height="3.819"
       ry="0.039999999"
       fill="currentColor"
       id="rect46" />
  </g>
  <a
     style="color:inherit"
     xlink:href="textedit:///Users/devonnuri/Documents/typst/241230%20Linear%20Harmony/lilypond/fig_194.ly:8:10:11"
     id="a49"
     transform="translate(-8.5358,-6.690724)">
    <g
       transform="translate(39.313,8.8411)"
       id="g48">
      <text
         font-family="'Tex Gyre Termes'"
         font-size="2.3308px"
         text-anchor="start"
         fill="currentColor"
         id="text47"><tspan
           id="tspan47">C</tspan></text>
    </g>
    <g
       transform="translate(40.8836,7.7817)"
       id="g49">
      <text
         font-family="'Tex Gyre Termes'"
         font-size="1.648px"
         text-anchor="start"
         fill="currentColor"
         id="text48"><tspan
           id="tspan48">7</tspan></text>
    </g>
  </a>
  <a
     style="color:inherit"
     xlink:href="textedit:///Users/devonnuri/Documents/typst/241230%20Linear%20Harmony/lilypond/fig_194.ly:11:24:25"
     id="a50"
     transform="translate(-8.5358,-6.690724)">
    <g
       transform="translate(39.313,17.3411)"
       id="g50">
      <path
         transform="scale(0.004,-0.004)"
         d="M 0,-46 C 0,45 116,136 217,136 280,136 326,101 326,46 326,-41 216,-136 106,-136 39,-136 0,-97 0,-46 Z"
         fill="currentColor"
         id="path49" />
    </g>
  </a>
  <g
     transform="translate(32.0164,7.150376)"
     id="g51">
    <rect
       x="-0.064999998"
       y="-0.0046999999"
       width="0.13"
       height="3.3185"
       ry="0.039999999"
       fill="currentColor"
       id="rect50" />
  </g>
  <g
     transform="translate(29.6272,10.650376)"
     id="g52">
    <path
       transform="scale(0.004,-0.004)"
       d="m 27,41 -1,-66 v -11 c 0,-22 1,-44 4,-66 45,38 93,80 93,139 0,33 -14,67 -43,67 C 49,104 28,74 27,41 Z m -42,-179 -12,595 c 8,5 18,8 27,8 9,0 19,-3 27,-8 L 20,112 c 25,21 58,34 91,34 52,0 89,-48 89,-102 0,-80 -86,-117 -147,-169 -15,-13 -24,-38 -45,-38 -13,0 -23,11 -23,25 z"
       fill="currentColor"
       id="path51" />
  </g>
  <a
     style="color:inherit"
     xlink:href="textedit:///Users/devonnuri/Documents/typst/241230%20Linear%20Harmony/lilypond/fig_194.ly:11:28:29"
     id="a53"
     transform="translate(-8.5358,-6.690724)">
    <g
       transform="translate(41.8172,16.8411)"
       id="g53">
      <path
         transform="scale(0.004,-0.004)"
         d="M 0,-46 C 0,45 116,136 217,136 280,136 326,101 326,46 326,-41 216,-136 106,-136 39,-136 0,-97 0,-46 Z"
         fill="currentColor"
         id="path52" />
    </g>
  </a>
  <g
     transform="translate(34.5206,7.150376)"
     id="g54">
    <rect
       x="-0.064999998"
       y="-0.18529999"
       width="0.13"
       height="2.9991"
       ry="0.039999999"
       fill="currentColor"
       id="rect53" />
  </g>
  <a
     style="color:inherit"
     xlink:href="textedit:///Users/devonnuri/Documents/typst/241230%20Linear%20Harmony/lilypond/fig_194.ly:11:30:31"
     id="a55"
     transform="translate(-8.5358,-6.690724)">
    <g
       transform="translate(44.3214,16.3411)"
       id="g55">
      <path
         transform="scale(0.004,-0.004)"
         d="M 0,-46 C 0,45 116,136 217,136 280,136 326,101 326,46 326,-41 216,-136 106,-136 39,-136 0,-97 0,-46 Z"
         fill="currentColor"
         id="path54" />
    </g>
  </a>
  <g
     transform="translate(37.0248,7.150376)"
     id="g56">
    <rect
       x="-0.064999998"
       y="-1.204"
       width="0.13"
       height="3.5178001"
       ry="0.039999999"
       fill="currentColor"
       id="rect55" />
  </g>
  <a
     style="color:inherit"
     xlink:href="textedit:///Users/devonnuri/Documents/typst/241230%20Linear%20Harmony/lilypond/fig_194.ly:11:32:33"
     id="a57"
     transform="translate(-8.5358,-6.690724)">
    <g
       transform="translate(47.0756,15.3411)"
       id="g57">
      <path
         transform="scale(0.004,-0.004)"
         d="M 0,-46 C 0,45 116,136 217,136 280,136 326,101 326,46 326,-41 216,-136 106,-136 39,-136 0,-97 0,-46 Z"
         fill="currentColor"
         id="path56" />
    </g>
  </a>
  <g
     transform="translate(39.779,7.150376)"
     id="g58">
    <rect
       x="-0.064999998"
       y="-1.796"
       width="0.13"
       height="3.1098001"
       ry="0.039999999"
       fill="currentColor"
       id="rect57" />
  </g>
  <a
     style="color:inherit"
     xlink:href="textedit:///Users/devonnuri/Documents/typst/241230%20Linear%20Harmony/lilypond/fig_194.ly:11:34:35"
     id="a59"
     transform="translate(-8.5358,-6.690724)">
    <g
       transform="translate(49.5798,15.8411)"
       id="g59">
      <path
         transform="scale(0.004,-0.004)"
         d="M 0,-46 C 0,45 116,136 217,136 280,136 326,101 326,46 326,-41 216,-136 106,-136 39,-136 0,-97 0,-46 Z"
         fill="currentColor"
         id="path58" />
    </g>
  </a>
  <g
     transform="translate(42.2832,7.150376)"
     id="g60">
    <rect
       x="-0.064999998"
       y="-1.204"
       width="0.13"
       height="3.0178001"
       ry="0.039999999"
       fill="currentColor"
       id="rect59" />
  </g>
  <a
     style="color:inherit"
     xlink:href="textedit:///Users/devonnuri/Documents/typst/241230%20Linear%20Harmony/lilypond/fig_194.ly:11:36:37"
     id="a61"
     transform="translate(-8.5358,-6.690724)">
    <g
       transform="translate(52.334,14.8411)"
       id="g61">
      <path
         transform="scale(0.004,-0.004)"
         d="M 0,-46 C 0,45 116,136 217,136 280,136 326,101 326,46 326,-41 216,-136 106,-136 39,-136 0,-97 0,-46 Z"
         fill="currentColor"
         id="path60" />
    </g>
  </a>
  <g
     transform="translate(45.0374,7.150376)"
     id="g62">
    <rect
       x="-0.064999998"
       y="-1.796"
       width="0.13"
       height="2.6098001"
       ry="0.039999999"
       fill="currentColor"
       id="rect61" />
  </g>
  <a
     style="color:inherit"
     xlink:href="textedit:///Users/devonnuri/Documents/typst/241230%20Linear%20Harmony/lilypond/fig_194.ly:11:38:39"
     id="a63"
     transform="translate(-8.5358,-6.690724)">
    <g
       transform="translate(55.5082,13.8411)"
       id="g63">
      <path
         transform="scale(0.004,-0.004)"
         d="M 0,-46 C 0,45 116,136 217,136 280,136 326,101 326,46 326,-41 216,-136 106,-136 39,-136 0,-97 0,-46 Z"
         fill="currentColor"
         id="path62" />
    </g>
  </a>
  <g
     transform="translate(47.0374,7.150376)"
     id="g64">
    <rect
       x="-0.064999998"
       y="0.18619999"
       width="0.13"
       height="2.6098001"
       ry="0.039999999"
       fill="currentColor"
       id="rect63" />
  </g>
  <g
     transform="translate(45.8224,7.150376)"
     id="g65">
    <path
       transform="scale(0.004,-0.004)"
       d="m 27,41 -1,-66 v -11 c 0,-22 1,-44 4,-66 45,38 93,80 93,139 0,33 -14,67 -43,67 C 49,104 28,74 27,41 Z m -42,-179 -12,595 c 8,5 18,8 27,8 9,0 19,-3 27,-8 L 20,112 c 25,21 58,34 91,34 52,0 89,-48 89,-102 0,-80 -86,-117 -147,-169 -15,-13 -24,-38 -45,-38 -13,0 -23,11 -23,25 z"
       fill="currentColor"
       id="path64" />
  </g>
  <a
     style="color:inherit"
     xlink:href="textedit:///Users/devonnuri/Documents/typst/241230%20Linear%20Harmony/lilypond/fig_194.ly:11:42:43"
     id="a66"
     transform="translate(-8.5358,-6.690724)">
    <g
       transform="translate(58.2624,12.8411)"
       id="g66">
      <path
         transform="scale(0.004,-0.004)"
         d="M 0,-46 C 0,45 116,136 217,136 280,136 326,101 326,46 326,-41 216,-136 106,-136 39,-136 0,-97 0,-46 Z"
         fill="currentColor"
         id="path65" />
    </g>
  </a>
  <g
     transform="translate(49.7916,7.150376)"
     id="g67">
    <rect
       x="-0.064999998"
       y="-0.81379998"
       width="0.13"
       height="3.0178001"
       ry="0.039999999"
       fill="currentColor"
       id="rect66" />
  </g>
  <a
     style="color:inherit"
     xlink:href="textedit:///Users/devonnuri/Documents/typst/241230%20Linear%20Harmony/lilypond/fig_194.ly:8:14:15"
     id="a68"
     transform="translate(-8.5358,-6.690724)">
    <g
       transform="translate(61.7878,8.8411)"
       id="g68">
      <text
         font-family="'Tex Gyre Termes'"
         font-size="2.3308px"
         text-anchor="start"
         fill="currentColor"
         id="text67"><tspan
           id="tspan67">F</tspan></text>
    </g>
  </a>
  <a
     style="color:inherit"
     xlink:href="textedit:///Users/devonnuri/Documents/typst/241230%20Linear%20Harmony/lilypond/fig_194.ly:11:44:45"
     id="a69"
     transform="translate(-8.5358,-6.690724)">
    <g
       transform="translate(61.7878,13.3411)"
       id="g69">
      <path
         transform="scale(0.004,-0.004)"
         d="M 0,-46 C 0,45 116,136 217,136 280,136 326,101 326,46 326,-41 216,-136 106,-136 39,-136 0,-97 0,-46 Z"
         fill="currentColor"
         id="path68" />
    </g>
  </a>
  <g
     transform="translate(53.317,7.150376)"
     id="g70">
    <rect
       x="-0.064999998"
       y="-0.31380001"
       width="0.13"
       height="3.3138001"
       ry="0.039999999"
       fill="currentColor"
       id="rect69" />
  </g>
  <g
     transform="translate(53.382,10.110376)"
     id="g71">
    <path
       transform="scale(0.004,-0.004)"
       d="M 0,0 H -16 V 375 H 0 Z m 224,509 c 0,94 -40,158 -40,168 0,14 11,22 23,22 7,0 15,-3 20,-11 25,-56 40,-117 40,-179 C 267,306 0,203 0,0 v 250 c 97,59 224,148 224,259 z"
       fill="currentColor"
       id="path70" />
  </g>
  <a
     style="color:inherit"
     xlink:href="textedit:///Users/devonnuri/Documents/typst/241230%20Linear%20Harmony/lilypond/fig_194.ly:11:46:47"
     id="a72"
     transform="translate(-8.5358,-6.690724)">
    <g
       transform="translate(64.292,13.8411)"
       id="g72">
      <path
         transform="scale(0.004,-0.004)"
         d="m 70,205 c 79,0 46,-98 91,-98 16,0 54,48 61,63 3,6 8,9 14,9 6,0 12,-3 14,-9 L 127,-250 c -8,-7 -17,-10 -27,-10 -10,0 -20,3 -28,10 L 189,76 C 155,64 120,54 84,54 26,54 -1,95 -1,134 c 0,36 24,71 71,71 z"
         fill="currentColor"
         id="path71" />
    </g>
  </a>
  <a
     style="color:inherit"
     xlink:href="textedit:///Users/devonnuri/Documents/typst/241230%20Linear%20Harmony/lilypond/fig_194.ly:11:48:49"
     id="a73"
     transform="translate(-8.5358,-6.690724)">
    <g
       transform="translate(66.492,13.8411)"
       id="g73">
      <path
         transform="scale(0.004,-0.004)"
         d="m -6,78 c 0,59 124,83 124,182 0,24 -8,49 -25,69 l -35,42 c -3,3 -4,7 -4,10 0,9 9,15 17,15 4,0 8,-1 11,-5 L 233,211 c 7,-9 10,-17 10,-25 0,-59 -124,-83 -124,-182 0,-24 7,-49 24,-69 l 84,-99 c 3,-3 4,-7 4,-10 0,-9 -8,-16 -16,-16 -8,0 -45,44 -109,44 -16,0 -53,0 -53,-67 0,-62 30,-97 30,-100 0,-4 -4,-7 -8,-7 -13,0 -98,130 -98,204 0,41 27,42 40,42 33,0 78,-13 119,-31 L 4,53 C -3,62 -6,70 -6,78 Z"
         fill="currentColor"
         id="path72" />
    </g>
  </a>
  <a
     style="color:inherit"
     xlink:href="textedit:///Users/devonnuri/Documents/typst/241230%20Linear%20Harmony/lilypond/fig_194.ly:11:51:52"
     id="a74"
     transform="translate(-8.5358,-6.690724)">
    <g
       transform="translate(69.842,13.8411)"
       id="g74">
      <path
         transform="scale(0.004,-0.004)"
         d="M 365,0 H 10 C 4,0 0,4 0,10 v 136 c 0,6 4,10 10,10 h 355 c 6,0 10,-4 10,-10 V 10 C 375,4 371,0 365,0 Z"
         fill="currentColor"
         id="path73" />
    </g>
  </a>
</svg>
