<?xml version="1.0" encoding="UTF-8" standalone="no"?>
<svg
   version="1.2"
   width="181.40648mm"
   height="46.865139mm"
   viewBox="0 0 103.23031 26.668852"
   id="svg205"
   sodipodi:docname="fig_375.svg"
   xmlns:inkscape="http://www.inkscape.org/namespaces/inkscape"
   xmlns:sodipodi="http://sodipodi.sourceforge.net/DTD/sodipodi-0.dtd"
   xmlns="http://www.w3.org/2000/svg"
   xmlns:svg="http://www.w3.org/2000/svg">
  <defs
     id="defs205" />
  <sodipodi:namedview
     id="namedview205"
     pagecolor="#505050"
     bordercolor="#eeeeee"
     borderopacity="1"
     inkscape:showpageshadow="0"
     inkscape:pageopacity="0"
     inkscape:pagecheckerboard="0"
     inkscape:deskcolor="#505050"
     inkscape:document-units="mm" />
  <style
     type="text/css"
     id="style1"><![CDATA[
tspan { white-space: pre; }
]]></style>
  <g
     transform="translate(103.0403,6.6688528)"
     id="g1">
    <rect
       x="0"
       y="-2"
       width="0.19"
       height="4"
       ry="0.0000"
       fill="currentColor"
       id="rect1" />
  </g>
  <g
     transform="translate(0.800405,9.6688528)"
     id="g2">
    <rect
       x="83.387497"
       y="-0.1"
       width="1.8052"
       height="0.2"
       ry="0.1"
       fill="currentColor"
       id="rect2" />
  </g>
  <g
     transform="translate(0.800405,9.6688528)"
     id="g3">
    <rect
       x="78.678902"
       y="-0.1"
       width="1.9563"
       height="0.2"
       ry="0.1"
       fill="currentColor"
       id="rect3" />
  </g>
  <g
     transform="translate(0.800405,9.6688528)"
     id="g4">
    <rect
       x="45.006699"
       y="-0.1"
       width="1.9563"
       height="0.2"
       ry="0.1"
       fill="currentColor"
       id="rect4" />
  </g>
  <g
     transform="translate(0.800405,9.6688528)"
     id="g5">
    <rect
       x="42.458099"
       y="-0.1"
       width="1.8141"
       height="0.2"
       ry="0.1"
       fill="currentColor"
       id="rect5" />
  </g>
  <g
     transform="translate(0.800405,9.6688528)"
     id="g6">
    <rect
       x="33.710098"
       y="-0.1"
       width="1.8053"
       height="0.2"
       ry="0.1"
       fill="currentColor"
       id="rect6" />
  </g>
  <g
     transform="translate(0.800405,9.6688528)"
     id="g7">
    <rect
       x="28.308201"
       y="-0.1"
       width="1.9563"
       height="0.2"
       ry="0.1"
       fill="currentColor"
       id="rect7" />
  </g>
  <g
     transform="translate(0.800405,10.668853)"
     id="g8">
    <rect
       x="28.308201"
       y="-0.1"
       width="1.9563"
       height="0.2"
       ry="0.1"
       fill="currentColor"
       id="rect8" />
  </g>
  <g
     transform="translate(0.800405,8.6688528)"
     id="g9">
    <line
       stroke-linejoin="round"
       stroke-linecap="round"
       stroke-width="0.1"
       stroke="currentColor"
       x1="0.050000001"
       y1="0"
       x2="102.3799"
       y2="0"
       id="line8" />
  </g>
  <g
     transform="translate(0.800405,7.6688528)"
     id="g10">
    <line
       stroke-linejoin="round"
       stroke-linecap="round"
       stroke-width="0.1"
       stroke="currentColor"
       x1="0.050000001"
       y1="0"
       x2="102.3799"
       y2="0"
       id="line9" />
  </g>
  <g
     transform="translate(0.800405,6.6688528)"
     id="g11">
    <line
       stroke-linejoin="round"
       stroke-linecap="round"
       stroke-width="0.1"
       stroke="currentColor"
       x1="0.050000001"
       y1="0"
       x2="102.3799"
       y2="0"
       id="line10" />
  </g>
  <g
     transform="translate(0.800405,5.6688528)"
     id="g12">
    <line
       stroke-linejoin="round"
       stroke-linecap="round"
       stroke-width="0.1"
       stroke="currentColor"
       x1="0.050000001"
       y1="0"
       x2="102.3799"
       y2="0"
       id="line11" />
  </g>
  <g
     transform="translate(0.800405,4.6688528)"
     id="g13">
    <line
       stroke-linejoin="round"
       stroke-linecap="round"
       stroke-width="0.1"
       stroke="currentColor"
       x1="0.050000001"
       y1="0"
       x2="102.3799"
       y2="0"
       id="line12" />
  </g>
  <g
     transform="translate(82.052905,6.6688528)"
     id="g14">
    <rect
       x="0"
       y="-2"
       width="0.19"
       height="4"
       ry="0.0000"
       fill="currentColor"
       id="rect13" />
  </g>
  <g
     transform="translate(57.811905,6.6688528)"
     id="g15">
    <rect
       x="0"
       y="-2"
       width="0.19"
       height="4"
       ry="0.0000"
       fill="currentColor"
       id="rect14" />
  </g>
  <g
     transform="translate(32.375505,6.6688528)"
     id="g16">
    <rect
       x="0"
       y="-2"
       width="0.19"
       height="4"
       ry="0.0000"
       fill="currentColor"
       id="rect15" />
  </g>
  <g
     transform="translate(89.614605,3.6688528)"
     id="g17">
    <polygon
       stroke-linejoin="round"
       stroke-linecap="round"
       stroke-width="0.08"
       fill="currentColor"
       stroke="currentColor"
       points="0.04,0.2 0.04,-0.2 2.7809,-0.01 2.7809,0.39 "
       id="polygon16" />
  </g>
  <g
     transform="translate(9.385405,1.6688528)"
     id="g18">
    <text
       font-family="'NewComputerModern Math'"
       font-size="2.3308px"
       text-anchor="start"
       fill="currentColor"
       id="text17"><tspan
         id="tspan17">D</tspan></text>
  </g>
  <g
     transform="translate(11.160905,2.4634528)"
     id="g19">
    <text
       font-family="'NewComputerModern Math'"
       font-size="1.648px"
       text-anchor="start"
       fill="currentColor"
       id="text18"><tspan
         id="tspan18">−</tspan></text>
  </g>
  <g
     transform="translate(12.458305,2.4634528)"
     id="g20">
    <text
       font-family="'NewComputerModern Math'"
       font-size="1.648px"
       text-anchor="start"
       fill="currentColor"
       id="text19"><tspan
         id="tspan19">7</tspan></text>
  </g>
  <g
     transform="translate(9.385405,6.6688528)"
     id="g21">
    <path
       transform="scale(0.004,-0.004)"
       d="m 70,205 c 79,0 46,-98 91,-98 16,0 54,48 61,63 3,6 8,9 14,9 6,0 12,-3 14,-9 L 127,-250 c -8,-7 -17,-10 -27,-10 -10,0 -20,3 -28,10 L 189,76 C 155,64 120,54 84,54 26,54 -1,95 -1,134 c 0,36 24,71 71,71 z"
       fill="currentColor"
       id="path20" />
  </g>
  <g
     transform="translate(1.600405,7.6688528)"
     id="g22">
    <path
       transform="scale(0.004,-0.004)"
       d="m 266,-635 h -6 c -108,0 -195,88 -195,197 0,58 53,103 112,103 54,0 95,-47 95,-103 0,-52 -43,-95 -95,-95 -11,0 -21,2 -31,6 26,-39 68,-65 117,-65 h 4 z m 135,786 c 19,-89 48,-242 60,-354 76,27 112,94 112,163 0,89 -60,179 -172,191 z M 74,28 c 0,-112 98,-247 278,-247 21,0 44,2 68,6 -7,64 -29,203 -63,364 -79,-8 -124,-61 -124,-119 0,-44 25,-91 81,-123 5,-5 7,-10 7,-15 0,-11 -10,-22 -22,-22 -15,0 -126,62 -126,187 0,88 58,174 160,197 -14,58 -29,117 -46,175 C 180,310 74,188 74,28 Z m 283,1166 c 28,0 143,-206 143,-361 0,-143 -86,-255 -180,-364 21,-68 39,-138 56,-207 5,0 10,1 14,1 155,0 255,-129 255,-262 0,-113 -74,-212 -180,-245 3,-35 5,-70 5,-105 0,-19 -1,-39 -2,-58 -7,-119 -88,-225 -202,-228 l 1,43 c 93,2 153,92 159,191 1,18 2,37 2,55 0,31 -1,61 -4,92 -28,-5 -55,-8 -80,-8 -239,0 -342,217 -342,374 0,177 131,306 248,441 -29,96 -52,170 -52,346 0,189 144,295 159,295 z M 247,782 c 0,-55 12,-115 35,-190 83,100 147,202 147,326 0,40 -6,82 -21,127 -49,-24 -161,-97 -161,-263 z"
       fill="currentColor"
       id="path21" />
  </g>
  <g
     transform="translate(5.685405,6.6688528)"
     id="g23">
    <path
       transform="scale(0.004,-0.004)"
       d="M 433,-89 C 433,-111 383,-263 250,-263 191,-263 0,-244 0,0 0,62 18,262 250,262 366,262 426,156 426,99 426,59 396,27 359,27 c -31,0 -75,25 -75,75 0,38 27,77 72,77 4,0 9,0 14,-1 -28,37 -72,59 -120,59 C 144,237 137,164 137,51 V 0 -51 c 0,-113 7,-187 113,-187 80,0 139,70 158,151 2,7 7,10 12,10 6,0 13,-4 13,-12 z"
       fill="currentColor"
       id="path22" />
  </g>
  <g
     transform="translate(91.131305,6.6688528)"
     id="g24">
    <path
       stroke-width="0.08"
       stroke-linejoin="round"
       stroke-linecap="round"
       stroke="currentColor"
       fill="currentColor"
       d="m 0.8521,1.225 c 0.5396,0.6173 1.7512,0.6173 2.2909,0 v 0 c -0.5397,0.4973 -1.7513,0.4973 -2.2909,0 z"
       id="path23" />
  </g>
  <g
     transform="translate(12.622105,7.6688528)"
     id="g25">
    <path
       transform="scale(0.004,-0.004)"
       d="M 0,-46 C 0,45 116,136 217,136 280,136 326,101 326,46 326,-41 216,-136 106,-136 39,-136 0,-97 0,-46 Z"
       fill="currentColor"
       id="path24" />
  </g>
  <g
     transform="translate(13.861305,6.6688528)"
     id="g26">
    <rect
       x="-0.064999998"
       y="-2.5"
       width="0.13"
       height="3.3138001"
       ry="0.039999999"
       fill="currentColor"
       id="rect25" />
  </g>
  <g
     transform="translate(13.926305,4.2088528)"
     id="g27">
    <path
       transform="scale(0.004,-0.004)"
       d="M 0,0 V -375 H -16 V 0 Z m 123,-729 c 0,10 42,87 42,196 0,103 -94,208 -165,283 V 0 c 0,-197 207,-336 207,-533 0,-71 -15,-141 -41,-207 -5,-8 -13,-12 -20,-12 -12,0 -23,9 -23,23 z"
       fill="currentColor"
       id="path26" />
  </g>
  <g
     transform="translate(11.172105,7.6688528)"
     id="g28">
    <path
       transform="scale(0.004,-0.004)"
       d="m 0,119 c 0,8 5,15 13,18 l 46,17 v 158 c 0,10 8,19 18,19 10,0 19,-9 19,-19 V 167 l 83,31 v 158 c 0,10 9,19 19,19 10,0 18,-9 18,-19 V 211 l 32,12 c 2,1 5,1 7,1 11,0 20,-9 20,-20 v -60 c 0,-8 -5,-16 -13,-19 L 216,109 V -51 l 32,11 c 2,1 5,1 7,1 11,0 20,-9 20,-20 v -60 c 0,-8 -5,-15 -13,-18 l -46,-17 v -158 c 0,-10 -8,-19 -18,-19 -10,0 -19,9 -19,19 v 145 l -83,-31 v -158 c 0,-10 -9,-19 -19,-19 -10,0 -18,9 -18,19 v 145 l -32,-12 c -2,-1 -5,-1 -7,-1 -11,0 -20,9 -20,20 v 60 c 0,8 5,16 13,19 l 46,16 V 51 L 27,40 C 25,39 22,39 20,39 9,39 0,48 0,59 Z M 179,95 96,65 V -95 l 83,30 z"
       fill="currentColor"
       id="path27" />
  </g>
  <g
     transform="translate(74.987005,5.6688528)"
     id="g29">
    <polygon
       stroke-linejoin="round"
       stroke-linecap="round"
       stroke-width="0.08"
       fill="currentColor"
       stroke="currentColor"
       points="0.04,0.2 0.04,-0.2 6.0826,-0.01 6.0826,0.39 "
       id="polygon28" />
  </g>
  <g
     transform="translate(74.987005,6.4788528)"
     id="g30">
    <polygon
       stroke-linejoin="round"
       stroke-linecap="round"
       stroke-width="0.08"
       fill="currentColor"
       stroke="currentColor"
       points="0.04,0.2 0.04,-0.2 6.0826,-0.01 6.0826,0.39 "
       id="polygon29" />
  </g>
  <g
     transform="translate(15.376105,7.1688528)"
     id="g31">
    <path
       transform="scale(0.004,-0.004)"
       d="M 0,-46 C 0,45 116,136 217,136 280,136 326,101 326,46 326,-41 216,-136 106,-136 39,-136 0,-97 0,-46 Z"
       fill="currentColor"
       id="path30" />
  </g>
  <g
     transform="translate(16.615305,6.6688528)"
     id="g32">
    <rect
       x="-0.064999998"
       y="-1.9795001"
       width="0.13"
       height="2.2932999"
       ry="0.039999999"
       fill="currentColor"
       id="rect31" />
  </g>
  <g
     transform="translate(64.223605,4.8588528)"
     id="g33">
    <polygon
       stroke-linejoin="round"
       stroke-linecap="round"
       stroke-width="0.08"
       fill="currentColor"
       stroke="currentColor"
       points="0.04,0.2 0.04,-0.2 4.7784,-0.2 4.7784,0.2 "
       id="polygon32" />
  </g>
  <g
     transform="translate(66.914505,5.6688528)"
     id="g34">
    <polygon
       stroke-linejoin="round"
       stroke-linecap="round"
       stroke-width="0.08"
       fill="currentColor"
       stroke="currentColor"
       points="0.04,0.2 0.04,-0.2 2.0875,-0.2 2.0875,0.2 "
       id="polygon33" />
  </g>
  <g
     transform="translate(17.817005,8.6688528)"
     id="g35">
    <path
       transform="scale(0.004,-0.004)"
       d="M 0,-46 C 0,45 116,136 217,136 280,136 326,101 326,46 326,-41 216,-136 106,-136 39,-136 0,-97 0,-46 Z"
       fill="currentColor"
       id="path34" />
  </g>
  <g
     transform="translate(19.056205,6.6688528)"
     id="g36">
    <rect
       x="-0.064999998"
       y="-1.2105"
       width="0.13"
       height="3.0243001"
       ry="0.039999999"
       fill="currentColor"
       id="rect35" />
  </g>
  <g
     transform="translate(53.189105,4.4788528)"
     id="g37">
    <polygon
       stroke-linejoin="round"
       stroke-linecap="round"
       stroke-width="0.08"
       fill="currentColor"
       stroke="currentColor"
       points="0.04,0.2 0.04,-0.2 3.0309,-0.82 3.0309,-0.42 "
       id="polygon36" />
  </g>
  <g
     transform="translate(20.942105,7.6688528)"
     id="g38">
    <path
       transform="scale(0.004,-0.004)"
       d="M 0,-46 C 0,45 116,136 217,136 280,136 326,101 326,46 326,-41 216,-136 106,-136 39,-136 0,-97 0,-46 Z"
       fill="currentColor"
       id="path37" />
  </g>
  <g
     transform="translate(22.181305,6.6688528)"
     id="g39">
    <rect
       x="-0.064999998"
       y="-2"
       width="0.13"
       height="2.8138001"
       ry="0.039999999"
       fill="currentColor"
       id="rect38" />
  </g>
  <g
     transform="translate(19.907805,7.6688528)"
     id="g40">
    <path
       transform="scale(0.004,-0.004)"
       d="m -7,375 c 8,4 17,7 25,7 8,0 16,-3 24,-7 l -2,-183 106,20 h 3 c 10,0 18,-7 18,-17 l 7,-570 c -8,-4 -17,-7 -25,-7 -8,0 -16,3 -24,7 l 2,183 -106,-20 h -3 c -10,0 -18,7 -18,17 z M 131,112 39,95 l -3,-207 92,17 z"
       fill="currentColor"
       id="path39" />
  </g>
  <g
     transform="translate(47.307405,6.6688528)"
     id="g41">
    <polygon
       stroke-linejoin="round"
       stroke-linecap="round"
       stroke-width="0.08"
       fill="currentColor"
       stroke="currentColor"
       points="0.04,0.2 0.04,-0.2 3.0309,-0.39 3.0309,0.01 "
       id="polygon40" />
  </g>
  <g
     transform="translate(24.303005,7.6688528)"
     id="g42">
    <path
       transform="scale(0.004,-0.004)"
       d="M 0,-46 C 0,45 116,136 217,136 280,136 326,101 326,46 326,-41 216,-136 106,-136 39,-136 0,-97 0,-46 Z"
       fill="currentColor"
       id="path41" />
  </g>
  <g
     transform="translate(25.542205,6.6688528)"
     id="g43">
    <rect
       x="-0.064999998"
       y="-2"
       width="0.13"
       height="2.8138001"
       ry="0.039999999"
       fill="currentColor"
       id="rect42" />
  </g>
  <g
     transform="translate(23.153005,7.6688528)"
     id="g44">
    <path
       transform="scale(0.004,-0.004)"
       d="m 27,41 -1,-66 v -11 c 0,-22 1,-44 4,-66 45,38 93,80 93,139 0,33 -14,67 -43,67 C 49,104 28,74 27,41 Z m -42,-179 -12,595 c 8,5 18,8 27,8 9,0 19,-3 27,-8 L 20,112 c 25,21 58,34 91,34 52,0 89,-48 89,-102 0,-80 -86,-117 -147,-169 -15,-13 -24,-38 -45,-38 -13,0 -23,11 -23,25 z"
       fill="currentColor"
       id="path43" />
  </g>
  <g
     transform="translate(41.491405,6.4788528)"
     id="g45">
    <polygon
       stroke-linejoin="round"
       stroke-linecap="round"
       stroke-width="0.08"
       fill="currentColor"
       stroke="currentColor"
       points="0.04,0.2 0.04,-0.2 3.2151,-0.01 3.2151,0.39 "
       id="polygon44" />
  </g>
  <g
     transform="translate(26.993805,8.1688528)"
     id="g46">
    <path
       transform="scale(0.004,-0.004)"
       d="M 0,-46 C 0,45 116,136 217,136 280,136 326,101 326,46 326,-41 216,-136 106,-136 39,-136 0,-97 0,-46 Z"
       fill="currentColor"
       id="path45" />
  </g>
  <g
     transform="translate(28.233005,6.6688528)"
     id="g47">
    <rect
       x="-0.064999998"
       y="-0.9795"
       width="0.13"
       height="2.2932999"
       ry="0.039999999"
       fill="currentColor"
       id="rect46" />
  </g>
  <g
     transform="translate(35.859705,6.4788528)"
     id="g48">
    <polygon
       stroke-linejoin="round"
       stroke-linecap="round"
       stroke-width="0.08"
       fill="currentColor"
       stroke="currentColor"
       points="0.04,0.2 0.04,-0.2 3.0309,-0.82 3.0309,-0.42 "
       id="polygon47" />
  </g>
  <g
     transform="translate(29.434705,10.668853)"
     id="g49">
    <path
       transform="scale(0.004,-0.004)"
       d="M 0,-46 C 0,45 116,136 217,136 280,136 326,101 326,46 326,-41 216,-136 106,-136 39,-136 0,-97 0,-46 Z"
       fill="currentColor"
       id="path48" />
  </g>
  <g
     transform="translate(30.673905,6.6688528)"
     id="g50">
    <rect
       x="-0.064999998"
       y="-0.2105"
       width="0.13"
       height="4.0243001"
       ry="0.039999999"
       fill="currentColor"
       id="rect49" />
  </g>
  <g
     transform="translate(28.168005,5.6688528)"
     id="g51">
    <polygon
       stroke-linejoin="round"
       stroke-linecap="round"
       stroke-width="0.08"
       fill="currentColor"
       stroke="currentColor"
       points="0.04,0.2 0.04,-0.2 2.5309,0.61 2.5309,1.01 "
       id="polygon50" />
  </g>
  <g
     transform="translate(22.116305,4.6688528)"
     id="g52">
    <polygon
       stroke-linejoin="round"
       stroke-linecap="round"
       stroke-width="0.08"
       fill="currentColor"
       stroke="currentColor"
       points="0.04,0.2 0.04,-0.2 3.4509,-0.2 3.4509,0.2 "
       id="polygon51" />
  </g>
  <g
     transform="translate(34.685505,1.6688528)"
     id="g53">
    <text
       font-family="'NewComputerModern Math'"
       font-size="2.3308px"
       text-anchor="start"
       fill="currentColor"
       id="text52"><tspan
         id="tspan52">G</tspan></text>
  </g>
  <g
     transform="translate(36.529305,2.4634528)"
     id="g54">
    <text
       font-family="'NewComputerModern Math'"
       font-size="1.648px"
       text-anchor="start"
       fill="currentColor"
       id="text53"><tspan
         id="tspan53">7</tspan></text>
  </g>
  <g
     transform="translate(34.685505,9.6688528)"
     id="g55">
    <path
       transform="scale(0.004,-0.004)"
       d="M 0,-46 C 0,45 116,136 217,136 280,136 326,101 326,46 326,-41 216,-136 106,-136 39,-136 0,-97 0,-46 Z"
       fill="currentColor"
       id="path54" />
  </g>
  <g
     transform="translate(35.924705,6.6688528)"
     id="g56">
    <rect
       x="-0.064999998"
       y="-0.2031"
       width="0.13"
       height="3.0169001"
       ry="0.039999999"
       fill="currentColor"
       id="rect55" />
  </g>
  <g
     transform="translate(33.235505,9.6688528)"
     id="g57">
    <path
       transform="scale(0.004,-0.004)"
       d="m 0,119 c 0,8 5,15 13,18 l 46,17 v 158 c 0,10 8,19 18,19 10,0 19,-9 19,-19 V 167 l 83,31 v 158 c 0,10 9,19 19,19 10,0 18,-9 18,-19 V 211 l 32,12 c 2,1 5,1 7,1 11,0 20,-9 20,-20 v -60 c 0,-8 -5,-16 -13,-19 L 216,109 V -51 l 32,11 c 2,1 5,1 7,1 11,0 20,-9 20,-20 v -60 c 0,-8 -5,-15 -13,-18 l -46,-17 v -158 c 0,-10 -8,-19 -18,-19 -10,0 -19,9 -19,19 v 145 l -83,-31 v -158 c 0,-10 -9,-19 -19,-19 -10,0 -18,9 -18,19 v 145 l -32,-12 c -2,-1 -5,-1 -7,-1 -11,0 -20,9 -20,20 v 60 c 0,8 5,16 13,19 l 46,16 V 51 L 27,40 C 25,39 22,39 20,39 9,39 0,48 0,59 Z M 179,95 96,65 V -95 l 83,30 z"
       fill="currentColor"
       id="path56" />
  </g>
  <g
     transform="translate(16.550305,4.6688528)"
     id="g58">
    <polygon
       stroke-linejoin="round"
       stroke-linecap="round"
       stroke-width="0.08"
       fill="currentColor"
       stroke="currentColor"
       points="0.04,0.2 0.04,-0.2 2.5309,0.61 2.5309,1.01 "
       id="polygon57" />
  </g>
  <g
     transform="translate(37.626405,8.6688528)"
     id="g59">
    <path
       transform="scale(0.004,-0.004)"
       d="M 0,-46 C 0,45 116,136 217,136 280,136 326,101 326,46 326,-41 216,-136 106,-136 39,-136 0,-97 0,-46 Z"
       fill="currentColor"
       id="path58" />
  </g>
  <g
     transform="translate(38.865605,6.6688528)"
     id="g60">
    <rect
       x="-0.064999998"
       y="-0.79689997"
       width="0.13"
       height="2.6106999"
       ry="0.039999999"
       fill="currentColor"
       id="rect59" />
  </g>
  <g
     transform="translate(40.317205,9.1688528)"
     id="g61">
    <path
       transform="scale(0.004,-0.004)"
       d="M 0,-46 C 0,45 116,136 217,136 280,136 326,101 326,46 326,-41 216,-136 106,-136 39,-136 0,-97 0,-46 Z"
       fill="currentColor"
       id="path60" />
  </g>
  <g
     transform="translate(41.556405,6.6688528)"
     id="g62">
    <rect
       x="-0.064999998"
       y="-0.18619999"
       width="0.13"
       height="2.5"
       ry="0.039999999"
       fill="currentColor"
       id="rect61" />
  </g>
  <g
     transform="translate(43.442405,9.6688528)"
     id="g63">
    <path
       transform="scale(0.004,-0.004)"
       d="M 0,-46 C 0,45 116,136 217,136 280,136 326,101 326,46 326,-41 216,-136 106,-136 39,-136 0,-97 0,-46 Z"
       fill="currentColor"
       id="path62" />
  </g>
  <g
     transform="translate(44.681605,6.6688528)"
     id="g64">
    <rect
       x="-0.064999998"
       y="-0.0038000001"
       width="0.13"
       height="2.8176"
       ry="0.039999999"
       fill="currentColor"
       id="rect63" />
  </g>
  <g
     transform="translate(42.408105,9.6688528)"
     id="g65">
    <path
       transform="scale(0.004,-0.004)"
       d="m -7,375 c 8,4 17,7 25,7 8,0 16,-3 24,-7 l -2,-183 106,20 h 3 c 10,0 18,-7 18,-17 l 7,-570 c -8,-4 -17,-7 -25,-7 -8,0 -16,3 -24,7 l 2,183 -106,-20 h -3 c -10,0 -18,7 -18,17 z M 131,112 39,95 l -3,-207 92,17 z"
       fill="currentColor"
       id="path64" />
  </g>
  <g
     transform="translate(46.133205,10.168853)"
     id="g66">
    <path
       transform="scale(0.004,-0.004)"
       d="M 0,-46 C 0,45 116,136 217,136 280,136 326,101 326,46 326,-41 216,-136 106,-136 39,-136 0,-97 0,-46 Z"
       fill="currentColor"
       id="path65" />
  </g>
  <g
     transform="translate(47.372405,6.6688528)"
     id="g67">
    <rect
       x="-0.064999998"
       y="-0.0040000002"
       width="0.13"
       height="3.3178"
       ry="0.039999999"
       fill="currentColor"
       id="rect66" />
  </g>
  <g
     transform="translate(49.074105,9.1688528)"
     id="g68">
    <path
       transform="scale(0.004,-0.004)"
       d="M 0,-46 C 0,45 116,136 217,136 280,136 326,101 326,46 326,-41 216,-136 106,-136 39,-136 0,-97 0,-46 Z"
       fill="currentColor"
       id="path67" />
  </g>
  <g
     transform="translate(50.313305,6.6688528)"
     id="g69">
    <rect
       x="-0.064999998"
       y="-0.186"
       width="0.13"
       height="2.4998"
       ry="0.039999999"
       fill="currentColor"
       id="rect68" />
  </g>
  <g
     transform="translate(52.014905,8.1688528)"
     id="g70">
    <path
       transform="scale(0.004,-0.004)"
       d="M 0,-46 C 0,45 116,136 217,136 280,136 326,101 326,46 326,-41 216,-136 106,-136 39,-136 0,-97 0,-46 Z"
       fill="currentColor"
       id="path69" />
  </g>
  <g
     transform="translate(53.254105,6.6688528)"
     id="g71">
    <rect
       x="-0.064999998"
       y="-2.2031"
       width="0.13"
       height="3.5169001"
       ry="0.039999999"
       fill="currentColor"
       id="rect70" />
  </g>
  <g
     transform="translate(54.955805,7.1688528)"
     id="g72">
    <path
       transform="scale(0.004,-0.004)"
       d="M 0,-46 C 0,45 116,136 217,136 280,136 326,101 326,46 326,-41 216,-136 106,-136 39,-136 0,-97 0,-46 Z"
       fill="currentColor"
       id="path71" />
  </g>
  <g
     transform="translate(56.195005,6.6688528)"
     id="g73">
    <rect
       x="-0.064999998"
       y="-2.7969"
       width="0.13"
       height="3.1106999"
       ry="0.039999999"
       fill="currentColor"
       id="rect72" />
  </g>
  <g
     transform="translate(58.971905,1.6688528)"
     id="g74">
    <text
       font-family="'NewComputerModern Math'"
       font-size="2.3308px"
       text-anchor="start"
       fill="currentColor"
       id="text73"><tspan
         id="tspan73">E</tspan></text>
  </g>
  <g
     transform="translate(60.542505,2.4634528)"
     id="g75">
    <text
       font-family="'NewComputerModern Math'"
       font-size="1.648px"
       text-anchor="start"
       fill="currentColor"
       id="text74"><tspan
         id="tspan74">−</tspan></text>
  </g>
  <g
     transform="translate(61.839905,2.4634528)"
     id="g76">
    <text
       font-family="'NewComputerModern Math'"
       font-size="1.648px"
       text-anchor="start"
       fill="currentColor"
       id="text75"><tspan
         id="tspan75">7</tspan></text>
  </g>
  <g
     transform="translate(58.971905,7.6688528)"
     id="g77">
    <path
       transform="scale(0.004,-0.004)"
       d="M 0,-46 C 0,45 116,136 217,136 280,136 326,101 326,46 326,-41 216,-136 106,-136 39,-136 0,-97 0,-46 Z"
       fill="currentColor"
       id="path76" />
  </g>
  <g
     transform="translate(60.211105,6.6688528)"
     id="g78">
    <rect
       x="-0.064999998"
       y="-2.5"
       width="0.13"
       height="3.3138001"
       ry="0.039999999"
       fill="currentColor"
       id="rect77" />
  </g>
  <g
     transform="translate(63.049405,8.1688528)"
     id="g79">
    <path
       transform="scale(0.004,-0.004)"
       d="M 0,-46 C 0,45 116,136 217,136 280,136 326,101 326,46 326,-41 216,-136 106,-136 39,-136 0,-97 0,-46 Z"
       fill="currentColor"
       id="path78" />
  </g>
  <g
     transform="translate(64.288605,6.6688528)"
     id="g80">
    <rect
       x="-0.064999998"
       y="-1.8099999"
       width="0.13"
       height="3.1238"
       ry="0.039999999"
       fill="currentColor"
       id="rect79" />
  </g>
  <g
     transform="translate(65.740305,7.6688528)"
     id="g81">
    <path
       transform="scale(0.004,-0.004)"
       d="M 0,-46 C 0,45 116,136 217,136 280,136 326,101 326,46 326,-41 216,-136 106,-136 39,-136 0,-97 0,-46 Z"
       fill="currentColor"
       id="path80" />
  </g>
  <g
     transform="translate(66.979505,6.6688528)"
     id="g82">
    <rect
       x="-0.064999998"
       y="-1.8099999"
       width="0.13"
       height="2.6238"
       ry="0.039999999"
       fill="currentColor"
       id="rect81" />
  </g>
  <g
     transform="translate(67.737805,8.1688528)"
     id="g83">
    <path
       transform="scale(0.004,-0.004)"
       d="M 0,-46 C 0,45 116,136 217,136 280,136 326,101 326,46 326,-41 216,-136 106,-136 39,-136 0,-97 0,-46 Z"
       fill="currentColor"
       id="path82" />
  </g>
  <g
     transform="translate(68.977005,6.6688528)"
     id="g84">
    <rect
       x="-0.064999998"
       y="-1.8099999"
       width="0.13"
       height="3.1238"
       ry="0.039999999"
       fill="currentColor"
       id="rect83" />
  </g>
  <g
     transform="translate(69.735305,8.6688528)"
     id="g85">
    <path
       transform="scale(0.004,-0.004)"
       d="M 0,-46 C 0,45 116,136 217,136 280,136 326,101 326,46 326,-41 216,-136 106,-136 39,-136 0,-97 0,-46 Z"
       fill="currentColor"
       id="path84" />
  </g>
  <g
     transform="translate(70.974505,6.6688528)"
     id="g86">
    <rect
       x="-0.064999998"
       y="-1.5"
       width="0.13"
       height="3.3138001"
       ry="0.039999999"
       fill="currentColor"
       id="rect85" />
  </g>
  <g
     transform="translate(73.812805,9.1688528)"
     id="g87">
    <path
       transform="scale(0.004,-0.004)"
       d="M 0,-46 C 0,45 116,136 217,136 280,136 326,101 326,46 326,-41 216,-136 106,-136 39,-136 0,-97 0,-46 Z"
       fill="currentColor"
       id="path86" />
  </g>
  <g
     transform="translate(75.052005,6.6688528)"
     id="g88">
    <rect
       x="-0.064999998"
       y="-0.99800003"
       width="0.13"
       height="3.3118"
       ry="0.039999999"
       fill="currentColor"
       id="rect87" />
  </g>
  <g
     transform="translate(101.5905,4.2088528)"
     id="g89">
    <path
       transform="scale(0.004,-0.004)"
       d="M 0,0 V -375 H -16 V 0 Z m 123,-729 c 0,10 42,87 42,196 0,103 -94,208 -165,283 V 0 c 0,-197 207,-336 207,-533 0,-71 -15,-141 -41,-207 -5,-8 -13,-12 -20,-12 -12,0 -23,9 -23,23 z"
       fill="currentColor"
       id="path88" />
  </g>
  <g
     transform="translate(75.810305,8.6688528)"
     id="g90">
    <path
       transform="scale(0.004,-0.004)"
       d="M 0,-46 C 0,45 116,136 217,136 280,136 326,101 326,46 326,-41 216,-136 106,-136 39,-136 0,-97 0,-46 Z"
       fill="currentColor"
       id="path89" />
  </g>
  <g
     transform="translate(77.049505,6.6688528)"
     id="g91">
    <rect
       x="-0.064999998"
       y="-0.93599999"
       width="0.13"
       height="2.7498"
       ry="0.039999999"
       fill="currentColor"
       id="rect90" />
  </g>
  <g
     transform="translate(77.807905,9.1688528)"
     id="g92">
    <path
       transform="scale(0.004,-0.004)"
       d="M 0,-46 C 0,45 116,136 217,136 280,136 326,101 326,46 326,-41 216,-136 106,-136 39,-136 0,-97 0,-46 Z"
       fill="currentColor"
       id="path91" />
  </g>
  <g
     transform="translate(79.047105,6.6688528)"
     id="g93">
    <rect
       x="-0.064999998"
       y="-0.87400001"
       width="0.13"
       height="3.1877999"
       ry="0.039999999"
       fill="currentColor"
       id="rect92" />
  </g>
  <g
     transform="translate(101.5255,6.6688528)"
     id="g94">
    <rect
       x="-0.064999998"
       y="-2.5"
       width="0.13"
       height="3.3138001"
       ry="0.039999999"
       fill="currentColor"
       id="rect93" />
  </g>
  <g
     transform="translate(79.805405,9.6688528)"
     id="g95">
    <path
       transform="scale(0.004,-0.004)"
       d="M 0,-46 C 0,45 116,136 217,136 280,136 326,101 326,46 326,-41 216,-136 106,-136 39,-136 0,-97 0,-46 Z"
       fill="currentColor"
       id="path94" />
  </g>
  <g
     transform="translate(81.044605,6.6688528)"
     id="g96">
    <rect
       x="-0.064999998"
       y="-0.81199998"
       width="0.13"
       height="3.6257999"
       ry="0.039999999"
       fill="currentColor"
       id="rect95" />
  </g>
  <g
     transform="translate(100.2863,7.6688528)"
     id="g97">
    <path
       transform="scale(0.004,-0.004)"
       d="M 0,-46 C 0,45 116,136 217,136 280,136 326,101 326,46 326,-41 216,-136 106,-136 39,-136 0,-97 0,-46 Z"
       fill="currentColor"
       id="path96" />
  </g>
  <g
     transform="translate(84.362905,1.6688528)"
     id="g98">
    <text
       font-family="'NewComputerModern Math'"
       font-size="2.3308px"
       text-anchor="start"
       fill="currentColor"
       id="text97"><tspan
         id="tspan97">A</tspan></text>
  </g>
  <g
     transform="translate(86.104205,2.4634528)"
     id="g99">
    <text
       font-family="'NewComputerModern Math'"
       font-size="1.648px"
       text-anchor="start"
       fill="currentColor"
       id="text98"><tspan
         id="tspan98">7</tspan></text>
  </g>
  <g
     transform="translate(84.362905,9.6688528)"
     id="g100">
    <path
       transform="scale(0.004,-0.004)"
       d="M 0,-46 C 0,45 116,136 217,136 280,136 326,101 326,46 326,-41 216,-136 106,-136 39,-136 0,-97 0,-46 Z"
       fill="currentColor"
       id="path99" />
  </g>
  <g
     transform="translate(85.602105,6.6688528)"
     id="g101">
    <rect
       x="-0.064999998"
       y="-0.5"
       width="0.13"
       height="3.3138001"
       ry="0.039999999"
       fill="currentColor"
       id="rect100" />
  </g>
  <g
     transform="translate(82.912905,9.6688528)"
     id="g102">
    <path
       transform="scale(0.004,-0.004)"
       d="m 0,119 c 0,8 5,15 13,18 l 46,17 v 158 c 0,10 8,19 18,19 10,0 19,-9 19,-19 V 167 l 83,31 v 158 c 0,10 9,19 19,19 10,0 18,-9 18,-19 V 211 l 32,12 c 2,1 5,1 7,1 11,0 20,-9 20,-20 v -60 c 0,-8 -5,-16 -13,-19 L 216,109 V -51 l 32,11 c 2,1 5,1 7,1 11,0 20,-9 20,-20 v -60 c 0,-8 -5,-15 -13,-18 l -46,-17 v -158 c 0,-10 -8,-19 -18,-19 -10,0 -19,9 -19,19 v 145 l -83,-31 v -158 c 0,-10 -9,-19 -19,-19 -10,0 -18,9 -18,19 v 145 l -32,-12 c -2,-1 -5,-1 -7,-1 -11,0 -20,9 -20,20 v 60 c 0,8 5,16 13,19 l 46,16 V 51 L 27,40 C 25,39 22,39 20,39 9,39 0,48 0,59 Z M 179,95 96,65 V -95 l 83,30 z"
       fill="currentColor"
       id="path101" />
  </g>
  <g
     transform="translate(88.440405,6.6688528)"
     id="g103">
    <path
       transform="scale(0.004,-0.004)"
       d="M 0,-46 C 0,45 116,136 217,136 280,136 326,101 326,46 326,-41 216,-136 106,-136 39,-136 0,-97 0,-46 Z"
       fill="currentColor"
       id="path102" />
  </g>
  <g
     transform="translate(89.679605,6.6688528)"
     id="g104">
    <rect
       x="-0.064999998"
       y="-2.9956"
       width="0.13"
       height="2.8094001"
       ry="0.039999999"
       fill="currentColor"
       id="rect103" />
  </g>
  <g
     transform="translate(87.290405,6.6688528)"
     id="g105">
    <path
       transform="scale(0.004,-0.004)"
       d="m 27,41 -1,-66 v -11 c 0,-22 1,-44 4,-66 45,38 93,80 93,139 0,33 -14,67 -43,67 C 49,104 28,74 27,41 Z m -42,-179 -12,595 c 8,5 18,8 27,8 9,0 19,-3 27,-8 L 20,112 c 25,21 58,34 91,34 52,0 89,-48 89,-102 0,-80 -86,-117 -147,-169 -15,-13 -24,-38 -45,-38 -13,0 -23,11 -23,25 z"
       fill="currentColor"
       id="path104" />
  </g>
  <g
     transform="translate(91.131305,7.1688528)"
     id="g106">
    <path
       transform="scale(0.004,-0.004)"
       d="M 0,-46 C 0,45 116,136 217,136 280,136 326,101 326,46 326,-41 216,-136 106,-136 39,-136 0,-97 0,-46 Z"
       fill="currentColor"
       id="path105" />
  </g>
  <g
     transform="translate(92.370505,6.6688528)"
     id="g107">
    <rect
       x="-0.064999998"
       y="-2.8144"
       width="0.13"
       height="3.1282001"
       ry="0.039999999"
       fill="currentColor"
       id="rect106" />
  </g>
  <g
     transform="translate(93.822105,7.1688528)"
     id="g108">
    <path
       transform="scale(0.004,-0.004)"
       d="M 0,-46 C 0,45 116,136 217,136 280,136 326,101 326,46 326,-41 216,-136 106,-136 39,-136 0,-97 0,-46 Z"
       fill="currentColor"
       id="path107" />
  </g>
  <g
     transform="translate(95.061305,6.6688528)"
     id="g109">
    <rect
       x="-0.064999998"
       y="-3"
       width="0.13"
       height="3.3138001"
       ry="0.039999999"
       fill="currentColor"
       id="rect108" />
  </g>
  <g
     transform="translate(97.899605,6.6688528)"
     id="g110">
    <path
       transform="scale(0.004,-0.004)"
       d="m 70,205 c 79,0 46,-98 91,-98 16,0 54,48 61,63 3,6 8,9 14,9 6,0 12,-3 14,-9 L 127,-250 c -8,-7 -17,-10 -27,-10 -10,0 -20,3 -28,10 L 189,76 C 155,64 120,54 84,54 26,54 -1,95 -1,134 c 0,36 24,71 71,71 z"
       fill="currentColor"
       id="path109" />
  </g>
  <g
     transform="translate(101.3903,22.168853)"
     id="g111">
    <path
       transform="scale(0.004,-0.004)"
       d="M 0,0 C 0,31 25,56 56,56 87,56 112,31 112,0 112,-31 87,-56 56,-56 25,-56 0,-31 0,0 Z"
       fill="currentColor"
       id="path110" />
  </g>
  <g
     transform="translate(101.3903,23.168853)"
     id="g112">
    <path
       transform="scale(0.004,-0.004)"
       d="M 0,0 C 0,31 25,56 56,56 87,56 112,31 112,0 112,-31 87,-56 56,-56 25,-56 0,-31 0,0 Z"
       fill="currentColor"
       id="path111" />
  </g>
  <g
     transform="translate(102.6303,22.668853)"
     id="g113">
    <rect
       x="0"
       y="-2"
       width="0.60000002"
       height="4"
       ry="0.0000"
       fill="currentColor"
       id="rect112" />
  </g>
  <g
     transform="translate(102.1403,22.668853)"
     id="g114">
    <rect
       x="0"
       y="-2"
       width="0.19"
       height="4"
       ry="0.0000"
       fill="currentColor"
       id="rect113" />
  </g>
  <g
     transform="translate(0.800405,24.668853)"
     id="g115">
    <line
       stroke-linejoin="round"
       stroke-linecap="round"
       stroke-width="0.1"
       stroke="currentColor"
       x1="0.050000001"
       y1="0"
       x2="102.3799"
       y2="0"
       id="line114" />
  </g>
  <g
     transform="translate(0.800405,23.668853)"
     id="g116">
    <line
       stroke-linejoin="round"
       stroke-linecap="round"
       stroke-width="0.1"
       stroke="currentColor"
       x1="0.050000001"
       y1="0"
       x2="102.3799"
       y2="0"
       id="line115" />
  </g>
  <g
     transform="translate(0.800405,22.668853)"
     id="g117">
    <line
       stroke-linejoin="round"
       stroke-linecap="round"
       stroke-width="0.1"
       stroke="currentColor"
       x1="0.050000001"
       y1="0"
       x2="102.3799"
       y2="0"
       id="line116" />
  </g>
  <g
     transform="translate(0.800405,21.668853)"
     id="g118">
    <line
       stroke-linejoin="round"
       stroke-linecap="round"
       stroke-width="0.1"
       stroke="currentColor"
       x1="0.050000001"
       y1="0"
       x2="102.3799"
       y2="0"
       id="line117" />
  </g>
  <g
     transform="translate(0.800405,20.668853)"
     id="g119">
    <line
       stroke-linejoin="round"
       stroke-linecap="round"
       stroke-width="0.1"
       stroke="currentColor"
       x1="0.050000001"
       y1="0"
       x2="102.3799"
       y2="0"
       id="line118" />
  </g>
  <g
     transform="translate(83.739205,22.668853)"
     id="g120">
    <rect
       x="0"
       y="-2"
       width="0.19"
       height="4"
       ry="0.0000"
       fill="currentColor"
       id="rect119" />
  </g>
  <g
     transform="translate(58.669605,22.668853)"
     id="g121">
    <rect
       x="0"
       y="-2"
       width="0.19"
       height="4"
       ry="0.0000"
       fill="currentColor"
       id="rect120" />
  </g>
  <g
     transform="translate(32.168905,22.668853)"
     id="g122">
    <rect
       x="0"
       y="-2"
       width="0.19"
       height="4"
       ry="0.0000"
       fill="currentColor"
       id="rect121" />
  </g>
  <g
     transform="translate(56.735705,22.668853)"
     id="g123">
    <rect
       x="-0.064999998"
       y="-0.81"
       width="0.13"
       height="3.1238"
       ry="0.039999999"
       fill="currentColor"
       id="rect122" />
  </g>
  <g
     transform="translate(1.600405,23.668853)"
     id="g124">
    <path
       transform="scale(0.004,-0.004)"
       d="m 266,-635 h -6 c -108,0 -195,88 -195,197 0,58 53,103 112,103 54,0 95,-47 95,-103 0,-52 -43,-95 -95,-95 -11,0 -21,2 -31,6 26,-39 68,-65 117,-65 h 4 z m 135,786 c 19,-89 48,-242 60,-354 76,27 112,94 112,163 0,89 -60,179 -172,191 z M 74,28 c 0,-112 98,-247 278,-247 21,0 44,2 68,6 -7,64 -29,203 -63,364 -79,-8 -124,-61 -124,-119 0,-44 25,-91 81,-123 5,-5 7,-10 7,-15 0,-11 -10,-22 -22,-22 -15,0 -126,62 -126,187 0,88 58,174 160,197 -14,58 -29,117 -46,175 C 180,310 74,188 74,28 Z m 283,1166 c 28,0 143,-206 143,-361 0,-143 -86,-255 -180,-364 21,-68 39,-138 56,-207 5,0 10,1 14,1 155,0 255,-129 255,-262 0,-113 -74,-212 -180,-245 3,-35 5,-70 5,-105 0,-19 -1,-39 -2,-58 -7,-119 -88,-225 -202,-228 l 1,43 c 93,2 153,92 159,191 1,18 2,37 2,55 0,31 -1,61 -4,92 -28,-5 -55,-8 -80,-8 -239,0 -342,217 -342,374 0,177 131,306 248,441 -29,96 -52,170 -52,346 0,189 144,295 159,295 z M 247,782 c 0,-55 12,-115 35,-190 83,100 147,202 147,326 0,40 -6,82 -21,127 -49,-24 -161,-97 -161,-263 z"
       fill="currentColor"
       id="path123" />
  </g>
  <g
     transform="translate(-0.087295,19.580453)"
     id="g125">
    <text
       font-family="'NewComputerModern Math'"
       font-size="1.7459px"
       text-anchor="start"
       fill="currentColor"
       id="text124"><tspan
         id="tspan124">5</tspan></text>
  </g>
  <g
     transform="translate(78.022605,24.858853)"
     id="g126">
    <polygon
       stroke-linejoin="round"
       stroke-linecap="round"
       stroke-width="0.08"
       fill="currentColor"
       stroke="currentColor"
       points="0.04,0.2 0.04,-0.2 3.0488,-0.39 3.0488,0.01 "
       id="polygon125" />
  </g>
  <g
     transform="translate(6.600405,17.168853)"
     id="g127">
    <text
       font-family="'NewComputerModern Math'"
       font-size="2.3308px"
       text-anchor="start"
       fill="currentColor"
       id="text126"><tspan
         id="tspan126">D</tspan></text>
  </g>
  <g
     transform="translate(8.375905,17.963453)"
     id="g128">
    <text
       font-family="'NewComputerModern Math'"
       font-size="1.648px"
       text-anchor="start"
       fill="currentColor"
       id="text127"><tspan
         id="tspan127">−</tspan></text>
  </g>
  <g
     transform="translate(9.673305,17.963453)"
     id="g129">
    <text
       font-family="'NewComputerModern Math'"
       font-size="1.648px"
       text-anchor="start"
       fill="currentColor"
       id="text128"><tspan
         id="tspan128">7</tspan></text>
  </g>
  <g
     transform="translate(6.600405,24.168853)"
     id="g130">
    <path
       transform="scale(0.004,-0.004)"
       d="M 0,-46 C 0,45 116,136 217,136 280,136 326,101 326,46 326,-41 216,-136 106,-136 39,-136 0,-97 0,-46 Z"
       fill="currentColor"
       id="path129" />
  </g>
  <g
     transform="translate(7.839605,22.668853)"
     id="g131">
    <rect
       x="-0.064999998"
       y="-1.814"
       width="0.13"
       height="3.1278"
       ry="0.039999999"
       fill="currentColor"
       id="rect130" />
  </g>
  <g
     transform="translate(72.355005,24.858853)"
     id="g132">
    <polygon
       stroke-linejoin="round"
       stroke-linecap="round"
       stroke-width="0.08"
       fill="currentColor"
       stroke="currentColor"
       points="0.04,0.2 0.04,-0.2 2.7988,0.42 2.7988,0.82 "
       id="polygon131" />
  </g>
  <g
     transform="translate(9.559205,23.668853)"
     id="g133">
    <path
       transform="scale(0.004,-0.004)"
       d="M 0,-46 C 0,45 116,136 217,136 280,136 326,101 326,46 326,-41 216,-136 106,-136 39,-136 0,-97 0,-46 Z"
       fill="currentColor"
       id="path132" />
  </g>
  <g
     transform="translate(10.798405,22.668853)"
     id="g134">
    <rect
       x="-0.064999998"
       y="-1.9960001"
       width="0.13"
       height="2.8097999"
       ry="0.039999999"
       fill="currentColor"
       id="rect133" />
  </g>
  <g
     transform="translate(65.717705,20.858853)"
     id="g135">
    <polygon
       stroke-linejoin="round"
       stroke-linecap="round"
       stroke-width="0.08"
       fill="currentColor"
       stroke="currentColor"
       points="0.04,0.2 0.04,-0.2 5.4045,-1.39 5.4045,-0.99 "
       id="polygon134" />
  </g>
  <g
     transform="translate(12.518005,23.168853)"
     id="g136">
    <path
       transform="scale(0.004,-0.004)"
       d="M 0,-46 C 0,45 116,136 217,136 280,136 326,101 326,46 326,-41 216,-136 106,-136 39,-136 0,-97 0,-46 Z"
       fill="currentColor"
       id="path135" />
  </g>
  <g
     transform="translate(13.757205,22.668853)"
     id="g137">
    <rect
       x="-0.064999998"
       y="-2.7958"
       width="0.13"
       height="3.1096001"
       ry="0.039999999"
       fill="currentColor"
       id="rect136" />
  </g>
  <g
     transform="translate(15.226905,24.168853)"
     id="g138">
    <path
       transform="scale(0.004,-0.004)"
       d="M 0,-46 C 0,45 116,136 217,136 280,136 326,101 326,46 326,-41 216,-136 106,-136 39,-136 0,-97 0,-46 Z"
       fill="currentColor"
       id="path137" />
  </g>
  <g
     transform="translate(16.466105,22.668853)"
     id="g139">
    <rect
       x="-0.064999998"
       y="-2.2042"
       width="0.13"
       height="3.5179999"
       ry="0.039999999"
       fill="currentColor"
       id="rect138" />
  </g>
  <g
     transform="translate(67.996105,19.472253)"
     id="g140">
    <text
       font-family="'NewComputerModern Math'"
       font-style="italic"
       font-size="1.7459px"
       text-anchor="start"
       fill="currentColor"
       id="text139"><tspan
         id="tspan139">3</tspan></text>
  </g>
  <g
     transform="translate(18.185705,24.668853)"
     id="g141">
    <path
       transform="scale(0.004,-0.004)"
       d="M 0,-46 C 0,45 116,136 217,136 280,136 326,101 326,46 326,-41 216,-136 106,-136 39,-136 0,-97 0,-46 Z"
       fill="currentColor"
       id="path140" />
  </g>
  <g
     transform="translate(19.424905,22.668853)"
     id="g142">
    <rect
       x="-0.064999998"
       y="-0.99599999"
       width="0.13"
       height="2.8097999"
       ry="0.039999999"
       fill="currentColor"
       id="rect141" />
  </g>
  <g
     transform="translate(21.144505,25.168853)"
     id="g143">
    <path
       transform="scale(0.004,-0.004)"
       d="M 0,-46 C 0,45 116,136 217,136 280,136 326,101 326,46 326,-41 216,-136 106,-136 39,-136 0,-97 0,-46 Z"
       fill="currentColor"
       id="path142" />
  </g>
  <g
     transform="translate(22.383705,22.668853)"
     id="g144">
    <rect
       x="-0.064999998"
       y="-0.81400001"
       width="0.13"
       height="3.1278"
       ry="0.039999999"
       fill="currentColor"
       id="rect143" />
  </g>
  <g
     transform="translate(59.930105,22.668853)"
     id="g145">
    <path
       stroke-width="0.08"
       stroke-linejoin="round"
       stroke-linecap="round"
       stroke="currentColor"
       fill="currentColor"
       d="m 0.8521,2.75 c 0.8092,0.7888 3.4042,0.7888 4.2134,0 v 0 c -0.8092,0.6688 -3.4042,0.6688 -4.2134,0 z"
       id="path144" />
  </g>
  <g
     transform="translate(24.353305,24.168853)"
     id="g146">
    <path
       transform="scale(0.004,-0.004)"
       d="M 0,-46 C 0,45 116,136 217,136 280,136 326,101 326,46 326,-41 216,-136 106,-136 39,-136 0,-97 0,-46 Z"
       fill="currentColor"
       id="path145" />
  </g>
  <g
     transform="translate(25.592505,22.668853)"
     id="g147">
    <rect
       x="-0.064999998"
       y="-1.8242"
       width="0.13"
       height="3.138"
       ry="0.039999999"
       fill="currentColor"
       id="rect146" />
  </g>
  <g
     transform="translate(52.861905,21.858853)"
     id="g148">
    <polygon
       stroke-linejoin="round"
       stroke-linecap="round"
       stroke-width="0.08"
       fill="currentColor"
       stroke="currentColor"
       points="0.04,0.2 0.04,-0.2 3.8988,-0.2 3.8988,0.2 "
       id="polygon147" />
  </g>
  <g
     transform="translate(27.010605,23.168853)"
     id="g149">
    <path
       transform="scale(0.004,-0.004)"
       d="M 0,-46 C 0,45 116,136 217,136 280,136 326,101 326,46 326,-41 216,-136 106,-136 39,-136 0,-97 0,-46 Z"
       fill="currentColor"
       id="path148" />
  </g>
  <g
     transform="translate(28.249805,22.668853)"
     id="g150">
    <rect
       x="-0.064999998"
       y="-2.405"
       width="0.13"
       height="2.7188001"
       ry="0.039999999"
       fill="currentColor"
       id="rect149" />
  </g>
  <g
     transform="translate(47.194305,20.668853)"
     id="g151">
    <polygon
       stroke-linejoin="round"
       stroke-linecap="round"
       stroke-width="0.08"
       fill="currentColor"
       stroke="currentColor"
       points="0.04,0.2 0.04,-0.2 3.0488,-0.01 3.0488,0.39 "
       id="polygon150" />
  </g>
  <g
     transform="translate(29.667805,22.168853)"
     id="g152">
    <path
       transform="scale(0.004,-0.004)"
       d="M 0,-46 C 0,45 116,136 217,136 280,136 326,101 326,46 326,-41 216,-136 106,-136 39,-136 0,-97 0,-46 Z"
       fill="currentColor"
       id="path151" />
  </g>
  <g
     transform="translate(30.907005,22.668853)"
     id="g153">
    <rect
       x="-0.064999998"
       y="-2.9858"
       width="0.13"
       height="2.2995999"
       ry="0.039999999"
       fill="currentColor"
       id="rect152" />
  </g>
  <g
     transform="translate(39.450705,24.858853)"
     id="g154">
    <polygon
       stroke-linejoin="round"
       stroke-linecap="round"
       stroke-width="0.08"
       fill="currentColor"
       stroke="currentColor"
       points="0.04,0.2 0.04,-0.2 3.7188,0.61 3.7188,1.01 "
       id="polygon153" />
  </g>
  <g
     transform="translate(33.533105,25.668853)"
     id="g155">
    <polygon
       stroke-linejoin="round"
       stroke-linecap="round"
       stroke-width="0.08"
       fill="currentColor"
       stroke="currentColor"
       points="0.04,0.2 0.04,-0.2 3.0488,-0.39 3.0488,0.01 "
       id="polygon154" />
  </g>
  <g
     transform="translate(33.533105,17.168853)"
     id="g156">
    <text
       font-family="'NewComputerModern Math'"
       font-size="2.3308px"
       text-anchor="start"
       fill="currentColor"
       id="text155"><tspan
         id="tspan155">G</tspan></text>
  </g>
  <g
     transform="translate(35.376805,17.963453)"
     id="g157">
    <text
       font-family="'NewComputerModern Math'"
       font-size="1.648px"
       text-anchor="start"
       fill="currentColor"
       id="text156"><tspan
         id="tspan156">7</tspan></text>
  </g>
  <g
     transform="translate(33.533105,22.668853)"
     id="g158">
    <path
       transform="scale(0.004,-0.004)"
       d="M 0,-46 C 0,45 116,136 217,136 280,136 326,101 326,46 326,-41 216,-136 106,-136 39,-136 0,-97 0,-46 Z"
       fill="currentColor"
       id="path157" />
  </g>
  <g
     transform="translate(33.598105,22.668853)"
     id="g159">
    <rect
       x="-0.064999998"
       y="0.18619999"
       width="0.13"
       height="2.8097999"
       ry="0.039999999"
       fill="currentColor"
       id="rect158" />
  </g>
  <g
     transform="translate(25.527505,20.858853)"
     id="g160">
    <polygon
       stroke-linejoin="round"
       stroke-linecap="round"
       stroke-width="0.08"
       fill="currentColor"
       stroke="currentColor"
       points="0.04,0.2 0.04,-0.2 5.4045,-1.39 5.4045,-0.99 "
       id="polygon159" />
  </g>
  <g
     transform="translate(36.491905,22.168853)"
     id="g161">
    <path
       transform="scale(0.004,-0.004)"
       d="M 0,-46 C 0,45 116,136 217,136 280,136 326,101 326,46 326,-41 216,-136 106,-136 39,-136 0,-97 0,-46 Z"
       fill="currentColor"
       id="path160" />
  </g>
  <g
     transform="translate(36.556905,22.668853)"
     id="g162">
    <rect
       x="-0.064999998"
       y="-0.31380001"
       width="0.13"
       height="3.1278"
       ry="0.039999999"
       fill="currentColor"
       id="rect161" />
  </g>
  <g
     transform="translate(19.359905,21.668853)"
     id="g163">
    <polygon
       stroke-linejoin="round"
       stroke-linecap="round"
       stroke-width="0.08"
       fill="currentColor"
       stroke="currentColor"
       points="0.04,0.2 0.04,-0.2 3.0488,-0.01 3.0488,0.39 "
       id="polygon162" />
  </g>
  <g
     transform="translate(39.450705,21.668853)"
     id="g164">
    <path
       transform="scale(0.004,-0.004)"
       d="M 0,-46 C 0,45 116,136 217,136 280,136 326,101 326,46 326,-41 216,-136 106,-136 39,-136 0,-97 0,-46 Z"
       fill="currentColor"
       id="path163" />
  </g>
  <g
     transform="translate(39.515705,22.668853)"
     id="g165">
    <rect
       x="-0.064999998"
       y="-0.81379998"
       width="0.13"
       height="3.0178001"
       ry="0.039999999"
       fill="currentColor"
       id="rect164" />
  </g>
  <g
     transform="translate(27.805905,19.472253)"
     id="g166">
    <text
       font-family="'NewComputerModern Math'"
       font-style="italic"
       font-size="1.7459px"
       text-anchor="start"
       fill="currentColor"
       id="text165"><tspan
         id="tspan165">3</tspan></text>
  </g>
  <g
     transform="translate(43.079505,23.168853)"
     id="g167">
    <path
       transform="scale(0.004,-0.004)"
       d="M 0,-46 C 0,45 116,136 217,136 280,136 326,101 326,46 326,-41 216,-136 106,-136 39,-136 0,-97 0,-46 Z"
       fill="currentColor"
       id="path166" />
  </g>
  <g
     transform="translate(43.144505,22.668853)"
     id="g168">
    <rect
       x="-0.064999998"
       y="0.68620002"
       width="0.13"
       height="2.2997999"
       ry="0.039999999"
       fill="currentColor"
       id="rect167" />
  </g>
  <g
     transform="translate(41.929505,23.168853)"
     id="g169">
    <path
       transform="scale(0.004,-0.004)"
       d="m 27,41 -1,-66 v -11 c 0,-22 1,-44 4,-66 45,38 93,80 93,139 0,33 -14,67 -43,67 C 49,104 28,74 27,41 Z m -42,-179 -12,595 c 8,5 18,8 27,8 9,0 19,-3 27,-8 L 20,112 c 25,21 58,34 91,34 52,0 89,-48 89,-102 0,-80 -86,-117 -147,-169 -15,-13 -24,-38 -45,-38 -13,0 -23,11 -23,25 z"
       fill="currentColor"
       id="path168" />
  </g>
  <g
     transform="translate(46.020105,23.668853)"
     id="g170">
    <path
       transform="scale(0.004,-0.004)"
       d="M 0,-46 C 0,45 116,136 217,136 280,136 326,101 326,46 326,-41 216,-136 106,-136 39,-136 0,-97 0,-46 Z"
       fill="currentColor"
       id="path169" />
  </g>
  <g
     transform="translate(47.259305,22.668853)"
     id="g171">
    <rect
       x="-0.064999998"
       y="-1.9960001"
       width="0.13"
       height="2.8097999"
       ry="0.039999999"
       fill="currentColor"
       id="rect170" />
  </g>
  <g
     transform="translate(13.692205,19.858853)"
     id="g172">
    <polygon
       stroke-linejoin="round"
       stroke-linecap="round"
       stroke-width="0.08"
       fill="currentColor"
       stroke="currentColor"
       points="0.04,0.2 0.04,-0.2 2.7988,0.42 2.7988,0.82 "
       id="polygon171" />
  </g>
  <g
     transform="translate(48.978905,24.168853)"
     id="g173">
    <path
       transform="scale(0.004,-0.004)"
       d="M 0,-46 C 0,45 116,136 217,136 280,136 326,101 326,46 326,-41 216,-136 106,-136 39,-136 0,-97 0,-46 Z"
       fill="currentColor"
       id="path172" />
  </g>
  <g
     transform="translate(50.218105,22.668853)"
     id="g174">
    <rect
       x="-0.064999998"
       y="-1.814"
       width="0.13"
       height="3.1278"
       ry="0.039999999"
       fill="currentColor"
       id="rect173" />
  </g>
  <g
     transform="translate(7.774605,20.858853)"
     id="g175">
    <polygon
       stroke-linejoin="round"
       stroke-linecap="round"
       stroke-width="0.08"
       fill="currentColor"
       stroke="currentColor"
       points="0.04,0.2 0.04,-0.2 3.0488,-0.39 3.0488,0.01 "
       id="polygon174" />
  </g>
  <g
     transform="translate(51.687705,25.168853)"
     id="g176">
    <path
       transform="scale(0.004,-0.004)"
       d="M 0,-46 C 0,45 116,136 217,136 280,136 326,101 326,46 326,-41 216,-136 106,-136 39,-136 0,-97 0,-46 Z"
       fill="currentColor"
       id="path175" />
  </g>
  <g
     transform="translate(52.926905,22.668853)"
     id="g177">
    <rect
       x="-0.064999998"
       y="-0.81"
       width="0.13"
       height="3.1238"
       ry="0.039999999"
       fill="currentColor"
       id="rect176" />
  </g>
  <g
     transform="translate(55.496505,25.168853)"
     id="g178">
    <path
       transform="scale(0.004,-0.004)"
       d="M 0,-46 C 0,45 116,136 217,136 280,136 326,101 326,46 326,-41 216,-136 106,-136 39,-136 0,-97 0,-46 Z"
       fill="currentColor"
       id="path177" />
  </g>
  <g
     transform="translate(86.173905,19.858853)"
     id="g179">
    <polygon
       stroke-linejoin="round"
       stroke-linecap="round"
       stroke-width="0.08"
       fill="currentColor"
       stroke="currentColor"
       points="0.04,0.2 0.04,-0.2 2.7988,0.42 2.7988,0.82 "
       id="polygon178" />
  </g>
  <g
     transform="translate(54.046505,25.168853)"
     id="g180">
    <path
       transform="scale(0.004,-0.004)"
       d="m 0,119 c 0,8 5,15 13,18 l 46,17 v 158 c 0,10 8,19 18,19 10,0 19,-9 19,-19 V 167 l 83,31 v 158 c 0,10 9,19 19,19 10,0 18,-9 18,-19 V 211 l 32,12 c 2,1 5,1 7,1 11,0 20,-9 20,-20 v -60 c 0,-8 -5,-16 -13,-19 L 216,109 V -51 l 32,11 c 2,1 5,1 7,1 11,0 20,-9 20,-20 v -60 c 0,-8 -5,-15 -13,-18 l -46,-17 v -158 c 0,-10 -8,-19 -18,-19 -10,0 -19,9 -19,19 v 145 l -83,-31 v -158 c 0,-10 -9,-19 -19,-19 -10,0 -18,9 -18,19 v 145 l -32,-12 c -2,-1 -5,-1 -7,-1 -11,0 -20,9 -20,20 v 60 c 0,8 5,16 13,19 l 46,16 V 51 L 27,40 C 25,39 22,39 20,39 9,39 0,48 0,59 Z M 179,95 96,65 V -95 l 83,30 z"
       fill="currentColor"
       id="path179" />
  </g>
  <g
     transform="translate(59.930105,17.168853)"
     id="g181">
    <text
       font-family="'NewComputerModern Math'"
       font-size="2.3308px"
       text-anchor="start"
       fill="currentColor"
       id="text180"><tspan
         id="tspan180">C</tspan></text>
  </g>
  <g
     transform="translate(61.603105,17.963453)"
     id="g182">
    <text
       font-family="'NewComputerModern Math'"
       font-size="1.648px"
       text-anchor="start"
       fill="currentColor"
       id="text181"><tspan
         id="tspan181">△</tspan></text>
  </g>
  <g
     transform="translate(63.207805,17.963453)"
     id="g183">
    <text
       font-family="'NewComputerModern Math'"
       font-size="1.648px"
       text-anchor="start"
       fill="currentColor"
       id="text182"><tspan
         id="tspan182">7</tspan></text>
  </g>
  <g
     transform="translate(59.930105,24.668853)"
     id="g184">
    <path
       transform="scale(0.004,-0.004)"
       d="M 0,-46 C 0,45 116,136 217,136 280,136 326,101 326,46 326,-41 216,-136 106,-136 39,-136 0,-97 0,-46 Z"
       fill="currentColor"
       id="path183" />
  </g>
  <g
     transform="translate(61.169305,22.668853)"
     id="g185">
    <rect
       x="-0.064999998"
       y="-1.5"
       width="0.13"
       height="3.3138001"
       ry="0.039999999"
       fill="currentColor"
       id="rect184" />
  </g>
  <g
     transform="translate(64.543505,24.668853)"
     id="g186">
    <path
       transform="scale(0.004,-0.004)"
       d="M 0,-46 C 0,45 116,136 217,136 280,136 326,101 326,46 326,-41 216,-136 106,-136 39,-136 0,-97 0,-46 Z"
       fill="currentColor"
       id="path185" />
  </g>
  <g
     transform="translate(65.782705,22.668853)"
     id="g187">
    <rect
       x="-0.064999998"
       y="-1.8242"
       width="0.13"
       height="3.638"
       ry="0.039999999"
       fill="currentColor"
       id="rect186" />
  </g>
  <g
     transform="translate(67.200805,23.668853)"
     id="g188">
    <path
       transform="scale(0.004,-0.004)"
       d="M 0,-46 C 0,45 116,136 217,136 280,136 326,101 326,46 326,-41 216,-136 106,-136 39,-136 0,-97 0,-46 Z"
       fill="currentColor"
       id="path187" />
  </g>
  <g
     transform="translate(68.440005,22.668853)"
     id="g189">
    <rect
       x="-0.064999998"
       y="-2.405"
       width="0.13"
       height="3.2188001"
       ry="0.039999999"
       fill="currentColor"
       id="rect188" />
  </g>
  <g
     transform="translate(69.858005,22.668853)"
     id="g190">
    <path
       transform="scale(0.004,-0.004)"
       d="M 0,-46 C 0,45 116,136 217,136 280,136 326,101 326,46 326,-41 216,-136 106,-136 39,-136 0,-97 0,-46 Z"
       fill="currentColor"
       id="path189" />
  </g>
  <g
     transform="translate(71.097205,22.668853)"
     id="g191">
    <rect
       x="-0.064999998"
       y="-2.9858"
       width="0.13"
       height="2.7995999"
       ry="0.039999999"
       fill="currentColor"
       id="rect190" />
  </g>
  <g
     transform="translate(72.355005,21.668853)"
     id="g192">
    <path
       transform="scale(0.004,-0.004)"
       d="M 0,-46 C 0,45 116,136 217,136 280,136 326,101 326,46 326,-41 216,-136 106,-136 39,-136 0,-97 0,-46 Z"
       fill="currentColor"
       id="path191" />
  </g>
  <g
     transform="translate(72.420005,22.668853)"
     id="g193">
    <rect
       x="-0.064999998"
       y="-0.81379998"
       width="0.13"
       height="3.0179999"
       ry="0.039999999"
       fill="currentColor"
       id="rect192" />
  </g>
  <g
     transform="translate(75.063805,22.668853)"
     id="g194">
    <path
       transform="scale(0.004,-0.004)"
       d="M 0,-46 C 0,45 116,136 217,136 280,136 326,101 326,46 326,-41 216,-136 106,-136 39,-136 0,-97 0,-46 Z"
       fill="currentColor"
       id="path193" />
  </g>
  <g
     transform="translate(75.128805,22.668853)"
     id="g195">
    <rect
       x="-0.064999998"
       y="0.18619999"
       width="0.13"
       height="2.6096001"
       ry="0.039999999"
       fill="currentColor"
       id="rect194" />
  </g>
  <g
     transform="translate(78.022605,22.168853)"
     id="g196">
    <path
       transform="scale(0.004,-0.004)"
       d="M 0,-46 C 0,45 116,136 217,136 280,136 326,101 326,46 326,-41 216,-136 106,-136 39,-136 0,-97 0,-46 Z"
       fill="currentColor"
       id="path195" />
  </g>
  <g
     transform="translate(78.087605,22.668853)"
     id="g197">
    <rect
       x="-0.064999998"
       y="-0.31380001"
       width="0.13"
       height="2.4998"
       ry="0.039999999"
       fill="currentColor"
       id="rect196" />
  </g>
  <g
     transform="translate(80.981405,21.668853)"
     id="g198">
    <path
       transform="scale(0.004,-0.004)"
       d="M 0,-46 C 0,45 116,136 217,136 280,136 326,101 326,46 326,-41 216,-136 106,-136 39,-136 0,-97 0,-46 Z"
       fill="currentColor"
       id="path197" />
  </g>
  <g
     transform="translate(81.046405,22.668853)"
     id="g199">
    <rect
       x="-0.064999998"
       y="-0.81379998"
       width="0.13"
       height="2.8178"
       ry="0.039999999"
       fill="currentColor"
       id="rect198" />
  </g>
  <g
     transform="translate(84.999705,22.668853)"
     id="g200">
    <path
       transform="scale(0.004,-0.004)"
       d="M 0,-46 C 0,45 116,136 217,136 280,136 326,101 326,46 326,-41 216,-136 106,-136 39,-136 0,-97 0,-46 Z"
       fill="currentColor"
       id="path199" />
  </g>
  <g
     transform="translate(86.238905,22.668853)"
     id="g201">
    <rect
       x="-0.064999998"
       y="-2.7958"
       width="0.13"
       height="2.6096001"
       ry="0.039999999"
       fill="currentColor"
       id="rect200" />
  </g>
  <g
     transform="translate(87.708505,23.668853)"
     id="g202">
    <path
       transform="scale(0.004,-0.004)"
       d="M 0,-46 C 0,45 116,136 217,136 280,136 326,101 326,46 326,-41 216,-136 106,-136 39,-136 0,-97 0,-46 Z"
       fill="currentColor"
       id="path201" />
  </g>
  <g
     transform="translate(88.947705,22.668853)"
     id="g203">
    <rect
       x="-0.064999998"
       y="-2.2042"
       width="0.13"
       height="3.0179999"
       ry="0.039999999"
       fill="currentColor"
       id="rect202" />
  </g>
  <g
     transform="translate(90.667305,22.668853)"
     id="g204">
    <path
       transform="scale(0.004,-0.004)"
       d="m -6,78 c 0,59 124,83 124,182 0,24 -8,49 -25,69 l -35,42 c -3,3 -4,7 -4,10 0,9 9,15 17,15 4,0 8,-1 11,-5 L 233,211 c 7,-9 10,-17 10,-25 0,-59 -124,-83 -124,-182 0,-24 7,-49 24,-69 l 84,-99 c 3,-3 4,-7 4,-10 0,-9 -8,-16 -16,-16 -8,0 -45,44 -109,44 -16,0 -53,0 -53,-67 0,-62 30,-97 30,-100 0,-4 -4,-7 -8,-7 -13,0 -98,130 -98,204 0,41 27,42 40,42 33,0 78,-13 119,-31 L 4,53 C -3,62 -6,70 -6,78 Z"
       fill="currentColor"
       id="path203" />
  </g>
  <g
     transform="translate(94.926505,22.668853)"
     id="g205">
    <path
       transform="scale(0.004,-0.004)"
       d="M 365,0 H 10 C 4,0 0,4 0,10 v 136 c 0,6 4,10 10,10 h 355 c 6,0 10,-4 10,-10 V 10 C 375,4 371,0 365,0 Z"
       fill="currentColor"
       id="path204" />
  </g>
</svg>
