<?xml version="1.0" encoding="UTF-8" standalone="no"?>
<svg
   version="1.2"
   width="179.99992mm"
   height="19.108891mm"
   viewBox="0 0 102.4299 10.874014"
   id="svg96"
   sodipodi:docname="fig_129.svg"
   xmlns:inkscape="http://www.inkscape.org/namespaces/inkscape"
   xmlns:sodipodi="http://sodipodi.sourceforge.net/DTD/sodipodi-0.dtd"
   xmlns="http://www.w3.org/2000/svg"
   xmlns:svg="http://www.w3.org/2000/svg">
  <defs
     id="defs96" />
  <sodipodi:namedview
     id="namedview96"
     pagecolor="#505050"
     bordercolor="#eeeeee"
     borderopacity="1"
     inkscape:showpageshadow="0"
     inkscape:pageopacity="0"
     inkscape:pagecheckerboard="0"
     inkscape:deskcolor="#505050"
     inkscape:document-units="mm" />
  <style
     type="text/css"
     id="style1"><![CDATA[
tspan { white-space: pre; }
]]></style>
  <g
     transform="translate(102.2399,7.334014)"
     id="g1">
    <rect
       x="0"
       y="-2"
       width="0.19"
       height="4"
       ry="0.0000"
       fill="currentColor"
       id="rect1" />
  </g>
  <g
     transform="translate(101.7499,7.334014)"
     id="g2">
    <rect
       x="0"
       y="-2"
       width="0.19"
       height="4"
       ry="0.0000"
       fill="currentColor"
       id="rect2" />
  </g>
  <g
     transform="translate(0,4.334014)"
     id="g3">
    <rect
       x="38.601601"
       y="-0.1"
       width="1.8199"
       height="0.2"
       ry="0.1"
       fill="currentColor"
       id="rect3" />
  </g>
  <g
     transform="translate(0,4.334014)"
     id="g4">
    <rect
       x="27.878799"
       y="-0.1"
       width="1.8052"
       height="0.2"
       ry="0.1"
       fill="currentColor"
       id="rect4" />
  </g>
  <g
     transform="translate(0,4.334014)"
     id="g5">
    <rect
       x="20.5567"
       y="-0.1"
       width="1.8053"
       height="0.2"
       ry="0.1"
       fill="currentColor"
       id="rect5" />
  </g>
  <g
     transform="translate(0,4.334014)"
     id="g6">
    <rect
       x="17.021"
       y="-0.1"
       width="1.9563"
       height="0.2"
       ry="0.1"
       fill="currentColor"
       id="rect6" />
  </g>
  <g
     transform="translate(0,9.334014)"
     id="g7">
    <line
       stroke-linejoin="round"
       stroke-linecap="round"
       stroke-width="0.1"
       stroke="currentColor"
       x1="0.050000001"
       y1="0"
       x2="102.3799"
       y2="0"
       id="line6" />
  </g>
  <g
     transform="translate(0,8.334014)"
     id="g8">
    <line
       stroke-linejoin="round"
       stroke-linecap="round"
       stroke-width="0.1"
       stroke="currentColor"
       x1="0.050000001"
       y1="0"
       x2="102.3799"
       y2="0"
       id="line7" />
  </g>
  <g
     transform="translate(0,7.334014)"
     id="g9">
    <line
       stroke-linejoin="round"
       stroke-linecap="round"
       stroke-width="0.1"
       stroke="currentColor"
       x1="0.050000001"
       y1="0"
       x2="102.3799"
       y2="0"
       id="line8" />
  </g>
  <g
     transform="translate(0,6.334014)"
     id="g10">
    <line
       stroke-linejoin="round"
       stroke-linecap="round"
       stroke-width="0.1"
       stroke="currentColor"
       x1="0.050000001"
       y1="0"
       x2="102.3799"
       y2="0"
       id="line9" />
  </g>
  <g
     transform="translate(0,5.334014)"
     id="g11">
    <line
       stroke-linejoin="round"
       stroke-linecap="round"
       stroke-width="0.1"
       stroke="currentColor"
       x1="0.050000001"
       y1="0"
       x2="102.3799"
       y2="0"
       id="line10" />
  </g>
  <g
     transform="translate(87.5767,7.334014)"
     id="g12">
    <rect
       x="0"
       y="-2"
       width="0.19"
       height="4"
       ry="0.0000"
       fill="currentColor"
       id="rect11" />
  </g>
  <g
     transform="translate(57.2717,7.334014)"
     id="g13">
    <rect
       x="0"
       y="-2"
       width="0.19"
       height="4"
       ry="0.0000"
       fill="currentColor"
       id="rect12" />
  </g>
  <g
     transform="translate(23.9378,7.334014)"
     id="g14">
    <rect
       x="0"
       y="-2"
       width="0.19"
       height="4"
       ry="0.0000"
       fill="currentColor"
       id="rect13" />
  </g>
  <g
     transform="translate(58.23,7.334014)"
     id="g15">
    <path
       transform="scale(0.004,-0.004)"
       d="M 0,-46 C 0,45 116,136 217,136 280,136 326,101 326,46 326,-41 216,-136 106,-136 39,-136 0,-97 0,-46 Z"
       fill="currentColor"
       id="path14" />
  </g>
  <g
     transform="translate(72.9429,4.524014)"
     id="g16">
    <polygon
       stroke-linejoin="round"
       stroke-linecap="round"
       stroke-width="0.08"
       fill="currentColor"
       stroke="currentColor"
       points="0.04,0.2 0.04,-0.2 5.9781,-0.2 5.9781,0.2 "
       id="polygon15" />
  </g>
  <g
     transform="translate(8.3216,7.334014)"
     id="g17">
    <path
       transform="scale(0.004,-0.004)"
       d="M 365,0 H 10 C 4,0 0,4 0,10 v 136 c 0,6 4,10 10,10 h 355 c 6,0 10,-4 10,-10 V 10 C 375,4 371,0 365,0 Z"
       fill="currentColor"
       id="path16" />
  </g>
  <g
     transform="translate(0.8,8.334014)"
     id="g18">
    <path
       transform="scale(0.004,-0.004)"
       d="m 266,-635 h -6 c -108,0 -195,88 -195,197 0,58 53,103 112,103 54,0 95,-47 95,-103 0,-52 -43,-95 -95,-95 -11,0 -21,2 -31,6 26,-39 68,-65 117,-65 h 4 z m 135,786 c 19,-89 48,-242 60,-354 76,27 112,94 112,163 0,89 -60,179 -172,191 z M 74,28 c 0,-112 98,-247 278,-247 21,0 44,2 68,6 -7,64 -29,203 -63,364 -79,-8 -124,-61 -124,-119 0,-44 25,-91 81,-123 5,-5 7,-10 7,-15 0,-11 -10,-22 -22,-22 -15,0 -126,62 -126,187 0,88 58,174 160,197 -14,58 -29,117 -46,175 C 180,310 74,188 74,28 Z m 283,1166 c 28,0 143,-206 143,-361 0,-143 -86,-255 -180,-364 21,-68 39,-138 56,-207 5,0 10,1 14,1 155,0 255,-129 255,-262 0,-113 -74,-212 -180,-245 3,-35 5,-70 5,-105 0,-19 -1,-39 -2,-58 -7,-119 -88,-225 -202,-228 l 1,43 c 93,2 153,92 159,191 1,18 2,37 2,55 0,31 -1,61 -4,92 -28,-5 -55,-8 -80,-8 -239,0 -342,217 -342,374 0,177 131,306 248,441 -29,96 -52,170 -52,346 0,189 144,295 159,295 z M 247,782 c 0,-55 12,-115 35,-190 83,100 147,202 147,326 0,40 -6,82 -21,127 -49,-24 -161,-97 -161,-263 z"
       fill="currentColor"
       id="path17" />
  </g>
  <g
     transform="translate(4.885,7.334014)"
     id="g19">
    <path
       transform="scale(0.004,-0.004)"
       d="M 433,-89 C 433,-111 383,-263 250,-263 191,-263 0,-244 0,0 0,62 18,262 250,262 366,262 426,156 426,99 426,59 396,27 359,27 c -31,0 -75,25 -75,75 0,38 27,77 72,77 4,0 9,0 14,-1 -28,37 -72,59 -120,59 C 144,237 137,164 137,51 V 0 -51 c 0,-113 7,-187 113,-187 80,0 139,70 158,151 2,7 7,10 12,10 6,0 13,-4 13,-12 z"
       fill="currentColor"
       id="path18" />
  </g>
  <g
     transform="translate(66.1735,5.524014)"
     id="g20">
    <polygon
       stroke-linejoin="round"
       stroke-linecap="round"
       stroke-width="0.08"
       fill="currentColor"
       stroke="currentColor"
       points="0.04,0.2 0.04,-0.2 3.4747,-0.39 3.4747,0.01 "
       id="polygon19" />
  </g>
  <g
     transform="translate(13.5117,7.334014)"
     id="g21">
    <path
       transform="scale(0.004,-0.004)"
       d="m -6,78 c 0,59 124,83 124,182 0,24 -8,49 -25,69 l -35,42 c -3,3 -4,7 -4,10 0,9 9,15 17,15 4,0 8,-1 11,-5 L 233,211 c 7,-9 10,-17 10,-25 0,-59 -124,-83 -124,-182 0,-24 7,-49 24,-69 l 84,-99 c 3,-3 4,-7 4,-10 0,-9 -8,-16 -16,-16 -8,0 -45,44 -109,44 -16,0 -53,0 -53,-67 0,-62 30,-97 30,-100 0,-4 -4,-7 -8,-7 -13,0 -98,130 -98,204 0,41 27,42 40,42 33,0 78,-13 119,-31 L 4,53 C -3,62 -6,70 -6,78 Z"
       fill="currentColor"
       id="path20" />
  </g>
  <g
     transform="translate(75.508,3.746214)"
     id="g22">
    <text
       font-family="'NewComputerModern Math'"
       font-style="italic"
       font-size="1.7459px"
       text-anchor="start"
       fill="currentColor"
       id="text21"><tspan
         id="tspan21">3</tspan></text>
  </g>
  <g
     transform="translate(17.3471,4.334014)"
     id="g23">
    <path
       transform="scale(0.004,-0.004)"
       d="M 0,-46 C 0,45 116,136 217,136 280,136 326,101 326,46 326,-41 216,-136 106,-136 39,-136 0,-97 0,-46 Z"
       fill="currentColor"
       id="path22" />
  </g>
  <g
     transform="translate(17.4121,7.334014)"
     id="g24">
    <rect
       x="-0.064999998"
       y="-2.8138001"
       width="0.13"
       height="2.8138001"
       ry="0.039999999"
       fill="currentColor"
       id="rect23" />
  </g>
  <g
     transform="translate(20.7317,4.334014)"
     id="g25">
    <path
       transform="scale(0.004,-0.004)"
       d="M 0,-46 C 0,45 116,136 217,136 280,136 326,101 326,46 326,-41 216,-136 106,-136 39,-136 0,-97 0,-46 Z"
       fill="currentColor"
       id="path24" />
  </g>
  <g
     transform="translate(20.7967,7.334014)"
     id="g26">
    <rect
       x="-0.064999998"
       y="-2.8138001"
       width="0.13"
       height="2.8138001"
       ry="0.039999999"
       fill="currentColor"
       id="rect25" />
  </g>
  <g
     transform="translate(19.5817,4.334014)"
     id="g27">
    <path
       transform="scale(0.004,-0.004)"
       d="m 27,41 -1,-66 v -11 c 0,-22 1,-44 4,-66 45,38 93,80 93,139 0,33 -14,67 -43,67 C 49,104 28,74 27,41 Z m -42,-179 -12,595 c 8,5 18,8 27,8 9,0 19,-3 27,-8 L 20,112 c 25,21 58,34 91,34 52,0 89,-48 89,-102 0,-80 -86,-117 -147,-169 -15,-13 -24,-38 -45,-38 -13,0 -23,11 -23,25 z"
       fill="currentColor"
       id="path26" />
  </g>
  <g
     transform="translate(59.4042,4.334014)"
     id="g28">
    <polygon
       stroke-linejoin="round"
       stroke-linecap="round"
       stroke-width="0.08"
       fill="currentColor"
       stroke="currentColor"
       points="0.04,0.2 0.04,-0.2 3.2247,0.99 3.2247,1.39 "
       id="polygon27" />
  </g>
  <g
     transform="translate(50.6676,9.334014)"
     id="g29">
    <polygon
       stroke-linejoin="round"
       stroke-linecap="round"
       stroke-width="0.08"
       fill="currentColor"
       stroke="currentColor"
       points="0.04,0.2 0.04,-0.2 3.4747,-0.01 3.4747,0.39 "
       id="polygon28" />
  </g>
  <g
     transform="translate(25.0797,1.643214)"
     id="g30">
    <text
       font-family="'NewComputerModern Math'"
       font-size="2.3308px"
       text-anchor="start"
       fill="currentColor"
       id="text29"><tspan
         id="tspan29">D</tspan></text>
  </g>
  <g
     transform="translate(26.8551,2.437814)"
     id="g31">
    <text
       font-family="'NewComputerModern Math'"
       font-size="1.648px"
       text-anchor="start"
       fill="currentColor"
       id="text30"><tspan
         id="tspan30">−</tspan></text>
  </g>
  <g
     transform="translate(28.1526,2.437814)"
     id="g32">
    <text
       font-family="'NewComputerModern Math'"
       font-size="1.648px"
       text-anchor="start"
       fill="currentColor"
       id="text31"><tspan
         id="tspan31">7</tspan></text>
  </g>
  <g
     transform="translate(25.0797,4.834014)"
     id="g33">
    <path
       transform="scale(0.004,-0.004)"
       d="M 0,-46 C 0,45 116,136 217,136 280,136 326,101 326,46 326,-41 216,-136 106,-136 39,-136 0,-97 0,-46 Z"
       fill="currentColor"
       id="path32" />
  </g>
  <g
     transform="translate(25.1447,7.334014)"
     id="g34">
    <rect
       x="-0.064999998"
       y="-2.3138001"
       width="0.13"
       height="3.1271999"
       ry="0.039999999"
       fill="currentColor"
       id="rect33" />
  </g>
  <g
     transform="translate(41.926,8.524014)"
     id="g35">
    <polygon
       stroke-linejoin="round"
       stroke-linecap="round"
       stroke-width="0.08"
       fill="currentColor"
       stroke="currentColor"
       points="0.04,0.2 0.04,-0.2 5.9178,-0.2 5.9178,0.2 "
       id="polygon34" />
  </g>
  <g
     transform="translate(28.0539,4.334014)"
     id="g36">
    <path
       transform="scale(0.004,-0.004)"
       d="M 0,-46 C 0,45 116,136 217,136 280,136 326,101 326,46 326,-41 216,-136 106,-136 39,-136 0,-97 0,-46 Z"
       fill="currentColor"
       id="path35" />
  </g>
  <g
     transform="translate(28.1189,7.334014)"
     id="g37">
    <rect
       x="-0.064999998"
       y="-2.8138001"
       width="0.13"
       height="3.7815001"
       ry="0.039999999"
       fill="currentColor"
       id="rect36" />
  </g>
  <g
     transform="translate(26.9039,4.334014)"
     id="g38">
    <path
       transform="scale(0.004,-0.004)"
       d="m 27,41 -1,-66 v -11 c 0,-22 1,-44 4,-66 45,38 93,80 93,139 0,33 -14,67 -43,67 C 49,104 28,74 27,41 Z m -42,-179 -12,595 c 8,5 18,8 27,8 9,0 19,-3 27,-8 L 20,112 c 25,21 58,34 91,34 52,0 89,-48 89,-102 0,-80 -86,-117 -147,-169 -15,-13 -24,-38 -45,-38 -13,0 -23,11 -23,25 z"
       fill="currentColor"
       id="path37" />
  </g>
  <g
     transform="translate(35.4066,9.334014)"
     id="g39">
    <polygon
       stroke-linejoin="round"
       stroke-linecap="round"
       stroke-width="0.08"
       fill="currentColor"
       stroke="currentColor"
       points="0.04,0.2 0.04,-0.2 3.4747,-1.39 3.4747,-0.99 "
       id="polygon38" />
  </g>
  <g
     transform="translate(30.1629,4.834014)"
     id="g40">
    <path
       transform="scale(0.004,-0.004)"
       d="M 0,-46 C 0,45 116,136 217,136 280,136 326,101 326,46 326,-41 216,-136 106,-136 39,-136 0,-97 0,-46 Z"
       fill="currentColor"
       id="path39" />
  </g>
  <g
     transform="translate(30.2279,7.334014)"
     id="g41">
    <rect
       x="-0.064999998"
       y="-2.3138001"
       width="0.13"
       height="3.391"
       ry="0.039999999"
       fill="currentColor"
       id="rect40" />
  </g>
  <g
     transform="translate(44.461,10.426214)"
     id="g42">
    <text
       font-family="'NewComputerModern Math'"
       font-style="italic"
       font-size="1.7459px"
       text-anchor="start"
       fill="currentColor"
       id="text41"><tspan
         id="tspan41">3</tspan></text>
  </g>
  <g
     transform="translate(32.2719,5.334014)"
     id="g43">
    <path
       transform="scale(0.004,-0.004)"
       d="M 0,-46 C 0,45 116,136 217,136 280,136 326,101 326,46 326,-41 216,-136 106,-136 39,-136 0,-97 0,-46 Z"
       fill="currentColor"
       id="path42" />
  </g>
  <g
     transform="translate(32.3369,7.334014)"
     id="g44">
    <rect
       x="-0.064999998"
       y="-1.8138"
       width="0.13"
       height="3.0004001"
       ry="0.039999999"
       fill="currentColor"
       id="rect43" />
  </g>
  <g
     transform="translate(35.4066,6.334014)"
     id="g45">
    <path
       transform="scale(0.004,-0.004)"
       d="M 0,-46 C 0,45 116,136 217,136 280,136 326,101 326,46 326,-41 216,-136 106,-136 39,-136 0,-97 0,-46 Z"
       fill="currentColor"
       id="path44" />
  </g>
  <g
     transform="translate(35.4716,7.334014)"
     id="g46">
    <rect
       x="-0.064999998"
       y="-0.81379998"
       width="0.13"
       height="2.7918"
       ry="0.039999999"
       fill="currentColor"
       id="rect45" />
  </g>
  <g
     transform="translate(25.0797,7.334014)"
     id="g47">
    <polygon
       stroke-linejoin="round"
       stroke-linecap="round"
       stroke-width="0.08"
       fill="currentColor"
       stroke="currentColor"
       points="0.04,0.2 0.04,-0.2 5.1732,0.0705 5.1732,0.4705 "
       id="polygon46" />
  </g>
  <g
     transform="translate(25.0797,8.144014)"
     id="g48">
    <polygon
       stroke-linejoin="round"
       stroke-linecap="round"
       stroke-width="0.08"
       fill="currentColor"
       stroke="currentColor"
       points="0.04,0.2 0.04,-0.2 7.2823,0.18 7.2823,0.58 "
       id="polygon47" />
  </g>
  <g
     transform="translate(38.7913,4.334014)"
     id="g49">
    <path
       transform="scale(0.004,-0.004)"
       d="M 0,-46 C 0,45 116,136 217,136 280,136 326,101 326,46 326,-41 216,-136 106,-136 39,-136 0,-97 0,-46 Z"
       fill="currentColor"
       id="path48" />
  </g>
  <g
     transform="translate(38.8563,7.334014)"
     id="g50">
    <rect
       x="-0.064999998"
       y="-2.8138001"
       width="0.13"
       height="3.6458001"
       ry="0.039999999"
       fill="currentColor"
       id="rect49" />
  </g>
  <g
     transform="translate(37.7453,4.334014)"
     id="g51">
    <path
       transform="scale(0.004,-0.004)"
       d="m -7,375 c 8,4 17,7 25,7 8,0 16,-3 24,-7 l -2,-183 106,20 h 3 c 10,0 18,-7 18,-17 l 7,-570 c -8,-4 -17,-7 -25,-7 -8,0 -16,3 -24,7 l 2,183 -106,-20 h -3 c -10,0 -18,7 -18,17 z M 131,112 39,95 l -3,-207 92,17 z"
       fill="currentColor"
       id="path50" />
  </g>
  <g
     transform="translate(17.3471,7.334014)"
     id="g52">
    <polygon
       stroke-linejoin="round"
       stroke-linecap="round"
       stroke-width="0.08"
       fill="currentColor"
       stroke="currentColor"
       points="0.04,0.2 0.04,-0.2 3.4747,-0.2 3.4747,0.2 "
       id="polygon51" />
  </g>
  <g
     transform="translate(41.926,5.834014)"
     id="g53">
    <path
       transform="scale(0.004,-0.004)"
       d="M 0,-46 C 0,45 116,136 217,136 280,136 326,101 326,46 326,-41 216,-136 106,-136 39,-136 0,-97 0,-46 Z"
       fill="currentColor"
       id="path52" />
  </g>
  <g
     transform="translate(41.991,7.334014)"
     id="g54">
    <rect
       x="-0.064999998"
       y="-1.3138"
       width="0.13"
       height="2.5037999"
       ry="0.039999999"
       fill="currentColor"
       id="rect53" />
  </g>
  <g
     transform="translate(27.2424,10.184814)"
     id="g55">
    <text
       font-family="'NewComputerModern Math'"
       font-style="italic"
       font-size="1.7459px"
       text-anchor="start"
       fill="currentColor"
       id="text54"><tspan
         id="tspan54">3</tspan></text>
  </g>
  <g
     transform="translate(44.8398,5.334014)"
     id="g56">
    <path
       transform="scale(0.004,-0.004)"
       d="M 0,-46 C 0,45 116,136 217,136 280,136 326,101 326,46 326,-41 216,-136 106,-136 39,-136 0,-97 0,-46 Z"
       fill="currentColor"
       id="path55" />
  </g>
  <g
     transform="translate(44.9048,7.334014)"
     id="g57">
    <rect
       x="-0.064999998"
       y="-1.8138"
       width="0.13"
       height="3.0037999"
       ry="0.039999999"
       fill="currentColor"
       id="rect56" />
  </g>
  <g
     transform="translate(25.0797,9.490714)"
     id="g58">
    <line
       stroke-linejoin="round"
       stroke-linecap="round"
       stroke-width="0.16"
       stroke="currentColor"
       x1="5.4130001"
       y1="0.2739"
       x2="5.4130001"
       y2="-0.42609999"
       id="line57" />
  </g>
  <g
     transform="translate(25.0797,9.490714)"
     id="g59">
    <line
       stroke-linejoin="round"
       stroke-linecap="round"
       stroke-width="0.16"
       stroke="currentColor"
       x1="-0.1997"
       y1="-0.0101"
       x2="-0.1997"
       y2="-0.7101"
       id="line58" />
  </g>
  <g
     transform="translate(25.0797,9.490714)"
     id="g60">
    <line
       stroke-linejoin="round"
       stroke-linecap="round"
       stroke-width="0.16"
       stroke="currentColor"
       x1="5.4130001"
       y1="0.2739"
       x2="3.6491001"
       y2="0.1847"
       id="line59" />
  </g>
  <g
     transform="translate(25.0797,9.490714)"
     id="g61">
    <line
       stroke-linejoin="round"
       stroke-linecap="round"
       stroke-width="0.16"
       stroke="currentColor"
       x1="-0.1997"
       y1="-0.0101"
       x2="1.7638"
       y2="0.089299999"
       id="line60" />
  </g>
  <g
     transform="translate(47.7537,5.834014)"
     id="g62">
    <path
       transform="scale(0.004,-0.004)"
       d="M 0,-46 C 0,45 116,136 217,136 280,136 326,101 326,46 326,-41 216,-136 106,-136 39,-136 0,-97 0,-46 Z"
       fill="currentColor"
       id="path61" />
  </g>
  <g
     transform="translate(47.8187,7.334014)"
     id="g63">
    <rect
       x="-0.064999998"
       y="-1.3138"
       width="0.13"
       height="2.5037999"
       ry="0.039999999"
       fill="currentColor"
       id="rect62" />
  </g>
  <g
     transform="translate(50.6676,6.334014)"
     id="g64">
    <path
       transform="scale(0.004,-0.004)"
       d="M 0,-46 C 0,45 116,136 217,136 280,136 326,101 326,46 326,-41 216,-136 106,-136 39,-136 0,-97 0,-46 Z"
       fill="currentColor"
       id="path63" />
  </g>
  <g
     transform="translate(50.7326,7.334014)"
     id="g65">
    <rect
       x="-0.064999998"
       y="-0.81379998"
       width="0.13"
       height="2.8173001"
       ry="0.039999999"
       fill="currentColor"
       id="rect64" />
  </g>
  <g
     transform="translate(54.0523,6.834014)"
     id="g66">
    <path
       transform="scale(0.004,-0.004)"
       d="M 0,-46 C 0,45 116,136 217,136 280,136 326,101 326,46 326,-41 216,-136 106,-136 39,-136 0,-97 0,-46 Z"
       fill="currentColor"
       id="path65" />
  </g>
  <g
     transform="translate(54.1173,7.334014)"
     id="g67">
    <rect
       x="-0.064999998"
       y="-0.31380001"
       width="0.13"
       height="2.5002999"
       ry="0.039999999"
       fill="currentColor"
       id="rect66" />
  </g>
  <g
     transform="translate(58.23,1.643214)"
     id="g68">
    <text
       font-family="'NewComputerModern Math'"
       font-size="2.3308px"
       text-anchor="start"
       fill="currentColor"
       id="text67"><tspan
         id="tspan67">G</tspan></text>
  </g>
  <g
     transform="translate(60.0737,2.437814)"
     id="g69">
    <text
       font-family="'NewComputerModern Math'"
       font-size="1.648px"
       text-anchor="start"
       fill="currentColor"
       id="text68"><tspan
         id="tspan68">7</tspan></text>
  </g>
  <g
     transform="translate(81.7448,5.334014)"
     id="g70">
    <polygon
       stroke-linejoin="round"
       stroke-linecap="round"
       stroke-width="0.08"
       fill="currentColor"
       stroke="currentColor"
       points="0.04,0.2 0.04,-0.2 3.4747,-0.01 3.4747,0.39 "
       id="polygon69" />
  </g>
  <g
     transform="translate(59.4692,7.334014)"
     id="g71">
    <rect
       x="-0.064999998"
       y="-2.9763"
       width="0.13"
       height="2.7901001"
       ry="0.039999999"
       fill="currentColor"
       id="rect70" />
  </g>
  <g
     transform="translate(61.3646,9.834014)"
     id="g72">
    <path
       transform="scale(0.004,-0.004)"
       d="M 0,-46 C 0,45 116,136 217,136 280,136 326,101 326,46 326,-41 216,-136 106,-136 39,-136 0,-97 0,-46 Z"
       fill="currentColor"
       id="path71" />
  </g>
  <g
     transform="translate(62.6038,7.334014)"
     id="g73">
    <rect
       x="-0.064999998"
       y="-1.8336999"
       width="0.13"
       height="4.1475"
       ry="0.039999999"
       fill="currentColor"
       id="rect72" />
  </g>
  <g
     transform="translate(64.9993,8.834014)"
     id="g74">
    <path
       transform="scale(0.004,-0.004)"
       d="M 0,-46 C 0,45 116,136 217,136 280,136 326,101 326,46 326,-41 216,-136 106,-136 39,-136 0,-97 0,-46 Z"
       fill="currentColor"
       id="path73" />
  </g>
  <g
     transform="translate(66.2385,7.334014)"
     id="g75">
    <rect
       x="-0.064999998"
       y="-1.8135"
       width="0.13"
       height="3.1273"
       ry="0.039999999"
       fill="currentColor"
       id="rect74" />
  </g>
  <g
     transform="translate(68.384,8.334014)"
     id="g76">
    <path
       transform="scale(0.004,-0.004)"
       d="M 0,-46 C 0,45 116,136 217,136 280,136 326,101 326,46 326,-41 216,-136 106,-136 39,-136 0,-97 0,-46 Z"
       fill="currentColor"
       id="path75" />
  </g>
  <g
     transform="translate(69.6232,7.334014)"
     id="g77">
    <rect
       x="-0.064999998"
       y="-1.9965"
       width="0.13"
       height="2.8103001"
       ry="0.039999999"
       fill="currentColor"
       id="rect76" />
  </g>
  <g
     transform="translate(71.7687,7.834014)"
     id="g78">
    <path
       transform="scale(0.004,-0.004)"
       d="M 0,-46 C 0,45 116,136 217,136 280,136 326,101 326,46 326,-41 216,-136 106,-136 39,-136 0,-97 0,-46 Z"
       fill="currentColor"
       id="path77" />
  </g>
  <g
     transform="translate(73.0079,7.334014)"
     id="g79">
    <rect
       x="-0.064999998"
       y="-2.8099999"
       width="0.13"
       height="3.1238"
       ry="0.039999999"
       fill="currentColor"
       id="rect78" />
  </g>
  <g
     transform="translate(70.6187,7.834014)"
     id="g80">
    <path
       transform="scale(0.004,-0.004)"
       d="m 27,41 -1,-66 v -11 c 0,-22 1,-44 4,-66 45,38 93,80 93,139 0,33 -14,67 -43,67 C 49,104 28,74 27,41 Z m -42,-179 -12,595 c 8,5 18,8 27,8 9,0 19,-3 27,-8 L 20,112 c 25,21 58,34 91,34 52,0 89,-48 89,-102 0,-80 -86,-117 -147,-169 -15,-13 -24,-38 -45,-38 -13,0 -23,11 -23,25 z"
       fill="currentColor"
       id="path79" />
  </g>
  <g
     transform="translate(74.7429,7.334014)"
     id="g81">
    <path
       transform="scale(0.004,-0.004)"
       d="M 0,-46 C 0,45 116,136 217,136 280,136 326,101 326,46 326,-41 216,-136 106,-136 39,-136 0,-97 0,-46 Z"
       fill="currentColor"
       id="path80" />
  </g>
  <g
     transform="translate(75.9821,7.334014)"
     id="g82">
    <rect
       x="-0.064999998"
       y="-2.8099999"
       width="0.13"
       height="2.6238"
       ry="0.039999999"
       fill="currentColor"
       id="rect81" />
  </g>
  <g
     transform="translate(73.5929,7.334014)"
     id="g83">
    <path
       transform="scale(0.004,-0.004)"
       d="m 27,41 -1,-66 v -11 c 0,-22 1,-44 4,-66 45,38 93,80 93,139 0,33 -14,67 -43,67 C 49,104 28,74 27,41 Z m -42,-179 -12,595 c 8,5 18,8 27,8 9,0 19,-3 27,-8 L 20,112 c 25,21 58,34 91,34 52,0 89,-48 89,-102 0,-80 -86,-117 -147,-169 -15,-13 -24,-38 -45,-38 -13,0 -23,11 -23,25 z"
       fill="currentColor"
       id="path82" />
  </g>
  <g
     transform="translate(77.6567,7.834014)"
     id="g84">
    <path
       transform="scale(0.004,-0.004)"
       d="M 0,-46 C 0,45 116,136 217,136 280,136 326,101 326,46 326,-41 216,-136 106,-136 39,-136 0,-97 0,-46 Z"
       fill="currentColor"
       id="path83" />
  </g>
  <g
     transform="translate(78.8959,7.334014)"
     id="g85">
    <rect
       x="-0.064999998"
       y="-2.8099999"
       width="0.13"
       height="3.1238"
       ry="0.039999999"
       fill="currentColor"
       id="rect84" />
  </g>
  <g
     transform="translate(80.5706,8.334014)"
     id="g86">
    <path
       transform="scale(0.004,-0.004)"
       d="M 0,-46 C 0,45 116,136 217,136 280,136 326,101 326,46 326,-41 216,-136 106,-136 39,-136 0,-97 0,-46 Z"
       fill="currentColor"
       id="path85" />
  </g>
  <g
     transform="translate(81.8098,7.334014)"
     id="g87">
    <rect
       x="-0.064999998"
       y="-1.9965"
       width="0.13"
       height="2.8103001"
       ry="0.039999999"
       fill="currentColor"
       id="rect86" />
  </g>
  <g
     transform="translate(83.9553,8.834014)"
     id="g88">
    <path
       transform="scale(0.004,-0.004)"
       d="M 0,-46 C 0,45 116,136 217,136 280,136 326,101 326,46 326,-41 216,-136 106,-136 39,-136 0,-97 0,-46 Z"
       fill="currentColor"
       id="path87" />
  </g>
  <g
     transform="translate(85.1945,7.334014)"
     id="g89">
    <rect
       x="-0.064999998"
       y="-1.8135"
       width="0.13"
       height="3.1273"
       ry="0.039999999"
       fill="currentColor"
       id="rect88" />
  </g>
  <g
     transform="translate(88.535,1.643214)"
     id="g90">
    <text
       font-family="'NewComputerModern Math'"
       font-size="2.3308px"
       text-anchor="start"
       fill="currentColor"
       id="text89"><tspan
         id="tspan89">C</tspan></text>
  </g>
  <g
     transform="translate(90.208,2.437814)"
     id="g91">
    <text
       font-family="'NewComputerModern Math'"
       font-size="1.648px"
       text-anchor="start"
       fill="currentColor"
       id="text90"><tspan
         id="tspan90">△</tspan></text>
  </g>
  <g
     transform="translate(91.8127,2.437814)"
     id="g92">
    <text
       font-family="'NewComputerModern Math'"
       font-size="1.648px"
       text-anchor="start"
       fill="currentColor"
       id="text91"><tspan
         id="tspan91">7</tspan></text>
  </g>
  <g
     transform="translate(88.535,9.334014)"
     id="g93">
    <path
       transform="scale(0.004,-0.004)"
       d="M 0,-46 C 0,45 116,136 217,136 280,136 326,101 326,46 326,-41 216,-136 106,-136 39,-136 0,-97 0,-46 Z"
       fill="currentColor"
       id="path92" />
  </g>
  <g
     transform="translate(89.7742,7.334014)"
     id="g94">
    <rect
       x="-0.064999998"
       y="-1.5"
       width="0.13"
       height="3.3138001"
       ry="0.039999999"
       fill="currentColor"
       id="rect93" />
  </g>
  <g
     transform="translate(92.7245,7.334014)"
     id="g95">
    <path
       transform="scale(0.004,-0.004)"
       d="m -6,78 c 0,59 124,83 124,182 0,24 -8,49 -25,69 l -35,42 c -3,3 -4,7 -4,10 0,9 9,15 17,15 4,0 8,-1 11,-5 L 233,211 c 7,-9 10,-17 10,-25 0,-59 -124,-83 -124,-182 0,-24 7,-49 24,-69 l 84,-99 c 3,-3 4,-7 4,-10 0,-9 -8,-16 -16,-16 -8,0 -45,44 -109,44 -16,0 -53,0 -53,-67 0,-62 30,-97 30,-100 0,-4 -4,-7 -8,-7 -13,0 -98,130 -98,204 0,41 27,42 40,42 33,0 78,-13 119,-31 L 4,53 C -3,62 -6,70 -6,78 Z"
       fill="currentColor"
       id="path94" />
  </g>
  <g
     transform="translate(96.5598,7.334014)"
     id="g96">
    <path
       transform="scale(0.004,-0.004)"
       d="M 365,0 H 10 C 4,0 0,4 0,10 v 136 c 0,6 4,10 10,10 h 355 c 6,0 10,-4 10,-10 V 10 C 375,4 371,0 365,0 Z"
       fill="currentColor"
       id="path95" />
  </g>
</svg>
