<?xml version="1.0" encoding="UTF-8" standalone="no"?>
<svg
   version="1.2"
   width="120.65402mm"
   height="19.048239mm"
   viewBox="0 0 68.658803 10.8395"
   id="svg77"
   sodipodi:docname="fig_119.svg"
   xmlns:inkscape="http://www.inkscape.org/namespaces/inkscape"
   xmlns:sodipodi="http://sodipodi.sourceforge.net/DTD/sodipodi-0.dtd"
   xmlns="http://www.w3.org/2000/svg"
   xmlns:svg="http://www.w3.org/2000/svg">
  <defs
     id="defs77" />
  <sodipodi:namedview
     id="namedview77"
     pagecolor="#505050"
     bordercolor="#eeeeee"
     borderopacity="1"
     inkscape:showpageshadow="0"
     inkscape:pageopacity="0"
     inkscape:pagecheckerboard="0"
     inkscape:deskcolor="#505050"
     inkscape:document-units="mm" />
  <style
     type="text/css"
     id="style1"><![CDATA[
tspan { white-space: pre; }
]]></style>
  <g
     transform="translate(68.4688,7.2955)"
     id="g1">
    <path
       id="rect1"
       style="fill:currentColor"
       d="M 0,-2 H 0.19 V 2 H 0 Z" />
  </g>
  <g
     transform="translate(67.9788,7.2955)"
     id="g2">
    <path
       id="rect2"
       style="fill:currentColor"
       d="M 0,-2 H 0.19 V 2 H 0 Z" />
  </g>
  <g
     transform="translate(0,10.2955)"
     id="g3">
    <path
       id="rect3"
       style="fill:currentColor"
       d="m 34.038099,-0.1 h 1.7563 c 0.0554,0 0.1,0.0446 0.1,0.1 0,0.0554 -0.0446,0.1 -0.1,0.1 h -1.7563 c -0.0554,0 -0.1,-0.0446 -0.1,-0.1 0,-0.0554 0.0446,-0.1 0.1,-0.1 z" />
  </g>
  <g
     transform="translate(0,9.2955)"
     id="g4">
    <path
       id="line3"
       style="stroke:currentColor;stroke-width:0.1;stroke-linecap:round;stroke-linejoin:round"
       d="M 0.05,0 H 68.608803" />
  </g>
  <g
     transform="translate(0,8.2955)"
     id="g5">
    <path
       id="line4"
       style="stroke:currentColor;stroke-width:0.1;stroke-linecap:round;stroke-linejoin:round"
       d="M 0.05,0 H 68.608803" />
  </g>
  <g
     transform="translate(0,7.2955)"
     id="g6">
    <path
       id="line5"
       style="stroke:currentColor;stroke-width:0.1;stroke-linecap:round;stroke-linejoin:round"
       d="M 0.05,0 H 68.608803" />
  </g>
  <g
     transform="translate(0,6.2955)"
     id="g7">
    <path
       id="line6"
       style="stroke:currentColor;stroke-width:0.1;stroke-linecap:round;stroke-linejoin:round"
       d="M 0.05,0 H 68.608803" />
  </g>
  <g
     transform="translate(0,5.2955)"
     id="g8">
    <path
       id="line7"
       style="stroke:currentColor;stroke-width:0.1;stroke-linecap:round;stroke-linejoin:round"
       d="M 0.05,0 H 68.608803" />
  </g>
  <g
     transform="translate(54.9736,7.2955)"
     id="g9">
    <path
       id="rect8"
       style="fill:currentColor"
       d="M 0,-2 H 0.19 V 2 H 0 Z" />
  </g>
  <g
     transform="translate(30.92,7.2955)"
     id="g10">
    <path
       id="rect9"
       style="fill:currentColor"
       d="M 0,-2 H 0.19 V 2 H 0 Z" />
  </g>
  <g
     transform="translate(60.2197,7.2955)"
     id="g11">
    <path
       stroke-width="0.08"
       stroke-linejoin="round"
       stroke-linecap="round"
       stroke="currentColor"
       fill="currentColor"
       d="M 1.5042,3 C 1.7486,3.33 2.123,3.33 2.3674,3 V 3 C 2.123,3.21 1.7486,3.21 1.5042,3 Z"
       id="path10" />
  </g>
  <g
     transform="translate(50.2194,6.1055)"
     id="g12">
    <path
       id="polygon11"
       style="fill:currentColor;stroke:currentColor;stroke-width:0.08;stroke-linecap:round;stroke-linejoin:round"
       d="m 3.2642,-0.01 v 0.4 L 0.04,0.2 v -0.4 z" />
  </g>
  <g
     transform="translate(8.585,2.2955)"
     id="g13">
    <path
       style="font-size:2.3308px;font-family:'NewComputerModern Math';white-space:pre"
       d="m 1.549982,-0.54307641 c 0,-0.023308 0,-0.0396236 -0.0303,-0.0396236 -0.025639,0 -0.025639,0.0139848 -0.02797,0.0372928 -0.018646,0.3333044 -0.268042,0.52443001 -0.52209918,0.52443001 -0.1421788,0 -0.59901561,-0.0792472 -0.59901561,-0.77382562 0,-0.69690918 0.45450601,-0.77615638 0.59668481,-0.77615638 0.25405718,0 0.46149838,0.2121028 0.50811438,0.5523996 0.00466,0.0326312 0.00466,0.0396236 0.037293,0.0396236 0.037293,0 0.037293,-0.006992 0.037293,-0.0559392 v -0.5523996 c 0,-0.039624 0,-0.055939 -0.025639,-0.055939 -0.00932,0 -0.018646,0 -0.037293,0.02797 l -0.11654,0.1724792 C 1.2842708,-1.526674 1.1654,-1.643214 0.94164322,-1.643214 c -0.43585961,0 -0.81111842,0.3705972 -0.81111842,0.84608038 0,0.48247561 0.37758961,0.84841122 0.81111842,0.84841122 0.37992038,0 0.60833878,-0.32398121 0.60833878,-0.59435401 z"
       id="text12"
       aria-label="C" />
  </g>
  <g
     transform="translate(10.258,3.0901)"
     id="g14">
    <path
       style="font-size:1.648px;font-family:'NewComputerModern Math';white-space:pre"
       d="m 1.189856,-0.412 c 0,-0.018128 -0.014832,-0.03296 -0.03296,-0.03296 H 0.125248 c -0.018128,0 -0.03296,0.014832 -0.03296,0.03296 0,0.018128 0.014832,0.03296 0.03296,0.03296 h 1.031648 c 0.018128,0 0.03296,-0.014832 0.03296,-0.03296 z"
       id="text13"
       aria-label="−" />
  </g>
  <g
     transform="translate(11.5555,3.0901)"
     id="g15">
    <path
       style="font-size:1.648px;font-family:'NewComputerModern Math';white-space:pre"
       d="M 0.79928,-1.061312 H 0.398816 c -0.201056,0 -0.204352,-0.021424 -0.210944,-0.052736 h -0.0412 L 0.092288,-0.77456 h 0.0412 c 0.004944,-0.026368 0.019776,-0.130192 0.0412,-0.149968 0.011536,-0.009888 0.14008,-0.009888 0.161504,-0.009888 h 0.341136 l -0.184576,0.260384 c -0.14832,0.22248 -0.202704,0.451552 -0.202704,0.619648 0,0.01648 0,0.09064 0.075808,0.09064 0.075808,0 0.075808,-0.07416 0.075808,-0.09064 v -0.084048 c 0,-0.09064 0.004944,-0.18128 0.018128,-0.270272 0.006592,-0.037904 0.029664,-0.179632 0.102176,-0.281808 l 0.22248,-0.31312 C 0.79928,-1.023408 0.79928,-1.026704 0.79928,-1.061312 Z"
       id="text14"
       aria-label="7" />
  </g>
  <g
     transform="translate(8.585,5.2955)"
     id="g16">
    <path
       transform="scale(0.004,-0.004)"
       d="M 0,-46 C 0,45 116,136 217,136 280,136 326,101 326,46 326,-41 216,-136 106,-136 39,-136 0,-97 0,-46 Z"
       fill="currentColor"
       id="path15" />
  </g>
  <g
     transform="translate(0.8,8.2955)"
     id="g17">
    <path
       transform="scale(0.004,-0.004)"
       d="m 266,-635 h -6 c -108,0 -195,88 -195,197 0,58 53,103 112,103 54,0 95,-47 95,-103 0,-52 -43,-95 -95,-95 -11,0 -21,2 -31,6 26,-39 68,-65 117,-65 h 4 z m 135,786 c 19,-89 48,-242 60,-354 76,27 112,94 112,163 0,89 -60,179 -172,191 z M 74,28 c 0,-112 98,-247 278,-247 21,0 44,2 68,6 -7,64 -29,203 -63,364 -79,-8 -124,-61 -124,-119 0,-44 25,-91 81,-123 5,-5 7,-10 7,-15 0,-11 -10,-22 -22,-22 -15,0 -126,62 -126,187 0,88 58,174 160,197 -14,58 -29,117 -46,175 C 180,310 74,188 74,28 Z m 283,1166 c 28,0 143,-206 143,-361 0,-143 -86,-255 -180,-364 21,-68 39,-138 56,-207 5,0 10,1 14,1 155,0 255,-129 255,-262 0,-113 -74,-212 -180,-245 3,-35 5,-70 5,-105 0,-19 -1,-39 -2,-58 -7,-119 -88,-225 -202,-228 l 1,43 c 93,2 153,92 159,191 1,18 2,37 2,55 0,31 -1,61 -4,92 -28,-5 -55,-8 -80,-8 -239,0 -342,217 -342,374 0,177 131,306 248,441 -29,96 -52,170 -52,346 0,189 144,295 159,295 z M 247,782 c 0,-55 12,-115 35,-190 83,100 147,202 147,326 0,40 -6,82 -21,127 -49,-24 -161,-97 -161,-263 z"
       fill="currentColor"
       id="path16" />
  </g>
  <g
     transform="translate(4.885,7.2955)"
     id="g18">
    <path
       transform="scale(0.004,-0.004)"
       d="M 433,-89 C 433,-111 383,-263 250,-263 191,-263 0,-244 0,0 0,62 18,262 250,262 366,262 426,156 426,99 426,59 396,27 359,27 c -31,0 -75,25 -75,75 0,38 27,77 72,77 4,0 9,0 14,-1 -28,37 -72,59 -120,59 C 144,237 137,164 137,51 V 0 -51 c 0,-113 7,-187 113,-187 80,0 139,70 158,151 2,7 7,10 12,10 6,0 13,-4 13,-12 z"
       fill="currentColor"
       id="path17" />
  </g>
  <g
     transform="translate(8.65,7.2955)"
     id="g19">
    <path
       id="rect18"
       style="fill:currentColor"
       d="m -0.025,-1.8138 h 0.05 c 0.02216,0 0.04,0.01784 0.04,0.04 v 2.73850007 c 0,0.02216 -0.01784,0.04 -0.04,0.04 h -0.05 c -0.02216,0 -0.04,-0.01784 -0.04,-0.04 V -1.7738 c 0,-0.02216 0.01784,-0.04 0.04,-0.04 z" />
  </g>
  <g
     transform="translate(44.541,5.1055)"
     id="g20">
    <path
       id="polygon19"
       style="fill:currentColor;stroke:currentColor;stroke-width:0.08;stroke-linecap:round;stroke-linejoin:round"
       d="m 3.2642,-0.01 v 0.4 L 0.04,0.2 v -0.4 z" />
  </g>
  <g
     transform="translate(11.0892,5.7955)"
     id="g21">
    <path
       transform="scale(0.004,-0.004)"
       d="M 0,-46 C 0,45 116,136 217,136 280,136 326,101 326,46 326,-41 216,-136 106,-136 39,-136 0,-97 0,-46 Z"
       fill="currentColor"
       id="path20" />
  </g>
  <g
     transform="translate(11.1542,7.2955)"
     id="g22">
    <path
       id="rect21"
       style="fill:currentColor"
       d="m -0.025,-1.3138 h 0.05 c 0.02216,0 0.04,0.01784 0.04,0.04 v 2.4191 c 0,0.02216 -0.01784,0.04 -0.04,0.04 h -0.05 c -0.02216,0 -0.04,-0.01784 -0.04,-0.04 v -2.4191 c 0,-0.02216 0.01784,-0.04 0.04,-0.04 z" />
  </g>
  <g
     transform="translate(38.6126,6.1055)"
     id="g23">
    <path
       id="polygon22"
       style="fill:currentColor;stroke:currentColor;stroke-width:0.08;stroke-linecap:round;stroke-linejoin:round"
       d="m 2.8442,-0.82 v 0.4 L 0.04,0.2 v -0.4 z" />
  </g>
  <g
     transform="translate(14.2634,5.7955)"
     id="g24">
    <path
       transform="scale(0.004,-0.004)"
       d="M 0,-46 C 0,45 116,136 217,136 280,136 326,101 326,46 326,-41 216,-136 106,-136 39,-136 0,-97 0,-46 Z"
       fill="currentColor"
       id="path23" />
  </g>
  <g
     transform="translate(14.3284,7.2955)"
     id="g25">
    <path
       id="rect24"
       style="fill:currentColor"
       d="m -0.025,-1.3138 h 0.05 c 0.02216,0 0.04,0.01784 0.04,0.04 v 3.0485 c 0,0.02216 -0.01784,0.04 -0.04,0.04 h -0.05 c -0.02216,0 -0.04,-0.01784 -0.04,-0.04 v -3.0485 c 0,-0.02216 0.01784,-0.04 0.04,-0.04 z" />
  </g>
  <g
     transform="translate(13.1134,5.7955)"
     id="g26">
    <path
       transform="scale(0.004,-0.004)"
       d="m 27,41 -1,-66 v -11 c 0,-22 1,-44 4,-66 45,38 93,80 93,139 0,33 -14,67 -43,67 C 49,104 28,74 27,41 Z m -42,-179 -12,595 c 8,5 18,8 27,8 9,0 19,-3 27,-8 L 20,112 c 25,21 58,34 91,34 52,0 89,-48 89,-102 0,-80 -86,-117 -147,-169 -15,-13 -24,-38 -45,-38 -13,0 -23,11 -23,25 z"
       fill="currentColor"
       id="path25" />
  </g>
  <g
     transform="translate(33.1842,5.1055)"
     id="g27">
    <path
       id="polygon26"
       style="fill:currentColor;stroke:currentColor;stroke-width:0.08;stroke-linecap:round;stroke-linejoin:round"
       d="m 2.3442,0.99 v 0.4 L 0.04,0.2 v -0.4 z" />
  </g>
  <g
     transform="translate(16.7676,6.2955)"
     id="g28">
    <path
       transform="scale(0.004,-0.004)"
       d="M 0,-46 C 0,45 116,136 217,136 280,136 326,101 326,46 326,-41 216,-136 106,-136 39,-136 0,-97 0,-46 Z"
       fill="currentColor"
       id="path27" />
  </g>
  <g
     transform="translate(16.8326,7.2955)"
     id="g29">
    <path
       id="rect28"
       style="fill:currentColor"
       d="m -0.025,-0.81379998 h 0.05 c 0.02216,0 0.04,0.01784 0.04,0.04 V 1.9552999 c 0,0.02216 -0.01784,0.04 -0.04,0.04 h -0.05 c -0.02216,0 -0.04,-0.01784 -0.04,-0.04 v -2.72909988 c 0,-0.02216 0.01784,-0.04 0.04,-0.04 z" />
  </g>
  <g
     transform="translate(26.0348,5.2955)"
     id="g30">
    <path
       id="polygon29"
       style="fill:currentColor;stroke:currentColor;stroke-width:0.08;stroke-linecap:round;stroke-linejoin:round"
       d="M 3.4442,-0.2 V 0.2 H 0.04 v -0.4 z" />
  </g>
  <g
     transform="translate(19.2718,6.7955)"
     id="g31">
    <path
       transform="scale(0.004,-0.004)"
       d="M 0,-46 C 0,45 116,136 217,136 280,136 326,101 326,46 326,-41 216,-136 106,-136 39,-136 0,-97 0,-46 Z"
       fill="currentColor"
       id="path30" />
  </g>
  <g
     transform="translate(19.3368,7.2955)"
     id="g32">
    <path
       id="rect31"
       style="fill:currentColor"
       d="m -0.025,-0.31380001 h 0.05 c 0.02216,0 0.04,0.01784 0.04,0.04 V 2.7737001 c 0,0.02216 -0.01784,0.04 -0.04,0.04 h -0.05 c -0.02216,0 -0.04,-0.01784 -0.04,-0.04 v -3.04750011 c 0,-0.02216 0.01784,-0.04 0.04,-0.04 z" />
  </g>
  <g
     transform="translate(19.2718,10.1055)"
     id="g33">
    <path
       id="polygon32"
       style="fill:currentColor;stroke:currentColor;stroke-width:0.08;stroke-linecap:round;stroke-linejoin:round"
       d="m 3.2642,-0.01 v 0.4 L 0.04,0.2 v -0.4 z" />
  </g>
  <g
     transform="translate(22.446,7.2955)"
     id="g34">
    <path
       transform="scale(0.004,-0.004)"
       d="M 0,-46 C 0,45 116,136 217,136 280,136 326,101 326,46 326,-41 216,-136 106,-136 39,-136 0,-97 0,-46 Z"
       fill="currentColor"
       id="path33" />
  </g>
  <g
     transform="translate(22.511,7.2955)"
     id="g35">
    <path
       id="rect34"
       style="fill:currentColor"
       d="m -0.025,0.18619999 h 0.05 c 0.02216,0 0.04,0.01784 0.04,0.04 V 2.9563001 c 0,0.02216 -0.01784,0.04 -0.04,0.04 h -0.05 c -0.02216,0 -0.04,-0.01784 -0.04,-0.04 V 0.22619999 c 0,-0.02216 0.01784,-0.04 0.04,-0.04 z" />
  </g>
  <g
     transform="translate(21.296,7.2955)"
     id="g36">
    <path
       transform="scale(0.004,-0.004)"
       d="m 27,41 -1,-66 v -11 c 0,-22 1,-44 4,-66 45,38 93,80 93,139 0,33 -14,67 -43,67 C 49,104 28,74 27,41 Z m -42,-179 -12,595 c 8,5 18,8 27,8 9,0 19,-3 27,-8 L 20,112 c 25,21 58,34 91,34 52,0 89,-48 89,-102 0,-80 -86,-117 -147,-169 -15,-13 -24,-38 -45,-38 -13,0 -23,11 -23,25 z"
       fill="currentColor"
       id="path35" />
  </g>
  <g
     transform="translate(14.2634,9.1055)"
     id="g37">
    <path
       id="polygon36"
       style="fill:currentColor;stroke:currentColor;stroke-width:0.08;stroke-linecap:round;stroke-linejoin:round"
       d="m 2.5942,-0.01 v 0.4 L 0.04,0.2 v -0.4 z" />
  </g>
  <g
     transform="translate(24.8606,8.2955)"
     id="g38">
    <path
       transform="scale(0.004,-0.004)"
       d="M 0,-46 C 0,45 116,136 217,136 280,136 326,101 326,46 326,-41 216,-136 106,-136 39,-136 0,-97 0,-46 Z"
       fill="currentColor"
       id="path37" />
  </g>
  <g
     transform="translate(26.0998,7.2955)"
     id="g39">
    <path
       id="rect38"
       style="fill:currentColor"
       d="m -0.025,-2 h 0.05 c 0.02216,0 0.04,0.01784 0.04,0.04 v 2.7338001 c 0,0.02216 -0.01784,0.04 -0.04,0.04 h -0.05 c -0.02216,0 -0.04,-0.01784 -0.04,-0.04 V -1.96 c 0,-0.02216 0.01784,-0.04 0.04,-0.04 z" />
  </g>
  <g
     transform="translate(8.585,8.2955)"
     id="g40">
    <path
       id="polygon39"
       style="fill:currentColor;stroke:currentColor;stroke-width:0.08;stroke-linecap:round;stroke-linejoin:round"
       d="m 2.5942,-0.01 v 0.4 L 0.04,0.2 v -0.4 z" />
  </g>
  <g
     transform="translate(28.2148,8.2955)"
     id="g41">
    <path
       transform="scale(0.004,-0.004)"
       d="M 0,-46 C 0,45 116,136 217,136 280,136 326,101 326,46 326,-41 216,-136 106,-136 39,-136 0,-97 0,-46 Z"
       fill="currentColor"
       id="path40" />
  </g>
  <g
     transform="translate(29.454,7.2955)"
     id="g42">
    <path
       id="rect41"
       style="fill:currentColor"
       d="m -0.025,-2 h 0.05 c 0.02216,0 0.04,0.01784 0.04,0.04 v 2.7338001 c 0,0.02216 -0.01784,0.04 -0.04,0.04 h -0.05 c -0.02216,0 -0.04,-0.01784 -0.04,-0.04 V -1.96 c 0,-0.02216 0.01784,-0.04 0.04,-0.04 z" />
  </g>
  <g
     transform="translate(26.7648,8.2955)"
     id="g43">
    <path
       transform="scale(0.004,-0.004)"
       d="m 0,119 c 0,8 5,15 13,18 l 46,17 v 158 c 0,10 8,19 18,19 10,0 19,-9 19,-19 V 167 l 83,31 v 158 c 0,10 9,19 19,19 10,0 18,-9 18,-19 V 211 l 32,12 c 2,1 5,1 7,1 11,0 20,-9 20,-20 v -60 c 0,-8 -5,-16 -13,-19 L 216,109 V -51 l 32,11 c 2,1 5,1 7,1 11,0 20,-9 20,-20 v -60 c 0,-8 -5,-15 -13,-18 l -46,-17 v -158 c 0,-10 -8,-19 -18,-19 -10,0 -19,9 -19,19 v 145 l -83,-31 v -158 c 0,-10 -9,-19 -19,-19 -10,0 -18,9 -18,19 v 145 l -32,-12 c -2,-1 -5,-1 -7,-1 -11,0 -20,9 -20,20 v 60 c 0,8 5,16 13,19 l 46,16 V 51 L 27,40 C 25,39 22,39 20,39 9,39 0,48 0,59 Z M 179,95 96,65 V -95 l 83,30 z"
       fill="currentColor"
       id="path42" />
  </g>
  <g
     transform="translate(32.01,2.2955)"
     id="g44">
    <path
       style="font-size:2.3308px;font-family:'NewComputerModern Math';white-space:pre"
       d="M 1.421788,-1.060514 1.356526,-1.584944 H 0.0769164 v 0.072255 h 0.0559392 c 0.17947161,0 0.18413321,0.025639 0.18413321,0.1095476 v 1.2213392 c 0,0.0839088 -0.004662,0.1095476 -0.18413321,0.1095476 H 0.0769164 V 0 c 0.081578,-0.0069924 0.26338041,-0.0069924 0.35428161,-0.0069924 0.0955628,0 0.30766561,0 0.39157441,0.0069924 v -0.0722548 h -0.0769164 c -0.22142601,0 -0.22142601,-0.0303004 -0.22142601,-0.1118784 v -0.57337682 h 0.20044881 c 0.2237568,0 0.2470648,0.0745856 0.2470648,0.27270361 h 0.05827 V -1.1024684 h -0.05827 c 0,0.19578718 -0.023308,0.27270358 -0.2470648,0.27270358 H 0.52443001 V -1.4194572 c 0,-0.076916 0.004662,-0.093232 0.11420921,-0.093232 h 0.279696 c 0.34961998,0 0.40788998,0.1305248 0.44518278,0.4521752 z"
       id="text43"
       aria-label="F" />
  </g>
  <g
     transform="translate(33.5464,3.0901)"
     id="g45">
    <path
       style="font-size:1.648px;font-family:'NewComputerModern Math';white-space:pre"
       d="M 0.79928,-1.061312 H 0.398816 c -0.201056,0 -0.204352,-0.021424 -0.210944,-0.052736 h -0.0412 L 0.092288,-0.77456 h 0.0412 c 0.004944,-0.026368 0.019776,-0.130192 0.0412,-0.149968 0.011536,-0.009888 0.14008,-0.009888 0.161504,-0.009888 h 0.341136 l -0.184576,0.260384 c -0.14832,0.22248 -0.202704,0.451552 -0.202704,0.619648 0,0.01648 0,0.09064 0.075808,0.09064 0.075808,0 0.075808,-0.07416 0.075808,-0.09064 v -0.084048 c 0,-0.09064 0.004944,-0.18128 0.018128,-0.270272 0.006592,-0.037904 0.029664,-0.179632 0.102176,-0.281808 l 0.22248,-0.31312 C 0.79928,-1.023408 0.79928,-1.026704 0.79928,-1.061312 Z"
       id="text44"
       aria-label="7" />
  </g>
  <g
     transform="translate(32.01,7.7955)"
     id="g46">
    <path
       transform="scale(0.004,-0.004)"
       d="M 0,-46 C 0,45 116,136 217,136 280,136 326,101 326,46 326,-41 216,-136 106,-136 39,-136 0,-97 0,-46 Z"
       fill="currentColor"
       id="path45" />
  </g>
  <g
     transform="translate(33.2492,7.2955)"
     id="g47">
    <path
       id="rect46"
       style="fill:currentColor"
       d="m -0.025,-2.1575999 h 0.05 c 0.02216,0 0.04,0.01784 0.04,0.04 v 2.3914 c 0,0.02216 -0.01784,0.04 -0.04,0.04 h -0.05 c -0.02216,0 -0.04,-0.01784 -0.04,-0.04 v -2.3914 c 0,-0.02216 0.01784,-0.04 0.04,-0.04 z" />
  </g>
  <g
     transform="translate(34.2642,10.2955)"
     id="g48">
    <path
       transform="scale(0.004,-0.004)"
       d="M 0,-46 C 0,45 116,136 217,136 280,136 326,101 326,46 326,-41 216,-136 106,-136 39,-136 0,-97 0,-46 Z"
       fill="currentColor"
       id="path47" />
  </g>
  <g
     transform="translate(35.5034,7.2955)"
     id="g49">
    <path
       id="rect48"
       style="fill:currentColor"
       d="m -0.025,-1.0324 h 0.05 c 0.02216,0 0.04,0.01784 0.04,0.04 v 3.7662 c 0,0.02216 -0.01784,0.04 -0.04,0.04 h -0.05 c -0.02216,0 -0.04,-0.01784 -0.04,-0.04 v -3.76620001 c 0,-0.02216 0.01784,-0.04 0.04,-0.04 z" />
  </g>
  <g
     transform="translate(37.4384,9.7955)"
     id="g50">
    <path
       transform="scale(0.004,-0.004)"
       d="M 0,-46 C 0,45 116,136 217,136 280,136 326,101 326,46 326,-41 216,-136 106,-136 39,-136 0,-97 0,-46 Z"
       fill="currentColor"
       id="path49" />
  </g>
  <g
     transform="translate(38.6776,7.2955)"
     id="g51">
    <path
       id="rect50"
       style="fill:currentColor"
       d="m -0.025,-1.204 h 0.05 c 0.02216,0 0.04,0.01784 0.04,0.04 v 3.4378001 c 0,0.02216 -0.01784,0.04 -0.04,0.04 h -0.05 c -0.02216,0 -0.04,-0.01784 -0.04,-0.04 V -1.164 c 0,-0.02216 0.01784,-0.04 0.04,-0.04 z" />
  </g>
  <g
     transform="translate(36.2884,9.7955)"
     id="g52">
    <path
       transform="scale(0.004,-0.004)"
       d="m 27,41 -1,-66 v -11 c 0,-22 1,-44 4,-66 45,38 93,80 93,139 0,33 -14,67 -43,67 C 49,104 28,74 27,41 Z m -42,-179 -12,595 c 8,5 18,8 27,8 9,0 19,-3 27,-8 L 20,112 c 25,21 58,34 91,34 52,0 89,-48 89,-102 0,-80 -86,-117 -147,-169 -15,-13 -24,-38 -45,-38 -13,0 -23,11 -23,25 z"
       fill="currentColor"
       id="path51" />
  </g>
  <g
     transform="translate(40.1926,8.7955)"
     id="g53">
    <path
       transform="scale(0.004,-0.004)"
       d="M 0,-46 C 0,45 116,136 217,136 280,136 326,101 326,46 326,-41 216,-136 106,-136 39,-136 0,-97 0,-46 Z"
       fill="currentColor"
       id="path52" />
  </g>
  <g
     transform="translate(41.4318,7.2955)"
     id="g54">
    <path
       id="rect53"
       style="fill:currentColor"
       d="m -0.025,-1.796 h 0.05 c 0.02216,0 0.04,0.01784 0.04,0.04 v 3.0298001 c 0,0.02216 -0.01784,0.04 -0.04,0.04 h -0.05 c -0.02216,0 -0.04,-0.01784 -0.04,-0.04 V -1.756 c 0,-0.02216 0.01784,-0.04 0.04,-0.04 z" />
  </g>
  <g
     transform="translate(43.3668,7.7955)"
     id="g55">
    <path
       transform="scale(0.004,-0.004)"
       d="M 0,-46 C 0,45 116,136 217,136 280,136 326,101 326,46 326,-41 216,-136 106,-136 39,-136 0,-97 0,-46 Z"
       fill="currentColor"
       id="path54" />
  </g>
  <g
     transform="translate(44.606,7.2955)"
     id="g56">
    <path
       id="rect55"
       style="fill:currentColor"
       d="m -0.025,-2.1863 h 0.05 c 0.02216,0 0.04,0.01784 0.04,0.04 v 2.42009986 c 0,0.02216 -0.01784,0.04 -0.04,0.04 h -0.05 c -0.02216,0 -0.04,-0.01784 -0.04,-0.04 V -2.1463 c 0,-0.02216 0.01784,-0.04 0.04,-0.04 z" />
  </g>
  <g
     transform="translate(42.2168,7.7955)"
     id="g57">
    <path
       transform="scale(0.004,-0.004)"
       d="m 27,41 -1,-66 v -11 c 0,-22 1,-44 4,-66 45,38 93,80 93,139 0,33 -14,67 -43,67 C 49,104 28,74 27,41 Z m -42,-179 -12,595 c 8,5 18,8 27,8 9,0 19,-3 27,-8 L 20,112 c 25,21 58,34 91,34 52,0 89,-48 89,-102 0,-80 -86,-117 -147,-169 -15,-13 -24,-38 -45,-38 -13,0 -23,11 -23,25 z"
       fill="currentColor"
       id="path56" />
  </g>
  <g
     transform="translate(46.541,8.2955)"
     id="g58">
    <path
       transform="scale(0.004,-0.004)"
       d="M 0,-46 C 0,45 116,136 217,136 280,136 326,101 326,46 326,-41 216,-136 106,-136 39,-136 0,-97 0,-46 Z"
       fill="currentColor"
       id="path57" />
  </g>
  <g
     transform="translate(47.7802,7.2955)"
     id="g59">
    <path
       id="rect58"
       style="fill:currentColor"
       d="m -0.025,-2.0037 h 0.05 c 0.02216,0 0.04,0.01784 0.04,0.04 v 2.7375001 c 0,0.02216 -0.01784,0.04 -0.04,0.04 h -0.05 c -0.02216,0 -0.04,-0.01784 -0.04,-0.04 V -1.9637 c 0,-0.02216 0.01784,-0.04 0.04,-0.04 z" />
  </g>
  <g
     transform="translate(45.391,8.2955)"
     id="g60">
    <path
       transform="scale(0.004,-0.004)"
       d="m 27,41 -1,-66 v -11 c 0,-22 1,-44 4,-66 45,38 93,80 93,139 0,33 -14,67 -43,67 C 49,104 28,74 27,41 Z m -42,-179 -12,595 c 8,5 18,8 27,8 9,0 19,-3 27,-8 L 20,112 c 25,21 58,34 91,34 52,0 89,-48 89,-102 0,-80 -86,-117 -147,-169 -15,-13 -24,-38 -45,-38 -13,0 -23,11 -23,25 z"
       fill="currentColor"
       id="path59" />
  </g>
  <g
     transform="translate(49.0452,8.7955)"
     id="g61">
    <path
       transform="scale(0.004,-0.004)"
       d="M 0,-46 C 0,45 116,136 217,136 280,136 326,101 326,46 326,-41 216,-136 106,-136 39,-136 0,-97 0,-46 Z"
       fill="currentColor"
       id="path60" />
  </g>
  <g
     transform="translate(50.2844,7.2955)"
     id="g62">
    <path
       id="rect61"
       style="fill:currentColor"
       d="m -0.025,-1.1863 h 0.05 c 0.02216,0 0.04,0.01784 0.04,0.04 v 2.4200999 c 0,0.02216 -0.01784,0.04 -0.04,0.04 h -0.05 c -0.02216,0 -0.04,-0.01784 -0.04,-0.04 V -1.1463 c 0,-0.02216 0.01784,-0.04 0.04,-0.04 z" />
  </g>
  <g
     transform="translate(52.2194,9.2955)"
     id="g63">
    <path
       transform="scale(0.004,-0.004)"
       d="M 0,-46 C 0,45 116,136 217,136 280,136 326,101 326,46 326,-41 216,-136 106,-136 39,-136 0,-97 0,-46 Z"
       fill="currentColor"
       id="path62" />
  </g>
  <g
     transform="translate(53.4586,7.2955)"
     id="g64">
    <path
       id="rect63"
       style="fill:currentColor"
       d="m -0.025,-1.0037 h 0.05 c 0.02216,0 0.04,0.01784 0.04,0.04 v 2.7375001 c 0,0.02216 -0.01784,0.04 -0.04,0.04 h -0.05 c -0.02216,0 -0.04,-0.01784 -0.04,-0.04 v -2.73750012 c 0,-0.02216 0.01784,-0.04 0.04,-0.04 z" />
  </g>
  <g
     transform="translate(51.0694,9.2955)"
     id="g65">
    <path
       transform="scale(0.004,-0.004)"
       d="m 27,41 -1,-66 v -11 c 0,-22 1,-44 4,-66 45,38 93,80 93,139 0,33 -14,67 -43,67 C 49,104 28,74 27,41 Z m -42,-179 -12,595 c 8,5 18,8 27,8 9,0 19,-3 27,-8 L 20,112 c 25,21 58,34 91,34 52,0 89,-48 89,-102 0,-80 -86,-117 -147,-169 -15,-13 -24,-38 -45,-38 -13,0 -23,11 -23,25 z"
       fill="currentColor"
       id="path64" />
  </g>
  <g
     transform="translate(56.0636,2.2955)"
     id="g66">
    <path
       style="font-size:2.3308px;font-family:'NewComputerModern Math';white-space:pre"
       d="m 1.5173508,-0.42653641 c 0,-0.20277961 -0.1911256,-0.37758961 -0.4498444,-0.40555921 0.2260876,-0.0442852 0.3869128,-0.19345638 0.3869128,-0.36593558 0,-0.2027796 -0.2144336,-0.3939052 -0.51743758,-0.3939052 H 0.0839088 v 0.072255 H 0.139848 c 0.17947161,0 0.18413321,0.025639 0.18413321,0.1095476 v 1.2283316 c 0,0.0839088 -0.004662,0.1095476 -0.18413321,0.1095476 H 0.0839088 V 0 H 0.99758242 C 1.3075788,0 1.5173508,-0.20744121 1.5173508,-0.42653641 Z M 1.2283316,-1.1980312 c 0,0.1491712 -0.1142092,0.34495838 -0.37292798,0.34495838 H 0.51743761 V -1.4264496 c 0,-0.076916 0.004662,-0.093232 0.11420921,-0.093232 h 0.2890192 c 0.22608758,0 0.30766558,0.198118 0.30766558,0.3216504 z m 0.055939,0.76916399 c 0,0.1654868 -0.1212016,0.35661241 -0.36127398,0.35661241 h -0.29135 c -0.10954761,0 -0.11420921,-0.0163156 -0.11420921,-0.093232 v -0.63630842 h 0.43819041 c 0.23074918,0 0.32864278,0.21676441 0.32864278,0.37292801 z"
       id="text65"
       aria-label="B" />
  </g>
  <g
     transform="translate(57.7024,1.236)"
     id="g67">
    <path
       style="font-size:1.648px;font-family:'NewComputerModern Math';white-space:pre"
       d="m 0.548784,-0.529008 c 0,-0.121952 -0.09064,-0.229072 -0.225776,-0.229072 -0.092288,0 -0.158208,0.037904 -0.191168,0.069216 v -0.500992 c 0,-0.031312 0,-0.046144 -0.019776,-0.046144 -0.021424,0 -0.021424,0.013184 -0.021424,0.046144 v 1.179968 c 0,0.03296 0,0.046144 0.021424,0.046144 0.01648,0 0.187872,-0.118656 0.278512,-0.215888 0.09064,-0.097232 0.158208,-0.212592 0.158208,-0.349376 z m -0.133488,0 c 0,0.260384 -0.243904,0.46968 -0.283456,0.50264 v -0.538896 c 0,-0.037904 0,-0.072512 0.054384,-0.103824 0.051088,-0.029664 0.1236,-0.029664 0.1236,-0.029664 0.075808,0 0.105472,0.088992 0.105472,0.169744 z"
       id="text66"
       aria-label="♭" />
  </g>
  <g
     transform="translate(58.3512,3.0901)"
     id="g68">
    <path
       style="font-size:1.648px;font-family:'NewComputerModern Math';white-space:pre"
       d="m 1.502976,-0.02472 c 0,-0.004944 -0.00165,-0.011536 -0.00494,-0.01648 L 0.825648,-1.204688 c -0.004944,-0.00989 -0.01648,-0.01648 -0.028016,-0.01648 -0.013184,0 -0.023072,0.00659 -0.028016,0.01648 L 0.097232,-0.0412 c -0.003296,0.004944 -0.004944,0.011536 -0.004944,0.01648 0,0.019776 0.014832,0.03296 0.03296,0.03296 h 1.344768 c 0.018128,0 0.03296,-0.013184 0.03296,-0.03296 z M 1.412336,-0.05768 H 0.182928 l 0.614704,-1.064608 z"
       id="text67"
       aria-label="△" />
  </g>
  <g
     transform="translate(59.9559,3.0901)"
     id="g69">
    <path
       style="font-size:1.648px;font-family:'NewComputerModern Math';white-space:pre"
       d="M 0.79928,-1.061312 H 0.398816 c -0.201056,0 -0.204352,-0.021424 -0.210944,-0.052736 h -0.0412 L 0.092288,-0.77456 h 0.0412 c 0.004944,-0.026368 0.019776,-0.130192 0.0412,-0.149968 0.011536,-0.009888 0.14008,-0.009888 0.161504,-0.009888 h 0.341136 l -0.184576,0.260384 c -0.14832,0.22248 -0.202704,0.451552 -0.202704,0.619648 0,0.01648 0,0.09064 0.075808,0.09064 0.075808,0 0.075808,-0.07416 0.075808,-0.09064 v -0.084048 c 0,-0.09064 0.004944,-0.18128 0.018128,-0.270272 0.006592,-0.037904 0.029664,-0.179632 0.102176,-0.281808 l 0.22248,-0.31312 C 0.79928,-1.023408 0.79928,-1.026704 0.79928,-1.061312 Z"
       id="text68"
       aria-label="7" />
  </g>
  <g
     transform="translate(56.0636,8.7955)"
     id="g70">
    <path
       transform="scale(0.004,-0.004)"
       d="M 0,-46 C 0,45 116,136 217,136 280,136 326,101 326,46 326,-41 216,-136 106,-136 39,-136 0,-97 0,-46 Z"
       fill="currentColor"
       id="path69" />
  </g>
  <g
     transform="translate(57.8178,8.7955)"
     id="g71">
    <path
       transform="scale(0.004,-0.004)"
       d="M 0,0 C 0,31 25,56 56,56 87,56 112,31 112,0 112,-31 87,-56 56,-56 25,-56 0,-31 0,0 Z"
       fill="currentColor"
       id="path70" />
  </g>
  <g
     transform="translate(57.3028,7.2955)"
     id="g72">
    <path
       id="rect71"
       style="fill:currentColor"
       d="m -0.025,-2 h 0.05 c 0.02216,0 0.04,0.01784 0.04,0.04 v 3.2338001 c 0,0.02216 -0.01784,0.04 -0.04,0.04 h -0.05 c -0.02216,0 -0.04,-0.01784 -0.04,-0.04 V -1.96 c 0,-0.02216 0.01784,-0.04 0.04,-0.04 z" />
  </g>
  <g
     transform="translate(60.2197,9.7955)"
     id="g73">
    <path
       transform="scale(0.004,-0.004)"
       d="M 0,-46 C 0,45 116,136 217,136 280,136 326,101 326,46 326,-41 216,-136 106,-136 39,-136 0,-97 0,-46 Z"
       fill="currentColor"
       id="path72" />
  </g>
  <g
     transform="translate(61.4589,7.2955)"
     id="g74">
    <path
       id="rect73"
       style="fill:currentColor"
       d="m -0.025,-1 h 0.05 c 0.02216,0 0.04,0.01784 0.04,0.04 v 3.2338001 c 0,0.02216 -0.01784,0.04 -0.04,0.04 h -0.05 c -0.02216,0 -0.04,-0.01784 -0.04,-0.04 V -0.96 c 0,-0.02216 0.01784,-0.04 0.04,-0.04 z" />
  </g>
  <g
     transform="translate(61.5239,6.3355)"
     id="g75">
    <path
       transform="scale(0.004,-0.004)"
       d="M 0,0 V -375 H -16 V 0 Z m 123,-729 c 0,10 42,87 42,196 0,103 -94,208 -165,283 V 0 c 0,-197 207,-336 207,-533 0,-71 -15,-141 -41,-207 -5,-8 -13,-12 -20,-12 -12,0 -23,9 -23,23 z"
       fill="currentColor"
       id="path74" />
  </g>
  <g
     transform="translate(62.7871,9.7955)"
     id="g76">
    <path
       transform="scale(0.004,-0.004)"
       d="m 72,-106 c 40,0 204,110 231,143 7,9 11,19 11,28 0,22 -18,41 -42,41 C 232,106 68,-4 41,-37 34,-46 31,-56 31,-65 c 0,-22 17,-41 41,-41 z M 0,-67 c 0,71 46,203 258,203 41,0 86,-10 86,-69 0,-71 -46,-203 -258,-203 -41,0 -86,10 -86,69 z"
       fill="currentColor"
       id="path75" />
  </g>
  <g
     transform="translate(64.0995,7.2955)"
     id="g77">
    <path
       id="rect76"
       style="fill:currentColor"
       d="m -0.025,-1 h 0.05 c 0.02216,0 0.04,0.01784 0.04,0.04 v 3.1609999 c 0,0.02216 -0.01784,0.04 -0.04,0.04 h -0.05 c -0.02216,0 -0.04,-0.01784 -0.04,-0.04 V -0.96 c 0,-0.02216 0.01784,-0.04 0.04,-0.04 z" />
  </g>
</svg>
