<?xml version="1.0" encoding="UTF-8" standalone="no"?>
<svg
   version="1.2"
   width="135.44098mm"
   height="20.833437mm"
   viewBox="0 0 77.073399 11.855376"
   id="svg82"
   sodipodi:docname="fig_229.svg"
   xmlns:inkscape="http://www.inkscape.org/namespaces/inkscape"
   xmlns:sodipodi="http://sodipodi.sourceforge.net/DTD/sodipodi-0.dtd"
   xmlns:xlink="http://www.w3.org/1999/xlink"
   xmlns="http://www.w3.org/2000/svg"
   xmlns:svg="http://www.w3.org/2000/svg">
  <defs
     id="defs82" />
  <sodipodi:namedview
     id="namedview82"
     pagecolor="#505050"
     bordercolor="#eeeeee"
     borderopacity="1"
     inkscape:showpageshadow="0"
     inkscape:pageopacity="0"
     inkscape:pagecheckerboard="0"
     inkscape:deskcolor="#505050"
     inkscape:document-units="mm" />
  <style
     type="text/css"
     id="style1"><![CDATA[
tspan { white-space: pre; }
]]></style>
  <g
     transform="translate(76.8834,7.150376)"
     id="g1">
    <rect
       x="0"
       y="-2"
       width="0.19"
       height="4"
       ry="0.0000"
       fill="currentColor"
       id="rect1" />
  </g>
  <g
     transform="translate(76.3934,7.150376)"
     id="g2">
    <rect
       x="0"
       y="-2"
       width="0.19"
       height="4"
       ry="0.0000"
       fill="currentColor"
       id="rect2" />
  </g>
  <g
     transform="translate(0,4.150376)"
     id="g3">
    <rect
       x="26.278799"
       y="-0.1"
       width="1.8053"
       height="0.2"
       ry="0.1"
       fill="currentColor"
       id="rect3" />
  </g>
  <g
     transform="translate(0,9.150376)"
     id="g4">
    <line
       stroke-linejoin="round"
       stroke-linecap="round"
       stroke-width="0.1"
       stroke="currentColor"
       x1="0.050000001"
       y1="0"
       x2="77.0233"
       y2="0"
       id="line3" />
  </g>
  <g
     transform="translate(0,8.150376)"
     id="g5">
    <line
       stroke-linejoin="round"
       stroke-linecap="round"
       stroke-width="0.1"
       stroke="currentColor"
       x1="0.050000001"
       y1="0"
       x2="77.0233"
       y2="0"
       id="line4" />
  </g>
  <g
     transform="translate(0,7.150376)"
     id="g6">
    <line
       stroke-linejoin="round"
       stroke-linecap="round"
       stroke-width="0.1"
       stroke="currentColor"
       x1="0.050000001"
       y1="0"
       x2="77.0233"
       y2="0"
       id="line5" />
  </g>
  <g
     transform="translate(0,6.150376)"
     id="g7">
    <line
       stroke-linejoin="round"
       stroke-linecap="round"
       stroke-width="0.1"
       stroke="currentColor"
       x1="0.050000001"
       y1="0"
       x2="77.0233"
       y2="0"
       id="line6" />
  </g>
  <g
     transform="translate(0,5.150376)"
     id="g8">
    <line
       stroke-linejoin="round"
       stroke-linecap="round"
       stroke-width="0.1"
       stroke="currentColor"
       x1="0.050000001"
       y1="0"
       x2="77.0233"
       y2="0"
       id="line7" />
  </g>
  <g
     transform="translate(61.0433,7.150376)"
     id="g9">
    <rect
       x="0"
       y="-2"
       width="0.19"
       height="4"
       ry="0.0000"
       fill="currentColor"
       id="rect8" />
  </g>
  <g
     transform="translate(34.0661,7.150376)"
     id="g10">
    <rect
       x="0"
       y="-2"
       width="0.19"
       height="4"
       ry="0.0000"
       fill="currentColor"
       id="rect9" />
  </g>
  <g
     transform="translate(49.0438,4.340376)"
     id="g11">
    <polygon
       stroke-linejoin="round"
       stroke-linecap="round"
       stroke-width="0.08"
       fill="currentColor"
       stroke="currentColor"
       points="0.04,0.2 0.04,-0.2 3.4442,0.42 3.4442,0.82 "
       id="polygon10" />
  </g>
  <g
     transform="translate(42.8815,4.150376)"
     id="g12">
    <polygon
       stroke-linejoin="round"
       stroke-linecap="round"
       stroke-width="0.08"
       fill="currentColor"
       stroke="currentColor"
       points="0.04,0.2 0.04,-0.2 3.0462,0.61 3.0462,1.01 "
       id="polygon11" />
  </g>
  <a
     style="color:inherit"
     xlink:href="textedit:///Users/devonnuri/Documents/typst/241230%20Linear%20Harmony/lilypond/fig_229.ly:8:4:5"
     id="a15"
     transform="translate(-8.5358,-6.690724)">
    <g
       transform="translate(17.1208,8.8411)"
       id="g13">
      <text
         font-family="'Tex Gyre Termes'"
         font-size="2.3308px"
         text-anchor="start"
         fill="currentColor"
         id="text12"><tspan
           id="tspan12">D</tspan></text>
    </g>
    <g
       transform="translate(18.7938,8.8411)"
       id="g14">
      <text
         font-family="'Tex Gyre Termes'"
         font-size="2.3308px"
         text-anchor="start"
         fill="currentColor"
         id="text13"><tspan
           id="tspan13">m</tspan></text>
    </g>
    <g
       transform="translate(20.6034,7.7817)"
       id="g15">
      <text
         font-family="'Tex Gyre Termes'"
         font-size="1.648px"
         text-anchor="start"
         fill="currentColor"
         id="text14"><tspan
           id="tspan14">7</tspan></text>
    </g>
  </a>
  <a
     style="color:inherit"
     xlink:href="textedit:///Users/devonnuri/Documents/typst/241230%20Linear%20Harmony/lilypond/fig_229.ly:11:15:16"
     id="a16"
     transform="translate(-8.5358,-6.690724)">
    <g
       transform="translate(17.1208,16.3411)"
       id="g16">
      <path
         transform="scale(0.004,-0.004)"
         d="M 0,-46 C 0,45 116,136 217,136 280,136 326,101 326,46 326,-41 216,-136 106,-136 39,-136 0,-97 0,-46 Z"
         fill="currentColor"
         id="path15" />
    </g>
  </a>
  <g
     transform="translate(0.8,8.150376)"
     id="g17">
    <path
       transform="scale(0.004,-0.004)"
       d="m 266,-635 h -6 c -108,0 -195,88 -195,197 0,58 53,103 112,103 54,0 95,-47 95,-103 0,-52 -43,-95 -95,-95 -11,0 -21,2 -31,6 26,-39 68,-65 117,-65 h 4 z m 135,786 c 19,-89 48,-242 60,-354 76,27 112,94 112,163 0,89 -60,179 -172,191 z M 74,28 c 0,-112 98,-247 278,-247 21,0 44,2 68,6 -7,64 -29,203 -63,364 -79,-8 -124,-61 -124,-119 0,-44 25,-91 81,-123 5,-5 7,-10 7,-15 0,-11 -10,-22 -22,-22 -15,0 -126,62 -126,187 0,88 58,174 160,197 -14,58 -29,117 -46,175 C 180,310 74,188 74,28 Z m 283,1166 c 28,0 143,-206 143,-361 0,-143 -86,-255 -180,-364 21,-68 39,-138 56,-207 5,0 10,1 14,1 155,0 255,-129 255,-262 0,-113 -74,-212 -180,-245 3,-35 5,-70 5,-105 0,-19 -1,-39 -2,-58 -7,-119 -88,-225 -202,-228 l 1,43 c 93,2 153,92 159,191 1,18 2,37 2,55 0,31 -1,61 -4,92 -28,-5 -55,-8 -80,-8 -239,0 -342,217 -342,374 0,177 131,306 248,441 -29,96 -52,170 -52,346 0,189 144,295 159,295 z M 247,782 c 0,-55 12,-115 35,-190 83,100 147,202 147,326 0,40 -6,82 -21,127 -49,-24 -161,-97 -161,-263 z"
       fill="currentColor"
       id="path16" />
  </g>
  <g
     transform="translate(4.885,7.150376)"
     id="g18">
    <path
       transform="scale(0.004,-0.004)"
       d="M 433,-89 C 433,-111 383,-263 250,-263 191,-263 0,-244 0,0 0,62 18,262 250,262 366,262 426,156 426,99 426,59 396,27 359,27 c -31,0 -75,25 -75,75 0,38 27,77 72,77 4,0 9,0 14,-1 -28,37 -72,59 -120,59 C 144,237 137,164 137,51 V 0 -51 c 0,-113 7,-187 113,-187 80,0 139,70 158,151 2,7 7,10 12,10 6,0 13,-4 13,-12 z"
       fill="currentColor"
       id="path17" />
  </g>
  <g
     transform="translate(9.8242,7.150376)"
     id="g19">
    <rect
       x="-0.064999998"
       y="-1.0137"
       width="0.13"
       height="3.3275001"
       ry="0.039999999"
       fill="currentColor"
       id="rect18" />
  </g>
  <g
     transform="translate(35.3847,8.340376)"
     id="g20">
    <polygon
       stroke-linejoin="round"
       stroke-linecap="round"
       stroke-width="0.08"
       fill="currentColor"
       stroke="currentColor"
       points="0.04,0.2 0.04,-0.2 3.2962,0.42 3.2962,0.82 "
       id="polygon19" />
  </g>
  <a
     style="color:inherit"
     xlink:href="textedit:///Users/devonnuri/Documents/typst/241230%20Linear%20Harmony/lilypond/fig_229.ly:11:29:30"
     id="a21"
     transform="translate(-8.5358,-6.690724)">
    <g
       transform="translate(19.875,15.3411)"
       id="g21">
      <path
         transform="scale(0.004,-0.004)"
         d="M 0,-46 C 0,45 116,136 217,136 280,136 326,101 326,46 326,-41 216,-136 106,-136 39,-136 0,-97 0,-46 Z"
         fill="currentColor"
         id="path20" />
    </g>
  </a>
  <g
     transform="translate(12.5784,7.150376)"
     id="g22">
    <rect
       x="-0.064999998"
       y="-1.595"
       width="0.13"
       height="2.9087999"
       ry="0.039999999"
       fill="currentColor"
       id="rect21" />
  </g>
  <a
     style="color:inherit"
     xlink:href="textedit:///Users/devonnuri/Documents/typst/241230%20Linear%20Harmony/lilypond/fig_229.ly:11:31:32"
     id="a23"
     transform="translate(-8.5358,-6.690724)">
    <g
       transform="translate(22.6292,14.3411)"
       id="g23">
      <path
         transform="scale(0.004,-0.004)"
         d="M 0,-46 C 0,45 116,136 217,136 280,136 326,101 326,46 326,-41 216,-136 106,-136 39,-136 0,-97 0,-46 Z"
         fill="currentColor"
         id="path22" />
    </g>
  </a>
  <g
     transform="translate(15.3326,7.150376)"
     id="g24">
    <rect
       x="-0.064999998"
       y="-2.1763"
       width="0.13"
       height="2.4900999"
       ry="0.039999999"
       fill="currentColor"
       id="rect23" />
  </g>
  <a
     style="color:inherit"
     xlink:href="textedit:///Users/devonnuri/Documents/typst/241230%20Linear%20Harmony/lilypond/fig_229.ly:11:34:35"
     id="a25"
     transform="translate(-8.5358,-6.690724)">
    <g
       transform="translate(25.2231,13.3411)"
       id="g25">
      <path
         transform="scale(0.004,-0.004)"
         d="M 0,-46 C 0,45 116,136 217,136 280,136 326,101 326,46 326,-41 216,-136 106,-136 39,-136 0,-97 0,-46 Z"
         fill="currentColor"
         id="path24" />
    </g>
  </a>
  <g
     transform="translate(16.7523,7.150376)"
     id="g26">
    <rect
       x="-0.064999998"
       y="-0.31380001"
       width="0.13"
       height="2.5188999"
       ry="0.039999999"
       fill="currentColor"
       id="rect25" />
  </g>
  <a
     style="color:inherit"
     xlink:href="textedit:///Users/devonnuri/Documents/typst/241230%20Linear%20Harmony/lilypond/fig_229.ly:12:3:4"
     id="a29"
     transform="translate(-8.5358,-6.690724)">
    <g
       transform="translate(43.9205,17.4511)"
       id="g27">
      <line
         stroke-linejoin="round"
         stroke-linecap="round"
         stroke-width="0.2"
         stroke="currentColor"
         x1="20.349501"
         y1="0"
         x2="20.349501"
         y2="-1"
         id="line26" />
    </g>
    <g
       transform="translate(43.9205,17.4511)"
       id="g28">
      <line
         stroke-linejoin="round"
         stroke-linecap="round"
         stroke-width="0.2"
         stroke="currentColor"
         x1="0"
         y1="0"
         x2="0"
         y2="-1"
         id="line27" />
    </g>
    <g
       transform="translate(43.9205,17.4511)"
       id="g29">
      <line
         stroke-linejoin="round"
         stroke-linecap="round"
         stroke-width="0.2"
         stroke="currentColor"
         x1="0"
         y1="0"
         x2="20.349501"
         y2="0"
         id="line28" />
    </g>
  </a>
  <a
     style="color:inherit"
     xlink:href="textedit:///Users/devonnuri/Documents/typst/241230%20Linear%20Harmony/lilypond/fig_229.ly:11:36:37"
     id="a30"
     transform="translate(-8.5358,-6.690724)">
    <g
       transform="translate(28.5773,14.3411)"
       id="g30">
      <path
         transform="scale(0.004,-0.004)"
         d="M 0,-46 C 0,45 116,136 217,136 280,136 326,101 326,46 326,-41 216,-136 106,-136 39,-136 0,-97 0,-46 Z"
         fill="currentColor"
         id="path29" />
    </g>
  </a>
  <g
     transform="translate(20.1065,7.150376)"
     id="g31">
    <rect
       x="-0.064999998"
       y="0.68620002"
       width="0.13"
       height="2.2987001"
       ry="0.039999999"
       fill="currentColor"
       id="rect30" />
  </g>
  <g
     transform="translate(18.5915,7.650376)"
     id="g32">
    <path
       transform="scale(0.004,-0.004)"
       d="m 0,119 c 0,8 5,15 13,18 l 46,17 v 158 c 0,10 8,19 18,19 10,0 19,-9 19,-19 V 167 l 83,31 v 158 c 0,10 9,19 19,19 10,0 18,-9 18,-19 V 211 l 32,12 c 2,1 5,1 7,1 11,0 20,-9 20,-20 v -60 c 0,-8 -5,-16 -13,-19 L 216,109 V -51 l 32,11 c 2,1 5,1 7,1 11,0 20,-9 20,-20 v -60 c 0,-8 -5,-15 -13,-18 l -46,-17 v -158 c 0,-10 -8,-19 -18,-19 -10,0 -19,9 -19,19 v 145 l -83,-31 v -158 c 0,-10 -9,-19 -19,-19 -10,0 -18,9 -18,19 v 145 l -32,-12 c -2,-1 -5,-1 -7,-1 -11,0 -20,9 -20,20 v 60 c 0,8 5,16 13,19 l 46,16 V 51 L 27,40 C 25,39 22,39 20,39 9,39 0,48 0,59 Z M 179,95 96,65 V -95 l 83,30 z"
       fill="currentColor"
       id="path31" />
  </g>
  <a
     style="color:inherit"
     xlink:href="textedit:///Users/devonnuri/Documents/typst/241230%20Linear%20Harmony/lilypond/fig_229.ly:11:60:61"
     id="a33"
     transform="translate(-8.5358,-6.690724)">
    <g
       transform="translate(39.3957,13.8411)"
       id="g33">
      <path
         stroke-width="0.08"
         stroke-linejoin="round"
         stroke-linecap="round"
         stroke="currentColor"
         fill="currentColor"
         d="m 1.5042,-3 c 0.6254,-0.6808 2.1952,-0.6808 2.8205,0 v 0 C 3.6994,-3.5608 2.1296,-3.5608 1.5042,-3 Z"
         id="path32" />
    </g>
  </a>
  <a
     style="color:inherit"
     xlink:href="textedit:///Users/devonnuri/Documents/typst/241230%20Linear%20Harmony/lilypond/fig_229.ly:8:10:11"
     id="a35"
     transform="translate(-8.5358,-6.690724)">
    <g
       transform="translate(31.7834,8.8411)"
       id="g34">
      <text
         font-family="'Tex Gyre Termes'"
         font-size="2.3308px"
         text-anchor="start"
         fill="currentColor"
         id="text33"><tspan
           id="tspan33">G</tspan></text>
    </g>
    <g
       transform="translate(33.4565,7.7817)"
       id="g35">
      <text
         font-family="'Tex Gyre Termes'"
         font-size="1.648px"
         text-anchor="start"
         fill="currentColor"
         id="text34"><tspan
           id="tspan34">7</tspan></text>
    </g>
  </a>
  <a
     style="color:inherit"
     xlink:href="textedit:///Users/devonnuri/Documents/typst/241230%20Linear%20Harmony/lilypond/fig_229.ly:11:40:41"
     id="a36"
     transform="translate(-8.5358,-6.690724)">
    <g
       transform="translate(31.7834,13.8411)"
       id="g36">
      <path
         transform="scale(0.004,-0.004)"
         d="M 0,-46 C 0,45 116,136 217,136 280,136 326,101 326,46 326,-41 216,-136 106,-136 39,-136 0,-97 0,-46 Z"
         fill="currentColor"
         id="path35" />
    </g>
  </a>
  <g
     transform="translate(23.3126,7.150376)"
     id="g37">
    <rect
       x="-0.064999998"
       y="0.18619999"
       width="0.13"
       height="3.1888001"
       ry="0.039999999"
       fill="currentColor"
       id="rect36" />
  </g>
  <g
     transform="translate(23.3776,10.485376)"
     id="g38">
    <path
       transform="scale(0.004,-0.004)"
       d="M 0,0 H -16 V 375 H 0 Z m 224,509 c 0,94 -40,158 -40,168 0,14 11,22 23,22 7,0 15,-3 20,-11 25,-56 40,-117 40,-179 C 267,306 0,203 0,0 v 250 c 97,59 224,148 224,259 z"
       fill="currentColor"
       id="path37" />
  </g>
  <g
     transform="translate(16.6873,9.340376)"
     id="g39">
    <polygon
       stroke-linejoin="round"
       stroke-linecap="round"
       stroke-width="0.08"
       fill="currentColor"
       stroke="currentColor"
       points="0.04,0.2 0.04,-0.2 3.4442,0.61 3.4442,1.01 "
       id="polygon38" />
  </g>
  <a
     style="color:inherit"
     xlink:href="textedit:///Users/devonnuri/Documents/typst/241230%20Linear%20Harmony/lilypond/fig_229.ly:11:52:53"
     id="a40"
     transform="translate(-8.5358,-6.690724)">
    <g
       transform="translate(34.9896,10.8411)"
       id="g40">
      <path
         transform="scale(0.004,-0.004)"
         d="M 0,-46 C 0,45 116,136 217,136 280,136 326,101 326,46 326,-41 216,-136 106,-136 39,-136 0,-97 0,-46 Z"
         fill="currentColor"
         id="path39" />
    </g>
  </a>
  <g
     transform="translate(26.5188,7.150376)"
     id="g41">
    <rect
       x="-0.064999998"
       y="-2.8138001"
       width="0.13"
       height="3.3138001"
       ry="0.039999999"
       fill="currentColor"
       id="rect40" />
  </g>
  <g
     transform="translate(25.3038,4.150376)"
     id="g42">
    <path
       transform="scale(0.004,-0.004)"
       d="m 27,41 -1,-66 v -11 c 0,-22 1,-44 4,-66 45,38 93,80 93,139 0,33 -14,67 -43,67 C 49,104 28,74 27,41 Z m -42,-179 -12,595 c 8,5 18,8 27,8 9,0 19,-3 27,-8 L 20,112 c 25,21 58,34 91,34 52,0 89,-48 89,-102 0,-80 -86,-117 -147,-169 -15,-13 -24,-38 -45,-38 -13,0 -23,11 -23,25 z"
       fill="currentColor"
       id="path41" />
  </g>
  <g
     transform="translate(9.7592,6.150376)"
     id="g43">
    <polygon
       stroke-linejoin="round"
       stroke-linecap="round"
       stroke-width="0.08"
       fill="currentColor"
       stroke="currentColor"
       points="0.04,0.2 0.04,-0.2 5.5984,-1.39 5.5984,-0.99 "
       id="polygon42" />
  </g>
  <a
     style="color:inherit"
     xlink:href="textedit:///Users/devonnuri/Documents/typst/241230%20Linear%20Harmony/lilypond/fig_229.ly:11:58:59"
     id="a44"
     transform="translate(-8.5358,-6.690724)">
    <g
       transform="translate(39.3957,11.3411)"
       id="g44">
      <path
         transform="scale(0.004,-0.004)"
         d="M 0,-46 C 0,45 116,136 217,136 280,136 326,101 326,46 326,-41 216,-136 106,-136 39,-136 0,-97 0,-46 Z"
         fill="currentColor"
         id="path43" />
    </g>
  </a>
  <g
     transform="translate(30.9249,7.150376)"
     id="g45">
    <rect
       x="-0.064999998"
       y="-2.3138001"
       width="0.13"
       height="3.3138001"
       ry="0.039999999"
       fill="currentColor"
       id="rect44" />
  </g>
  <g
     transform="translate(30.9899,8.110376)"
     id="g46">
    <path
       transform="scale(0.004,-0.004)"
       d="M 0,0 H -16 V 375 H 0 Z m 224,509 c 0,94 -40,158 -40,168 0,14 11,22 23,22 7,0 15,-3 20,-11 25,-56 40,-117 40,-179 C 267,306 0,203 0,0 v 250 c 97,59 224,148 224,259 z"
       fill="currentColor"
       id="path45" />
  </g>
  <a
     style="color:inherit"
     xlink:href="textedit:///Users/devonnuri/Documents/typst/241230%20Linear%20Harmony/lilypond/fig_229.ly:11:17:18"
     id="a49"
     transform="translate(-8.5358,-6.690724)">
    <g
       transform="translate(17.1208,18.4461)"
       id="g47">
      <line
         stroke-linejoin="round"
         stroke-linecap="round"
         stroke-width="0.2"
         stroke="currentColor"
         x1="15.9668"
         y1="0"
         x2="15.9668"
         y2="-1"
         id="line46" />
    </g>
    <g
       transform="translate(17.1208,18.4461)"
       id="g48">
      <line
         stroke-linejoin="round"
         stroke-linecap="round"
         stroke-width="0.2"
         stroke="currentColor"
         x1="0"
         y1="0"
         x2="0"
         y2="-1"
         id="line47" />
    </g>
    <g
       transform="translate(17.1208,18.4461)"
       id="g49">
      <line
         stroke-linejoin="round"
         stroke-linecap="round"
         stroke-width="0.2"
         stroke="currentColor"
         x1="0"
         y1="0"
         x2="15.9668"
         y2="0"
         id="line48" />
    </g>
  </a>
  <a
     style="color:inherit"
     xlink:href="textedit:///Users/devonnuri/Documents/typst/241230%20Linear%20Harmony/lilypond/fig_229.ly:8:14:15"
     id="a52"
     transform="translate(-8.5358,-6.690724)">
    <g
       transform="translate(43.9205,8.8411)"
       id="g50">
      <text
         font-family="'Tex Gyre Termes'"
         font-size="2.3308px"
         text-anchor="start"
         fill="currentColor"
         id="text49"><tspan
           id="tspan49">C</tspan></text>
    </g>
    <g
       transform="translate(45.4911,8.8411)"
       id="g51">
      <text
         font-family="'Tex Gyre Termes'"
         font-size="2.3308px"
         text-anchor="start"
         fill="currentColor"
         id="text50"><tspan
           id="tspan50">m</tspan></text>
    </g>
    <g
       transform="translate(47.3007,7.7817)"
       id="g52">
      <text
         font-family="'Tex Gyre Termes'"
         font-size="1.648px"
         text-anchor="start"
         fill="currentColor"
         id="text51"><tspan
           id="tspan51">7</tspan></text>
    </g>
  </a>
  <a
     style="color:inherit"
     xlink:href="textedit:///Users/devonnuri/Documents/typst/241230%20Linear%20Harmony/lilypond/fig_229.ly:12:2:3"
     id="a53"
     transform="translate(-8.5358,-6.690724)">
    <g
       transform="translate(43.9205,11.3411)"
       id="g53">
      <path
         transform="scale(0.004,-0.004)"
         d="M 0,-46 C 0,45 116,136 217,136 280,136 326,101 326,46 326,-41 216,-136 106,-136 39,-136 0,-97 0,-46 Z"
         fill="currentColor"
         id="path52" />
    </g>
  </a>
  <g
     transform="translate(35.4497,7.150376)"
     id="g54">
    <rect
       x="-0.064999998"
       y="-2.3138001"
       width="0.13"
       height="3.5158999"
       ry="0.039999999"
       fill="currentColor"
       id="rect53" />
  </g>
  <a
     style="color:inherit"
     xlink:href="textedit:///Users/devonnuri/Documents/typst/241230%20Linear%20Harmony/lilypond/fig_229.ly:11:2:3"
     id="a55"
     transform="translate(-8.5358,-6.690724)">
    <g
       transform="translate(20.6704,11.4768)"
       id="g55">
      <text
         font-family="'Tex Gyre Termes'"
         font-style="italic"
         font-size="1.7459px"
         text-anchor="start"
         fill="currentColor"
         id="text54"><tspan
           id="tspan54">3</tspan></text>
    </g>
  </a>
  <a
     style="color:inherit"
     xlink:href="textedit:///Users/devonnuri/Documents/typst/241230%20Linear%20Harmony/lilypond/fig_229.ly:12:15:16"
     id="a56"
     transform="translate(-8.5358,-6.690724)">
    <g
       transform="translate(47.1266,12.3411)"
       id="g56">
      <path
         transform="scale(0.004,-0.004)"
         d="M 0,-46 C 0,45 116,136 217,136 280,136 326,101 326,46 326,-41 216,-136 106,-136 39,-136 0,-97 0,-46 Z"
         fill="currentColor"
         id="path55" />
    </g>
  </a>
  <g
     transform="translate(38.6558,7.150376)"
     id="g57">
    <rect
       x="-0.064999998"
       y="-1.3138"
       width="0.13"
       height="3.1117001"
       ry="0.039999999"
       fill="currentColor"
       id="rect56" />
  </g>
  <g
     transform="translate(37.4408,5.650376)"
     id="g58">
    <path
       transform="scale(0.004,-0.004)"
       d="m 27,41 -1,-66 v -11 c 0,-22 1,-44 4,-66 45,38 93,80 93,139 0,33 -14,67 -43,67 C 49,104 28,74 27,41 Z m -42,-179 -12,595 c 8,5 18,8 27,8 9,0 19,-3 27,-8 L 20,112 c 25,21 58,34 91,34 52,0 89,-48 89,-102 0,-80 -86,-117 -147,-169 -15,-13 -24,-38 -45,-38 -13,0 -23,11 -23,25 z"
       fill="currentColor"
       id="path57" />
  </g>
  <g
     transform="translate(55.6042,4.960376)"
     id="g59">
    <polygon
       stroke-linejoin="round"
       stroke-linecap="round"
       stroke-width="0.08"
       fill="currentColor"
       stroke="currentColor"
       points="0.04,0.2 0.04,-0.2 3.2962,-0.01 3.2962,0.39 "
       id="polygon58" />
  </g>
  <a
     style="color:inherit"
     xlink:href="textedit:///Users/devonnuri/Documents/typst/241230%20Linear%20Harmony/lilypond/fig_229.ly:12:18:19"
     id="a60"
     transform="translate(-8.5358,-6.690724)">
    <g
       transform="translate(50.2431,13.3411)"
       id="g60">
      <path
         transform="scale(0.004,-0.004)"
         d="M 0,-46 C 0,45 116,136 217,136 280,136 326,101 326,46 326,-41 216,-136 106,-136 39,-136 0,-97 0,-46 Z"
         fill="currentColor"
         id="path59" />
    </g>
  </a>
  <g
     transform="translate(42.9465,7.150376)"
     id="g61">
    <rect
       x="-0.064999998"
       y="-2.9828999"
       width="0.13"
       height="2.2967"
       ry="0.039999999"
       fill="currentColor"
       id="rect60" />
  </g>
  <a
     style="color:inherit"
     xlink:href="textedit:///Users/devonnuri/Documents/typst/241230%20Linear%20Harmony/lilypond/fig_229.ly:11:2:3"
     id="a61"
     transform="translate(-8.5358,-6.690724)" />
  <a
     style="color:inherit"
     xlink:href="textedit:///Users/devonnuri/Documents/typst/241230%20Linear%20Harmony/lilypond/fig_229.ly:12:20:21"
     id="a62"
     transform="translate(-8.5358,-6.690724)">
    <g
       transform="translate(53.1993,14.8411)"
       id="g62">
      <path
         transform="scale(0.004,-0.004)"
         d="M 0,-46 C 0,45 116,136 217,136 280,136 326,101 326,46 326,-41 216,-136 106,-136 39,-136 0,-97 0,-46 Z"
         fill="currentColor"
         id="path61" />
    </g>
  </a>
  <g
     transform="translate(45.9027,7.150376)"
     id="g63">
    <rect
       x="-0.064999998"
       y="-2.2070999"
       width="0.13"
       height="3.0209"
       ry="0.039999999"
       fill="currentColor"
       id="rect62" />
  </g>
  <a
     style="color:inherit"
     xlink:href="textedit:///Users/devonnuri/Documents/typst/241230%20Linear%20Harmony/lilypond/fig_229.ly:8:19:20"
     id="a65"
     transform="translate(-8.5358,-6.690724)">
    <g
       transform="translate(56.4054,8.8411)"
       id="g64">
      <text
         font-family="'Tex Gyre Termes'"
         font-size="2.3308px"
         text-anchor="start"
         fill="currentColor"
         id="text63"><tspan
           id="tspan63">F</tspan></text>
    </g>
    <g
       transform="translate(57.7029,7.7817)"
       id="g65">
      <text
         font-family="'Tex Gyre Termes'"
         font-size="1.648px"
         text-anchor="start"
         fill="currentColor"
         id="text64"><tspan
           id="tspan64">7</tspan></text>
    </g>
  </a>
  <a
     style="color:inherit"
     xlink:href="textedit:///Users/devonnuri/Documents/typst/241230%20Linear%20Harmony/lilypond/fig_229.ly:12:22:23"
     id="a66"
     transform="translate(-8.5358,-6.690724)">
    <g
       transform="translate(56.4054,13.8411)"
       id="g66">
      <path
         transform="scale(0.004,-0.004)"
         d="M 0,-46 C 0,45 116,136 217,136 280,136 326,101 326,46 326,-41 216,-136 106,-136 39,-136 0,-97 0,-46 Z"
         fill="currentColor"
         id="path65" />
    </g>
  </a>
  <g
     transform="translate(49.1088,7.150376)"
     id="g67">
    <rect
       x="-0.064999998"
       y="-2.7983999"
       width="0.13"
       height="2.6122"
       ry="0.039999999"
       fill="currentColor"
       id="rect66" />
  </g>
  <g
     transform="translate(46.7196,7.150376)"
     id="g68">
    <path
       transform="scale(0.004,-0.004)"
       d="m 27,41 -1,-66 v -11 c 0,-22 1,-44 4,-66 45,38 93,80 93,139 0,33 -14,67 -43,67 C 49,104 28,74 27,41 Z m -42,-179 -12,595 c 8,5 18,8 27,8 9,0 19,-3 27,-8 L 20,112 c 25,21 58,34 91,34 52,0 89,-48 89,-102 0,-80 -86,-117 -147,-169 -15,-13 -24,-38 -45,-38 -13,0 -23,11 -23,25 z"
       fill="currentColor"
       id="path67" />
  </g>
  <a
     style="color:inherit"
     xlink:href="textedit:///Users/devonnuri/Documents/typst/241230%20Linear%20Harmony/lilypond/fig_229.ly:12:26:27"
     id="a69"
     transform="translate(-8.5358,-6.690724)">
    <g
       transform="translate(59.7596,14.8411)"
       id="g69">
      <path
         transform="scale(0.004,-0.004)"
         d="M 0,-46 C 0,45 116,136 217,136 280,136 326,101 326,46 326,-41 216,-136 106,-136 39,-136 0,-97 0,-46 Z"
         fill="currentColor"
         id="path68" />
    </g>
  </a>
  <g
     transform="translate(52.463,7.150376)"
     id="g70">
    <rect
       x="-0.064999998"
       y="-2.2016001"
       width="0.13"
       height="3.0153999"
       ry="0.039999999"
       fill="currentColor"
       id="rect69" />
  </g>
  <g
     transform="translate(49.7738,8.150376)"
     id="g71">
    <path
       transform="scale(0.004,-0.004)"
       d="m 0,119 c 0,8 5,15 13,18 l 46,17 v 158 c 0,10 8,19 18,19 10,0 19,-9 19,-19 V 167 l 83,31 v 158 c 0,10 9,19 19,19 10,0 18,-9 18,-19 V 211 l 32,12 c 2,1 5,1 7,1 11,0 20,-9 20,-20 v -60 c 0,-8 -5,-16 -13,-19 L 216,109 V -51 l 32,11 c 2,1 5,1 7,1 11,0 20,-9 20,-20 v -60 c 0,-8 -5,-15 -13,-18 l -46,-17 v -158 c 0,-10 -8,-19 -18,-19 -10,0 -19,9 -19,19 v 145 l -83,-31 v -158 c 0,-10 -9,-19 -19,-19 -10,0 -18,9 -18,19 v 145 l -32,-12 c -2,-1 -5,-1 -7,-1 -11,0 -20,9 -20,20 v 60 c 0,8 5,16 13,19 l 46,16 V 51 L 27,40 C 25,39 22,39 20,39 9,39 0,48 0,59 Z M 179,95 96,65 V -95 l 83,30 z"
       fill="currentColor"
       id="path70" />
  </g>
  <a
     style="color:inherit"
     xlink:href="textedit:///Users/devonnuri/Documents/typst/241230%20Linear%20Harmony/lilypond/fig_229.ly:12:30:31"
     id="a72"
     transform="translate(-8.5358,-6.690724)">
    <g
       transform="translate(62.9658,14.3411)"
       id="g72">
      <path
         transform="scale(0.004,-0.004)"
         d="M 0,-46 C 0,45 116,136 217,136 280,136 326,101 326,46 326,-41 216,-136 106,-136 39,-136 0,-97 0,-46 Z"
         fill="currentColor"
         id="path71" />
    </g>
  </a>
  <g
     transform="translate(55.6692,7.150376)"
     id="g73">
    <rect
       x="-0.064999998"
       y="-2.1863"
       width="0.13"
       height="2.5000999"
       ry="0.039999999"
       fill="currentColor"
       id="rect72" />
  </g>
  <a
     style="color:inherit"
     xlink:href="textedit:///Users/devonnuri/Documents/typst/241230%20Linear%20Harmony/lilypond/fig_229.ly:12:42:43"
     id="a74"
     transform="translate(-8.5358,-6.690724)">
    <g
       transform="translate(66.1719,14.8411)"
       id="g74">
      <path
         transform="scale(0.004,-0.004)"
         d="M 0,-46 C 0,45 116,136 217,136 280,136 326,101 326,46 326,-41 216,-136 106,-136 39,-136 0,-97 0,-46 Z"
         fill="currentColor"
         id="path73" />
    </g>
  </a>
  <g
     transform="translate(58.8753,7.150376)"
     id="g75">
    <rect
       x="-0.064999998"
       y="-2.0037"
       width="0.13"
       height="2.8175001"
       ry="0.039999999"
       fill="currentColor"
       id="rect74" />
  </g>
  <g
     transform="translate(56.4861,8.150376)"
     id="g76">
    <path
       transform="scale(0.004,-0.004)"
       d="m 27,41 -1,-66 v -11 c 0,-22 1,-44 4,-66 45,38 93,80 93,139 0,33 -14,67 -43,67 C 49,104 28,74 27,41 Z m -42,-179 -12,595 c 8,5 18,8 27,8 9,0 19,-3 27,-8 L 20,112 c 25,21 58,34 91,34 52,0 89,-48 89,-102 0,-80 -86,-117 -147,-169 -15,-13 -24,-38 -45,-38 -13,0 -23,11 -23,25 z"
       fill="currentColor"
       id="path75" />
  </g>
  <a
     style="color:inherit"
     xlink:href="textedit:///Users/devonnuri/Documents/typst/241230%20Linear%20Harmony/lilypond/fig_229.ly:8:23:24"
     id="a78"
     transform="translate(-8.5358,-6.690724)">
    <g
       transform="translate(70.6691,8.8411)"
       id="g77">
      <text
         font-family="'Tex Gyre Termes'"
         font-size="2.3308px"
         text-anchor="start"
         fill="currentColor"
         id="text76"><tspan
           id="tspan76">B</tspan></text>
    </g>
    <g
       transform="translate(72.4569,8.558)"
       id="g78">
      <path
         transform="scale(0.0038,-0.0038)"
         d="m 29,39 -2,-64 v -11 c 0,-22 2,-43 5,-65 44,38 91,80 91,138 0,33 -13,66 -42,66 C 50,103 30,72 29,39 Z m -57,415 c 9,5 18,8 28,8 10,0 19,-3 28,-8 L 21,111 c 25,23 58,36 92,36 51,0 87,-49 87,-103 0,-79 -84,-117 -144,-169 -16,-14 -25,-41 -47,-41 -14,0 -25,13 -25,27 z"
         fill="currentColor"
         id="path77" />
    </g>
  </a>
  <a
     style="color:inherit"
     xlink:href="textedit:///Users/devonnuri/Documents/typst/241230%20Linear%20Harmony/lilypond/fig_229.ly:12:46:47"
     id="a79"
     transform="translate(-8.5358,-6.690724)">
    <g
       transform="translate(70.6691,15.3411)"
       id="g79">
      <path
         transform="scale(0.004,-0.004)"
         d="M 0,-46 C 0,45 116,136 217,136 280,136 326,101 326,46 326,-41 216,-136 106,-136 39,-136 0,-97 0,-46 Z"
         fill="currentColor"
         id="path78" />
    </g>
  </a>
  <g
     transform="translate(63.3725,7.150376)"
     id="g80">
    <rect
       x="-0.064999998"
       y="-2"
       width="0.13"
       height="3.3138001"
       ry="0.039999999"
       fill="currentColor"
       id="rect79" />
  </g>
  <a
     style="color:inherit"
     xlink:href="textedit:///Users/devonnuri/Documents/typst/241230%20Linear%20Harmony/lilypond/fig_229.ly:12:49:50"
     id="a81"
     transform="translate(-8.5358,-6.690724)">
    <g
       transform="translate(75.0752,13.8411)"
       id="g81">
      <path
         transform="scale(0.004,-0.004)"
         d="m -6,78 c 0,59 124,83 124,182 0,24 -8,49 -25,69 l -35,42 c -3,3 -4,7 -4,10 0,9 9,15 17,15 4,0 8,-1 11,-5 L 233,211 c 7,-9 10,-17 10,-25 0,-59 -124,-83 -124,-182 0,-24 7,-49 24,-69 l 84,-99 c 3,-3 4,-7 4,-10 0,-9 -8,-16 -16,-16 -8,0 -45,44 -109,44 -16,0 -53,0 -53,-67 0,-62 30,-97 30,-100 0,-4 -4,-7 -8,-7 -13,0 -98,130 -98,204 0,41 27,42 40,42 33,0 78,-13 119,-31 L 4,53 C -3,62 -6,70 -6,78 Z"
         fill="currentColor"
         id="path80" />
    </g>
  </a>
  <a
     style="color:inherit"
     xlink:href="textedit:///Users/devonnuri/Documents/typst/241230%20Linear%20Harmony/lilypond/fig_229.ly:12:51:52"
     id="a82"
     transform="translate(-8.5358,-6.690724)">
    <g
       transform="translate(79.1272,13.8411)"
       id="g82">
      <path
         transform="scale(0.004,-0.004)"
         d="M 365,0 H 10 C 4,0 0,4 0,10 v 136 c 0,6 4,10 10,10 h 355 c 6,0 10,-4 10,-10 V 10 C 375,4 371,0 365,0 Z"
         fill="currentColor"
         id="path81" />
    </g>
  </a>
</svg>
