<?xml version="1.0" encoding="UTF-8" standalone="no"?>
<svg
   version="1.2"
   width="103.01127mm"
   height="18.786184mm"
   viewBox="0 0 58.619102 10.690376"
   id="svg55"
   sodipodi:docname="fig_143.svg"
   xmlns:inkscape="http://www.inkscape.org/namespaces/inkscape"
   xmlns:sodipodi="http://sodipodi.sourceforge.net/DTD/sodipodi-0.dtd"
   xmlns:xlink="http://www.w3.org/1999/xlink"
   xmlns="http://www.w3.org/2000/svg"
   xmlns:svg="http://www.w3.org/2000/svg">
  <defs
     id="defs55" />
  <sodipodi:namedview
     id="namedview55"
     pagecolor="#505050"
     bordercolor="#eeeeee"
     borderopacity="1"
     inkscape:showpageshadow="0"
     inkscape:pageopacity="0"
     inkscape:pagecheckerboard="0"
     inkscape:deskcolor="#505050"
     inkscape:document-units="mm" />
  <style
     type="text/css"
     id="style1"><![CDATA[
tspan { white-space: pre; }
]]></style>
  <g
     transform="translate(58.4291,7.150376)"
     id="g1">
    <rect
       x="0"
       y="-2"
       width="0.19"
       height="4"
       ry="0.0000"
       fill="currentColor"
       id="rect1" />
  </g>
  <g
     transform="translate(57.9391,7.150376)"
     id="g2">
    <rect
       x="0"
       y="-2"
       width="0.19"
       height="4"
       ry="0.0000"
       fill="currentColor"
       id="rect2" />
  </g>
  <g
     transform="translate(0,9.150376)"
     id="g3">
    <line
       stroke-linejoin="round"
       stroke-linecap="round"
       stroke-width="0.1"
       stroke="currentColor"
       x1="0.050000001"
       y1="0"
       x2="58.569099"
       y2="0"
       id="line2" />
  </g>
  <g
     transform="translate(0,8.150376)"
     id="g4">
    <line
       stroke-linejoin="round"
       stroke-linecap="round"
       stroke-width="0.1"
       stroke="currentColor"
       x1="0.050000001"
       y1="0"
       x2="58.569099"
       y2="0"
       id="line3" />
  </g>
  <g
     transform="translate(0,7.150376)"
     id="g5">
    <line
       stroke-linejoin="round"
       stroke-linecap="round"
       stroke-width="0.1"
       stroke="currentColor"
       x1="0.050000001"
       y1="0"
       x2="58.569099"
       y2="0"
       id="line4" />
  </g>
  <g
     transform="translate(0,6.150376)"
     id="g6">
    <line
       stroke-linejoin="round"
       stroke-linecap="round"
       stroke-width="0.1"
       stroke="currentColor"
       x1="0.050000001"
       y1="0"
       x2="58.569099"
       y2="0"
       id="line5" />
  </g>
  <g
     transform="translate(0,5.150376)"
     id="g7">
    <line
       stroke-linejoin="round"
       stroke-linecap="round"
       stroke-width="0.1"
       stroke="currentColor"
       x1="0.050000001"
       y1="0"
       x2="58.569099"
       y2="0"
       id="line6" />
  </g>
  <g
     transform="translate(49.0871,7.150376)"
     id="g8">
    <rect
       x="0"
       y="-2"
       width="0.19"
       height="4"
       ry="0.0000"
       fill="currentColor"
       id="rect7" />
  </g>
  <g
     transform="translate(27.2187,7.150376)"
     id="g9">
    <rect
       x="0"
       y="-2"
       width="0.19"
       height="4"
       ry="0.0000"
       fill="currentColor"
       id="rect8" />
  </g>
  <g
     transform="translate(39.3245,5.340376)"
     id="g10">
    <polygon
       stroke-linejoin="round"
       stroke-linecap="round"
       stroke-width="0.08"
       fill="currentColor"
       stroke="currentColor"
       points="0.04,0.2 0.04,-0.2 3.2642,0.42 3.2642,0.82 "
       id="polygon9" />
  </g>
  <g
     transform="translate(22.5849,4.340376)"
     id="g11">
    <polygon
       stroke-linejoin="round"
       stroke-linecap="round"
       stroke-width="0.08"
       fill="currentColor"
       stroke="currentColor"
       points="0.04,0.2 0.04,-0.2 3.2642,-0.89 3.2642,-0.49 "
       id="polygon10" />
  </g>
  <a
     style="color:inherit"
     xlink:href="textedit:///Users/devonnuri/Documents/typst/241230%20Linear%20Harmony/lilypond/fig_143.ly:7:4:5"
     id="a14"
     transform="translate(-8.5358,-6.690724)">
    <g
       transform="translate(17.6908,8.8411)"
       id="g12">
      <text
         font-family="'Tex Gyre Termes'"
         font-size="2.3308px"
         text-anchor="start"
         fill="currentColor"
         id="text11"><tspan
           id="tspan11">C</tspan></text>
    </g>
    <g
       transform="translate(19.2614,8.8411)"
       id="g13">
      <text
         font-family="'Tex Gyre Termes'"
         font-size="2.3308px"
         text-anchor="start"
         fill="currentColor"
         id="text12"><tspan
           id="tspan12">m</tspan></text>
    </g>
    <g
       transform="translate(21.071,7.7817)"
       id="g14">
      <text
         font-family="'Tex Gyre Termes'"
         font-size="1.648px"
         text-anchor="start"
         fill="currentColor"
         id="text13"><tspan
           id="tspan13">7</tspan></text>
    </g>
  </a>
  <a
     style="color:inherit"
     xlink:href="textedit:///Users/devonnuri/Documents/typst/241230%20Linear%20Harmony/lilypond/fig_143.ly:10:4:5"
     id="a15"
     transform="translate(-8.5358,-6.690724)">
    <g
       transform="translate(17.6908,12.3411)"
       id="g15">
      <path
         transform="scale(0.004,-0.004)"
         d="M 0,-46 C 0,45 116,136 217,136 280,136 326,101 326,46 326,-41 216,-136 106,-136 39,-136 0,-97 0,-46 Z"
         fill="currentColor"
         id="path14" />
    </g>
  </a>
  <g
     transform="translate(0.8,8.150376)"
     id="g16">
    <path
       transform="scale(0.004,-0.004)"
       d="m 266,-635 h -6 c -108,0 -195,88 -195,197 0,58 53,103 112,103 54,0 95,-47 95,-103 0,-52 -43,-95 -95,-95 -11,0 -21,2 -31,6 26,-39 68,-65 117,-65 h 4 z m 135,786 c 19,-89 48,-242 60,-354 76,27 112,94 112,163 0,89 -60,179 -172,191 z M 74,28 c 0,-112 98,-247 278,-247 21,0 44,2 68,6 -7,64 -29,203 -63,364 -79,-8 -124,-61 -124,-119 0,-44 25,-91 81,-123 5,-5 7,-10 7,-15 0,-11 -10,-22 -22,-22 -15,0 -126,62 -126,187 0,88 58,174 160,197 -14,58 -29,117 -46,175 C 180,310 74,188 74,28 Z m 283,1166 c 28,0 143,-206 143,-361 0,-143 -86,-255 -180,-364 21,-68 39,-138 56,-207 5,0 10,1 14,1 155,0 255,-129 255,-262 0,-113 -74,-212 -180,-245 3,-35 5,-70 5,-105 0,-19 -1,-39 -2,-58 -7,-119 -88,-225 -202,-228 l 1,43 c 93,2 153,92 159,191 1,18 2,37 2,55 0,31 -1,61 -4,92 -28,-5 -55,-8 -80,-8 -239,0 -342,217 -342,374 0,177 131,306 248,441 -29,96 -52,170 -52,346 0,189 144,295 159,295 z M 247,782 c 0,-55 12,-115 35,-190 83,100 147,202 147,326 0,40 -6,82 -21,127 -49,-24 -161,-97 -161,-263 z"
       fill="currentColor"
       id="path15" />
  </g>
  <g
     transform="translate(4.885,7.150376)"
     id="g17">
    <path
       transform="scale(0.004,-0.004)"
       d="M 433,-89 C 433,-111 383,-263 250,-263 191,-263 0,-244 0,0 0,62 18,262 250,262 366,262 426,156 426,99 426,59 396,27 359,27 c -31,0 -75,25 -75,75 0,38 27,77 72,77 4,0 9,0 14,-1 -28,37 -72,59 -120,59 C 144,237 137,164 137,51 V 0 -51 c 0,-113 7,-187 113,-187 80,0 139,70 158,151 2,7 7,10 12,10 6,0 13,-4 13,-12 z"
       fill="currentColor"
       id="path16" />
  </g>
  <g
     transform="translate(9.22,7.150376)"
     id="g18">
    <rect
       x="-0.064999998"
       y="-1.3138"
       width="0.13"
       height="3.3138001"
       ry="0.039999999"
       fill="currentColor"
       id="rect17" />
  </g>
  <g
     transform="translate(8.005,5.650376)"
     id="g19">
    <path
       transform="scale(0.004,-0.004)"
       d="m 27,41 -1,-66 v -11 c 0,-22 1,-44 4,-66 45,38 93,80 93,139 0,33 -14,67 -43,67 C 49,104 28,74 27,41 Z m -42,-179 -12,595 c 8,5 18,8 27,8 9,0 19,-3 27,-8 L 20,112 c 25,21 58,34 91,34 52,0 89,-48 89,-102 0,-80 -86,-117 -147,-169 -15,-13 -24,-38 -45,-38 -13,0 -23,11 -23,25 z"
       fill="currentColor"
       id="path18" />
  </g>
  <g
     transform="translate(12.6092,9.960376)"
     id="g20">
    <polygon
       stroke-linejoin="round"
       stroke-linecap="round"
       stroke-width="0.08"
       fill="currentColor"
       stroke="currentColor"
       points="0.04,0.2 0.04,-0.2 2.8442,-0.82 2.8442,-0.42 "
       id="polygon19" />
  </g>
  <a
     style="color:inherit"
     xlink:href="textedit:///Users/devonnuri/Documents/typst/241230%20Linear%20Harmony/lilypond/fig_143.ly:10:9:10"
     id="a21"
     transform="translate(-8.5358,-6.690724)">
    <g
       transform="translate(21.145,13.8411)"
       id="g21">
      <path
         transform="scale(0.004,-0.004)"
         d="M 0,-46 C 0,45 116,136 217,136 280,136 326,101 326,46 326,-41 216,-136 106,-136 39,-136 0,-97 0,-46 Z"
         fill="currentColor"
         id="path20" />
    </g>
  </a>
  <g
     transform="translate(12.6742,7.150376)"
     id="g22">
    <rect
       x="-0.064999998"
       y="0.18619999"
       width="0.13"
       height="2.6098001"
       ry="0.039999999"
       fill="currentColor"
       id="rect21" />
  </g>
  <a
     style="color:inherit"
     xlink:href="textedit:///Users/devonnuri/Documents/typst/241230%20Linear%20Harmony/lilypond/fig_143.ly:10:12:13"
     id="a23"
     transform="translate(-8.5358,-6.690724)">
    <g
       transform="translate(23.8992,12.8411)"
       id="g23">
      <path
         transform="scale(0.004,-0.004)"
         d="M 0,-46 C 0,45 116,136 217,136 280,136 326,101 326,46 326,-41 216,-136 106,-136 39,-136 0,-97 0,-46 Z"
         fill="currentColor"
         id="path22" />
    </g>
  </a>
  <g
     transform="translate(15.4284,7.150376)"
     id="g24">
    <rect
       x="-0.064999998"
       y="-0.81379998"
       width="0.13"
       height="3.0178001"
       ry="0.039999999"
       fill="currentColor"
       id="rect23" />
  </g>
  <a
     style="color:inherit"
     xlink:href="textedit:///Users/devonnuri/Documents/typst/241230%20Linear%20Harmony/lilypond/fig_143.ly:10:14:15"
     id="a25"
     transform="translate(-8.5358,-6.690724)">
    <g
       transform="translate(26.4034,13.3411)"
       id="g25">
      <path
         transform="scale(0.004,-0.004)"
         d="M 0,-46 C 0,45 116,136 217,136 280,136 326,101 326,46 326,-41 216,-136 106,-136 39,-136 0,-97 0,-46 Z"
         fill="currentColor"
         id="path24" />
    </g>
  </a>
  <g
     transform="translate(17.9326,7.150376)"
     id="g26">
    <rect
       x="-0.064999998"
       y="-0.31380001"
       width="0.13"
       height="3.3138001"
       ry="0.039999999"
       fill="currentColor"
       id="rect25" />
  </g>
  <a
     style="color:inherit"
     xlink:href="textedit:///Users/devonnuri/Documents/typst/241230%20Linear%20Harmony/lilypond/fig_143.ly:10:17:18"
     id="a27"
     transform="translate(-8.5358,-6.690724)">
    <g
       transform="translate(29.9465,14.8411)"
       id="g27">
      <path
         transform="scale(0.004,-0.004)"
         d="M 0,-46 C 0,45 116,136 217,136 280,136 326,101 326,46 326,-41 216,-136 106,-136 39,-136 0,-97 0,-46 Z"
         fill="currentColor"
         id="path26" />
    </g>
  </a>
  <g
     transform="translate(22.6499,7.150376)"
     id="g28">
    <rect
       x="-0.064999998"
       y="-2.8236001"
       width="0.13"
       height="3.6373999"
       ry="0.039999999"
       fill="currentColor"
       id="rect27" />
  </g>
  <a
     style="color:inherit"
     xlink:href="textedit:///Users/devonnuri/Documents/typst/241230%20Linear%20Harmony/lilypond/fig_143.ly:10:20:21"
     id="a29"
     transform="translate(-8.5358,-6.690724)">
    <g
       transform="translate(33.1207,13.8411)"
       id="g29">
      <path
         transform="scale(0.004,-0.004)"
         d="M 0,-46 C 0,45 116,136 217,136 280,136 326,101 326,46 326,-41 216,-136 106,-136 39,-136 0,-97 0,-46 Z"
         fill="currentColor"
         id="path28" />
    </g>
  </a>
  <g
     transform="translate(25.8241,7.150376)"
     id="g30">
    <rect
       x="-0.064999998"
       y="-3.4863999"
       width="0.13"
       height="3.3002"
       ry="0.039999999"
       fill="currentColor"
       id="rect29" />
  </g>
  <g
     transform="translate(23.4349,7.150376)"
     id="g31">
    <path
       transform="scale(0.004,-0.004)"
       d="m 27,41 -1,-66 v -11 c 0,-22 1,-44 4,-66 45,38 93,80 93,139 0,33 -14,67 -43,67 C 49,104 28,74 27,41 Z m -42,-179 -12,595 c 8,5 18,8 27,8 9,0 19,-3 27,-8 L 20,112 c 25,21 58,34 91,34 52,0 89,-48 89,-102 0,-80 -86,-117 -147,-169 -15,-13 -24,-38 -45,-38 -13,0 -23,11 -23,25 z"
       fill="currentColor"
       id="path30" />
  </g>
  <a
     style="color:inherit"
     xlink:href="textedit:///Users/devonnuri/Documents/typst/241230%20Linear%20Harmony/lilypond/fig_143.ly:7:10:11"
     id="a33"
     transform="translate(-8.5358,-6.690724)">
    <g
       transform="translate(36.8445,8.8411)"
       id="g32">
      <text
         font-family="'Tex Gyre Termes'"
         font-size="2.3308px"
         text-anchor="start"
         fill="currentColor"
         id="text31"><tspan
           id="tspan31">F</tspan></text>
    </g>
    <g
       transform="translate(38.1419,7.7817)"
       id="g33">
      <text
         font-family="'Tex Gyre Termes'"
         font-size="1.648px"
         text-anchor="start"
         fill="currentColor"
         id="text32"><tspan
           id="tspan32">7</tspan></text>
    </g>
  </a>
  <a
     style="color:inherit"
     xlink:href="textedit:///Users/devonnuri/Documents/typst/241230%20Linear%20Harmony/lilypond/fig_143.ly:10:24:25"
     id="a34"
     transform="translate(-8.5358,-6.690724)">
    <g
       transform="translate(36.8445,14.3411)"
       id="g34">
      <path
         transform="scale(0.004,-0.004)"
         d="M 0,-46 C 0,45 116,136 217,136 280,136 326,101 326,46 326,-41 216,-136 106,-136 39,-136 0,-97 0,-46 Z"
         fill="currentColor"
         id="path33" />
    </g>
  </a>
  <g
     transform="translate(29.5479,7.150376)"
     id="g35">
    <rect
       x="-0.064999998"
       y="-3"
       width="0.13"
       height="3.3138001"
       ry="0.039999999"
       fill="currentColor"
       id="rect34" />
  </g>
  <g
     transform="translate(45.0029,5.960376)"
     id="g36">
    <polygon
       stroke-linejoin="round"
       stroke-linecap="round"
       stroke-width="0.08"
       fill="currentColor"
       stroke="currentColor"
       points="0.04,0.2 0.04,-0.2 2.5942,-0.01 2.5942,0.39 "
       id="polygon35" />
  </g>
  <a
     style="color:inherit"
     xlink:href="textedit:///Users/devonnuri/Documents/typst/241230%20Linear%20Harmony/lilypond/fig_143.ly:10:27:28"
     id="a37"
     transform="translate(-8.5358,-6.690724)">
    <g
       transform="translate(40.5487,13.8411)"
       id="g37">
      <path
         transform="scale(0.004,-0.004)"
         d="m 70,205 c 79,0 46,-98 91,-98 16,0 54,48 61,63 3,6 8,9 14,9 6,0 12,-3 14,-9 L 127,-250 c -8,-7 -17,-10 -27,-10 -10,0 -20,3 -28,10 L 189,76 C 155,64 120,54 84,54 26,54 -1,95 -1,134 c 0,36 24,71 71,71 z"
         fill="currentColor"
         id="path36" />
    </g>
  </a>
  <a
     style="color:inherit"
     xlink:href="textedit:///Users/devonnuri/Documents/typst/241230%20Linear%20Harmony/lilypond/fig_143.ly:10:30:31"
     id="a38"
     transform="translate(-8.5358,-6.690724)">
    <g
       transform="translate(42.7487,15.3411)"
       id="g38">
      <path
         transform="scale(0.004,-0.004)"
         d="M 0,-46 C 0,45 116,136 217,136 280,136 326,101 326,46 326,-41 216,-136 106,-136 39,-136 0,-97 0,-46 Z"
         fill="currentColor"
         id="path37" />
    </g>
  </a>
  <g
     transform="translate(35.4521,7.150376)"
     id="g39">
    <rect
       x="-0.064999998"
       y="-2"
       width="0.13"
       height="3.3138001"
       ry="0.039999999"
       fill="currentColor"
       id="rect38" />
  </g>
  <g
     transform="translate(35.5171,5.190376)"
     id="g40">
    <path
       transform="scale(0.004,-0.004)"
       d="M 0,0 V -375 H -16 V 0 Z m 123,-729 c 0,10 42,87 42,196 0,103 -94,208 -165,283 V 0 c 0,-197 207,-336 207,-533 0,-71 -15,-141 -41,-207 -5,-8 -13,-12 -20,-12 -12,0 -23,9 -23,23 z"
       fill="currentColor"
       id="path39" />
  </g>
  <a
     style="color:inherit"
     xlink:href="textedit:///Users/devonnuri/Documents/typst/241230%20Linear%20Harmony/lilypond/fig_143.ly:10:32:33"
     id="a41"
     transform="translate(-8.5358,-6.690724)">
    <g
       transform="translate(46.6861,14.8411)"
       id="g41">
      <path
         transform="scale(0.004,-0.004)"
         d="M 0,-46 C 0,45 116,136 217,136 280,136 326,101 326,46 326,-41 216,-136 106,-136 39,-136 0,-97 0,-46 Z"
         fill="currentColor"
         id="path40" />
    </g>
  </a>
  <g
     transform="translate(39.3895,7.150376)"
     id="g42">
    <rect
       x="-0.064999998"
       y="-1.7977999"
       width="0.13"
       height="2.6115999"
       ry="0.039999999"
       fill="currentColor"
       id="rect41" />
  </g>
  <g
     transform="translate(37.0003,8.150376)"
     id="g43">
    <path
       transform="scale(0.004,-0.004)"
       d="m 27,41 -1,-66 v -11 c 0,-22 1,-44 4,-66 45,38 93,80 93,139 0,33 -14,67 -43,67 C 49,104 28,74 27,41 Z m -42,-179 -12,595 c 8,5 18,8 27,8 9,0 19,-3 27,-8 L 20,112 c 25,21 58,34 91,34 52,0 89,-48 89,-102 0,-80 -86,-117 -147,-169 -15,-13 -24,-38 -45,-38 -13,0 -23,11 -23,25 z"
       fill="currentColor"
       id="path42" />
  </g>
  <a
     style="color:inherit"
     xlink:href="textedit:///Users/devonnuri/Documents/typst/241230%20Linear%20Harmony/lilypond/fig_143.ly:10:36:37"
     id="a44"
     transform="translate(-8.5358,-6.690724)">
    <g
       transform="translate(49.8603,15.8411)"
       id="g44">
      <path
         transform="scale(0.004,-0.004)"
         d="M 0,-46 C 0,45 116,136 217,136 280,136 326,101 326,46 326,-41 216,-136 106,-136 39,-136 0,-97 0,-46 Z"
         fill="currentColor"
         id="path43" />
    </g>
  </a>
  <g
     transform="translate(42.5637,7.150376)"
     id="g45">
    <rect
       x="-0.064999998"
       y="-1.2022001"
       width="0.13"
       height="3.016"
       ry="0.039999999"
       fill="currentColor"
       id="rect44" />
  </g>
  <g
     transform="translate(40.1745,9.150376)"
     id="g46">
    <path
       transform="scale(0.004,-0.004)"
       d="m 27,41 -1,-66 v -11 c 0,-22 1,-44 4,-66 45,38 93,80 93,139 0,33 -14,67 -43,67 C 49,104 28,74 27,41 Z m -42,-179 -12,595 c 8,5 18,8 27,8 9,0 19,-3 27,-8 L 20,112 c 25,21 58,34 91,34 52,0 89,-48 89,-102 0,-80 -86,-117 -147,-169 -15,-13 -24,-38 -45,-38 -13,0 -23,11 -23,25 z"
       fill="currentColor"
       id="path45" />
  </g>
  <a
     style="color:inherit"
     xlink:href="textedit:///Users/devonnuri/Documents/typst/241230%20Linear%20Harmony/lilypond/fig_143.ly:10:39:40"
     id="a47"
     transform="translate(-8.5358,-6.690724)">
    <g
       transform="translate(52.3645,15.3411)"
       id="g47">
      <path
         transform="scale(0.004,-0.004)"
         d="M 0,-46 C 0,45 116,136 217,136 280,136 326,101 326,46 326,-41 216,-136 106,-136 39,-136 0,-97 0,-46 Z"
         fill="currentColor"
         id="path46" />
    </g>
  </a>
  <g
     transform="translate(45.0679,7.150376)"
     id="g48">
    <rect
       x="-0.064999998"
       y="-1.1853"
       width="0.13"
       height="2.4991"
       ry="0.039999999"
       fill="currentColor"
       id="rect47" />
  </g>
  <a
     style="color:inherit"
     xlink:href="textedit:///Users/devonnuri/Documents/typst/241230%20Linear%20Harmony/lilypond/fig_143.ly:10:41:42"
     id="a49"
     transform="translate(-8.5358,-6.690724)">
    <g
       transform="translate(54.8687,15.8411)"
       id="g49">
      <path
         transform="scale(0.004,-0.004)"
         d="M 0,-46 C 0,45 116,136 217,136 280,136 326,101 326,46 326,-41 216,-136 106,-136 39,-136 0,-97 0,-46 Z"
         fill="currentColor"
         id="path48" />
    </g>
  </a>
  <g
     transform="translate(47.5721,7.150376)"
     id="g50">
    <rect
       x="-0.064999998"
       y="-1.0046999"
       width="0.13"
       height="2.8185"
       ry="0.039999999"
       fill="currentColor"
       id="rect49" />
  </g>
  <a
     style="color:inherit"
     xlink:href="textedit:///Users/devonnuri/Documents/typst/241230%20Linear%20Harmony/lilypond/fig_143.ly:7:14:15"
     id="a54"
     transform="translate(-8.5358,-6.690724)">
    <g
       transform="translate(59.7129,8.8411)"
       id="g51">
      <text
         font-family="'Tex Gyre Termes'"
         font-size="2.3308px"
         text-anchor="start"
         fill="currentColor"
         id="text50"><tspan
           id="tspan50">B</tspan></text>
    </g>
    <g
       transform="translate(61.5007,8.558)"
       id="g52">
      <path
         transform="scale(0.0038,-0.0038)"
         d="m 29,39 -2,-64 v -11 c 0,-22 2,-43 5,-65 44,38 91,80 91,138 0,33 -13,66 -42,66 C 50,103 30,72 29,39 Z m -57,415 c 9,5 18,8 28,8 10,0 19,-3 28,-8 L 21,111 c 25,23 58,36 92,36 51,0 87,-49 87,-103 0,-79 -84,-117 -144,-169 -16,-14 -25,-41 -47,-41 -14,0 -25,13 -25,27 z"
         fill="currentColor"
         id="path51" />
    </g>
    <g
       transform="translate(62.3058,7.7817)"
       id="g53">
      <polygon
         stroke-linejoin="round"
         stroke-linecap="round"
         stroke-width="0.1"
         fill="none"
         stroke="currentColor"
         points="0,0 0.4768,-0.82 0.9535,0 "
         id="polygon52" />
    </g>
    <g
       transform="translate(63.3093,7.7817)"
       id="g54">
      <text
         font-family="'Tex Gyre Termes'"
         font-size="1.648px"
         text-anchor="start"
         fill="currentColor"
         id="text53"><tspan
           id="tspan53">7</tspan></text>
    </g>
  </a>
  <a
     style="color:inherit"
     xlink:href="textedit:///Users/devonnuri/Documents/typst/241230%20Linear%20Harmony/lilypond/fig_143.ly:10:44:45"
     id="a55"
     transform="translate(-8.5358,-6.690724)">
    <g
       transform="translate(59.7129,16.3411)"
       id="g55">
      <path
         transform="scale(0.004,-0.004)"
         d="m 347,-26 c 0,102 -89,139 -133,139 -23,0 -70,-10 -70,-89 0,-91 76,-136 132,-136 22,0 71,8 71,86 z M 245,136 C 389,136 491,71 491,0 491,-71 389,-136 245,-136 101,-136 0,-71 0,0 0,71 101,136 245,136 Z"
         fill="currentColor"
         id="path54" />
    </g>
  </a>
</svg>
