<?xml version="1.0" encoding="UTF-8" standalone="no"?>
<svg
   version="1.2"
   width="177.61176mm"
   height="20.238216mm"
   viewBox="0 0 101.0709 11.516663"
   id="svg124"
   sodipodi:docname="fig_388.svg"
   xmlns:inkscape="http://www.inkscape.org/namespaces/inkscape"
   xmlns:sodipodi="http://sodipodi.sourceforge.net/DTD/sodipodi-0.dtd"
   xmlns="http://www.w3.org/2000/svg"
   xmlns:svg="http://www.w3.org/2000/svg">
  <defs
     id="defs124" />
  <sodipodi:namedview
     id="namedview124"
     pagecolor="#505050"
     bordercolor="#eeeeee"
     borderopacity="1"
     inkscape:showpageshadow="0"
     inkscape:pageopacity="0"
     inkscape:pagecheckerboard="0"
     inkscape:deskcolor="#505050"
     inkscape:document-units="mm" />
  <style
     type="text/css"
     id="style1"><![CDATA[
tspan { white-space: pre; }
]]></style>
  <g
     transform="translate(99.2309,6.1688528)"
     id="g1">
    <path
       transform="scale(0.004,-0.004)"
       d="M 0,0 C 0,31 25,56 56,56 87,56 112,31 112,0 112,-31 87,-56 56,-56 25,-56 0,-31 0,0 Z"
       fill="currentColor"
       id="path1" />
  </g>
  <g
     transform="translate(99.2309,7.1688528)"
     id="g2">
    <path
       transform="scale(0.004,-0.004)"
       d="M 0,0 C 0,31 25,56 56,56 87,56 112,31 112,0 112,-31 87,-56 56,-56 25,-56 0,-31 0,0 Z"
       fill="currentColor"
       id="path2" />
  </g>
  <g
     transform="translate(100.4709,6.6688528)"
     id="g3">
    <rect
       x="0"
       y="-2"
       width="0.60000002"
       height="4"
       ry="0.0000"
       fill="currentColor"
       id="rect2" />
  </g>
  <g
     transform="translate(99.9809,6.6688528)"
     id="g4">
    <rect
       x="0"
       y="-2"
       width="0.19"
       height="4"
       ry="0.0000"
       fill="currentColor"
       id="rect3" />
  </g>
  <g
     transform="translate(0,9.6688528)"
     id="g5">
    <rect
       x="63.707802"
       y="-0.1"
       width="1.9563"
       height="0.2"
       ry="0.1"
       fill="currentColor"
       id="rect4" />
  </g>
  <g
     transform="translate(0,9.6688528)"
     id="g6">
    <rect
       x="61.203602"
       y="-0.1"
       width="1.9563"
       height="0.2"
       ry="0.1"
       fill="currentColor"
       id="rect5" />
  </g>
  <g
     transform="translate(0,9.6688528)"
     id="g7">
    <rect
       x="58.699402"
       y="-0.1"
       width="1.9563"
       height="0.2"
       ry="0.1"
       fill="currentColor"
       id="rect6" />
  </g>
  <g
     transform="translate(0,9.6688528)"
     id="g8">
    <rect
       x="40.548901"
       y="-0.1"
       width="1.9563"
       height="0.2"
       ry="0.1"
       fill="currentColor"
       id="rect7" />
  </g>
  <g
     transform="translate(0,9.6688528)"
     id="g9">
    <rect
       x="38.044701"
       y="-0.1"
       width="1.9563"
       height="0.2"
       ry="0.1"
       fill="currentColor"
       id="rect8" />
  </g>
  <g
     transform="translate(0,9.6688528)"
     id="g10">
    <rect
       x="18.7768"
       y="-0.1"
       width="1.8052"
       height="0.2"
       ry="0.1"
       fill="currentColor"
       id="rect9" />
  </g>
  <g
     transform="translate(0,8.6688528)"
     id="g11">
    <line
       stroke-linejoin="round"
       stroke-linecap="round"
       stroke-width="0.1"
       stroke="currentColor"
       x1="0.050000001"
       y1="0"
       x2="101.0208"
       y2="0"
       id="line10" />
  </g>
  <g
     transform="translate(0,7.6688528)"
     id="g12">
    <line
       stroke-linejoin="round"
       stroke-linecap="round"
       stroke-width="0.1"
       stroke="currentColor"
       x1="0.050000001"
       y1="0"
       x2="101.0208"
       y2="0"
       id="line11" />
  </g>
  <g
     transform="translate(0,6.6688528)"
     id="g13">
    <line
       stroke-linejoin="round"
       stroke-linecap="round"
       stroke-width="0.1"
       stroke="currentColor"
       x1="0.050000001"
       y1="0"
       x2="101.0208"
       y2="0"
       id="line12" />
  </g>
  <g
     transform="translate(0,5.6688528)"
     id="g14">
    <line
       stroke-linejoin="round"
       stroke-linecap="round"
       stroke-width="0.1"
       stroke="currentColor"
       x1="0.050000001"
       y1="0"
       x2="101.0208"
       y2="0"
       id="line13" />
  </g>
  <g
     transform="translate(0,4.6688528)"
     id="g15">
    <line
       stroke-linejoin="round"
       stroke-linecap="round"
       stroke-width="0.1"
       stroke="currentColor"
       x1="0.050000001"
       y1="0"
       x2="101.0208"
       y2="0"
       id="line14" />
  </g>
  <g
     transform="translate(72.2474,6.6688528)"
     id="g16">
    <rect
       x="0"
       y="-2"
       width="0.19"
       height="4"
       ry="0.0000"
       fill="currentColor"
       id="rect15" />
  </g>
  <g
     transform="translate(52.2271,6.6688528)"
     id="g17">
    <rect
       x="0"
       y="-2"
       width="0.19"
       height="4"
       ry="0.0000"
       fill="currentColor"
       id="rect16" />
  </g>
  <g
     transform="translate(30.2682,6.6688528)"
     id="g18">
    <rect
       x="0"
       y="-2"
       width="0.19"
       height="4"
       ry="0.0000"
       fill="currentColor"
       id="rect17" />
  </g>
  <g
     transform="translate(95.3967,4.6688528)"
     id="g19">
    <polygon
       stroke-linejoin="round"
       stroke-linecap="round"
       stroke-width="0.08"
       fill="currentColor"
       stroke="currentColor"
       points="0.04,0.2 0.04,-0.2 2.5942,-0.39 2.5942,0.01 "
       id="polygon18" />
  </g>
  <g
     transform="translate(90.3883,3.6688528)"
     id="g20">
    <polygon
       stroke-linejoin="round"
       stroke-linecap="round"
       stroke-width="0.08"
       fill="currentColor"
       stroke="currentColor"
       points="0.04,0.2 0.04,-0.2 2.5942,-0.01 2.5942,0.39 "
       id="polygon19" />
  </g>
  <g
     transform="translate(8.585,1.6688528)"
     id="g21">
    <text
       font-family="'NewComputerModern Math'"
       font-size="2.3308px"
       text-anchor="start"
       fill="currentColor"
       id="text20"><tspan
         id="tspan20">E</tspan></text>
  </g>
  <g
     transform="translate(10.1556,2.4634528)"
     id="g22">
    <text
       font-family="'NewComputerModern Math'"
       font-size="1.648px"
       text-anchor="start"
       fill="currentColor"
       id="text21"><tspan
         id="tspan21">−</tspan></text>
  </g>
  <g
     transform="translate(11.4531,2.4634528)"
     id="g23">
    <text
       font-family="'NewComputerModern Math'"
       font-size="1.648px"
       text-anchor="start"
       fill="currentColor"
       id="text22"><tspan
         id="tspan22">7</tspan></text>
  </g>
  <g
     transform="translate(8.585,6.6688528)"
     id="g24">
    <path
       transform="scale(0.004,-0.004)"
       d="M 0,-46 C 0,45 116,136 217,136 280,136 326,101 326,46 326,-41 216,-136 106,-136 39,-136 0,-97 0,-46 Z"
       fill="currentColor"
       id="path23" />
  </g>
  <g
     transform="translate(0.8,7.6688528)"
     id="g25">
    <path
       transform="scale(0.004,-0.004)"
       d="m 266,-635 h -6 c -108,0 -195,88 -195,197 0,58 53,103 112,103 54,0 95,-47 95,-103 0,-52 -43,-95 -95,-95 -11,0 -21,2 -31,6 26,-39 68,-65 117,-65 h 4 z m 135,786 c 19,-89 48,-242 60,-354 76,27 112,94 112,163 0,89 -60,179 -172,191 z M 74,28 c 0,-112 98,-247 278,-247 21,0 44,2 68,6 -7,64 -29,203 -63,364 -79,-8 -124,-61 -124,-119 0,-44 25,-91 81,-123 5,-5 7,-10 7,-15 0,-11 -10,-22 -22,-22 -15,0 -126,62 -126,187 0,88 58,174 160,197 -14,58 -29,117 -46,175 C 180,310 74,188 74,28 Z m 283,1166 c 28,0 143,-206 143,-361 0,-143 -86,-255 -180,-364 21,-68 39,-138 56,-207 5,0 10,1 14,1 155,0 255,-129 255,-262 0,-113 -74,-212 -180,-245 3,-35 5,-70 5,-105 0,-19 -1,-39 -2,-58 -7,-119 -88,-225 -202,-228 l 1,43 c 93,2 153,92 159,191 1,18 2,37 2,55 0,31 -1,61 -4,92 -28,-5 -55,-8 -80,-8 -239,0 -342,217 -342,374 0,177 131,306 248,441 -29,96 -52,170 -52,346 0,189 144,295 159,295 z M 247,782 c 0,-55 12,-115 35,-190 83,100 147,202 147,326 0,40 -6,82 -21,127 -49,-24 -161,-97 -161,-263 z"
       fill="currentColor"
       id="path24" />
  </g>
  <g
     transform="translate(4.885,6.6688528)"
     id="g26">
    <path
       transform="scale(0.004,-0.004)"
       d="M 433,-89 C 433,-111 383,-263 250,-263 191,-263 0,-244 0,0 0,62 18,262 250,262 366,262 426,156 426,99 426,59 396,27 359,27 c -31,0 -75,25 -75,75 0,38 27,77 72,77 4,0 9,0 14,-1 -28,37 -72,59 -120,59 C 144,237 137,164 137,51 V 0 -51 c 0,-113 7,-187 113,-187 80,0 139,70 158,151 2,7 7,10 12,10 6,0 13,-4 13,-12 z"
       fill="currentColor"
       id="path25" />
  </g>
  <g
     transform="translate(9.8242,6.6688528)"
     id="g27">
    <rect
       x="-0.064999998"
       y="-2.7931001"
       width="0.13"
       height="2.6069"
       ry="0.039999999"
       fill="currentColor"
       id="rect26" />
  </g>
  <g
     transform="translate(81.0037,8.6688528)"
     id="g28">
    <polygon
       stroke-linejoin="round"
       stroke-linecap="round"
       stroke-width="0.08"
       fill="currentColor"
       stroke="currentColor"
       points="0.04,0.2 0.04,-0.2 6.2144,-0.01 6.2144,0.39 "
       id="polygon27" />
  </g>
  <g
     transform="translate(10.8392,7.6688528)"
     id="g29">
    <path
       transform="scale(0.004,-0.004)"
       d="M 0,-46 C 0,45 116,136 217,136 280,136 326,101 326,46 326,-41 216,-136 106,-136 39,-136 0,-97 0,-46 Z"
       fill="currentColor"
       id="path28" />
  </g>
  <g
     transform="translate(12.0784,6.6688528)"
     id="g30">
    <rect
       x="-0.064999998"
       y="-2.2068999"
       width="0.13"
       height="3.0207"
       ry="0.039999999"
       fill="currentColor"
       id="rect29" />
  </g>
  <g
     transform="translate(73.4411,9.6688528)"
     id="g31">
    <polygon
       stroke-linejoin="round"
       stroke-linecap="round"
       stroke-width="0.08"
       fill="currentColor"
       stroke="currentColor"
       points="0.04,0.2 0.04,-0.2 5.5484,-0.39 5.5484,0.01 "
       id="polygon30" />
  </g>
  <g
     transform="translate(13.0934,8.6688528)"
     id="g32">
    <path
       transform="scale(0.004,-0.004)"
       d="M 0,-46 C 0,45 116,136 217,136 280,136 326,101 326,46 326,-41 216,-136 106,-136 39,-136 0,-97 0,-46 Z"
       fill="currentColor"
       id="path31" />
  </g>
  <g
     transform="translate(14.3326,6.6688528)"
     id="g33">
    <rect
       x="-0.064999998"
       y="-0.99529999"
       width="0.13"
       height="2.8090999"
       ry="0.039999999"
       fill="currentColor"
       id="rect32" />
  </g>
  <g
     transform="translate(83.687,10.668053)"
     id="g34">
    <text
       font-family="'NewComputerModern Math'"
       font-style="italic"
       font-size="1.7459px"
       text-anchor="start"
       fill="currentColor"
       id="text33"><tspan
         id="tspan33">3</tspan></text>
  </g>
  <g
     transform="translate(15.5976,9.1688528)"
     id="g35">
    <path
       transform="scale(0.004,-0.004)"
       d="M 0,-46 C 0,45 116,136 217,136 280,136 326,101 326,46 326,-41 216,-136 106,-136 39,-136 0,-97 0,-46 Z"
       fill="currentColor"
       id="path34" />
  </g>
  <g
     transform="translate(16.8368,6.6688528)"
     id="g36">
    <rect
       x="-0.064999998"
       y="-0.81470001"
       width="0.13"
       height="3.1285"
       ry="0.039999999"
       fill="currentColor"
       id="rect35" />
  </g>
  <g
     transform="translate(18.9518,1.6688528)"
     id="g37">
    <text
       font-family="'NewComputerModern Math'"
       font-size="2.3308px"
       text-anchor="start"
       fill="currentColor"
       id="text36"><tspan
         id="tspan36">A</tspan></text>
  </g>
  <g
     transform="translate(20.6931,2.4634528)"
     id="g38">
    <text
       font-family="'NewComputerModern Math'"
       font-size="1.648px"
       text-anchor="start"
       fill="currentColor"
       id="text37"><tspan
         id="tspan37">7</tspan></text>
  </g>
  <g
     transform="translate(18.9518,9.6688528)"
     id="g39">
    <path
       transform="scale(0.004,-0.004)"
       d="M 0,-46 C 0,45 116,136 217,136 280,136 326,101 326,46 326,-41 216,-136 106,-136 39,-136 0,-97 0,-46 Z"
       fill="currentColor"
       id="path38" />
  </g>
  <g
     transform="translate(20.191,6.6688528)"
     id="g40">
    <rect
       x="-0.064999998"
       y="-0.204"
       width="0.13"
       height="3.0178001"
       ry="0.039999999"
       fill="currentColor"
       id="rect39" />
  </g>
  <g
     transform="translate(17.5018,9.6688528)"
     id="g41">
    <path
       transform="scale(0.004,-0.004)"
       d="m 0,119 c 0,8 5,15 13,18 l 46,17 v 158 c 0,10 8,19 18,19 10,0 19,-9 19,-19 V 167 l 83,31 v 158 c 0,10 9,19 19,19 10,0 18,-9 18,-19 V 211 l 32,12 c 2,1 5,1 7,1 11,0 20,-9 20,-20 v -60 c 0,-8 -5,-16 -13,-19 L 216,109 V -51 l 32,11 c 2,1 5,1 7,1 11,0 20,-9 20,-20 v -60 c 0,-8 -5,-15 -13,-18 l -46,-17 v -158 c 0,-10 -8,-19 -18,-19 -10,0 -19,9 -19,19 v 145 l -83,-31 v -158 c 0,-10 -9,-19 -19,-19 -10,0 -18,9 -18,19 v 145 l -32,-12 c -2,-1 -5,-1 -7,-1 -11,0 -20,9 -20,20 v 60 c 0,8 5,16 13,19 l 46,16 V 51 L 27,40 C 25,39 22,39 20,39 9,39 0,48 0,59 Z M 179,95 96,65 V -95 l 83,30 z"
       fill="currentColor"
       id="path40" />
  </g>
  <g
     transform="translate(67.9623,5.4788528)"
     id="g42">
    <polygon
       stroke-linejoin="round"
       stroke-linecap="round"
       stroke-width="0.08"
       fill="currentColor"
       stroke="currentColor"
       points="0.04,0.2 0.04,-0.2 2.8442,-0.82 2.8442,-0.42 "
       id="polygon41" />
  </g>
  <g
     transform="translate(21.706,8.6688528)"
     id="g43">
    <path
       transform="scale(0.004,-0.004)"
       d="M 0,-46 C 0,45 116,136 217,136 280,136 326,101 326,46 326,-41 216,-136 106,-136 39,-136 0,-97 0,-46 Z"
       fill="currentColor"
       id="path42" />
  </g>
  <g
     transform="translate(22.9452,6.6688528)"
     id="g44">
    <rect
       x="-0.064999998"
       y="-0.796"
       width="0.13"
       height="2.6098001"
       ry="0.039999999"
       fill="currentColor"
       id="rect43" />
  </g>
  <g
     transform="translate(75.7914,11.478253)"
     id="g45">
    <text
       font-family="'NewComputerModern Math'"
       font-style="italic"
       font-size="1.7459px"
       text-anchor="start"
       fill="currentColor"
       id="text44"><tspan
         id="tspan44">3</tspan></text>
  </g>
  <g
     transform="translate(24.4602,7.6688528)"
     id="g46">
    <path
       transform="scale(0.004,-0.004)"
       d="M 0,-46 C 0,45 116,136 217,136 280,136 326,101 326,46 326,-41 216,-136 106,-136 39,-136 0,-97 0,-46 Z"
       fill="currentColor"
       id="path45" />
  </g>
  <g
     transform="translate(25.6994,6.6688528)"
     id="g47">
    <rect
       x="-0.064999998"
       y="-2.8236001"
       width="0.13"
       height="3.6373999"
       ry="0.039999999"
       fill="currentColor"
       id="rect46" />
  </g>
  <g
     transform="translate(27.6344,6.6688528)"
     id="g48">
    <path
       transform="scale(0.004,-0.004)"
       d="M 0,-46 C 0,45 116,136 217,136 280,136 326,101 326,46 326,-41 216,-136 106,-136 39,-136 0,-97 0,-46 Z"
       fill="currentColor"
       id="path47" />
  </g>
  <g
     transform="translate(28.8736,6.6688528)"
     id="g49">
    <rect
       x="-0.064999998"
       y="-3.4863999"
       width="0.13"
       height="3.3002"
       ry="0.039999999"
       fill="currentColor"
       id="rect48" />
  </g>
  <g
     transform="translate(26.4844,6.6688528)"
     id="g50">
    <path
       transform="scale(0.004,-0.004)"
       d="m 27,41 -1,-66 v -11 c 0,-22 1,-44 4,-66 45,38 93,80 93,139 0,33 -14,67 -43,67 C 49,104 28,74 27,41 Z m -42,-179 -12,595 c 8,5 18,8 27,8 9,0 19,-3 27,-8 L 20,112 c 25,21 58,34 91,34 52,0 89,-48 89,-102 0,-80 -86,-117 -147,-169 -15,-13 -24,-38 -45,-38 -13,0 -23,11 -23,25 z"
       fill="currentColor"
       id="path49" />
  </g>
  <g
     transform="translate(62.7039,6.6688528)"
     id="g51">
    <polygon
       stroke-linejoin="round"
       stroke-linecap="round"
       stroke-width="0.08"
       fill="currentColor"
       stroke="currentColor"
       points="0.04,0.2 0.04,-0.2 2.5942,-0.39 2.5942,0.01 "
       id="polygon50" />
  </g>
  <g
     transform="translate(57.9455,5.8588528)"
     id="g52">
    <polygon
       stroke-linejoin="round"
       stroke-linecap="round"
       stroke-width="0.08"
       fill="currentColor"
       stroke="currentColor"
       points="0.04,0.2 0.04,-0.2 2.3442,0.42 2.3442,0.82 "
       id="polygon51" />
  </g>
  <g
     transform="translate(31.3582,1.6688528)"
     id="g53">
    <text
       font-family="'NewComputerModern Math'"
       font-size="2.3308px"
       text-anchor="start"
       fill="currentColor"
       id="text52"><tspan
         id="tspan52">D</tspan></text>
  </g>
  <g
     transform="translate(33.1336,2.4634528)"
     id="g54">
    <text
       font-family="'NewComputerModern Math'"
       font-size="1.648px"
       text-anchor="start"
       fill="currentColor"
       id="text53"><tspan
         id="tspan53">−</tspan></text>
  </g>
  <g
     transform="translate(34.4311,2.4634528)"
     id="g55">
    <text
       font-family="'NewComputerModern Math'"
       font-size="1.648px"
       text-anchor="start"
       fill="currentColor"
       id="text54"><tspan
         id="tspan54">7</tspan></text>
  </g>
  <g
     transform="translate(31.3582,7.1688528)"
     id="g56">
    <path
       transform="scale(0.004,-0.004)"
       d="M 0,-46 C 0,45 116,136 217,136 280,136 326,101 326,46 326,-41 216,-136 106,-136 39,-136 0,-97 0,-46 Z"
       fill="currentColor"
       id="path55" />
  </g>
  <g
     transform="translate(32.5974,6.6688528)"
     id="g57">
    <rect
       x="-0.064999998"
       y="-2.7931001"
       width="0.13"
       height="3.1069"
       ry="0.039999999"
       fill="currentColor"
       id="rect56" />
  </g>
  <g
     transform="translate(47.5576,4.4788528)"
     id="g58">
    <polygon
       stroke-linejoin="round"
       stroke-linecap="round"
       stroke-width="0.08"
       fill="currentColor"
       stroke="currentColor"
       points="0.04,0.2 0.04,-0.2 3.2642,-0.82 3.2642,-0.42 "
       id="polygon57" />
  </g>
  <g
     transform="translate(33.6124,8.1688528)"
     id="g59">
    <path
       transform="scale(0.004,-0.004)"
       d="M 0,-46 C 0,45 116,136 217,136 280,136 326,101 326,46 326,-41 216,-136 106,-136 39,-136 0,-97 0,-46 Z"
       fill="currentColor"
       id="path58" />
  </g>
  <g
     transform="translate(34.8516,6.6688528)"
     id="g60">
    <rect
       x="-0.064999998"
       y="-2.2068999"
       width="0.13"
       height="3.5207"
       ry="0.039999999"
       fill="currentColor"
       id="rect59" />
  </g>
  <g
     transform="translate(42.0492,6.6688528)"
     id="g61">
    <polygon
       stroke-linejoin="round"
       stroke-linecap="round"
       stroke-width="0.08"
       fill="currentColor"
       stroke="currentColor"
       points="0.04,0.2 0.04,-0.2 2.8442,-0.39 2.8442,0.01 "
       id="polygon60" />
  </g>
  <g
     transform="translate(35.8666,9.1688528)"
     id="g62">
    <path
       transform="scale(0.004,-0.004)"
       d="M 0,-46 C 0,45 116,136 217,136 280,136 326,101 326,46 326,-41 216,-136 106,-136 39,-136 0,-97 0,-46 Z"
       fill="currentColor"
       id="path61" />
  </g>
  <g
     transform="translate(37.1058,6.6688528)"
     id="g63">
    <rect
       x="-0.064999998"
       y="-0.18529999"
       width="0.13"
       height="2.4991"
       ry="0.039999999"
       fill="currentColor"
       id="rect62" />
  </g>
  <g
     transform="translate(37.0408,6.4788528)"
     id="g64">
    <polygon
       stroke-linejoin="round"
       stroke-linecap="round"
       stroke-width="0.08"
       fill="currentColor"
       stroke="currentColor"
       points="0.04,0.2 0.04,-0.2 2.5942,-0.01 2.5942,0.39 "
       id="polygon63" />
  </g>
  <g
     transform="translate(38.3708,9.6688528)"
     id="g65">
    <path
       transform="scale(0.004,-0.004)"
       d="M 0,-46 C 0,45 116,136 217,136 280,136 326,101 326,46 326,-41 216,-136 106,-136 39,-136 0,-97 0,-46 Z"
       fill="currentColor"
       id="path64" />
  </g>
  <g
     transform="translate(39.61,6.6688528)"
     id="g66">
    <rect
       x="-0.064999998"
       y="-0.0046999999"
       width="0.13"
       height="2.8185"
       ry="0.039999999"
       fill="currentColor"
       id="rect65" />
  </g>
  <g
     transform="translate(32.5324,3.8588528)"
     id="g67">
    <polygon
       stroke-linejoin="round"
       stroke-linecap="round"
       stroke-width="0.08"
       fill="currentColor"
       stroke="currentColor"
       points="0.04,0.2 0.04,-0.2 2.3442,0.42 2.3442,0.82 "
       id="polygon66" />
  </g>
  <g
     transform="translate(40.875,1.6688528)"
     id="g68">
    <text
       font-family="'NewComputerModern Math'"
       font-size="2.3308px"
       text-anchor="start"
       fill="currentColor"
       id="text67"><tspan
         id="tspan67">G</tspan></text>
  </g>
  <g
     transform="translate(42.7187,2.4634528)"
     id="g69">
    <text
       font-family="'NewComputerModern Math'"
       font-size="1.648px"
       text-anchor="start"
       fill="currentColor"
       id="text68"><tspan
         id="tspan68">7</tspan></text>
  </g>
  <g
     transform="translate(40.875,10.168853)"
     id="g70">
    <path
       transform="scale(0.004,-0.004)"
       d="M 0,-46 C 0,45 116,136 217,136 280,136 326,101 326,46 326,-41 216,-136 106,-136 39,-136 0,-97 0,-46 Z"
       fill="currentColor"
       id="path69" />
  </g>
  <g
     transform="translate(42.1142,6.6688528)"
     id="g71">
    <rect
       x="-0.064999998"
       y="-0.0043000001"
       width="0.13"
       height="3.3181"
       ry="0.039999999"
       fill="currentColor"
       id="rect70" />
  </g>
  <g
     transform="translate(25.6344,3.8588528)"
     id="g72">
    <polygon
       stroke-linejoin="round"
       stroke-linecap="round"
       stroke-width="0.08"
       fill="currentColor"
       stroke="currentColor"
       points="0.04,0.2 0.04,-0.2 3.2642,-0.89 3.2642,-0.49 "
       id="polygon71" />
  </g>
  <g
     transform="translate(43.6292,9.1688528)"
     id="g73">
    <path
       transform="scale(0.004,-0.004)"
       d="M 0,-46 C 0,45 116,136 217,136 280,136 326,101 326,46 326,-41 216,-136 106,-136 39,-136 0,-97 0,-46 Z"
       fill="currentColor"
       id="path72" />
  </g>
  <g
     transform="translate(44.8684,6.6688528)"
     id="g74">
    <rect
       x="-0.064999998"
       y="-0.1857"
       width="0.13"
       height="2.4995"
       ry="0.039999999"
       fill="currentColor"
       id="rect73" />
  </g>
  <g
     transform="translate(20.126,6.4788528)"
     id="g75">
    <polygon
       stroke-linejoin="round"
       stroke-linecap="round"
       stroke-width="0.08"
       fill="currentColor"
       stroke="currentColor"
       points="0.04,0.2 0.04,-0.2 2.8442,-0.82 2.8442,-0.42 "
       id="polygon74" />
  </g>
  <g
     transform="translate(46.3834,8.1688528)"
     id="g76">
    <path
       transform="scale(0.004,-0.004)"
       d="M 0,-46 C 0,45 116,136 217,136 280,136 326,101 326,46 326,-41 216,-136 106,-136 39,-136 0,-97 0,-46 Z"
       fill="currentColor"
       id="path75" />
  </g>
  <g
     transform="translate(47.6226,6.6688528)"
     id="g77">
    <rect
       x="-0.064999998"
       y="-2.2021999"
       width="0.13"
       height="3.516"
       ry="0.039999999"
       fill="currentColor"
       id="rect76" />
  </g>
  <g
     transform="translate(14.2676,5.6688528)"
     id="g78">
    <polygon
       stroke-linejoin="round"
       stroke-linecap="round"
       stroke-width="0.08"
       fill="currentColor"
       stroke="currentColor"
       points="0.04,0.2 0.04,-0.2 2.5942,-0.01 2.5942,0.39 "
       id="polygon77" />
  </g>
  <g
     transform="translate(49.5576,7.1688528)"
     id="g79">
    <path
       transform="scale(0.004,-0.004)"
       d="M 0,-46 C 0,45 116,136 217,136 280,136 326,101 326,46 326,-41 216,-136 106,-136 39,-136 0,-97 0,-46 Z"
       fill="currentColor"
       id="path78" />
  </g>
  <g
     transform="translate(50.7968,6.6688528)"
     id="g80">
    <rect
       x="-0.064999998"
       y="-2.7978001"
       width="0.13"
       height="3.1115999"
       ry="0.039999999"
       fill="currentColor"
       id="rect79" />
  </g>
  <g
     transform="translate(48.4076,7.1688528)"
     id="g81">
    <path
       transform="scale(0.004,-0.004)"
       d="m 27,41 -1,-66 v -11 c 0,-22 1,-44 4,-66 45,38 93,80 93,139 0,33 -14,67 -43,67 C 49,104 28,74 27,41 Z m -42,-179 -12,595 c 8,5 18,8 27,8 9,0 19,-3 27,-8 L 20,112 c 25,21 58,34 91,34 52,0 89,-48 89,-102 0,-80 -86,-117 -147,-169 -15,-13 -24,-38 -45,-38 -13,0 -23,11 -23,25 z"
       fill="currentColor"
       id="path80" />
  </g>
  <g
     transform="translate(9.7592,3.8588528)"
     id="g82">
    <polygon
       stroke-linejoin="round"
       stroke-linecap="round"
       stroke-width="0.08"
       fill="currentColor"
       stroke="currentColor"
       points="0.04,0.2 0.04,-0.2 2.3442,0.42 2.3442,0.82 "
       id="polygon81" />
  </g>
  <g
     transform="translate(53.3171,1.6688528)"
     id="g83">
    <text
       font-family="'NewComputerModern Math'"
       font-size="2.3308px"
       text-anchor="start"
       fill="currentColor"
       id="text82"><tspan
         id="tspan82">C</tspan></text>
  </g>
  <g
     transform="translate(54.9901,2.4634528)"
     id="g84">
    <text
       font-family="'NewComputerModern Math'"
       font-size="1.648px"
       text-anchor="start"
       fill="currentColor"
       id="text83"><tspan
         id="tspan83">△</tspan></text>
  </g>
  <g
     transform="translate(56.5948,2.4634528)"
     id="g85">
    <text
       font-family="'NewComputerModern Math'"
       font-size="1.648px"
       text-anchor="start"
       fill="currentColor"
       id="text84"><tspan
         id="tspan84">7</tspan></text>
  </g>
  <g
     transform="translate(53.3171,7.6688528)"
     id="g86">
    <path
       transform="scale(0.004,-0.004)"
       d="M 0,-46 C 0,45 116,136 217,136 280,136 326,101 326,46 326,-41 216,-136 106,-136 39,-136 0,-97 0,-46 Z"
       fill="currentColor"
       id="path85" />
  </g>
  <g
     transform="translate(54.5563,6.6688528)"
     id="g87">
    <rect
       x="-0.064999998"
       y="-2.5"
       width="0.13"
       height="3.3138001"
       ry="0.039999999"
       fill="currentColor"
       id="rect86" />
  </g>
  <g
     transform="translate(56.7713,8.6688528)"
     id="g88">
    <path
       transform="scale(0.004,-0.004)"
       d="M 0,-46 C 0,45 116,136 217,136 280,136 326,101 326,46 326,-41 216,-136 106,-136 39,-136 0,-97 0,-46 Z"
       fill="currentColor"
       id="path87" />
  </g>
  <g
     transform="translate(58.0105,6.6688528)"
     id="g89">
    <rect
       x="-0.064999998"
       y="-0.7931"
       width="0.13"
       height="2.6069"
       ry="0.039999999"
       fill="currentColor"
       id="rect88" />
  </g>
  <g
     transform="translate(59.0255,9.6688528)"
     id="g90">
    <path
       transform="scale(0.004,-0.004)"
       d="M 0,-46 C 0,45 116,136 217,136 280,136 326,101 326,46 326,-41 216,-136 106,-136 39,-136 0,-97 0,-46 Z"
       fill="currentColor"
       id="path89" />
  </g>
  <g
     transform="translate(60.2647,6.6688528)"
     id="g91">
    <rect
       x="-0.064999998"
       y="-0.2069"
       width="0.13"
       height="3.0207"
       ry="0.039999999"
       fill="currentColor"
       id="rect90" />
  </g>
  <g
     transform="translate(61.5297,10.168853)"
     id="g92">
    <path
       transform="scale(0.004,-0.004)"
       d="M 0,-46 C 0,45 116,136 217,136 280,136 326,101 326,46 326,-41 216,-136 106,-136 39,-136 0,-97 0,-46 Z"
       fill="currentColor"
       id="path91" />
  </g>
  <g
     transform="translate(62.7689,6.6688528)"
     id="g93">
    <rect
       x="-0.064999998"
       y="-0.0046999999"
       width="0.13"
       height="3.3185"
       ry="0.039999999"
       fill="currentColor"
       id="rect92" />
  </g>
  <g
     transform="translate(64.0339,9.6688528)"
     id="g94">
    <path
       transform="scale(0.004,-0.004)"
       d="M 0,-46 C 0,45 116,136 217,136 280,136 326,101 326,46 326,-41 216,-136 106,-136 39,-136 0,-97 0,-46 Z"
       fill="currentColor"
       id="path93" />
  </g>
  <g
     transform="translate(65.2731,6.6688528)"
     id="g95">
    <rect
       x="-0.064999998"
       y="-0.18529999"
       width="0.13"
       height="2.9991"
       ry="0.039999999"
       fill="currentColor"
       id="rect94" />
  </g>
  <g
     transform="translate(66.7881,8.6688528)"
     id="g96">
    <path
       transform="scale(0.004,-0.004)"
       d="M 0,-46 C 0,45 116,136 217,136 280,136 326,101 326,46 326,-41 216,-136 106,-136 39,-136 0,-97 0,-46 Z"
       fill="currentColor"
       id="path95" />
  </g>
  <g
     transform="translate(68.0273,6.6688528)"
     id="g97">
    <rect
       x="-0.064999998"
       y="-1.204"
       width="0.13"
       height="3.0178001"
       ry="0.039999999"
       fill="currentColor"
       id="rect96" />
  </g>
  <g
     transform="translate(69.5423,7.6688528)"
     id="g98">
    <path
       transform="scale(0.004,-0.004)"
       d="M 0,-46 C 0,45 116,136 217,136 280,136 326,101 326,46 326,-41 216,-136 106,-136 39,-136 0,-97 0,-46 Z"
       fill="currentColor"
       id="path97" />
  </g>
  <g
     transform="translate(70.7815,6.6688528)"
     id="g99">
    <rect
       x="-0.064999998"
       y="-1.796"
       width="0.13"
       height="2.6098001"
       ry="0.039999999"
       fill="currentColor"
       id="rect98" />
  </g>
  <g
     transform="translate(73.4411,1.6688528)"
     id="g100">
    <text
       font-family="'NewComputerModern Math'"
       font-size="2.3308px"
       text-anchor="start"
       fill="currentColor"
       id="text99"><tspan
         id="tspan99">F</tspan></text>
  </g>
  <g
     transform="translate(74.9775,2.4634528)"
     id="g101">
    <text
       font-family="'NewComputerModern Math'"
       font-size="1.648px"
       text-anchor="start"
       fill="currentColor"
       id="text100"><tspan
         id="tspan100">7</tspan></text>
  </g>
  <g
     transform="translate(73.4411,6.6688528)"
     id="g102">
    <path
       transform="scale(0.004,-0.004)"
       d="M 0,-46 C 0,45 116,136 217,136 280,136 326,101 326,46 326,-41 216,-136 106,-136 39,-136 0,-97 0,-46 Z"
       fill="currentColor"
       id="path101" />
  </g>
  <g
     transform="translate(73.5061,6.6688528)"
     id="g103">
    <rect
       x="-0.064999998"
       y="0.18619999"
       width="0.13"
       height="2.8116"
       ry="0.039999999"
       fill="currentColor"
       id="rect102" />
  </g>
  <g
     transform="translate(75.5453,6.1688528)"
     id="g104">
    <path
       transform="scale(0.004,-0.004)"
       d="M 0,-46 C 0,45 116,136 217,136 280,136 326,101 326,46 326,-41 216,-136 106,-136 39,-136 0,-97 0,-46 Z"
       fill="currentColor"
       id="path103" />
  </g>
  <g
     transform="translate(75.6103,6.6688528)"
     id="g105">
    <rect
       x="-0.064999998"
       y="-0.31380001"
       width="0.13"
       height="3.24"
       ry="0.039999999"
       fill="currentColor"
       id="rect104" />
  </g>
  <g
     transform="translate(78.8995,6.1688528)"
     id="g106">
    <path
       transform="scale(0.004,-0.004)"
       d="M 0,-46 C 0,45 116,136 217,136 280,136 326,101 326,46 326,-41 216,-136 106,-136 39,-136 0,-97 0,-46 Z"
       fill="currentColor"
       id="path105" />
  </g>
  <g
     transform="translate(78.9645,6.6688528)"
     id="g107">
    <rect
       x="-0.064999998"
       y="-0.31380001"
       width="0.13"
       height="3.1259999"
       ry="0.039999999"
       fill="currentColor"
       id="rect106" />
  </g>
  <g
     transform="translate(77.4495,6.1688528)"
     id="g108">
    <path
       transform="scale(0.004,-0.004)"
       d="m 0,119 c 0,8 5,15 13,18 l 46,17 v 158 c 0,10 8,19 18,19 10,0 19,-9 19,-19 V 167 l 83,31 v 158 c 0,10 9,19 19,19 10,0 18,-9 18,-19 V 211 l 32,12 c 2,1 5,1 7,1 11,0 20,-9 20,-20 v -60 c 0,-8 -5,-16 -13,-19 L 216,109 V -51 l 32,11 c 2,1 5,1 7,1 11,0 20,-9 20,-20 v -60 c 0,-8 -5,-15 -13,-18 l -46,-17 v -158 c 0,-10 -8,-19 -18,-19 -10,0 -19,9 -19,19 v 145 l -83,-31 v -158 c 0,-10 -9,-19 -19,-19 -10,0 -18,9 -18,19 v 145 l -32,-12 c -2,-1 -5,-1 -7,-1 -11,0 -20,9 -20,20 v 60 c 0,8 5,16 13,19 l 46,16 V 51 L 27,40 C 25,39 22,39 20,39 9,39 0,48 0,59 Z M 179,95 96,65 V -95 l 83,30 z"
       fill="currentColor"
       id="path107" />
  </g>
  <g
     transform="translate(81.0037,5.6688528)"
     id="g109">
    <path
       transform="scale(0.004,-0.004)"
       d="M 0,-46 C 0,45 116,136 217,136 280,136 326,101 326,46 326,-41 216,-136 106,-136 39,-136 0,-97 0,-46 Z"
       fill="currentColor"
       id="path108" />
  </g>
  <g
     transform="translate(81.0687,6.6688528)"
     id="g110">
    <rect
       x="-0.064999998"
       y="-0.81379998"
       width="0.13"
       height="2.8158"
       ry="0.039999999"
       fill="currentColor"
       id="rect109" />
  </g>
  <g
     transform="translate(84.1779,5.6688528)"
     id="g111">
    <path
       transform="scale(0.004,-0.004)"
       d="M 0,-46 C 0,45 116,136 217,136 280,136 326,101 326,46 326,-41 216,-136 106,-136 39,-136 0,-97 0,-46 Z"
       fill="currentColor"
       id="path110" />
  </g>
  <g
     transform="translate(84.2429,6.6688528)"
     id="g112">
    <rect
       x="-0.064999998"
       y="-0.81379998"
       width="0.13"
       height="2.9122"
       ry="0.039999999"
       fill="currentColor"
       id="rect111" />
  </g>
  <g
     transform="translate(83.0279,5.6688528)"
     id="g113">
    <path
       transform="scale(0.004,-0.004)"
       d="m 27,41 -1,-66 v -11 c 0,-22 1,-44 4,-66 45,38 93,80 93,139 0,33 -14,67 -43,67 C 49,104 28,74 27,41 Z m -42,-179 -12,595 c 8,5 18,8 27,8 9,0 19,-3 27,-8 L 20,112 c 25,21 58,34 91,34 52,0 89,-48 89,-102 0,-80 -86,-117 -147,-169 -15,-13 -24,-38 -45,-38 -13,0 -23,11 -23,25 z"
       fill="currentColor"
       id="path112" />
  </g>
  <g
     transform="translate(87.1281,6.1688528)"
     id="g114">
    <path
       transform="scale(0.004,-0.004)"
       d="M 0,-46 C 0,45 116,136 217,136 280,136 326,101 326,46 326,-41 216,-136 106,-136 39,-136 0,-97 0,-46 Z"
       fill="currentColor"
       id="path113" />
  </g>
  <g
     transform="translate(87.1931,6.6688528)"
     id="g115">
    <rect
       x="-0.064999998"
       y="-0.31380001"
       width="0.13"
       height="2.5018001"
       ry="0.039999999"
       fill="currentColor"
       id="rect114" />
  </g>
  <g
     transform="translate(86.0821,6.1688528)"
     id="g116">
    <path
       transform="scale(0.004,-0.004)"
       d="m -7,375 c 8,4 17,7 25,7 8,0 16,-3 24,-7 l -2,-183 106,20 h 3 c 10,0 18,-7 18,-17 l 7,-570 c -8,-4 -17,-7 -25,-7 -8,0 -16,3 -24,7 l 2,183 -106,-20 h -3 c -10,0 -18,7 -18,17 z M 131,112 39,95 l -3,-207 92,17 z"
       fill="currentColor"
       id="path115" />
  </g>
  <g
     transform="translate(89.2141,6.6688528)"
     id="g117">
    <path
       transform="scale(0.004,-0.004)"
       d="M 0,-46 C 0,45 116,136 217,136 280,136 326,101 326,46 326,-41 216,-136 106,-136 39,-136 0,-97 0,-46 Z"
       fill="currentColor"
       id="path116" />
  </g>
  <g
     transform="translate(90.4533,6.6688528)"
     id="g118">
    <rect
       x="-0.064999998"
       y="-2.9953001"
       width="0.13"
       height="2.8090999"
       ry="0.039999999"
       fill="currentColor"
       id="rect117" />
  </g>
  <g
     transform="translate(97.9659,6.6688528)"
     id="g119">
    <rect
       x="-0.064999998"
       y="-2.1853001"
       width="0.13"
       height="2.4991"
       ry="0.039999999"
       fill="currentColor"
       id="rect118" />
  </g>
  <g
     transform="translate(91.7183,7.1688528)"
     id="g120">
    <path
       transform="scale(0.004,-0.004)"
       d="M 0,-46 C 0,45 116,136 217,136 280,136 326,101 326,46 326,-41 216,-136 106,-136 39,-136 0,-97 0,-46 Z"
       fill="currentColor"
       id="path119" />
  </g>
  <g
     transform="translate(92.9575,6.6688528)"
     id="g121">
    <rect
       x="-0.064999998"
       y="-2.8146999"
       width="0.13"
       height="3.1285"
       ry="0.039999999"
       fill="currentColor"
       id="rect120" />
  </g>
  <g
     transform="translate(96.7267,7.1688528)"
     id="g122">
    <path
       transform="scale(0.004,-0.004)"
       d="M 0,-46 C 0,45 116,136 217,136 280,136 326,101 326,46 326,-41 216,-136 106,-136 39,-136 0,-97 0,-46 Z"
       fill="currentColor"
       id="path121" />
  </g>
  <g
     transform="translate(94.2225,7.6688528)"
     id="g123">
    <path
       transform="scale(0.004,-0.004)"
       d="M 0,-46 C 0,45 116,136 217,136 280,136 326,101 326,46 326,-41 216,-136 106,-136 39,-136 0,-97 0,-46 Z"
       fill="currentColor"
       id="path122" />
  </g>
  <g
     transform="translate(95.4617,6.6688528)"
     id="g124">
    <rect
       x="-0.064999998"
       y="-2.0046999"
       width="0.13"
       height="2.8185"
       ry="0.039999999"
       fill="currentColor"
       id="rect123" />
  </g>
</svg>
