<?xml version="1.0" encoding="UTF-8" standalone="no"?>
<svg
   version="1.2"
   width="114.13531mm"
   height="22.234766mm"
   viewBox="0 0 64.949299 12.65281"
   id="svg62"
   sodipodi:docname="fig_184.svg"
   xmlns:inkscape="http://www.inkscape.org/namespaces/inkscape"
   xmlns:sodipodi="http://sodipodi.sourceforge.net/DTD/sodipodi-0.dtd"
   xmlns="http://www.w3.org/2000/svg"
   xmlns:svg="http://www.w3.org/2000/svg">
  <defs
     id="defs62" />
  <sodipodi:namedview
     id="namedview62"
     pagecolor="#505050"
     bordercolor="#eeeeee"
     borderopacity="1"
     inkscape:showpageshadow="0"
     inkscape:pageopacity="0"
     inkscape:pagecheckerboard="0"
     inkscape:deskcolor="#505050"
     inkscape:document-units="mm" />
  <style
     type="text/css"
     id="style1"><![CDATA[
tspan { white-space: pre; }
]]></style>
  <g
     transform="translate(64.7593,7.2955)"
     id="g1">
    <path
       id="rect1"
       style="fill:currentColor"
       d="M 0,-2 H 0.19 V 2 H 0 Z" />
  </g>
  <g
     transform="translate(64.2693,7.2955)"
     id="g2">
    <path
       id="rect2"
       style="fill:currentColor"
       d="M 0,-2 H 0.19 V 2 H 0 Z" />
  </g>
  <g
     transform="translate(0,9.2955)"
     id="g3">
    <path
       id="line2"
       style="stroke:currentColor;stroke-width:0.1;stroke-linecap:round;stroke-linejoin:round"
       d="M 0.05,0 H 64.8993" />
  </g>
  <g
     transform="translate(0,8.2955)"
     id="g4">
    <path
       id="line3"
       style="stroke:currentColor;stroke-width:0.1;stroke-linecap:round;stroke-linejoin:round"
       d="M 0.05,0 H 64.8993" />
  </g>
  <g
     transform="translate(0,7.2955)"
     id="g5">
    <path
       id="line4"
       style="stroke:currentColor;stroke-width:0.1;stroke-linecap:round;stroke-linejoin:round"
       d="M 0.05,0 H 64.8993" />
  </g>
  <g
     transform="translate(0,6.2955)"
     id="g6">
    <path
       id="line5"
       style="stroke:currentColor;stroke-width:0.1;stroke-linecap:round;stroke-linejoin:round"
       d="M 0.05,0 H 64.8993" />
  </g>
  <g
     transform="translate(0,5.2955)"
     id="g7">
    <path
       id="line6"
       style="stroke:currentColor;stroke-width:0.1;stroke-linecap:round;stroke-linejoin:round"
       d="M 0.05,0 H 64.8993" />
  </g>
  <g
     transform="translate(45.3192,7.2955)"
     id="g8">
    <path
       id="rect7"
       style="fill:currentColor"
       d="M 0,-2 H 0.19 V 2 H 0 Z" />
  </g>
  <g
     transform="translate(34.3737,4.2955)"
     id="g9">
    <path
       id="polygon8"
       style="fill:currentColor;stroke:currentColor;stroke-width:0.08;stroke-linecap:round;stroke-linejoin:round"
       d="m 7.6026,-0.01 v 0.4 L 0.04,0.2 v -0.4 z" />
  </g>
  <g
     transform="translate(34.3737,5.1055)"
     id="g10">
    <path
       id="polygon9"
       style="fill:currentColor;stroke:currentColor;stroke-width:0.08;stroke-linecap:round;stroke-linejoin:round"
       d="m 5.0984,-0.0723 v 0.4 L 0.04,0.2 v -0.4 z" />
  </g>
  <g
     transform="translate(24.4054,10.1055)"
     id="g11">
    <path
       id="polygon10"
       style="fill:currentColor;stroke:currentColor;stroke-width:0.08;stroke-linecap:round;stroke-linejoin:round"
       d="m 4.4962,-0.01 v 0.4 L 0.04,0.2 v -0.4 z" />
  </g>
  <g
     transform="translate(9.155,2.2955)"
     id="g12">
    <path
       style="font-size:2.3308px;font-family:'NewComputerModern Math';white-space:pre"
       d="m 1.5196816,-0.60134641 h -0.05827 c -0.05827,0.3589432 -0.1118784,0.52909161 -0.51277598,0.52909161 h -0.3099964 c -0.10954761,0 -0.11420921,-0.0163156 -0.11420921,-0.093232 v -0.62232362 h 0.20977201 c 0.2260876,0 0.2517264,0.0745856 0.2517264,0.27270361 h 0.05827 V -1.1327688 h -0.05827 c 0,0.20044878 -0.0256388,0.27270358 -0.2517264,0.27270358 H 0.52443001 V -1.4194572 c 0,-0.076916 0.004662,-0.093232 0.11420921,-0.093232 h 0.3006732 c 0.35661238,0 0.41954398,0.128194 0.45683678,0.4521752 h 0.05827 l -0.065262,-0.52443 H 0.0769164 v 0.072255 h 0.0559392 c 0.17947161,0 0.18413321,0.025639 0.18413321,0.1095476 v 1.2213392 c 0,0.0839088 -0.004662,0.1095476 -0.18413321,0.1095476 H 0.0769164 V 0 H 1.421788 Z"
       id="text11"
       aria-label="E" />
  </g>
  <g
     transform="translate(10.7256,1.236)"
     id="g13">
    <path
       style="font-size:1.648px;font-family:'NewComputerModern Math';white-space:pre"
       d="m 0.548784,-0.529008 c 0,-0.121952 -0.09064,-0.229072 -0.225776,-0.229072 -0.092288,0 -0.158208,0.037904 -0.191168,0.069216 v -0.500992 c 0,-0.031312 0,-0.046144 -0.019776,-0.046144 -0.021424,0 -0.021424,0.013184 -0.021424,0.046144 v 1.179968 c 0,0.03296 0,0.046144 0.021424,0.046144 0.01648,0 0.187872,-0.118656 0.278512,-0.215888 0.09064,-0.097232 0.158208,-0.212592 0.158208,-0.349376 z m -0.133488,0 c 0,0.260384 -0.243904,0.46968 -0.283456,0.50264 v -0.538896 c 0,-0.037904 0,-0.072512 0.054384,-0.103824 0.051088,-0.029664 0.1236,-0.029664 0.1236,-0.029664 0.075808,0 0.105472,0.088992 0.105472,0.169744 z"
       id="text12"
       aria-label="♭" />
  </g>
  <g
     transform="translate(11.3743,3.0901)"
     id="g14">
    <path
       style="font-size:1.648px;font-family:'NewComputerModern Math';white-space:pre"
       d="m 1.189856,-0.412 c 0,-0.018128 -0.014832,-0.03296 -0.03296,-0.03296 H 0.125248 c -0.018128,0 -0.03296,0.014832 -0.03296,0.03296 0,0.018128 0.014832,0.03296 0.03296,0.03296 h 1.031648 c 0.018128,0 0.03296,-0.014832 0.03296,-0.03296 z"
       id="text13"
       aria-label="−" />
  </g>
  <g
     transform="translate(12.6718,3.0901)"
     id="g15">
    <path
       style="font-size:1.648px;font-family:'NewComputerModern Math';white-space:pre"
       d="M 0.79928,-1.061312 H 0.398816 c -0.201056,0 -0.204352,-0.021424 -0.210944,-0.052736 h -0.0412 L 0.092288,-0.77456 h 0.0412 c 0.004944,-0.026368 0.019776,-0.130192 0.0412,-0.149968 0.011536,-0.009888 0.14008,-0.009888 0.161504,-0.009888 h 0.341136 l -0.184576,0.260384 c -0.14832,0.22248 -0.202704,0.451552 -0.202704,0.619648 0,0.01648 0,0.09064 0.075808,0.09064 0.075808,0 0.075808,-0.07416 0.075808,-0.09064 v -0.084048 c 0,-0.09064 0.004944,-0.18128 0.018128,-0.270272 0.006592,-0.037904 0.029664,-0.179632 0.102176,-0.281808 l 0.22248,-0.31312 C 0.79928,-1.023408 0.79928,-1.026704 0.79928,-1.061312 Z"
       id="text14"
       aria-label="7" />
  </g>
  <g
     transform="translate(9.155,9.2955)"
     id="g16">
    <path
       transform="scale(0.004,-0.004)"
       d="M 0,-46 C 0,45 116,136 217,136 280,136 326,101 326,46 326,-41 216,-136 106,-136 39,-136 0,-97 0,-46 Z"
       fill="currentColor"
       id="path15" />
  </g>
  <g
     transform="translate(0.8,8.2955)"
     id="g17">
    <path
       transform="scale(0.004,-0.004)"
       d="m 266,-635 h -6 c -108,0 -195,88 -195,197 0,58 53,103 112,103 54,0 95,-47 95,-103 0,-52 -43,-95 -95,-95 -11,0 -21,2 -31,6 26,-39 68,-65 117,-65 h 4 z m 135,786 c 19,-89 48,-242 60,-354 76,27 112,94 112,163 0,89 -60,179 -172,191 z M 74,28 c 0,-112 98,-247 278,-247 21,0 44,2 68,6 -7,64 -29,203 -63,364 -79,-8 -124,-61 -124,-119 0,-44 25,-91 81,-123 5,-5 7,-10 7,-15 0,-11 -10,-22 -22,-22 -15,0 -126,62 -126,187 0,88 58,174 160,197 -14,58 -29,117 -46,175 C 180,310 74,188 74,28 Z m 283,1166 c 28,0 143,-206 143,-361 0,-143 -86,-255 -180,-364 21,-68 39,-138 56,-207 5,0 10,1 14,1 155,0 255,-129 255,-262 0,-113 -74,-212 -180,-245 3,-35 5,-70 5,-105 0,-19 -1,-39 -2,-58 -7,-119 -88,-225 -202,-228 l 1,43 c 93,2 153,92 159,191 1,18 2,37 2,55 0,31 -1,61 -4,92 -28,-5 -55,-8 -80,-8 -239,0 -342,217 -342,374 0,177 131,306 248,441 -29,96 -52,170 -52,346 0,189 144,295 159,295 z M 247,782 c 0,-55 12,-115 35,-190 83,100 147,202 147,326 0,40 -6,82 -21,127 -49,-24 -161,-97 -161,-263 z"
       fill="currentColor"
       id="path16" />
  </g>
  <g
     transform="translate(4.885,7.2955)"
     id="g18">
    <path
       transform="scale(0.004,-0.004)"
       d="M 433,-89 C 433,-111 383,-263 250,-263 191,-263 0,-244 0,0 0,62 18,262 250,262 366,262 426,156 426,99 426,59 396,27 359,27 c -31,0 -75,25 -75,75 0,38 27,77 72,77 4,0 9,0 14,-1 -28,37 -72,59 -120,59 C 144,237 137,164 137,51 V 0 -51 c 0,-113 7,-187 113,-187 80,0 139,70 158,151 2,7 7,10 12,10 6,0 13,-4 13,-12 z"
       fill="currentColor"
       id="path17" />
  </g>
  <g
     transform="translate(10.9092,8.7955)"
     id="g19">
    <path
       transform="scale(0.004,-0.004)"
       d="M 0,0 C 0,31 25,56 56,56 87,56 112,31 112,0 112,-31 87,-56 56,-56 25,-56 0,-31 0,0 Z"
       fill="currentColor"
       id="path18" />
  </g>
  <g
     transform="translate(10.3942,7.2955)"
     id="g20">
    <path
       id="rect19"
       style="fill:currentColor"
       d="m -0.025,-1.5 h 0.05 c 0.02216,0 0.04,0.01784 0.04,0.04 v 3.2338001 c 0,0.02216 -0.01784,0.04 -0.04,0.04 h -0.05 c -0.02216,0 -0.04,-0.01784 -0.04,-0.04 V -1.46 c 0,-0.02216 0.01784,-0.04 0.04,-0.04 z" />
  </g>
  <g
     transform="translate(8.005,9.2955)"
     id="g21">
    <path
       transform="scale(0.004,-0.004)"
       d="m 27,41 -1,-66 v -11 c 0,-22 1,-44 4,-66 45,38 93,80 93,139 0,33 -14,67 -43,67 C 49,104 28,74 27,41 Z m -42,-179 -12,595 c 8,5 18,8 27,8 9,0 19,-3 27,-8 L 20,112 c 25,21 58,34 91,34 52,0 89,-48 89,-102 0,-80 -86,-117 -147,-169 -15,-13 -24,-38 -45,-38 -13,0 -23,11 -23,25 z"
       fill="currentColor"
       id="path20" />
  </g>
  <g
     transform="translate(36.499,3.58)"
     id="g22">
    <path
       style="font-style:italic;font-size:1.7459px;font-family:'NewComputerModern Math';white-space:pre"
       d="m 0.79787632,-0.29854891 c 0,-0.1431638 -0.10999171,-0.279344 -0.29156531,-0.3160079 0.1431638,-0.0471393 0.24442601,-0.16935231 0.24442601,-0.30727841 0,-0.14316378 -0.15363921,-0.24093418 -0.32124561,-0.24093418 -0.1763359,0 -0.30902431,0.104754 -0.30902431,0.23744238 0,0.0576147 0.0384098,0.0907868 0.0890409,0.0907868 0.0541229,0 0.0890409,-0.0384098 0.0890409,-0.0890409 0,-0.087295 -0.0820573,-0.087295 -0.10824581,-0.087295 0.0541229,-0.085549 0.16935231,-0.1082458 0.23220471,-0.1082458 0.0715819,0 0.1676064,0.03841 0.1676064,0.19554074 0,0.0209508 -0.003492,0.122213 -0.0488852,0.19903261 -0.052377,0.0838032 -0.1117376,0.0890409 -0.1553851,0.0907868 -0.0139672,0.001746 -0.0558688,0.005238 -0.0680901,0.005238 -0.0139672,0.001746 -0.0261885,0.003492 -0.0261885,0.0209508 0,0.0192049 0.0122213,0.0192049 0.0419016,0.0192049 h 0.0768196 c 0.1431638,0 0.2077621,0.1187212 0.2077621,0.2898194 0,0.23744241 -0.1204671,0.28807351 -0.1972867,0.28807351 -0.0750737,0 -0.20601621,-0.0296803 -0.26712271,-0.1326884 0.0611065,0.00873 0.11522941,-0.0296803 0.11522941,-0.0960245 0,-0.0628524 -0.0471393,-0.0977704 -0.0977704,-0.0977704 -0.0419016,0 -0.0977704,0.0244426 -0.0977704,0.10126221 0,0.1588769 0.1623687,0.2741063 0.35267181,0.2741063 0.2129998,0 0.37187671,-0.1588769 0.37187671,-0.33695898 z"
       id="text21"
       aria-label="3" />
  </g>
  <g
     transform="translate(15.5528,8.2955)"
     id="g23">
    <path
       transform="scale(0.004,-0.004)"
       d="M 0,-46 C 0,45 116,136 217,136 280,136 326,101 326,46 326,-41 216,-136 106,-136 39,-136 0,-97 0,-46 Z"
       fill="currentColor"
       id="path22" />
  </g>
  <g
     transform="translate(15.6178,7.2955)"
     id="g24">
    <path
       id="rect23"
       style="fill:currentColor"
       d="m -0.025,1.1862 h 0.05 c 0.02216,0 0.04,0.01784 0.04,0.04 v 2.7218999 c 0,0.02216 -0.01784,0.04 -0.04,0.04 h -0.05 c -0.02216,0 -0.04,-0.01784 -0.04,-0.04 V 1.2262 c 0,-0.02216 0.01784,-0.04 0.04,-0.04 z" />
  </g>
  <g
     transform="translate(14.4028,8.2955)"
     id="g25">
    <path
       transform="scale(0.004,-0.004)"
       d="m 27,41 -1,-66 v -11 c 0,-22 1,-44 4,-66 45,38 93,80 93,139 0,33 -14,67 -43,67 C 49,104 28,74 27,41 Z m -42,-179 -12,595 c 8,5 18,8 27,8 9,0 19,-3 27,-8 L 20,112 c 25,21 58,34 91,34 52,0 89,-48 89,-102 0,-80 -86,-117 -147,-169 -15,-13 -24,-38 -45,-38 -13,0 -23,11 -23,25 z"
       fill="currentColor"
       id="path24" />
  </g>
  <g
     transform="translate(34.3737,2.9555)"
     id="g26">
    <path
       id="line25"
       style="stroke:currentColor;stroke-width:0.16;stroke-linecap:round;stroke-linejoin:round"
       d="m 5.3383002,0.1294 v 0.7" />
  </g>
  <g
     transform="translate(34.3737,2.9555)"
     id="g27">
    <path
       id="line26"
       style="stroke:currentColor;stroke-width:0.16;stroke-linecap:round;stroke-linejoin:round"
       d="M -0.1999,-0.0048 V 0.69520003" />
  </g>
  <g
     transform="translate(34.3737,2.9555)"
     id="g28">
    <path
       id="line27"
       style="stroke:currentColor;stroke-width:0.16;stroke-linecap:round;stroke-linejoin:round"
       d="M 5.3383002,0.1294 3.6127999,0.0875" />
  </g>
  <g
     transform="translate(34.3737,2.9555)"
     id="g29">
    <path
       id="line28"
       style="stroke:currentColor;stroke-width:0.16;stroke-linecap:round;stroke-linejoin:round"
       d="M -0.1999,-0.0048 1.7256,0.0418" />
  </g>
  <g
     transform="translate(18.727,7.2955)"
     id="g30">
    <path
       transform="scale(0.004,-0.004)"
       d="M 0,-46 C 0,45 116,136 217,136 280,136 326,101 326,46 326,-41 216,-136 106,-136 39,-136 0,-97 0,-46 Z"
       fill="currentColor"
       id="path29" />
  </g>
  <g
     transform="translate(18.792,7.2955)"
     id="g31">
    <path
       id="rect30"
       style="fill:currentColor"
       d="m -0.025,0.18619999 h 0.05 c 0.02216,0 0.04,0.01784 0.04,0.04 V 3.3650001 c 0,0.02216 -0.01784,0.04 -0.04,0.04 h -0.05 c -0.02216,0 -0.04,-0.01784 -0.04,-0.04 V 0.22619999 c 0,-0.02216 0.01784,-0.04 0.04,-0.04 z" />
  </g>
  <g
     transform="translate(17.577,7.2955)"
     id="g32">
    <path
       transform="scale(0.004,-0.004)"
       d="m 27,41 -1,-66 v -11 c 0,-22 1,-44 4,-66 45,38 93,80 93,139 0,33 -14,67 -43,67 C 49,104 28,74 27,41 Z m -42,-179 -12,595 c 8,5 18,8 27,8 9,0 19,-3 27,-8 L 20,112 c 25,21 58,34 91,34 52,0 89,-48 89,-102 0,-80 -86,-117 -147,-169 -15,-13 -24,-38 -45,-38 -13,0 -23,11 -23,25 z"
       fill="currentColor"
       id="path31" />
  </g>
  <g
     transform="translate(15.5528,10.4855)"
     id="g33">
    <path
       id="polygon32"
       style="fill:currentColor;stroke:currentColor;stroke-width:0.08;stroke-linecap:round;stroke-linejoin:round"
       d="m 6.4384,-1.39 v 0.4 L 0.04,0.2 v -0.4 z" />
  </g>
  <g
     transform="translate(15.5528,11.2955)"
     id="g34">
    <path
       id="polygon33"
       style="fill:currentColor;stroke:currentColor;stroke-width:0.08;stroke-linecap:round;stroke-linejoin:round"
       d="m 6.4384,-1.39 v 0.4 L 0.04,0.2 v -0.4 z" />
  </g>
  <g
     transform="translate(21.9012,6.2955)"
     id="g35">
    <path
       transform="scale(0.004,-0.004)"
       d="M 0,-46 C 0,45 116,136 217,136 280,136 326,101 326,46 326,-41 216,-136 106,-136 39,-136 0,-97 0,-46 Z"
       fill="currentColor"
       id="path34" />
  </g>
  <g
     transform="translate(21.9662,7.2955)"
     id="g36">
    <path
       id="rect35"
       style="fill:currentColor"
       d="m -0.025,-0.81379998 h 0.05 c 0.02216,0 0.04,0.01784 0.04,0.04 V 2.7819 c 0,0.02216 -0.01784,0.04 -0.04,0.04 h -0.05 c -0.02216,0 -0.04,-0.01784 -0.04,-0.04 v -3.55569998 c 0,-0.02216 0.01784,-0.04 0.04,-0.04 z" />
  </g>
  <g
     transform="translate(20.7512,6.2955)"
     id="g37">
    <path
       transform="scale(0.004,-0.004)"
       d="m 27,41 -1,-66 v -11 c 0,-22 1,-44 4,-66 45,38 93,80 93,139 0,33 -14,67 -43,67 C 49,104 28,74 27,41 Z m -42,-179 -12,595 c 8,5 18,8 27,8 9,0 19,-3 27,-8 L 20,112 c 25,21 58,34 91,34 52,0 89,-48 89,-102 0,-80 -86,-117 -147,-169 -15,-13 -24,-38 -45,-38 -13,0 -23,11 -23,25 z"
       fill="currentColor"
       id="path36" />
  </g>
  <g
     transform="translate(18.3481,12.6144)"
     id="g38">
    <path
       style="font-style:italic;font-size:1.7459px;font-family:'NewComputerModern Math';white-space:pre"
       d="m 0.79787632,-0.29854891 c 0,-0.1431638 -0.10999171,-0.279344 -0.29156531,-0.3160079 0.1431638,-0.0471393 0.24442601,-0.16935231 0.24442601,-0.30727841 0,-0.14316378 -0.15363921,-0.24093418 -0.32124561,-0.24093418 -0.1763359,0 -0.30902431,0.104754 -0.30902431,0.23744238 0,0.0576147 0.0384098,0.0907868 0.0890409,0.0907868 0.0541229,0 0.0890409,-0.0384098 0.0890409,-0.0890409 0,-0.087295 -0.0820573,-0.087295 -0.10824581,-0.087295 0.0541229,-0.085549 0.16935231,-0.1082458 0.23220471,-0.1082458 0.0715819,0 0.1676064,0.03841 0.1676064,0.19554074 0,0.0209508 -0.003492,0.122213 -0.0488852,0.19903261 -0.052377,0.0838032 -0.1117376,0.0890409 -0.1553851,0.0907868 -0.0139672,0.001746 -0.0558688,0.005238 -0.0680901,0.005238 -0.0139672,0.001746 -0.0261885,0.003492 -0.0261885,0.0209508 0,0.0192049 0.0122213,0.0192049 0.0419016,0.0192049 h 0.0768196 c 0.1431638,0 0.2077621,0.1187212 0.2077621,0.2898194 0,0.23744241 -0.1204671,0.28807351 -0.1972867,0.28807351 -0.0750737,0 -0.20601621,-0.0296803 -0.26712271,-0.1326884 0.0611065,0.00873 0.11522941,-0.0296803 0.11522941,-0.0960245 0,-0.0628524 -0.0471393,-0.0977704 -0.0977704,-0.0977704 -0.0419016,0 -0.0977704,0.0244426 -0.0977704,0.10126221 0,0.1588769 0.1623687,0.2741063 0.35267181,0.2741063 0.2129998,0 0.37187671,-0.1588769 0.37187671,-0.33695898 z"
       id="text37"
       aria-label="3" />
  </g>
  <g
     transform="translate(24.4054,2.2955)"
     id="g39">
    <path
       style="font-size:2.3308px;font-family:'NewComputerModern Math';white-space:pre"
       d="m 1.6711836,0 v -0.0722548 h -0.041954 c -0.139848,0 -0.1724792,-0.0163156 -0.198118,-0.093232 l -0.50345278,-1.45675 c -0.011654,-0.0303 -0.0163156,-0.046616 -0.0536084,-0.046616 -0.0372928,0 -0.0442852,0.013985 -0.0559392,0.046616 L 0.33563521,-0.22841841 C 0.29368081,-0.1095476 0.2004488,-0.0745856 0.0745856,-0.0722548 V 0 L 0.31232721,-0.0069924 0.58036921,0 v -0.0722548 c -0.11654,0 -0.17481,-0.05827 -0.17481,-0.1188708 0,-0.006992 0.002331,-0.0303004 0.004662,-0.034962 l 0.1072168,-0.3053348 H 1.0931452 L 1.2166776,-0.17481 c 0.00233,0.009323 0.00699,0.023308 0.00699,0.0326312 0,0.069924 -0.1305248,0.069924 -0.1934564,0.069924 V 0 C 1.1141202,-0.0069924 1.277276,-0.0069924 1.3658464,-0.0069924 Z M 1.0675064,-0.60367721 H 0.54307641 L 0.80412602,-1.3611872 Z"
       id="text38"
       aria-label="A" />
  </g>
  <g
     transform="translate(26.1467,1.236)"
     id="g40">
    <path
       style="font-size:1.648px;font-family:'NewComputerModern Math';white-space:pre"
       d="m 0.548784,-0.529008 c 0,-0.121952 -0.09064,-0.229072 -0.225776,-0.229072 -0.092288,0 -0.158208,0.037904 -0.191168,0.069216 v -0.500992 c 0,-0.031312 0,-0.046144 -0.019776,-0.046144 -0.021424,0 -0.021424,0.013184 -0.021424,0.046144 v 1.179968 c 0,0.03296 0,0.046144 0.021424,0.046144 0.01648,0 0.187872,-0.118656 0.278512,-0.215888 0.09064,-0.097232 0.158208,-0.212592 0.158208,-0.349376 z m -0.133488,0 c 0,0.260384 -0.243904,0.46968 -0.283456,0.50264 v -0.538896 c 0,-0.037904 0,-0.072512 0.054384,-0.103824 0.051088,-0.029664 0.1236,-0.029664 0.1236,-0.029664 0.075808,0 0.105472,0.088992 0.105472,0.169744 z"
       id="text39"
       aria-label="♭" />
  </g>
  <g
     transform="translate(26.7954,3.0901)"
     id="g41">
    <path
       style="font-size:1.648px;font-family:'NewComputerModern Math';white-space:pre"
       d="M 0.79928,-1.061312 H 0.398816 c -0.201056,0 -0.204352,-0.021424 -0.210944,-0.052736 h -0.0412 L 0.092288,-0.77456 h 0.0412 c 0.004944,-0.026368 0.019776,-0.130192 0.0412,-0.149968 0.011536,-0.009888 0.14008,-0.009888 0.161504,-0.009888 h 0.341136 l -0.184576,0.260384 c -0.14832,0.22248 -0.202704,0.451552 -0.202704,0.619648 0,0.01648 0,0.09064 0.075808,0.09064 0.075808,0 0.075808,-0.07416 0.075808,-0.09064 v -0.084048 c 0,-0.09064 0.004944,-0.18128 0.018128,-0.270272 0.006592,-0.037904 0.029664,-0.179632 0.102176,-0.281808 l 0.22248,-0.31312 C 0.79928,-1.023408 0.79928,-1.026704 0.79928,-1.061312 Z"
       id="text40"
       aria-label="7" />
  </g>
  <g
     transform="translate(24.4054,6.7955)"
     id="g42">
    <path
       transform="scale(0.004,-0.004)"
       d="M 0,-46 C 0,45 116,136 217,136 280,136 326,101 326,46 326,-41 216,-136 106,-136 39,-136 0,-97 0,-46 Z"
       fill="currentColor"
       id="path41" />
  </g>
  <g
     transform="translate(24.4704,7.2955)"
     id="g43">
    <path
       id="rect42"
       style="fill:currentColor"
       d="m -0.025,-0.31380001 h 0.05 c 0.02216,0 0.04,0.01784 0.04,0.04 V 2.7726999 c 0,0.02216 -0.01784,0.04 -0.04,0.04 h -0.05 c -0.02216,0 -0.04,-0.01784 -0.04,-0.04 v -3.04649991 c 0,-0.02216 0.01784,-0.04 0.04,-0.04 z" />
  </g>
  <g
     transform="translate(28.8115,7.2955)"
     id="g44">
    <path
       transform="scale(0.004,-0.004)"
       d="M 0,-46 C 0,45 116,136 217,136 280,136 326,101 326,46 326,-41 216,-136 106,-136 39,-136 0,-97 0,-46 Z"
       fill="currentColor"
       id="path43" />
  </g>
  <g
     transform="translate(28.8765,7.2955)"
     id="g45">
    <path
       id="rect44"
       style="fill:currentColor"
       d="m -0.025,0.18619999 h 0.05 c 0.02216,0 0.04,0.01784 0.04,0.04 V 2.9573 c 0,0.02216 -0.01784,0.04 -0.04,0.04 h -0.05 c -0.02216,0 -0.04,-0.01784 -0.04,-0.04 V 0.22619999 c 0,-0.02216 0.01784,-0.04 0.04,-0.04 z" />
  </g>
  <g
     transform="translate(33.1995,7.7955)"
     id="g46">
    <path
       transform="scale(0.004,-0.004)"
       d="M 0,-46 C 0,45 116,136 217,136 280,136 326,101 326,46 326,-41 216,-136 106,-136 39,-136 0,-97 0,-46 Z"
       fill="currentColor"
       id="path45" />
  </g>
  <g
     transform="translate(34.4387,7.2955)"
     id="g47">
    <path
       id="rect46"
       style="fill:currentColor"
       d="m -0.025,-2.9984 h 0.05 c 0.02216,0 0.04,0.01784 0.04,0.04 v 3.2322001 c 0,0.02216 -0.01784,0.04 -0.04,0.04 h -0.05 c -0.02216,0 -0.04,-0.01784 -0.04,-0.04 V -2.9584 c 0,-0.02216 0.01784,-0.04 0.04,-0.04 z" />
  </g>
  <g
     transform="translate(32.0495,7.7955)"
     id="g48">
    <path
       transform="scale(0.004,-0.004)"
       d="m 27,41 -1,-66 v -11 c 0,-22 1,-44 4,-66 45,38 93,80 93,139 0,33 -14,67 -43,67 C 49,104 28,74 27,41 Z m -42,-179 -12,595 c 8,5 18,8 27,8 9,0 19,-3 27,-8 L 20,112 c 25,21 58,34 91,34 52,0 89,-48 89,-102 0,-80 -86,-117 -147,-169 -15,-13 -24,-38 -45,-38 -13,0 -23,11 -23,25 z"
       fill="currentColor"
       id="path47" />
  </g>
  <g
     transform="translate(35.7037,7.2955)"
     id="g49">
    <path
       transform="scale(0.004,-0.004)"
       d="M 0,-46 C 0,45 116,136 217,136 280,136 326,101 326,46 326,-41 216,-136 106,-136 39,-136 0,-97 0,-46 Z"
       fill="currentColor"
       id="path48" />
  </g>
  <g
     transform="translate(36.9429,7.2955)"
     id="g50">
    <path
       id="rect49"
       style="fill:currentColor"
       d="m -0.025,-2.9361 h 0.05 c 0.02216,0 0.04,0.01784 0.04,0.04 v 2.6699001 c 0,0.02216 -0.01784,0.04 -0.04,0.04 h -0.05 c -0.02216,0 -0.04,-0.01784 -0.04,-0.04 V -2.8961 c 0,-0.02216 0.01784,-0.04 0.04,-0.04 z" />
  </g>
  <g
     transform="translate(38.2079,7.7955)"
     id="g51">
    <path
       transform="scale(0.004,-0.004)"
       d="M 0,-46 C 0,45 116,136 217,136 280,136 326,101 326,46 326,-41 216,-136 106,-136 39,-136 0,-97 0,-46 Z"
       fill="currentColor"
       id="path50" />
  </g>
  <g
     transform="translate(39.4471,7.2955)"
     id="g52">
    <path
       id="rect51"
       style="fill:currentColor"
       d="m -0.025,-2.8738999 h 0.05 c 0.02216,0 0.04,0.01784 0.04,0.04 v 3.1077 c 0,0.02216 -0.01784,0.04 -0.04,0.04 h -0.05 c -0.02216,0 -0.04,-0.01784 -0.04,-0.04 v -3.1077 c 0,-0.02216 0.01784,-0.04 0.04,-0.04 z" />
  </g>
  <g
     transform="translate(40.7121,8.2955)"
     id="g53">
    <path
       transform="scale(0.004,-0.004)"
       d="M 0,-46 C 0,45 116,136 217,136 280,136 326,101 326,46 326,-41 216,-136 106,-136 39,-136 0,-97 0,-46 Z"
       fill="currentColor"
       id="path52" />
  </g>
  <g
     transform="translate(41.9513,7.2955)"
     id="g54">
    <path
       id="rect53"
       style="fill:currentColor"
       d="m -0.025,-2.8116 h 0.05 c 0.02216,0 0.04,0.01784 0.04,0.04 v 3.5454001 c 0,0.02216 -0.01784,0.04 -0.04,0.04 h -0.05 c -0.02216,0 -0.04,-0.01784 -0.04,-0.04 V -2.7716 c 0,-0.02216 0.01784,-0.04 0.04,-0.04 z" />
  </g>
  <g
     transform="translate(46.4092,2.2955)"
     id="g55">
    <path
       style="font-size:2.3308px;font-family:'NewComputerModern Math';white-space:pre"
       d="m 1.6478756,-0.78314882 c 0,-0.44285198 -0.314658,-0.80878758 -0.71322478,-0.80878758 H 0.081578 v 0.072255 h 0.0559392 c 0.17947161,0 0.18413321,0.025639 0.18413321,0.1095476 v 1.2283316 c 0,0.0839088 -0.004662,0.1095476 -0.18413321,0.1095476 H 0.081578 V 0 H 0.93465082 C 1.3262252,0 1.6478756,-0.34495841 1.6478756,-0.78314882 Z m -0.23308,0 c 0,0.25871881 -0.044285,0.39856681 -0.128194,0.51277601 -0.046616,0.0629316 -0.1794716,0.19811801 -0.41488238,0.19811801 h -0.2354108 c -0.10954761,0 -0.11420921,-0.0163156 -0.11420921,-0.093232 v -1.2609628 c 0,-0.076916 0.004662,-0.093232 0.11420921,-0.093232 h 0.23308 c 0.14450958,0 0.30533478,0.051278 0.42420558,0.2167644 0.1002244,0.1375172 0.1212016,0.33796598 0.1212016,0.51976838 z"
       id="text54"
       aria-label="D" />
  </g>
  <g
     transform="translate(48.1847,1.236)"
     id="g56">
    <path
       style="font-size:1.648px;font-family:'NewComputerModern Math';white-space:pre"
       d="m 0.548784,-0.529008 c 0,-0.121952 -0.09064,-0.229072 -0.225776,-0.229072 -0.092288,0 -0.158208,0.037904 -0.191168,0.069216 v -0.500992 c 0,-0.031312 0,-0.046144 -0.019776,-0.046144 -0.021424,0 -0.021424,0.013184 -0.021424,0.046144 v 1.179968 c 0,0.03296 0,0.046144 0.021424,0.046144 0.01648,0 0.187872,-0.118656 0.278512,-0.215888 0.09064,-0.097232 0.158208,-0.212592 0.158208,-0.349376 z m -0.133488,0 c 0,0.260384 -0.243904,0.46968 -0.283456,0.50264 v -0.538896 c 0,-0.037904 0,-0.072512 0.054384,-0.103824 0.051088,-0.029664 0.1236,-0.029664 0.1236,-0.029664 0.075808,0 0.105472,0.088992 0.105472,0.169744 z"
       id="text55"
       aria-label="♭" />
  </g>
  <g
     transform="translate(48.8334,3.0901)"
     id="g57">
    <path
       style="font-size:1.648px;font-family:'NewComputerModern Math';white-space:pre"
       d="m 1.502976,-0.02472 c 0,-0.004944 -0.00165,-0.011536 -0.00494,-0.01648 L 0.825648,-1.204688 c -0.004944,-0.00989 -0.01648,-0.01648 -0.028016,-0.01648 -0.013184,0 -0.023072,0.00659 -0.028016,0.01648 L 0.097232,-0.0412 c -0.003296,0.004944 -0.004944,0.011536 -0.004944,0.01648 0,0.019776 0.014832,0.03296 0.03296,0.03296 h 1.344768 c 0.018128,0 0.03296,-0.013184 0.03296,-0.03296 z M 1.412336,-0.05768 H 0.182928 l 0.614704,-1.064608 z"
       id="text56"
       aria-label="△" />
  </g>
  <g
     transform="translate(50.4381,3.0901)"
     id="g58">
    <path
       style="font-size:1.648px;font-family:'NewComputerModern Math';white-space:pre"
       d="M 0.79928,-1.061312 H 0.398816 c -0.201056,0 -0.204352,-0.021424 -0.210944,-0.052736 h -0.0412 L 0.092288,-0.77456 h 0.0412 c 0.004944,-0.026368 0.019776,-0.130192 0.0412,-0.149968 0.011536,-0.009888 0.14008,-0.009888 0.161504,-0.009888 h 0.341136 l -0.184576,0.260384 c -0.14832,0.22248 -0.202704,0.451552 -0.202704,0.619648 0,0.01648 0,0.09064 0.075808,0.09064 0.075808,0 0.075808,-0.07416 0.075808,-0.09064 v -0.084048 c 0,-0.09064 0.004944,-0.18128 0.018128,-0.270272 0.006592,-0.037904 0.029664,-0.179632 0.102176,-0.281808 l 0.22248,-0.31312 C 0.79928,-1.023408 0.79928,-1.026704 0.79928,-1.061312 Z"
       id="text57"
       aria-label="7" />
  </g>
  <g
     transform="translate(46.4092,8.7955)"
     id="g59">
    <path
       transform="scale(0.004,-0.004)"
       d="M 0,-46 C 0,45 116,136 217,136 280,136 326,101 326,46 326,-41 216,-136 106,-136 39,-136 0,-97 0,-46 Z"
       fill="currentColor"
       id="path58" />
  </g>
  <g
     transform="translate(47.6484,7.2955)"
     id="g60">
    <path
       id="rect59"
       style="fill:currentColor"
       d="m -0.025,-2 h 0.05 c 0.02216,0 0.04,0.01784 0.04,0.04 v 3.2338001 c 0,0.02216 -0.01784,0.04 -0.04,0.04 h -0.05 c -0.02216,0 -0.04,-0.01784 -0.04,-0.04 V -1.96 c 0,-0.02216 0.01784,-0.04 0.04,-0.04 z" />
  </g>
  <g
     transform="translate(52.0154,7.2955)"
     id="g61">
    <path
       transform="scale(0.004,-0.004)"
       d="m -6,78 c 0,59 124,83 124,182 0,24 -8,49 -25,69 l -35,42 c -3,3 -4,7 -4,10 0,9 9,15 17,15 4,0 8,-1 11,-5 L 233,211 c 7,-9 10,-17 10,-25 0,-59 -124,-83 -124,-182 0,-24 7,-49 24,-69 l 84,-99 c 3,-3 4,-7 4,-10 0,-9 -8,-16 -16,-16 -8,0 -45,44 -109,44 -16,0 -53,0 -53,-67 0,-62 30,-97 30,-100 0,-4 -4,-7 -8,-7 -13,0 -98,130 -98,204 0,41 27,42 40,42 33,0 78,-13 119,-31 L 4,53 C -3,62 -6,70 -6,78 Z"
       fill="currentColor"
       id="path60" />
  </g>
  <g
     transform="translate(57.2673,7.2955)"
     id="g62">
    <path
       transform="scale(0.004,-0.004)"
       d="M 365,0 H 10 C 4,0 0,4 0,10 v 136 c 0,6 4,10 10,10 h 355 c 6,0 10,-4 10,-10 V 10 C 375,4 371,0 365,0 Z"
       fill="currentColor"
       id="path61" />
  </g>
</svg>
